<?xml version="1.0" encoding="UTF-8" standalone="no"?>
<!DOCTYPE svg PUBLIC "-//W3C//DTD SVG 1.1//EN"
 "http://www.w3.org/Graphics/SVG/1.1/DTD/svg11.dtd">
<!-- Generated by graphviz version 2.43.0 (0)
 -->
<!-- Title: %3 Pages: 1 -->
<svg width="1675pt" height="353pt"
 viewBox="0.00 0.00 1674.90 353.00" xmlns="http://www.w3.org/2000/svg" xmlns:xlink="http://www.w3.org/1999/xlink">
<g id="graph0" class="graph" transform="scale(1 1) rotate(0) translate(4 349)">
<title>%3</title>
<polygon fill="white" stroke="transparent" points="-4,4 -4,-349 1670.9,-349 1670.9,4 -4,4"/>
<text text-anchor="middle" x="833.45" y="-329.8" font-family="Times,serif" font-size="14.00">ConsTree</text>
<text text-anchor="middle" x="833.45" y="-314.8" font-family="Times,serif" font-size="14.00">Tree Quality = 0.625</text>
<g id="clust1" class="cluster">
<title>cluster</title>
<polygon fill="none" stroke="black" points="1422.9,-8 1422.9,-299 1658.9,-299 1658.9,-8 1422.9,-8"/>
<text text-anchor="middle" x="1540.9" y="-283.8" font-family="Times,serif" font-size="14.00">Legend</text>
</g>
<!-- 00 -->
<g id="node1" class="node">
<title>00</title>
<ellipse fill="#b9d3ee" stroke="black" cx="433.9" cy="-250" rx="324" ry="18"/>
<text text-anchor="middle" x="433.9" y="-246.3" font-family="Times,serif" font-size="14.00">1000</text>
</g>
<!-- 10 -->
<g id="node3" class="node">
<title>10</title>
<ellipse fill="#b9d3ee" stroke="black" cx="280.9" cy="-178" rx="108" ry="18"/>
<text text-anchor="middle" x="280.9" y="-174.3" font-family="Times,serif" font-size="14.00">400</text>
</g>
<!-- 00&#45;&gt;10 -->
<g id="edge1" class="edge">
<title>00&#45;&gt;10</title>
<path fill="none" stroke="black" d="M396.86,-232.05C375.25,-222.17 347.86,-209.64 325.12,-199.23"/>
<polygon fill="black" stroke="black" points="326.57,-196.05 316.02,-195.07 323.66,-202.41 326.57,-196.05"/>
</g>
<!-- 11 -->
<g id="node4" class="node">
<title>11</title>
<ellipse fill="#b9d3ee" stroke="black" cx="687.9" cy="-178" rx="180" ry="18"/>
<text text-anchor="middle" x="687.9" y="-174.3" font-family="Times,serif" font-size="14.00">600</text>
</g>
<!-- 00&#45;&gt;11 -->
<g id="edge2" class="edge">
<title>00&#45;&gt;11</title>
<path fill="none" stroke="black" d="M494.74,-232.23C532.35,-221.87 580.71,-208.54 619.63,-197.82"/>
<polygon fill="black" stroke="black" points="620.59,-201.18 629.3,-195.15 618.73,-194.43 620.59,-201.18"/>
</g>
<!-- legend_0 -->
<g id="node2" class="node">
<title>legend_0</title>
<polygon fill="#b9d3ee" stroke="black" points="1651.4,-268 1430.4,-268 1430.4,-232 1651.4,-232 1651.4,-268"/>
<text text-anchor="middle" x="1540.9" y="-246.3" font-family="Times,serif" font-size="14.00">DT=4 ST=4 Similarity=0.38</text>
</g>
<!-- legend_1 -->
<g id="node5" class="node">
<title>legend_1</title>
<polygon fill="#b9d3ee" stroke="black" points="1646.9,-196 1434.9,-196 1434.9,-160 1646.9,-160 1646.9,-196"/>
<text text-anchor="middle" x="1540.9" y="-174.3" font-family="Times,serif" font-size="14.00">DT=6 ST=2 Similarity=0.7</text>
</g>
<!-- legend_0&#45;&gt;legend_1 -->
<g id="edge3" class="edge">
<title>legend_0&#45;&gt;legend_1</title>
<path fill="none" stroke="black" d="M1540.9,-231.7C1540.9,-223.98 1540.9,-214.71 1540.9,-206.11"/>
<polygon fill="black" stroke="black" points="1544.4,-206.1 1540.9,-196.1 1537.4,-206.1 1544.4,-206.1"/>
</g>
<!-- 21 -->
<g id="node7" class="node">
<title>21</title>
<polygon fill="darkseagreen" stroke="black" points="317.9,-124 101.9,-124 101.9,-88 317.9,-88 317.9,-124"/>
<text text-anchor="middle" x="209.9" y="-102.3" font-family="Times,serif" font-size="14.00">400</text>
</g>
<!-- 10&#45;&gt;21 -->
<g id="edge5" class="edge">
<title>10&#45;&gt;21</title>
<path fill="none" stroke="black" d="M263.71,-160.05C255.03,-151.5 244.34,-140.96 234.78,-131.54"/>
<polygon fill="black" stroke="black" points="237,-128.8 227.42,-124.28 232.08,-133.79 237,-128.8"/>
</g>
<!-- 20 -->
<g id="node6" class="node">
<title>20</title>
<polygon fill="darkseagreen" stroke="black" points="723.9,-124 651.9,-124 651.9,-88 723.9,-88 723.9,-124"/>
<text text-anchor="middle" x="687.9" y="-102.3" font-family="Times,serif" font-size="14.00">200</text>
</g>
<!-- 11&#45;&gt;20 -->
<g id="edge4" class="edge">
<title>11&#45;&gt;20</title>
<path fill="none" stroke="black" d="M687.9,-159.7C687.9,-151.98 687.9,-142.71 687.9,-134.11"/>
<polygon fill="black" stroke="black" points="691.4,-134.1 687.9,-124.1 684.4,-134.1 691.4,-134.1"/>
</g>
<!-- 22 -->
<g id="node8" class="node">
<title>22</title>
<polygon fill="darkseagreen" stroke="black" points="1178.9,-124 962.9,-124 962.9,-88 1178.9,-88 1178.9,-124"/>
<text text-anchor="middle" x="1070.9" y="-102.3" font-family="Times,serif" font-size="14.00">400</text>
</g>
<!-- 11&#45;&gt;22 -->
<g id="edge6" class="edge">
<title>11&#45;&gt;22</title>
<path fill="none" stroke="black" d="M770.06,-161.98C827.84,-151.42 905.59,-137.21 967.57,-125.89"/>
<polygon fill="black" stroke="black" points="968.56,-129.26 977.77,-124.02 967.3,-122.38 968.56,-129.26"/>
</g>
<!-- legend_2 -->
<g id="node9" class="node">
<title>legend_2</title>
<polygon fill="darkseagreen" stroke="black" points="1646.9,-124 1434.9,-124 1434.9,-88 1646.9,-88 1646.9,-124"/>
<text text-anchor="middle" x="1540.9" y="-102.3" font-family="Times,serif" font-size="14.00">DT=7 ST=1 Similarity=0.8</text>
</g>
<!-- legend_1&#45;&gt;legend_2 -->
<g id="edge7" class="edge">
<title>legend_1&#45;&gt;legend_2</title>
<path fill="none" stroke="black" d="M1540.9,-159.7C1540.9,-151.98 1540.9,-142.71 1540.9,-134.11"/>
<polygon fill="black" stroke="black" points="1544.4,-134.1 1540.9,-124.1 1537.4,-134.1 1544.4,-134.1"/>
</g>
<!-- 31 -->
<g id="node11" class="node">
<title>31</title>
<ellipse fill="#b9d3ee" stroke="black" cx="479.9" cy="-34" rx="16.8" ry="18"/>
<text text-anchor="middle" x="479.9" y="-30.3" font-family="Times,serif" font-size="14.00">1</text>
</g>
<!-- 20&#45;&gt;31 -->
<g id="edge9" class="edge">
<title>20&#45;&gt;31</title>
<path fill="none" stroke="black" d="M651.89,-97.82C614.35,-89.59 554.33,-74.28 505.9,-52 504.71,-51.45 503.52,-50.86 502.33,-50.23"/>
<polygon fill="black" stroke="black" points="503.88,-47.08 493.49,-44.97 500.29,-53.09 503.88,-47.08"/>
</g>
<!-- 32 -->
<g id="node12" class="node">
<title>32</title>
<ellipse fill="#b9d3ee" stroke="black" cx="531.9" cy="-34" rx="16.8" ry="18"/>
<text text-anchor="middle" x="531.9" y="-30.3" font-family="Times,serif" font-size="14.00">1</text>
</g>
<!-- 20&#45;&gt;32 -->
<g id="edge10" class="edge">
<title>20&#45;&gt;32</title>
<path fill="none" stroke="black" d="M651.75,-92.39C625.19,-82.63 588.55,-68.08 557.9,-52 556.74,-51.39 555.57,-50.75 554.4,-50.08"/>
<polygon fill="black" stroke="black" points="555.98,-46.95 545.63,-44.68 552.31,-52.91 555.98,-46.95"/>
</g>
<!-- 37 -->
<g id="node17" class="node">
<title>37</title>
<ellipse fill="#b9d3ee" stroke="black" cx="583.9" cy="-34" rx="16.8" ry="18"/>
<text text-anchor="middle" x="583.9" y="-30.3" font-family="Times,serif" font-size="14.00">5</text>
</g>
<!-- 20&#45;&gt;37 -->
<g id="edge15" class="edge">
<title>20&#45;&gt;37</title>
<path fill="none" stroke="black" d="M662.46,-87.88C645.31,-76.33 622.89,-61.24 606.39,-50.14"/>
<polygon fill="black" stroke="black" points="608.16,-47.11 597.91,-44.43 604.25,-52.92 608.16,-47.11"/>
</g>
<!-- 39 -->
<g id="node19" class="node">
<title>39</title>
<ellipse fill="#b9d3ee" stroke="black" cx="635.9" cy="-34" rx="16.8" ry="18"/>
<text text-anchor="middle" x="635.9" y="-30.3" font-family="Times,serif" font-size="14.00">8</text>
</g>
<!-- 20&#45;&gt;39 -->
<g id="edge17" class="edge">
<title>20&#45;&gt;39</title>
<path fill="none" stroke="black" d="M675.04,-87.7C668.16,-78.43 659.6,-66.91 652.25,-57.01"/>
<polygon fill="black" stroke="black" points="654.94,-54.76 646.17,-48.82 649.32,-58.94 654.94,-54.76"/>
</g>
<!-- 310 -->
<g id="node20" class="node">
<title>310</title>
<ellipse fill="#b9d3ee" stroke="black" cx="687.9" cy="-34" rx="16.8" ry="18"/>
<text text-anchor="middle" x="687.9" y="-30.3" font-family="Times,serif" font-size="14.00">9</text>
</g>
<!-- 20&#45;&gt;310 -->
<g id="edge18" class="edge">
<title>20&#45;&gt;310</title>
<path fill="none" stroke="black" d="M687.9,-87.7C687.9,-79.98 687.9,-70.71 687.9,-62.11"/>
<polygon fill="black" stroke="black" points="691.4,-62.1 687.9,-52.1 684.4,-62.1 691.4,-62.1"/>
</g>
<!-- 314 -->
<g id="node24" class="node">
<title>314</title>
<ellipse fill="#b9d3ee" stroke="black" cx="745.9" cy="-34" rx="23" ry="18"/>
<text text-anchor="middle" x="745.9" y="-30.3" font-family="Times,serif" font-size="14.00">31</text>
</g>
<!-- 20&#45;&gt;314 -->
<g id="edge22" class="edge">
<title>20&#45;&gt;314</title>
<path fill="none" stroke="black" d="M702.24,-87.7C709.78,-78.59 719.13,-67.31 727.24,-57.52"/>
<polygon fill="black" stroke="black" points="730,-59.67 733.69,-49.74 724.61,-55.21 730,-59.67"/>
</g>
<!-- 315 -->
<g id="node25" class="node">
<title>315</title>
<ellipse fill="#b9d3ee" stroke="black" cx="808.9" cy="-34" rx="23" ry="18"/>
<text text-anchor="middle" x="808.9" y="-30.3" font-family="Times,serif" font-size="14.00">39</text>
</g>
<!-- 20&#45;&gt;315 -->
<g id="edge23" class="edge">
<title>20&#45;&gt;315</title>
<path fill="none" stroke="black" d="M717.5,-87.88C737.22,-76.47 762.93,-61.59 782.06,-50.53"/>
<polygon fill="black" stroke="black" points="783.96,-53.47 790.86,-45.43 780.45,-47.41 783.96,-53.47"/>
</g>
<!-- 316 -->
<g id="node26" class="node">
<title>316</title>
<ellipse fill="#b9d3ee" stroke="black" cx="871.9" cy="-34" rx="23" ry="18"/>
<text text-anchor="middle" x="871.9" y="-30.3" font-family="Times,serif" font-size="14.00">51</text>
</g>
<!-- 20&#45;&gt;316 -->
<g id="edge24" class="edge">
<title>20&#45;&gt;316</title>
<path fill="none" stroke="black" d="M724.11,-94.35C755.53,-84.66 801.97,-69.27 840.9,-52 842.27,-51.39 843.65,-50.75 845.05,-50.08"/>
<polygon fill="black" stroke="black" points="846.83,-53.1 854.13,-45.41 843.63,-46.87 846.83,-53.1"/>
</g>
<!-- 317 -->
<g id="node27" class="node">
<title>317</title>
<ellipse fill="#b9d3ee" stroke="black" cx="934.9" cy="-34" rx="23" ry="18"/>
<text text-anchor="middle" x="934.9" y="-30.3" font-family="Times,serif" font-size="14.00">55</text>
</g>
<!-- 20&#45;&gt;317 -->
<g id="edge25" class="edge">
<title>20&#45;&gt;317</title>
<path fill="none" stroke="black" d="M723.94,-99.13C767.55,-91.37 842.73,-75.8 903.9,-52 905.29,-51.46 906.7,-50.86 908.11,-50.23"/>
<polygon fill="black" stroke="black" points="909.84,-53.28 917.25,-45.71 906.74,-47.01 909.84,-53.28"/>
</g>
<!-- 33 -->
<g id="node13" class="node">
<title>33</title>
<ellipse fill="#b9d3ee" stroke="black" cx="16.9" cy="-34" rx="16.8" ry="18"/>
<text text-anchor="middle" x="16.9" y="-30.3" font-family="Times,serif" font-size="14.00">1</text>
</g>
<!-- 21&#45;&gt;33 -->
<g id="edge11" class="edge">
<title>21&#45;&gt;33</title>
<path fill="none" stroke="black" d="M141.67,-87.9C110.77,-79.01 74.22,-66.87 42.9,-52 41.72,-51.44 40.53,-50.84 39.35,-50.2"/>
<polygon fill="black" stroke="black" points="40.9,-47.05 30.52,-44.9 37.3,-53.05 40.9,-47.05"/>
</g>
<!-- 36 -->
<g id="node16" class="node">
<title>36</title>
<ellipse fill="#b9d3ee" stroke="black" cx="68.9" cy="-34" rx="16.8" ry="18"/>
<text text-anchor="middle" x="68.9" y="-30.3" font-family="Times,serif" font-size="14.00">4</text>
</g>
<!-- 21&#45;&gt;36 -->
<g id="edge14" class="edge">
<title>21&#45;&gt;36</title>
<path fill="none" stroke="black" d="M169,-87.9C146.7,-78.15 118.85,-65.25 94.9,-52 93.76,-51.37 92.6,-50.7 91.44,-50.02"/>
<polygon fill="black" stroke="black" points="93.03,-46.89 82.7,-44.56 89.33,-52.83 93.03,-46.89"/>
</g>
<!-- 38 -->
<g id="node18" class="node">
<title>38</title>
<ellipse fill="#b9d3ee" stroke="black" cx="120.9" cy="-34" rx="16.8" ry="18"/>
<text text-anchor="middle" x="120.9" y="-30.3" font-family="Times,serif" font-size="14.00">7</text>
</g>
<!-- 21&#45;&gt;38 -->
<g id="edge16" class="edge">
<title>21&#45;&gt;38</title>
<path fill="none" stroke="black" d="M187.9,-87.7C173.92,-76.7 155.91,-62.54 142.09,-51.67"/>
<polygon fill="black" stroke="black" points="144.12,-48.81 134.1,-45.38 139.79,-54.31 144.12,-48.81"/>
</g>
<!-- 311 -->
<g id="node21" class="node">
<title>311</title>
<ellipse fill="#b9d3ee" stroke="black" cx="178.9" cy="-34" rx="23" ry="18"/>
<text text-anchor="middle" x="178.9" y="-30.3" font-family="Times,serif" font-size="14.00">10</text>
</g>
<!-- 21&#45;&gt;311 -->
<g id="edge19" class="edge">
<title>21&#45;&gt;311</title>
<path fill="none" stroke="black" d="M202.24,-87.7C198.6,-79.49 194.19,-69.52 190.18,-60.48"/>
<polygon fill="black" stroke="black" points="193.3,-58.87 186.05,-51.14 186.9,-61.71 193.3,-58.87"/>
</g>
<!-- 313 -->
<g id="node23" class="node">
<title>313</title>
<ellipse fill="#b9d3ee" stroke="black" cx="241.9" cy="-34" rx="23" ry="18"/>
<text text-anchor="middle" x="241.9" y="-30.3" font-family="Times,serif" font-size="14.00">18</text>
</g>
<!-- 21&#45;&gt;313 -->
<g id="edge21" class="edge">
<title>21&#45;&gt;313</title>
<path fill="none" stroke="black" d="M217.81,-87.7C221.56,-79.49 226.12,-69.52 230.25,-60.48"/>
<polygon fill="black" stroke="black" points="233.54,-61.69 234.52,-51.14 227.18,-58.78 233.54,-61.69"/>
</g>
<!-- 318 -->
<g id="node28" class="node">
<title>318</title>
<ellipse fill="#b9d3ee" stroke="black" cx="318.9" cy="-34" rx="36" ry="18"/>
<text text-anchor="middle" x="318.9" y="-30.3" font-family="Times,serif" font-size="14.00">170</text>
</g>
<!-- 21&#45;&gt;318 -->
<g id="edge26" class="edge">
<title>21&#45;&gt;318</title>
<path fill="none" stroke="black" d="M236.56,-87.88C252.41,-77.7 272.55,-64.77 288.94,-54.24"/>
<polygon fill="black" stroke="black" points="291.09,-57.02 297.61,-48.67 287.31,-51.13 291.09,-57.02"/>
</g>
<!-- 319 -->
<g id="node29" class="node">
<title>319</title>
<ellipse fill="#b9d3ee" stroke="black" cx="408.9" cy="-34" rx="36" ry="18"/>
<text text-anchor="middle" x="408.9" y="-30.3" font-family="Times,serif" font-size="14.00">190</text>
</g>
<!-- 21&#45;&gt;319 -->
<g id="edge27" class="edge">
<title>21&#45;&gt;319</title>
<path fill="none" stroke="black" d="M260.66,-87.95C290.75,-77.74 329.59,-64.38 363.9,-52 366.3,-51.13 368.78,-50.23 371.27,-49.31"/>
<polygon fill="black" stroke="black" points="372.71,-52.51 380.86,-45.74 370.27,-45.95 372.71,-52.51"/>
</g>
<!-- 30 -->
<g id="node10" class="node">
<title>30</title>
<ellipse fill="#b9d3ee" stroke="black" cx="992.9" cy="-34" rx="16.8" ry="18"/>
<text text-anchor="middle" x="992.9" y="-30.3" font-family="Times,serif" font-size="14.00">1</text>
</g>
<!-- 22&#45;&gt;30 -->
<g id="edge8" class="edge">
<title>22&#45;&gt;30</title>
<path fill="none" stroke="black" d="M1051.62,-87.7C1039.89,-77.17 1024.93,-63.75 1013.05,-53.08"/>
<polygon fill="black" stroke="black" points="1015.17,-50.28 1005.39,-46.21 1010.49,-55.49 1015.17,-50.28"/>
</g>
<!-- 34 -->
<g id="node14" class="node">
<title>34</title>
<ellipse fill="#b9d3ee" stroke="black" cx="1044.9" cy="-34" rx="16.8" ry="18"/>
<text text-anchor="middle" x="1044.9" y="-30.3" font-family="Times,serif" font-size="14.00">1</text>
</g>
<!-- 22&#45;&gt;34 -->
<g id="edge12" class="edge">
<title>22&#45;&gt;34</title>
<path fill="none" stroke="black" d="M1064.47,-87.7C1061.46,-79.58 1057.8,-69.74 1054.47,-60.76"/>
<polygon fill="black" stroke="black" points="1057.66,-59.3 1050.9,-51.14 1051.1,-61.74 1057.66,-59.3"/>
</g>
<!-- 35 -->
<g id="node15" class="node">
<title>35</title>
<ellipse fill="#b9d3ee" stroke="black" cx="1096.9" cy="-34" rx="16.8" ry="18"/>
<text text-anchor="middle" x="1096.9" y="-30.3" font-family="Times,serif" font-size="14.00">3</text>
</g>
<!-- 22&#45;&gt;35 -->
<g id="edge13" class="edge">
<title>22&#45;&gt;35</title>
<path fill="none" stroke="black" d="M1077.33,-87.7C1080.34,-79.58 1084,-69.74 1087.33,-60.76"/>
<polygon fill="black" stroke="black" points="1090.7,-61.74 1090.9,-51.14 1084.14,-59.3 1090.7,-61.74"/>
</g>
<!-- 312 -->
<g id="node22" class="node">
<title>312</title>
<ellipse fill="#b9d3ee" stroke="black" cx="1154.9" cy="-34" rx="23" ry="18"/>
<text text-anchor="middle" x="1154.9" y="-30.3" font-family="Times,serif" font-size="14.00">12</text>
</g>
<!-- 22&#45;&gt;312 -->
<g id="edge20" class="edge">
<title>22&#45;&gt;312</title>
<path fill="none" stroke="black" d="M1091.66,-87.7C1103.86,-77.53 1119.29,-64.67 1131.86,-54.2"/>
<polygon fill="black" stroke="black" points="1134.2,-56.8 1139.65,-47.71 1129.72,-51.42 1134.2,-56.8"/>
</g>
<!-- 320 -->
<g id="node30" class="node">
<title>320</title>
<ellipse fill="#b9d3ee" stroke="black" cx="1303.9" cy="-34" rx="108" ry="18"/>
<text text-anchor="middle" x="1303.9" y="-30.3" font-family="Times,serif" font-size="14.00">383</text>
</g>
<!-- 22&#45;&gt;320 -->
<g id="edge28" class="edge">
<title>22&#45;&gt;320</title>
<path fill="none" stroke="black" d="M1127.6,-87.97C1162.81,-77.39 1208.03,-63.8 1243.85,-53.04"/>
<polygon fill="black" stroke="black" points="1245.12,-56.31 1253.69,-50.08 1243.11,-49.61 1245.12,-56.31"/>
</g>
<!-- legend_3 -->
<g id="node31" class="node">
<title>legend_3</title>
<polygon fill="#b9d3ee" stroke="black" points="1651.4,-52 1430.4,-52 1430.4,-16 1651.4,-16 1651.4,-52"/>
<text text-anchor="middle" x="1540.9" y="-30.3" font-family="Times,serif" font-size="14.00">DT=8 ST=1 Similarity=0.59</text>
</g>
<!-- legend_2&#45;&gt;legend_3 -->
<g id="edge29" class="edge">
<title>legend_2&#45;&gt;legend_3</title>
<path fill="none" stroke="black" d="M1540.9,-87.7C1540.9,-79.98 1540.9,-70.71 1540.9,-62.11"/>
<polygon fill="black" stroke="black" points="1544.4,-62.1 1540.9,-52.1 1537.4,-62.1 1544.4,-62.1"/>
</g>
</g>
</svg>
