<?xml version="1.0" encoding="UTF-8" standalone="no"?>
<!DOCTYPE svg PUBLIC "-//W3C//DTD SVG 1.1//EN"
 "http://www.w3.org/Graphics/SVG/1.1/DTD/svg11.dtd">
<!-- Generated by graphviz version 2.43.0 (0)
 -->
<!-- Title: %3 Pages: 1 -->
<svg width="1850pt" height="353pt"
 viewBox="0.00 0.00 1849.90 353.00" xmlns="http://www.w3.org/2000/svg" xmlns:xlink="http://www.w3.org/1999/xlink">
<g id="graph0" class="graph" transform="scale(1 1) rotate(0) translate(4 349)">
<title>%3</title>
<polygon fill="white" stroke="transparent" points="-4,4 -4,-349 1845.9,-349 1845.9,4 -4,4"/>
<text text-anchor="middle" x="920.95" y="-329.8" font-family="Times,serif" font-size="14.00">ConsTree</text>
<text text-anchor="middle" x="920.95" y="-314.8" font-family="Times,serif" font-size="14.00">Tree Quality = 0.5</text>
<g id="clust1" class="cluster">
<title>cluster</title>
<polygon fill="none" stroke="black" points="1597.9,-8 1597.9,-299 1833.9,-299 1833.9,-8 1597.9,-8"/>
<text text-anchor="middle" x="1715.9" y="-283.8" font-family="Times,serif" font-size="14.00">Legend</text>
</g>
<!-- 00 -->
<g id="node1" class="node">
<title>00</title>
<ellipse fill="#b9d3ee" stroke="black" cx="530.9" cy="-250" rx="324" ry="18"/>
<text text-anchor="middle" x="530.9" y="-246.3" font-family="Times,serif" font-size="14.00">1000</text>
</g>
<!-- 10 -->
<g id="node3" class="node">
<title>10</title>
<ellipse fill="#b9d3ee" stroke="black" cx="377.9" cy="-178" rx="108" ry="18"/>
<text text-anchor="middle" x="377.9" y="-174.3" font-family="Times,serif" font-size="14.00">400</text>
</g>
<!-- 00&#45;&gt;10 -->
<g id="edge1" class="edge">
<title>00&#45;&gt;10</title>
<path fill="none" stroke="black" d="M493.86,-232.05C472.25,-222.17 444.86,-209.64 422.12,-199.23"/>
<polygon fill="black" stroke="black" points="423.57,-196.05 413.02,-195.07 420.66,-202.41 423.57,-196.05"/>
</g>
<!-- 11 -->
<g id="node4" class="node">
<title>11</title>
<ellipse fill="#b9d3ee" stroke="black" cx="787.9" cy="-178" rx="180" ry="18"/>
<text text-anchor="middle" x="787.9" y="-174.3" font-family="Times,serif" font-size="14.00">600</text>
</g>
<!-- 00&#45;&gt;11 -->
<g id="edge2" class="edge">
<title>00&#45;&gt;11</title>
<path fill="none" stroke="black" d="M592.13,-232.32C630.32,-221.92 679.54,-208.51 719.08,-197.75"/>
<polygon fill="black" stroke="black" points="720.18,-201.07 728.91,-195.07 718.34,-194.32 720.18,-201.07"/>
</g>
<!-- legend_0 -->
<g id="node2" class="node">
<title>legend_0</title>
<polygon fill="#b9d3ee" stroke="black" points="1826.4,-268 1605.4,-268 1605.4,-232 1826.4,-232 1826.4,-268"/>
<text text-anchor="middle" x="1715.9" y="-246.3" font-family="Times,serif" font-size="14.00">DT=5 ST=5 Similarity=0.38</text>
</g>
<!-- legend_1 -->
<g id="node5" class="node">
<title>legend_1</title>
<polygon fill="#b9d3ee" stroke="black" points="1826.4,-196 1605.4,-196 1605.4,-160 1826.4,-160 1826.4,-196"/>
<text text-anchor="middle" x="1715.9" y="-174.3" font-family="Times,serif" font-size="14.00">DT=6 ST=1 Similarity=0.65</text>
</g>
<!-- legend_0&#45;&gt;legend_1 -->
<g id="edge3" class="edge">
<title>legend_0&#45;&gt;legend_1</title>
<path fill="none" stroke="black" d="M1715.9,-231.7C1715.9,-223.98 1715.9,-214.71 1715.9,-206.11"/>
<polygon fill="black" stroke="black" points="1719.4,-206.1 1715.9,-196.1 1712.4,-206.1 1719.4,-206.1"/>
</g>
<!-- 21 -->
<g id="node7" class="node">
<title>21</title>
<polygon fill="darkseagreen" stroke="black" points="349.9,-124 133.9,-124 133.9,-88 349.9,-88 349.9,-124"/>
<text text-anchor="middle" x="241.9" y="-102.3" font-family="Times,serif" font-size="14.00">400</text>
</g>
<!-- 10&#45;&gt;21 -->
<g id="edge5" class="edge">
<title>10&#45;&gt;21</title>
<path fill="none" stroke="black" d="M346.36,-160.76C327.85,-151.24 304.22,-139.08 284.12,-128.73"/>
<polygon fill="black" stroke="black" points="285.66,-125.59 275.17,-124.12 282.46,-131.81 285.66,-125.59"/>
</g>
<!-- 20 -->
<g id="node6" class="node">
<title>20</title>
<polygon fill="darkseagreen" stroke="black" points="823.9,-124 751.9,-124 751.9,-88 823.9,-88 823.9,-124"/>
<text text-anchor="middle" x="787.9" y="-102.3" font-family="Times,serif" font-size="14.00">200</text>
</g>
<!-- 11&#45;&gt;20 -->
<g id="edge4" class="edge">
<title>11&#45;&gt;20</title>
<path fill="none" stroke="black" d="M787.9,-159.7C787.9,-151.98 787.9,-142.71 787.9,-134.11"/>
<polygon fill="black" stroke="black" points="791.4,-134.1 787.9,-124.1 784.4,-134.1 791.4,-134.1"/>
</g>
<!-- 22 -->
<g id="node8" class="node">
<title>22</title>
<polygon fill="darkseagreen" stroke="black" points="1393.9,-124 1177.9,-124 1177.9,-88 1393.9,-88 1393.9,-124"/>
<text text-anchor="middle" x="1285.9" y="-102.3" font-family="Times,serif" font-size="14.00">400</text>
</g>
<!-- 11&#45;&gt;22 -->
<g id="edge6" class="edge">
<title>11&#45;&gt;22</title>
<path fill="none" stroke="black" d="M887.48,-163C968.3,-151.64 1082.44,-135.6 1167.85,-123.59"/>
<polygon fill="black" stroke="black" points="1168.44,-127.04 1177.86,-122.19 1167.47,-120.11 1168.44,-127.04"/>
</g>
<!-- legend_2 -->
<g id="node9" class="node">
<title>legend_2</title>
<polygon fill="darkseagreen" stroke="black" points="1826.4,-124 1605.4,-124 1605.4,-88 1826.4,-88 1826.4,-124"/>
<text text-anchor="middle" x="1715.9" y="-102.3" font-family="Times,serif" font-size="14.00">DT=7 ST=1 Similarity=0.74</text>
</g>
<!-- legend_1&#45;&gt;legend_2 -->
<g id="edge7" class="edge">
<title>legend_1&#45;&gt;legend_2</title>
<path fill="none" stroke="black" d="M1715.9,-159.7C1715.9,-151.98 1715.9,-142.71 1715.9,-134.11"/>
<polygon fill="black" stroke="black" points="1719.4,-134.1 1715.9,-124.1 1712.4,-134.1 1719.4,-134.1"/>
</g>
<!-- 35 -->
<g id="node15" class="node">
<title>35</title>
<ellipse fill="#b9d3ee" stroke="black" cx="542.9" cy="-34" rx="16.8" ry="18"/>
<text text-anchor="middle" x="542.9" y="-30.3" font-family="Times,serif" font-size="14.00">3</text>
</g>
<!-- 20&#45;&gt;35 -->
<g id="edge13" class="edge">
<title>20&#45;&gt;35</title>
<path fill="none" stroke="black" d="M751.81,-100.13C707.38,-93.28 630.29,-78.56 568.9,-52 567.7,-51.48 566.5,-50.91 565.3,-50.3"/>
<polygon fill="black" stroke="black" points="566.83,-47.14 556.44,-45.1 563.29,-53.18 566.83,-47.14"/>
</g>
<!-- 38 -->
<g id="node18" class="node">
<title>38</title>
<ellipse fill="#b9d3ee" stroke="black" cx="594.9" cy="-34" rx="16.8" ry="18"/>
<text text-anchor="middle" x="594.9" y="-30.3" font-family="Times,serif" font-size="14.00">4</text>
</g>
<!-- 20&#45;&gt;38 -->
<g id="edge16" class="edge">
<title>20&#45;&gt;38</title>
<path fill="none" stroke="black" d="M751.65,-96.54C717.08,-87.77 664.04,-72.48 620.9,-52 619.72,-51.44 618.53,-50.84 617.35,-50.2"/>
<polygon fill="black" stroke="black" points="618.9,-47.05 608.52,-44.9 615.3,-53.05 618.9,-47.05"/>
</g>
<!-- 311 -->
<g id="node21" class="node">
<title>311</title>
<ellipse fill="#b9d3ee" stroke="black" cx="646.9" cy="-34" rx="16.8" ry="18"/>
<text text-anchor="middle" x="646.9" y="-30.3" font-family="Times,serif" font-size="14.00">6</text>
</g>
<!-- 20&#45;&gt;311 -->
<g id="edge19" class="edge">
<title>20&#45;&gt;311</title>
<path fill="none" stroke="black" d="M751.74,-89.97C728.75,-80.01 698.58,-66.21 672.9,-52 671.76,-51.37 670.6,-50.7 669.44,-50.02"/>
<polygon fill="black" stroke="black" points="671.03,-46.89 660.7,-44.56 667.33,-52.83 671.03,-46.89"/>
</g>
<!-- 312 -->
<g id="node22" class="node">
<title>312</title>
<ellipse fill="#b9d3ee" stroke="black" cx="698.9" cy="-34" rx="16.8" ry="18"/>
<text text-anchor="middle" x="698.9" y="-30.3" font-family="Times,serif" font-size="14.00">9</text>
</g>
<!-- 20&#45;&gt;312 -->
<g id="edge20" class="edge">
<title>20&#45;&gt;312</title>
<path fill="none" stroke="black" d="M765.9,-87.7C751.92,-76.7 733.91,-62.54 720.09,-51.67"/>
<polygon fill="black" stroke="black" points="722.12,-48.81 712.1,-45.38 717.79,-54.31 722.12,-48.81"/>
</g>
<!-- 313 -->
<g id="node23" class="node">
<title>313</title>
<ellipse fill="#b9d3ee" stroke="black" cx="756.9" cy="-34" rx="23" ry="18"/>
<text text-anchor="middle" x="756.9" y="-30.3" font-family="Times,serif" font-size="14.00">10</text>
</g>
<!-- 20&#45;&gt;313 -->
<g id="edge21" class="edge">
<title>20&#45;&gt;313</title>
<path fill="none" stroke="black" d="M780.24,-87.7C776.6,-79.49 772.19,-69.52 768.18,-60.48"/>
<polygon fill="black" stroke="black" points="771.3,-58.87 764.05,-51.14 764.9,-61.71 771.3,-58.87"/>
</g>
<!-- 315 -->
<g id="node25" class="node">
<title>315</title>
<ellipse fill="#b9d3ee" stroke="black" cx="819.9" cy="-34" rx="23" ry="18"/>
<text text-anchor="middle" x="819.9" y="-30.3" font-family="Times,serif" font-size="14.00">17</text>
</g>
<!-- 20&#45;&gt;315 -->
<g id="edge23" class="edge">
<title>20&#45;&gt;315</title>
<path fill="none" stroke="black" d="M795.81,-87.7C799.56,-79.49 804.12,-69.52 808.25,-60.48"/>
<polygon fill="black" stroke="black" points="811.54,-61.69 812.52,-51.14 805.18,-58.78 811.54,-61.69"/>
</g>
<!-- 317 -->
<g id="node27" class="node">
<title>317</title>
<ellipse fill="#b9d3ee" stroke="black" cx="882.9" cy="-34" rx="23" ry="18"/>
<text text-anchor="middle" x="882.9" y="-30.3" font-family="Times,serif" font-size="14.00">21</text>
</g>
<!-- 20&#45;&gt;317 -->
<g id="edge25" class="edge">
<title>20&#45;&gt;317</title>
<path fill="none" stroke="black" d="M811.38,-87.7C825.8,-77.07 844.24,-63.49 858.77,-52.78"/>
<polygon fill="black" stroke="black" points="860.85,-55.59 866.83,-46.84 856.7,-49.96 860.85,-55.59"/>
</g>
<!-- 319 -->
<g id="node29" class="node">
<title>319</title>
<ellipse fill="#b9d3ee" stroke="black" cx="945.9" cy="-34" rx="23" ry="18"/>
<text text-anchor="middle" x="945.9" y="-30.3" font-family="Times,serif" font-size="14.00">36</text>
</g>
<!-- 20&#45;&gt;319 -->
<g id="edge27" class="edge">
<title>20&#45;&gt;319</title>
<path fill="none" stroke="black" d="M823.93,-91.15C849.6,-80.99 884.76,-66.5 914.9,-52 916.25,-51.35 917.62,-50.67 919,-49.97"/>
<polygon fill="black" stroke="black" points="920.82,-52.97 928.04,-45.22 917.56,-46.78 920.82,-52.97"/>
</g>
<!-- 320 -->
<g id="node30" class="node">
<title>320</title>
<ellipse fill="#b9d3ee" stroke="black" cx="1008.9" cy="-34" rx="23" ry="18"/>
<text text-anchor="middle" x="1008.9" y="-30.3" font-family="Times,serif" font-size="14.00">42</text>
</g>
<!-- 20&#45;&gt;320 -->
<g id="edge28" class="edge">
<title>20&#45;&gt;320</title>
<path fill="none" stroke="black" d="M824.08,-97.51C862.92,-88.88 926.04,-73.12 977.9,-52 979.28,-51.44 980.69,-50.82 982.09,-50.18"/>
<polygon fill="black" stroke="black" points="983.84,-53.22 991.21,-45.61 980.7,-46.96 983.84,-53.22"/>
</g>
<!-- 321 -->
<g id="node31" class="node">
<title>321</title>
<ellipse fill="#b9d3ee" stroke="black" cx="1071.9" cy="-34" rx="23" ry="18"/>
<text text-anchor="middle" x="1071.9" y="-30.3" font-family="Times,serif" font-size="14.00">52</text>
</g>
<!-- 20&#45;&gt;321 -->
<g id="edge29" class="edge">
<title>20&#45;&gt;321</title>
<path fill="none" stroke="black" d="M824.02,-100.84C873.97,-94.33 966.39,-79.54 1040.9,-52 1042.3,-51.48 1043.72,-50.91 1045.13,-50.29"/>
<polygon fill="black" stroke="black" points="1046.84,-53.35 1054.29,-45.82 1043.77,-47.06 1046.84,-53.35"/>
</g>
<!-- 36 -->
<g id="node16" class="node">
<title>36</title>
<ellipse fill="#b9d3ee" stroke="black" cx="16.9" cy="-34" rx="16.8" ry="18"/>
<text text-anchor="middle" x="16.9" y="-30.3" font-family="Times,serif" font-size="14.00">3</text>
</g>
<!-- 21&#45;&gt;36 -->
<g id="edge14" class="edge">
<title>21&#45;&gt;36</title>
<path fill="none" stroke="black" d="M154.13,-88C118.71,-79.51 78,-67.66 42.9,-52 41.71,-51.47 40.51,-50.89 39.32,-50.27"/>
<polygon fill="black" stroke="black" points="40.85,-47.11 30.46,-45.03 37.29,-53.14 40.85,-47.11"/>
</g>
<!-- 37 -->
<g id="node17" class="node">
<title>37</title>
<ellipse fill="#b9d3ee" stroke="black" cx="68.9" cy="-34" rx="16.8" ry="18"/>
<text text-anchor="middle" x="68.9" y="-30.3" font-family="Times,serif" font-size="14.00">3</text>
</g>
<!-- 21&#45;&gt;37 -->
<g id="edge15" class="edge">
<title>21&#45;&gt;37</title>
<path fill="none" stroke="black" d="M185.13,-87.97C157.3,-78.77 123.67,-66.35 94.9,-52 93.73,-51.42 92.55,-50.79 91.37,-50.14"/>
<polygon fill="black" stroke="black" points="92.94,-47 82.58,-44.8 89.3,-52.98 92.94,-47"/>
</g>
<!-- 310 -->
<g id="node20" class="node">
<title>310</title>
<ellipse fill="#b9d3ee" stroke="black" cx="120.9" cy="-34" rx="16.8" ry="18"/>
<text text-anchor="middle" x="120.9" y="-30.3" font-family="Times,serif" font-size="14.00">5</text>
</g>
<!-- 21&#45;&gt;310 -->
<g id="edge18" class="edge">
<title>21&#45;&gt;310</title>
<path fill="none" stroke="black" d="M209.91,-87.88C191.33,-77.76 167.58,-64.51 146.9,-52 145.78,-51.32 144.64,-50.63 143.5,-49.91"/>
<polygon fill="black" stroke="black" points="145.13,-46.8 134.82,-44.36 141.35,-52.7 145.13,-46.8"/>
</g>
<!-- 314 -->
<g id="node24" class="node">
<title>314</title>
<ellipse fill="#b9d3ee" stroke="black" cx="178.9" cy="-34" rx="23" ry="18"/>
<text text-anchor="middle" x="178.9" y="-30.3" font-family="Times,serif" font-size="14.00">14</text>
</g>
<!-- 21&#45;&gt;314 -->
<g id="edge22" class="edge">
<title>21&#45;&gt;314</title>
<path fill="none" stroke="black" d="M226.33,-87.7C217.93,-78.37 207.49,-66.76 198.54,-56.82"/>
<polygon fill="black" stroke="black" points="201.04,-54.37 191.75,-49.28 195.84,-59.05 201.04,-54.37"/>
</g>
<!-- 316 -->
<g id="node26" class="node">
<title>316</title>
<ellipse fill="#b9d3ee" stroke="black" cx="241.9" cy="-34" rx="23" ry="18"/>
<text text-anchor="middle" x="241.9" y="-30.3" font-family="Times,serif" font-size="14.00">18</text>
</g>
<!-- 21&#45;&gt;316 -->
<g id="edge24" class="edge">
<title>21&#45;&gt;316</title>
<path fill="none" stroke="black" d="M241.9,-87.7C241.9,-79.98 241.9,-70.71 241.9,-62.11"/>
<polygon fill="black" stroke="black" points="245.4,-62.1 241.9,-52.1 238.4,-62.1 245.4,-62.1"/>
</g>
<!-- 318 -->
<g id="node28" class="node">
<title>318</title>
<ellipse fill="#b9d3ee" stroke="black" cx="304.9" cy="-34" rx="23" ry="18"/>
<text text-anchor="middle" x="304.9" y="-30.3" font-family="Times,serif" font-size="14.00">28</text>
</g>
<!-- 21&#45;&gt;318 -->
<g id="edge26" class="edge">
<title>21&#45;&gt;318</title>
<path fill="none" stroke="black" d="M257.47,-87.7C265.87,-78.37 276.31,-66.76 285.26,-56.82"/>
<polygon fill="black" stroke="black" points="287.96,-59.05 292.05,-49.28 282.76,-54.37 287.96,-59.05"/>
</g>
<!-- 322 -->
<g id="node32" class="node">
<title>322</title>
<ellipse fill="#b9d3ee" stroke="black" cx="381.9" cy="-34" rx="36" ry="18"/>
<text text-anchor="middle" x="381.9" y="-30.3" font-family="Times,serif" font-size="14.00">142</text>
</g>
<!-- 21&#45;&gt;322 -->
<g id="edge30" class="edge">
<title>21&#45;&gt;322</title>
<path fill="none" stroke="black" d="M276.15,-87.88C298.01,-76.95 326.22,-62.84 348.01,-51.94"/>
<polygon fill="black" stroke="black" points="349.84,-54.94 357.22,-47.34 346.71,-48.68 349.84,-54.94"/>
</g>
<!-- 323 -->
<g id="node33" class="node">
<title>323</title>
<ellipse fill="#b9d3ee" stroke="black" cx="471.9" cy="-34" rx="36" ry="18"/>
<text text-anchor="middle" x="471.9" y="-30.3" font-family="Times,serif" font-size="14.00">187</text>
</g>
<!-- 21&#45;&gt;323 -->
<g id="edge31" class="edge">
<title>21&#45;&gt;323</title>
<path fill="none" stroke="black" d="M306.51,-87.89C342.22,-78.09 387.26,-65.14 426.9,-52 429.48,-51.14 432.14,-50.23 434.81,-49.28"/>
<polygon fill="black" stroke="black" points="436.22,-52.5 444.42,-45.79 433.83,-45.92 436.22,-52.5"/>
</g>
<!-- 30 -->
<g id="node10" class="node">
<title>30</title>
<ellipse fill="#b9d3ee" stroke="black" cx="1129.9" cy="-34" rx="16.8" ry="18"/>
<text text-anchor="middle" x="1129.9" y="-30.3" font-family="Times,serif" font-size="14.00">1</text>
</g>
<!-- 22&#45;&gt;30 -->
<g id="edge8" class="edge">
<title>22&#45;&gt;30</title>
<path fill="none" stroke="black" d="M1237.98,-87.99C1212.99,-78.5 1182.23,-65.81 1155.9,-52 1154.74,-51.39 1153.57,-50.75 1152.4,-50.08"/>
<polygon fill="black" stroke="black" points="1153.98,-46.95 1143.63,-44.68 1150.31,-52.91 1153.98,-46.95"/>
</g>
<!-- 31 -->
<g id="node11" class="node">
<title>31</title>
<ellipse fill="#b9d3ee" stroke="black" cx="1181.9" cy="-34" rx="16.8" ry="18"/>
<text text-anchor="middle" x="1181.9" y="-30.3" font-family="Times,serif" font-size="14.00">1</text>
</g>
<!-- 22&#45;&gt;31 -->
<g id="edge9" class="edge">
<title>22&#45;&gt;31</title>
<path fill="none" stroke="black" d="M1260.46,-87.88C1243.31,-76.33 1220.89,-61.24 1204.39,-50.14"/>
<polygon fill="black" stroke="black" points="1206.16,-47.11 1195.91,-44.43 1202.25,-52.92 1206.16,-47.11"/>
</g>
<!-- 32 -->
<g id="node12" class="node">
<title>32</title>
<ellipse fill="#b9d3ee" stroke="black" cx="1233.9" cy="-34" rx="16.8" ry="18"/>
<text text-anchor="middle" x="1233.9" y="-30.3" font-family="Times,serif" font-size="14.00">2</text>
</g>
<!-- 22&#45;&gt;32 -->
<g id="edge10" class="edge">
<title>22&#45;&gt;32</title>
<path fill="none" stroke="black" d="M1273.04,-87.7C1266.16,-78.43 1257.6,-66.91 1250.25,-57.01"/>
<polygon fill="black" stroke="black" points="1252.94,-54.76 1244.17,-48.82 1247.32,-58.94 1252.94,-54.76"/>
</g>
<!-- 33 -->
<g id="node13" class="node">
<title>33</title>
<ellipse fill="#b9d3ee" stroke="black" cx="1285.9" cy="-34" rx="16.8" ry="18"/>
<text text-anchor="middle" x="1285.9" y="-30.3" font-family="Times,serif" font-size="14.00">2</text>
</g>
<!-- 22&#45;&gt;33 -->
<g id="edge11" class="edge">
<title>22&#45;&gt;33</title>
<path fill="none" stroke="black" d="M1285.9,-87.7C1285.9,-79.98 1285.9,-70.71 1285.9,-62.11"/>
<polygon fill="black" stroke="black" points="1289.4,-62.1 1285.9,-52.1 1282.4,-62.1 1289.4,-62.1"/>
</g>
<!-- 34 -->
<g id="node14" class="node">
<title>34</title>
<ellipse fill="#b9d3ee" stroke="black" cx="1337.9" cy="-34" rx="16.8" ry="18"/>
<text text-anchor="middle" x="1337.9" y="-30.3" font-family="Times,serif" font-size="14.00">3</text>
</g>
<!-- 22&#45;&gt;34 -->
<g id="edge12" class="edge">
<title>22&#45;&gt;34</title>
<path fill="none" stroke="black" d="M1298.75,-87.7C1305.64,-78.43 1314.19,-66.91 1321.55,-57.01"/>
<polygon fill="black" stroke="black" points="1324.48,-58.94 1327.63,-48.82 1318.86,-54.76 1324.48,-58.94"/>
</g>
<!-- 39 -->
<g id="node19" class="node">
<title>39</title>
<ellipse fill="#b9d3ee" stroke="black" cx="1389.9" cy="-34" rx="16.8" ry="18"/>
<text text-anchor="middle" x="1389.9" y="-30.3" font-family="Times,serif" font-size="14.00">5</text>
</g>
<!-- 22&#45;&gt;39 -->
<g id="edge17" class="edge">
<title>22&#45;&gt;39</title>
<path fill="none" stroke="black" d="M1311.34,-87.88C1328.49,-76.33 1350.91,-61.24 1367.4,-50.14"/>
<polygon fill="black" stroke="black" points="1369.55,-52.92 1375.89,-44.43 1365.64,-47.11 1369.55,-52.92"/>
</g>
<!-- 324 -->
<g id="node34" class="node">
<title>324</title>
<ellipse fill="#b9d3ee" stroke="black" cx="1460.9" cy="-34" rx="36" ry="18"/>
<text text-anchor="middle" x="1460.9" y="-30.3" font-family="Times,serif" font-size="14.00">190</text>
</g>
<!-- 22&#45;&gt;324 -->
<g id="edge32" class="edge">
<title>22&#45;&gt;324</title>
<path fill="none" stroke="black" d="M1328.71,-87.88C1358.04,-76.15 1396.52,-60.75 1424.39,-49.6"/>
<polygon fill="black" stroke="black" points="1425.79,-52.81 1433.78,-45.85 1423.2,-46.31 1425.79,-52.81"/>
</g>
<!-- 325 -->
<g id="node35" class="node">
<title>325</title>
<ellipse fill="#b9d3ee" stroke="black" cx="1550.9" cy="-34" rx="36" ry="18"/>
<text text-anchor="middle" x="1550.9" y="-30.3" font-family="Times,serif" font-size="14.00">196</text>
</g>
<!-- 22&#45;&gt;325 -->
<g id="edge33" class="edge">
<title>22&#45;&gt;325</title>
<path fill="none" stroke="black" d="M1367.27,-87.94C1409.05,-78.55 1460.56,-65.97 1505.9,-52 1508.5,-51.2 1511.17,-50.32 1513.85,-49.41"/>
<polygon fill="black" stroke="black" points="1515.24,-52.63 1523.48,-45.98 1512.89,-46.04 1515.24,-52.63"/>
</g>
<!-- legend_3 -->
<g id="node36" class="node">
<title>legend_3</title>
<polygon fill="#b9d3ee" stroke="black" points="1826.4,-52 1605.4,-52 1605.4,-16 1826.4,-16 1826.4,-52"/>
<text text-anchor="middle" x="1715.9" y="-30.3" font-family="Times,serif" font-size="14.00">DT=8 ST=1 Similarity=0.36</text>
</g>
<!-- legend_2&#45;&gt;legend_3 -->
<g id="edge34" class="edge">
<title>legend_2&#45;&gt;legend_3</title>
<path fill="none" stroke="black" d="M1715.9,-87.7C1715.9,-79.98 1715.9,-70.71 1715.9,-62.11"/>
<polygon fill="black" stroke="black" points="1719.4,-62.1 1715.9,-52.1 1712.4,-62.1 1719.4,-62.1"/>
</g>
</g>
</svg>
