<?xml version="1.0" encoding="UTF-8" standalone="no"?>
<!DOCTYPE svg PUBLIC "-//W3C//DTD SVG 1.1//EN"
 "http://www.w3.org/Graphics/SVG/1.1/DTD/svg11.dtd">
<!-- Generated by graphviz version 2.43.0 (0)
 -->
<!-- Title: %3 Pages: 1 -->
<svg width="1672pt" height="353pt"
 viewBox="0.00 0.00 1671.90 353.00" xmlns="http://www.w3.org/2000/svg" xmlns:xlink="http://www.w3.org/1999/xlink">
<g id="graph0" class="graph" transform="scale(1 1) rotate(0) translate(4 349)">
<title>%3</title>
<polygon fill="white" stroke="transparent" points="-4,4 -4,-349 1667.9,-349 1667.9,4 -4,4"/>
<text text-anchor="middle" x="831.95" y="-329.8" font-family="Times,serif" font-size="14.00">ConsTree</text>
<text text-anchor="middle" x="831.95" y="-314.8" font-family="Times,serif" font-size="14.00">Tree Quality = 0.625</text>
<g id="clust1" class="cluster">
<title>cluster</title>
<polygon fill="none" stroke="black" points="1419.9,-8 1419.9,-299 1655.9,-299 1655.9,-8 1419.9,-8"/>
<text text-anchor="middle" x="1537.9" y="-283.8" font-family="Times,serif" font-size="14.00">Legend</text>
</g>
<!-- 00 -->
<g id="node1" class="node">
<title>00</title>
<ellipse fill="#b9d3ee" stroke="black" cx="430.9" cy="-250" rx="324" ry="18"/>
<text text-anchor="middle" x="430.9" y="-246.3" font-family="Times,serif" font-size="14.00">1000</text>
</g>
<!-- 10 -->
<g id="node3" class="node">
<title>10</title>
<ellipse fill="#b9d3ee" stroke="black" cx="277.9" cy="-178" rx="108" ry="18"/>
<text text-anchor="middle" x="277.9" y="-174.3" font-family="Times,serif" font-size="14.00">400</text>
</g>
<!-- 00&#45;&gt;10 -->
<g id="edge1" class="edge">
<title>00&#45;&gt;10</title>
<path fill="none" stroke="black" d="M393.86,-232.05C372.25,-222.17 344.86,-209.64 322.12,-199.23"/>
<polygon fill="black" stroke="black" points="323.57,-196.05 313.02,-195.07 320.66,-202.41 323.57,-196.05"/>
</g>
<!-- 11 -->
<g id="node4" class="node">
<title>11</title>
<ellipse fill="#b9d3ee" stroke="black" cx="653.9" cy="-178" rx="180" ry="18"/>
<text text-anchor="middle" x="653.9" y="-174.3" font-family="Times,serif" font-size="14.00">600</text>
</g>
<!-- 00&#45;&gt;11 -->
<g id="edge2" class="edge">
<title>00&#45;&gt;11</title>
<path fill="none" stroke="black" d="M484.31,-232.23C516.8,-222.04 558.41,-208.97 592.28,-198.34"/>
<polygon fill="black" stroke="black" points="593.58,-201.6 602.07,-195.27 591.48,-194.92 593.58,-201.6"/>
</g>
<!-- legend_0 -->
<g id="node2" class="node">
<title>legend_0</title>
<polygon fill="#b9d3ee" stroke="black" points="1648.4,-268 1427.4,-268 1427.4,-232 1648.4,-232 1648.4,-268"/>
<text text-anchor="middle" x="1537.9" y="-246.3" font-family="Times,serif" font-size="14.00">DT=4 ST=4 Similarity=0.38</text>
</g>
<!-- legend_1 -->
<g id="node5" class="node">
<title>legend_1</title>
<polygon fill="#b9d3ee" stroke="black" points="1648.4,-196 1427.4,-196 1427.4,-160 1648.4,-160 1648.4,-196"/>
<text text-anchor="middle" x="1537.9" y="-174.3" font-family="Times,serif" font-size="14.00">DT=6 ST=2 Similarity=0.69</text>
</g>
<!-- legend_0&#45;&gt;legend_1 -->
<g id="edge3" class="edge">
<title>legend_0&#45;&gt;legend_1</title>
<path fill="none" stroke="black" d="M1537.9,-231.7C1537.9,-223.98 1537.9,-214.71 1537.9,-206.11"/>
<polygon fill="black" stroke="black" points="1541.4,-206.1 1537.9,-196.1 1534.4,-206.1 1541.4,-206.1"/>
</g>
<!-- 21 -->
<g id="node7" class="node">
<title>21</title>
<polygon fill="darkseagreen" stroke="black" points="286.9,-124 70.9,-124 70.9,-88 286.9,-88 286.9,-124"/>
<text text-anchor="middle" x="178.9" y="-102.3" font-family="Times,serif" font-size="14.00">400</text>
</g>
<!-- 10&#45;&gt;21 -->
<g id="edge5" class="edge">
<title>10&#45;&gt;21</title>
<path fill="none" stroke="black" d="M254.44,-160.41C241.65,-151.37 225.63,-140.04 211.63,-130.14"/>
<polygon fill="black" stroke="black" points="213.41,-127.12 203.23,-124.2 209.37,-132.83 213.41,-127.12"/>
</g>
<!-- 20 -->
<g id="node6" class="node">
<title>20</title>
<polygon fill="darkseagreen" stroke="black" points="689.9,-124 617.9,-124 617.9,-88 689.9,-88 689.9,-124"/>
<text text-anchor="middle" x="653.9" y="-102.3" font-family="Times,serif" font-size="14.00">200</text>
</g>
<!-- 11&#45;&gt;20 -->
<g id="edge4" class="edge">
<title>11&#45;&gt;20</title>
<path fill="none" stroke="black" d="M653.9,-159.7C653.9,-151.98 653.9,-142.71 653.9,-134.11"/>
<polygon fill="black" stroke="black" points="657.4,-134.1 653.9,-124.1 650.4,-134.1 657.4,-134.1"/>
</g>
<!-- 22 -->
<g id="node8" class="node">
<title>22</title>
<polygon fill="darkseagreen" stroke="black" points="1178.9,-124 962.9,-124 962.9,-88 1178.9,-88 1178.9,-124"/>
<text text-anchor="middle" x="1070.9" y="-102.3" font-family="Times,serif" font-size="14.00">400</text>
</g>
<!-- 11&#45;&gt;22 -->
<g id="edge6" class="edge">
<title>11&#45;&gt;22</title>
<path fill="none" stroke="black" d="M741.82,-162.24C805.25,-151.59 891.36,-137.14 959.59,-125.69"/>
<polygon fill="black" stroke="black" points="960.24,-129.13 969.52,-124.02 959.08,-122.22 960.24,-129.13"/>
</g>
<!-- legend_2 -->
<g id="node9" class="node">
<title>legend_2</title>
<polygon fill="darkseagreen" stroke="black" points="1643.9,-124 1431.9,-124 1431.9,-88 1643.9,-88 1643.9,-124"/>
<text text-anchor="middle" x="1537.9" y="-102.3" font-family="Times,serif" font-size="14.00">DT=7 ST=1 Similarity=0.8</text>
</g>
<!-- legend_1&#45;&gt;legend_2 -->
<g id="edge7" class="edge">
<title>legend_1&#45;&gt;legend_2</title>
<path fill="none" stroke="black" d="M1537.9,-159.7C1537.9,-151.98 1537.9,-142.71 1537.9,-134.11"/>
<polygon fill="black" stroke="black" points="1541.4,-134.1 1537.9,-124.1 1534.4,-134.1 1541.4,-134.1"/>
</g>
<!-- 31 -->
<g id="node11" class="node">
<title>31</title>
<ellipse fill="#b9d3ee" stroke="black" cx="416.9" cy="-34" rx="16.8" ry="18"/>
<text text-anchor="middle" x="416.9" y="-30.3" font-family="Times,serif" font-size="14.00">1</text>
</g>
<!-- 20&#45;&gt;31 -->
<g id="edge9" class="edge">
<title>20&#45;&gt;31</title>
<path fill="none" stroke="black" d="M617.61,-99.67C574.6,-92.49 501.37,-77.59 442.9,-52 441.7,-51.48 440.5,-50.9 439.31,-50.29"/>
<polygon fill="black" stroke="black" points="440.84,-47.13 430.45,-45.07 437.29,-53.16 440.84,-47.13"/>
</g>
<!-- 36 -->
<g id="node16" class="node">
<title>36</title>
<ellipse fill="#b9d3ee" stroke="black" cx="468.9" cy="-34" rx="16.8" ry="18"/>
<text text-anchor="middle" x="468.9" y="-30.3" font-family="Times,serif" font-size="14.00">4</text>
</g>
<!-- 20&#45;&gt;36 -->
<g id="edge14" class="edge">
<title>20&#45;&gt;36</title>
<path fill="none" stroke="black" d="M617.82,-95.84C584.9,-86.82 535.37,-71.57 494.9,-52 493.72,-51.43 492.54,-50.82 491.36,-50.18"/>
<polygon fill="black" stroke="black" points="492.91,-47.03 482.54,-44.86 489.3,-53.02 492.91,-47.03"/>
</g>
<!-- 37 -->
<g id="node17" class="node">
<title>37</title>
<ellipse fill="#b9d3ee" stroke="black" cx="520.9" cy="-34" rx="16.8" ry="18"/>
<text text-anchor="middle" x="520.9" y="-30.3" font-family="Times,serif" font-size="14.00">5</text>
</g>
<!-- 20&#45;&gt;37 -->
<g id="edge15" class="edge">
<title>20&#45;&gt;37</title>
<path fill="none" stroke="black" d="M617.67,-88.38C596.68,-78.42 569.93,-65.17 546.9,-52 545.77,-51.35 544.62,-50.68 543.46,-49.98"/>
<polygon fill="black" stroke="black" points="545.07,-46.86 534.74,-44.49 541.34,-52.78 545.07,-46.86"/>
</g>
<!-- 39 -->
<g id="node19" class="node">
<title>39</title>
<ellipse fill="#b9d3ee" stroke="black" cx="572.9" cy="-34" rx="16.8" ry="18"/>
<text text-anchor="middle" x="572.9" y="-30.3" font-family="Times,serif" font-size="14.00">5</text>
</g>
<!-- 20&#45;&gt;39 -->
<g id="edge17" class="edge">
<title>20&#45;&gt;39</title>
<path fill="none" stroke="black" d="M633.88,-87.7C621.58,-77.07 605.86,-63.49 593.47,-52.77"/>
<polygon fill="black" stroke="black" points="595.72,-50.1 585.87,-46.21 591.15,-55.39 595.72,-50.1"/>
</g>
<!-- 310 -->
<g id="node20" class="node">
<title>310</title>
<ellipse fill="#b9d3ee" stroke="black" cx="624.9" cy="-34" rx="16.8" ry="18"/>
<text text-anchor="middle" x="624.9" y="-30.3" font-family="Times,serif" font-size="14.00">9</text>
</g>
<!-- 20&#45;&gt;310 -->
<g id="edge18" class="edge">
<title>20&#45;&gt;310</title>
<path fill="none" stroke="black" d="M646.73,-87.7C643.28,-79.37 639.08,-69.23 635.29,-60.08"/>
<polygon fill="black" stroke="black" points="638.45,-58.57 631.39,-50.67 631.98,-61.25 638.45,-58.57"/>
</g>
<!-- 312 -->
<g id="node22" class="node">
<title>312</title>
<ellipse fill="#b9d3ee" stroke="black" cx="682.9" cy="-34" rx="23" ry="18"/>
<text text-anchor="middle" x="682.9" y="-30.3" font-family="Times,serif" font-size="14.00">14</text>
</g>
<!-- 20&#45;&gt;312 -->
<g id="edge20" class="edge">
<title>20&#45;&gt;312</title>
<path fill="none" stroke="black" d="M661.07,-87.7C664.42,-79.61 668.48,-69.81 672.18,-60.87"/>
<polygon fill="black" stroke="black" points="675.42,-62.2 676.01,-51.62 668.95,-59.52 675.42,-62.2"/>
</g>
<!-- 314 -->
<g id="node24" class="node">
<title>314</title>
<ellipse fill="#b9d3ee" stroke="black" cx="745.9" cy="-34" rx="23" ry="18"/>
<text text-anchor="middle" x="745.9" y="-30.3" font-family="Times,serif" font-size="14.00">21</text>
</g>
<!-- 20&#45;&gt;314 -->
<g id="edge22" class="edge">
<title>20&#45;&gt;314</title>
<path fill="none" stroke="black" d="M676.64,-87.7C690.39,-77.24 707.9,-63.91 721.87,-53.28"/>
<polygon fill="black" stroke="black" points="724.21,-55.9 730.05,-47.06 719.97,-50.33 724.21,-55.9"/>
</g>
<!-- 315 -->
<g id="node25" class="node">
<title>315</title>
<ellipse fill="#b9d3ee" stroke="black" cx="808.9" cy="-34" rx="23" ry="18"/>
<text text-anchor="middle" x="808.9" y="-30.3" font-family="Times,serif" font-size="14.00">24</text>
</g>
<!-- 20&#45;&gt;315 -->
<g id="edge23" class="edge">
<title>20&#45;&gt;315</title>
<path fill="none" stroke="black" d="M690.13,-90.61C715.08,-80.43 748.85,-66.13 777.9,-52 779.24,-51.35 780.61,-50.66 781.99,-49.96"/>
<polygon fill="black" stroke="black" points="783.82,-52.96 791.02,-45.19 780.55,-46.77 783.82,-52.96"/>
</g>
<!-- 316 -->
<g id="node26" class="node">
<title>316</title>
<ellipse fill="#b9d3ee" stroke="black" cx="871.9" cy="-34" rx="23" ry="18"/>
<text text-anchor="middle" x="871.9" y="-30.3" font-family="Times,serif" font-size="14.00">41</text>
</g>
<!-- 20&#45;&gt;316 -->
<g id="edge24" class="edge">
<title>20&#45;&gt;316</title>
<path fill="none" stroke="black" d="M690.21,-97.27C728.49,-88.54 790.16,-72.79 840.9,-52 842.28,-51.43 843.68,-50.82 845.09,-50.17"/>
<polygon fill="black" stroke="black" points="846.84,-53.21 854.2,-45.59 843.7,-46.96 846.84,-53.21"/>
</g>
<!-- 317 -->
<g id="node27" class="node">
<title>317</title>
<ellipse fill="#b9d3ee" stroke="black" cx="934.9" cy="-34" rx="23" ry="18"/>
<text text-anchor="middle" x="934.9" y="-30.3" font-family="Times,serif" font-size="14.00">76</text>
</g>
<!-- 20&#45;&gt;317 -->
<g id="edge25" class="edge">
<title>20&#45;&gt;317</title>
<path fill="none" stroke="black" d="M690.01,-100.72C739.46,-94.11 830.48,-79.24 903.9,-52 905.3,-51.48 906.72,-50.9 908.13,-50.29"/>
<polygon fill="black" stroke="black" points="909.84,-53.35 917.29,-45.81 906.77,-47.06 909.84,-53.35"/>
</g>
<!-- 34 -->
<g id="node14" class="node">
<title>34</title>
<ellipse fill="#b9d3ee" stroke="black" cx="16.9" cy="-34" rx="16.8" ry="18"/>
<text text-anchor="middle" x="16.9" y="-30.3" font-family="Times,serif" font-size="14.00">3</text>
</g>
<!-- 21&#45;&gt;34 -->
<g id="edge12" class="edge">
<title>21&#45;&gt;34</title>
<path fill="none" stroke="black" d="M127.75,-87.92C101.77,-78.54 70.05,-65.97 42.9,-52 41.74,-51.4 40.57,-50.77 39.39,-50.1"/>
<polygon fill="black" stroke="black" points="40.97,-46.96 30.61,-44.73 37.31,-52.93 40.97,-46.96"/>
</g>
<!-- 35 -->
<g id="node15" class="node">
<title>35</title>
<ellipse fill="#b9d3ee" stroke="black" cx="68.9" cy="-34" rx="16.8" ry="18"/>
<text text-anchor="middle" x="68.9" y="-30.3" font-family="Times,serif" font-size="14.00">4</text>
</g>
<!-- 21&#45;&gt;35 -->
<g id="edge13" class="edge">
<title>21&#45;&gt;35</title>
<path fill="none" stroke="black" d="M151.59,-87.93C135.13,-77.59 113.76,-64.12 94.9,-52 93.8,-51.3 92.68,-50.57 91.55,-49.84"/>
<polygon fill="black" stroke="black" points="93.2,-46.74 82.9,-44.22 89.38,-52.6 93.2,-46.74"/>
</g>
<!-- 38 -->
<g id="node18" class="node">
<title>38</title>
<ellipse fill="#b9d3ee" stroke="black" cx="120.9" cy="-34" rx="16.8" ry="18"/>
<text text-anchor="middle" x="120.9" y="-30.3" font-family="Times,serif" font-size="14.00">5</text>
</g>
<!-- 21&#45;&gt;38 -->
<g id="edge16" class="edge">
<title>21&#45;&gt;38</title>
<path fill="none" stroke="black" d="M164.56,-87.7C156.59,-78.08 146.62,-66.05 138.22,-55.91"/>
<polygon fill="black" stroke="black" points="140.69,-53.4 131.61,-47.93 135.3,-57.86 140.69,-53.4"/>
</g>
<!-- 313 -->
<g id="node23" class="node">
<title>313</title>
<ellipse fill="#b9d3ee" stroke="black" cx="178.9" cy="-34" rx="23" ry="18"/>
<text text-anchor="middle" x="178.9" y="-30.3" font-family="Times,serif" font-size="14.00">18</text>
</g>
<!-- 21&#45;&gt;313 -->
<g id="edge21" class="edge">
<title>21&#45;&gt;313</title>
<path fill="none" stroke="black" d="M178.9,-87.7C178.9,-79.98 178.9,-70.71 178.9,-62.11"/>
<polygon fill="black" stroke="black" points="182.4,-62.1 178.9,-52.1 175.4,-62.1 182.4,-62.1"/>
</g>
<!-- 318 -->
<g id="node28" class="node">
<title>318</title>
<ellipse fill="#b9d3ee" stroke="black" cx="255.9" cy="-34" rx="36" ry="18"/>
<text text-anchor="middle" x="255.9" y="-30.3" font-family="Times,serif" font-size="14.00">180</text>
</g>
<!-- 21&#45;&gt;318 -->
<g id="edge26" class="edge">
<title>21&#45;&gt;318</title>
<path fill="none" stroke="black" d="M197.93,-87.7C208.11,-78.44 220.75,-66.95 231.63,-57.06"/>
<polygon fill="black" stroke="black" points="234.13,-59.52 239.18,-50.2 229.42,-54.34 234.13,-59.52"/>
</g>
<!-- 319 -->
<g id="node29" class="node">
<title>319</title>
<ellipse fill="#b9d3ee" stroke="black" cx="345.9" cy="-34" rx="36" ry="18"/>
<text text-anchor="middle" x="345.9" y="-30.3" font-family="Times,serif" font-size="14.00">190</text>
</g>
<!-- 21&#45;&gt;319 -->
<g id="edge27" class="edge">
<title>21&#45;&gt;319</title>
<path fill="none" stroke="black" d="M219.75,-87.88C247.27,-76.34 283.24,-61.26 309.73,-50.16"/>
<polygon fill="black" stroke="black" points="311.15,-53.36 319.02,-46.27 308.45,-46.9 311.15,-53.36"/>
</g>
<!-- 30 -->
<g id="node10" class="node">
<title>30</title>
<ellipse fill="#b9d3ee" stroke="black" cx="992.9" cy="-34" rx="16.8" ry="18"/>
<text text-anchor="middle" x="992.9" y="-30.3" font-family="Times,serif" font-size="14.00">1</text>
</g>
<!-- 22&#45;&gt;30 -->
<g id="edge8" class="edge">
<title>22&#45;&gt;30</title>
<path fill="none" stroke="black" d="M1051.62,-87.7C1039.89,-77.17 1024.93,-63.75 1013.05,-53.08"/>
<polygon fill="black" stroke="black" points="1015.17,-50.28 1005.39,-46.21 1010.49,-55.49 1015.17,-50.28"/>
</g>
<!-- 32 -->
<g id="node12" class="node">
<title>32</title>
<ellipse fill="#b9d3ee" stroke="black" cx="1044.9" cy="-34" rx="16.8" ry="18"/>
<text text-anchor="middle" x="1044.9" y="-30.3" font-family="Times,serif" font-size="14.00">1</text>
</g>
<!-- 22&#45;&gt;32 -->
<g id="edge10" class="edge">
<title>22&#45;&gt;32</title>
<path fill="none" stroke="black" d="M1064.47,-87.7C1061.46,-79.58 1057.8,-69.74 1054.47,-60.76"/>
<polygon fill="black" stroke="black" points="1057.66,-59.3 1050.9,-51.14 1051.1,-61.74 1057.66,-59.3"/>
</g>
<!-- 33 -->
<g id="node13" class="node">
<title>33</title>
<ellipse fill="#b9d3ee" stroke="black" cx="1096.9" cy="-34" rx="16.8" ry="18"/>
<text text-anchor="middle" x="1096.9" y="-30.3" font-family="Times,serif" font-size="14.00">3</text>
</g>
<!-- 22&#45;&gt;33 -->
<g id="edge11" class="edge">
<title>22&#45;&gt;33</title>
<path fill="none" stroke="black" d="M1077.33,-87.7C1080.34,-79.58 1084,-69.74 1087.33,-60.76"/>
<polygon fill="black" stroke="black" points="1090.7,-61.74 1090.9,-51.14 1084.14,-59.3 1090.7,-61.74"/>
</g>
<!-- 311 -->
<g id="node21" class="node">
<title>311</title>
<ellipse fill="#b9d3ee" stroke="black" cx="1154.9" cy="-34" rx="23" ry="18"/>
<text text-anchor="middle" x="1154.9" y="-30.3" font-family="Times,serif" font-size="14.00">12</text>
</g>
<!-- 22&#45;&gt;311 -->
<g id="edge19" class="edge">
<title>22&#45;&gt;311</title>
<path fill="none" stroke="black" d="M1091.66,-87.7C1103.86,-77.53 1119.29,-64.67 1131.86,-54.2"/>
<polygon fill="black" stroke="black" points="1134.2,-56.8 1139.65,-47.71 1129.72,-51.42 1134.2,-56.8"/>
</g>
<!-- 320 -->
<g id="node30" class="node">
<title>320</title>
<ellipse fill="#b9d3ee" stroke="black" cx="1303.9" cy="-34" rx="108" ry="18"/>
<text text-anchor="middle" x="1303.9" y="-30.3" font-family="Times,serif" font-size="14.00">383</text>
</g>
<!-- 22&#45;&gt;320 -->
<g id="edge28" class="edge">
<title>22&#45;&gt;320</title>
<path fill="none" stroke="black" d="M1127.6,-87.97C1162.81,-77.39 1208.03,-63.8 1243.85,-53.04"/>
<polygon fill="black" stroke="black" points="1245.12,-56.31 1253.69,-50.08 1243.11,-49.61 1245.12,-56.31"/>
</g>
<!-- legend_3 -->
<g id="node31" class="node">
<title>legend_3</title>
<polygon fill="#b9d3ee" stroke="black" points="1643.9,-52 1431.9,-52 1431.9,-16 1643.9,-16 1643.9,-52"/>
<text text-anchor="middle" x="1537.9" y="-30.3" font-family="Times,serif" font-size="14.00">DT=8 ST=1 Similarity=0.6</text>
</g>
<!-- legend_2&#45;&gt;legend_3 -->
<g id="edge29" class="edge">
<title>legend_2&#45;&gt;legend_3</title>
<path fill="none" stroke="black" d="M1537.9,-87.7C1537.9,-79.98 1537.9,-70.71 1537.9,-62.11"/>
<polygon fill="black" stroke="black" points="1541.4,-62.1 1537.9,-52.1 1534.4,-62.1 1541.4,-62.1"/>
</g>
</g>
</svg>
