<?xml version="1.0" encoding="UTF-8" standalone="no"?>
<!DOCTYPE svg PUBLIC "-//W3C//DTD SVG 1.1//EN"
 "http://www.w3.org/Graphics/SVG/1.1/DTD/svg11.dtd">
<!-- Generated by graphviz version 2.43.0 (0)
 -->
<!-- Title: %3 Pages: 1 -->
<svg width="1842pt" height="353pt"
 viewBox="0.00 0.00 1841.90 353.00" xmlns="http://www.w3.org/2000/svg" xmlns:xlink="http://www.w3.org/1999/xlink">
<g id="graph0" class="graph" transform="scale(1 1) rotate(0) translate(4 349)">
<title>%3</title>
<polygon fill="white" stroke="transparent" points="-4,4 -4,-349 1837.9,-349 1837.9,4 -4,4"/>
<text text-anchor="middle" x="916.95" y="-329.8" font-family="Times,serif" font-size="14.00">ConsTree</text>
<text text-anchor="middle" x="916.95" y="-314.8" font-family="Times,serif" font-size="14.00">Tree Quality = 0.625</text>
<g id="clust1" class="cluster">
<title>cluster</title>
<polygon fill="none" stroke="black" points="1589.9,-8 1589.9,-299 1825.9,-299 1825.9,-8 1589.9,-8"/>
<text text-anchor="middle" x="1707.9" y="-283.8" font-family="Times,serif" font-size="14.00">Legend</text>
</g>
<!-- 00 -->
<g id="node1" class="node">
<title>00</title>
<ellipse fill="#b9d3ee" stroke="black" cx="485.9" cy="-250" rx="324" ry="18"/>
<text text-anchor="middle" x="485.9" y="-246.3" font-family="Times,serif" font-size="14.00">1000</text>
</g>
<!-- 10 -->
<g id="node3" class="node">
<title>10</title>
<ellipse fill="#b9d3ee" stroke="black" cx="332.9" cy="-178" rx="108" ry="18"/>
<text text-anchor="middle" x="332.9" y="-174.3" font-family="Times,serif" font-size="14.00">400</text>
</g>
<!-- 00&#45;&gt;10 -->
<g id="edge1" class="edge">
<title>00&#45;&gt;10</title>
<path fill="none" stroke="black" d="M448.86,-232.05C427.25,-222.17 399.86,-209.64 377.12,-199.23"/>
<polygon fill="black" stroke="black" points="378.57,-196.05 368.02,-195.07 375.66,-202.41 378.57,-196.05"/>
</g>
<!-- 11 -->
<g id="node4" class="node">
<title>11</title>
<ellipse fill="#b9d3ee" stroke="black" cx="765.9" cy="-178" rx="180" ry="18"/>
<text text-anchor="middle" x="765.9" y="-174.3" font-family="Times,serif" font-size="14.00">600</text>
</g>
<!-- 00&#45;&gt;11 -->
<g id="edge2" class="edge">
<title>00&#45;&gt;11</title>
<path fill="none" stroke="black" d="M552.61,-232.32C594.63,-221.82 648.91,-208.25 692.2,-197.42"/>
<polygon fill="black" stroke="black" points="693.25,-200.77 702.1,-194.95 691.55,-193.98 693.25,-200.77"/>
</g>
<!-- legend_0 -->
<g id="node2" class="node">
<title>legend_0</title>
<polygon fill="#b9d3ee" stroke="black" points="1818.4,-268 1597.4,-268 1597.4,-232 1818.4,-232 1818.4,-268"/>
<text text-anchor="middle" x="1707.9" y="-246.3" font-family="Times,serif" font-size="14.00">DT=4 ST=4 Similarity=0.38</text>
</g>
<!-- legend_1 -->
<g id="node5" class="node">
<title>legend_1</title>
<polygon fill="#b9d3ee" stroke="black" points="1818.4,-196 1597.4,-196 1597.4,-160 1818.4,-160 1818.4,-196"/>
<text text-anchor="middle" x="1707.9" y="-174.3" font-family="Times,serif" font-size="14.00">DT=6 ST=2 Similarity=0.69</text>
</g>
<!-- legend_0&#45;&gt;legend_1 -->
<g id="edge3" class="edge">
<title>legend_0&#45;&gt;legend_1</title>
<path fill="none" stroke="black" d="M1707.9,-231.7C1707.9,-223.98 1707.9,-214.71 1707.9,-206.11"/>
<polygon fill="black" stroke="black" points="1711.4,-206.1 1707.9,-196.1 1704.4,-206.1 1711.4,-206.1"/>
</g>
<!-- 21 -->
<g id="node7" class="node">
<title>21</title>
<polygon fill="darkseagreen" stroke="black" points="317.9,-124 101.9,-124 101.9,-88 317.9,-88 317.9,-124"/>
<text text-anchor="middle" x="209.9" y="-102.3" font-family="Times,serif" font-size="14.00">400</text>
</g>
<!-- 10&#45;&gt;21 -->
<g id="edge5" class="edge">
<title>10&#45;&gt;21</title>
<path fill="none" stroke="black" d="M304.06,-160.59C287.61,-151.23 266.78,-139.37 248.89,-129.19"/>
<polygon fill="black" stroke="black" points="250.26,-125.94 239.84,-124.04 246.8,-132.03 250.26,-125.94"/>
</g>
<!-- 20 -->
<g id="node6" class="node">
<title>20</title>
<polygon fill="darkseagreen" stroke="black" points="801.9,-124 729.9,-124 729.9,-88 801.9,-88 801.9,-124"/>
<text text-anchor="middle" x="765.9" y="-102.3" font-family="Times,serif" font-size="14.00">200</text>
</g>
<!-- 11&#45;&gt;20 -->
<g id="edge4" class="edge">
<title>11&#45;&gt;20</title>
<path fill="none" stroke="black" d="M765.9,-159.7C765.9,-151.98 765.9,-142.71 765.9,-134.11"/>
<polygon fill="black" stroke="black" points="769.4,-134.1 765.9,-124.1 762.4,-134.1 769.4,-134.1"/>
</g>
<!-- 22 -->
<g id="node8" class="node">
<title>22</title>
<polygon fill="darkseagreen" stroke="black" points="1345.9,-124 1129.9,-124 1129.9,-88 1345.9,-88 1345.9,-124"/>
<text text-anchor="middle" x="1237.9" y="-102.3" font-family="Times,serif" font-size="14.00">400</text>
</g>
<!-- 11&#45;&gt;22 -->
<g id="edge6" class="edge">
<title>11&#45;&gt;22</title>
<path fill="none" stroke="black" d="M861.98,-162.75C936.43,-151.71 1039.94,-136.36 1119.5,-124.56"/>
<polygon fill="black" stroke="black" points="1120.2,-127.99 1129.58,-123.06 1119.17,-121.07 1120.2,-127.99"/>
</g>
<!-- legend_2 -->
<g id="node9" class="node">
<title>legend_2</title>
<polygon fill="darkseagreen" stroke="black" points="1813.9,-124 1601.9,-124 1601.9,-88 1813.9,-88 1813.9,-124"/>
<text text-anchor="middle" x="1707.9" y="-102.3" font-family="Times,serif" font-size="14.00">DT=7 ST=1 Similarity=0.8</text>
</g>
<!-- legend_1&#45;&gt;legend_2 -->
<g id="edge7" class="edge">
<title>legend_1&#45;&gt;legend_2</title>
<path fill="none" stroke="black" d="M1707.9,-159.7C1707.9,-151.98 1707.9,-142.71 1707.9,-134.11"/>
<polygon fill="black" stroke="black" points="1711.4,-134.1 1707.9,-124.1 1704.4,-134.1 1711.4,-134.1"/>
</g>
<!-- 31 -->
<g id="node11" class="node">
<title>31</title>
<ellipse fill="#b9d3ee" stroke="black" cx="479.9" cy="-34" rx="16.8" ry="18"/>
<text text-anchor="middle" x="479.9" y="-30.3" font-family="Times,serif" font-size="14.00">1</text>
</g>
<!-- 20&#45;&gt;31 -->
<g id="edge9" class="edge">
<title>20&#45;&gt;31</title>
<path fill="none" stroke="black" d="M729.75,-101.97C678.35,-96.7 581.95,-83.27 505.9,-52 504.69,-51.5 503.48,-50.95 502.28,-50.35"/>
<polygon fill="black" stroke="black" points="503.8,-47.19 493.39,-45.2 500.29,-53.24 503.8,-47.19"/>
</g>
<!-- 32 -->
<g id="node12" class="node">
<title>32</title>
<ellipse fill="#b9d3ee" stroke="black" cx="531.9" cy="-34" rx="16.8" ry="18"/>
<text text-anchor="middle" x="531.9" y="-30.3" font-family="Times,serif" font-size="14.00">1</text>
</g>
<!-- 20&#45;&gt;32 -->
<g id="edge10" class="edge">
<title>20&#45;&gt;32</title>
<path fill="none" stroke="black" d="M729.76,-99.52C687.3,-92.24 615.38,-77.28 557.9,-52 556.7,-51.47 555.5,-50.9 554.31,-50.28"/>
<polygon fill="black" stroke="black" points="555.84,-47.12 545.45,-45.06 552.29,-53.15 555.84,-47.12"/>
</g>
<!-- 34 -->
<g id="node14" class="node">
<title>34</title>
<ellipse fill="#b9d3ee" stroke="black" cx="583.9" cy="-34" rx="16.8" ry="18"/>
<text text-anchor="middle" x="583.9" y="-30.3" font-family="Times,serif" font-size="14.00">1</text>
</g>
<!-- 20&#45;&gt;34 -->
<g id="edge12" class="edge">
<title>20&#45;&gt;34</title>
<path fill="none" stroke="black" d="M729.88,-95.56C697.59,-86.45 649.37,-71.23 609.9,-52 608.73,-51.43 607.54,-50.81 606.36,-50.17"/>
<polygon fill="black" stroke="black" points="607.92,-47.02 597.55,-44.85 604.3,-53.01 607.92,-47.02"/>
</g>
<!-- 37 -->
<g id="node17" class="node">
<title>37</title>
<ellipse fill="#b9d3ee" stroke="black" cx="635.9" cy="-34" rx="16.8" ry="18"/>
<text text-anchor="middle" x="635.9" y="-30.3" font-family="Times,serif" font-size="14.00">2</text>
</g>
<!-- 20&#45;&gt;37 -->
<g id="edge15" class="edge">
<title>20&#45;&gt;37</title>
<path fill="none" stroke="black" d="M729.77,-87.78C709.53,-77.84 683.99,-64.8 661.9,-52 660.77,-51.35 659.62,-50.66 658.47,-49.96"/>
<polygon fill="black" stroke="black" points="660.08,-46.84 649.76,-44.46 656.34,-52.76 660.08,-46.84"/>
</g>
<!-- 39 -->
<g id="node19" class="node">
<title>39</title>
<ellipse fill="#b9d3ee" stroke="black" cx="687.9" cy="-34" rx="16.8" ry="18"/>
<text text-anchor="middle" x="687.9" y="-30.3" font-family="Times,serif" font-size="14.00">3</text>
</g>
<!-- 20&#45;&gt;39 -->
<g id="edge17" class="edge">
<title>20&#45;&gt;39</title>
<path fill="none" stroke="black" d="M746.62,-87.7C734.89,-77.17 719.93,-63.75 708.05,-53.08"/>
<polygon fill="black" stroke="black" points="710.17,-50.28 700.39,-46.21 705.49,-55.49 710.17,-50.28"/>
</g>
<!-- 310 -->
<g id="node20" class="node">
<title>310</title>
<ellipse fill="#b9d3ee" stroke="black" cx="739.9" cy="-34" rx="16.8" ry="18"/>
<text text-anchor="middle" x="739.9" y="-30.3" font-family="Times,serif" font-size="14.00">3</text>
</g>
<!-- 20&#45;&gt;310 -->
<g id="edge18" class="edge">
<title>20&#45;&gt;310</title>
<path fill="none" stroke="black" d="M759.47,-87.7C756.46,-79.58 752.8,-69.74 749.47,-60.76"/>
<polygon fill="black" stroke="black" points="752.66,-59.3 745.9,-51.14 746.1,-61.74 752.66,-59.3"/>
</g>
<!-- 311 -->
<g id="node21" class="node">
<title>311</title>
<ellipse fill="#b9d3ee" stroke="black" cx="791.9" cy="-34" rx="16.8" ry="18"/>
<text text-anchor="middle" x="791.9" y="-30.3" font-family="Times,serif" font-size="14.00">3</text>
</g>
<!-- 20&#45;&gt;311 -->
<g id="edge19" class="edge">
<title>20&#45;&gt;311</title>
<path fill="none" stroke="black" d="M772.33,-87.7C775.34,-79.58 779,-69.74 782.33,-60.76"/>
<polygon fill="black" stroke="black" points="785.7,-61.74 785.9,-51.14 779.14,-59.3 785.7,-61.74"/>
</g>
<!-- 316 -->
<g id="node26" class="node">
<title>316</title>
<ellipse fill="#b9d3ee" stroke="black" cx="849.9" cy="-34" rx="23" ry="18"/>
<text text-anchor="middle" x="849.9" y="-30.3" font-family="Times,serif" font-size="14.00">26</text>
</g>
<!-- 20&#45;&gt;316 -->
<g id="edge24" class="edge">
<title>20&#45;&gt;316</title>
<path fill="none" stroke="black" d="M786.66,-87.7C798.86,-77.53 814.29,-64.67 826.86,-54.2"/>
<polygon fill="black" stroke="black" points="829.2,-56.8 834.65,-47.71 824.72,-51.42 829.2,-56.8"/>
</g>
<!-- 317 -->
<g id="node27" class="node">
<title>317</title>
<ellipse fill="#b9d3ee" stroke="black" cx="912.9" cy="-34" rx="23" ry="18"/>
<text text-anchor="middle" x="912.9" y="-30.3" font-family="Times,serif" font-size="14.00">28</text>
</g>
<!-- 20&#45;&gt;317 -->
<g id="edge25" class="edge">
<title>20&#45;&gt;317</title>
<path fill="none" stroke="black" d="M802.01,-89.31C825.07,-79.1 855.48,-65.26 881.9,-52 883.24,-51.33 884.6,-50.63 885.97,-49.92"/>
<polygon fill="black" stroke="black" points="887.81,-52.91 894.98,-45.11 884.51,-46.73 887.81,-52.91"/>
</g>
<!-- 318 -->
<g id="node28" class="node">
<title>318</title>
<ellipse fill="#b9d3ee" stroke="black" cx="975.9" cy="-34" rx="23" ry="18"/>
<text text-anchor="middle" x="975.9" y="-30.3" font-family="Times,serif" font-size="14.00">32</text>
</g>
<!-- 20&#45;&gt;318 -->
<g id="edge26" class="edge">
<title>20&#45;&gt;318</title>
<path fill="none" stroke="black" d="M802,-96.73C838.71,-87.76 896.88,-72 944.9,-52 946.28,-51.42 947.68,-50.8 949.08,-50.15"/>
<polygon fill="black" stroke="black" points="950.84,-53.19 958.19,-45.56 947.68,-46.94 950.84,-53.19"/>
</g>
<!-- 319 -->
<g id="node29" class="node">
<title>319</title>
<ellipse fill="#b9d3ee" stroke="black" cx="1038.9" cy="-34" rx="23" ry="18"/>
<text text-anchor="middle" x="1038.9" y="-30.3" font-family="Times,serif" font-size="14.00">47</text>
</g>
<!-- 20&#45;&gt;319 -->
<g id="edge27" class="edge">
<title>20&#45;&gt;319</title>
<path fill="none" stroke="black" d="M802.08,-100.37C850.21,-93.48 937.42,-78.42 1007.9,-52 1009.3,-51.47 1010.71,-50.9 1012.13,-50.28"/>
<polygon fill="black" stroke="black" points="1013.84,-53.34 1021.28,-45.79 1010.76,-47.05 1013.84,-53.34"/>
</g>
<!-- 320 -->
<g id="node30" class="node">
<title>320</title>
<ellipse fill="#b9d3ee" stroke="black" cx="1101.9" cy="-34" rx="23" ry="18"/>
<text text-anchor="middle" x="1101.9" y="-30.3" font-family="Times,serif" font-size="14.00">53</text>
</g>
<!-- 20&#45;&gt;320 -->
<g id="edge28" class="edge">
<title>20&#45;&gt;320</title>
<path fill="none" stroke="black" d="M802.08,-102.58C860.2,-97.83 977.31,-84.77 1070.9,-52 1072.35,-51.49 1073.81,-50.92 1075.27,-50.31"/>
<polygon fill="black" stroke="black" points="1077.19,-53.27 1084.66,-45.76 1074.13,-46.97 1077.19,-53.27"/>
</g>
<!-- 33 -->
<g id="node13" class="node">
<title>33</title>
<ellipse fill="#b9d3ee" stroke="black" cx="16.9" cy="-34" rx="16.8" ry="18"/>
<text text-anchor="middle" x="16.9" y="-30.3" font-family="Times,serif" font-size="14.00">1</text>
</g>
<!-- 21&#45;&gt;33 -->
<g id="edge11" class="edge">
<title>21&#45;&gt;33</title>
<path fill="none" stroke="black" d="M141.67,-87.9C110.77,-79.01 74.22,-66.87 42.9,-52 41.72,-51.44 40.53,-50.84 39.35,-50.2"/>
<polygon fill="black" stroke="black" points="40.9,-47.05 30.52,-44.9 37.3,-53.05 40.9,-47.05"/>
</g>
<!-- 36 -->
<g id="node16" class="node">
<title>36</title>
<ellipse fill="#b9d3ee" stroke="black" cx="68.9" cy="-34" rx="16.8" ry="18"/>
<text text-anchor="middle" x="68.9" y="-30.3" font-family="Times,serif" font-size="14.00">2</text>
</g>
<!-- 21&#45;&gt;36 -->
<g id="edge14" class="edge">
<title>21&#45;&gt;36</title>
<path fill="none" stroke="black" d="M169,-87.9C146.7,-78.15 118.85,-65.25 94.9,-52 93.76,-51.37 92.6,-50.7 91.44,-50.02"/>
<polygon fill="black" stroke="black" points="93.03,-46.89 82.7,-44.56 89.33,-52.83 93.03,-46.89"/>
</g>
<!-- 312 -->
<g id="node22" class="node">
<title>312</title>
<ellipse fill="#b9d3ee" stroke="black" cx="120.9" cy="-34" rx="16.8" ry="18"/>
<text text-anchor="middle" x="120.9" y="-30.3" font-family="Times,serif" font-size="14.00">6</text>
</g>
<!-- 21&#45;&gt;312 -->
<g id="edge20" class="edge">
<title>21&#45;&gt;312</title>
<path fill="none" stroke="black" d="M187.9,-87.7C173.92,-76.7 155.91,-62.54 142.09,-51.67"/>
<polygon fill="black" stroke="black" points="144.12,-48.81 134.1,-45.38 139.79,-54.31 144.12,-48.81"/>
</g>
<!-- 314 -->
<g id="node24" class="node">
<title>314</title>
<ellipse fill="#b9d3ee" stroke="black" cx="178.9" cy="-34" rx="23" ry="18"/>
<text text-anchor="middle" x="178.9" y="-30.3" font-family="Times,serif" font-size="14.00">14</text>
</g>
<!-- 21&#45;&gt;314 -->
<g id="edge22" class="edge">
<title>21&#45;&gt;314</title>
<path fill="none" stroke="black" d="M202.24,-87.7C198.6,-79.49 194.19,-69.52 190.18,-60.48"/>
<polygon fill="black" stroke="black" points="193.3,-58.87 186.05,-51.14 186.9,-61.71 193.3,-58.87"/>
</g>
<!-- 315 -->
<g id="node25" class="node">
<title>315</title>
<ellipse fill="#b9d3ee" stroke="black" cx="241.9" cy="-34" rx="23" ry="18"/>
<text text-anchor="middle" x="241.9" y="-30.3" font-family="Times,serif" font-size="14.00">18</text>
</g>
<!-- 21&#45;&gt;315 -->
<g id="edge23" class="edge">
<title>21&#45;&gt;315</title>
<path fill="none" stroke="black" d="M217.81,-87.7C221.56,-79.49 226.12,-69.52 230.25,-60.48"/>
<polygon fill="black" stroke="black" points="233.54,-61.69 234.52,-51.14 227.18,-58.78 233.54,-61.69"/>
</g>
<!-- 321 -->
<g id="node31" class="node">
<title>321</title>
<ellipse fill="#b9d3ee" stroke="black" cx="318.9" cy="-34" rx="36" ry="18"/>
<text text-anchor="middle" x="318.9" y="-30.3" font-family="Times,serif" font-size="14.00">170</text>
</g>
<!-- 21&#45;&gt;321 -->
<g id="edge29" class="edge">
<title>21&#45;&gt;321</title>
<path fill="none" stroke="black" d="M236.56,-87.88C252.41,-77.7 272.55,-64.77 288.94,-54.24"/>
<polygon fill="black" stroke="black" points="291.09,-57.02 297.61,-48.67 287.31,-51.13 291.09,-57.02"/>
</g>
<!-- 322 -->
<g id="node32" class="node">
<title>322</title>
<ellipse fill="#b9d3ee" stroke="black" cx="408.9" cy="-34" rx="36" ry="18"/>
<text text-anchor="middle" x="408.9" y="-30.3" font-family="Times,serif" font-size="14.00">189</text>
</g>
<!-- 21&#45;&gt;322 -->
<g id="edge30" class="edge">
<title>21&#45;&gt;322</title>
<path fill="none" stroke="black" d="M260.66,-87.95C290.75,-77.74 329.59,-64.38 363.9,-52 366.3,-51.13 368.78,-50.23 371.27,-49.31"/>
<polygon fill="black" stroke="black" points="372.71,-52.51 380.86,-45.74 370.27,-45.95 372.71,-52.51"/>
</g>
<!-- 30 -->
<g id="node10" class="node">
<title>30</title>
<ellipse fill="#b9d3ee" stroke="black" cx="1159.9" cy="-34" rx="16.8" ry="18"/>
<text text-anchor="middle" x="1159.9" y="-30.3" font-family="Times,serif" font-size="14.00">1</text>
</g>
<!-- 22&#45;&gt;30 -->
<g id="edge8" class="edge">
<title>22&#45;&gt;30</title>
<path fill="none" stroke="black" d="M1218.62,-87.7C1206.89,-77.17 1191.93,-63.75 1180.05,-53.08"/>
<polygon fill="black" stroke="black" points="1182.17,-50.28 1172.39,-46.21 1177.49,-55.49 1182.17,-50.28"/>
</g>
<!-- 35 -->
<g id="node15" class="node">
<title>35</title>
<ellipse fill="#b9d3ee" stroke="black" cx="1211.9" cy="-34" rx="16.8" ry="18"/>
<text text-anchor="middle" x="1211.9" y="-30.3" font-family="Times,serif" font-size="14.00">1</text>
</g>
<!-- 22&#45;&gt;35 -->
<g id="edge13" class="edge">
<title>22&#45;&gt;35</title>
<path fill="none" stroke="black" d="M1231.47,-87.7C1228.46,-79.58 1224.8,-69.74 1221.47,-60.76"/>
<polygon fill="black" stroke="black" points="1224.66,-59.3 1217.9,-51.14 1218.1,-61.74 1224.66,-59.3"/>
</g>
<!-- 38 -->
<g id="node18" class="node">
<title>38</title>
<ellipse fill="#b9d3ee" stroke="black" cx="1263.9" cy="-34" rx="16.8" ry="18"/>
<text text-anchor="middle" x="1263.9" y="-30.3" font-family="Times,serif" font-size="14.00">3</text>
</g>
<!-- 22&#45;&gt;38 -->
<g id="edge16" class="edge">
<title>22&#45;&gt;38</title>
<path fill="none" stroke="black" d="M1244.33,-87.7C1247.34,-79.58 1251,-69.74 1254.33,-60.76"/>
<polygon fill="black" stroke="black" points="1257.7,-61.74 1257.9,-51.14 1251.14,-59.3 1257.7,-61.74"/>
</g>
<!-- 313 -->
<g id="node23" class="node">
<title>313</title>
<ellipse fill="#b9d3ee" stroke="black" cx="1321.9" cy="-34" rx="23" ry="18"/>
<text text-anchor="middle" x="1321.9" y="-30.3" font-family="Times,serif" font-size="14.00">12</text>
</g>
<!-- 22&#45;&gt;313 -->
<g id="edge21" class="edge">
<title>22&#45;&gt;313</title>
<path fill="none" stroke="black" d="M1258.66,-87.7C1270.86,-77.53 1286.29,-64.67 1298.86,-54.2"/>
<polygon fill="black" stroke="black" points="1301.2,-56.8 1306.65,-47.71 1296.72,-51.42 1301.2,-56.8"/>
</g>
<!-- 323 -->
<g id="node33" class="node">
<title>323</title>
<ellipse fill="#b9d3ee" stroke="black" cx="1470.9" cy="-34" rx="108" ry="18"/>
<text text-anchor="middle" x="1470.9" y="-30.3" font-family="Times,serif" font-size="14.00">383</text>
</g>
<!-- 22&#45;&gt;323 -->
<g id="edge31" class="edge">
<title>22&#45;&gt;323</title>
<path fill="none" stroke="black" d="M1294.6,-87.97C1329.81,-77.39 1375.03,-63.8 1410.85,-53.04"/>
<polygon fill="black" stroke="black" points="1412.12,-56.31 1420.69,-50.08 1410.11,-49.61 1412.12,-56.31"/>
</g>
<!-- legend_3 -->
<g id="node34" class="node">
<title>legend_3</title>
<polygon fill="#b9d3ee" stroke="black" points="1818.4,-52 1597.4,-52 1597.4,-16 1818.4,-16 1818.4,-52"/>
<text text-anchor="middle" x="1707.9" y="-30.3" font-family="Times,serif" font-size="14.00">DT=8 ST=1 Similarity=0.58</text>
</g>
<!-- legend_2&#45;&gt;legend_3 -->
<g id="edge32" class="edge">
<title>legend_2&#45;&gt;legend_3</title>
<path fill="none" stroke="black" d="M1707.9,-87.7C1707.9,-79.98 1707.9,-70.71 1707.9,-62.11"/>
<polygon fill="black" stroke="black" points="1711.4,-62.1 1707.9,-52.1 1704.4,-62.1 1711.4,-62.1"/>
</g>
</g>
</svg>
