<?xml version="1.0" encoding="UTF-8" standalone="no"?>
<!DOCTYPE svg PUBLIC "-//W3C//DTD SVG 1.1//EN"
 "http://www.w3.org/Graphics/SVG/1.1/DTD/svg11.dtd">
<!-- Generated by graphviz version 2.43.0 (0)
 -->
<!-- Title: %3 Pages: 1 -->
<svg width="1738pt" height="353pt"
 viewBox="0.00 0.00 1737.90 353.00" xmlns="http://www.w3.org/2000/svg" xmlns:xlink="http://www.w3.org/1999/xlink">
<g id="graph0" class="graph" transform="scale(1 1) rotate(0) translate(4 349)">
<title>%3</title>
<polygon fill="white" stroke="transparent" points="-4,4 -4,-349 1733.9,-349 1733.9,4 -4,4"/>
<text text-anchor="middle" x="864.95" y="-329.8" font-family="Times,serif" font-size="14.00">ConsTree</text>
<text text-anchor="middle" x="864.95" y="-314.8" font-family="Times,serif" font-size="14.00">Tree Quality = 0.625</text>
<g id="clust1" class="cluster">
<title>cluster</title>
<polygon fill="none" stroke="black" points="1485.9,-8 1485.9,-299 1721.9,-299 1721.9,-8 1485.9,-8"/>
<text text-anchor="middle" x="1603.9" y="-283.8" font-family="Times,serif" font-size="14.00">Legend</text>
</g>
<!-- 00 -->
<g id="node1" class="node">
<title>00</title>
<ellipse fill="#b9d3ee" stroke="black" cx="462.9" cy="-250" rx="324" ry="18"/>
<text text-anchor="middle" x="462.9" y="-246.3" font-family="Times,serif" font-size="14.00">1000</text>
</g>
<!-- 10 -->
<g id="node3" class="node">
<title>10</title>
<ellipse fill="#b9d3ee" stroke="black" cx="309.9" cy="-178" rx="108" ry="18"/>
<text text-anchor="middle" x="309.9" y="-174.3" font-family="Times,serif" font-size="14.00">400</text>
</g>
<!-- 00&#45;&gt;10 -->
<g id="edge1" class="edge">
<title>00&#45;&gt;10</title>
<path fill="none" stroke="black" d="M425.86,-232.05C404.25,-222.17 376.86,-209.64 354.12,-199.23"/>
<polygon fill="black" stroke="black" points="355.57,-196.05 345.02,-195.07 352.66,-202.41 355.57,-196.05"/>
</g>
<!-- 11 -->
<g id="node4" class="node">
<title>11</title>
<ellipse fill="#b9d3ee" stroke="black" cx="716.9" cy="-178" rx="180" ry="18"/>
<text text-anchor="middle" x="716.9" y="-174.3" font-family="Times,serif" font-size="14.00">600</text>
</g>
<!-- 00&#45;&gt;11 -->
<g id="edge2" class="edge">
<title>00&#45;&gt;11</title>
<path fill="none" stroke="black" d="M523.74,-232.23C561.35,-221.87 609.71,-208.54 648.63,-197.82"/>
<polygon fill="black" stroke="black" points="649.59,-201.18 658.3,-195.15 647.73,-194.43 649.59,-201.18"/>
</g>
<!-- legend_0 -->
<g id="node2" class="node">
<title>legend_0</title>
<polygon fill="#b9d3ee" stroke="black" points="1714.4,-268 1493.4,-268 1493.4,-232 1714.4,-232 1714.4,-268"/>
<text text-anchor="middle" x="1603.9" y="-246.3" font-family="Times,serif" font-size="14.00">DT=4 ST=4 Similarity=0.38</text>
</g>
<!-- legend_1 -->
<g id="node5" class="node">
<title>legend_1</title>
<polygon fill="#b9d3ee" stroke="black" points="1714.4,-196 1493.4,-196 1493.4,-160 1714.4,-160 1714.4,-196"/>
<text text-anchor="middle" x="1603.9" y="-174.3" font-family="Times,serif" font-size="14.00">DT=6 ST=2 Similarity=0.69</text>
</g>
<!-- legend_0&#45;&gt;legend_1 -->
<g id="edge3" class="edge">
<title>legend_0&#45;&gt;legend_1</title>
<path fill="none" stroke="black" d="M1603.9,-231.7C1603.9,-223.98 1603.9,-214.71 1603.9,-206.11"/>
<polygon fill="black" stroke="black" points="1607.4,-206.1 1603.9,-196.1 1600.4,-206.1 1607.4,-206.1"/>
</g>
<!-- 21 -->
<g id="node7" class="node">
<title>21</title>
<polygon fill="darkseagreen" stroke="black" points="317.9,-124 101.9,-124 101.9,-88 317.9,-88 317.9,-124"/>
<text text-anchor="middle" x="209.9" y="-102.3" font-family="Times,serif" font-size="14.00">400</text>
</g>
<!-- 10&#45;&gt;21 -->
<g id="edge5" class="edge">
<title>10&#45;&gt;21</title>
<path fill="none" stroke="black" d="M286.2,-160.41C273.29,-151.37 257.1,-140.04 242.96,-130.14"/>
<polygon fill="black" stroke="black" points="244.67,-127.07 234.47,-124.2 240.66,-132.8 244.67,-127.07"/>
</g>
<!-- 20 -->
<g id="node6" class="node">
<title>20</title>
<polygon fill="darkseagreen" stroke="black" points="752.9,-124 680.9,-124 680.9,-88 752.9,-88 752.9,-124"/>
<text text-anchor="middle" x="716.9" y="-102.3" font-family="Times,serif" font-size="14.00">200</text>
</g>
<!-- 11&#45;&gt;20 -->
<g id="edge4" class="edge">
<title>11&#45;&gt;20</title>
<path fill="none" stroke="black" d="M716.9,-159.7C716.9,-151.98 716.9,-142.71 716.9,-134.11"/>
<polygon fill="black" stroke="black" points="720.4,-134.1 716.9,-124.1 713.4,-134.1 720.4,-134.1"/>
</g>
<!-- 22 -->
<g id="node8" class="node">
<title>22</title>
<polygon fill="darkseagreen" stroke="black" points="1241.9,-124 1025.9,-124 1025.9,-88 1241.9,-88 1241.9,-124"/>
<text text-anchor="middle" x="1133.9" y="-102.3" font-family="Times,serif" font-size="14.00">400</text>
</g>
<!-- 11&#45;&gt;22 -->
<g id="edge6" class="edge">
<title>11&#45;&gt;22</title>
<path fill="none" stroke="black" d="M804.82,-162.24C868.25,-151.59 954.36,-137.14 1022.59,-125.69"/>
<polygon fill="black" stroke="black" points="1023.24,-129.13 1032.52,-124.02 1022.08,-122.22 1023.24,-129.13"/>
</g>
<!-- legend_2 -->
<g id="node9" class="node">
<title>legend_2</title>
<polygon fill="darkseagreen" stroke="black" points="1709.9,-124 1497.9,-124 1497.9,-88 1709.9,-88 1709.9,-124"/>
<text text-anchor="middle" x="1603.9" y="-102.3" font-family="Times,serif" font-size="14.00">DT=7 ST=1 Similarity=0.8</text>
</g>
<!-- legend_1&#45;&gt;legend_2 -->
<g id="edge7" class="edge">
<title>legend_1&#45;&gt;legend_2</title>
<path fill="none" stroke="black" d="M1603.9,-159.7C1603.9,-151.98 1603.9,-142.71 1603.9,-134.11"/>
<polygon fill="black" stroke="black" points="1607.4,-134.1 1603.9,-124.1 1600.4,-134.1 1607.4,-134.1"/>
</g>
<!-- 31 -->
<g id="node11" class="node">
<title>31</title>
<ellipse fill="#b9d3ee" stroke="black" cx="479.9" cy="-34" rx="16.8" ry="18"/>
<text text-anchor="middle" x="479.9" y="-30.3" font-family="Times,serif" font-size="14.00">1</text>
</g>
<!-- 20&#45;&gt;31 -->
<g id="edge9" class="edge">
<title>20&#45;&gt;31</title>
<path fill="none" stroke="black" d="M680.61,-99.67C637.6,-92.49 564.37,-77.59 505.9,-52 504.7,-51.48 503.5,-50.9 502.31,-50.29"/>
<polygon fill="black" stroke="black" points="503.84,-47.13 493.45,-45.07 500.29,-53.16 503.84,-47.13"/>
</g>
<!-- 32 -->
<g id="node12" class="node">
<title>32</title>
<ellipse fill="#b9d3ee" stroke="black" cx="531.9" cy="-34" rx="16.8" ry="18"/>
<text text-anchor="middle" x="531.9" y="-30.3" font-family="Times,serif" font-size="14.00">1</text>
</g>
<!-- 20&#45;&gt;32 -->
<g id="edge10" class="edge">
<title>20&#45;&gt;32</title>
<path fill="none" stroke="black" d="M680.82,-95.84C647.9,-86.82 598.37,-71.57 557.9,-52 556.72,-51.43 555.54,-50.82 554.36,-50.18"/>
<polygon fill="black" stroke="black" points="555.91,-47.03 545.54,-44.86 552.3,-53.02 555.91,-47.03"/>
</g>
<!-- 37 -->
<g id="node17" class="node">
<title>37</title>
<ellipse fill="#b9d3ee" stroke="black" cx="583.9" cy="-34" rx="16.8" ry="18"/>
<text text-anchor="middle" x="583.9" y="-30.3" font-family="Times,serif" font-size="14.00">3</text>
</g>
<!-- 20&#45;&gt;37 -->
<g id="edge15" class="edge">
<title>20&#45;&gt;37</title>
<path fill="none" stroke="black" d="M680.67,-88.38C659.68,-78.42 632.93,-65.17 609.9,-52 608.77,-51.35 607.62,-50.68 606.46,-49.98"/>
<polygon fill="black" stroke="black" points="608.07,-46.86 597.74,-44.49 604.34,-52.78 608.07,-46.86"/>
</g>
<!-- 38 -->
<g id="node18" class="node">
<title>38</title>
<ellipse fill="#b9d3ee" stroke="black" cx="635.9" cy="-34" rx="16.8" ry="18"/>
<text text-anchor="middle" x="635.9" y="-30.3" font-family="Times,serif" font-size="14.00">3</text>
</g>
<!-- 20&#45;&gt;38 -->
<g id="edge16" class="edge">
<title>20&#45;&gt;38</title>
<path fill="none" stroke="black" d="M696.88,-87.7C684.58,-77.07 668.86,-63.49 656.47,-52.77"/>
<polygon fill="black" stroke="black" points="658.72,-50.1 648.87,-46.21 654.15,-55.39 658.72,-50.1"/>
</g>
<!-- 39 -->
<g id="node19" class="node">
<title>39</title>
<ellipse fill="#b9d3ee" stroke="black" cx="687.9" cy="-34" rx="16.8" ry="18"/>
<text text-anchor="middle" x="687.9" y="-30.3" font-family="Times,serif" font-size="14.00">5</text>
</g>
<!-- 20&#45;&gt;39 -->
<g id="edge17" class="edge">
<title>20&#45;&gt;39</title>
<path fill="none" stroke="black" d="M709.73,-87.7C706.28,-79.37 702.08,-69.23 698.29,-60.08"/>
<polygon fill="black" stroke="black" points="701.45,-58.57 694.39,-50.67 694.98,-61.25 701.45,-58.57"/>
</g>
<!-- 313 -->
<g id="node23" class="node">
<title>313</title>
<ellipse fill="#b9d3ee" stroke="black" cx="745.9" cy="-34" rx="23" ry="18"/>
<text text-anchor="middle" x="745.9" y="-30.3" font-family="Times,serif" font-size="14.00">17</text>
</g>
<!-- 20&#45;&gt;313 -->
<g id="edge21" class="edge">
<title>20&#45;&gt;313</title>
<path fill="none" stroke="black" d="M724.07,-87.7C727.42,-79.61 731.48,-69.81 735.18,-60.87"/>
<polygon fill="black" stroke="black" points="738.42,-62.2 739.01,-51.62 731.95,-59.52 738.42,-62.2"/>
</g>
<!-- 315 -->
<g id="node25" class="node">
<title>315</title>
<ellipse fill="#b9d3ee" stroke="black" cx="808.9" cy="-34" rx="23" ry="18"/>
<text text-anchor="middle" x="808.9" y="-30.3" font-family="Times,serif" font-size="14.00">27</text>
</g>
<!-- 20&#45;&gt;315 -->
<g id="edge23" class="edge">
<title>20&#45;&gt;315</title>
<path fill="none" stroke="black" d="M739.64,-87.7C753.39,-77.24 770.9,-63.91 784.87,-53.28"/>
<polygon fill="black" stroke="black" points="787.21,-55.9 793.05,-47.06 782.97,-50.33 787.21,-55.9"/>
</g>
<!-- 316 -->
<g id="node26" class="node">
<title>316</title>
<ellipse fill="#b9d3ee" stroke="black" cx="871.9" cy="-34" rx="23" ry="18"/>
<text text-anchor="middle" x="871.9" y="-30.3" font-family="Times,serif" font-size="14.00">42</text>
</g>
<!-- 20&#45;&gt;316 -->
<g id="edge24" class="edge">
<title>20&#45;&gt;316</title>
<path fill="none" stroke="black" d="M753.13,-90.61C778.08,-80.43 811.85,-66.13 840.9,-52 842.24,-51.35 843.61,-50.66 844.99,-49.96"/>
<polygon fill="black" stroke="black" points="846.82,-52.96 854.02,-45.19 843.55,-46.77 846.82,-52.96"/>
</g>
<!-- 317 -->
<g id="node27" class="node">
<title>317</title>
<ellipse fill="#b9d3ee" stroke="black" cx="934.9" cy="-34" rx="23" ry="18"/>
<text text-anchor="middle" x="934.9" y="-30.3" font-family="Times,serif" font-size="14.00">46</text>
</g>
<!-- 20&#45;&gt;317 -->
<g id="edge25" class="edge">
<title>20&#45;&gt;317</title>
<path fill="none" stroke="black" d="M753.21,-97.27C791.49,-88.54 853.16,-72.79 903.9,-52 905.28,-51.43 906.68,-50.82 908.09,-50.17"/>
<polygon fill="black" stroke="black" points="909.84,-53.21 917.2,-45.59 906.7,-46.96 909.84,-53.21"/>
</g>
<!-- 318 -->
<g id="node28" class="node">
<title>318</title>
<ellipse fill="#b9d3ee" stroke="black" cx="997.9" cy="-34" rx="23" ry="18"/>
<text text-anchor="middle" x="997.9" y="-30.3" font-family="Times,serif" font-size="14.00">55</text>
</g>
<!-- 20&#45;&gt;318 -->
<g id="edge26" class="edge">
<title>20&#45;&gt;318</title>
<path fill="none" stroke="black" d="M753.01,-100.72C802.46,-94.11 893.48,-79.24 966.9,-52 968.3,-51.48 969.72,-50.9 971.13,-50.29"/>
<polygon fill="black" stroke="black" points="972.84,-53.35 980.29,-45.81 969.77,-47.06 972.84,-53.35"/>
</g>
<!-- 33 -->
<g id="node13" class="node">
<title>33</title>
<ellipse fill="#b9d3ee" stroke="black" cx="16.9" cy="-34" rx="16.8" ry="18"/>
<text text-anchor="middle" x="16.9" y="-30.3" font-family="Times,serif" font-size="14.00">1</text>
</g>
<!-- 21&#45;&gt;33 -->
<g id="edge11" class="edge">
<title>21&#45;&gt;33</title>
<path fill="none" stroke="black" d="M141.67,-87.9C110.77,-79.01 74.22,-66.87 42.9,-52 41.72,-51.44 40.53,-50.84 39.35,-50.2"/>
<polygon fill="black" stroke="black" points="40.9,-47.05 30.52,-44.9 37.3,-53.05 40.9,-47.05"/>
</g>
<!-- 35 -->
<g id="node15" class="node">
<title>35</title>
<ellipse fill="#b9d3ee" stroke="black" cx="68.9" cy="-34" rx="16.8" ry="18"/>
<text text-anchor="middle" x="68.9" y="-30.3" font-family="Times,serif" font-size="14.00">2</text>
</g>
<!-- 21&#45;&gt;35 -->
<g id="edge13" class="edge">
<title>21&#45;&gt;35</title>
<path fill="none" stroke="black" d="M169,-87.9C146.7,-78.15 118.85,-65.25 94.9,-52 93.76,-51.37 92.6,-50.7 91.44,-50.02"/>
<polygon fill="black" stroke="black" points="93.03,-46.89 82.7,-44.56 89.33,-52.83 93.03,-46.89"/>
</g>
<!-- 310 -->
<g id="node20" class="node">
<title>310</title>
<ellipse fill="#b9d3ee" stroke="black" cx="120.9" cy="-34" rx="16.8" ry="18"/>
<text text-anchor="middle" x="120.9" y="-30.3" font-family="Times,serif" font-size="14.00">6</text>
</g>
<!-- 21&#45;&gt;310 -->
<g id="edge18" class="edge">
<title>21&#45;&gt;310</title>
<path fill="none" stroke="black" d="M187.9,-87.7C173.92,-76.7 155.91,-62.54 142.09,-51.67"/>
<polygon fill="black" stroke="black" points="144.12,-48.81 134.1,-45.38 139.79,-54.31 144.12,-48.81"/>
</g>
<!-- 312 -->
<g id="node22" class="node">
<title>312</title>
<ellipse fill="#b9d3ee" stroke="black" cx="178.9" cy="-34" rx="23" ry="18"/>
<text text-anchor="middle" x="178.9" y="-30.3" font-family="Times,serif" font-size="14.00">14</text>
</g>
<!-- 21&#45;&gt;312 -->
<g id="edge20" class="edge">
<title>21&#45;&gt;312</title>
<path fill="none" stroke="black" d="M202.24,-87.7C198.6,-79.49 194.19,-69.52 190.18,-60.48"/>
<polygon fill="black" stroke="black" points="193.3,-58.87 186.05,-51.14 186.9,-61.71 193.3,-58.87"/>
</g>
<!-- 314 -->
<g id="node24" class="node">
<title>314</title>
<ellipse fill="#b9d3ee" stroke="black" cx="241.9" cy="-34" rx="23" ry="18"/>
<text text-anchor="middle" x="241.9" y="-30.3" font-family="Times,serif" font-size="14.00">18</text>
</g>
<!-- 21&#45;&gt;314 -->
<g id="edge22" class="edge">
<title>21&#45;&gt;314</title>
<path fill="none" stroke="black" d="M217.81,-87.7C221.56,-79.49 226.12,-69.52 230.25,-60.48"/>
<polygon fill="black" stroke="black" points="233.54,-61.69 234.52,-51.14 227.18,-58.78 233.54,-61.69"/>
</g>
<!-- 319 -->
<g id="node29" class="node">
<title>319</title>
<ellipse fill="#b9d3ee" stroke="black" cx="318.9" cy="-34" rx="36" ry="18"/>
<text text-anchor="middle" x="318.9" y="-30.3" font-family="Times,serif" font-size="14.00">170</text>
</g>
<!-- 21&#45;&gt;319 -->
<g id="edge27" class="edge">
<title>21&#45;&gt;319</title>
<path fill="none" stroke="black" d="M236.56,-87.88C252.41,-77.7 272.55,-64.77 288.94,-54.24"/>
<polygon fill="black" stroke="black" points="291.09,-57.02 297.61,-48.67 287.31,-51.13 291.09,-57.02"/>
</g>
<!-- 320 -->
<g id="node30" class="node">
<title>320</title>
<ellipse fill="#b9d3ee" stroke="black" cx="408.9" cy="-34" rx="36" ry="18"/>
<text text-anchor="middle" x="408.9" y="-30.3" font-family="Times,serif" font-size="14.00">189</text>
</g>
<!-- 21&#45;&gt;320 -->
<g id="edge28" class="edge">
<title>21&#45;&gt;320</title>
<path fill="none" stroke="black" d="M260.66,-87.95C290.75,-77.74 329.59,-64.38 363.9,-52 366.3,-51.13 368.78,-50.23 371.27,-49.31"/>
<polygon fill="black" stroke="black" points="372.71,-52.51 380.86,-45.74 370.27,-45.95 372.71,-52.51"/>
</g>
<!-- 30 -->
<g id="node10" class="node">
<title>30</title>
<ellipse fill="#b9d3ee" stroke="black" cx="1055.9" cy="-34" rx="16.8" ry="18"/>
<text text-anchor="middle" x="1055.9" y="-30.3" font-family="Times,serif" font-size="14.00">1</text>
</g>
<!-- 22&#45;&gt;30 -->
<g id="edge8" class="edge">
<title>22&#45;&gt;30</title>
<path fill="none" stroke="black" d="M1114.62,-87.7C1102.89,-77.17 1087.93,-63.75 1076.05,-53.08"/>
<polygon fill="black" stroke="black" points="1078.17,-50.28 1068.39,-46.21 1073.49,-55.49 1078.17,-50.28"/>
</g>
<!-- 34 -->
<g id="node14" class="node">
<title>34</title>
<ellipse fill="#b9d3ee" stroke="black" cx="1107.9" cy="-34" rx="16.8" ry="18"/>
<text text-anchor="middle" x="1107.9" y="-30.3" font-family="Times,serif" font-size="14.00">1</text>
</g>
<!-- 22&#45;&gt;34 -->
<g id="edge12" class="edge">
<title>22&#45;&gt;34</title>
<path fill="none" stroke="black" d="M1127.47,-87.7C1124.46,-79.58 1120.8,-69.74 1117.47,-60.76"/>
<polygon fill="black" stroke="black" points="1120.66,-59.3 1113.9,-51.14 1114.1,-61.74 1120.66,-59.3"/>
</g>
<!-- 36 -->
<g id="node16" class="node">
<title>36</title>
<ellipse fill="#b9d3ee" stroke="black" cx="1159.9" cy="-34" rx="16.8" ry="18"/>
<text text-anchor="middle" x="1159.9" y="-30.3" font-family="Times,serif" font-size="14.00">3</text>
</g>
<!-- 22&#45;&gt;36 -->
<g id="edge14" class="edge">
<title>22&#45;&gt;36</title>
<path fill="none" stroke="black" d="M1140.33,-87.7C1143.34,-79.58 1147,-69.74 1150.33,-60.76"/>
<polygon fill="black" stroke="black" points="1153.7,-61.74 1153.9,-51.14 1147.14,-59.3 1153.7,-61.74"/>
</g>
<!-- 311 -->
<g id="node21" class="node">
<title>311</title>
<ellipse fill="#b9d3ee" stroke="black" cx="1217.9" cy="-34" rx="23" ry="18"/>
<text text-anchor="middle" x="1217.9" y="-30.3" font-family="Times,serif" font-size="14.00">12</text>
</g>
<!-- 22&#45;&gt;311 -->
<g id="edge19" class="edge">
<title>22&#45;&gt;311</title>
<path fill="none" stroke="black" d="M1154.66,-87.7C1166.86,-77.53 1182.29,-64.67 1194.86,-54.2"/>
<polygon fill="black" stroke="black" points="1197.2,-56.8 1202.65,-47.71 1192.72,-51.42 1197.2,-56.8"/>
</g>
<!-- 321 -->
<g id="node31" class="node">
<title>321</title>
<ellipse fill="#b9d3ee" stroke="black" cx="1366.9" cy="-34" rx="108" ry="18"/>
<text text-anchor="middle" x="1366.9" y="-30.3" font-family="Times,serif" font-size="14.00">383</text>
</g>
<!-- 22&#45;&gt;321 -->
<g id="edge29" class="edge">
<title>22&#45;&gt;321</title>
<path fill="none" stroke="black" d="M1190.6,-87.97C1225.81,-77.39 1271.03,-63.8 1306.85,-53.04"/>
<polygon fill="black" stroke="black" points="1308.12,-56.31 1316.69,-50.08 1306.11,-49.61 1308.12,-56.31"/>
</g>
<!-- legend_3 -->
<g id="node32" class="node">
<title>legend_3</title>
<polygon fill="#b9d3ee" stroke="black" points="1714.4,-52 1493.4,-52 1493.4,-16 1714.4,-16 1714.4,-52"/>
<text text-anchor="middle" x="1603.9" y="-30.3" font-family="Times,serif" font-size="14.00">DT=8 ST=1 Similarity=0.59</text>
</g>
<!-- legend_2&#45;&gt;legend_3 -->
<g id="edge30" class="edge">
<title>legend_2&#45;&gt;legend_3</title>
<path fill="none" stroke="black" d="M1603.9,-87.7C1603.9,-79.98 1603.9,-70.71 1603.9,-62.11"/>
<polygon fill="black" stroke="black" points="1607.4,-62.1 1603.9,-52.1 1600.4,-62.1 1607.4,-62.1"/>
</g>
</g>
</svg>
