<?xml version="1.0" encoding="UTF-8" standalone="no"?>
<!DOCTYPE svg PUBLIC "-//W3C//DTD SVG 1.1//EN"
 "http://www.w3.org/Graphics/SVG/1.1/DTD/svg11.dtd">
<!-- Generated by graphviz version 2.43.0 (0)
 -->
<!-- Title: %3 Pages: 1 -->
<svg width="1738pt" height="353pt"
 viewBox="0.00 0.00 1737.90 353.00" xmlns="http://www.w3.org/2000/svg" xmlns:xlink="http://www.w3.org/1999/xlink">
<g id="graph0" class="graph" transform="scale(1 1) rotate(0) translate(4 349)">
<title>%3</title>
<polygon fill="white" stroke="transparent" points="-4,4 -4,-349 1733.9,-349 1733.9,4 -4,4"/>
<text text-anchor="middle" x="864.95" y="-329.8" font-family="Times,serif" font-size="14.00">ConsTree</text>
<text text-anchor="middle" x="864.95" y="-314.8" font-family="Times,serif" font-size="14.00">Tree Quality = 0.625</text>
<g id="clust1" class="cluster">
<title>cluster</title>
<polygon fill="none" stroke="black" points="1485.9,-8 1485.9,-299 1721.9,-299 1721.9,-8 1485.9,-8"/>
<text text-anchor="middle" x="1603.9" y="-283.8" font-family="Times,serif" font-size="14.00">Legend</text>
</g>
<!-- 00 -->
<g id="node1" class="node">
<title>00</title>
<ellipse fill="#b9d3ee" stroke="black" cx="438.9" cy="-250" rx="324" ry="18"/>
<text text-anchor="middle" x="438.9" y="-246.3" font-family="Times,serif" font-size="14.00">1000</text>
</g>
<!-- 10 -->
<g id="node3" class="node">
<title>10</title>
<ellipse fill="#b9d3ee" stroke="black" cx="285.9" cy="-178" rx="108" ry="18"/>
<text text-anchor="middle" x="285.9" y="-174.3" font-family="Times,serif" font-size="14.00">400</text>
</g>
<!-- 00&#45;&gt;10 -->
<g id="edge1" class="edge">
<title>00&#45;&gt;10</title>
<path fill="none" stroke="black" d="M401.86,-232.05C380.25,-222.17 352.86,-209.64 330.12,-199.23"/>
<polygon fill="black" stroke="black" points="331.57,-196.05 321.02,-195.07 328.66,-202.41 331.57,-196.05"/>
</g>
<!-- 11 -->
<g id="node4" class="node">
<title>11</title>
<ellipse fill="#b9d3ee" stroke="black" cx="687.9" cy="-178" rx="180" ry="18"/>
<text text-anchor="middle" x="687.9" y="-174.3" font-family="Times,serif" font-size="14.00">600</text>
</g>
<!-- 00&#45;&gt;11 -->
<g id="edge2" class="edge">
<title>00&#45;&gt;11</title>
<path fill="none" stroke="black" d="M498.54,-232.23C535.26,-221.91 582.41,-208.65 620.48,-197.95"/>
<polygon fill="black" stroke="black" points="621.78,-201.22 630.46,-195.15 619.88,-194.49 621.78,-201.22"/>
</g>
<!-- legend_0 -->
<g id="node2" class="node">
<title>legend_0</title>
<polygon fill="#b9d3ee" stroke="black" points="1714.4,-268 1493.4,-268 1493.4,-232 1714.4,-232 1714.4,-268"/>
<text text-anchor="middle" x="1603.9" y="-246.3" font-family="Times,serif" font-size="14.00">DT=4 ST=4 Similarity=0.38</text>
</g>
<!-- legend_1 -->
<g id="node5" class="node">
<title>legend_1</title>
<polygon fill="#b9d3ee" stroke="black" points="1714.4,-196 1493.4,-196 1493.4,-160 1714.4,-160 1714.4,-196"/>
<text text-anchor="middle" x="1603.9" y="-174.3" font-family="Times,serif" font-size="14.00">DT=6 ST=2 Similarity=0.69</text>
</g>
<!-- legend_0&#45;&gt;legend_1 -->
<g id="edge3" class="edge">
<title>legend_0&#45;&gt;legend_1</title>
<path fill="none" stroke="black" d="M1603.9,-231.7C1603.9,-223.98 1603.9,-214.71 1603.9,-206.11"/>
<polygon fill="black" stroke="black" points="1607.4,-206.1 1603.9,-196.1 1600.4,-206.1 1607.4,-206.1"/>
</g>
<!-- 21 -->
<g id="node7" class="node">
<title>21</title>
<polygon fill="darkseagreen" stroke="black" points="297.9,-124 81.9,-124 81.9,-88 297.9,-88 297.9,-124"/>
<text text-anchor="middle" x="189.9" y="-102.3" font-family="Times,serif" font-size="14.00">400</text>
</g>
<!-- 10&#45;&gt;21 -->
<g id="edge5" class="edge">
<title>10&#45;&gt;21</title>
<path fill="none" stroke="black" d="M262.66,-160.05C250.25,-151.01 234.81,-139.74 221.34,-129.93"/>
<polygon fill="black" stroke="black" points="223.4,-127.1 213.26,-124.03 219.27,-132.75 223.4,-127.1"/>
</g>
<!-- 20 -->
<g id="node6" class="node">
<title>20</title>
<polygon fill="darkseagreen" stroke="black" points="723.9,-124 651.9,-124 651.9,-88 723.9,-88 723.9,-124"/>
<text text-anchor="middle" x="687.9" y="-102.3" font-family="Times,serif" font-size="14.00">200</text>
</g>
<!-- 11&#45;&gt;20 -->
<g id="edge4" class="edge">
<title>11&#45;&gt;20</title>
<path fill="none" stroke="black" d="M687.9,-159.7C687.9,-151.98 687.9,-142.71 687.9,-134.11"/>
<polygon fill="black" stroke="black" points="691.4,-134.1 687.9,-124.1 684.4,-134.1 691.4,-134.1"/>
</g>
<!-- 22 -->
<g id="node8" class="node">
<title>22</title>
<polygon fill="darkseagreen" stroke="black" points="1241.9,-124 1025.9,-124 1025.9,-88 1241.9,-88 1241.9,-124"/>
<text text-anchor="middle" x="1133.9" y="-102.3" font-family="Times,serif" font-size="14.00">400</text>
</g>
<!-- 11&#45;&gt;22 -->
<g id="edge6" class="edge">
<title>11&#45;&gt;22</title>
<path fill="none" stroke="black" d="M780.31,-162.5C848.42,-151.81 941.63,-137.18 1015.24,-125.62"/>
<polygon fill="black" stroke="black" points="1016.16,-129.02 1025.5,-124.01 1015.07,-122.11 1016.16,-129.02"/>
</g>
<!-- legend_2 -->
<g id="node9" class="node">
<title>legend_2</title>
<polygon fill="darkseagreen" stroke="black" points="1714.4,-124 1493.4,-124 1493.4,-88 1714.4,-88 1714.4,-124"/>
<text text-anchor="middle" x="1603.9" y="-102.3" font-family="Times,serif" font-size="14.00">DT=7 ST=1 Similarity=0.79</text>
</g>
<!-- legend_1&#45;&gt;legend_2 -->
<g id="edge7" class="edge">
<title>legend_1&#45;&gt;legend_2</title>
<path fill="none" stroke="black" d="M1603.9,-159.7C1603.9,-151.98 1603.9,-142.71 1603.9,-134.11"/>
<polygon fill="black" stroke="black" points="1607.4,-134.1 1603.9,-124.1 1600.4,-134.1 1607.4,-134.1"/>
</g>
<!-- 31 -->
<g id="node11" class="node">
<title>31</title>
<ellipse fill="#b9d3ee" stroke="black" cx="427.9" cy="-34" rx="16.8" ry="18"/>
<text text-anchor="middle" x="427.9" y="-30.3" font-family="Times,serif" font-size="14.00">1</text>
</g>
<!-- 20&#45;&gt;31 -->
<g id="edge9" class="edge">
<title>20&#45;&gt;31</title>
<path fill="none" stroke="black" d="M651.79,-100.88C604.75,-94.6 520.63,-80.28 453.9,-52 452.7,-51.49 451.49,-50.93 450.29,-50.32"/>
<polygon fill="black" stroke="black" points="451.82,-47.16 441.42,-45.14 448.29,-53.2 451.82,-47.16"/>
</g>
<!-- 33 -->
<g id="node13" class="node">
<title>33</title>
<ellipse fill="#b9d3ee" stroke="black" cx="479.9" cy="-34" rx="16.8" ry="18"/>
<text text-anchor="middle" x="479.9" y="-30.3" font-family="Times,serif" font-size="14.00">2</text>
</g>
<!-- 20&#45;&gt;33 -->
<g id="edge11" class="edge">
<title>20&#45;&gt;33</title>
<path fill="none" stroke="black" d="M651.89,-97.82C614.35,-89.59 554.33,-74.28 505.9,-52 504.71,-51.45 503.52,-50.86 502.33,-50.23"/>
<polygon fill="black" stroke="black" points="503.88,-47.08 493.49,-44.97 500.29,-53.09 503.88,-47.08"/>
</g>
<!-- 35 -->
<g id="node15" class="node">
<title>35</title>
<ellipse fill="#b9d3ee" stroke="black" cx="531.9" cy="-34" rx="16.8" ry="18"/>
<text text-anchor="middle" x="531.9" y="-30.3" font-family="Times,serif" font-size="14.00">2</text>
</g>
<!-- 20&#45;&gt;35 -->
<g id="edge13" class="edge">
<title>20&#45;&gt;35</title>
<path fill="none" stroke="black" d="M651.75,-92.39C625.19,-82.63 588.55,-68.08 557.9,-52 556.74,-51.39 555.57,-50.75 554.4,-50.08"/>
<polygon fill="black" stroke="black" points="555.98,-46.95 545.63,-44.68 552.31,-52.91 555.98,-46.95"/>
</g>
<!-- 37 -->
<g id="node17" class="node">
<title>37</title>
<ellipse fill="#b9d3ee" stroke="black" cx="583.9" cy="-34" rx="16.8" ry="18"/>
<text text-anchor="middle" x="583.9" y="-30.3" font-family="Times,serif" font-size="14.00">6</text>
</g>
<!-- 20&#45;&gt;37 -->
<g id="edge15" class="edge">
<title>20&#45;&gt;37</title>
<path fill="none" stroke="black" d="M662.46,-87.88C645.31,-76.33 622.89,-61.24 606.39,-50.14"/>
<polygon fill="black" stroke="black" points="608.16,-47.11 597.91,-44.43 604.25,-52.92 608.16,-47.11"/>
</g>
<!-- 39 -->
<g id="node19" class="node">
<title>39</title>
<ellipse fill="#b9d3ee" stroke="black" cx="635.9" cy="-34" rx="16.8" ry="18"/>
<text text-anchor="middle" x="635.9" y="-30.3" font-family="Times,serif" font-size="14.00">7</text>
</g>
<!-- 20&#45;&gt;39 -->
<g id="edge17" class="edge">
<title>20&#45;&gt;39</title>
<path fill="none" stroke="black" d="M675.04,-87.7C668.16,-78.43 659.6,-66.91 652.25,-57.01"/>
<polygon fill="black" stroke="black" points="654.94,-54.76 646.17,-48.82 649.32,-58.94 654.94,-54.76"/>
</g>
<!-- 310 -->
<g id="node20" class="node">
<title>310</title>
<ellipse fill="#b9d3ee" stroke="black" cx="687.9" cy="-34" rx="16.8" ry="18"/>
<text text-anchor="middle" x="687.9" y="-30.3" font-family="Times,serif" font-size="14.00">7</text>
</g>
<!-- 20&#45;&gt;310 -->
<g id="edge18" class="edge">
<title>20&#45;&gt;310</title>
<path fill="none" stroke="black" d="M687.9,-87.7C687.9,-79.98 687.9,-70.71 687.9,-62.11"/>
<polygon fill="black" stroke="black" points="691.4,-62.1 687.9,-52.1 684.4,-62.1 691.4,-62.1"/>
</g>
<!-- 314 -->
<g id="node24" class="node">
<title>314</title>
<ellipse fill="#b9d3ee" stroke="black" cx="745.9" cy="-34" rx="23" ry="18"/>
<text text-anchor="middle" x="745.9" y="-30.3" font-family="Times,serif" font-size="14.00">24</text>
</g>
<!-- 20&#45;&gt;314 -->
<g id="edge22" class="edge">
<title>20&#45;&gt;314</title>
<path fill="none" stroke="black" d="M702.24,-87.7C709.78,-78.59 719.13,-67.31 727.24,-57.52"/>
<polygon fill="black" stroke="black" points="730,-59.67 733.69,-49.74 724.61,-55.21 730,-59.67"/>
</g>
<!-- 315 -->
<g id="node25" class="node">
<title>315</title>
<ellipse fill="#b9d3ee" stroke="black" cx="808.9" cy="-34" rx="23" ry="18"/>
<text text-anchor="middle" x="808.9" y="-30.3" font-family="Times,serif" font-size="14.00">25</text>
</g>
<!-- 20&#45;&gt;315 -->
<g id="edge23" class="edge">
<title>20&#45;&gt;315</title>
<path fill="none" stroke="black" d="M717.5,-87.88C737.22,-76.47 762.93,-61.59 782.06,-50.53"/>
<polygon fill="black" stroke="black" points="783.96,-53.47 790.86,-45.43 780.45,-47.41 783.96,-53.47"/>
</g>
<!-- 316 -->
<g id="node26" class="node">
<title>316</title>
<ellipse fill="#b9d3ee" stroke="black" cx="871.9" cy="-34" rx="23" ry="18"/>
<text text-anchor="middle" x="871.9" y="-30.3" font-family="Times,serif" font-size="14.00">36</text>
</g>
<!-- 20&#45;&gt;316 -->
<g id="edge24" class="edge">
<title>20&#45;&gt;316</title>
<path fill="none" stroke="black" d="M724.11,-94.35C755.53,-84.66 801.97,-69.27 840.9,-52 842.27,-51.39 843.65,-50.75 845.05,-50.08"/>
<polygon fill="black" stroke="black" points="846.83,-53.1 854.13,-45.41 843.63,-46.87 846.83,-53.1"/>
</g>
<!-- 317 -->
<g id="node27" class="node">
<title>317</title>
<ellipse fill="#b9d3ee" stroke="black" cx="934.9" cy="-34" rx="23" ry="18"/>
<text text-anchor="middle" x="934.9" y="-30.3" font-family="Times,serif" font-size="14.00">36</text>
</g>
<!-- 20&#45;&gt;317 -->
<g id="edge25" class="edge">
<title>20&#45;&gt;317</title>
<path fill="none" stroke="black" d="M723.94,-99.13C767.55,-91.37 842.73,-75.8 903.9,-52 905.29,-51.46 906.7,-50.86 908.11,-50.23"/>
<polygon fill="black" stroke="black" points="909.84,-53.28 917.25,-45.71 906.74,-47.01 909.84,-53.28"/>
</g>
<!-- 318 -->
<g id="node28" class="node">
<title>318</title>
<ellipse fill="#b9d3ee" stroke="black" cx="997.9" cy="-34" rx="23" ry="18"/>
<text text-anchor="middle" x="997.9" y="-30.3" font-family="Times,serif" font-size="14.00">54</text>
</g>
<!-- 20&#45;&gt;318 -->
<g id="edge26" class="edge">
<title>20&#45;&gt;318</title>
<path fill="none" stroke="black" d="M724.08,-101.78C778.21,-96.16 882.91,-82.15 966.9,-52 968.31,-51.49 969.73,-50.93 971.15,-50.33"/>
<polygon fill="black" stroke="black" points="972.84,-53.39 980.31,-45.88 969.79,-47.09 972.84,-53.39"/>
</g>
<!-- 34 -->
<g id="node14" class="node">
<title>34</title>
<ellipse fill="#b9d3ee" stroke="black" cx="16.9" cy="-34" rx="16.8" ry="18"/>
<text text-anchor="middle" x="16.9" y="-30.3" font-family="Times,serif" font-size="14.00">2</text>
</g>
<!-- 21&#45;&gt;34 -->
<g id="edge12" class="edge">
<title>21&#45;&gt;34</title>
<path fill="none" stroke="black" d="M133.13,-87.97C105.3,-78.77 71.67,-66.35 42.9,-52 41.73,-51.42 40.55,-50.79 39.37,-50.14"/>
<polygon fill="black" stroke="black" points="40.94,-47 30.58,-44.8 37.3,-52.98 40.94,-47"/>
</g>
<!-- 38 -->
<g id="node18" class="node">
<title>38</title>
<ellipse fill="#b9d3ee" stroke="black" cx="68.9" cy="-34" rx="16.8" ry="18"/>
<text text-anchor="middle" x="68.9" y="-30.3" font-family="Times,serif" font-size="14.00">6</text>
</g>
<!-- 21&#45;&gt;38 -->
<g id="edge16" class="edge">
<title>21&#45;&gt;38</title>
<path fill="none" stroke="black" d="M157.91,-87.88C139.33,-77.76 115.58,-64.51 94.9,-52 93.78,-51.32 92.64,-50.63 91.5,-49.91"/>
<polygon fill="black" stroke="black" points="93.13,-46.8 82.82,-44.36 89.35,-52.7 93.13,-46.8"/>
</g>
<!-- 311 -->
<g id="node21" class="node">
<title>311</title>
<ellipse fill="#b9d3ee" stroke="black" cx="126.9" cy="-34" rx="23" ry="18"/>
<text text-anchor="middle" x="126.9" y="-30.3" font-family="Times,serif" font-size="14.00">10</text>
</g>
<!-- 21&#45;&gt;311 -->
<g id="edge19" class="edge">
<title>21&#45;&gt;311</title>
<path fill="none" stroke="black" d="M174.33,-87.7C165.93,-78.37 155.49,-66.76 146.54,-56.82"/>
<polygon fill="black" stroke="black" points="149.04,-54.37 139.75,-49.28 143.84,-59.05 149.04,-54.37"/>
</g>
<!-- 313 -->
<g id="node23" class="node">
<title>313</title>
<ellipse fill="#b9d3ee" stroke="black" cx="189.9" cy="-34" rx="23" ry="18"/>
<text text-anchor="middle" x="189.9" y="-30.3" font-family="Times,serif" font-size="14.00">18</text>
</g>
<!-- 21&#45;&gt;313 -->
<g id="edge21" class="edge">
<title>21&#45;&gt;313</title>
<path fill="none" stroke="black" d="M189.9,-87.7C189.9,-79.98 189.9,-70.71 189.9,-62.11"/>
<polygon fill="black" stroke="black" points="193.4,-62.1 189.9,-52.1 186.4,-62.1 193.4,-62.1"/>
</g>
<!-- 319 -->
<g id="node29" class="node">
<title>319</title>
<ellipse fill="#b9d3ee" stroke="black" cx="266.9" cy="-34" rx="36" ry="18"/>
<text text-anchor="middle" x="266.9" y="-30.3" font-family="Times,serif" font-size="14.00">174</text>
</g>
<!-- 21&#45;&gt;319 -->
<g id="edge27" class="edge">
<title>21&#45;&gt;319</title>
<path fill="none" stroke="black" d="M208.93,-87.7C219.11,-78.44 231.75,-66.95 242.63,-57.06"/>
<polygon fill="black" stroke="black" points="245.13,-59.52 250.18,-50.2 240.42,-54.34 245.13,-59.52"/>
</g>
<!-- 320 -->
<g id="node30" class="node">
<title>320</title>
<ellipse fill="#b9d3ee" stroke="black" cx="356.9" cy="-34" rx="36" ry="18"/>
<text text-anchor="middle" x="356.9" y="-30.3" font-family="Times,serif" font-size="14.00">190</text>
</g>
<!-- 21&#45;&gt;320 -->
<g id="edge28" class="edge">
<title>21&#45;&gt;320</title>
<path fill="none" stroke="black" d="M230.75,-87.88C258.27,-76.34 294.24,-61.26 320.73,-50.16"/>
<polygon fill="black" stroke="black" points="322.15,-53.36 330.02,-46.27 319.45,-46.9 322.15,-53.36"/>
</g>
<!-- 30 -->
<g id="node10" class="node">
<title>30</title>
<ellipse fill="#b9d3ee" stroke="black" cx="1055.9" cy="-34" rx="16.8" ry="18"/>
<text text-anchor="middle" x="1055.9" y="-30.3" font-family="Times,serif" font-size="14.00">1</text>
</g>
<!-- 22&#45;&gt;30 -->
<g id="edge8" class="edge">
<title>22&#45;&gt;30</title>
<path fill="none" stroke="black" d="M1114.62,-87.7C1102.89,-77.17 1087.93,-63.75 1076.05,-53.08"/>
<polygon fill="black" stroke="black" points="1078.17,-50.28 1068.39,-46.21 1073.49,-55.49 1078.17,-50.28"/>
</g>
<!-- 32 -->
<g id="node12" class="node">
<title>32</title>
<ellipse fill="#b9d3ee" stroke="black" cx="1107.9" cy="-34" rx="16.8" ry="18"/>
<text text-anchor="middle" x="1107.9" y="-30.3" font-family="Times,serif" font-size="14.00">1</text>
</g>
<!-- 22&#45;&gt;32 -->
<g id="edge10" class="edge">
<title>22&#45;&gt;32</title>
<path fill="none" stroke="black" d="M1127.47,-87.7C1124.46,-79.58 1120.8,-69.74 1117.47,-60.76"/>
<polygon fill="black" stroke="black" points="1120.66,-59.3 1113.9,-51.14 1114.1,-61.74 1120.66,-59.3"/>
</g>
<!-- 36 -->
<g id="node16" class="node">
<title>36</title>
<ellipse fill="#b9d3ee" stroke="black" cx="1159.9" cy="-34" rx="16.8" ry="18"/>
<text text-anchor="middle" x="1159.9" y="-30.3" font-family="Times,serif" font-size="14.00">3</text>
</g>
<!-- 22&#45;&gt;36 -->
<g id="edge14" class="edge">
<title>22&#45;&gt;36</title>
<path fill="none" stroke="black" d="M1140.33,-87.7C1143.34,-79.58 1147,-69.74 1150.33,-60.76"/>
<polygon fill="black" stroke="black" points="1153.7,-61.74 1153.9,-51.14 1147.14,-59.3 1153.7,-61.74"/>
</g>
<!-- 312 -->
<g id="node22" class="node">
<title>312</title>
<ellipse fill="#b9d3ee" stroke="black" cx="1217.9" cy="-34" rx="23" ry="18"/>
<text text-anchor="middle" x="1217.9" y="-30.3" font-family="Times,serif" font-size="14.00">12</text>
</g>
<!-- 22&#45;&gt;312 -->
<g id="edge20" class="edge">
<title>22&#45;&gt;312</title>
<path fill="none" stroke="black" d="M1154.66,-87.7C1166.86,-77.53 1182.29,-64.67 1194.86,-54.2"/>
<polygon fill="black" stroke="black" points="1197.2,-56.8 1202.65,-47.71 1192.72,-51.42 1197.2,-56.8"/>
</g>
<!-- 321 -->
<g id="node31" class="node">
<title>321</title>
<ellipse fill="#b9d3ee" stroke="black" cx="1366.9" cy="-34" rx="108" ry="18"/>
<text text-anchor="middle" x="1366.9" y="-30.3" font-family="Times,serif" font-size="14.00">383</text>
</g>
<!-- 22&#45;&gt;321 -->
<g id="edge29" class="edge">
<title>22&#45;&gt;321</title>
<path fill="none" stroke="black" d="M1190.6,-87.97C1225.81,-77.39 1271.03,-63.8 1306.85,-53.04"/>
<polygon fill="black" stroke="black" points="1308.12,-56.31 1316.69,-50.08 1306.11,-49.61 1308.12,-56.31"/>
</g>
<!-- legend_3 -->
<g id="node32" class="node">
<title>legend_3</title>
<polygon fill="#b9d3ee" stroke="black" points="1714.4,-52 1493.4,-52 1493.4,-16 1714.4,-16 1714.4,-52"/>
<text text-anchor="middle" x="1603.9" y="-30.3" font-family="Times,serif" font-size="14.00">DT=8 ST=1 Similarity=0.58</text>
</g>
<!-- legend_2&#45;&gt;legend_3 -->
<g id="edge30" class="edge">
<title>legend_2&#45;&gt;legend_3</title>
<path fill="none" stroke="black" d="M1603.9,-87.7C1603.9,-79.98 1603.9,-70.71 1603.9,-62.11"/>
<polygon fill="black" stroke="black" points="1607.4,-62.1 1603.9,-52.1 1600.4,-62.1 1607.4,-62.1"/>
</g>
</g>
</svg>
