<?xml version="1.0" encoding="UTF-8" standalone="no"?>
<!DOCTYPE svg PUBLIC "-//W3C//DTD SVG 1.1//EN"
 "http://www.w3.org/Graphics/SVG/1.1/DTD/svg11.dtd">
<!-- Generated by graphviz version 2.43.0 (0)
 -->
<!-- Title: %3 Pages: 1 -->
<svg width="1728pt" height="353pt"
 viewBox="0.00 0.00 1728.00 353.00" xmlns="http://www.w3.org/2000/svg" xmlns:xlink="http://www.w3.org/1999/xlink">
<g id="graph0" class="graph" transform="scale(1 1) rotate(0) translate(4 349)">
<title>%3</title>
<polygon fill="white" stroke="transparent" points="-4,4 -4,-349 1724,-349 1724,4 -4,4"/>
<text text-anchor="middle" x="860" y="-329.8" font-family="Times,serif" font-size="14.00">ConsTree</text>
<text text-anchor="middle" x="860" y="-314.8" font-family="Times,serif" font-size="14.00">Tree Quality = 0.625</text>
<g id="clust1" class="cluster">
<title>cluster</title>
<polygon fill="none" stroke="black" points="1476,-8 1476,-299 1712,-299 1712,-8 1476,-8"/>
<text text-anchor="middle" x="1594" y="-283.8" font-family="Times,serif" font-size="14.00">Legend</text>
</g>
<!-- 00 -->
<g id="node1" class="node">
<title>00</title>
<ellipse fill="#b9d3ee" stroke="black" cx="469" cy="-250" rx="324" ry="18"/>
<text text-anchor="middle" x="469" y="-246.3" font-family="Times,serif" font-size="14.00">1000</text>
</g>
<!-- 10 -->
<g id="node3" class="node">
<title>10</title>
<ellipse fill="#b9d3ee" stroke="black" cx="316" cy="-178" rx="108" ry="18"/>
<text text-anchor="middle" x="316" y="-174.3" font-family="Times,serif" font-size="14.00">400</text>
</g>
<!-- 00&#45;&gt;10 -->
<g id="edge1" class="edge">
<title>00&#45;&gt;10</title>
<path fill="none" stroke="black" d="M431.96,-232.05C410.35,-222.17 382.96,-209.64 360.22,-199.23"/>
<polygon fill="black" stroke="black" points="361.67,-196.05 351.12,-195.07 358.76,-202.41 361.67,-196.05"/>
</g>
<!-- 11 -->
<g id="node4" class="node">
<title>11</title>
<ellipse fill="#b9d3ee" stroke="black" cx="715" cy="-178" rx="180" ry="18"/>
<text text-anchor="middle" x="715" y="-174.3" font-family="Times,serif" font-size="14.00">600</text>
</g>
<!-- 00&#45;&gt;11 -->
<g id="edge2" class="edge">
<title>00&#45;&gt;11</title>
<path fill="none" stroke="black" d="M527.92,-232.23C564.2,-221.91 610.79,-208.65 648.4,-197.95"/>
<polygon fill="black" stroke="black" points="649.59,-201.25 658.25,-195.15 647.68,-194.52 649.59,-201.25"/>
</g>
<!-- legend_0 -->
<g id="node2" class="node">
<title>legend_0</title>
<polygon fill="#b9d3ee" stroke="black" points="1704.5,-268 1483.5,-268 1483.5,-232 1704.5,-232 1704.5,-268"/>
<text text-anchor="middle" x="1594" y="-246.3" font-family="Times,serif" font-size="14.00">DT=4 ST=4 Similarity=0.38</text>
</g>
<!-- legend_1 -->
<g id="node5" class="node">
<title>legend_1</title>
<polygon fill="#b9d3ee" stroke="black" points="1704.5,-196 1483.5,-196 1483.5,-160 1704.5,-160 1704.5,-196"/>
<text text-anchor="middle" x="1594" y="-174.3" font-family="Times,serif" font-size="14.00">DT=6 ST=2 Similarity=0.69</text>
</g>
<!-- legend_0&#45;&gt;legend_1 -->
<g id="edge3" class="edge">
<title>legend_0&#45;&gt;legend_1</title>
<path fill="none" stroke="black" d="M1594,-231.7C1594,-223.98 1594,-214.71 1594,-206.11"/>
<polygon fill="black" stroke="black" points="1597.5,-206.1 1594,-196.1 1590.5,-206.1 1597.5,-206.1"/>
</g>
<!-- 21 -->
<g id="node7" class="node">
<title>21</title>
<polygon fill="darkseagreen" stroke="black" points="331,-124 115,-124 115,-88 331,-88 331,-124"/>
<text text-anchor="middle" x="223" y="-102.3" font-family="Times,serif" font-size="14.00">400</text>
</g>
<!-- 10&#45;&gt;21 -->
<g id="edge5" class="edge">
<title>10&#45;&gt;21</title>
<path fill="none" stroke="black" d="M293.49,-160.05C281.58,-151.09 266.79,-139.96 253.83,-130.2"/>
<polygon fill="black" stroke="black" points="255.72,-127.25 245.63,-124.03 251.51,-132.84 255.72,-127.25"/>
</g>
<!-- 20 -->
<g id="node6" class="node">
<title>20</title>
<polygon fill="darkseagreen" stroke="black" points="823,-124 607,-124 607,-88 823,-88 823,-124"/>
<text text-anchor="middle" x="715" y="-102.3" font-family="Times,serif" font-size="14.00">400</text>
</g>
<!-- 11&#45;&gt;20 -->
<g id="edge4" class="edge">
<title>11&#45;&gt;20</title>
<path fill="none" stroke="black" d="M715,-159.7C715,-151.98 715,-142.71 715,-134.11"/>
<polygon fill="black" stroke="black" points="718.5,-134.1 715,-124.1 711.5,-134.1 718.5,-134.1"/>
</g>
<!-- 22 -->
<g id="node8" class="node">
<title>22</title>
<polygon fill="darkseagreen" stroke="black" points="1165,-124 1093,-124 1093,-88 1165,-88 1165,-124"/>
<text text-anchor="middle" x="1129" y="-102.3" font-family="Times,serif" font-size="14.00">200</text>
</g>
<!-- 11&#45;&gt;22 -->
<g id="edge6" class="edge">
<title>11&#45;&gt;22</title>
<path fill="none" stroke="black" d="M802.29,-162.24C887.93,-147.76 1015.2,-126.24 1082.84,-114.8"/>
<polygon fill="black" stroke="black" points="1083.5,-118.24 1092.77,-113.13 1082.33,-111.34 1083.5,-118.24"/>
</g>
<!-- legend_2 -->
<g id="node9" class="node">
<title>legend_2</title>
<polygon fill="darkseagreen" stroke="black" points="1700,-124 1488,-124 1488,-88 1700,-88 1700,-124"/>
<text text-anchor="middle" x="1594" y="-102.3" font-family="Times,serif" font-size="14.00">DT=7 ST=1 Similarity=0.8</text>
</g>
<!-- legend_1&#45;&gt;legend_2 -->
<g id="edge7" class="edge">
<title>legend_1&#45;&gt;legend_2</title>
<path fill="none" stroke="black" d="M1594,-159.7C1594,-151.98 1594,-142.71 1594,-134.11"/>
<polygon fill="black" stroke="black" points="1597.5,-134.1 1594,-124.1 1590.5,-134.1 1597.5,-134.1"/>
</g>
<!-- 30 -->
<g id="node10" class="node">
<title>30</title>
<ellipse fill="#b9d3ee" stroke="black" cx="508" cy="-34" rx="108" ry="18"/>
<text text-anchor="middle" x="508" y="-30.3" font-family="Times,serif" font-size="14.00">383</text>
</g>
<!-- 20&#45;&gt;30 -->
<g id="edge8" class="edge">
<title>20&#45;&gt;30</title>
<path fill="none" stroke="black" d="M664.63,-87.97C633.93,-77.59 594.69,-64.32 563.16,-53.65"/>
<polygon fill="black" stroke="black" points="564.24,-50.32 553.64,-50.44 562,-56.95 564.24,-50.32"/>
</g>
<!-- 31 -->
<g id="node11" class="node">
<title>31</title>
<ellipse fill="#b9d3ee" stroke="black" cx="657" cy="-34" rx="23" ry="18"/>
<text text-anchor="middle" x="657" y="-30.3" font-family="Times,serif" font-size="14.00">12</text>
</g>
<!-- 20&#45;&gt;31 -->
<g id="edge9" class="edge">
<title>20&#45;&gt;31</title>
<path fill="none" stroke="black" d="M700.66,-87.7C693.12,-78.59 683.77,-67.31 675.66,-57.52"/>
<polygon fill="black" stroke="black" points="678.29,-55.21 669.21,-49.74 672.9,-59.67 678.29,-55.21"/>
</g>
<!-- 32 -->
<g id="node12" class="node">
<title>32</title>
<ellipse fill="#b9d3ee" stroke="black" cx="715" cy="-34" rx="16.8" ry="18"/>
<text text-anchor="middle" x="715" y="-30.3" font-family="Times,serif" font-size="14.00">3</text>
</g>
<!-- 20&#45;&gt;32 -->
<g id="edge10" class="edge">
<title>20&#45;&gt;32</title>
<path fill="none" stroke="black" d="M715,-87.7C715,-79.98 715,-70.71 715,-62.11"/>
<polygon fill="black" stroke="black" points="718.5,-62.1 715,-52.1 711.5,-62.1 718.5,-62.1"/>
</g>
<!-- 33 -->
<g id="node13" class="node">
<title>33</title>
<ellipse fill="#b9d3ee" stroke="black" cx="767" cy="-34" rx="16.8" ry="18"/>
<text text-anchor="middle" x="767" y="-30.3" font-family="Times,serif" font-size="14.00">1</text>
</g>
<!-- 20&#45;&gt;33 -->
<g id="edge11" class="edge">
<title>20&#45;&gt;33</title>
<path fill="none" stroke="black" d="M727.85,-87.7C734.74,-78.43 743.29,-66.91 750.65,-57.01"/>
<polygon fill="black" stroke="black" points="753.58,-58.94 756.73,-48.82 747.96,-54.76 753.58,-58.94"/>
</g>
<!-- 321 -->
<g id="node31" class="node">
<title>321</title>
<ellipse fill="#b9d3ee" stroke="black" cx="819" cy="-34" rx="16.8" ry="18"/>
<text text-anchor="middle" x="819" y="-30.3" font-family="Times,serif" font-size="14.00">1</text>
</g>
<!-- 20&#45;&gt;321 -->
<g id="edge29" class="edge">
<title>20&#45;&gt;321</title>
<path fill="none" stroke="black" d="M740.44,-87.88C757.59,-76.33 780.01,-61.24 796.51,-50.14"/>
<polygon fill="black" stroke="black" points="798.65,-52.92 804.99,-44.43 794.74,-47.11 798.65,-52.92"/>
</g>
<!-- 34 -->
<g id="node14" class="node">
<title>34</title>
<ellipse fill="#b9d3ee" stroke="black" cx="36" cy="-34" rx="36" ry="18"/>
<text text-anchor="middle" x="36" y="-30.3" font-family="Times,serif" font-size="14.00">175</text>
</g>
<!-- 21&#45;&gt;34 -->
<g id="edge12" class="edge">
<title>21&#45;&gt;34</title>
<path fill="none" stroke="black" d="M177.26,-87.98C149.42,-77.61 113.15,-64.07 81,-52 78.61,-51.1 76.14,-50.17 73.65,-49.24"/>
<polygon fill="black" stroke="black" points="74.67,-45.88 64.08,-45.63 72.2,-52.43 74.67,-45.88"/>
</g>
<!-- 35 -->
<g id="node15" class="node">
<title>35</title>
<ellipse fill="#b9d3ee" stroke="black" cx="107" cy="-34" rx="16.8" ry="18"/>
<text text-anchor="middle" x="107" y="-30.3" font-family="Times,serif" font-size="14.00">9</text>
</g>
<!-- 21&#45;&gt;35 -->
<g id="edge13" class="edge">
<title>21&#45;&gt;35</title>
<path fill="none" stroke="black" d="M193.2,-87.92C175.57,-77.7 152.87,-64.34 133,-52 131.89,-51.31 130.76,-50.6 129.62,-49.88"/>
<polygon fill="black" stroke="black" points="131.26,-46.77 120.96,-44.3 127.47,-52.66 131.26,-46.77"/>
</g>
<!-- 36 -->
<g id="node16" class="node">
<title>36</title>
<ellipse fill="#b9d3ee" stroke="black" cx="165" cy="-34" rx="23" ry="18"/>
<text text-anchor="middle" x="165" y="-30.3" font-family="Times,serif" font-size="14.00">18</text>
</g>
<!-- 21&#45;&gt;36 -->
<g id="edge14" class="edge">
<title>21&#45;&gt;36</title>
<path fill="none" stroke="black" d="M208.66,-87.7C201.12,-78.59 191.77,-67.31 183.66,-57.52"/>
<polygon fill="black" stroke="black" points="186.29,-55.21 177.21,-49.74 180.9,-59.67 186.29,-55.21"/>
</g>
<!-- 313 -->
<g id="node23" class="node">
<title>313</title>
<ellipse fill="#b9d3ee" stroke="black" cx="223" cy="-34" rx="16.8" ry="18"/>
<text text-anchor="middle" x="223" y="-30.3" font-family="Times,serif" font-size="14.00">6</text>
</g>
<!-- 21&#45;&gt;313 -->
<g id="edge21" class="edge">
<title>21&#45;&gt;313</title>
<path fill="none" stroke="black" d="M223,-87.7C223,-79.98 223,-70.71 223,-62.11"/>
<polygon fill="black" stroke="black" points="226.5,-62.1 223,-52.1 219.5,-62.1 226.5,-62.1"/>
</g>
<!-- 314 -->
<g id="node24" class="node">
<title>314</title>
<ellipse fill="#b9d3ee" stroke="black" cx="275" cy="-34" rx="16.8" ry="18"/>
<text text-anchor="middle" x="275" y="-30.3" font-family="Times,serif" font-size="14.00">2</text>
</g>
<!-- 21&#45;&gt;314 -->
<g id="edge22" class="edge">
<title>21&#45;&gt;314</title>
<path fill="none" stroke="black" d="M235.85,-87.7C242.74,-78.43 251.29,-66.91 258.65,-57.01"/>
<polygon fill="black" stroke="black" points="261.58,-58.94 264.73,-48.82 255.96,-54.76 261.58,-58.94"/>
</g>
<!-- 315 -->
<g id="node25" class="node">
<title>315</title>
<ellipse fill="#b9d3ee" stroke="black" cx="346" cy="-34" rx="36" ry="18"/>
<text text-anchor="middle" x="346" y="-30.3" font-family="Times,serif" font-size="14.00">190</text>
</g>
<!-- 21&#45;&gt;315 -->
<g id="edge23" class="edge">
<title>21&#45;&gt;315</title>
<path fill="none" stroke="black" d="M253.09,-87.88C271.67,-77.3 295.48,-63.75 314.34,-53.02"/>
<polygon fill="black" stroke="black" points="316.2,-55.99 323.16,-48 312.74,-49.9 316.2,-55.99"/>
</g>
<!-- 37 -->
<g id="node17" class="node">
<title>37</title>
<ellipse fill="#b9d3ee" stroke="black" cx="871" cy="-34" rx="16.8" ry="18"/>
<text text-anchor="middle" x="871" y="-30.3" font-family="Times,serif" font-size="14.00">1</text>
</g>
<!-- 22&#45;&gt;37 -->
<g id="edge15" class="edge">
<title>22&#45;&gt;37</title>
<path fill="none" stroke="black" d="M1092.8,-100.77C1046.08,-94.41 962.97,-80.04 897,-52 895.8,-51.49 894.59,-50.92 893.39,-50.32"/>
<polygon fill="black" stroke="black" points="894.92,-47.16 884.52,-45.13 891.39,-53.2 894.92,-47.16"/>
</g>
<!-- 38 -->
<g id="node18" class="node">
<title>38</title>
<ellipse fill="#b9d3ee" stroke="black" cx="929" cy="-34" rx="23" ry="18"/>
<text text-anchor="middle" x="929" y="-30.3" font-family="Times,serif" font-size="14.00">13</text>
</g>
<!-- 22&#45;&gt;38 -->
<g id="edge16" class="edge">
<title>22&#45;&gt;38</title>
<path fill="none" stroke="black" d="M1092.93,-95.68C1058.44,-86.29 1005.28,-70.56 961,-52 959.4,-51.33 957.78,-50.61 956.16,-49.86"/>
<polygon fill="black" stroke="black" points="957.51,-46.62 947,-45.3 954.39,-52.89 957.51,-46.62"/>
</g>
<!-- 39 -->
<g id="node19" class="node">
<title>39</title>
<ellipse fill="#b9d3ee" stroke="black" cx="987" cy="-34" rx="16.8" ry="18"/>
<text text-anchor="middle" x="987" y="-30.3" font-family="Times,serif" font-size="14.00">2</text>
</g>
<!-- 22&#45;&gt;39 -->
<g id="edge17" class="edge">
<title>22&#45;&gt;39</title>
<path fill="none" stroke="black" d="M1092.78,-90.12C1069.55,-80.17 1038.98,-66.32 1013,-52 1011.86,-51.37 1010.7,-50.71 1009.54,-50.02"/>
<polygon fill="black" stroke="black" points="1011.13,-46.89 1000.8,-44.57 1007.43,-52.83 1011.13,-46.89"/>
</g>
<!-- 310 -->
<g id="node20" class="node">
<title>310</title>
<ellipse fill="#b9d3ee" stroke="black" cx="1045" cy="-34" rx="23" ry="18"/>
<text text-anchor="middle" x="1045" y="-30.3" font-family="Times,serif" font-size="14.00">32</text>
</g>
<!-- 22&#45;&gt;310 -->
<g id="edge18" class="edge">
<title>22&#45;&gt;310</title>
<path fill="none" stroke="black" d="M1108.24,-87.7C1096.04,-77.53 1080.6,-64.67 1068.04,-54.2"/>
<polygon fill="black" stroke="black" points="1070.18,-51.42 1060.25,-47.71 1065.69,-56.8 1070.18,-51.42"/>
</g>
<!-- 311 -->
<g id="node21" class="node">
<title>311</title>
<ellipse fill="#b9d3ee" stroke="black" cx="1103" cy="-34" rx="16.8" ry="18"/>
<text text-anchor="middle" x="1103" y="-30.3" font-family="Times,serif" font-size="14.00">3</text>
</g>
<!-- 22&#45;&gt;311 -->
<g id="edge19" class="edge">
<title>22&#45;&gt;311</title>
<path fill="none" stroke="black" d="M1122.57,-87.7C1119.56,-79.58 1115.9,-69.74 1112.57,-60.76"/>
<polygon fill="black" stroke="black" points="1115.76,-59.3 1109,-51.14 1109.2,-61.74 1115.76,-59.3"/>
</g>
<!-- 312 -->
<g id="node22" class="node">
<title>312</title>
<ellipse fill="#b9d3ee" stroke="black" cx="1155" cy="-34" rx="16.8" ry="18"/>
<text text-anchor="middle" x="1155" y="-30.3" font-family="Times,serif" font-size="14.00">8</text>
</g>
<!-- 22&#45;&gt;312 -->
<g id="edge20" class="edge">
<title>22&#45;&gt;312</title>
<path fill="none" stroke="black" d="M1135.43,-87.7C1138.44,-79.58 1142.1,-69.74 1145.43,-60.76"/>
<polygon fill="black" stroke="black" points="1148.8,-61.74 1149,-51.14 1142.24,-59.3 1148.8,-61.74"/>
</g>
<!-- 316 -->
<g id="node26" class="node">
<title>316</title>
<ellipse fill="#b9d3ee" stroke="black" cx="1213" cy="-34" rx="23" ry="18"/>
<text text-anchor="middle" x="1213" y="-30.3" font-family="Times,serif" font-size="14.00">80</text>
</g>
<!-- 22&#45;&gt;316 -->
<g id="edge24" class="edge">
<title>22&#45;&gt;316</title>
<path fill="none" stroke="black" d="M1149.76,-87.7C1161.96,-77.53 1177.4,-64.67 1189.96,-54.2"/>
<polygon fill="black" stroke="black" points="1192.31,-56.8 1197.75,-47.71 1187.82,-51.42 1192.31,-56.8"/>
</g>
<!-- 317 -->
<g id="node27" class="node">
<title>317</title>
<ellipse fill="#b9d3ee" stroke="black" cx="1276" cy="-34" rx="23" ry="18"/>
<text text-anchor="middle" x="1276" y="-30.3" font-family="Times,serif" font-size="14.00">23</text>
</g>
<!-- 22&#45;&gt;317 -->
<g id="edge25" class="edge">
<title>22&#45;&gt;317</title>
<path fill="none" stroke="black" d="M1165.12,-89.31C1188.17,-79.1 1218.58,-65.26 1245,-52 1246.34,-51.33 1247.7,-50.63 1249.07,-49.92"/>
<polygon fill="black" stroke="black" points="1250.91,-52.91 1258.09,-45.11 1247.62,-46.73 1250.91,-52.91"/>
</g>
<!-- 318 -->
<g id="node28" class="node">
<title>318</title>
<ellipse fill="#b9d3ee" stroke="black" cx="1339" cy="-34" rx="23" ry="18"/>
<text text-anchor="middle" x="1339" y="-30.3" font-family="Times,serif" font-size="14.00">28</text>
</g>
<!-- 22&#45;&gt;318 -->
<g id="edge26" class="edge">
<title>22&#45;&gt;318</title>
<path fill="none" stroke="black" d="M1165.1,-96.73C1201.81,-87.76 1259.98,-72 1308,-52 1309.38,-51.42 1310.78,-50.8 1312.18,-50.15"/>
<polygon fill="black" stroke="black" points="1313.94,-53.19 1321.29,-45.56 1310.79,-46.94 1313.94,-53.19"/>
</g>
<!-- 319 -->
<g id="node29" class="node">
<title>319</title>
<ellipse fill="#b9d3ee" stroke="black" cx="1397" cy="-34" rx="16.8" ry="18"/>
<text text-anchor="middle" x="1397" y="-30.3" font-family="Times,serif" font-size="14.00">9</text>
</g>
<!-- 22&#45;&gt;319 -->
<g id="edge27" class="edge">
<title>22&#45;&gt;319</title>
<path fill="none" stroke="black" d="M1165.09,-101.24C1213.49,-95.28 1301.4,-81.21 1371,-52 1372.2,-51.5 1373.41,-50.93 1374.61,-50.33"/>
<polygon fill="black" stroke="black" points="1376.61,-53.22 1383.49,-45.16 1373.09,-47.17 1376.61,-53.22"/>
</g>
<!-- 320 -->
<g id="node30" class="node">
<title>320</title>
<ellipse fill="#b9d3ee" stroke="black" cx="1449" cy="-34" rx="16.8" ry="18"/>
<text text-anchor="middle" x="1449" y="-30.3" font-family="Times,serif" font-size="14.00">1</text>
</g>
<!-- 22&#45;&gt;320 -->
<g id="edge28" class="edge">
<title>22&#45;&gt;320</title>
<path fill="none" stroke="black" d="M1165.11,-103.12C1221.86,-99.16 1334.57,-87.19 1423,-52 1424.21,-51.52 1425.43,-50.97 1426.63,-50.39"/>
<polygon fill="black" stroke="black" points="1428.61,-53.29 1435.53,-45.26 1425.12,-47.22 1428.61,-53.29"/>
</g>
<!-- legend_3 -->
<g id="node32" class="node">
<title>legend_3</title>
<polygon fill="#b9d3ee" stroke="black" points="1704.5,-52 1483.5,-52 1483.5,-16 1704.5,-16 1704.5,-52"/>
<text text-anchor="middle" x="1594" y="-30.3" font-family="Times,serif" font-size="14.00">DT=8 ST=1 Similarity=0.59</text>
</g>
<!-- legend_2&#45;&gt;legend_3 -->
<g id="edge30" class="edge">
<title>legend_2&#45;&gt;legend_3</title>
<path fill="none" stroke="black" d="M1594,-87.7C1594,-79.98 1594,-70.71 1594,-62.11"/>
<polygon fill="black" stroke="black" points="1597.5,-62.1 1594,-52.1 1590.5,-62.1 1597.5,-62.1"/>
</g>
</g>
</svg>
