<?xml version="1.0" encoding="UTF-8" standalone="no"?>
<!DOCTYPE svg PUBLIC "-//W3C//DTD SVG 1.1//EN"
 "http://www.w3.org/Graphics/SVG/1.1/DTD/svg11.dtd">
<!-- Generated by graphviz version 2.43.0 (0)
 -->
<!-- Title: %3 Pages: 1 -->
<svg width="1753pt" height="353pt"
 viewBox="0.00 0.00 1752.90 353.00" xmlns="http://www.w3.org/2000/svg" xmlns:xlink="http://www.w3.org/1999/xlink">
<g id="graph0" class="graph" transform="scale(1 1) rotate(0) translate(4 349)">
<title>%3</title>
<polygon fill="white" stroke="transparent" points="-4,4 -4,-349 1748.9,-349 1748.9,4 -4,4"/>
<text text-anchor="middle" x="872.45" y="-329.8" font-family="Times,serif" font-size="14.00">ConsTree</text>
<text text-anchor="middle" x="872.45" y="-314.8" font-family="Times,serif" font-size="14.00">Tree Quality = 0.625</text>
<g id="clust1" class="cluster">
<title>cluster</title>
<polygon fill="none" stroke="black" points="1500.9,-8 1500.9,-299 1736.9,-299 1736.9,-8 1500.9,-8"/>
<text text-anchor="middle" x="1618.9" y="-283.8" font-family="Times,serif" font-size="14.00">Legend</text>
</g>
<!-- 00 -->
<g id="node1" class="node">
<title>00</title>
<ellipse fill="#b9d3ee" stroke="black" cx="427.9" cy="-250" rx="324" ry="18"/>
<text text-anchor="middle" x="427.9" y="-246.3" font-family="Times,serif" font-size="14.00">1000</text>
</g>
<!-- 10 -->
<g id="node3" class="node">
<title>10</title>
<ellipse fill="#b9d3ee" stroke="black" cx="274.9" cy="-178" rx="108" ry="18"/>
<text text-anchor="middle" x="274.9" y="-174.3" font-family="Times,serif" font-size="14.00">400</text>
</g>
<!-- 00&#45;&gt;10 -->
<g id="edge1" class="edge">
<title>00&#45;&gt;10</title>
<path fill="none" stroke="black" d="M390.86,-232.05C369.25,-222.17 341.86,-209.64 319.12,-199.23"/>
<polygon fill="black" stroke="black" points="320.57,-196.05 310.02,-195.07 317.66,-202.41 320.57,-196.05"/>
</g>
<!-- 11 -->
<g id="node4" class="node">
<title>11</title>
<ellipse fill="#b9d3ee" stroke="black" cx="676.9" cy="-178" rx="180" ry="18"/>
<text text-anchor="middle" x="676.9" y="-174.3" font-family="Times,serif" font-size="14.00">600</text>
</g>
<!-- 00&#45;&gt;11 -->
<g id="edge2" class="edge">
<title>00&#45;&gt;11</title>
<path fill="none" stroke="black" d="M487.54,-232.23C524.26,-221.91 571.41,-208.65 609.48,-197.95"/>
<polygon fill="black" stroke="black" points="610.78,-201.22 619.46,-195.15 608.88,-194.49 610.78,-201.22"/>
</g>
<!-- legend_0 -->
<g id="node2" class="node">
<title>legend_0</title>
<polygon fill="#b9d3ee" stroke="black" points="1729.4,-268 1508.4,-268 1508.4,-232 1729.4,-232 1729.4,-268"/>
<text text-anchor="middle" x="1618.9" y="-246.3" font-family="Times,serif" font-size="14.00">DT=4 ST=4 Similarity=0.38</text>
</g>
<!-- legend_1 -->
<g id="node5" class="node">
<title>legend_1</title>
<polygon fill="#b9d3ee" stroke="black" points="1729.4,-196 1508.4,-196 1508.4,-160 1729.4,-160 1729.4,-196"/>
<text text-anchor="middle" x="1618.9" y="-174.3" font-family="Times,serif" font-size="14.00">DT=6 ST=2 Similarity=0.68</text>
</g>
<!-- legend_0&#45;&gt;legend_1 -->
<g id="edge3" class="edge">
<title>legend_0&#45;&gt;legend_1</title>
<path fill="none" stroke="black" d="M1618.9,-231.7C1618.9,-223.98 1618.9,-214.71 1618.9,-206.11"/>
<polygon fill="black" stroke="black" points="1622.4,-206.1 1618.9,-196.1 1615.4,-206.1 1622.4,-206.1"/>
</g>
<!-- 21 -->
<g id="node7" class="node">
<title>21</title>
<polygon fill="darkseagreen" stroke="black" points="286.9,-124 70.9,-124 70.9,-88 286.9,-88 286.9,-124"/>
<text text-anchor="middle" x="178.9" y="-102.3" font-family="Times,serif" font-size="14.00">400</text>
</g>
<!-- 10&#45;&gt;21 -->
<g id="edge5" class="edge">
<title>10&#45;&gt;21</title>
<path fill="none" stroke="black" d="M251.66,-160.05C239.25,-151.01 223.81,-139.74 210.34,-129.93"/>
<polygon fill="black" stroke="black" points="212.4,-127.1 202.26,-124.03 208.27,-132.75 212.4,-127.1"/>
</g>
<!-- 20 -->
<g id="node6" class="node">
<title>20</title>
<polygon fill="darkseagreen" stroke="black" points="712.9,-124 640.9,-124 640.9,-88 712.9,-88 712.9,-124"/>
<text text-anchor="middle" x="676.9" y="-102.3" font-family="Times,serif" font-size="14.00">200</text>
</g>
<!-- 11&#45;&gt;20 -->
<g id="edge4" class="edge">
<title>11&#45;&gt;20</title>
<path fill="none" stroke="black" d="M676.9,-159.7C676.9,-151.98 676.9,-142.71 676.9,-134.11"/>
<polygon fill="black" stroke="black" points="680.4,-134.1 676.9,-124.1 673.4,-134.1 680.4,-134.1"/>
</g>
<!-- 22 -->
<g id="node8" class="node">
<title>22</title>
<polygon fill="darkseagreen" stroke="black" points="1245.9,-124 1029.9,-124 1029.9,-88 1245.9,-88 1245.9,-124"/>
<text text-anchor="middle" x="1137.9" y="-102.3" font-family="Times,serif" font-size="14.00">400</text>
</g>
<!-- 11&#45;&gt;22 -->
<g id="edge6" class="edge">
<title>11&#45;&gt;22</title>
<path fill="none" stroke="black" d="M771.3,-162.67C843.15,-151.76 942.49,-136.67 1019.63,-124.96"/>
<polygon fill="black" stroke="black" points="1020.52,-128.36 1029.88,-123.4 1019.47,-121.44 1020.52,-128.36"/>
</g>
<!-- legend_2 -->
<g id="node9" class="node">
<title>legend_2</title>
<polygon fill="darkseagreen" stroke="black" points="1724.9,-124 1512.9,-124 1512.9,-88 1724.9,-88 1724.9,-124"/>
<text text-anchor="middle" x="1618.9" y="-102.3" font-family="Times,serif" font-size="14.00">DT=7 ST=1 Similarity=0.8</text>
</g>
<!-- legend_1&#45;&gt;legend_2 -->
<g id="edge7" class="edge">
<title>legend_1&#45;&gt;legend_2</title>
<path fill="none" stroke="black" d="M1618.9,-159.7C1618.9,-151.98 1618.9,-142.71 1618.9,-134.11"/>
<polygon fill="black" stroke="black" points="1622.4,-134.1 1618.9,-124.1 1615.4,-134.1 1622.4,-134.1"/>
</g>
<!-- 31 -->
<g id="node11" class="node">
<title>31</title>
<ellipse fill="#b9d3ee" stroke="black" cx="416.9" cy="-34" rx="16.8" ry="18"/>
<text text-anchor="middle" x="416.9" y="-30.3" font-family="Times,serif" font-size="14.00">1</text>
</g>
<!-- 20&#45;&gt;31 -->
<g id="edge9" class="edge">
<title>20&#45;&gt;31</title>
<path fill="none" stroke="black" d="M640.79,-100.88C593.75,-94.6 509.63,-80.28 442.9,-52 441.7,-51.49 440.49,-50.93 439.29,-50.32"/>
<polygon fill="black" stroke="black" points="440.82,-47.16 430.42,-45.14 437.29,-53.2 440.82,-47.16"/>
</g>
<!-- 33 -->
<g id="node13" class="node">
<title>33</title>
<ellipse fill="#b9d3ee" stroke="black" cx="468.9" cy="-34" rx="16.8" ry="18"/>
<text text-anchor="middle" x="468.9" y="-30.3" font-family="Times,serif" font-size="14.00">2</text>
</g>
<!-- 20&#45;&gt;33 -->
<g id="edge11" class="edge">
<title>20&#45;&gt;33</title>
<path fill="none" stroke="black" d="M640.89,-97.82C603.35,-89.59 543.33,-74.28 494.9,-52 493.71,-51.45 492.52,-50.86 491.33,-50.23"/>
<polygon fill="black" stroke="black" points="492.88,-47.08 482.49,-44.97 489.29,-53.09 492.88,-47.08"/>
</g>
<!-- 35 -->
<g id="node15" class="node">
<title>35</title>
<ellipse fill="#b9d3ee" stroke="black" cx="520.9" cy="-34" rx="16.8" ry="18"/>
<text text-anchor="middle" x="520.9" y="-30.3" font-family="Times,serif" font-size="14.00">3</text>
</g>
<!-- 20&#45;&gt;35 -->
<g id="edge13" class="edge">
<title>20&#45;&gt;35</title>
<path fill="none" stroke="black" d="M640.75,-92.39C614.19,-82.63 577.55,-68.08 546.9,-52 545.74,-51.39 544.57,-50.75 543.4,-50.08"/>
<polygon fill="black" stroke="black" points="544.98,-46.95 534.63,-44.68 541.31,-52.91 544.98,-46.95"/>
</g>
<!-- 38 -->
<g id="node18" class="node">
<title>38</title>
<ellipse fill="#b9d3ee" stroke="black" cx="572.9" cy="-34" rx="16.8" ry="18"/>
<text text-anchor="middle" x="572.9" y="-30.3" font-family="Times,serif" font-size="14.00">4</text>
</g>
<!-- 20&#45;&gt;38 -->
<g id="edge16" class="edge">
<title>20&#45;&gt;38</title>
<path fill="none" stroke="black" d="M651.46,-87.88C634.31,-76.33 611.89,-61.24 595.39,-50.14"/>
<polygon fill="black" stroke="black" points="597.16,-47.11 586.91,-44.43 593.25,-52.92 597.16,-47.11"/>
</g>
<!-- 39 -->
<g id="node19" class="node">
<title>39</title>
<ellipse fill="#b9d3ee" stroke="black" cx="624.9" cy="-34" rx="16.8" ry="18"/>
<text text-anchor="middle" x="624.9" y="-30.3" font-family="Times,serif" font-size="14.00">5</text>
</g>
<!-- 20&#45;&gt;39 -->
<g id="edge17" class="edge">
<title>20&#45;&gt;39</title>
<path fill="none" stroke="black" d="M664.04,-87.7C657.16,-78.43 648.6,-66.91 641.25,-57.01"/>
<polygon fill="black" stroke="black" points="643.94,-54.76 635.17,-48.82 638.32,-58.94 643.94,-54.76"/>
</g>
<!-- 313 -->
<g id="node23" class="node">
<title>313</title>
<ellipse fill="#b9d3ee" stroke="black" cx="676.9" cy="-34" rx="16.8" ry="18"/>
<text text-anchor="middle" x="676.9" y="-30.3" font-family="Times,serif" font-size="14.00">7</text>
</g>
<!-- 20&#45;&gt;313 -->
<g id="edge21" class="edge">
<title>20&#45;&gt;313</title>
<path fill="none" stroke="black" d="M676.9,-87.7C676.9,-79.98 676.9,-70.71 676.9,-62.11"/>
<polygon fill="black" stroke="black" points="680.4,-62.1 676.9,-52.1 673.4,-62.1 680.4,-62.1"/>
</g>
<!-- 314 -->
<g id="node24" class="node">
<title>314</title>
<ellipse fill="#b9d3ee" stroke="black" cx="728.9" cy="-34" rx="16.8" ry="18"/>
<text text-anchor="middle" x="728.9" y="-30.3" font-family="Times,serif" font-size="14.00">9</text>
</g>
<!-- 20&#45;&gt;314 -->
<g id="edge22" class="edge">
<title>20&#45;&gt;314</title>
<path fill="none" stroke="black" d="M689.75,-87.7C696.64,-78.43 705.19,-66.91 712.55,-57.01"/>
<polygon fill="black" stroke="black" points="715.48,-58.94 718.63,-48.82 709.86,-54.76 715.48,-58.94"/>
</g>
<!-- 316 -->
<g id="node26" class="node">
<title>316</title>
<ellipse fill="#b9d3ee" stroke="black" cx="786.9" cy="-34" rx="23" ry="18"/>
<text text-anchor="middle" x="786.9" y="-30.3" font-family="Times,serif" font-size="14.00">20</text>
</g>
<!-- 20&#45;&gt;316 -->
<g id="edge24" class="edge">
<title>20&#45;&gt;316</title>
<path fill="none" stroke="black" d="M703.81,-87.88C721.25,-76.78 743.84,-62.4 761.06,-51.44"/>
<polygon fill="black" stroke="black" points="762.97,-54.38 769.52,-46.06 759.21,-48.47 762.97,-54.38"/>
</g>
<!-- 317 -->
<g id="node27" class="node">
<title>317</title>
<ellipse fill="#b9d3ee" stroke="black" cx="849.9" cy="-34" rx="23" ry="18"/>
<text text-anchor="middle" x="849.9" y="-30.3" font-family="Times,serif" font-size="14.00">26</text>
</g>
<!-- 20&#45;&gt;317 -->
<g id="edge25" class="edge">
<title>20&#45;&gt;317</title>
<path fill="none" stroke="black" d="M713.08,-93.12C742.13,-83.19 783.73,-68.1 818.9,-52 820.26,-51.38 821.64,-50.72 823.03,-50.04"/>
<polygon fill="black" stroke="black" points="824.83,-53.05 832.09,-45.34 821.6,-46.83 824.83,-53.05"/>
</g>
<!-- 318 -->
<g id="node28" class="node">
<title>318</title>
<ellipse fill="#b9d3ee" stroke="black" cx="912.9" cy="-34" rx="23" ry="18"/>
<text text-anchor="middle" x="912.9" y="-30.3" font-family="Times,serif" font-size="14.00">29</text>
</g>
<!-- 20&#45;&gt;318 -->
<g id="edge26" class="edge">
<title>20&#45;&gt;318</title>
<path fill="none" stroke="black" d="M712.93,-98.51C754.56,-90.37 824.66,-74.68 881.9,-52 883.29,-51.45 884.7,-50.85 886.1,-50.21"/>
<polygon fill="black" stroke="black" points="887.84,-53.26 895.23,-45.67 884.72,-46.99 887.84,-53.26"/>
</g>
<!-- 319 -->
<g id="node29" class="node">
<title>319</title>
<ellipse fill="#b9d3ee" stroke="black" cx="975.9" cy="-34" rx="23" ry="18"/>
<text text-anchor="middle" x="975.9" y="-30.3" font-family="Times,serif" font-size="14.00">94</text>
</g>
<!-- 20&#45;&gt;319 -->
<g id="edge27" class="edge">
<title>20&#45;&gt;319</title>
<path fill="none" stroke="black" d="M712.95,-101.42C765.31,-95.43 864.88,-81.07 944.9,-52 946.3,-51.49 947.72,-50.92 949.14,-50.31"/>
<polygon fill="black" stroke="black" points="950.84,-53.38 958.31,-45.86 947.78,-47.08 950.84,-53.38"/>
</g>
<!-- 36 -->
<g id="node16" class="node">
<title>36</title>
<ellipse fill="#b9d3ee" stroke="black" cx="16.9" cy="-34" rx="16.8" ry="18"/>
<text text-anchor="middle" x="16.9" y="-30.3" font-family="Times,serif" font-size="14.00">3</text>
</g>
<!-- 21&#45;&gt;36 -->
<g id="edge14" class="edge">
<title>21&#45;&gt;36</title>
<path fill="none" stroke="black" d="M127.75,-87.92C101.77,-78.54 70.05,-65.97 42.9,-52 41.74,-51.4 40.57,-50.77 39.39,-50.1"/>
<polygon fill="black" stroke="black" points="40.97,-46.96 30.61,-44.73 37.31,-52.93 40.97,-46.96"/>
</g>
<!-- 37 -->
<g id="node17" class="node">
<title>37</title>
<ellipse fill="#b9d3ee" stroke="black" cx="68.9" cy="-34" rx="16.8" ry="18"/>
<text text-anchor="middle" x="68.9" y="-30.3" font-family="Times,serif" font-size="14.00">4</text>
</g>
<!-- 21&#45;&gt;37 -->
<g id="edge15" class="edge">
<title>21&#45;&gt;37</title>
<path fill="none" stroke="black" d="M151.59,-87.93C135.13,-77.59 113.76,-64.12 94.9,-52 93.8,-51.3 92.68,-50.57 91.55,-49.84"/>
<polygon fill="black" stroke="black" points="93.2,-46.74 82.9,-44.22 89.38,-52.6 93.2,-46.74"/>
</g>
<!-- 310 -->
<g id="node20" class="node">
<title>310</title>
<ellipse fill="#b9d3ee" stroke="black" cx="120.9" cy="-34" rx="16.8" ry="18"/>
<text text-anchor="middle" x="120.9" y="-30.3" font-family="Times,serif" font-size="14.00">5</text>
</g>
<!-- 21&#45;&gt;310 -->
<g id="edge18" class="edge">
<title>21&#45;&gt;310</title>
<path fill="none" stroke="black" d="M164.56,-87.7C156.59,-78.08 146.62,-66.05 138.22,-55.91"/>
<polygon fill="black" stroke="black" points="140.69,-53.4 131.61,-47.93 135.3,-57.86 140.69,-53.4"/>
</g>
<!-- 315 -->
<g id="node25" class="node">
<title>315</title>
<ellipse fill="#b9d3ee" stroke="black" cx="178.9" cy="-34" rx="23" ry="18"/>
<text text-anchor="middle" x="178.9" y="-30.3" font-family="Times,serif" font-size="14.00">18</text>
</g>
<!-- 21&#45;&gt;315 -->
<g id="edge23" class="edge">
<title>21&#45;&gt;315</title>
<path fill="none" stroke="black" d="M178.9,-87.7C178.9,-79.98 178.9,-70.71 178.9,-62.11"/>
<polygon fill="black" stroke="black" points="182.4,-62.1 178.9,-52.1 175.4,-62.1 182.4,-62.1"/>
</g>
<!-- 320 -->
<g id="node30" class="node">
<title>320</title>
<ellipse fill="#b9d3ee" stroke="black" cx="255.9" cy="-34" rx="36" ry="18"/>
<text text-anchor="middle" x="255.9" y="-30.3" font-family="Times,serif" font-size="14.00">180</text>
</g>
<!-- 21&#45;&gt;320 -->
<g id="edge28" class="edge">
<title>21&#45;&gt;320</title>
<path fill="none" stroke="black" d="M197.93,-87.7C208.11,-78.44 220.75,-66.95 231.63,-57.06"/>
<polygon fill="black" stroke="black" points="234.13,-59.52 239.18,-50.2 229.42,-54.34 234.13,-59.52"/>
</g>
<!-- 321 -->
<g id="node31" class="node">
<title>321</title>
<ellipse fill="#b9d3ee" stroke="black" cx="345.9" cy="-34" rx="36" ry="18"/>
<text text-anchor="middle" x="345.9" y="-30.3" font-family="Times,serif" font-size="14.00">190</text>
</g>
<!-- 21&#45;&gt;321 -->
<g id="edge29" class="edge">
<title>21&#45;&gt;321</title>
<path fill="none" stroke="black" d="M219.75,-87.88C247.27,-76.34 283.24,-61.26 309.73,-50.16"/>
<polygon fill="black" stroke="black" points="311.15,-53.36 319.02,-46.27 308.45,-46.9 311.15,-53.36"/>
</g>
<!-- 30 -->
<g id="node10" class="node">
<title>30</title>
<ellipse fill="#b9d3ee" stroke="black" cx="1033.9" cy="-34" rx="16.8" ry="18"/>
<text text-anchor="middle" x="1033.9" y="-30.3" font-family="Times,serif" font-size="14.00">1</text>
</g>
<!-- 22&#45;&gt;30 -->
<g id="edge8" class="edge">
<title>22&#45;&gt;30</title>
<path fill="none" stroke="black" d="M1112.46,-87.88C1095.31,-76.33 1072.89,-61.24 1056.39,-50.14"/>
<polygon fill="black" stroke="black" points="1058.16,-47.11 1047.91,-44.43 1054.25,-52.92 1058.16,-47.11"/>
</g>
<!-- 32 -->
<g id="node12" class="node">
<title>32</title>
<ellipse fill="#b9d3ee" stroke="black" cx="1085.9" cy="-34" rx="16.8" ry="18"/>
<text text-anchor="middle" x="1085.9" y="-30.3" font-family="Times,serif" font-size="14.00">1</text>
</g>
<!-- 22&#45;&gt;32 -->
<g id="edge10" class="edge">
<title>22&#45;&gt;32</title>
<path fill="none" stroke="black" d="M1125.04,-87.7C1118.16,-78.43 1109.6,-66.91 1102.25,-57.01"/>
<polygon fill="black" stroke="black" points="1104.94,-54.76 1096.17,-48.82 1099.32,-58.94 1104.94,-54.76"/>
</g>
<!-- 34 -->
<g id="node14" class="node">
<title>34</title>
<ellipse fill="#b9d3ee" stroke="black" cx="1137.9" cy="-34" rx="16.8" ry="18"/>
<text text-anchor="middle" x="1137.9" y="-30.3" font-family="Times,serif" font-size="14.00">3</text>
</g>
<!-- 22&#45;&gt;34 -->
<g id="edge12" class="edge">
<title>22&#45;&gt;34</title>
<path fill="none" stroke="black" d="M1137.9,-87.7C1137.9,-79.98 1137.9,-70.71 1137.9,-62.11"/>
<polygon fill="black" stroke="black" points="1141.4,-62.1 1137.9,-52.1 1134.4,-62.1 1141.4,-62.1"/>
</g>
<!-- 311 -->
<g id="node21" class="node">
<title>311</title>
<ellipse fill="#b9d3ee" stroke="black" cx="1189.9" cy="-34" rx="16.8" ry="18"/>
<text text-anchor="middle" x="1189.9" y="-30.3" font-family="Times,serif" font-size="14.00">5</text>
</g>
<!-- 22&#45;&gt;311 -->
<g id="edge19" class="edge">
<title>22&#45;&gt;311</title>
<path fill="none" stroke="black" d="M1150.75,-87.7C1157.64,-78.43 1166.19,-66.91 1173.55,-57.01"/>
<polygon fill="black" stroke="black" points="1176.48,-58.94 1179.63,-48.82 1170.86,-54.76 1176.48,-58.94"/>
</g>
<!-- 312 -->
<g id="node22" class="node">
<title>312</title>
<ellipse fill="#b9d3ee" stroke="black" cx="1241.9" cy="-34" rx="16.8" ry="18"/>
<text text-anchor="middle" x="1241.9" y="-30.3" font-family="Times,serif" font-size="14.00">7</text>
</g>
<!-- 22&#45;&gt;312 -->
<g id="edge20" class="edge">
<title>22&#45;&gt;312</title>
<path fill="none" stroke="black" d="M1163.34,-87.88C1180.49,-76.33 1202.91,-61.24 1219.4,-50.14"/>
<polygon fill="black" stroke="black" points="1221.55,-52.92 1227.89,-44.43 1217.64,-47.11 1221.55,-52.92"/>
</g>
<!-- 322 -->
<g id="node32" class="node">
<title>322</title>
<ellipse fill="#b9d3ee" stroke="black" cx="1384.9" cy="-34" rx="108" ry="18"/>
<text text-anchor="middle" x="1384.9" y="-30.3" font-family="Times,serif" font-size="14.00">383</text>
</g>
<!-- 22&#45;&gt;322 -->
<g id="edge30" class="edge">
<title>22&#45;&gt;322</title>
<path fill="none" stroke="black" d="M1198.01,-87.97C1235.76,-77.27 1284.35,-63.49 1322.53,-52.68"/>
<polygon fill="black" stroke="black" points="1323.83,-55.94 1332.5,-49.85 1321.92,-49.21 1323.83,-55.94"/>
</g>
<!-- legend_3 -->
<g id="node33" class="node">
<title>legend_3</title>
<polygon fill="#b9d3ee" stroke="black" points="1724.9,-52 1512.9,-52 1512.9,-16 1724.9,-16 1724.9,-52"/>
<text text-anchor="middle" x="1618.9" y="-30.3" font-family="Times,serif" font-size="14.00">DT=8 ST=1 Similarity=0.6</text>
</g>
<!-- legend_2&#45;&gt;legend_3 -->
<g id="edge31" class="edge">
<title>legend_2&#45;&gt;legend_3</title>
<path fill="none" stroke="black" d="M1618.9,-87.7C1618.9,-79.98 1618.9,-70.71 1618.9,-62.11"/>
<polygon fill="black" stroke="black" points="1622.4,-62.1 1618.9,-52.1 1615.4,-62.1 1622.4,-62.1"/>
</g>
</g>
</svg>
