<?xml version="1.0" encoding="UTF-8" standalone="no"?>
<!DOCTYPE svg PUBLIC "-//W3C//DTD SVG 1.1//EN"
 "http://www.w3.org/Graphics/SVG/1.1/DTD/svg11.dtd">
<!-- Generated by graphviz version 2.43.0 (0)
 -->
<!-- Title: %3 Pages: 1 -->
<svg width="1445pt" height="497pt"
 viewBox="0.00 0.00 1444.90 497.00" xmlns="http://www.w3.org/2000/svg" xmlns:xlink="http://www.w3.org/1999/xlink">
<g id="graph0" class="graph" transform="scale(1 1) rotate(0) translate(4 493)">
<title>%3</title>
<polygon fill="white" stroke="transparent" points="-4,4 -4,-493 1440.9,-493 1440.9,4 -4,4"/>
<text text-anchor="middle" x="718.45" y="-473.8" font-family="Times,serif" font-size="14.00">ConsTree</text>
<text text-anchor="middle" x="718.45" y="-458.8" font-family="Times,serif" font-size="14.00">Tree Quality = 0.8571428571428572</text>
<g id="clust1" class="cluster">
<title>cluster</title>
<polygon fill="none" stroke="black" points="1192.9,-8 1192.9,-443 1428.9,-443 1428.9,-8 1192.9,-8"/>
<text text-anchor="middle" x="1310.9" y="-427.8" font-family="Times,serif" font-size="14.00">Legend</text>
</g>
<!-- 00 -->
<g id="node1" class="node">
<title>00</title>
<ellipse fill="#b9d3ee" stroke="black" cx="460.9" cy="-394" rx="324" ry="18"/>
<text text-anchor="middle" x="460.9" y="-390.3" font-family="Times,serif" font-size="14.00">1000</text>
</g>
<!-- 10 -->
<g id="node3" class="node">
<title>10</title>
<polygon fill="darkseagreen" stroke="black" points="451.9,-340 163.9,-340 163.9,-304 451.9,-304 451.9,-340"/>
<text text-anchor="middle" x="307.9" y="-318.3" font-family="Times,serif" font-size="14.00">469</text>
</g>
<!-- 00&#45;&gt;10 -->
<g id="edge1" class="edge">
<title>00&#45;&gt;10</title>
<path fill="none" stroke="black" d="M423.86,-376.05C402.97,-366.5 376.67,-354.46 354.4,-344.27"/>
<polygon fill="black" stroke="black" points="355.67,-341.01 345.12,-340.03 352.76,-347.37 355.67,-341.01"/>
</g>
<!-- 11 -->
<g id="node4" class="node">
<title>11</title>
<polygon fill="darkseagreen" stroke="black" points="757.9,-340 469.9,-340 469.9,-304 757.9,-304 757.9,-340"/>
<text text-anchor="middle" x="613.9" y="-318.3" font-family="Times,serif" font-size="14.00">531</text>
</g>
<!-- 00&#45;&gt;11 -->
<g id="edge2" class="edge">
<title>00&#45;&gt;11</title>
<path fill="none" stroke="black" d="M497.94,-376.05C518.83,-366.5 545.13,-354.46 567.4,-344.27"/>
<polygon fill="black" stroke="black" points="569.03,-347.37 576.67,-340.03 566.12,-341.01 569.03,-347.37"/>
</g>
<!-- legend_0 -->
<g id="node2" class="node">
<title>legend_0</title>
<polygon fill="#b9d3ee" stroke="black" points="1421.4,-412 1200.4,-412 1200.4,-376 1421.4,-376 1421.4,-412"/>
<text text-anchor="middle" x="1310.9" y="-390.3" font-family="Times,serif" font-size="14.00">DT=2 ST=2 Similarity=0.36</text>
</g>
<!-- legend_1 -->
<g id="node5" class="node">
<title>legend_1</title>
<polygon fill="darkseagreen" stroke="black" points="1421.4,-340 1200.4,-340 1200.4,-304 1421.4,-304 1421.4,-340"/>
<text text-anchor="middle" x="1310.9" y="-318.3" font-family="Times,serif" font-size="14.00">DT=3 ST=1 Similarity=0.67</text>
</g>
<!-- legend_0&#45;&gt;legend_1 -->
<g id="edge3" class="edge">
<title>legend_0&#45;&gt;legend_1</title>
<path fill="none" stroke="black" d="M1310.9,-375.7C1310.9,-367.98 1310.9,-358.71 1310.9,-350.11"/>
<polygon fill="black" stroke="black" points="1314.4,-350.1 1310.9,-340.1 1307.4,-350.1 1314.4,-350.1"/>
</g>
<!-- 20 -->
<g id="node6" class="node">
<title>20</title>
<ellipse fill="#b9d3ee" stroke="black" cx="613.9" cy="-250" rx="108" ry="18"/>
<text text-anchor="middle" x="613.9" y="-246.3" font-family="Times,serif" font-size="14.00">401</text>
</g>
<!-- 10&#45;&gt;20 -->
<g id="edge4" class="edge">
<title>10&#45;&gt;20</title>
<path fill="none" stroke="black" d="M382.36,-303.97C431.25,-292.78 494.81,-278.24 542.97,-267.23"/>
<polygon fill="black" stroke="black" points="544.03,-270.57 553,-264.93 542.47,-263.75 544.03,-270.57"/>
</g>
<!-- 21 -->
<g id="node7" class="node">
<title>21</title>
<ellipse fill="#b9d3ee" stroke="black" cx="307.9" cy="-250" rx="180" ry="18"/>
<text text-anchor="middle" x="307.9" y="-246.3" font-family="Times,serif" font-size="14.00">599</text>
</g>
<!-- 10&#45;&gt;21 -->
<g id="edge6" class="edge">
<title>10&#45;&gt;21</title>
<path fill="none" stroke="black" d="M307.9,-303.7C307.9,-295.98 307.9,-286.71 307.9,-278.11"/>
<polygon fill="black" stroke="black" points="311.4,-278.1 307.9,-268.1 304.4,-278.1 311.4,-278.1"/>
</g>
<!-- 11&#45;&gt;20 -->
<g id="edge5" class="edge">
<title>11&#45;&gt;20</title>
<path fill="none" stroke="black" d="M613.9,-303.7C613.9,-295.98 613.9,-286.71 613.9,-278.11"/>
<polygon fill="black" stroke="black" points="617.4,-278.1 613.9,-268.1 610.4,-278.1 617.4,-278.1"/>
</g>
<!-- 11&#45;&gt;21 -->
<g id="edge7" class="edge">
<title>11&#45;&gt;21</title>
<path fill="none" stroke="black" d="M539.43,-303.97C493.02,-293.35 433.39,-279.71 386.26,-268.93"/>
<polygon fill="black" stroke="black" points="386.93,-265.49 376.4,-266.67 385.37,-272.31 386.93,-265.49"/>
</g>
<!-- legend_2 -->
<g id="node8" class="node">
<title>legend_2</title>
<polygon fill="#b9d3ee" stroke="black" points="1421.4,-268 1200.4,-268 1200.4,-232 1421.4,-232 1421.4,-268"/>
<text text-anchor="middle" x="1310.9" y="-246.3" font-family="Times,serif" font-size="14.00">DT=4 ST=1 Similarity=0.67</text>
</g>
<!-- legend_1&#45;&gt;legend_2 -->
<g id="edge8" class="edge">
<title>legend_1&#45;&gt;legend_2</title>
<path fill="none" stroke="black" d="M1310.9,-303.7C1310.9,-295.98 1310.9,-286.71 1310.9,-278.11"/>
<polygon fill="black" stroke="black" points="1314.4,-278.1 1310.9,-268.1 1307.4,-278.1 1314.4,-278.1"/>
</g>
<!-- 30 -->
<g id="node9" class="node">
<title>30</title>
<ellipse fill="#b9d3ee" stroke="black" cx="613.9" cy="-178" rx="252" ry="18"/>
<text text-anchor="middle" x="613.9" y="-174.3" font-family="Times,serif" font-size="14.00">800</text>
</g>
<!-- 20&#45;&gt;30 -->
<g id="edge9" class="edge">
<title>20&#45;&gt;30</title>
<path fill="none" stroke="black" d="M613.9,-231.7C613.9,-223.98 613.9,-214.71 613.9,-206.11"/>
<polygon fill="black" stroke="black" points="617.4,-206.1 613.9,-196.1 610.4,-206.1 617.4,-206.1"/>
</g>
<!-- 21&#45;&gt;30 -->
<g id="edge10" class="edge">
<title>21&#45;&gt;30</title>
<path fill="none" stroke="black" d="M376.57,-233.29C422.81,-222.71 484,-208.72 532.66,-197.58"/>
<polygon fill="black" stroke="black" points="533.56,-200.97 542.53,-195.33 532,-194.14 533.56,-200.97"/>
</g>
<!-- 31 -->
<g id="node10" class="node">
<title>31</title>
<ellipse fill="#b9d3ee" stroke="black" cx="307.9" cy="-178" rx="36" ry="18"/>
<text text-anchor="middle" x="307.9" y="-174.3" font-family="Times,serif" font-size="14.00">200</text>
</g>
<!-- 21&#45;&gt;31 -->
<g id="edge11" class="edge">
<title>21&#45;&gt;31</title>
<path fill="none" stroke="black" d="M307.9,-231.7C307.9,-223.98 307.9,-214.71 307.9,-206.11"/>
<polygon fill="black" stroke="black" points="311.4,-206.1 307.9,-196.1 304.4,-206.1 311.4,-206.1"/>
</g>
<!-- legend_3 -->
<g id="node11" class="node">
<title>legend_3</title>
<polygon fill="#b9d3ee" stroke="black" points="1421.4,-196 1200.4,-196 1200.4,-160 1421.4,-160 1421.4,-196"/>
<text text-anchor="middle" x="1310.9" y="-174.3" font-family="Times,serif" font-size="14.00">DT=5 ST=1 Similarity=0.46</text>
</g>
<!-- legend_2&#45;&gt;legend_3 -->
<g id="edge12" class="edge">
<title>legend_2&#45;&gt;legend_3</title>
<path fill="none" stroke="black" d="M1310.9,-231.7C1310.9,-223.98 1310.9,-214.71 1310.9,-206.11"/>
<polygon fill="black" stroke="black" points="1314.4,-206.1 1310.9,-196.1 1307.4,-206.1 1314.4,-206.1"/>
</g>
<!-- 40 -->
<g id="node12" class="node">
<title>40</title>
<ellipse fill="#b9d3ee" stroke="black" cx="420.9" cy="-106" rx="72" ry="18"/>
<text text-anchor="middle" x="420.9" y="-102.3" font-family="Times,serif" font-size="14.00">305</text>
</g>
<!-- 30&#45;&gt;40 -->
<g id="edge13" class="edge">
<title>30&#45;&gt;40</title>
<path fill="none" stroke="black" d="M567.67,-160.23C537.98,-149.47 499.49,-135.51 469.38,-124.58"/>
<polygon fill="black" stroke="black" points="470.51,-121.27 459.92,-121.15 468.12,-127.85 470.51,-121.27"/>
</g>
<!-- 41 -->
<g id="node13" class="node">
<title>41</title>
<ellipse fill="#b9d3ee" stroke="black" cx="613.9" cy="-106" rx="36" ry="18"/>
<text text-anchor="middle" x="613.9" y="-102.3" font-family="Times,serif" font-size="14.00">192</text>
</g>
<!-- 30&#45;&gt;41 -->
<g id="edge15" class="edge">
<title>30&#45;&gt;41</title>
<path fill="none" stroke="black" d="M613.9,-159.7C613.9,-151.98 613.9,-142.71 613.9,-134.11"/>
<polygon fill="black" stroke="black" points="617.4,-134.1 613.9,-124.1 610.4,-134.1 617.4,-134.1"/>
</g>
<!-- 42 -->
<g id="node14" class="node">
<title>42</title>
<ellipse fill="#b9d3ee" stroke="black" cx="918.9" cy="-106" rx="108" ry="18"/>
<text text-anchor="middle" x="918.9" y="-102.3" font-family="Times,serif" font-size="14.00">400</text>
</g>
<!-- 30&#45;&gt;42 -->
<g id="edge16" class="edge">
<title>30&#45;&gt;42</title>
<path fill="none" stroke="black" d="M685.02,-160.68C734.18,-149.39 799.29,-134.45 848.33,-123.2"/>
<polygon fill="black" stroke="black" points="849.26,-126.57 858.22,-120.93 847.69,-119.75 849.26,-126.57"/>
</g>
<!-- 31&#45;&gt;40 -->
<g id="edge14" class="edge">
<title>31&#45;&gt;40</title>
<path fill="none" stroke="black" d="M329.69,-163.5C345.78,-153.53 368.01,-139.76 386.49,-128.31"/>
<polygon fill="black" stroke="black" points="388.56,-131.15 395.22,-122.91 384.88,-125.2 388.56,-131.15"/>
</g>
<!-- 43 -->
<g id="node15" class="node">
<title>43</title>
<ellipse fill="#b9d3ee" stroke="black" cx="195.9" cy="-106" rx="28.7" ry="18"/>
<text text-anchor="middle" x="195.9" y="-102.3" font-family="Times,serif" font-size="14.00">103</text>
</g>
<!-- 31&#45;&gt;43 -->
<g id="edge17" class="edge">
<title>31&#45;&gt;43</title>
<path fill="none" stroke="black" d="M286.3,-163.5C268.63,-152.46 243.5,-136.75 224.22,-124.7"/>
<polygon fill="black" stroke="black" points="225.89,-121.62 215.55,-119.28 222.18,-127.55 225.89,-121.62"/>
</g>
<!-- legend_4 -->
<g id="node16" class="node">
<title>legend_4</title>
<polygon fill="#b9d3ee" stroke="black" points="1421.4,-124 1200.4,-124 1200.4,-88 1421.4,-88 1421.4,-124"/>
<text text-anchor="middle" x="1310.9" y="-102.3" font-family="Times,serif" font-size="14.00">DT=6 ST=1 Similarity=0.62</text>
</g>
<!-- legend_3&#45;&gt;legend_4 -->
<g id="edge18" class="edge">
<title>legend_3&#45;&gt;legend_4</title>
<path fill="none" stroke="black" d="M1310.9,-159.7C1310.9,-151.98 1310.9,-142.71 1310.9,-134.11"/>
<polygon fill="black" stroke="black" points="1314.4,-134.1 1310.9,-124.1 1307.4,-134.1 1314.4,-134.1"/>
</g>
<!-- 54 -->
<g id="node21" class="node">
<title>54</title>
<ellipse fill="#b9d3ee" stroke="black" cx="382.9" cy="-34" rx="36" ry="18"/>
<text text-anchor="middle" x="382.9" y="-30.3" font-family="Times,serif" font-size="14.00">208</text>
</g>
<!-- 40&#45;&gt;54 -->
<g id="edge23" class="edge">
<title>40&#45;&gt;54</title>
<path fill="none" stroke="black" d="M411.7,-88.05C407.27,-79.89 401.85,-69.91 396.92,-60.82"/>
<polygon fill="black" stroke="black" points="399.86,-58.91 392.01,-51.79 393.71,-62.25 399.86,-58.91"/>
</g>
<!-- 510 -->
<g id="node27" class="node">
<title>510</title>
<ellipse fill="#b9d3ee" stroke="black" cx="459.9" cy="-34" rx="23" ry="18"/>
<text text-anchor="middle" x="459.9" y="-30.3" font-family="Times,serif" font-size="14.00">97</text>
</g>
<!-- 40&#45;&gt;510 -->
<g id="edge29" class="edge">
<title>40&#45;&gt;510</title>
<path fill="none" stroke="black" d="M430.34,-88.05C435.07,-79.56 440.9,-69.11 446.12,-59.73"/>
<polygon fill="black" stroke="black" points="449.27,-61.27 451.08,-50.83 443.15,-57.86 449.27,-61.27"/>
</g>
<!-- 51 -->
<g id="node18" class="node">
<title>51</title>
<ellipse fill="#b9d3ee" stroke="black" cx="671.9" cy="-34" rx="16.8" ry="18"/>
<text text-anchor="middle" x="671.9" y="-30.3" font-family="Times,serif" font-size="14.00">7</text>
</g>
<!-- 41&#45;&gt;51 -->
<g id="edge20" class="edge">
<title>41&#45;&gt;51</title>
<path fill="none" stroke="black" d="M627.06,-89.12C635.18,-79.31 645.7,-66.62 654.5,-56"/>
<polygon fill="black" stroke="black" points="657.43,-57.94 661.12,-48.01 652.04,-53.48 657.43,-57.94"/>
</g>
<!-- 52 -->
<g id="node19" class="node">
<title>52</title>
<ellipse fill="#b9d3ee" stroke="black" cx="536.9" cy="-34" rx="36" ry="18"/>
<text text-anchor="middle" x="536.9" y="-30.3" font-family="Times,serif" font-size="14.00">172</text>
</g>
<!-- 41&#45;&gt;52 -->
<g id="edge21" class="edge">
<title>41&#45;&gt;52</title>
<path fill="none" stroke="black" d="M597.19,-89.81C586.7,-80.27 572.98,-67.8 561.29,-57.17"/>
<polygon fill="black" stroke="black" points="563.33,-54.3 553.57,-50.16 558.62,-59.48 563.33,-54.3"/>
</g>
<!-- 53 -->
<g id="node20" class="node">
<title>53</title>
<ellipse fill="#b9d3ee" stroke="black" cx="613.9" cy="-34" rx="23" ry="18"/>
<text text-anchor="middle" x="613.9" y="-30.3" font-family="Times,serif" font-size="14.00">13</text>
</g>
<!-- 41&#45;&gt;53 -->
<g id="edge22" class="edge">
<title>41&#45;&gt;53</title>
<path fill="none" stroke="black" d="M613.9,-87.7C613.9,-79.98 613.9,-70.71 613.9,-62.11"/>
<polygon fill="black" stroke="black" points="617.4,-62.1 613.9,-52.1 610.4,-62.1 617.4,-62.1"/>
</g>
<!-- 50 -->
<g id="node17" class="node">
<title>50</title>
<ellipse fill="#b9d3ee" stroke="black" cx="918.9" cy="-34" rx="108" ry="18"/>
<text text-anchor="middle" x="918.9" y="-30.3" font-family="Times,serif" font-size="14.00">383</text>
</g>
<!-- 42&#45;&gt;50 -->
<g id="edge19" class="edge">
<title>42&#45;&gt;50</title>
<path fill="none" stroke="black" d="M918.9,-87.7C918.9,-79.98 918.9,-70.71 918.9,-62.11"/>
<polygon fill="black" stroke="black" points="922.4,-62.1 918.9,-52.1 915.4,-62.1 922.4,-62.1"/>
</g>
<!-- 55 -->
<g id="node22" class="node">
<title>55</title>
<ellipse fill="#b9d3ee" stroke="black" cx="1061.9" cy="-34" rx="16.8" ry="18"/>
<text text-anchor="middle" x="1061.9" y="-30.3" font-family="Times,serif" font-size="14.00">5</text>
</g>
<!-- 42&#45;&gt;55 -->
<g id="edge24" class="edge">
<title>42&#45;&gt;55</title>
<path fill="none" stroke="black" d="M957.83,-89.15C980.94,-79.3 1010.59,-65.9 1035.9,-52 1037.04,-51.37 1038.2,-50.71 1039.36,-50.03"/>
<polygon fill="black" stroke="black" points="1041.47,-52.84 1048.11,-44.58 1037.77,-46.9 1041.47,-52.84"/>
</g>
<!-- 56 -->
<g id="node23" class="node">
<title>56</title>
<ellipse fill="#b9d3ee" stroke="black" cx="1113.9" cy="-34" rx="16.8" ry="18"/>
<text text-anchor="middle" x="1113.9" y="-30.3" font-family="Times,serif" font-size="14.00">7</text>
</g>
<!-- 42&#45;&gt;56 -->
<g id="edge25" class="edge">
<title>42&#45;&gt;56</title>
<path fill="none" stroke="black" d="M977.89,-90.79C1011.05,-81.76 1052.73,-68.62 1087.9,-52 1089.08,-51.44 1090.27,-50.84 1091.45,-50.2"/>
<polygon fill="black" stroke="black" points="1093.5,-53.06 1100.28,-44.91 1089.9,-47.05 1093.5,-53.06"/>
</g>
<!-- 57 -->
<g id="node24" class="node">
<title>57</title>
<ellipse fill="#b9d3ee" stroke="black" cx="1165.9" cy="-34" rx="16.8" ry="18"/>
<text text-anchor="middle" x="1165.9" y="-30.3" font-family="Times,serif" font-size="14.00">3</text>
</g>
<!-- 42&#45;&gt;57 -->
<g id="edge26" class="edge">
<title>42&#45;&gt;57</title>
<path fill="none" stroke="black" d="M995.64,-93.31C1039.14,-85.05 1093.89,-71.85 1139.9,-52 1141.1,-51.48 1142.3,-50.91 1143.5,-50.3"/>
<polygon fill="black" stroke="black" points="1145.51,-53.18 1152.36,-45.1 1141.97,-47.14 1145.51,-53.18"/>
</g>
<!-- 58 -->
<g id="node25" class="node">
<title>58</title>
<ellipse fill="#b9d3ee" stroke="black" cx="723.9" cy="-34" rx="16.8" ry="18"/>
<text text-anchor="middle" x="723.9" y="-30.3" font-family="Times,serif" font-size="14.00">1</text>
</g>
<!-- 42&#45;&gt;58 -->
<g id="edge27" class="edge">
<title>42&#45;&gt;58</title>
<path fill="none" stroke="black" d="M859.91,-90.79C826.74,-81.76 785.07,-68.62 749.9,-52 748.72,-51.44 747.53,-50.84 746.34,-50.2"/>
<polygon fill="black" stroke="black" points="747.9,-47.05 737.52,-44.91 744.3,-53.06 747.9,-47.05"/>
</g>
<!-- 516 -->
<g id="node33" class="node">
<title>516</title>
<ellipse fill="#b9d3ee" stroke="black" cx="775.9" cy="-34" rx="16.8" ry="18"/>
<text text-anchor="middle" x="775.9" y="-30.3" font-family="Times,serif" font-size="14.00">1</text>
</g>
<!-- 42&#45;&gt;516 -->
<g id="edge35" class="edge">
<title>42&#45;&gt;516</title>
<path fill="none" stroke="black" d="M879.97,-89.15C856.85,-79.3 827.21,-65.9 801.9,-52 800.76,-51.37 799.6,-50.71 798.43,-50.03"/>
<polygon fill="black" stroke="black" points="800.03,-46.9 789.69,-44.58 796.33,-52.84 800.03,-46.9"/>
</g>
<!-- 59 -->
<g id="node26" class="node">
<title>59</title>
<ellipse fill="#b9d3ee" stroke="black" cx="247.9" cy="-34" rx="16.8" ry="18"/>
<text text-anchor="middle" x="247.9" y="-30.3" font-family="Times,serif" font-size="14.00">1</text>
</g>
<!-- 43&#45;&gt;59 -->
<g id="edge28" class="edge">
<title>43&#45;&gt;59</title>
<path fill="none" stroke="black" d="M207.44,-89.46C214.55,-79.9 223.76,-67.49 231.61,-56.93"/>
<polygon fill="black" stroke="black" points="234.64,-58.72 237.8,-48.6 229.02,-54.54 234.64,-58.72"/>
</g>
<!-- 511 -->
<g id="node28" class="node">
<title>511</title>
<ellipse fill="#b9d3ee" stroke="black" cx="305.9" cy="-34" rx="23" ry="18"/>
<text text-anchor="middle" x="305.9" y="-30.3" font-family="Times,serif" font-size="14.00">24</text>
</g>
<!-- 43&#45;&gt;511 -->
<g id="edge30" class="edge">
<title>43&#45;&gt;511</title>
<path fill="none" stroke="black" d="M215.31,-92.65C233.28,-81.21 260.14,-64.12 279.94,-51.52"/>
<polygon fill="black" stroke="black" points="281.93,-54.4 288.49,-46.08 278.18,-48.49 281.93,-54.4"/>
</g>
<!-- 512 -->
<g id="node29" class="node">
<title>512</title>
<ellipse fill="#b9d3ee" stroke="black" cx="16.9" cy="-34" rx="16.8" ry="18"/>
<text text-anchor="middle" x="16.9" y="-30.3" font-family="Times,serif" font-size="14.00">5</text>
</g>
<!-- 43&#45;&gt;512 -->
<g id="edge31" class="edge">
<title>43&#45;&gt;512</title>
<path fill="none" stroke="black" d="M169.95,-98.13C138.88,-89.42 85.67,-72.99 42.9,-52 41.73,-51.43 40.55,-50.81 39.37,-50.16"/>
<polygon fill="black" stroke="black" points="40.93,-47.01 30.56,-44.83 37.3,-53 40.93,-47.01"/>
</g>
<!-- 513 -->
<g id="node30" class="node">
<title>513</title>
<ellipse fill="#b9d3ee" stroke="black" cx="74.9" cy="-34" rx="23" ry="18"/>
<text text-anchor="middle" x="74.9" y="-30.3" font-family="Times,serif" font-size="14.00">10</text>
</g>
<!-- 43&#45;&gt;513 -->
<g id="edge32" class="edge">
<title>43&#45;&gt;513</title>
<path fill="none" stroke="black" d="M175.65,-93.28C155.31,-81.52 123.86,-63.32 101.51,-50.4"/>
<polygon fill="black" stroke="black" points="103.25,-47.36 92.85,-45.38 99.75,-53.42 103.25,-47.36"/>
</g>
<!-- 514 -->
<g id="node31" class="node">
<title>514</title>
<ellipse fill="#b9d3ee" stroke="black" cx="137.9" cy="-34" rx="23" ry="18"/>
<text text-anchor="middle" x="137.9" y="-30.3" font-family="Times,serif" font-size="14.00">54</text>
</g>
<!-- 43&#45;&gt;514 -->
<g id="edge33" class="edge">
<title>43&#45;&gt;514</title>
<path fill="none" stroke="black" d="M183.31,-89.81C175.53,-80.42 165.4,-68.19 156.68,-57.67"/>
<polygon fill="black" stroke="black" points="159.14,-55.15 150.06,-49.68 153.75,-59.61 159.14,-55.15"/>
</g>
<!-- 515 -->
<g id="node32" class="node">
<title>515</title>
<ellipse fill="#b9d3ee" stroke="black" cx="195.9" cy="-34" rx="16.8" ry="18"/>
<text text-anchor="middle" x="195.9" y="-30.3" font-family="Times,serif" font-size="14.00">9</text>
</g>
<!-- 43&#45;&gt;515 -->
<g id="edge34" class="edge">
<title>43&#45;&gt;515</title>
<path fill="none" stroke="black" d="M195.9,-87.7C195.9,-79.98 195.9,-70.71 195.9,-62.11"/>
<polygon fill="black" stroke="black" points="199.4,-62.1 195.9,-52.1 192.4,-62.1 199.4,-62.1"/>
</g>
<!-- legend_5 -->
<g id="node34" class="node">
<title>legend_5</title>
<polygon fill="#b9d3ee" stroke="black" points="1421.4,-52 1200.4,-52 1200.4,-16 1421.4,-16 1421.4,-52"/>
<text text-anchor="middle" x="1310.9" y="-30.3" font-family="Times,serif" font-size="14.00">DT=7 ST=1 Similarity=0.64</text>
</g>
<!-- legend_4&#45;&gt;legend_5 -->
<g id="edge36" class="edge">
<title>legend_4&#45;&gt;legend_5</title>
<path fill="none" stroke="black" d="M1310.9,-87.7C1310.9,-79.98 1310.9,-70.71 1310.9,-62.11"/>
<polygon fill="black" stroke="black" points="1314.4,-62.1 1310.9,-52.1 1307.4,-62.1 1314.4,-62.1"/>
</g>
</g>
</svg>
