<?xml version="1.0" encoding="UTF-8" standalone="no"?>
<!DOCTYPE svg PUBLIC "-//W3C//DTD SVG 1.1//EN"
 "http://www.w3.org/Graphics/SVG/1.1/DTD/svg11.dtd">
<!-- Generated by graphviz version 2.43.0 (0)
 -->
<!-- Title: %3 Pages: 1 -->
<svg width="1683pt" height="353pt"
 viewBox="0.00 0.00 1682.90 353.00" xmlns="http://www.w3.org/2000/svg" xmlns:xlink="http://www.w3.org/1999/xlink">
<g id="graph0" class="graph" transform="scale(1 1) rotate(0) translate(4 349)">
<title>%3</title>
<polygon fill="white" stroke="transparent" points="-4,4 -4,-349 1678.9,-349 1678.9,4 -4,4"/>
<text text-anchor="middle" x="837.45" y="-329.8" font-family="Times,serif" font-size="14.00">ConsTree</text>
<text text-anchor="middle" x="837.45" y="-314.8" font-family="Times,serif" font-size="14.00">Tree Quality = 0.625</text>
<g id="clust1" class="cluster">
<title>cluster</title>
<polygon fill="none" stroke="black" points="1430.9,-8 1430.9,-299 1666.9,-299 1666.9,-8 1430.9,-8"/>
<text text-anchor="middle" x="1548.9" y="-283.8" font-family="Times,serif" font-size="14.00">Legend</text>
</g>
<!-- 00 -->
<g id="node1" class="node">
<title>00</title>
<ellipse fill="#b9d3ee" stroke="black" cx="435.9" cy="-250" rx="324" ry="18"/>
<text text-anchor="middle" x="435.9" y="-246.3" font-family="Times,serif" font-size="14.00">1000</text>
</g>
<!-- 10 -->
<g id="node3" class="node">
<title>10</title>
<ellipse fill="#b9d3ee" stroke="black" cx="282.9" cy="-178" rx="108" ry="18"/>
<text text-anchor="middle" x="282.9" y="-174.3" font-family="Times,serif" font-size="14.00">400</text>
</g>
<!-- 00&#45;&gt;10 -->
<g id="edge1" class="edge">
<title>00&#45;&gt;10</title>
<path fill="none" stroke="black" d="M398.86,-232.05C377.25,-222.17 349.86,-209.64 327.12,-199.23"/>
<polygon fill="black" stroke="black" points="328.57,-196.05 318.02,-195.07 325.66,-202.41 328.57,-196.05"/>
</g>
<!-- 11 -->
<g id="node4" class="node">
<title>11</title>
<ellipse fill="#b9d3ee" stroke="black" cx="661.9" cy="-178" rx="180" ry="18"/>
<text text-anchor="middle" x="661.9" y="-174.3" font-family="Times,serif" font-size="14.00">600</text>
</g>
<!-- 00&#45;&gt;11 -->
<g id="edge2" class="edge">
<title>00&#45;&gt;11</title>
<path fill="none" stroke="black" d="M490.03,-232.23C522.95,-222.04 565.13,-208.97 599.46,-198.34"/>
<polygon fill="black" stroke="black" points="600.86,-201.57 609.38,-195.27 598.79,-194.88 600.86,-201.57"/>
</g>
<!-- legend_0 -->
<g id="node2" class="node">
<title>legend_0</title>
<polygon fill="#b9d3ee" stroke="black" points="1659.4,-268 1438.4,-268 1438.4,-232 1659.4,-232 1659.4,-268"/>
<text text-anchor="middle" x="1548.9" y="-246.3" font-family="Times,serif" font-size="14.00">DT=4 ST=4 Similarity=0.38</text>
</g>
<!-- legend_1 -->
<g id="node5" class="node">
<title>legend_1</title>
<polygon fill="#b9d3ee" stroke="black" points="1659.4,-196 1438.4,-196 1438.4,-160 1659.4,-160 1659.4,-196"/>
<text text-anchor="middle" x="1548.9" y="-174.3" font-family="Times,serif" font-size="14.00">DT=6 ST=2 Similarity=0.69</text>
</g>
<!-- legend_0&#45;&gt;legend_1 -->
<g id="edge3" class="edge">
<title>legend_0&#45;&gt;legend_1</title>
<path fill="none" stroke="black" d="M1548.9,-231.7C1548.9,-223.98 1548.9,-214.71 1548.9,-206.11"/>
<polygon fill="black" stroke="black" points="1552.4,-206.1 1548.9,-196.1 1545.4,-206.1 1552.4,-206.1"/>
</g>
<!-- 21 -->
<g id="node7" class="node">
<title>21</title>
<polygon fill="darkseagreen" stroke="black" points="286.9,-124 70.9,-124 70.9,-88 286.9,-88 286.9,-124"/>
<text text-anchor="middle" x="178.9" y="-102.3" font-family="Times,serif" font-size="14.00">400</text>
</g>
<!-- 10&#45;&gt;21 -->
<g id="edge5" class="edge">
<title>10&#45;&gt;21</title>
<path fill="none" stroke="black" d="M258.25,-160.41C244.69,-151.29 227.67,-139.83 212.87,-129.86"/>
<polygon fill="black" stroke="black" points="214.7,-126.88 204.45,-124.2 210.8,-132.69 214.7,-126.88"/>
</g>
<!-- 20 -->
<g id="node6" class="node">
<title>20</title>
<polygon fill="darkseagreen" stroke="black" points="697.9,-124 625.9,-124 625.9,-88 697.9,-88 697.9,-124"/>
<text text-anchor="middle" x="661.9" y="-102.3" font-family="Times,serif" font-size="14.00">200</text>
</g>
<!-- 11&#45;&gt;20 -->
<g id="edge4" class="edge">
<title>11&#45;&gt;20</title>
<path fill="none" stroke="black" d="M661.9,-159.7C661.9,-151.98 661.9,-142.71 661.9,-134.11"/>
<polygon fill="black" stroke="black" points="665.4,-134.1 661.9,-124.1 658.4,-134.1 665.4,-134.1"/>
</g>
<!-- 22 -->
<g id="node8" class="node">
<title>22</title>
<polygon fill="darkseagreen" stroke="black" points="1189.9,-124 973.9,-124 973.9,-88 1189.9,-88 1189.9,-124"/>
<text text-anchor="middle" x="1081.9" y="-102.3" font-family="Times,serif" font-size="14.00">400</text>
</g>
<!-- 11&#45;&gt;22 -->
<g id="edge6" class="edge">
<title>11&#45;&gt;22</title>
<path fill="none" stroke="black" d="M750.2,-162.28C814.07,-151.64 900.87,-137.17 969.66,-125.71"/>
<polygon fill="black" stroke="black" points="970.38,-129.13 979.67,-124.04 969.23,-122.23 970.38,-129.13"/>
</g>
<!-- legend_2 -->
<g id="node9" class="node">
<title>legend_2</title>
<polygon fill="darkseagreen" stroke="black" points="1654.9,-124 1442.9,-124 1442.9,-88 1654.9,-88 1654.9,-124"/>
<text text-anchor="middle" x="1548.9" y="-102.3" font-family="Times,serif" font-size="14.00">DT=7 ST=1 Similarity=0.8</text>
</g>
<!-- legend_1&#45;&gt;legend_2 -->
<g id="edge7" class="edge">
<title>legend_1&#45;&gt;legend_2</title>
<path fill="none" stroke="black" d="M1548.9,-159.7C1548.9,-151.98 1548.9,-142.71 1548.9,-134.11"/>
<polygon fill="black" stroke="black" points="1552.4,-134.1 1548.9,-124.1 1545.4,-134.1 1552.4,-134.1"/>
</g>
<!-- 31 -->
<g id="node11" class="node">
<title>31</title>
<ellipse fill="#b9d3ee" stroke="black" cx="416.9" cy="-34" rx="16.8" ry="18"/>
<text text-anchor="middle" x="416.9" y="-30.3" font-family="Times,serif" font-size="14.00">1</text>
</g>
<!-- 20&#45;&gt;31 -->
<g id="edge9" class="edge">
<title>20&#45;&gt;31</title>
<path fill="none" stroke="black" d="M625.81,-100.13C581.38,-93.28 504.29,-78.56 442.9,-52 441.7,-51.48 440.5,-50.91 439.3,-50.3"/>
<polygon fill="black" stroke="black" points="440.83,-47.14 430.44,-45.1 437.29,-53.18 440.83,-47.14"/>
</g>
<!-- 32 -->
<g id="node12" class="node">
<title>32</title>
<ellipse fill="#b9d3ee" stroke="black" cx="468.9" cy="-34" rx="16.8" ry="18"/>
<text text-anchor="middle" x="468.9" y="-30.3" font-family="Times,serif" font-size="14.00">1</text>
</g>
<!-- 20&#45;&gt;32 -->
<g id="edge10" class="edge">
<title>20&#45;&gt;32</title>
<path fill="none" stroke="black" d="M625.65,-96.54C591.08,-87.77 538.04,-72.48 494.9,-52 493.72,-51.44 492.53,-50.84 491.35,-50.2"/>
<polygon fill="black" stroke="black" points="492.9,-47.05 482.52,-44.9 489.3,-53.05 492.9,-47.05"/>
</g>
<!-- 37 -->
<g id="node17" class="node">
<title>37</title>
<ellipse fill="#b9d3ee" stroke="black" cx="520.9" cy="-34" rx="16.8" ry="18"/>
<text text-anchor="middle" x="520.9" y="-30.3" font-family="Times,serif" font-size="14.00">4</text>
</g>
<!-- 20&#45;&gt;37 -->
<g id="edge15" class="edge">
<title>20&#45;&gt;37</title>
<path fill="none" stroke="black" d="M625.74,-89.97C602.75,-80.01 572.58,-66.21 546.9,-52 545.76,-51.37 544.6,-50.7 543.44,-50.02"/>
<polygon fill="black" stroke="black" points="545.03,-46.89 534.7,-44.56 541.33,-52.83 545.03,-46.89"/>
</g>
<!-- 38 -->
<g id="node18" class="node">
<title>38</title>
<ellipse fill="#b9d3ee" stroke="black" cx="572.9" cy="-34" rx="16.8" ry="18"/>
<text text-anchor="middle" x="572.9" y="-30.3" font-family="Times,serif" font-size="14.00">5</text>
</g>
<!-- 20&#45;&gt;38 -->
<g id="edge16" class="edge">
<title>20&#45;&gt;38</title>
<path fill="none" stroke="black" d="M639.9,-87.7C625.92,-76.7 607.91,-62.54 594.09,-51.67"/>
<polygon fill="black" stroke="black" points="596.12,-48.81 586.1,-45.38 591.79,-54.31 596.12,-48.81"/>
</g>
<!-- 310 -->
<g id="node20" class="node">
<title>310</title>
<ellipse fill="#b9d3ee" stroke="black" cx="630.9" cy="-34" rx="23" ry="18"/>
<text text-anchor="middle" x="630.9" y="-30.3" font-family="Times,serif" font-size="14.00">11</text>
</g>
<!-- 20&#45;&gt;310 -->
<g id="edge18" class="edge">
<title>20&#45;&gt;310</title>
<path fill="none" stroke="black" d="M654.24,-87.7C650.6,-79.49 646.19,-69.52 642.18,-60.48"/>
<polygon fill="black" stroke="black" points="645.3,-58.87 638.05,-51.14 638.9,-61.71 645.3,-58.87"/>
</g>
<!-- 312 -->
<g id="node22" class="node">
<title>312</title>
<ellipse fill="#b9d3ee" stroke="black" cx="693.9" cy="-34" rx="23" ry="18"/>
<text text-anchor="middle" x="693.9" y="-30.3" font-family="Times,serif" font-size="14.00">14</text>
</g>
<!-- 20&#45;&gt;312 -->
<g id="edge20" class="edge">
<title>20&#45;&gt;312</title>
<path fill="none" stroke="black" d="M669.81,-87.7C673.56,-79.49 678.12,-69.52 682.25,-60.48"/>
<polygon fill="black" stroke="black" points="685.54,-61.69 686.52,-51.14 679.18,-58.78 685.54,-61.69"/>
</g>
<!-- 314 -->
<g id="node24" class="node">
<title>314</title>
<ellipse fill="#b9d3ee" stroke="black" cx="756.9" cy="-34" rx="23" ry="18"/>
<text text-anchor="middle" x="756.9" y="-30.3" font-family="Times,serif" font-size="14.00">18</text>
</g>
<!-- 20&#45;&gt;314 -->
<g id="edge22" class="edge">
<title>20&#45;&gt;314</title>
<path fill="none" stroke="black" d="M685.38,-87.7C699.8,-77.07 718.24,-63.49 732.77,-52.78"/>
<polygon fill="black" stroke="black" points="734.85,-55.59 740.83,-46.84 730.7,-49.96 734.85,-55.59"/>
</g>
<!-- 315 -->
<g id="node25" class="node">
<title>315</title>
<ellipse fill="#b9d3ee" stroke="black" cx="819.9" cy="-34" rx="23" ry="18"/>
<text text-anchor="middle" x="819.9" y="-30.3" font-family="Times,serif" font-size="14.00">19</text>
</g>
<!-- 20&#45;&gt;315 -->
<g id="edge23" class="edge">
<title>20&#45;&gt;315</title>
<path fill="none" stroke="black" d="M697.93,-91.15C723.6,-80.99 758.76,-66.5 788.9,-52 790.25,-51.35 791.62,-50.67 793,-49.97"/>
<polygon fill="black" stroke="black" points="794.82,-52.97 802.04,-45.22 791.56,-46.78 794.82,-52.97"/>
</g>
<!-- 316 -->
<g id="node26" class="node">
<title>316</title>
<ellipse fill="#b9d3ee" stroke="black" cx="882.9" cy="-34" rx="23" ry="18"/>
<text text-anchor="middle" x="882.9" y="-30.3" font-family="Times,serif" font-size="14.00">40</text>
</g>
<!-- 20&#45;&gt;316 -->
<g id="edge24" class="edge">
<title>20&#45;&gt;316</title>
<path fill="none" stroke="black" d="M698.08,-97.51C736.92,-88.88 800.04,-73.12 851.9,-52 853.28,-51.44 854.69,-50.82 856.09,-50.18"/>
<polygon fill="black" stroke="black" points="857.84,-53.22 865.21,-45.61 854.7,-46.96 857.84,-53.22"/>
</g>
<!-- 317 -->
<g id="node27" class="node">
<title>317</title>
<ellipse fill="#b9d3ee" stroke="black" cx="945.9" cy="-34" rx="23" ry="18"/>
<text text-anchor="middle" x="945.9" y="-30.3" font-family="Times,serif" font-size="14.00">87</text>
</g>
<!-- 20&#45;&gt;317 -->
<g id="edge25" class="edge">
<title>20&#45;&gt;317</title>
<path fill="none" stroke="black" d="M698.02,-100.84C747.97,-94.33 840.39,-79.54 914.9,-52 916.3,-51.48 917.72,-50.91 919.13,-50.29"/>
<polygon fill="black" stroke="black" points="920.84,-53.35 928.29,-45.82 917.77,-47.06 920.84,-53.35"/>
</g>
<!-- 33 -->
<g id="node13" class="node">
<title>33</title>
<ellipse fill="#b9d3ee" stroke="black" cx="16.9" cy="-34" rx="16.8" ry="18"/>
<text text-anchor="middle" x="16.9" y="-30.3" font-family="Times,serif" font-size="14.00">1</text>
</g>
<!-- 21&#45;&gt;33 -->
<g id="edge11" class="edge">
<title>21&#45;&gt;33</title>
<path fill="none" stroke="black" d="M127.75,-87.92C101.77,-78.54 70.05,-65.97 42.9,-52 41.74,-51.4 40.57,-50.77 39.39,-50.1"/>
<polygon fill="black" stroke="black" points="40.97,-46.96 30.61,-44.73 37.31,-52.93 40.97,-46.96"/>
</g>
<!-- 36 -->
<g id="node16" class="node">
<title>36</title>
<ellipse fill="#b9d3ee" stroke="black" cx="68.9" cy="-34" rx="16.8" ry="18"/>
<text text-anchor="middle" x="68.9" y="-30.3" font-family="Times,serif" font-size="14.00">4</text>
</g>
<!-- 21&#45;&gt;36 -->
<g id="edge14" class="edge">
<title>21&#45;&gt;36</title>
<path fill="none" stroke="black" d="M151.59,-87.93C135.13,-77.59 113.76,-64.12 94.9,-52 93.8,-51.3 92.68,-50.57 91.55,-49.84"/>
<polygon fill="black" stroke="black" points="93.2,-46.74 82.9,-44.22 89.38,-52.6 93.2,-46.74"/>
</g>
<!-- 39 -->
<g id="node19" class="node">
<title>39</title>
<ellipse fill="#b9d3ee" stroke="black" cx="120.9" cy="-34" rx="16.8" ry="18"/>
<text text-anchor="middle" x="120.9" y="-30.3" font-family="Times,serif" font-size="14.00">7</text>
</g>
<!-- 21&#45;&gt;39 -->
<g id="edge17" class="edge">
<title>21&#45;&gt;39</title>
<path fill="none" stroke="black" d="M164.56,-87.7C156.59,-78.08 146.62,-66.05 138.22,-55.91"/>
<polygon fill="black" stroke="black" points="140.69,-53.4 131.61,-47.93 135.3,-57.86 140.69,-53.4"/>
</g>
<!-- 313 -->
<g id="node23" class="node">
<title>313</title>
<ellipse fill="#b9d3ee" stroke="black" cx="178.9" cy="-34" rx="23" ry="18"/>
<text text-anchor="middle" x="178.9" y="-30.3" font-family="Times,serif" font-size="14.00">18</text>
</g>
<!-- 21&#45;&gt;313 -->
<g id="edge21" class="edge">
<title>21&#45;&gt;313</title>
<path fill="none" stroke="black" d="M178.9,-87.7C178.9,-79.98 178.9,-70.71 178.9,-62.11"/>
<polygon fill="black" stroke="black" points="182.4,-62.1 178.9,-52.1 175.4,-62.1 182.4,-62.1"/>
</g>
<!-- 318 -->
<g id="node28" class="node">
<title>318</title>
<ellipse fill="#b9d3ee" stroke="black" cx="255.9" cy="-34" rx="36" ry="18"/>
<text text-anchor="middle" x="255.9" y="-30.3" font-family="Times,serif" font-size="14.00">180</text>
</g>
<!-- 21&#45;&gt;318 -->
<g id="edge26" class="edge">
<title>21&#45;&gt;318</title>
<path fill="none" stroke="black" d="M197.93,-87.7C208.11,-78.44 220.75,-66.95 231.63,-57.06"/>
<polygon fill="black" stroke="black" points="234.13,-59.52 239.18,-50.2 229.42,-54.34 234.13,-59.52"/>
</g>
<!-- 319 -->
<g id="node29" class="node">
<title>319</title>
<ellipse fill="#b9d3ee" stroke="black" cx="345.9" cy="-34" rx="36" ry="18"/>
<text text-anchor="middle" x="345.9" y="-30.3" font-family="Times,serif" font-size="14.00">190</text>
</g>
<!-- 21&#45;&gt;319 -->
<g id="edge27" class="edge">
<title>21&#45;&gt;319</title>
<path fill="none" stroke="black" d="M219.75,-87.88C247.27,-76.34 283.24,-61.26 309.73,-50.16"/>
<polygon fill="black" stroke="black" points="311.15,-53.36 319.02,-46.27 308.45,-46.9 311.15,-53.36"/>
</g>
<!-- 30 -->
<g id="node10" class="node">
<title>30</title>
<ellipse fill="#b9d3ee" stroke="black" cx="1003.9" cy="-34" rx="16.8" ry="18"/>
<text text-anchor="middle" x="1003.9" y="-30.3" font-family="Times,serif" font-size="14.00">1</text>
</g>
<!-- 22&#45;&gt;30 -->
<g id="edge8" class="edge">
<title>22&#45;&gt;30</title>
<path fill="none" stroke="black" d="M1062.62,-87.7C1050.89,-77.17 1035.93,-63.75 1024.05,-53.08"/>
<polygon fill="black" stroke="black" points="1026.17,-50.28 1016.39,-46.21 1021.49,-55.49 1026.17,-50.28"/>
</g>
<!-- 34 -->
<g id="node14" class="node">
<title>34</title>
<ellipse fill="#b9d3ee" stroke="black" cx="1055.9" cy="-34" rx="16.8" ry="18"/>
<text text-anchor="middle" x="1055.9" y="-30.3" font-family="Times,serif" font-size="14.00">1</text>
</g>
<!-- 22&#45;&gt;34 -->
<g id="edge12" class="edge">
<title>22&#45;&gt;34</title>
<path fill="none" stroke="black" d="M1075.47,-87.7C1072.46,-79.58 1068.8,-69.74 1065.47,-60.76"/>
<polygon fill="black" stroke="black" points="1068.66,-59.3 1061.9,-51.14 1062.1,-61.74 1068.66,-59.3"/>
</g>
<!-- 35 -->
<g id="node15" class="node">
<title>35</title>
<ellipse fill="#b9d3ee" stroke="black" cx="1107.9" cy="-34" rx="16.8" ry="18"/>
<text text-anchor="middle" x="1107.9" y="-30.3" font-family="Times,serif" font-size="14.00">3</text>
</g>
<!-- 22&#45;&gt;35 -->
<g id="edge13" class="edge">
<title>22&#45;&gt;35</title>
<path fill="none" stroke="black" d="M1088.33,-87.7C1091.34,-79.58 1095,-69.74 1098.33,-60.76"/>
<polygon fill="black" stroke="black" points="1101.7,-61.74 1101.9,-51.14 1095.14,-59.3 1101.7,-61.74"/>
</g>
<!-- 311 -->
<g id="node21" class="node">
<title>311</title>
<ellipse fill="#b9d3ee" stroke="black" cx="1165.9" cy="-34" rx="23" ry="18"/>
<text text-anchor="middle" x="1165.9" y="-30.3" font-family="Times,serif" font-size="14.00">12</text>
</g>
<!-- 22&#45;&gt;311 -->
<g id="edge19" class="edge">
<title>22&#45;&gt;311</title>
<path fill="none" stroke="black" d="M1102.66,-87.7C1114.86,-77.53 1130.29,-64.67 1142.86,-54.2"/>
<polygon fill="black" stroke="black" points="1145.2,-56.8 1150.65,-47.71 1140.72,-51.42 1145.2,-56.8"/>
</g>
<!-- 320 -->
<g id="node30" class="node">
<title>320</title>
<ellipse fill="#b9d3ee" stroke="black" cx="1314.9" cy="-34" rx="108" ry="18"/>
<text text-anchor="middle" x="1314.9" y="-30.3" font-family="Times,serif" font-size="14.00">383</text>
</g>
<!-- 22&#45;&gt;320 -->
<g id="edge28" class="edge">
<title>22&#45;&gt;320</title>
<path fill="none" stroke="black" d="M1138.6,-87.97C1173.81,-77.39 1219.03,-63.8 1254.85,-53.04"/>
<polygon fill="black" stroke="black" points="1256.12,-56.31 1264.69,-50.08 1254.11,-49.61 1256.12,-56.31"/>
</g>
<!-- legend_3 -->
<g id="node31" class="node">
<title>legend_3</title>
<polygon fill="#b9d3ee" stroke="black" points="1654.9,-52 1442.9,-52 1442.9,-16 1654.9,-16 1654.9,-52"/>
<text text-anchor="middle" x="1548.9" y="-30.3" font-family="Times,serif" font-size="14.00">DT=8 ST=1 Similarity=0.6</text>
</g>
<!-- legend_2&#45;&gt;legend_3 -->
<g id="edge29" class="edge">
<title>legend_2&#45;&gt;legend_3</title>
<path fill="none" stroke="black" d="M1548.9,-87.7C1548.9,-79.98 1548.9,-70.71 1548.9,-62.11"/>
<polygon fill="black" stroke="black" points="1552.4,-62.1 1548.9,-52.1 1545.4,-62.1 1552.4,-62.1"/>
</g>
</g>
</svg>
