<?xml version="1.0" encoding="UTF-8" standalone="no"?>
<!DOCTYPE svg PUBLIC "-//W3C//DTD SVG 1.1//EN"
 "http://www.w3.org/Graphics/SVG/1.1/DTD/svg11.dtd">
<!-- Generated by graphviz version 2.43.0 (0)
 -->
<!-- Title: %3 Pages: 1 -->
<svg width="1495pt" height="281pt"
 viewBox="0.00 0.00 1495.00 281.00" xmlns="http://www.w3.org/2000/svg" xmlns:xlink="http://www.w3.org/1999/xlink">
<g id="graph0" class="graph" transform="scale(1 1) rotate(0) translate(4 277)">
<title>%3</title>
<polygon fill="white" stroke="transparent" points="-4,4 -4,-277 1491,-277 1491,4 -4,4"/>
<text text-anchor="middle" x="743.5" y="-257.8" font-family="Times,serif" font-size="14.00">ConsTree</text>
<text text-anchor="middle" x="743.5" y="-242.8" font-family="Times,serif" font-size="14.00">Tree Quality = 0.5714285714285714</text>
<g id="clust1" class="cluster">
<title>cluster</title>
<polygon fill="none" stroke="black" points="1243,-8 1243,-227 1479,-227 1479,-8 1243,-8"/>
<text text-anchor="middle" x="1361" y="-211.8" font-family="Times,serif" font-size="14.00">Legend</text>
</g>
<!-- 00 -->
<g id="node1" class="node">
<title>00</title>
<ellipse fill="#b9d3ee" stroke="black" cx="688" cy="-178" rx="324" ry="18"/>
<text text-anchor="middle" x="688" y="-174.3" font-family="Times,serif" font-size="14.00">1000</text>
</g>
<!-- 10 -->
<g id="node3" class="node">
<title>10</title>
<polygon fill="darkseagreen" stroke="black" points="313,-124 97,-124 97,-88 313,-88 313,-124"/>
<text text-anchor="middle" x="205" y="-102.3" font-family="Times,serif" font-size="14.00">400</text>
</g>
<!-- 00&#45;&gt;10 -->
<g id="edge1" class="edge">
<title>00&#45;&gt;10</title>
<path fill="none" stroke="black" d="M577.8,-161.03C501.85,-150.02 401.03,-135.41 323.38,-124.16"/>
<polygon fill="black" stroke="black" points="323.47,-120.63 313.07,-122.66 322.46,-127.56 323.47,-120.63"/>
</g>
<!-- 11 -->
<g id="node4" class="node">
<title>11</title>
<polygon fill="darkseagreen" stroke="black" points="796,-124 580,-124 580,-88 796,-88 796,-124"/>
<text text-anchor="middle" x="688" y="-102.3" font-family="Times,serif" font-size="14.00">400</text>
</g>
<!-- 00&#45;&gt;11 -->
<g id="edge2" class="edge">
<title>00&#45;&gt;11</title>
<path fill="none" stroke="black" d="M688,-159.7C688,-151.98 688,-142.71 688,-134.11"/>
<polygon fill="black" stroke="black" points="691.5,-134.1 688,-124.1 684.5,-134.1 691.5,-134.1"/>
</g>
<!-- 12 -->
<g id="node5" class="node">
<title>12</title>
<polygon fill="darkseagreen" stroke="black" points="1058,-124 986,-124 986,-88 1058,-88 1058,-124"/>
<text text-anchor="middle" x="1022" y="-102.3" font-family="Times,serif" font-size="14.00">200</text>
</g>
<!-- 00&#45;&gt;12 -->
<g id="edge3" class="edge">
<title>00&#45;&gt;12</title>
<path fill="none" stroke="black" d="M766.73,-160.5C831.78,-146.87 921.89,-127.98 975.83,-116.68"/>
<polygon fill="black" stroke="black" points="976.72,-120.07 985.79,-114.59 975.28,-113.22 976.72,-120.07"/>
</g>
<!-- legend_0 -->
<g id="node2" class="node">
<title>legend_0</title>
<polygon fill="#b9d3ee" stroke="black" points="1471.5,-196 1250.5,-196 1250.5,-160 1471.5,-160 1471.5,-196"/>
<text text-anchor="middle" x="1361" y="-174.3" font-family="Times,serif" font-size="14.00">DT=4 ST=4 Similarity=0.36</text>
</g>
<!-- legend_1 -->
<g id="node6" class="node">
<title>legend_1</title>
<polygon fill="darkseagreen" stroke="black" points="1471.5,-124 1250.5,-124 1250.5,-88 1471.5,-88 1471.5,-124"/>
<text text-anchor="middle" x="1361" y="-102.3" font-family="Times,serif" font-size="14.00">DT=6 ST=2 Similarity=0.85</text>
</g>
<!-- legend_0&#45;&gt;legend_1 -->
<g id="edge4" class="edge">
<title>legend_0&#45;&gt;legend_1</title>
<path fill="none" stroke="black" d="M1361,-159.7C1361,-151.98 1361,-142.71 1361,-134.11"/>
<polygon fill="black" stroke="black" points="1364.5,-134.1 1361,-124.1 1357.5,-134.1 1364.5,-134.1"/>
</g>
<!-- 21 -->
<g id="node8" class="node">
<title>21</title>
<ellipse fill="#b9d3ee" stroke="black" cx="36" cy="-34" rx="36" ry="18"/>
<text text-anchor="middle" x="36" y="-30.3" font-family="Times,serif" font-size="14.00">163</text>
</g>
<!-- 10&#45;&gt;21 -->
<g id="edge6" class="edge">
<title>10&#45;&gt;21</title>
<path fill="none" stroke="black" d="M163.66,-87.88C135.72,-76.3 99.18,-61.17 72.36,-50.06"/>
<polygon fill="black" stroke="black" points="73.52,-46.75 62.95,-46.16 70.85,-53.22 73.52,-46.75"/>
</g>
<!-- 22 -->
<g id="node9" class="node">
<title>22</title>
<ellipse fill="#b9d3ee" stroke="black" cx="113" cy="-34" rx="23" ry="18"/>
<text text-anchor="middle" x="113" y="-30.3" font-family="Times,serif" font-size="14.00">16</text>
</g>
<!-- 10&#45;&gt;22 -->
<g id="edge7" class="edge">
<title>10&#45;&gt;22</title>
<path fill="none" stroke="black" d="M182.26,-87.7C168.51,-77.24 151,-63.91 137.03,-53.28"/>
<polygon fill="black" stroke="black" points="138.93,-50.33 128.85,-47.06 134.69,-55.9 138.93,-50.33"/>
</g>
<!-- 23 -->
<g id="node10" class="node">
<title>23</title>
<ellipse fill="#b9d3ee" stroke="black" cx="176" cy="-34" rx="23" ry="18"/>
<text text-anchor="middle" x="176" y="-30.3" font-family="Times,serif" font-size="14.00">13</text>
</g>
<!-- 10&#45;&gt;23 -->
<g id="edge8" class="edge">
<title>10&#45;&gt;23</title>
<path fill="none" stroke="black" d="M197.83,-87.7C194.48,-79.61 190.42,-69.81 186.72,-60.87"/>
<polygon fill="black" stroke="black" points="189.95,-59.52 182.89,-51.62 183.48,-62.2 189.95,-59.52"/>
</g>
<!-- 24 -->
<g id="node11" class="node">
<title>24</title>
<ellipse fill="#b9d3ee" stroke="black" cx="234" cy="-34" rx="16.8" ry="18"/>
<text text-anchor="middle" x="234" y="-30.3" font-family="Times,serif" font-size="14.00">1</text>
</g>
<!-- 10&#45;&gt;24 -->
<g id="edge9" class="edge">
<title>10&#45;&gt;24</title>
<path fill="none" stroke="black" d="M212.17,-87.7C215.62,-79.37 219.82,-69.23 223.61,-60.08"/>
<polygon fill="black" stroke="black" points="226.91,-61.25 227.51,-50.67 220.45,-58.57 226.91,-61.25"/>
</g>
<!-- 25 -->
<g id="node12" class="node">
<title>25</title>
<ellipse fill="#b9d3ee" stroke="black" cx="305" cy="-34" rx="36" ry="18"/>
<text text-anchor="middle" x="305" y="-30.3" font-family="Times,serif" font-size="14.00">207</text>
</g>
<!-- 10&#45;&gt;25 -->
<g id="edge10" class="edge">
<title>10&#45;&gt;25</title>
<path fill="none" stroke="black" d="M229.46,-87.88C243.67,-77.93 261.65,-65.35 276.49,-54.95"/>
<polygon fill="black" stroke="black" points="278.64,-57.72 284.82,-49.12 274.63,-51.99 278.64,-57.72"/>
</g>
<!-- 20 -->
<g id="node7" class="node">
<title>20</title>
<ellipse fill="#b9d3ee" stroke="black" cx="467" cy="-34" rx="108" ry="18"/>
<text text-anchor="middle" x="467" y="-30.3" font-family="Times,serif" font-size="14.00">383</text>
</g>
<!-- 11&#45;&gt;20 -->
<g id="edge5" class="edge">
<title>11&#45;&gt;20</title>
<path fill="none" stroke="black" d="M634.22,-87.97C601.08,-77.47 558.6,-64.01 524.75,-53.29"/>
<polygon fill="black" stroke="black" points="525.58,-49.88 514.99,-50.2 523.47,-56.56 525.58,-49.88"/>
</g>
<!-- 26 -->
<g id="node13" class="node">
<title>26</title>
<ellipse fill="#b9d3ee" stroke="black" cx="610" cy="-34" rx="16.8" ry="18"/>
<text text-anchor="middle" x="610" y="-30.3" font-family="Times,serif" font-size="14.00">5</text>
</g>
<!-- 11&#45;&gt;26 -->
<g id="edge11" class="edge">
<title>11&#45;&gt;26</title>
<path fill="none" stroke="black" d="M668.72,-87.7C656.99,-77.17 642.03,-63.75 630.15,-53.08"/>
<polygon fill="black" stroke="black" points="632.27,-50.28 622.49,-46.21 627.59,-55.49 632.27,-50.28"/>
</g>
<!-- 27 -->
<g id="node14" class="node">
<title>27</title>
<ellipse fill="#b9d3ee" stroke="black" cx="662" cy="-34" rx="16.8" ry="18"/>
<text text-anchor="middle" x="662" y="-30.3" font-family="Times,serif" font-size="14.00">7</text>
</g>
<!-- 11&#45;&gt;27 -->
<g id="edge12" class="edge">
<title>11&#45;&gt;27</title>
<path fill="none" stroke="black" d="M681.57,-87.7C678.56,-79.58 674.9,-69.74 671.57,-60.76"/>
<polygon fill="black" stroke="black" points="674.76,-59.3 668,-51.14 668.2,-61.74 674.76,-59.3"/>
</g>
<!-- 28 -->
<g id="node15" class="node">
<title>28</title>
<ellipse fill="#b9d3ee" stroke="black" cx="714" cy="-34" rx="16.8" ry="18"/>
<text text-anchor="middle" x="714" y="-30.3" font-family="Times,serif" font-size="14.00">3</text>
</g>
<!-- 11&#45;&gt;28 -->
<g id="edge13" class="edge">
<title>11&#45;&gt;28</title>
<path fill="none" stroke="black" d="M694.43,-87.7C697.44,-79.58 701.1,-69.74 704.43,-60.76"/>
<polygon fill="black" stroke="black" points="707.8,-61.74 708,-51.14 701.24,-59.3 707.8,-61.74"/>
</g>
<!-- 29 -->
<g id="node16" class="node">
<title>29</title>
<ellipse fill="#b9d3ee" stroke="black" cx="766" cy="-34" rx="16.8" ry="18"/>
<text text-anchor="middle" x="766" y="-30.3" font-family="Times,serif" font-size="14.00">1</text>
</g>
<!-- 11&#45;&gt;29 -->
<g id="edge14" class="edge">
<title>11&#45;&gt;29</title>
<path fill="none" stroke="black" d="M707.28,-87.7C719.01,-77.17 733.97,-63.75 745.85,-53.08"/>
<polygon fill="black" stroke="black" points="748.41,-55.49 753.51,-46.21 743.73,-50.28 748.41,-55.49"/>
</g>
<!-- 217 -->
<g id="node24" class="node">
<title>217</title>
<ellipse fill="#b9d3ee" stroke="black" cx="818" cy="-34" rx="16.8" ry="18"/>
<text text-anchor="middle" x="818" y="-30.3" font-family="Times,serif" font-size="14.00">1</text>
</g>
<!-- 11&#45;&gt;217 -->
<g id="edge22" class="edge">
<title>11&#45;&gt;217</title>
<path fill="none" stroke="black" d="M724.13,-87.78C744.37,-77.84 769.91,-64.8 792,-52 793.13,-51.35 794.28,-50.66 795.43,-49.96"/>
<polygon fill="black" stroke="black" points="797.56,-52.76 804.14,-44.46 793.82,-46.84 797.56,-52.76"/>
</g>
<!-- 210 -->
<g id="node17" class="node">
<title>210</title>
<ellipse fill="#b9d3ee" stroke="black" cx="870" cy="-34" rx="16.8" ry="18"/>
<text text-anchor="middle" x="870" y="-30.3" font-family="Times,serif" font-size="14.00">1</text>
</g>
<!-- 12&#45;&gt;210 -->
<g id="edge15" class="edge">
<title>12&#45;&gt;210</title>
<path fill="none" stroke="black" d="M985.9,-91.82C960.27,-81.98 925.34,-67.6 896,-52 894.85,-51.39 893.68,-50.74 892.51,-50.07"/>
<polygon fill="black" stroke="black" points="894.1,-46.93 883.75,-44.65 890.42,-52.89 894.1,-46.93"/>
</g>
<!-- 211 -->
<g id="node18" class="node">
<title>211</title>
<ellipse fill="#b9d3ee" stroke="black" cx="928" cy="-34" rx="23" ry="18"/>
<text text-anchor="middle" x="928" y="-30.3" font-family="Times,serif" font-size="14.00">73</text>
</g>
<!-- 12&#45;&gt;211 -->
<g id="edge16" class="edge">
<title>12&#45;&gt;211</title>
<path fill="none" stroke="black" d="M998.76,-87.7C984.72,-77.24 966.83,-63.91 952.55,-53.28"/>
<polygon fill="black" stroke="black" points="954.3,-50.22 944.19,-47.06 950.12,-55.84 954.3,-50.22"/>
</g>
<!-- 212 -->
<g id="node19" class="node">
<title>212</title>
<ellipse fill="#b9d3ee" stroke="black" cx="991" cy="-34" rx="23" ry="18"/>
<text text-anchor="middle" x="991" y="-30.3" font-family="Times,serif" font-size="14.00">54</text>
</g>
<!-- 12&#45;&gt;212 -->
<g id="edge17" class="edge">
<title>12&#45;&gt;212</title>
<path fill="none" stroke="black" d="M1014.34,-87.7C1010.7,-79.49 1006.29,-69.52 1002.28,-60.48"/>
<polygon fill="black" stroke="black" points="1005.4,-58.87 998.15,-51.14 999,-61.71 1005.4,-58.87"/>
</g>
<!-- 213 -->
<g id="node20" class="node">
<title>213</title>
<ellipse fill="#b9d3ee" stroke="black" cx="1054" cy="-34" rx="23" ry="18"/>
<text text-anchor="middle" x="1054" y="-30.3" font-family="Times,serif" font-size="14.00">60</text>
</g>
<!-- 12&#45;&gt;213 -->
<g id="edge18" class="edge">
<title>12&#45;&gt;213</title>
<path fill="none" stroke="black" d="M1029.91,-87.7C1033.66,-79.49 1038.22,-69.52 1042.35,-60.48"/>
<polygon fill="black" stroke="black" points="1045.65,-61.69 1046.62,-51.14 1039.28,-58.78 1045.65,-61.69"/>
</g>
<!-- 214 -->
<g id="node21" class="node">
<title>214</title>
<ellipse fill="#b9d3ee" stroke="black" cx="1112" cy="-34" rx="16.8" ry="18"/>
<text text-anchor="middle" x="1112" y="-30.3" font-family="Times,serif" font-size="14.00">3</text>
</g>
<!-- 12&#45;&gt;214 -->
<g id="edge19" class="edge">
<title>12&#45;&gt;214</title>
<path fill="none" stroke="black" d="M1044.25,-87.7C1058.39,-76.7 1076.59,-62.54 1090.57,-51.67"/>
<polygon fill="black" stroke="black" points="1092.91,-54.28 1098.65,-45.38 1088.61,-48.76 1092.91,-54.28"/>
</g>
<!-- 215 -->
<g id="node22" class="node">
<title>215</title>
<ellipse fill="#b9d3ee" stroke="black" cx="1164" cy="-34" rx="16.8" ry="18"/>
<text text-anchor="middle" x="1164" y="-30.3" font-family="Times,serif" font-size="14.00">4</text>
</g>
<!-- 12&#45;&gt;215 -->
<g id="edge20" class="edge">
<title>12&#45;&gt;215</title>
<path fill="none" stroke="black" d="M1058.22,-90.12C1081.45,-80.17 1112.02,-66.32 1138,-52 1139.14,-51.37 1140.3,-50.71 1141.46,-50.02"/>
<polygon fill="black" stroke="black" points="1143.57,-52.83 1150.2,-44.57 1139.87,-46.89 1143.57,-52.83"/>
</g>
<!-- 216 -->
<g id="node23" class="node">
<title>216</title>
<ellipse fill="#b9d3ee" stroke="black" cx="1216" cy="-34" rx="16.8" ry="18"/>
<text text-anchor="middle" x="1216" y="-30.3" font-family="Times,serif" font-size="14.00">5</text>
</g>
<!-- 12&#45;&gt;216 -->
<g id="edge21" class="edge">
<title>12&#45;&gt;216</title>
<path fill="none" stroke="black" d="M1058.14,-96.66C1092.91,-87.93 1146.47,-72.62 1190,-52 1191.18,-51.44 1192.37,-50.84 1193.55,-50.2"/>
<polygon fill="black" stroke="black" points="1195.6,-53.05 1202.38,-44.91 1192,-47.05 1195.6,-53.05"/>
</g>
<!-- legend_2 -->
<g id="node25" class="node">
<title>legend_2</title>
<polygon fill="#b9d3ee" stroke="black" points="1471.5,-52 1250.5,-52 1250.5,-16 1471.5,-16 1471.5,-52"/>
<text text-anchor="middle" x="1361" y="-30.3" font-family="Times,serif" font-size="14.00">DT=7 ST=1 Similarity=0.63</text>
</g>
<!-- legend_1&#45;&gt;legend_2 -->
<g id="edge23" class="edge">
<title>legend_1&#45;&gt;legend_2</title>
<path fill="none" stroke="black" d="M1361,-87.7C1361,-79.98 1361,-70.71 1361,-62.11"/>
<polygon fill="black" stroke="black" points="1364.5,-62.1 1361,-52.1 1357.5,-62.1 1364.5,-62.1"/>
</g>
</g>
</svg>
