<?xml version="1.0" encoding="UTF-8" standalone="no"?>
<!DOCTYPE svg PUBLIC "-//W3C//DTD SVG 1.1//EN"
 "http://www.w3.org/Graphics/SVG/1.1/DTD/svg11.dtd">
<!-- Generated by graphviz version 2.43.0 (0)
 -->
<!-- Title: %3 Pages: 1 -->
<svg width="1801pt" height="353pt"
 viewBox="0.00 0.00 1800.90 353.00" xmlns="http://www.w3.org/2000/svg" xmlns:xlink="http://www.w3.org/1999/xlink">
<g id="graph0" class="graph" transform="scale(1 1) rotate(0) translate(4 349)">
<title>%3</title>
<polygon fill="white" stroke="transparent" points="-4,4 -4,-349 1796.9,-349 1796.9,4 -4,4"/>
<text text-anchor="middle" x="896.45" y="-329.8" font-family="Times,serif" font-size="14.00">ConsTree</text>
<text text-anchor="middle" x="896.45" y="-314.8" font-family="Times,serif" font-size="14.00">Tree Quality = 0.625</text>
<g id="clust1" class="cluster">
<title>cluster</title>
<polygon fill="none" stroke="black" points="1548.9,-8 1548.9,-299 1784.9,-299 1784.9,-8 1548.9,-8"/>
<text text-anchor="middle" x="1666.9" y="-283.8" font-family="Times,serif" font-size="14.00">Legend</text>
</g>
<!-- 00 -->
<g id="node1" class="node">
<title>00</title>
<ellipse fill="#b9d3ee" stroke="black" cx="441.9" cy="-250" rx="324" ry="18"/>
<text text-anchor="middle" x="441.9" y="-246.3" font-family="Times,serif" font-size="14.00">1000</text>
</g>
<!-- 10 -->
<g id="node3" class="node">
<title>10</title>
<ellipse fill="#b9d3ee" stroke="black" cx="288.9" cy="-178" rx="108" ry="18"/>
<text text-anchor="middle" x="288.9" y="-174.3" font-family="Times,serif" font-size="14.00">400</text>
</g>
<!-- 00&#45;&gt;10 -->
<g id="edge1" class="edge">
<title>00&#45;&gt;10</title>
<path fill="none" stroke="black" d="M404.86,-232.05C383.25,-222.17 355.86,-209.64 333.12,-199.23"/>
<polygon fill="black" stroke="black" points="334.57,-196.05 324.02,-195.07 331.66,-202.41 334.57,-196.05"/>
</g>
<!-- 11 -->
<g id="node4" class="node">
<title>11</title>
<ellipse fill="#b9d3ee" stroke="black" cx="664.9" cy="-178" rx="180" ry="18"/>
<text text-anchor="middle" x="664.9" y="-174.3" font-family="Times,serif" font-size="14.00">600</text>
</g>
<!-- 00&#45;&gt;11 -->
<g id="edge2" class="edge">
<title>00&#45;&gt;11</title>
<path fill="none" stroke="black" d="M495.31,-232.23C527.8,-222.04 569.41,-208.97 603.28,-198.34"/>
<polygon fill="black" stroke="black" points="604.58,-201.6 613.07,-195.27 602.48,-194.92 604.58,-201.6"/>
</g>
<!-- legend_0 -->
<g id="node2" class="node">
<title>legend_0</title>
<polygon fill="#b9d3ee" stroke="black" points="1777.4,-268 1556.4,-268 1556.4,-232 1777.4,-232 1777.4,-268"/>
<text text-anchor="middle" x="1666.9" y="-246.3" font-family="Times,serif" font-size="14.00">DT=4 ST=4 Similarity=0.38</text>
</g>
<!-- legend_1 -->
<g id="node5" class="node">
<title>legend_1</title>
<polygon fill="#b9d3ee" stroke="black" points="1777.4,-196 1556.4,-196 1556.4,-160 1777.4,-160 1777.4,-196"/>
<text text-anchor="middle" x="1666.9" y="-174.3" font-family="Times,serif" font-size="14.00">DT=6 ST=2 Similarity=0.68</text>
</g>
<!-- legend_0&#45;&gt;legend_1 -->
<g id="edge3" class="edge">
<title>legend_0&#45;&gt;legend_1</title>
<path fill="none" stroke="black" d="M1666.9,-231.7C1666.9,-223.98 1666.9,-214.71 1666.9,-206.11"/>
<polygon fill="black" stroke="black" points="1670.4,-206.1 1666.9,-196.1 1663.4,-206.1 1670.4,-206.1"/>
</g>
<!-- 21 -->
<g id="node7" class="node">
<title>21</title>
<polygon fill="darkseagreen" stroke="black" points="297.9,-124 81.9,-124 81.9,-88 297.9,-88 297.9,-124"/>
<text text-anchor="middle" x="189.9" y="-102.3" font-family="Times,serif" font-size="14.00">400</text>
</g>
<!-- 10&#45;&gt;21 -->
<g id="edge5" class="edge">
<title>10&#45;&gt;21</title>
<path fill="none" stroke="black" d="M265.44,-160.41C252.65,-151.37 236.63,-140.04 222.63,-130.14"/>
<polygon fill="black" stroke="black" points="224.41,-127.12 214.23,-124.2 220.37,-132.83 224.41,-127.12"/>
</g>
<!-- 20 -->
<g id="node6" class="node">
<title>20</title>
<polygon fill="darkseagreen" stroke="black" points="700.9,-124 628.9,-124 628.9,-88 700.9,-88 700.9,-124"/>
<text text-anchor="middle" x="664.9" y="-102.3" font-family="Times,serif" font-size="14.00">200</text>
</g>
<!-- 11&#45;&gt;20 -->
<g id="edge4" class="edge">
<title>11&#45;&gt;20</title>
<path fill="none" stroke="black" d="M664.9,-159.7C664.9,-151.98 664.9,-142.71 664.9,-134.11"/>
<polygon fill="black" stroke="black" points="668.4,-134.1 664.9,-124.1 661.4,-134.1 668.4,-134.1"/>
</g>
<!-- 22 -->
<g id="node8" class="node">
<title>22</title>
<polygon fill="darkseagreen" stroke="black" points="1241.9,-124 1025.9,-124 1025.9,-88 1241.9,-88 1241.9,-124"/>
<text text-anchor="middle" x="1133.9" y="-102.3" font-family="Times,serif" font-size="14.00">400</text>
</g>
<!-- 11&#45;&gt;22 -->
<g id="edge6" class="edge">
<title>11&#45;&gt;22</title>
<path fill="none" stroke="black" d="M760.66,-162.71C834.39,-151.7 936.71,-136.43 1015.57,-124.66"/>
<polygon fill="black" stroke="black" points="1016.18,-128.11 1025.56,-123.17 1015.15,-121.19 1016.18,-128.11"/>
</g>
<!-- legend_2 -->
<g id="node9" class="node">
<title>legend_2</title>
<polygon fill="darkseagreen" stroke="black" points="1777.4,-124 1556.4,-124 1556.4,-88 1777.4,-88 1777.4,-124"/>
<text text-anchor="middle" x="1666.9" y="-102.3" font-family="Times,serif" font-size="14.00">DT=7 ST=1 Similarity=0.78</text>
</g>
<!-- legend_1&#45;&gt;legend_2 -->
<g id="edge7" class="edge">
<title>legend_1&#45;&gt;legend_2</title>
<path fill="none" stroke="black" d="M1666.9,-159.7C1666.9,-151.98 1666.9,-142.71 1666.9,-134.11"/>
<polygon fill="black" stroke="black" points="1670.4,-134.1 1666.9,-124.1 1663.4,-134.1 1670.4,-134.1"/>
</g>
<!-- 31 -->
<g id="node11" class="node">
<title>31</title>
<ellipse fill="#b9d3ee" stroke="black" cx="427.9" cy="-34" rx="16.8" ry="18"/>
<text text-anchor="middle" x="427.9" y="-30.3" font-family="Times,serif" font-size="14.00">1</text>
</g>
<!-- 20&#45;&gt;31 -->
<g id="edge9" class="edge">
<title>20&#45;&gt;31</title>
<path fill="none" stroke="black" d="M628.61,-99.67C585.6,-92.49 512.37,-77.59 453.9,-52 452.7,-51.48 451.5,-50.9 450.31,-50.29"/>
<polygon fill="black" stroke="black" points="451.84,-47.13 441.45,-45.07 448.29,-53.16 451.84,-47.13"/>
</g>
<!-- 36 -->
<g id="node16" class="node">
<title>36</title>
<ellipse fill="#b9d3ee" stroke="black" cx="479.9" cy="-34" rx="16.8" ry="18"/>
<text text-anchor="middle" x="479.9" y="-30.3" font-family="Times,serif" font-size="14.00">3</text>
</g>
<!-- 20&#45;&gt;36 -->
<g id="edge14" class="edge">
<title>20&#45;&gt;36</title>
<path fill="none" stroke="black" d="M628.82,-95.84C595.9,-86.82 546.37,-71.57 505.9,-52 504.72,-51.43 503.54,-50.82 502.36,-50.18"/>
<polygon fill="black" stroke="black" points="503.91,-47.03 493.54,-44.86 500.3,-53.02 503.91,-47.03"/>
</g>
<!-- 37 -->
<g id="node17" class="node">
<title>37</title>
<ellipse fill="#b9d3ee" stroke="black" cx="531.9" cy="-34" rx="16.8" ry="18"/>
<text text-anchor="middle" x="531.9" y="-30.3" font-family="Times,serif" font-size="14.00">6</text>
</g>
<!-- 20&#45;&gt;37 -->
<g id="edge15" class="edge">
<title>20&#45;&gt;37</title>
<path fill="none" stroke="black" d="M628.67,-88.38C607.68,-78.42 580.93,-65.17 557.9,-52 556.77,-51.35 555.62,-50.68 554.46,-49.98"/>
<polygon fill="black" stroke="black" points="556.07,-46.86 545.74,-44.49 552.34,-52.78 556.07,-46.86"/>
</g>
<!-- 39 -->
<g id="node19" class="node">
<title>39</title>
<ellipse fill="#b9d3ee" stroke="black" cx="583.9" cy="-34" rx="16.8" ry="18"/>
<text text-anchor="middle" x="583.9" y="-30.3" font-family="Times,serif" font-size="14.00">9</text>
</g>
<!-- 20&#45;&gt;39 -->
<g id="edge17" class="edge">
<title>20&#45;&gt;39</title>
<path fill="none" stroke="black" d="M644.88,-87.7C632.58,-77.07 616.86,-63.49 604.47,-52.77"/>
<polygon fill="black" stroke="black" points="606.72,-50.1 596.87,-46.21 602.15,-55.39 606.72,-50.1"/>
</g>
<!-- 310 -->
<g id="node20" class="node">
<title>310</title>
<ellipse fill="#b9d3ee" stroke="black" cx="635.9" cy="-34" rx="16.8" ry="18"/>
<text text-anchor="middle" x="635.9" y="-30.3" font-family="Times,serif" font-size="14.00">9</text>
</g>
<!-- 20&#45;&gt;310 -->
<g id="edge18" class="edge">
<title>20&#45;&gt;310</title>
<path fill="none" stroke="black" d="M657.73,-87.7C654.28,-79.37 650.08,-69.23 646.29,-60.08"/>
<polygon fill="black" stroke="black" points="649.45,-58.57 642.39,-50.67 642.98,-61.25 649.45,-58.57"/>
</g>
<!-- 314 -->
<g id="node24" class="node">
<title>314</title>
<ellipse fill="#b9d3ee" stroke="black" cx="693.9" cy="-34" rx="23" ry="18"/>
<text text-anchor="middle" x="693.9" y="-30.3" font-family="Times,serif" font-size="14.00">22</text>
</g>
<!-- 20&#45;&gt;314 -->
<g id="edge22" class="edge">
<title>20&#45;&gt;314</title>
<path fill="none" stroke="black" d="M672.07,-87.7C675.42,-79.61 679.48,-69.81 683.18,-60.87"/>
<polygon fill="black" stroke="black" points="686.42,-62.2 687.01,-51.62 679.95,-59.52 686.42,-62.2"/>
</g>
<!-- 315 -->
<g id="node25" class="node">
<title>315</title>
<ellipse fill="#b9d3ee" stroke="black" cx="756.9" cy="-34" rx="23" ry="18"/>
<text text-anchor="middle" x="756.9" y="-30.3" font-family="Times,serif" font-size="14.00">23</text>
</g>
<!-- 20&#45;&gt;315 -->
<g id="edge23" class="edge">
<title>20&#45;&gt;315</title>
<path fill="none" stroke="black" d="M687.64,-87.7C701.39,-77.24 718.9,-63.91 732.87,-53.28"/>
<polygon fill="black" stroke="black" points="735.21,-55.9 741.05,-47.06 730.97,-50.33 735.21,-55.9"/>
</g>
<!-- 317 -->
<g id="node27" class="node">
<title>317</title>
<ellipse fill="#b9d3ee" stroke="black" cx="819.9" cy="-34" rx="23" ry="18"/>
<text text-anchor="middle" x="819.9" y="-30.3" font-family="Times,serif" font-size="14.00">37</text>
</g>
<!-- 20&#45;&gt;317 -->
<g id="edge25" class="edge">
<title>20&#45;&gt;317</title>
<path fill="none" stroke="black" d="M701.13,-90.61C726.08,-80.43 759.85,-66.13 788.9,-52 790.24,-51.35 791.61,-50.66 792.99,-49.96"/>
<polygon fill="black" stroke="black" points="794.82,-52.96 802.02,-45.19 791.55,-46.77 794.82,-52.96"/>
</g>
<!-- 318 -->
<g id="node28" class="node">
<title>318</title>
<ellipse fill="#b9d3ee" stroke="black" cx="882.9" cy="-34" rx="23" ry="18"/>
<text text-anchor="middle" x="882.9" y="-30.3" font-family="Times,serif" font-size="14.00">42</text>
</g>
<!-- 20&#45;&gt;318 -->
<g id="edge26" class="edge">
<title>20&#45;&gt;318</title>
<path fill="none" stroke="black" d="M701.21,-97.27C739.49,-88.54 801.16,-72.79 851.9,-52 853.28,-51.43 854.68,-50.82 856.09,-50.17"/>
<polygon fill="black" stroke="black" points="857.84,-53.21 865.2,-45.59 854.7,-46.96 857.84,-53.21"/>
</g>
<!-- 319 -->
<g id="node29" class="node">
<title>319</title>
<ellipse fill="#b9d3ee" stroke="black" cx="945.9" cy="-34" rx="23" ry="18"/>
<text text-anchor="middle" x="945.9" y="-30.3" font-family="Times,serif" font-size="14.00">48</text>
</g>
<!-- 20&#45;&gt;319 -->
<g id="edge27" class="edge">
<title>20&#45;&gt;319</title>
<path fill="none" stroke="black" d="M701.01,-100.72C750.46,-94.11 841.48,-79.24 914.9,-52 916.3,-51.48 917.72,-50.9 919.13,-50.29"/>
<polygon fill="black" stroke="black" points="920.84,-53.35 928.29,-45.81 917.77,-47.06 920.84,-53.35"/>
</g>
<!-- 33 -->
<g id="node13" class="node">
<title>33</title>
<ellipse fill="#b9d3ee" stroke="black" cx="16.9" cy="-34" rx="16.8" ry="18"/>
<text text-anchor="middle" x="16.9" y="-30.3" font-family="Times,serif" font-size="14.00">2</text>
</g>
<!-- 21&#45;&gt;33 -->
<g id="edge11" class="edge">
<title>21&#45;&gt;33</title>
<path fill="none" stroke="black" d="M133.13,-87.97C105.3,-78.77 71.67,-66.35 42.9,-52 41.73,-51.42 40.55,-50.79 39.37,-50.14"/>
<polygon fill="black" stroke="black" points="40.94,-47 30.58,-44.8 37.3,-52.98 40.94,-47"/>
</g>
<!-- 38 -->
<g id="node18" class="node">
<title>38</title>
<ellipse fill="#b9d3ee" stroke="black" cx="68.9" cy="-34" rx="16.8" ry="18"/>
<text text-anchor="middle" x="68.9" y="-30.3" font-family="Times,serif" font-size="14.00">6</text>
</g>
<!-- 21&#45;&gt;38 -->
<g id="edge16" class="edge">
<title>21&#45;&gt;38</title>
<path fill="none" stroke="black" d="M157.91,-87.88C139.33,-77.76 115.58,-64.51 94.9,-52 93.78,-51.32 92.64,-50.63 91.5,-49.91"/>
<polygon fill="black" stroke="black" points="93.13,-46.8 82.82,-44.36 89.35,-52.7 93.13,-46.8"/>
</g>
<!-- 312 -->
<g id="node22" class="node">
<title>312</title>
<ellipse fill="#b9d3ee" stroke="black" cx="126.9" cy="-34" rx="23" ry="18"/>
<text text-anchor="middle" x="126.9" y="-30.3" font-family="Times,serif" font-size="14.00">10</text>
</g>
<!-- 21&#45;&gt;312 -->
<g id="edge20" class="edge">
<title>21&#45;&gt;312</title>
<path fill="none" stroke="black" d="M174.33,-87.7C165.93,-78.37 155.49,-66.76 146.54,-56.82"/>
<polygon fill="black" stroke="black" points="149.04,-54.37 139.75,-49.28 143.84,-59.05 149.04,-54.37"/>
</g>
<!-- 313 -->
<g id="node23" class="node">
<title>313</title>
<ellipse fill="#b9d3ee" stroke="black" cx="189.9" cy="-34" rx="23" ry="18"/>
<text text-anchor="middle" x="189.9" y="-30.3" font-family="Times,serif" font-size="14.00">18</text>
</g>
<!-- 21&#45;&gt;313 -->
<g id="edge21" class="edge">
<title>21&#45;&gt;313</title>
<path fill="none" stroke="black" d="M189.9,-87.7C189.9,-79.98 189.9,-70.71 189.9,-62.11"/>
<polygon fill="black" stroke="black" points="193.4,-62.1 189.9,-52.1 186.4,-62.1 193.4,-62.1"/>
</g>
<!-- 320 -->
<g id="node30" class="node">
<title>320</title>
<ellipse fill="#b9d3ee" stroke="black" cx="266.9" cy="-34" rx="36" ry="18"/>
<text text-anchor="middle" x="266.9" y="-30.3" font-family="Times,serif" font-size="14.00">174</text>
</g>
<!-- 21&#45;&gt;320 -->
<g id="edge28" class="edge">
<title>21&#45;&gt;320</title>
<path fill="none" stroke="black" d="M208.93,-87.7C219.11,-78.44 231.75,-66.95 242.63,-57.06"/>
<polygon fill="black" stroke="black" points="245.13,-59.52 250.18,-50.2 240.42,-54.34 245.13,-59.52"/>
</g>
<!-- 321 -->
<g id="node31" class="node">
<title>321</title>
<ellipse fill="#b9d3ee" stroke="black" cx="356.9" cy="-34" rx="36" ry="18"/>
<text text-anchor="middle" x="356.9" y="-30.3" font-family="Times,serif" font-size="14.00">190</text>
</g>
<!-- 21&#45;&gt;321 -->
<g id="edge29" class="edge">
<title>21&#45;&gt;321</title>
<path fill="none" stroke="black" d="M230.75,-87.88C258.27,-76.34 294.24,-61.26 320.73,-50.16"/>
<polygon fill="black" stroke="black" points="322.15,-53.36 330.02,-46.27 319.45,-46.9 322.15,-53.36"/>
</g>
<!-- 30 -->
<g id="node10" class="node">
<title>30</title>
<ellipse fill="#b9d3ee" stroke="black" cx="1003.9" cy="-34" rx="16.8" ry="18"/>
<text text-anchor="middle" x="1003.9" y="-30.3" font-family="Times,serif" font-size="14.00">1</text>
</g>
<!-- 22&#45;&gt;30 -->
<g id="edge8" class="edge">
<title>22&#45;&gt;30</title>
<path fill="none" stroke="black" d="M1097.77,-87.78C1077.53,-77.84 1051.99,-64.8 1029.9,-52 1028.77,-51.35 1027.62,-50.66 1026.47,-49.96"/>
<polygon fill="black" stroke="black" points="1028.08,-46.84 1017.76,-44.46 1024.34,-52.76 1028.08,-46.84"/>
</g>
<!-- 32 -->
<g id="node12" class="node">
<title>32</title>
<ellipse fill="#b9d3ee" stroke="black" cx="1055.9" cy="-34" rx="16.8" ry="18"/>
<text text-anchor="middle" x="1055.9" y="-30.3" font-family="Times,serif" font-size="14.00">1</text>
</g>
<!-- 22&#45;&gt;32 -->
<g id="edge10" class="edge">
<title>22&#45;&gt;32</title>
<path fill="none" stroke="black" d="M1114.62,-87.7C1102.89,-77.17 1087.93,-63.75 1076.05,-53.08"/>
<polygon fill="black" stroke="black" points="1078.17,-50.28 1068.39,-46.21 1073.49,-55.49 1078.17,-50.28"/>
</g>
<!-- 34 -->
<g id="node14" class="node">
<title>34</title>
<ellipse fill="#b9d3ee" stroke="black" cx="1107.9" cy="-34" rx="16.8" ry="18"/>
<text text-anchor="middle" x="1107.9" y="-30.3" font-family="Times,serif" font-size="14.00">2</text>
</g>
<!-- 22&#45;&gt;34 -->
<g id="edge12" class="edge">
<title>22&#45;&gt;34</title>
<path fill="none" stroke="black" d="M1127.47,-87.7C1124.46,-79.58 1120.8,-69.74 1117.47,-60.76"/>
<polygon fill="black" stroke="black" points="1120.66,-59.3 1113.9,-51.14 1114.1,-61.74 1120.66,-59.3"/>
</g>
<!-- 35 -->
<g id="node15" class="node">
<title>35</title>
<ellipse fill="#b9d3ee" stroke="black" cx="1159.9" cy="-34" rx="16.8" ry="18"/>
<text text-anchor="middle" x="1159.9" y="-30.3" font-family="Times,serif" font-size="14.00">3</text>
</g>
<!-- 22&#45;&gt;35 -->
<g id="edge13" class="edge">
<title>22&#45;&gt;35</title>
<path fill="none" stroke="black" d="M1140.33,-87.7C1143.34,-79.58 1147,-69.74 1150.33,-60.76"/>
<polygon fill="black" stroke="black" points="1153.7,-61.74 1153.9,-51.14 1147.14,-59.3 1153.7,-61.74"/>
</g>
<!-- 311 -->
<g id="node21" class="node">
<title>311</title>
<ellipse fill="#b9d3ee" stroke="black" cx="1217.9" cy="-34" rx="23" ry="18"/>
<text text-anchor="middle" x="1217.9" y="-30.3" font-family="Times,serif" font-size="14.00">10</text>
</g>
<!-- 22&#45;&gt;311 -->
<g id="edge19" class="edge">
<title>22&#45;&gt;311</title>
<path fill="none" stroke="black" d="M1154.66,-87.7C1166.86,-77.53 1182.29,-64.67 1194.86,-54.2"/>
<polygon fill="black" stroke="black" points="1197.2,-56.8 1202.65,-47.71 1192.72,-51.42 1197.2,-56.8"/>
</g>
<!-- 316 -->
<g id="node26" class="node">
<title>316</title>
<ellipse fill="#b9d3ee" stroke="black" cx="1280.9" cy="-34" rx="23" ry="18"/>
<text text-anchor="middle" x="1280.9" y="-30.3" font-family="Times,serif" font-size="14.00">36</text>
</g>
<!-- 22&#45;&gt;316 -->
<g id="edge24" class="edge">
<title>22&#45;&gt;316</title>
<path fill="none" stroke="black" d="M1173.17,-87.92C1195.79,-77.86 1224.67,-64.66 1249.9,-52 1251.24,-51.33 1252.6,-50.63 1253.97,-49.92"/>
<polygon fill="black" stroke="black" points="1255.81,-52.91 1262.98,-45.11 1252.51,-46.73 1255.81,-52.91"/>
</g>
<!-- 322 -->
<g id="node32" class="node">
<title>322</title>
<ellipse fill="#b9d3ee" stroke="black" cx="1429.9" cy="-34" rx="108" ry="18"/>
<text text-anchor="middle" x="1429.9" y="-30.3" font-family="Times,serif" font-size="14.00">347</text>
</g>
<!-- 22&#45;&gt;322 -->
<g id="edge30" class="edge">
<title>22&#45;&gt;322</title>
<path fill="none" stroke="black" d="M1205.93,-87.97C1252.96,-76.84 1314.03,-62.4 1360.52,-51.41"/>
<polygon fill="black" stroke="black" points="1361.58,-54.75 1370.51,-49.04 1359.97,-47.94 1361.58,-54.75"/>
</g>
<!-- legend_3 -->
<g id="node33" class="node">
<title>legend_3</title>
<polygon fill="#b9d3ee" stroke="black" points="1777.4,-52 1556.4,-52 1556.4,-16 1777.4,-16 1777.4,-52"/>
<text text-anchor="middle" x="1666.9" y="-30.3" font-family="Times,serif" font-size="14.00">DT=8 ST=1 Similarity=0.52</text>
</g>
<!-- legend_2&#45;&gt;legend_3 -->
<g id="edge31" class="edge">
<title>legend_2&#45;&gt;legend_3</title>
<path fill="none" stroke="black" d="M1666.9,-87.7C1666.9,-79.98 1666.9,-70.71 1666.9,-62.11"/>
<polygon fill="black" stroke="black" points="1670.4,-62.1 1666.9,-52.1 1663.4,-62.1 1670.4,-62.1"/>
</g>
</g>
</svg>
