<?xml version="1.0" encoding="UTF-8" standalone="no"?>
<!DOCTYPE svg PUBLIC "-//W3C//DTD SVG 1.1//EN"
 "http://www.w3.org/Graphics/SVG/1.1/DTD/svg11.dtd">
<!-- Generated by graphviz version 2.43.0 (0)
 -->
<!-- Title: %3 Pages: 1 -->
<svg width="1767pt" height="353pt"
 viewBox="0.00 0.00 1766.90 353.00" xmlns="http://www.w3.org/2000/svg" xmlns:xlink="http://www.w3.org/1999/xlink">
<g id="graph0" class="graph" transform="scale(1 1) rotate(0) translate(4 349)">
<title>%3</title>
<polygon fill="white" stroke="transparent" points="-4,4 -4,-349 1762.9,-349 1762.9,4 -4,4"/>
<text text-anchor="middle" x="879.45" y="-329.8" font-family="Times,serif" font-size="14.00">ConsTree</text>
<text text-anchor="middle" x="879.45" y="-314.8" font-family="Times,serif" font-size="14.00">Tree Quality = 0.625</text>
<g id="clust1" class="cluster">
<title>cluster</title>
<polygon fill="none" stroke="black" points="1514.9,-8 1514.9,-299 1750.9,-299 1750.9,-8 1514.9,-8"/>
<text text-anchor="middle" x="1632.9" y="-283.8" font-family="Times,serif" font-size="14.00">Legend</text>
</g>
<!-- 00 -->
<g id="node1" class="node">
<title>00</title>
<ellipse fill="#b9d3ee" stroke="black" cx="438.9" cy="-250" rx="324" ry="18"/>
<text text-anchor="middle" x="438.9" y="-246.3" font-family="Times,serif" font-size="14.00">1000</text>
</g>
<!-- 10 -->
<g id="node3" class="node">
<title>10</title>
<ellipse fill="#b9d3ee" stroke="black" cx="285.9" cy="-178" rx="108" ry="18"/>
<text text-anchor="middle" x="285.9" y="-174.3" font-family="Times,serif" font-size="14.00">400</text>
</g>
<!-- 00&#45;&gt;10 -->
<g id="edge1" class="edge">
<title>00&#45;&gt;10</title>
<path fill="none" stroke="black" d="M401.86,-232.05C380.25,-222.17 352.86,-209.64 330.12,-199.23"/>
<polygon fill="black" stroke="black" points="331.57,-196.05 321.02,-195.07 328.66,-202.41 331.57,-196.05"/>
</g>
<!-- 11 -->
<g id="node4" class="node">
<title>11</title>
<ellipse fill="#b9d3ee" stroke="black" cx="687.9" cy="-178" rx="180" ry="18"/>
<text text-anchor="middle" x="687.9" y="-174.3" font-family="Times,serif" font-size="14.00">600</text>
</g>
<!-- 00&#45;&gt;11 -->
<g id="edge2" class="edge">
<title>00&#45;&gt;11</title>
<path fill="none" stroke="black" d="M498.54,-232.23C535.26,-221.91 582.41,-208.65 620.48,-197.95"/>
<polygon fill="black" stroke="black" points="621.78,-201.22 630.46,-195.15 619.88,-194.49 621.78,-201.22"/>
</g>
<!-- legend_0 -->
<g id="node2" class="node">
<title>legend_0</title>
<polygon fill="#b9d3ee" stroke="black" points="1743.4,-268 1522.4,-268 1522.4,-232 1743.4,-232 1743.4,-268"/>
<text text-anchor="middle" x="1632.9" y="-246.3" font-family="Times,serif" font-size="14.00">DT=4 ST=4 Similarity=0.38</text>
</g>
<!-- legend_1 -->
<g id="node5" class="node">
<title>legend_1</title>
<polygon fill="#b9d3ee" stroke="black" points="1743.4,-196 1522.4,-196 1522.4,-160 1743.4,-160 1743.4,-196"/>
<text text-anchor="middle" x="1632.9" y="-174.3" font-family="Times,serif" font-size="14.00">DT=6 ST=2 Similarity=0.68</text>
</g>
<!-- legend_0&#45;&gt;legend_1 -->
<g id="edge3" class="edge">
<title>legend_0&#45;&gt;legend_1</title>
<path fill="none" stroke="black" d="M1632.9,-231.7C1632.9,-223.98 1632.9,-214.71 1632.9,-206.11"/>
<polygon fill="black" stroke="black" points="1636.4,-206.1 1632.9,-196.1 1629.4,-206.1 1636.4,-206.1"/>
</g>
<!-- 21 -->
<g id="node7" class="node">
<title>21</title>
<polygon fill="darkseagreen" stroke="black" points="297.9,-124 81.9,-124 81.9,-88 297.9,-88 297.9,-124"/>
<text text-anchor="middle" x="189.9" y="-102.3" font-family="Times,serif" font-size="14.00">400</text>
</g>
<!-- 10&#45;&gt;21 -->
<g id="edge5" class="edge">
<title>10&#45;&gt;21</title>
<path fill="none" stroke="black" d="M262.66,-160.05C250.25,-151.01 234.81,-139.74 221.34,-129.93"/>
<polygon fill="black" stroke="black" points="223.4,-127.1 213.26,-124.03 219.27,-132.75 223.4,-127.1"/>
</g>
<!-- 20 -->
<g id="node6" class="node">
<title>20</title>
<polygon fill="darkseagreen" stroke="black" points="723.9,-124 651.9,-124 651.9,-88 723.9,-88 723.9,-124"/>
<text text-anchor="middle" x="687.9" y="-102.3" font-family="Times,serif" font-size="14.00">200</text>
</g>
<!-- 11&#45;&gt;20 -->
<g id="edge4" class="edge">
<title>11&#45;&gt;20</title>
<path fill="none" stroke="black" d="M687.9,-159.7C687.9,-151.98 687.9,-142.71 687.9,-134.11"/>
<polygon fill="black" stroke="black" points="691.4,-134.1 687.9,-124.1 684.4,-134.1 691.4,-134.1"/>
</g>
<!-- 22 -->
<g id="node8" class="node">
<title>22</title>
<polygon fill="darkseagreen" stroke="black" points="1256.9,-124 1040.9,-124 1040.9,-88 1256.9,-88 1256.9,-124"/>
<text text-anchor="middle" x="1148.9" y="-102.3" font-family="Times,serif" font-size="14.00">400</text>
</g>
<!-- 11&#45;&gt;22 -->
<g id="edge6" class="edge">
<title>11&#45;&gt;22</title>
<path fill="none" stroke="black" d="M782.3,-162.67C854.15,-151.76 953.49,-136.67 1030.63,-124.96"/>
<polygon fill="black" stroke="black" points="1031.52,-128.36 1040.88,-123.4 1030.47,-121.44 1031.52,-128.36"/>
</g>
<!-- legend_2 -->
<g id="node9" class="node">
<title>legend_2</title>
<polygon fill="darkseagreen" stroke="black" points="1738.9,-124 1526.9,-124 1526.9,-88 1738.9,-88 1738.9,-124"/>
<text text-anchor="middle" x="1632.9" y="-102.3" font-family="Times,serif" font-size="14.00">DT=7 ST=1 Similarity=0.8</text>
</g>
<!-- legend_1&#45;&gt;legend_2 -->
<g id="edge7" class="edge">
<title>legend_1&#45;&gt;legend_2</title>
<path fill="none" stroke="black" d="M1632.9,-159.7C1632.9,-151.98 1632.9,-142.71 1632.9,-134.11"/>
<polygon fill="black" stroke="black" points="1636.4,-134.1 1632.9,-124.1 1629.4,-134.1 1636.4,-134.1"/>
</g>
<!-- 31 -->
<g id="node11" class="node">
<title>31</title>
<ellipse fill="#b9d3ee" stroke="black" cx="427.9" cy="-34" rx="16.8" ry="18"/>
<text text-anchor="middle" x="427.9" y="-30.3" font-family="Times,serif" font-size="14.00">1</text>
</g>
<!-- 20&#45;&gt;31 -->
<g id="edge9" class="edge">
<title>20&#45;&gt;31</title>
<path fill="none" stroke="black" d="M651.79,-100.88C604.75,-94.6 520.63,-80.28 453.9,-52 452.7,-51.49 451.49,-50.93 450.29,-50.32"/>
<polygon fill="black" stroke="black" points="451.82,-47.16 441.42,-45.14 448.29,-53.2 451.82,-47.16"/>
</g>
<!-- 32 -->
<g id="node12" class="node">
<title>32</title>
<ellipse fill="#b9d3ee" stroke="black" cx="479.9" cy="-34" rx="16.8" ry="18"/>
<text text-anchor="middle" x="479.9" y="-30.3" font-family="Times,serif" font-size="14.00">1</text>
</g>
<!-- 20&#45;&gt;32 -->
<g id="edge10" class="edge">
<title>20&#45;&gt;32</title>
<path fill="none" stroke="black" d="M651.89,-97.82C614.35,-89.59 554.33,-74.28 505.9,-52 504.71,-51.45 503.52,-50.86 502.33,-50.23"/>
<polygon fill="black" stroke="black" points="503.88,-47.08 493.49,-44.97 500.29,-53.09 503.88,-47.08"/>
</g>
<!-- 35 -->
<g id="node15" class="node">
<title>35</title>
<ellipse fill="#b9d3ee" stroke="black" cx="531.9" cy="-34" rx="16.8" ry="18"/>
<text text-anchor="middle" x="531.9" y="-30.3" font-family="Times,serif" font-size="14.00">2</text>
</g>
<!-- 20&#45;&gt;35 -->
<g id="edge13" class="edge">
<title>20&#45;&gt;35</title>
<path fill="none" stroke="black" d="M651.75,-92.39C625.19,-82.63 588.55,-68.08 557.9,-52 556.74,-51.39 555.57,-50.75 554.4,-50.08"/>
<polygon fill="black" stroke="black" points="555.98,-46.95 545.63,-44.68 552.31,-52.91 555.98,-46.95"/>
</g>
<!-- 37 -->
<g id="node17" class="node">
<title>37</title>
<ellipse fill="#b9d3ee" stroke="black" cx="583.9" cy="-34" rx="16.8" ry="18"/>
<text text-anchor="middle" x="583.9" y="-30.3" font-family="Times,serif" font-size="14.00">4</text>
</g>
<!-- 20&#45;&gt;37 -->
<g id="edge15" class="edge">
<title>20&#45;&gt;37</title>
<path fill="none" stroke="black" d="M662.46,-87.88C645.31,-76.33 622.89,-61.24 606.39,-50.14"/>
<polygon fill="black" stroke="black" points="608.16,-47.11 597.91,-44.43 604.25,-52.92 608.16,-47.11"/>
</g>
<!-- 38 -->
<g id="node18" class="node">
<title>38</title>
<ellipse fill="#b9d3ee" stroke="black" cx="635.9" cy="-34" rx="16.8" ry="18"/>
<text text-anchor="middle" x="635.9" y="-30.3" font-family="Times,serif" font-size="14.00">5</text>
</g>
<!-- 20&#45;&gt;38 -->
<g id="edge16" class="edge">
<title>20&#45;&gt;38</title>
<path fill="none" stroke="black" d="M675.04,-87.7C668.16,-78.43 659.6,-66.91 652.25,-57.01"/>
<polygon fill="black" stroke="black" points="654.94,-54.76 646.17,-48.82 649.32,-58.94 654.94,-54.76"/>
</g>
<!-- 312 -->
<g id="node22" class="node">
<title>312</title>
<ellipse fill="#b9d3ee" stroke="black" cx="687.9" cy="-34" rx="16.8" ry="18"/>
<text text-anchor="middle" x="687.9" y="-30.3" font-family="Times,serif" font-size="14.00">7</text>
</g>
<!-- 20&#45;&gt;312 -->
<g id="edge20" class="edge">
<title>20&#45;&gt;312</title>
<path fill="none" stroke="black" d="M687.9,-87.7C687.9,-79.98 687.9,-70.71 687.9,-62.11"/>
<polygon fill="black" stroke="black" points="691.4,-62.1 687.9,-52.1 684.4,-62.1 691.4,-62.1"/>
</g>
<!-- 313 -->
<g id="node23" class="node">
<title>313</title>
<ellipse fill="#b9d3ee" stroke="black" cx="739.9" cy="-34" rx="16.8" ry="18"/>
<text text-anchor="middle" x="739.9" y="-30.3" font-family="Times,serif" font-size="14.00">8</text>
</g>
<!-- 20&#45;&gt;313 -->
<g id="edge21" class="edge">
<title>20&#45;&gt;313</title>
<path fill="none" stroke="black" d="M700.75,-87.7C707.64,-78.43 716.19,-66.91 723.55,-57.01"/>
<polygon fill="black" stroke="black" points="726.48,-58.94 729.63,-48.82 720.86,-54.76 726.48,-58.94"/>
</g>
<!-- 316 -->
<g id="node26" class="node">
<title>316</title>
<ellipse fill="#b9d3ee" stroke="black" cx="797.9" cy="-34" rx="23" ry="18"/>
<text text-anchor="middle" x="797.9" y="-30.3" font-family="Times,serif" font-size="14.00">24</text>
</g>
<!-- 20&#45;&gt;316 -->
<g id="edge24" class="edge">
<title>20&#45;&gt;316</title>
<path fill="none" stroke="black" d="M714.81,-87.88C732.25,-76.78 754.84,-62.4 772.06,-51.44"/>
<polygon fill="black" stroke="black" points="773.97,-54.38 780.52,-46.06 770.21,-48.47 773.97,-54.38"/>
</g>
<!-- 317 -->
<g id="node27" class="node">
<title>317</title>
<ellipse fill="#b9d3ee" stroke="black" cx="860.9" cy="-34" rx="23" ry="18"/>
<text text-anchor="middle" x="860.9" y="-30.3" font-family="Times,serif" font-size="14.00">27</text>
</g>
<!-- 20&#45;&gt;317 -->
<g id="edge25" class="edge">
<title>20&#45;&gt;317</title>
<path fill="none" stroke="black" d="M724.08,-93.12C753.13,-83.19 794.73,-68.1 829.9,-52 831.26,-51.38 832.64,-50.72 834.03,-50.04"/>
<polygon fill="black" stroke="black" points="835.83,-53.05 843.09,-45.34 832.6,-46.83 835.83,-53.05"/>
</g>
<!-- 318 -->
<g id="node28" class="node">
<title>318</title>
<ellipse fill="#b9d3ee" stroke="black" cx="923.9" cy="-34" rx="23" ry="18"/>
<text text-anchor="middle" x="923.9" y="-30.3" font-family="Times,serif" font-size="14.00">35</text>
</g>
<!-- 20&#45;&gt;318 -->
<g id="edge26" class="edge">
<title>20&#45;&gt;318</title>
<path fill="none" stroke="black" d="M723.93,-98.51C765.56,-90.37 835.66,-74.68 892.9,-52 894.29,-51.45 895.7,-50.85 897.1,-50.21"/>
<polygon fill="black" stroke="black" points="898.84,-53.26 906.23,-45.67 895.72,-46.99 898.84,-53.26"/>
</g>
<!-- 319 -->
<g id="node29" class="node">
<title>319</title>
<ellipse fill="#b9d3ee" stroke="black" cx="986.9" cy="-34" rx="23" ry="18"/>
<text text-anchor="middle" x="986.9" y="-30.3" font-family="Times,serif" font-size="14.00">86</text>
</g>
<!-- 20&#45;&gt;319 -->
<g id="edge27" class="edge">
<title>20&#45;&gt;319</title>
<path fill="none" stroke="black" d="M723.95,-101.42C776.31,-95.43 875.88,-81.07 955.9,-52 957.3,-51.49 958.72,-50.92 960.14,-50.31"/>
<polygon fill="black" stroke="black" points="961.84,-53.38 969.31,-45.86 958.78,-47.08 961.84,-53.38"/>
</g>
<!-- 34 -->
<g id="node14" class="node">
<title>34</title>
<ellipse fill="#b9d3ee" stroke="black" cx="16.9" cy="-34" rx="16.8" ry="18"/>
<text text-anchor="middle" x="16.9" y="-30.3" font-family="Times,serif" font-size="14.00">2</text>
</g>
<!-- 21&#45;&gt;34 -->
<g id="edge12" class="edge">
<title>21&#45;&gt;34</title>
<path fill="none" stroke="black" d="M133.13,-87.97C105.3,-78.77 71.67,-66.35 42.9,-52 41.73,-51.42 40.55,-50.79 39.37,-50.14"/>
<polygon fill="black" stroke="black" points="40.94,-47 30.58,-44.8 37.3,-52.98 40.94,-47"/>
</g>
<!-- 310 -->
<g id="node20" class="node">
<title>310</title>
<ellipse fill="#b9d3ee" stroke="black" cx="68.9" cy="-34" rx="16.8" ry="18"/>
<text text-anchor="middle" x="68.9" y="-30.3" font-family="Times,serif" font-size="14.00">6</text>
</g>
<!-- 21&#45;&gt;310 -->
<g id="edge18" class="edge">
<title>21&#45;&gt;310</title>
<path fill="none" stroke="black" d="M157.91,-87.88C139.33,-77.76 115.58,-64.51 94.9,-52 93.78,-51.32 92.64,-50.63 91.5,-49.91"/>
<polygon fill="black" stroke="black" points="93.13,-46.8 82.82,-44.36 89.35,-52.7 93.13,-46.8"/>
</g>
<!-- 314 -->
<g id="node24" class="node">
<title>314</title>
<ellipse fill="#b9d3ee" stroke="black" cx="126.9" cy="-34" rx="23" ry="18"/>
<text text-anchor="middle" x="126.9" y="-30.3" font-family="Times,serif" font-size="14.00">10</text>
</g>
<!-- 21&#45;&gt;314 -->
<g id="edge22" class="edge">
<title>21&#45;&gt;314</title>
<path fill="none" stroke="black" d="M174.33,-87.7C165.93,-78.37 155.49,-66.76 146.54,-56.82"/>
<polygon fill="black" stroke="black" points="149.04,-54.37 139.75,-49.28 143.84,-59.05 149.04,-54.37"/>
</g>
<!-- 315 -->
<g id="node25" class="node">
<title>315</title>
<ellipse fill="#b9d3ee" stroke="black" cx="189.9" cy="-34" rx="23" ry="18"/>
<text text-anchor="middle" x="189.9" y="-30.3" font-family="Times,serif" font-size="14.00">18</text>
</g>
<!-- 21&#45;&gt;315 -->
<g id="edge23" class="edge">
<title>21&#45;&gt;315</title>
<path fill="none" stroke="black" d="M189.9,-87.7C189.9,-79.98 189.9,-70.71 189.9,-62.11"/>
<polygon fill="black" stroke="black" points="193.4,-62.1 189.9,-52.1 186.4,-62.1 193.4,-62.1"/>
</g>
<!-- 320 -->
<g id="node30" class="node">
<title>320</title>
<ellipse fill="#b9d3ee" stroke="black" cx="266.9" cy="-34" rx="36" ry="18"/>
<text text-anchor="middle" x="266.9" y="-30.3" font-family="Times,serif" font-size="14.00">174</text>
</g>
<!-- 21&#45;&gt;320 -->
<g id="edge28" class="edge">
<title>21&#45;&gt;320</title>
<path fill="none" stroke="black" d="M208.93,-87.7C219.11,-78.44 231.75,-66.95 242.63,-57.06"/>
<polygon fill="black" stroke="black" points="245.13,-59.52 250.18,-50.2 240.42,-54.34 245.13,-59.52"/>
</g>
<!-- 321 -->
<g id="node31" class="node">
<title>321</title>
<ellipse fill="#b9d3ee" stroke="black" cx="356.9" cy="-34" rx="36" ry="18"/>
<text text-anchor="middle" x="356.9" y="-30.3" font-family="Times,serif" font-size="14.00">190</text>
</g>
<!-- 21&#45;&gt;321 -->
<g id="edge29" class="edge">
<title>21&#45;&gt;321</title>
<path fill="none" stroke="black" d="M230.75,-87.88C258.27,-76.34 294.24,-61.26 320.73,-50.16"/>
<polygon fill="black" stroke="black" points="322.15,-53.36 330.02,-46.27 319.45,-46.9 322.15,-53.36"/>
</g>
<!-- 30 -->
<g id="node10" class="node">
<title>30</title>
<ellipse fill="#b9d3ee" stroke="black" cx="1044.9" cy="-34" rx="16.8" ry="18"/>
<text text-anchor="middle" x="1044.9" y="-30.3" font-family="Times,serif" font-size="14.00">1</text>
</g>
<!-- 22&#45;&gt;30 -->
<g id="edge8" class="edge">
<title>22&#45;&gt;30</title>
<path fill="none" stroke="black" d="M1123.46,-87.88C1106.31,-76.33 1083.89,-61.24 1067.39,-50.14"/>
<polygon fill="black" stroke="black" points="1069.16,-47.11 1058.91,-44.43 1065.25,-52.92 1069.16,-47.11"/>
</g>
<!-- 33 -->
<g id="node13" class="node">
<title>33</title>
<ellipse fill="#b9d3ee" stroke="black" cx="1096.9" cy="-34" rx="16.8" ry="18"/>
<text text-anchor="middle" x="1096.9" y="-30.3" font-family="Times,serif" font-size="14.00">1</text>
</g>
<!-- 22&#45;&gt;33 -->
<g id="edge11" class="edge">
<title>22&#45;&gt;33</title>
<path fill="none" stroke="black" d="M1136.04,-87.7C1129.16,-78.43 1120.6,-66.91 1113.25,-57.01"/>
<polygon fill="black" stroke="black" points="1115.94,-54.76 1107.17,-48.82 1110.32,-58.94 1115.94,-54.76"/>
</g>
<!-- 36 -->
<g id="node16" class="node">
<title>36</title>
<ellipse fill="#b9d3ee" stroke="black" cx="1148.9" cy="-34" rx="16.8" ry="18"/>
<text text-anchor="middle" x="1148.9" y="-30.3" font-family="Times,serif" font-size="14.00">3</text>
</g>
<!-- 22&#45;&gt;36 -->
<g id="edge14" class="edge">
<title>22&#45;&gt;36</title>
<path fill="none" stroke="black" d="M1148.9,-87.7C1148.9,-79.98 1148.9,-70.71 1148.9,-62.11"/>
<polygon fill="black" stroke="black" points="1152.4,-62.1 1148.9,-52.1 1145.4,-62.1 1152.4,-62.1"/>
</g>
<!-- 39 -->
<g id="node19" class="node">
<title>39</title>
<ellipse fill="#b9d3ee" stroke="black" cx="1200.9" cy="-34" rx="16.8" ry="18"/>
<text text-anchor="middle" x="1200.9" y="-30.3" font-family="Times,serif" font-size="14.00">6</text>
</g>
<!-- 22&#45;&gt;39 -->
<g id="edge17" class="edge">
<title>22&#45;&gt;39</title>
<path fill="none" stroke="black" d="M1161.75,-87.7C1168.64,-78.43 1177.19,-66.91 1184.55,-57.01"/>
<polygon fill="black" stroke="black" points="1187.48,-58.94 1190.63,-48.82 1181.86,-54.76 1187.48,-58.94"/>
</g>
<!-- 311 -->
<g id="node21" class="node">
<title>311</title>
<ellipse fill="#b9d3ee" stroke="black" cx="1252.9" cy="-34" rx="16.8" ry="18"/>
<text text-anchor="middle" x="1252.9" y="-30.3" font-family="Times,serif" font-size="14.00">6</text>
</g>
<!-- 22&#45;&gt;311 -->
<g id="edge19" class="edge">
<title>22&#45;&gt;311</title>
<path fill="none" stroke="black" d="M1174.34,-87.88C1191.49,-76.33 1213.91,-61.24 1230.4,-50.14"/>
<polygon fill="black" stroke="black" points="1232.55,-52.92 1238.89,-44.43 1228.64,-47.11 1232.55,-52.92"/>
</g>
<!-- 322 -->
<g id="node32" class="node">
<title>322</title>
<ellipse fill="#b9d3ee" stroke="black" cx="1395.9" cy="-34" rx="108" ry="18"/>
<text text-anchor="middle" x="1395.9" y="-30.3" font-family="Times,serif" font-size="14.00">383</text>
</g>
<!-- 22&#45;&gt;322 -->
<g id="edge30" class="edge">
<title>22&#45;&gt;322</title>
<path fill="none" stroke="black" d="M1209.01,-87.97C1246.76,-77.27 1295.35,-63.49 1333.53,-52.68"/>
<polygon fill="black" stroke="black" points="1334.83,-55.94 1343.5,-49.85 1332.92,-49.21 1334.83,-55.94"/>
</g>
<!-- legend_3 -->
<g id="node33" class="node">
<title>legend_3</title>
<polygon fill="#b9d3ee" stroke="black" points="1743.4,-52 1522.4,-52 1522.4,-16 1743.4,-16 1743.4,-52"/>
<text text-anchor="middle" x="1632.9" y="-30.3" font-family="Times,serif" font-size="14.00">DT=8 ST=1 Similarity=0.59</text>
</g>
<!-- legend_2&#45;&gt;legend_3 -->
<g id="edge31" class="edge">
<title>legend_2&#45;&gt;legend_3</title>
<path fill="none" stroke="black" d="M1632.9,-87.7C1632.9,-79.98 1632.9,-70.71 1632.9,-62.11"/>
<polygon fill="black" stroke="black" points="1636.4,-62.1 1632.9,-52.1 1629.4,-62.1 1636.4,-62.1"/>
</g>
</g>
</svg>
