<?xml version="1.0" encoding="UTF-8" standalone="no"?>
<!DOCTYPE svg PUBLIC "-//W3C//DTD SVG 1.1//EN"
 "http://www.w3.org/Graphics/SVG/1.1/DTD/svg11.dtd">
<!-- Generated by graphviz version 2.43.0 (0)
 -->
<!-- Title: %3 Pages: 1 -->
<svg width="1572pt" height="425pt"
 viewBox="0.00 0.00 1571.90 425.00" xmlns="http://www.w3.org/2000/svg" xmlns:xlink="http://www.w3.org/1999/xlink">
<g id="graph0" class="graph" transform="scale(1 1) rotate(0) translate(4 421)">
<title>%3</title>
<polygon fill="white" stroke="transparent" points="-4,4 -4,-421 1567.9,-421 1567.9,4 -4,4"/>
<text text-anchor="middle" x="781.95" y="-401.8" font-family="Times,serif" font-size="14.00">ConsTree</text>
<text text-anchor="middle" x="781.95" y="-386.8" font-family="Times,serif" font-size="14.00">Tree Quality = 0.625</text>
<g id="clust1" class="cluster">
<title>cluster</title>
<polygon fill="none" stroke="black" points="1319.9,-8 1319.9,-371 1555.9,-371 1555.9,-8 1319.9,-8"/>
<text text-anchor="middle" x="1437.9" y="-355.8" font-family="Times,serif" font-size="14.00">Legend</text>
</g>
<!-- 00 -->
<g id="node1" class="node">
<title>00</title>
<ellipse fill="#b9d3ee" stroke="black" cx="487.9" cy="-322" rx="324" ry="18"/>
<text text-anchor="middle" x="487.9" y="-318.3" font-family="Times,serif" font-size="14.00">1000</text>
</g>
<!-- 10 -->
<g id="node3" class="node">
<title>10</title>
<ellipse fill="#b9d3ee" stroke="black" cx="334.9" cy="-250" rx="108" ry="18"/>
<text text-anchor="middle" x="334.9" y="-246.3" font-family="Times,serif" font-size="14.00">400</text>
</g>
<!-- 00&#45;&gt;10 -->
<g id="edge1" class="edge">
<title>00&#45;&gt;10</title>
<path fill="none" stroke="black" d="M450.86,-304.05C429.25,-294.17 401.86,-281.64 379.12,-271.23"/>
<polygon fill="black" stroke="black" points="380.57,-268.05 370.02,-267.07 377.66,-274.41 380.57,-268.05"/>
</g>
<!-- 11 -->
<g id="node4" class="node">
<title>11</title>
<ellipse fill="#b9d3ee" stroke="black" cx="640.9" cy="-250" rx="180" ry="18"/>
<text text-anchor="middle" x="640.9" y="-246.3" font-family="Times,serif" font-size="14.00">600</text>
</g>
<!-- 00&#45;&gt;11 -->
<g id="edge2" class="edge">
<title>00&#45;&gt;11</title>
<path fill="none" stroke="black" d="M524.94,-304.05C546.06,-294.39 572.72,-282.19 595.14,-271.93"/>
<polygon fill="black" stroke="black" points="596.83,-275.01 604.47,-267.67 593.92,-268.65 596.83,-275.01"/>
</g>
<!-- legend_0 -->
<g id="node2" class="node">
<title>legend_0</title>
<polygon fill="#b9d3ee" stroke="black" points="1548.4,-340 1327.4,-340 1327.4,-304 1548.4,-304 1548.4,-340"/>
<text text-anchor="middle" x="1437.9" y="-318.3" font-family="Times,serif" font-size="14.00">DT=4 ST=4 Similarity=0.37</text>
</g>
<!-- legend_1 -->
<g id="node5" class="node">
<title>legend_1</title>
<polygon fill="#b9d3ee" stroke="black" points="1548.4,-268 1327.4,-268 1327.4,-232 1548.4,-232 1548.4,-268"/>
<text text-anchor="middle" x="1437.9" y="-246.3" font-family="Times,serif" font-size="14.00">DT=5 ST=1 Similarity=0.67</text>
</g>
<!-- legend_0&#45;&gt;legend_1 -->
<g id="edge3" class="edge">
<title>legend_0&#45;&gt;legend_1</title>
<path fill="none" stroke="black" d="M1437.9,-303.7C1437.9,-295.98 1437.9,-286.71 1437.9,-278.11"/>
<polygon fill="black" stroke="black" points="1441.4,-278.1 1437.9,-268.1 1434.4,-278.1 1441.4,-278.1"/>
</g>
<!-- 20 -->
<g id="node6" class="node">
<title>20</title>
<polygon fill="darkseagreen" stroke="black" points="478.9,-196 190.9,-196 190.9,-160 478.9,-160 478.9,-196"/>
<text text-anchor="middle" x="334.9" y="-174.3" font-family="Times,serif" font-size="14.00">446</text>
</g>
<!-- 10&#45;&gt;20 -->
<g id="edge4" class="edge">
<title>10&#45;&gt;20</title>
<path fill="none" stroke="black" d="M334.9,-231.7C334.9,-223.98 334.9,-214.71 334.9,-206.11"/>
<polygon fill="black" stroke="black" points="338.4,-206.1 334.9,-196.1 331.4,-206.1 338.4,-206.1"/>
</g>
<!-- 11&#45;&gt;20 -->
<g id="edge5" class="edge">
<title>11&#45;&gt;20</title>
<path fill="none" stroke="black" d="M572.23,-233.29C526.89,-222.92 467.19,-209.26 419.01,-198.24"/>
<polygon fill="black" stroke="black" points="419.76,-194.82 409.23,-196 418.2,-201.65 419.76,-194.82"/>
</g>
<!-- 21 -->
<g id="node7" class="node">
<title>21</title>
<polygon fill="darkseagreen" stroke="black" points="1100.9,-196 884.9,-196 884.9,-160 1100.9,-160 1100.9,-196"/>
<text text-anchor="middle" x="992.9" y="-174.3" font-family="Times,serif" font-size="14.00">400</text>
</g>
<!-- 11&#45;&gt;21 -->
<g id="edge6" class="edge">
<title>11&#45;&gt;21</title>
<path fill="none" stroke="black" d="M718.15,-233.64C770.84,-223.16 840.99,-209.21 897.22,-198.03"/>
<polygon fill="black" stroke="black" points="898.07,-201.43 907.19,-196.04 896.7,-194.56 898.07,-201.43"/>
</g>
<!-- 22 -->
<g id="node8" class="node">
<title>22</title>
<polygon fill="darkseagreen" stroke="black" points="676.9,-196 604.9,-196 604.9,-160 676.9,-160 676.9,-196"/>
<text text-anchor="middle" x="640.9" y="-174.3" font-family="Times,serif" font-size="14.00">154</text>
</g>
<!-- 11&#45;&gt;22 -->
<g id="edge7" class="edge">
<title>11&#45;&gt;22</title>
<path fill="none" stroke="black" d="M640.9,-231.7C640.9,-223.98 640.9,-214.71 640.9,-206.11"/>
<polygon fill="black" stroke="black" points="644.4,-206.1 640.9,-196.1 637.4,-206.1 644.4,-206.1"/>
</g>
<!-- legend_2 -->
<g id="node9" class="node">
<title>legend_2</title>
<polygon fill="darkseagreen" stroke="black" points="1548.4,-196 1327.4,-196 1327.4,-160 1548.4,-160 1548.4,-196"/>
<text text-anchor="middle" x="1437.9" y="-174.3" font-family="Times,serif" font-size="14.00">DT=6 ST=1 Similarity=0.75</text>
</g>
<!-- legend_1&#45;&gt;legend_2 -->
<g id="edge8" class="edge">
<title>legend_1&#45;&gt;legend_2</title>
<path fill="none" stroke="black" d="M1437.9,-231.7C1437.9,-223.98 1437.9,-214.71 1437.9,-206.11"/>
<polygon fill="black" stroke="black" points="1441.4,-206.1 1437.9,-196.1 1434.4,-206.1 1441.4,-206.1"/>
</g>
<!-- 30 -->
<g id="node10" class="node">
<title>30</title>
<ellipse fill="#b9d3ee" stroke="black" cx="291.9" cy="-106" rx="144" ry="18"/>
<text text-anchor="middle" x="291.9" y="-102.3" font-family="Times,serif" font-size="14.00">514</text>
</g>
<!-- 20&#45;&gt;30 -->
<g id="edge9" class="edge">
<title>20&#45;&gt;30</title>
<path fill="none" stroke="black" d="M324.27,-159.7C319.27,-151.56 313.21,-141.69 307.69,-132.7"/>
<polygon fill="black" stroke="black" points="310.62,-130.79 302.41,-124.1 304.66,-134.46 310.62,-130.79"/>
</g>
<!-- 31 -->
<g id="node11" class="node">
<title>31</title>
<ellipse fill="#b9d3ee" stroke="black" cx="1107.9" cy="-106" rx="108" ry="18"/>
<text text-anchor="middle" x="1107.9" y="-102.3" font-family="Times,serif" font-size="14.00">400</text>
</g>
<!-- 21&#45;&gt;31 -->
<g id="edge11" class="edge">
<title>21&#45;&gt;31</title>
<path fill="none" stroke="black" d="M1021.03,-159.88C1036.4,-150.52 1055.6,-138.83 1072.04,-128.83"/>
<polygon fill="black" stroke="black" points="1074.13,-131.65 1080.85,-123.47 1070.49,-125.67 1074.13,-131.65"/>
</g>
<!-- 22&#45;&gt;30 -->
<g id="edge10" class="edge">
<title>22&#45;&gt;30</title>
<path fill="none" stroke="black" d="M604.86,-169.77C550.97,-158.96 447.9,-138.29 374.79,-123.62"/>
<polygon fill="black" stroke="black" points="375.17,-120.13 364.68,-121.6 373.79,-127 375.17,-120.13"/>
</g>
<!-- 32 -->
<g id="node12" class="node">
<title>32</title>
<ellipse fill="#b9d3ee" stroke="black" cx="682.9" cy="-106" rx="23" ry="18"/>
<text text-anchor="middle" x="682.9" y="-102.3" font-family="Times,serif" font-size="14.00">86</text>
</g>
<!-- 22&#45;&gt;32 -->
<g id="edge12" class="edge">
<title>22&#45;&gt;32</title>
<path fill="none" stroke="black" d="M651.28,-159.7C656.38,-151.19 662.62,-140.8 668.2,-131.5"/>
<polygon fill="black" stroke="black" points="671.35,-133.05 673.5,-122.67 665.35,-129.45 671.35,-133.05"/>
</g>
<!-- legend_3 -->
<g id="node13" class="node">
<title>legend_3</title>
<polygon fill="#b9d3ee" stroke="black" points="1548.4,-124 1327.4,-124 1327.4,-88 1548.4,-88 1548.4,-124"/>
<text text-anchor="middle" x="1437.9" y="-102.3" font-family="Times,serif" font-size="14.00">DT=7 ST=1 Similarity=0.69</text>
</g>
<!-- legend_2&#45;&gt;legend_3 -->
<g id="edge13" class="edge">
<title>legend_2&#45;&gt;legend_3</title>
<path fill="none" stroke="black" d="M1437.9,-159.7C1437.9,-151.98 1437.9,-142.71 1437.9,-134.11"/>
<polygon fill="black" stroke="black" points="1441.4,-134.1 1437.9,-124.1 1434.4,-134.1 1441.4,-134.1"/>
</g>
<!-- 41 -->
<g id="node15" class="node">
<title>41</title>
<ellipse fill="#b9d3ee" stroke="black" cx="330.9" cy="-34" rx="36" ry="18"/>
<text text-anchor="middle" x="330.9" y="-30.3" font-family="Times,serif" font-size="14.00">182</text>
</g>
<!-- 30&#45;&gt;41 -->
<g id="edge15" class="edge">
<title>30&#45;&gt;41</title>
<path fill="none" stroke="black" d="M301.54,-87.7C306.09,-79.52 311.62,-69.6 316.64,-60.58"/>
<polygon fill="black" stroke="black" points="319.83,-62.06 321.64,-51.62 313.71,-58.65 319.83,-62.06"/>
</g>
<!-- 42 -->
<g id="node16" class="node">
<title>42</title>
<ellipse fill="#b9d3ee" stroke="black" cx="407.9" cy="-34" rx="23" ry="18"/>
<text text-anchor="middle" x="407.9" y="-30.3" font-family="Times,serif" font-size="14.00">10</text>
</g>
<!-- 30&#45;&gt;42 -->
<g id="edge16" class="edge">
<title>30&#45;&gt;42</title>
<path fill="none" stroke="black" d="M319.68,-88.23C338.49,-76.88 363.18,-61.99 381.65,-50.84"/>
<polygon fill="black" stroke="black" points="383.67,-53.71 390.43,-45.54 380.06,-47.71 383.67,-53.71"/>
</g>
<!-- 43 -->
<g id="node17" class="node">
<title>43</title>
<ellipse fill="#b9d3ee" stroke="black" cx="484.9" cy="-34" rx="36" ry="18"/>
<text text-anchor="middle" x="484.9" y="-30.3" font-family="Times,serif" font-size="14.00">208</text>
</g>
<!-- 30&#45;&gt;43 -->
<g id="edge17" class="edge">
<title>30&#45;&gt;43</title>
<path fill="none" stroke="black" d="M337.64,-88.85C366.93,-78.45 405.7,-64.58 439.9,-52 442.3,-51.12 444.77,-50.2 447.26,-49.27"/>
<polygon fill="black" stroke="black" points="448.7,-52.47 456.84,-45.69 446.25,-45.92 448.7,-52.47"/>
</g>
<!-- 47 -->
<g id="node21" class="node">
<title>47</title>
<ellipse fill="#b9d3ee" stroke="black" cx="16.9" cy="-34" rx="16.8" ry="18"/>
<text text-anchor="middle" x="16.9" y="-30.3" font-family="Times,serif" font-size="14.00">1</text>
</g>
<!-- 30&#45;&gt;47 -->
<g id="edge21" class="edge">
<title>30&#45;&gt;47</title>
<path fill="none" stroke="black" d="M194.21,-92.77C147.23,-84.76 90.84,-71.96 42.9,-52 41.69,-51.5 40.49,-50.94 39.28,-50.34"/>
<polygon fill="black" stroke="black" points="40.81,-47.18 30.4,-45.18 37.29,-53.23 40.81,-47.18"/>
</g>
<!-- 48 -->
<g id="node22" class="node">
<title>48</title>
<ellipse fill="#b9d3ee" stroke="black" cx="74.9" cy="-34" rx="23" ry="18"/>
<text text-anchor="middle" x="74.9" y="-30.3" font-family="Times,serif" font-size="14.00">46</text>
</g>
<!-- 30&#45;&gt;48 -->
<g id="edge22" class="edge">
<title>30&#45;&gt;48</title>
<path fill="none" stroke="black" d="M225.7,-89.98C189.62,-80.85 144.57,-67.88 105.9,-52 104.51,-51.43 103.11,-50.82 101.71,-50.17"/>
<polygon fill="black" stroke="black" points="103.1,-46.95 92.59,-45.59 99.96,-53.21 103.1,-46.95"/>
</g>
<!-- 410 -->
<g id="node24" class="node">
<title>410</title>
<ellipse fill="#b9d3ee" stroke="black" cx="137.9" cy="-34" rx="23" ry="18"/>
<text text-anchor="middle" x="137.9" y="-30.3" font-family="Times,serif" font-size="14.00">35</text>
</g>
<!-- 30&#45;&gt;410 -->
<g id="edge24" class="edge">
<title>30&#45;&gt;410</title>
<path fill="none" stroke="black" d="M251.98,-88.59C227.98,-78.5 196.94,-65.03 169.9,-52 168.34,-51.25 166.75,-50.46 165.15,-49.66"/>
<polygon fill="black" stroke="black" points="166.54,-46.44 156.05,-44.96 163.33,-52.66 166.54,-46.44"/>
</g>
<!-- 412 -->
<g id="node26" class="node">
<title>412</title>
<ellipse fill="#b9d3ee" stroke="black" cx="195.9" cy="-34" rx="16.8" ry="18"/>
<text text-anchor="middle" x="195.9" y="-30.3" font-family="Times,serif" font-size="14.00">7</text>
</g>
<!-- 30&#45;&gt;412 -->
<g id="edge26" class="edge">
<title>30&#45;&gt;412</title>
<path fill="none" stroke="black" d="M268.66,-88.05C253.17,-76.76 232.93,-62 217.74,-50.92"/>
<polygon fill="black" stroke="black" points="219.59,-47.94 209.45,-44.88 215.46,-53.6 219.59,-47.94"/>
</g>
<!-- 415 -->
<g id="node29" class="node">
<title>415</title>
<ellipse fill="#b9d3ee" stroke="black" cx="253.9" cy="-34" rx="23" ry="18"/>
<text text-anchor="middle" x="253.9" y="-30.3" font-family="Times,serif" font-size="14.00">25</text>
</g>
<!-- 30&#45;&gt;415 -->
<g id="edge29" class="edge">
<title>30&#45;&gt;415</title>
<path fill="none" stroke="black" d="M282.51,-87.7C278,-79.4 272.52,-69.31 267.57,-60.19"/>
<polygon fill="black" stroke="black" points="270.51,-58.26 262.66,-51.14 264.36,-61.6 270.51,-58.26"/>
</g>
<!-- 40 -->
<g id="node14" class="node">
<title>40</title>
<ellipse fill="#b9d3ee" stroke="black" cx="1033.9" cy="-34" rx="108" ry="18"/>
<text text-anchor="middle" x="1033.9" y="-30.3" font-family="Times,serif" font-size="14.00">383</text>
</g>
<!-- 31&#45;&gt;40 -->
<g id="edge14" class="edge">
<title>31&#45;&gt;40</title>
<path fill="none" stroke="black" d="M1089.99,-88.05C1080.71,-79.28 1069.24,-68.43 1059.09,-58.83"/>
<polygon fill="black" stroke="black" points="1061.32,-56.12 1051.65,-51.79 1056.51,-61.2 1061.32,-56.12"/>
</g>
<!-- 44 -->
<g id="node18" class="node">
<title>44</title>
<ellipse fill="#b9d3ee" stroke="black" cx="1182.9" cy="-34" rx="23" ry="18"/>
<text text-anchor="middle" x="1182.9" y="-30.3" font-family="Times,serif" font-size="14.00">12</text>
</g>
<!-- 31&#45;&gt;44 -->
<g id="edge18" class="edge">
<title>31&#45;&gt;44</title>
<path fill="none" stroke="black" d="M1126.05,-88.05C1136.52,-78.29 1149.75,-65.94 1160.82,-55.61"/>
<polygon fill="black" stroke="black" points="1163.5,-57.89 1168.42,-48.51 1158.72,-52.78 1163.5,-57.89"/>
</g>
<!-- 45 -->
<g id="node19" class="node">
<title>45</title>
<ellipse fill="#b9d3ee" stroke="black" cx="1240.9" cy="-34" rx="16.8" ry="18"/>
<text text-anchor="middle" x="1240.9" y="-30.3" font-family="Times,serif" font-size="14.00">3</text>
</g>
<!-- 31&#45;&gt;45 -->
<g id="edge19" class="edge">
<title>31&#45;&gt;45</title>
<path fill="none" stroke="black" d="M1143.14,-88.84C1164.28,-78.84 1191.5,-65.38 1214.9,-52 1216.03,-51.35 1217.18,-50.68 1218.34,-49.98"/>
<polygon fill="black" stroke="black" points="1220.46,-52.78 1227.06,-44.49 1216.73,-46.86 1220.46,-52.78"/>
</g>
<!-- 46 -->
<g id="node20" class="node">
<title>46</title>
<ellipse fill="#b9d3ee" stroke="black" cx="1292.9" cy="-34" rx="16.8" ry="18"/>
<text text-anchor="middle" x="1292.9" y="-30.3" font-family="Times,serif" font-size="14.00">1</text>
</g>
<!-- 31&#45;&gt;46 -->
<g id="edge20" class="edge">
<title>31&#45;&gt;46</title>
<path fill="none" stroke="black" d="M1162.99,-90.44C1194.24,-81.26 1233.63,-68.09 1266.9,-52 1268.07,-51.43 1269.26,-50.82 1270.44,-50.18"/>
<polygon fill="black" stroke="black" points="1272.5,-53.02 1279.25,-44.86 1268.88,-47.03 1272.5,-53.02"/>
</g>
<!-- 418 -->
<g id="node32" class="node">
<title>418</title>
<ellipse fill="#b9d3ee" stroke="black" cx="890.9" cy="-34" rx="16.8" ry="18"/>
<text text-anchor="middle" x="890.9" y="-30.3" font-family="Times,serif" font-size="14.00">1</text>
</g>
<!-- 31&#45;&gt;418 -->
<g id="edge32" class="edge">
<title>31&#45;&gt;418</title>
<path fill="none" stroke="black" d="M1041.17,-91.81C1003.66,-83.1 956.56,-69.94 916.9,-52 915.71,-51.46 914.51,-50.87 913.32,-50.25"/>
<polygon fill="black" stroke="black" points="914.86,-47.1 904.48,-45 911.29,-53.12 914.86,-47.1"/>
</g>
<!-- 49 -->
<g id="node23" class="node">
<title>49</title>
<ellipse fill="#b9d3ee" stroke="black" cx="786.9" cy="-34" rx="16.8" ry="18"/>
<text text-anchor="middle" x="786.9" y="-30.3" font-family="Times,serif" font-size="14.00">3</text>
</g>
<!-- 32&#45;&gt;49 -->
<g id="edge23" class="edge">
<title>32&#45;&gt;49</title>
<path fill="none" stroke="black" d="M699.61,-93.75C717.23,-81.89 745.1,-63.13 764.6,-50.01"/>
<polygon fill="black" stroke="black" points="766.56,-52.91 772.9,-44.42 762.65,-47.1 766.56,-52.91"/>
</g>
<!-- 411 -->
<g id="node25" class="node">
<title>411</title>
<ellipse fill="#b9d3ee" stroke="black" cx="838.9" cy="-34" rx="16.8" ry="18"/>
<text text-anchor="middle" x="838.9" y="-30.3" font-family="Times,serif" font-size="14.00">3</text>
</g>
<!-- 32&#45;&gt;411 -->
<g id="edge25" class="edge">
<title>32&#45;&gt;411</title>
<path fill="none" stroke="black" d="M703.71,-97.92C729.85,-88.7 775.77,-71.47 812.9,-52 814.05,-51.39 815.22,-50.75 816.39,-50.08"/>
<polygon fill="black" stroke="black" points="818.48,-52.91 825.16,-44.68 814.81,-46.95 818.48,-52.91"/>
</g>
<!-- 413 -->
<g id="node27" class="node">
<title>413</title>
<ellipse fill="#b9d3ee" stroke="black" cx="561.9" cy="-34" rx="23" ry="18"/>
<text text-anchor="middle" x="561.9" y="-30.3" font-family="Times,serif" font-size="14.00">47</text>
</g>
<!-- 32&#45;&gt;413 -->
<g id="edge27" class="edge">
<title>32&#45;&gt;413</title>
<path fill="none" stroke="black" d="M665.04,-94.67C644.85,-82.99 611.75,-63.84 588.51,-50.39"/>
<polygon fill="black" stroke="black" points="590.23,-47.35 579.83,-45.37 586.73,-53.41 590.23,-47.35"/>
</g>
<!-- 414 -->
<g id="node28" class="node">
<title>414</title>
<ellipse fill="#b9d3ee" stroke="black" cx="624.9" cy="-34" rx="23" ry="18"/>
<text text-anchor="middle" x="624.9" y="-30.3" font-family="Times,serif" font-size="14.00">22</text>
</g>
<!-- 32&#45;&gt;414 -->
<g id="edge28" class="edge">
<title>32&#45;&gt;414</title>
<path fill="none" stroke="black" d="M670.88,-90.5C662.95,-80.92 652.4,-68.19 643.41,-57.34"/>
<polygon fill="black" stroke="black" points="645.98,-54.95 636.9,-49.49 640.59,-59.42 645.98,-54.95"/>
</g>
<!-- 416 -->
<g id="node30" class="node">
<title>416</title>
<ellipse fill="#b9d3ee" stroke="black" cx="682.9" cy="-34" rx="16.8" ry="18"/>
<text text-anchor="middle" x="682.9" y="-30.3" font-family="Times,serif" font-size="14.00">9</text>
</g>
<!-- 32&#45;&gt;416 -->
<g id="edge30" class="edge">
<title>32&#45;&gt;416</title>
<path fill="none" stroke="black" d="M682.9,-87.7C682.9,-79.98 682.9,-70.71 682.9,-62.11"/>
<polygon fill="black" stroke="black" points="686.4,-62.1 682.9,-52.1 679.4,-62.1 686.4,-62.1"/>
</g>
<!-- 417 -->
<g id="node31" class="node">
<title>417</title>
<ellipse fill="#b9d3ee" stroke="black" cx="734.9" cy="-34" rx="16.8" ry="18"/>
<text text-anchor="middle" x="734.9" y="-30.3" font-family="Times,serif" font-size="14.00">2</text>
</g>
<!-- 32&#45;&gt;417 -->
<g id="edge31" class="edge">
<title>32&#45;&gt;417</title>
<path fill="none" stroke="black" d="M693.93,-90.15C701.08,-80.53 710.52,-67.82 718.54,-57.02"/>
<polygon fill="black" stroke="black" points="721.44,-58.99 724.59,-48.87 715.82,-54.81 721.44,-58.99"/>
</g>
<!-- legend_4 -->
<g id="node33" class="node">
<title>legend_4</title>
<polygon fill="#b9d3ee" stroke="black" points="1548.4,-52 1327.4,-52 1327.4,-16 1548.4,-16 1548.4,-52"/>
<text text-anchor="middle" x="1437.9" y="-30.3" font-family="Times,serif" font-size="14.00">DT=8 ST=1 Similarity=0.62</text>
</g>
<!-- legend_3&#45;&gt;legend_4 -->
<g id="edge33" class="edge">
<title>legend_3&#45;&gt;legend_4</title>
<path fill="none" stroke="black" d="M1437.9,-87.7C1437.9,-79.98 1437.9,-70.71 1437.9,-62.11"/>
<polygon fill="black" stroke="black" points="1441.4,-62.1 1437.9,-52.1 1434.4,-62.1 1441.4,-62.1"/>
</g>
</g>
</svg>
