<?xml version="1.0" encoding="UTF-8" standalone="no"?>
<!DOCTYPE svg PUBLIC "-//W3C//DTD SVG 1.1//EN"
 "http://www.w3.org/Graphics/SVG/1.1/DTD/svg11.dtd">
<!-- Generated by graphviz version 2.43.0 (0)
 -->
<!-- Title: %3 Pages: 1 -->
<svg width="1749pt" height="353pt"
 viewBox="0.00 0.00 1748.90 353.00" xmlns="http://www.w3.org/2000/svg" xmlns:xlink="http://www.w3.org/1999/xlink">
<g id="graph0" class="graph" transform="scale(1 1) rotate(0) translate(4 349)">
<title>%3</title>
<polygon fill="white" stroke="transparent" points="-4,4 -4,-349 1744.9,-349 1744.9,4 -4,4"/>
<text text-anchor="middle" x="870.45" y="-329.8" font-family="Times,serif" font-size="14.00">ConsTree</text>
<text text-anchor="middle" x="870.45" y="-314.8" font-family="Times,serif" font-size="14.00">Tree Quality = 0.625</text>
<g id="clust1" class="cluster">
<title>cluster</title>
<polygon fill="none" stroke="black" points="1496.9,-8 1496.9,-299 1732.9,-299 1732.9,-8 1496.9,-8"/>
<text text-anchor="middle" x="1614.9" y="-283.8" font-family="Times,serif" font-size="14.00">Legend</text>
</g>
<!-- 00 -->
<g id="node1" class="node">
<title>00</title>
<ellipse fill="#b9d3ee" stroke="black" cx="467.9" cy="-250" rx="324" ry="18"/>
<text text-anchor="middle" x="467.9" y="-246.3" font-family="Times,serif" font-size="14.00">1000</text>
</g>
<!-- 10 -->
<g id="node3" class="node">
<title>10</title>
<ellipse fill="#b9d3ee" stroke="black" cx="314.9" cy="-178" rx="108" ry="18"/>
<text text-anchor="middle" x="314.9" y="-174.3" font-family="Times,serif" font-size="14.00">400</text>
</g>
<!-- 00&#45;&gt;10 -->
<g id="edge1" class="edge">
<title>00&#45;&gt;10</title>
<path fill="none" stroke="black" d="M430.86,-232.05C409.25,-222.17 381.86,-209.64 359.12,-199.23"/>
<polygon fill="black" stroke="black" points="360.57,-196.05 350.02,-195.07 357.66,-202.41 360.57,-196.05"/>
</g>
<!-- 11 -->
<g id="node4" class="node">
<title>11</title>
<ellipse fill="#b9d3ee" stroke="black" cx="724.9" cy="-178" rx="180" ry="18"/>
<text text-anchor="middle" x="724.9" y="-174.3" font-family="Times,serif" font-size="14.00">600</text>
</g>
<!-- 00&#45;&gt;11 -->
<g id="edge2" class="edge">
<title>00&#45;&gt;11</title>
<path fill="none" stroke="black" d="M529.13,-232.32C567.32,-221.92 616.54,-208.51 656.08,-197.75"/>
<polygon fill="black" stroke="black" points="657.18,-201.07 665.91,-195.07 655.34,-194.32 657.18,-201.07"/>
</g>
<!-- legend_0 -->
<g id="node2" class="node">
<title>legend_0</title>
<polygon fill="#b9d3ee" stroke="black" points="1725.4,-268 1504.4,-268 1504.4,-232 1725.4,-232 1725.4,-268"/>
<text text-anchor="middle" x="1614.9" y="-246.3" font-family="Times,serif" font-size="14.00">DT=4 ST=4 Similarity=0.38</text>
</g>
<!-- legend_1 -->
<g id="node5" class="node">
<title>legend_1</title>
<polygon fill="#b9d3ee" stroke="black" points="1725.4,-196 1504.4,-196 1504.4,-160 1725.4,-160 1725.4,-196"/>
<text text-anchor="middle" x="1614.9" y="-174.3" font-family="Times,serif" font-size="14.00">DT=6 ST=2 Similarity=0.68</text>
</g>
<!-- legend_0&#45;&gt;legend_1 -->
<g id="edge3" class="edge">
<title>legend_0&#45;&gt;legend_1</title>
<path fill="none" stroke="black" d="M1614.9,-231.7C1614.9,-223.98 1614.9,-214.71 1614.9,-206.11"/>
<polygon fill="black" stroke="black" points="1618.4,-206.1 1614.9,-196.1 1611.4,-206.1 1618.4,-206.1"/>
</g>
<!-- 21 -->
<g id="node7" class="node">
<title>21</title>
<polygon fill="darkseagreen" stroke="black" points="317.9,-124 101.9,-124 101.9,-88 317.9,-88 317.9,-124"/>
<text text-anchor="middle" x="209.9" y="-102.3" font-family="Times,serif" font-size="14.00">400</text>
</g>
<!-- 10&#45;&gt;21 -->
<g id="edge5" class="edge">
<title>10&#45;&gt;21</title>
<path fill="none" stroke="black" d="M290.01,-160.41C276.33,-151.29 259.14,-139.83 244.2,-129.86"/>
<polygon fill="black" stroke="black" points="245.96,-126.84 235.7,-124.2 242.08,-132.66 245.96,-126.84"/>
</g>
<!-- 20 -->
<g id="node6" class="node">
<title>20</title>
<polygon fill="darkseagreen" stroke="black" points="760.9,-124 688.9,-124 688.9,-88 760.9,-88 760.9,-124"/>
<text text-anchor="middle" x="724.9" y="-102.3" font-family="Times,serif" font-size="14.00">200</text>
</g>
<!-- 11&#45;&gt;20 -->
<g id="edge4" class="edge">
<title>11&#45;&gt;20</title>
<path fill="none" stroke="black" d="M724.9,-159.7C724.9,-151.98 724.9,-142.71 724.9,-134.11"/>
<polygon fill="black" stroke="black" points="728.4,-134.1 724.9,-124.1 721.4,-134.1 728.4,-134.1"/>
</g>
<!-- 22 -->
<g id="node8" class="node">
<title>22</title>
<polygon fill="darkseagreen" stroke="black" points="1252.9,-124 1036.9,-124 1036.9,-88 1252.9,-88 1252.9,-124"/>
<text text-anchor="middle" x="1144.9" y="-102.3" font-family="Times,serif" font-size="14.00">400</text>
</g>
<!-- 11&#45;&gt;22 -->
<g id="edge6" class="edge">
<title>11&#45;&gt;22</title>
<path fill="none" stroke="black" d="M813.2,-162.28C877.07,-151.64 963.87,-137.17 1032.66,-125.71"/>
<polygon fill="black" stroke="black" points="1033.38,-129.13 1042.67,-124.04 1032.23,-122.23 1033.38,-129.13"/>
</g>
<!-- legend_2 -->
<g id="node9" class="node">
<title>legend_2</title>
<polygon fill="darkseagreen" stroke="black" points="1725.4,-124 1504.4,-124 1504.4,-88 1725.4,-88 1725.4,-124"/>
<text text-anchor="middle" x="1614.9" y="-102.3" font-family="Times,serif" font-size="14.00">DT=7 ST=1 Similarity=0.79</text>
</g>
<!-- legend_1&#45;&gt;legend_2 -->
<g id="edge7" class="edge">
<title>legend_1&#45;&gt;legend_2</title>
<path fill="none" stroke="black" d="M1614.9,-159.7C1614.9,-151.98 1614.9,-142.71 1614.9,-134.11"/>
<polygon fill="black" stroke="black" points="1618.4,-134.1 1614.9,-124.1 1611.4,-134.1 1618.4,-134.1"/>
</g>
<!-- 31 -->
<g id="node11" class="node">
<title>31</title>
<ellipse fill="#b9d3ee" stroke="black" cx="479.9" cy="-34" rx="16.8" ry="18"/>
<text text-anchor="middle" x="479.9" y="-30.3" font-family="Times,serif" font-size="14.00">1</text>
</g>
<!-- 20&#45;&gt;31 -->
<g id="edge9" class="edge">
<title>20&#45;&gt;31</title>
<path fill="none" stroke="black" d="M688.81,-100.13C644.38,-93.28 567.29,-78.56 505.9,-52 504.7,-51.48 503.5,-50.91 502.3,-50.3"/>
<polygon fill="black" stroke="black" points="503.83,-47.14 493.44,-45.1 500.29,-53.18 503.83,-47.14"/>
</g>
<!-- 36 -->
<g id="node16" class="node">
<title>36</title>
<ellipse fill="#b9d3ee" stroke="black" cx="531.9" cy="-34" rx="16.8" ry="18"/>
<text text-anchor="middle" x="531.9" y="-30.3" font-family="Times,serif" font-size="14.00">3</text>
</g>
<!-- 20&#45;&gt;36 -->
<g id="edge14" class="edge">
<title>20&#45;&gt;36</title>
<path fill="none" stroke="black" d="M688.65,-96.54C654.08,-87.77 601.04,-72.48 557.9,-52 556.72,-51.44 555.53,-50.84 554.35,-50.2"/>
<polygon fill="black" stroke="black" points="555.9,-47.05 545.52,-44.9 552.3,-53.05 555.9,-47.05"/>
</g>
<!-- 37 -->
<g id="node17" class="node">
<title>37</title>
<ellipse fill="#b9d3ee" stroke="black" cx="583.9" cy="-34" rx="16.8" ry="18"/>
<text text-anchor="middle" x="583.9" y="-30.3" font-family="Times,serif" font-size="14.00">4</text>
</g>
<!-- 20&#45;&gt;37 -->
<g id="edge15" class="edge">
<title>20&#45;&gt;37</title>
<path fill="none" stroke="black" d="M688.74,-89.97C665.75,-80.01 635.58,-66.21 609.9,-52 608.76,-51.37 607.6,-50.7 606.44,-50.02"/>
<polygon fill="black" stroke="black" points="608.03,-46.89 597.7,-44.56 604.33,-52.83 608.03,-46.89"/>
</g>
<!-- 38 -->
<g id="node18" class="node">
<title>38</title>
<ellipse fill="#b9d3ee" stroke="black" cx="635.9" cy="-34" rx="16.8" ry="18"/>
<text text-anchor="middle" x="635.9" y="-30.3" font-family="Times,serif" font-size="14.00">5</text>
</g>
<!-- 20&#45;&gt;38 -->
<g id="edge16" class="edge">
<title>20&#45;&gt;38</title>
<path fill="none" stroke="black" d="M702.9,-87.7C688.92,-76.7 670.91,-62.54 657.09,-51.67"/>
<polygon fill="black" stroke="black" points="659.12,-48.81 649.1,-45.38 654.79,-54.31 659.12,-48.81"/>
</g>
<!-- 310 -->
<g id="node20" class="node">
<title>310</title>
<ellipse fill="#b9d3ee" stroke="black" cx="693.9" cy="-34" rx="23" ry="18"/>
<text text-anchor="middle" x="693.9" y="-30.3" font-family="Times,serif" font-size="14.00">11</text>
</g>
<!-- 20&#45;&gt;310 -->
<g id="edge18" class="edge">
<title>20&#45;&gt;310</title>
<path fill="none" stroke="black" d="M717.24,-87.7C713.6,-79.49 709.19,-69.52 705.18,-60.48"/>
<polygon fill="black" stroke="black" points="708.3,-58.87 701.05,-51.14 701.9,-61.71 708.3,-58.87"/>
</g>
<!-- 314 -->
<g id="node24" class="node">
<title>314</title>
<ellipse fill="#b9d3ee" stroke="black" cx="756.9" cy="-34" rx="23" ry="18"/>
<text text-anchor="middle" x="756.9" y="-30.3" font-family="Times,serif" font-size="14.00">24</text>
</g>
<!-- 20&#45;&gt;314 -->
<g id="edge22" class="edge">
<title>20&#45;&gt;314</title>
<path fill="none" stroke="black" d="M732.81,-87.7C736.56,-79.49 741.12,-69.52 745.25,-60.48"/>
<polygon fill="black" stroke="black" points="748.54,-61.69 749.52,-51.14 742.18,-58.78 748.54,-61.69"/>
</g>
<!-- 315 -->
<g id="node25" class="node">
<title>315</title>
<ellipse fill="#b9d3ee" stroke="black" cx="819.9" cy="-34" rx="23" ry="18"/>
<text text-anchor="middle" x="819.9" y="-30.3" font-family="Times,serif" font-size="14.00">35</text>
</g>
<!-- 20&#45;&gt;315 -->
<g id="edge23" class="edge">
<title>20&#45;&gt;315</title>
<path fill="none" stroke="black" d="M748.38,-87.7C762.8,-77.07 781.24,-63.49 795.77,-52.78"/>
<polygon fill="black" stroke="black" points="797.85,-55.59 803.83,-46.84 793.7,-49.96 797.85,-55.59"/>
</g>
<!-- 316 -->
<g id="node26" class="node">
<title>316</title>
<ellipse fill="#b9d3ee" stroke="black" cx="882.9" cy="-34" rx="23" ry="18"/>
<text text-anchor="middle" x="882.9" y="-30.3" font-family="Times,serif" font-size="14.00">36</text>
</g>
<!-- 20&#45;&gt;316 -->
<g id="edge24" class="edge">
<title>20&#45;&gt;316</title>
<path fill="none" stroke="black" d="M760.93,-91.15C786.6,-80.99 821.76,-66.5 851.9,-52 853.25,-51.35 854.62,-50.67 856,-49.97"/>
<polygon fill="black" stroke="black" points="857.82,-52.97 865.04,-45.22 854.56,-46.78 857.82,-52.97"/>
</g>
<!-- 317 -->
<g id="node27" class="node">
<title>317</title>
<ellipse fill="#b9d3ee" stroke="black" cx="945.9" cy="-34" rx="23" ry="18"/>
<text text-anchor="middle" x="945.9" y="-30.3" font-family="Times,serif" font-size="14.00">38</text>
</g>
<!-- 20&#45;&gt;317 -->
<g id="edge25" class="edge">
<title>20&#45;&gt;317</title>
<path fill="none" stroke="black" d="M761.08,-97.51C799.92,-88.88 863.04,-73.12 914.9,-52 916.28,-51.44 917.69,-50.82 919.09,-50.18"/>
<polygon fill="black" stroke="black" points="920.84,-53.22 928.21,-45.61 917.7,-46.96 920.84,-53.22"/>
</g>
<!-- 318 -->
<g id="node28" class="node">
<title>318</title>
<ellipse fill="#b9d3ee" stroke="black" cx="1008.9" cy="-34" rx="23" ry="18"/>
<text text-anchor="middle" x="1008.9" y="-30.3" font-family="Times,serif" font-size="14.00">43</text>
</g>
<!-- 20&#45;&gt;318 -->
<g id="edge26" class="edge">
<title>20&#45;&gt;318</title>
<path fill="none" stroke="black" d="M761.02,-100.84C810.97,-94.33 903.39,-79.54 977.9,-52 979.3,-51.48 980.72,-50.91 982.13,-50.29"/>
<polygon fill="black" stroke="black" points="983.84,-53.35 991.29,-45.82 980.77,-47.06 983.84,-53.35"/>
</g>
<!-- 32 -->
<g id="node12" class="node">
<title>32</title>
<ellipse fill="#b9d3ee" stroke="black" cx="16.9" cy="-34" rx="16.8" ry="18"/>
<text text-anchor="middle" x="16.9" y="-30.3" font-family="Times,serif" font-size="14.00">1</text>
</g>
<!-- 21&#45;&gt;32 -->
<g id="edge10" class="edge">
<title>21&#45;&gt;32</title>
<path fill="none" stroke="black" d="M141.67,-87.9C110.77,-79.01 74.22,-66.87 42.9,-52 41.72,-51.44 40.53,-50.84 39.35,-50.2"/>
<polygon fill="black" stroke="black" points="40.9,-47.05 30.52,-44.9 37.3,-53.05 40.9,-47.05"/>
</g>
<!-- 34 -->
<g id="node14" class="node">
<title>34</title>
<ellipse fill="#b9d3ee" stroke="black" cx="68.9" cy="-34" rx="16.8" ry="18"/>
<text text-anchor="middle" x="68.9" y="-30.3" font-family="Times,serif" font-size="14.00">2</text>
</g>
<!-- 21&#45;&gt;34 -->
<g id="edge12" class="edge">
<title>21&#45;&gt;34</title>
<path fill="none" stroke="black" d="M169,-87.9C146.7,-78.15 118.85,-65.25 94.9,-52 93.76,-51.37 92.6,-50.7 91.44,-50.02"/>
<polygon fill="black" stroke="black" points="93.03,-46.89 82.7,-44.56 89.33,-52.83 93.03,-46.89"/>
</g>
<!-- 39 -->
<g id="node19" class="node">
<title>39</title>
<ellipse fill="#b9d3ee" stroke="black" cx="120.9" cy="-34" rx="16.8" ry="18"/>
<text text-anchor="middle" x="120.9" y="-30.3" font-family="Times,serif" font-size="14.00">6</text>
</g>
<!-- 21&#45;&gt;39 -->
<g id="edge17" class="edge">
<title>21&#45;&gt;39</title>
<path fill="none" stroke="black" d="M187.9,-87.7C173.92,-76.7 155.91,-62.54 142.09,-51.67"/>
<polygon fill="black" stroke="black" points="144.12,-48.81 134.1,-45.38 139.79,-54.31 144.12,-48.81"/>
</g>
<!-- 312 -->
<g id="node22" class="node">
<title>312</title>
<ellipse fill="#b9d3ee" stroke="black" cx="178.9" cy="-34" rx="23" ry="18"/>
<text text-anchor="middle" x="178.9" y="-30.3" font-family="Times,serif" font-size="14.00">14</text>
</g>
<!-- 21&#45;&gt;312 -->
<g id="edge20" class="edge">
<title>21&#45;&gt;312</title>
<path fill="none" stroke="black" d="M202.24,-87.7C198.6,-79.49 194.19,-69.52 190.18,-60.48"/>
<polygon fill="black" stroke="black" points="193.3,-58.87 186.05,-51.14 186.9,-61.71 193.3,-58.87"/>
</g>
<!-- 313 -->
<g id="node23" class="node">
<title>313</title>
<ellipse fill="#b9d3ee" stroke="black" cx="241.9" cy="-34" rx="23" ry="18"/>
<text text-anchor="middle" x="241.9" y="-30.3" font-family="Times,serif" font-size="14.00">18</text>
</g>
<!-- 21&#45;&gt;313 -->
<g id="edge21" class="edge">
<title>21&#45;&gt;313</title>
<path fill="none" stroke="black" d="M217.81,-87.7C221.56,-79.49 226.12,-69.52 230.25,-60.48"/>
<polygon fill="black" stroke="black" points="233.54,-61.69 234.52,-51.14 227.18,-58.78 233.54,-61.69"/>
</g>
<!-- 319 -->
<g id="node29" class="node">
<title>319</title>
<ellipse fill="#b9d3ee" stroke="black" cx="318.9" cy="-34" rx="36" ry="18"/>
<text text-anchor="middle" x="318.9" y="-30.3" font-family="Times,serif" font-size="14.00">170</text>
</g>
<!-- 21&#45;&gt;319 -->
<g id="edge27" class="edge">
<title>21&#45;&gt;319</title>
<path fill="none" stroke="black" d="M236.56,-87.88C252.41,-77.7 272.55,-64.77 288.94,-54.24"/>
<polygon fill="black" stroke="black" points="291.09,-57.02 297.61,-48.67 287.31,-51.13 291.09,-57.02"/>
</g>
<!-- 320 -->
<g id="node30" class="node">
<title>320</title>
<ellipse fill="#b9d3ee" stroke="black" cx="408.9" cy="-34" rx="36" ry="18"/>
<text text-anchor="middle" x="408.9" y="-30.3" font-family="Times,serif" font-size="14.00">189</text>
</g>
<!-- 21&#45;&gt;320 -->
<g id="edge28" class="edge">
<title>21&#45;&gt;320</title>
<path fill="none" stroke="black" d="M260.66,-87.95C290.75,-77.74 329.59,-64.38 363.9,-52 366.3,-51.13 368.78,-50.23 371.27,-49.31"/>
<polygon fill="black" stroke="black" points="372.71,-52.51 380.86,-45.74 370.27,-45.95 372.71,-52.51"/>
</g>
<!-- 30 -->
<g id="node10" class="node">
<title>30</title>
<ellipse fill="#b9d3ee" stroke="black" cx="1066.9" cy="-34" rx="16.8" ry="18"/>
<text text-anchor="middle" x="1066.9" y="-30.3" font-family="Times,serif" font-size="14.00">1</text>
</g>
<!-- 22&#45;&gt;30 -->
<g id="edge8" class="edge">
<title>22&#45;&gt;30</title>
<path fill="none" stroke="black" d="M1125.62,-87.7C1113.89,-77.17 1098.93,-63.75 1087.05,-53.08"/>
<polygon fill="black" stroke="black" points="1089.17,-50.28 1079.39,-46.21 1084.49,-55.49 1089.17,-50.28"/>
</g>
<!-- 33 -->
<g id="node13" class="node">
<title>33</title>
<ellipse fill="#b9d3ee" stroke="black" cx="1118.9" cy="-34" rx="16.8" ry="18"/>
<text text-anchor="middle" x="1118.9" y="-30.3" font-family="Times,serif" font-size="14.00">1</text>
</g>
<!-- 22&#45;&gt;33 -->
<g id="edge11" class="edge">
<title>22&#45;&gt;33</title>
<path fill="none" stroke="black" d="M1138.47,-87.7C1135.46,-79.58 1131.8,-69.74 1128.47,-60.76"/>
<polygon fill="black" stroke="black" points="1131.66,-59.3 1124.9,-51.14 1125.1,-61.74 1131.66,-59.3"/>
</g>
<!-- 35 -->
<g id="node15" class="node">
<title>35</title>
<ellipse fill="#b9d3ee" stroke="black" cx="1170.9" cy="-34" rx="16.8" ry="18"/>
<text text-anchor="middle" x="1170.9" y="-30.3" font-family="Times,serif" font-size="14.00">3</text>
</g>
<!-- 22&#45;&gt;35 -->
<g id="edge13" class="edge">
<title>22&#45;&gt;35</title>
<path fill="none" stroke="black" d="M1151.33,-87.7C1154.34,-79.58 1158,-69.74 1161.33,-60.76"/>
<polygon fill="black" stroke="black" points="1164.7,-61.74 1164.9,-51.14 1158.14,-59.3 1164.7,-61.74"/>
</g>
<!-- 311 -->
<g id="node21" class="node">
<title>311</title>
<ellipse fill="#b9d3ee" stroke="black" cx="1228.9" cy="-34" rx="23" ry="18"/>
<text text-anchor="middle" x="1228.9" y="-30.3" font-family="Times,serif" font-size="14.00">12</text>
</g>
<!-- 22&#45;&gt;311 -->
<g id="edge19" class="edge">
<title>22&#45;&gt;311</title>
<path fill="none" stroke="black" d="M1165.66,-87.7C1177.86,-77.53 1193.29,-64.67 1205.86,-54.2"/>
<polygon fill="black" stroke="black" points="1208.2,-56.8 1213.65,-47.71 1203.72,-51.42 1208.2,-56.8"/>
</g>
<!-- 321 -->
<g id="node31" class="node">
<title>321</title>
<ellipse fill="#b9d3ee" stroke="black" cx="1377.9" cy="-34" rx="108" ry="18"/>
<text text-anchor="middle" x="1377.9" y="-30.3" font-family="Times,serif" font-size="14.00">383</text>
</g>
<!-- 22&#45;&gt;321 -->
<g id="edge29" class="edge">
<title>22&#45;&gt;321</title>
<path fill="none" stroke="black" d="M1201.6,-87.97C1236.81,-77.39 1282.03,-63.8 1317.85,-53.04"/>
<polygon fill="black" stroke="black" points="1319.12,-56.31 1327.69,-50.08 1317.11,-49.61 1319.12,-56.31"/>
</g>
<!-- legend_3 -->
<g id="node32" class="node">
<title>legend_3</title>
<polygon fill="#b9d3ee" stroke="black" points="1725.4,-52 1504.4,-52 1504.4,-16 1725.4,-16 1725.4,-52"/>
<text text-anchor="middle" x="1614.9" y="-30.3" font-family="Times,serif" font-size="14.00">DT=8 ST=1 Similarity=0.58</text>
</g>
<!-- legend_2&#45;&gt;legend_3 -->
<g id="edge30" class="edge">
<title>legend_2&#45;&gt;legend_3</title>
<path fill="none" stroke="black" d="M1614.9,-87.7C1614.9,-79.98 1614.9,-70.71 1614.9,-62.11"/>
<polygon fill="black" stroke="black" points="1618.4,-62.1 1614.9,-52.1 1611.4,-62.1 1618.4,-62.1"/>
</g>
</g>
</svg>
