<?xml version="1.0" encoding="UTF-8" standalone="no"?>
<!DOCTYPE svg PUBLIC "-//W3C//DTD SVG 1.1//EN"
 "http://www.w3.org/Graphics/SVG/1.1/DTD/svg11.dtd">
<!-- Generated by graphviz version 2.43.0 (0)
 -->
<!-- Title: %3 Pages: 1 -->
<svg width="2609pt" height="281pt"
 viewBox="0.00 0.00 2609.00 281.00" xmlns="http://www.w3.org/2000/svg" xmlns:xlink="http://www.w3.org/1999/xlink">
<g id="graph0" class="graph" transform="scale(1 1) rotate(0) translate(4 277)">
<title>%3</title>
<polygon fill="white" stroke="transparent" points="-4,4 -4,-277 2605,-277 2605,4 -4,4"/>
<text text-anchor="middle" x="1300.5" y="-257.8" font-family="Times,serif" font-size="14.00">ConsTree</text>
<text text-anchor="middle" x="1300.5" y="-242.8" font-family="Times,serif" font-size="14.00">Tree Quality = 0.5</text>
<g id="clust1" class="cluster">
<title>cluster</title>
<polygon fill="none" stroke="black" points="2357,-8 2357,-227 2593,-227 2593,-8 2357,-8"/>
<text text-anchor="middle" x="2475" y="-211.8" font-family="Times,serif" font-size="14.00">Legend</text>
</g>
<!-- 00 -->
<g id="node1" class="node">
<title>00</title>
<ellipse fill="#b9d3ee" stroke="black" cx="1267" cy="-178" rx="324" ry="18"/>
<text text-anchor="middle" x="1267" y="-174.3" font-family="Times,serif" font-size="14.00">2000</text>
</g>
<!-- 10 -->
<g id="node3" class="node">
<title>10</title>
<ellipse fill="#b9d3ee" stroke="black" cx="695" cy="-106" rx="180" ry="18"/>
<text text-anchor="middle" x="695" y="-102.3" font-family="Times,serif" font-size="14.00">1206</text>
</g>
<!-- 00&#45;&gt;10 -->
<g id="edge1" class="edge">
<title>00&#45;&gt;10</title>
<path fill="none" stroke="black" d="M1139.7,-161.42C1042.41,-149.51 909.26,-133.22 814.08,-121.57"/>
<polygon fill="black" stroke="black" points="814.47,-118.09 804.12,-120.35 813.62,-125.04 814.47,-118.09"/>
</g>
<!-- 11 -->
<g id="node4" class="node">
<title>11</title>
<ellipse fill="#b9d3ee" stroke="black" cx="1883" cy="-106" rx="108" ry="18"/>
<text text-anchor="middle" x="1883" y="-102.3" font-family="Times,serif" font-size="14.00">794</text>
</g>
<!-- 00&#45;&gt;11 -->
<g id="edge2" class="edge">
<title>00&#45;&gt;11</title>
<path fill="none" stroke="black" d="M1402.18,-161.64C1518.37,-148.43 1683.08,-129.72 1786.42,-117.98"/>
<polygon fill="black" stroke="black" points="1786.99,-121.43 1796.53,-116.83 1786.2,-114.48 1786.99,-121.43"/>
</g>
<!-- legend_0 -->
<g id="node2" class="node">
<title>legend_0</title>
<polygon fill="#b9d3ee" stroke="black" points="2585.5,-196 2364.5,-196 2364.5,-160 2585.5,-160 2585.5,-196"/>
<text text-anchor="middle" x="2475" y="-174.3" font-family="Times,serif" font-size="14.00">DT=4 ST=4 Similarity=0.28</text>
</g>
<!-- legend_1 -->
<g id="node5" class="node">
<title>legend_1</title>
<polygon fill="#b9d3ee" stroke="black" points="2585.5,-124 2364.5,-124 2364.5,-88 2585.5,-88 2585.5,-124"/>
<text text-anchor="middle" x="2475" y="-102.3" font-family="Times,serif" font-size="14.00">DT=5 ST=1 Similarity=0.46</text>
</g>
<!-- legend_0&#45;&gt;legend_1 -->
<g id="edge3" class="edge">
<title>legend_0&#45;&gt;legend_1</title>
<path fill="none" stroke="black" d="M2475,-159.7C2475,-151.98 2475,-142.71 2475,-134.11"/>
<polygon fill="black" stroke="black" points="2478.5,-134.1 2475,-124.1 2471.5,-134.1 2478.5,-134.1"/>
</g>
<!-- 20 -->
<g id="node6" class="node">
<title>20</title>
<polygon fill="darkseagreen" stroke="black" points="26,-52 0,-52 0,-16 26,-16 26,-52"/>
<text text-anchor="middle" x="13" y="-30.3" font-family="Times,serif" font-size="14.00">1</text>
</g>
<!-- 10&#45;&gt;20 -->
<g id="edge4" class="edge">
<title>10&#45;&gt;20</title>
<path fill="none" stroke="black" d="M518.86,-102.12C353.82,-97.4 120.17,-84.94 35,-52 34.9,-51.96 34.81,-51.93 34.71,-51.89"/>
<polygon fill="black" stroke="black" points="36.65,-48.96 26.21,-47.12 33.23,-55.07 36.65,-48.96"/>
</g>
<!-- 23 -->
<g id="node9" class="node">
<title>23</title>
<polygon fill="darkseagreen" stroke="black" points="70,-52 44,-52 44,-16 70,-16 70,-52"/>
<text text-anchor="middle" x="57" y="-30.3" font-family="Times,serif" font-size="14.00">1</text>
</g>
<!-- 10&#45;&gt;23 -->
<g id="edge7" class="edge">
<title>10&#45;&gt;23</title>
<path fill="none" stroke="black" d="M521.79,-100.97C368.34,-95.43 156.94,-82.4 79,-52 78.9,-51.96 78.81,-51.92 78.71,-51.89"/>
<polygon fill="black" stroke="black" points="80.65,-48.96 70.22,-47.11 77.22,-55.06 80.65,-48.96"/>
</g>
<!-- 24 -->
<g id="node10" class="node">
<title>24</title>
<polygon fill="darkseagreen" stroke="black" points="114,-52 88,-52 88,-16 114,-16 114,-52"/>
<text text-anchor="middle" x="101" y="-30.3" font-family="Times,serif" font-size="14.00">1</text>
</g>
<!-- 10&#45;&gt;24 -->
<g id="edge8" class="edge">
<title>10&#45;&gt;24</title>
<path fill="none" stroke="black" d="M526.2,-99.74C384.44,-93.43 193.99,-79.95 123,-52 122.9,-51.96 122.81,-51.92 122.71,-51.89"/>
<polygon fill="black" stroke="black" points="124.66,-48.96 114.23,-47.09 121.21,-55.06 124.66,-48.96"/>
</g>
<!-- 25 -->
<g id="node11" class="node">
<title>25</title>
<polygon fill="darkseagreen" stroke="black" points="158,-52 132,-52 132,-16 158,-16 158,-52"/>
<text text-anchor="middle" x="145" y="-30.3" font-family="Times,serif" font-size="14.00">1</text>
</g>
<!-- 10&#45;&gt;25 -->
<g id="edge9" class="edge">
<title>10&#45;&gt;25</title>
<path fill="none" stroke="black" d="M531.41,-98.41C401.43,-91.37 231.19,-77.56 167,-52 166.9,-51.96 166.81,-51.92 166.71,-51.88"/>
<polygon fill="black" stroke="black" points="168.66,-48.96 158.23,-47.07 165.21,-55.05 168.66,-48.96"/>
</g>
<!-- 26 -->
<g id="node12" class="node">
<title>26</title>
<polygon fill="darkseagreen" stroke="black" points="202,-52 176,-52 176,-16 202,-16 202,-52"/>
<text text-anchor="middle" x="189" y="-30.3" font-family="Times,serif" font-size="14.00">1</text>
</g>
<!-- 10&#45;&gt;26 -->
<g id="edge10" class="edge">
<title>10&#45;&gt;26</title>
<path fill="none" stroke="black" d="M538.73,-97.06C420.42,-89.34 268.76,-75.31 211,-52 210.9,-51.96 210.81,-51.92 210.71,-51.88"/>
<polygon fill="black" stroke="black" points="212.66,-48.97 202.24,-47.05 209.2,-55.05 212.66,-48.97"/>
</g>
<!-- 28 -->
<g id="node14" class="node">
<title>28</title>
<polygon fill="darkseagreen" stroke="black" points="246,-52 220,-52 220,-16 246,-16 246,-52"/>
<text text-anchor="middle" x="233" y="-30.3" font-family="Times,serif" font-size="14.00">1</text>
</g>
<!-- 10&#45;&gt;28 -->
<g id="edge12" class="edge">
<title>10&#45;&gt;28</title>
<path fill="none" stroke="black" d="M547.41,-95.66C440.69,-87.32 306.57,-73.13 255,-52 254.91,-51.96 254.81,-51.92 254.72,-51.88"/>
<polygon fill="black" stroke="black" points="256.67,-48.97 246.25,-47.03 253.18,-55.04 256.67,-48.97"/>
</g>
<!-- 29 -->
<g id="node15" class="node">
<title>29</title>
<polygon fill="darkseagreen" stroke="black" points="290,-52 264,-52 264,-16 290,-16 290,-52"/>
<text text-anchor="middle" x="277" y="-30.3" font-family="Times,serif" font-size="14.00">1</text>
</g>
<!-- 10&#45;&gt;29 -->
<g id="edge13" class="edge">
<title>10&#45;&gt;29</title>
<path fill="none" stroke="black" d="M558.15,-94.28C462.76,-85.38 344.73,-71.09 299,-52 298.91,-51.96 298.81,-51.92 298.72,-51.88"/>
<polygon fill="black" stroke="black" points="300.68,-48.97 290.27,-46.99 297.17,-55.03 300.68,-48.97"/>
</g>
<!-- 210 -->
<g id="node16" class="node">
<title>210</title>
<polygon fill="darkseagreen" stroke="black" points="334,-52 308,-52 308,-16 334,-16 334,-52"/>
<text text-anchor="middle" x="321" y="-30.3" font-family="Times,serif" font-size="14.00">1</text>
</g>
<!-- 10&#45;&gt;210 -->
<g id="edge14" class="edge">
<title>10&#45;&gt;210</title>
<path fill="none" stroke="black" d="M533.48,-97.94C471.95,-90.86 402.39,-77.37 343,-52 342.91,-51.96 342.81,-51.92 342.72,-51.88"/>
<polygon fill="black" stroke="black" points="344.68,-48.97 334.28,-46.95 341.15,-55.02 344.68,-48.97"/>
</g>
<!-- 211 -->
<g id="node17" class="node">
<title>211</title>
<polygon fill="darkseagreen" stroke="black" points="378,-52 352,-52 352,-16 378,-16 378,-52"/>
<text text-anchor="middle" x="365" y="-30.3" font-family="Times,serif" font-size="14.00">1</text>
</g>
<!-- 10&#45;&gt;211 -->
<g id="edge15" class="edge">
<title>10&#45;&gt;211</title>
<path fill="none" stroke="black" d="M552.06,-95.04C498.59,-87.59 438.41,-74.6 387,-52 386.91,-51.96 386.81,-51.92 386.72,-51.87"/>
<polygon fill="black" stroke="black" points="388.7,-48.98 378.31,-46.9 385.13,-55 388.7,-48.98"/>
</g>
<!-- 212 -->
<g id="node18" class="node">
<title>212</title>
<polygon fill="darkseagreen" stroke="black" points="422,-52 396,-52 396,-16 422,-16 422,-52"/>
<text text-anchor="middle" x="409" y="-30.3" font-family="Times,serif" font-size="14.00">2</text>
</g>
<!-- 10&#45;&gt;212 -->
<g id="edge16" class="edge">
<title>10&#45;&gt;212</title>
<path fill="none" stroke="black" d="M574.08,-92.64C527.84,-84.89 475.55,-72.32 431,-52 430.91,-51.96 430.81,-51.91 430.72,-51.87"/>
<polygon fill="black" stroke="black" points="432.71,-48.98 422.34,-46.83 429.11,-54.98 432.71,-48.98"/>
</g>
<!-- 213 -->
<g id="node19" class="node">
<title>213</title>
<polygon fill="darkseagreen" stroke="black" points="466,-52 440,-52 440,-16 466,-16 466,-52"/>
<text text-anchor="middle" x="453" y="-30.3" font-family="Times,serif" font-size="14.00">2</text>
</g>
<!-- 10&#45;&gt;213 -->
<g id="edge17" class="edge">
<title>10&#45;&gt;213</title>
<path fill="none" stroke="black" d="M598.06,-90.79C558.6,-82.7 513.35,-70.39 475,-52 474.91,-51.96 474.82,-51.91 474.72,-51.87"/>
<polygon fill="black" stroke="black" points="476.73,-48.99 466.38,-46.74 473.07,-54.96 476.73,-48.99"/>
</g>
<!-- 214 -->
<g id="node20" class="node">
<title>214</title>
<polygon fill="darkseagreen" stroke="black" points="510,-52 484,-52 484,-16 510,-16 510,-52"/>
<text text-anchor="middle" x="497" y="-30.3" font-family="Times,serif" font-size="14.00">2</text>
</g>
<!-- 10&#45;&gt;214 -->
<g id="edge18" class="edge">
<title>10&#45;&gt;214</title>
<path fill="none" stroke="black" d="M622.05,-89.42C589.45,-80.87 551.21,-68.57 519,-52 518.91,-51.95 518.82,-51.91 518.73,-51.86"/>
<polygon fill="black" stroke="black" points="520.77,-49.01 510.45,-46.61 517.02,-54.92 520.77,-49.01"/>
</g>
<!-- 216 -->
<g id="node22" class="node">
<title>216</title>
<polygon fill="darkseagreen" stroke="black" points="554,-52 528,-52 528,-16 554,-16 554,-52"/>
<text text-anchor="middle" x="541" y="-30.3" font-family="Times,serif" font-size="14.00">2</text>
</g>
<!-- 10&#45;&gt;216 -->
<g id="edge20" class="edge">
<title>10&#45;&gt;216</title>
<path fill="none" stroke="black" d="M644.91,-88.6C619.59,-79.39 588.83,-66.78 563,-52 562.81,-51.89 562.62,-51.78 562.43,-51.67"/>
<polygon fill="black" stroke="black" points="564.33,-48.73 554.08,-46.05 560.42,-54.54 564.33,-48.73"/>
</g>
<!-- 217 -->
<g id="node23" class="node">
<title>217</title>
<polygon fill="darkseagreen" stroke="black" points="598,-52 572,-52 572,-16 598,-16 598,-52"/>
<text text-anchor="middle" x="585" y="-30.3" font-family="Times,serif" font-size="14.00">3</text>
</g>
<!-- 10&#45;&gt;217 -->
<g id="edge21" class="edge">
<title>10&#45;&gt;217</title>
<path fill="none" stroke="black" d="M665.13,-88.17C647.84,-78.14 625.84,-64.89 607,-52 606.82,-51.88 606.64,-51.75 606.46,-51.63"/>
<polygon fill="black" stroke="black" points="608.45,-48.75 598.31,-45.68 604.33,-54.4 608.45,-48.75"/>
</g>
<!-- 218 -->
<g id="node24" class="node">
<title>218</title>
<polygon fill="darkseagreen" stroke="black" points="642,-52 616,-52 616,-16 642,-16 642,-52"/>
<text text-anchor="middle" x="629" y="-30.3" font-family="Times,serif" font-size="14.00">3</text>
</g>
<!-- 10&#45;&gt;218 -->
<g id="edge22" class="edge">
<title>10&#45;&gt;218</title>
<path fill="none" stroke="black" d="M679.02,-88.05C670.02,-78.51 658.7,-66.5 649.1,-56.32"/>
<polygon fill="black" stroke="black" points="651.57,-53.84 642.17,-48.97 646.48,-58.64 651.57,-53.84"/>
</g>
<!-- 219 -->
<g id="node25" class="node">
<title>219</title>
<polygon fill="darkseagreen" stroke="black" points="686,-52 660,-52 660,-16 686,-16 686,-52"/>
<text text-anchor="middle" x="673" y="-30.3" font-family="Times,serif" font-size="14.00">3</text>
</g>
<!-- 10&#45;&gt;219 -->
<g id="edge23" class="edge">
<title>10&#45;&gt;219</title>
<path fill="none" stroke="black" d="M689.56,-87.7C687.11,-79.9 684.16,-70.51 681.43,-61.83"/>
<polygon fill="black" stroke="black" points="684.71,-60.59 678.38,-52.1 678.04,-62.69 684.71,-60.59"/>
</g>
<!-- 221 -->
<g id="node27" class="node">
<title>221</title>
<polygon fill="darkseagreen" stroke="black" points="730,-52 704,-52 704,-16 730,-16 730,-52"/>
<text text-anchor="middle" x="717" y="-30.3" font-family="Times,serif" font-size="14.00">3</text>
</g>
<!-- 10&#45;&gt;221 -->
<g id="edge25" class="edge">
<title>10&#45;&gt;221</title>
<path fill="none" stroke="black" d="M700.44,-87.7C702.89,-79.9 705.84,-70.51 708.57,-61.83"/>
<polygon fill="black" stroke="black" points="711.96,-62.69 711.62,-52.1 705.29,-60.59 711.96,-62.69"/>
</g>
<!-- 222 -->
<g id="node28" class="node">
<title>222</title>
<polygon fill="darkseagreen" stroke="black" points="774,-52 748,-52 748,-16 774,-16 774,-52"/>
<text text-anchor="middle" x="761" y="-30.3" font-family="Times,serif" font-size="14.00">3</text>
</g>
<!-- 10&#45;&gt;222 -->
<g id="edge26" class="edge">
<title>10&#45;&gt;222</title>
<path fill="none" stroke="black" d="M710.98,-88.05C719.98,-78.51 731.3,-66.5 740.9,-56.32"/>
<polygon fill="black" stroke="black" points="743.52,-58.64 747.83,-48.97 738.43,-53.84 743.52,-58.64"/>
</g>
<!-- 225 -->
<g id="node31" class="node">
<title>225</title>
<polygon fill="darkseagreen" stroke="black" points="818,-52 792,-52 792,-16 818,-16 818,-52"/>
<text text-anchor="middle" x="805" y="-30.3" font-family="Times,serif" font-size="14.00">5</text>
</g>
<!-- 10&#45;&gt;225 -->
<g id="edge29" class="edge">
<title>10&#45;&gt;225</title>
<path fill="none" stroke="black" d="M724.87,-88.17C742.16,-78.14 764.16,-64.89 783,-52 783.18,-51.88 783.36,-51.75 783.54,-51.63"/>
<polygon fill="black" stroke="black" points="785.67,-54.4 791.69,-45.68 781.55,-48.75 785.67,-54.4"/>
</g>
<!-- 229 -->
<g id="node35" class="node">
<title>229</title>
<polygon fill="darkseagreen" stroke="black" points="862,-52 836,-52 836,-16 862,-16 862,-52"/>
<text text-anchor="middle" x="849" y="-30.3" font-family="Times,serif" font-size="14.00">8</text>
</g>
<!-- 10&#45;&gt;229 -->
<g id="edge33" class="edge">
<title>10&#45;&gt;229</title>
<path fill="none" stroke="black" d="M745.09,-88.6C770.41,-79.39 801.17,-66.78 827,-52 827.19,-51.89 827.38,-51.78 827.57,-51.67"/>
<polygon fill="black" stroke="black" points="829.58,-54.54 835.92,-46.05 825.67,-48.73 829.58,-54.54"/>
</g>
<!-- 230 -->
<g id="node36" class="node">
<title>230</title>
<polygon fill="darkseagreen" stroke="black" points="915.5,-52 880.5,-52 880.5,-16 915.5,-16 915.5,-52"/>
<text text-anchor="middle" x="898" y="-30.3" font-family="Times,serif" font-size="14.00">15</text>
</g>
<!-- 10&#45;&gt;230 -->
<g id="edge34" class="edge">
<title>10&#45;&gt;230</title>
<path fill="none" stroke="black" d="M762.57,-89.23C795.98,-80.29 836.44,-67.73 871,-52 871.1,-51.96 871.2,-51.91 871.29,-51.87"/>
<polygon fill="black" stroke="black" points="873.18,-54.83 880.37,-47.04 869.9,-48.64 873.18,-54.83"/>
</g>
<!-- 231 -->
<g id="node37" class="node">
<title>231</title>
<polygon fill="darkseagreen" stroke="black" points="968.5,-52 933.5,-52 933.5,-16 968.5,-16 968.5,-52"/>
<text text-anchor="middle" x="951" y="-30.3" font-family="Times,serif" font-size="14.00">15</text>
</g>
<!-- 10&#45;&gt;231 -->
<g id="edge35" class="edge">
<title>10&#45;&gt;231</title>
<path fill="none" stroke="black" d="M788.85,-90.63C831.17,-82.3 881.15,-69.85 924,-52 924.1,-51.96 924.2,-51.92 924.3,-51.88"/>
<polygon fill="black" stroke="black" points="926.12,-54.87 933.45,-47.22 922.95,-48.64 926.12,-54.87"/>
</g>
<!-- 233 -->
<g id="node39" class="node">
<title>233</title>
<polygon fill="darkseagreen" stroke="black" points="1021.5,-52 986.5,-52 986.5,-16 1021.5,-16 1021.5,-52"/>
<text text-anchor="middle" x="1004" y="-30.3" font-family="Times,serif" font-size="14.00">19</text>
</g>
<!-- 10&#45;&gt;233 -->
<g id="edge37" class="edge">
<title>10&#45;&gt;233</title>
<path fill="none" stroke="black" d="M815.08,-92.58C866.21,-84.73 925.76,-72.1 977,-52 977.1,-51.96 977.2,-51.92 977.3,-51.88"/>
<polygon fill="black" stroke="black" points="979.08,-54.9 986.49,-47.33 975.98,-48.63 979.08,-54.9"/>
</g>
<!-- 235 -->
<g id="node41" class="node">
<title>235</title>
<polygon fill="darkseagreen" stroke="black" points="1074.5,-52 1039.5,-52 1039.5,-16 1074.5,-16 1074.5,-52"/>
<text text-anchor="middle" x="1057" y="-30.3" font-family="Times,serif" font-size="14.00">48</text>
</g>
<!-- 10&#45;&gt;235 -->
<g id="edge39" class="edge">
<title>10&#45;&gt;235</title>
<path fill="none" stroke="black" d="M838.85,-95.13C899.31,-87.71 969.51,-74.73 1030,-52 1030.1,-51.96 1030.19,-51.93 1030.29,-51.89"/>
<polygon fill="black" stroke="black" points="1031.74,-55.08 1039.23,-47.58 1028.7,-48.77 1031.74,-55.08"/>
</g>
<!-- 236 -->
<g id="node42" class="node">
<title>236</title>
<polygon fill="darkseagreen" stroke="black" points="1127.5,-52 1092.5,-52 1092.5,-16 1127.5,-16 1127.5,-52"/>
<text text-anchor="middle" x="1110" y="-30.3" font-family="Times,serif" font-size="14.00">49</text>
</g>
<!-- 10&#45;&gt;236 -->
<g id="edge40" class="edge">
<title>10&#45;&gt;236</title>
<path fill="none" stroke="black" d="M857.74,-98.22C928.6,-91.36 1011.6,-77.97 1083,-52 1083.1,-51.96 1083.2,-51.93 1083.29,-51.89"/>
<polygon fill="black" stroke="black" points="1084.72,-55.09 1092.25,-47.64 1081.71,-48.77 1084.72,-55.09"/>
</g>
<!-- 237 -->
<g id="node43" class="node">
<title>237</title>
<polygon fill="darkseagreen" stroke="black" points="1180.5,-52 1145.5,-52 1145.5,-16 1180.5,-16 1180.5,-52"/>
<text text-anchor="middle" x="1163" y="-30.3" font-family="Times,serif" font-size="14.00">52</text>
</g>
<!-- 10&#45;&gt;237 -->
<g id="edge41" class="edge">
<title>10&#45;&gt;237</title>
<path fill="none" stroke="black" d="M836.07,-94.8C943.7,-85.76 1082.31,-71.04 1136,-52 1136.1,-51.97 1136.2,-51.93 1136.29,-51.89"/>
<polygon fill="black" stroke="black" points="1137.7,-55.1 1145.26,-47.68 1134.72,-48.77 1137.7,-55.1"/>
</g>
<!-- 238 -->
<g id="node44" class="node">
<title>238</title>
<polygon fill="darkseagreen" stroke="black" points="1233.5,-52 1198.5,-52 1198.5,-16 1233.5,-16 1233.5,-52"/>
<text text-anchor="middle" x="1216" y="-30.3" font-family="Times,serif" font-size="14.00">60</text>
</g>
<!-- 10&#45;&gt;238 -->
<g id="edge42" class="edge">
<title>10&#45;&gt;238</title>
<path fill="none" stroke="black" d="M846.61,-96.25C968,-87.85 1127.74,-73.29 1189,-52 1189.1,-51.97 1189.2,-51.93 1189.29,-51.9"/>
<polygon fill="black" stroke="black" points="1190.68,-55.11 1198.28,-47.72 1187.73,-48.76 1190.68,-55.11"/>
</g>
<!-- 240 -->
<g id="node46" class="node">
<title>240</title>
<polygon fill="darkseagreen" stroke="black" points="1296,-52 1252,-52 1252,-16 1296,-16 1296,-52"/>
<text text-anchor="middle" x="1274" y="-30.3" font-family="Times,serif" font-size="14.00">104</text>
</g>
<!-- 10&#45;&gt;240 -->
<g id="edge44" class="edge">
<title>10&#45;&gt;240</title>
<path fill="none" stroke="black" d="M849.53,-96.76C985.01,-88.3 1171.08,-73.35 1242,-52 1242.1,-51.97 1242.2,-51.94 1242.31,-51.91"/>
<polygon fill="black" stroke="black" points="1243.7,-55.12 1251.75,-48.22 1241.16,-48.6 1243.7,-55.12"/>
</g>
<!-- 241 -->
<g id="node47" class="node">
<title>241</title>
<polygon fill="darkseagreen" stroke="black" points="1386,-52 1314,-52 1314,-16 1386,-16 1386,-52"/>
<text text-anchor="middle" x="1350" y="-30.3" font-family="Times,serif" font-size="14.00">242</text>
</g>
<!-- 10&#45;&gt;241 -->
<g id="edge45" class="edge">
<title>10&#45;&gt;241</title>
<path fill="none" stroke="black" d="M871.5,-102.43C991.74,-97.65 1154.17,-85.27 1304.06,-51.84"/>
<polygon fill="black" stroke="black" points="1304.93,-55.23 1313.91,-49.61 1303.39,-48.4 1304.93,-55.23"/>
</g>
<!-- 242 -->
<g id="node48" class="node">
<title>242</title>
<polygon fill="darkseagreen" stroke="black" points="1476,-52 1404,-52 1404,-16 1476,-16 1476,-52"/>
<text text-anchor="middle" x="1440" y="-30.3" font-family="Times,serif" font-size="14.00">253</text>
</g>
<!-- 10&#45;&gt;242 -->
<g id="edge46" class="edge">
<title>10&#45;&gt;242</title>
<path fill="none" stroke="black" d="M857.1,-98.08C1026.13,-89.94 1280.8,-74.83 1394.06,-51.75"/>
<polygon fill="black" stroke="black" points="1394.88,-55.16 1403.92,-49.64 1393.41,-48.31 1394.88,-55.16"/>
</g>
<!-- 244 -->
<g id="node50" class="node">
<title>244</title>
<polygon fill="darkseagreen" stroke="black" points="1566,-52 1494,-52 1494,-16 1566,-16 1566,-52"/>
<text text-anchor="middle" x="1530" y="-30.3" font-family="Times,serif" font-size="14.00">304</text>
</g>
<!-- 10&#45;&gt;244 -->
<g id="edge48" class="edge">
<title>10&#45;&gt;244</title>
<path fill="none" stroke="black" d="M863.04,-99.51C1053.83,-92.29 1354.3,-77.66 1483.79,-51.8"/>
<polygon fill="black" stroke="black" points="1484.86,-55.15 1493.93,-49.67 1483.42,-48.3 1484.86,-55.15"/>
</g>
<!-- 21 -->
<g id="node7" class="node">
<title>21</title>
<polygon fill="darkseagreen" stroke="black" points="1610,-52 1584,-52 1584,-16 1610,-16 1610,-52"/>
<text text-anchor="middle" x="1597" y="-30.3" font-family="Times,serif" font-size="14.00">1</text>
</g>
<!-- 11&#45;&gt;21 -->
<g id="edge5" class="edge">
<title>11&#45;&gt;21</title>
<path fill="none" stroke="black" d="M1789.67,-96.83C1737.64,-89.72 1672.7,-76.5 1619,-52 1618.91,-51.96 1618.81,-51.91 1618.72,-51.87"/>
<polygon fill="black" stroke="black" points="1620.71,-48.98 1610.34,-46.83 1617.11,-54.98 1620.71,-48.98"/>
</g>
<!-- 22 -->
<g id="node8" class="node">
<title>22</title>
<polygon fill="darkseagreen" stroke="black" points="1654,-52 1628,-52 1628,-16 1654,-16 1654,-52"/>
<text text-anchor="middle" x="1641" y="-30.3" font-family="Times,serif" font-size="14.00">1</text>
</g>
<!-- 11&#45;&gt;22 -->
<g id="edge6" class="edge">
<title>11&#45;&gt;22</title>
<path fill="none" stroke="black" d="M1802.36,-93.96C1759.49,-86.05 1706.75,-72.98 1663,-52 1662.91,-51.96 1662.82,-51.91 1662.72,-51.87"/>
<polygon fill="black" stroke="black" points="1664.73,-48.99 1654.38,-46.74 1661.07,-54.96 1664.73,-48.99"/>
</g>
<!-- 27 -->
<g id="node13" class="node">
<title>27</title>
<polygon fill="darkseagreen" stroke="black" points="1698,-52 1672,-52 1672,-16 1698,-16 1698,-52"/>
<text text-anchor="middle" x="1685" y="-30.3" font-family="Times,serif" font-size="14.00">1</text>
</g>
<!-- 11&#45;&gt;27 -->
<g id="edge11" class="edge">
<title>11&#45;&gt;27</title>
<path fill="none" stroke="black" d="M1818.11,-91.49C1783.89,-82.89 1741.9,-69.96 1707,-52 1706.91,-51.95 1706.82,-51.91 1706.73,-51.86"/>
<polygon fill="black" stroke="black" points="1708.77,-49.01 1698.45,-46.61 1705.02,-54.92 1708.77,-49.01"/>
</g>
<!-- 215 -->
<g id="node21" class="node">
<title>215</title>
<polygon fill="darkseagreen" stroke="black" points="1742,-52 1716,-52 1716,-16 1742,-16 1742,-52"/>
<text text-anchor="middle" x="1729" y="-30.3" font-family="Times,serif" font-size="14.00">2</text>
</g>
<!-- 11&#45;&gt;215 -->
<g id="edge19" class="edge">
<title>11&#45;&gt;215</title>
<path fill="none" stroke="black" d="M1836.04,-89.73C1810.15,-80.43 1777.9,-67.4 1751,-52 1750.81,-51.89 1750.62,-51.78 1750.43,-51.67"/>
<polygon fill="black" stroke="black" points="1752.33,-48.73 1742.08,-46.05 1748.42,-54.54 1752.33,-48.73"/>
</g>
<!-- 220 -->
<g id="node26" class="node">
<title>220</title>
<polygon fill="darkseagreen" stroke="black" points="1786,-52 1760,-52 1760,-16 1786,-16 1786,-52"/>
<text text-anchor="middle" x="1773" y="-30.3" font-family="Times,serif" font-size="14.00">3</text>
</g>
<!-- 11&#45;&gt;220 -->
<g id="edge24" class="edge">
<title>11&#45;&gt;220</title>
<path fill="none" stroke="black" d="M1853.94,-88.63C1836.53,-78.55 1814.14,-65.09 1795,-52 1794.82,-51.88 1794.64,-51.75 1794.46,-51.63"/>
<polygon fill="black" stroke="black" points="1796.45,-48.75 1786.31,-45.68 1792.33,-54.4 1796.45,-48.75"/>
</g>
<!-- 223 -->
<g id="node29" class="node">
<title>223</title>
<polygon fill="darkseagreen" stroke="black" points="1830,-52 1804,-52 1804,-16 1830,-16 1830,-52"/>
<text text-anchor="middle" x="1817" y="-30.3" font-family="Times,serif" font-size="14.00">4</text>
</g>
<!-- 11&#45;&gt;223 -->
<g id="edge27" class="edge">
<title>11&#45;&gt;223</title>
<path fill="none" stroke="black" d="M1867.02,-88.05C1858.02,-78.51 1846.7,-66.5 1837.1,-56.32"/>
<polygon fill="black" stroke="black" points="1839.57,-53.84 1830.17,-48.97 1834.48,-58.64 1839.57,-53.84"/>
</g>
<!-- 224 -->
<g id="node30" class="node">
<title>224</title>
<polygon fill="darkseagreen" stroke="black" points="1874,-52 1848,-52 1848,-16 1874,-16 1874,-52"/>
<text text-anchor="middle" x="1861" y="-30.3" font-family="Times,serif" font-size="14.00">5</text>
</g>
<!-- 11&#45;&gt;224 -->
<g id="edge28" class="edge">
<title>11&#45;&gt;224</title>
<path fill="none" stroke="black" d="M1877.56,-87.7C1875.11,-79.9 1872.16,-70.51 1869.43,-61.83"/>
<polygon fill="black" stroke="black" points="1872.71,-60.59 1866.38,-52.1 1866.04,-62.69 1872.71,-60.59"/>
</g>
<!-- 226 -->
<g id="node32" class="node">
<title>226</title>
<polygon fill="darkseagreen" stroke="black" points="1918,-52 1892,-52 1892,-16 1918,-16 1918,-52"/>
<text text-anchor="middle" x="1905" y="-30.3" font-family="Times,serif" font-size="14.00">5</text>
</g>
<!-- 11&#45;&gt;226 -->
<g id="edge30" class="edge">
<title>11&#45;&gt;226</title>
<path fill="none" stroke="black" d="M1888.44,-87.7C1890.89,-79.9 1893.84,-70.51 1896.57,-61.83"/>
<polygon fill="black" stroke="black" points="1899.96,-62.69 1899.62,-52.1 1893.29,-60.59 1899.96,-62.69"/>
</g>
<!-- 227 -->
<g id="node33" class="node">
<title>227</title>
<polygon fill="darkseagreen" stroke="black" points="1962,-52 1936,-52 1936,-16 1962,-16 1962,-52"/>
<text text-anchor="middle" x="1949" y="-30.3" font-family="Times,serif" font-size="14.00">6</text>
</g>
<!-- 11&#45;&gt;227 -->
<g id="edge31" class="edge">
<title>11&#45;&gt;227</title>
<path fill="none" stroke="black" d="M1898.98,-88.05C1907.98,-78.51 1919.3,-66.5 1928.9,-56.32"/>
<polygon fill="black" stroke="black" points="1931.52,-58.64 1935.83,-48.97 1926.43,-53.84 1931.52,-58.64"/>
</g>
<!-- 228 -->
<g id="node34" class="node">
<title>228</title>
<polygon fill="darkseagreen" stroke="black" points="2006,-52 1980,-52 1980,-16 2006,-16 2006,-52"/>
<text text-anchor="middle" x="1993" y="-30.3" font-family="Times,serif" font-size="14.00">7</text>
</g>
<!-- 11&#45;&gt;228 -->
<g id="edge32" class="edge">
<title>11&#45;&gt;228</title>
<path fill="none" stroke="black" d="M1912.06,-88.63C1929.47,-78.55 1951.86,-65.09 1971,-52 1971.18,-51.88 1971.36,-51.75 1971.54,-51.63"/>
<polygon fill="black" stroke="black" points="1973.67,-54.4 1979.69,-45.68 1969.55,-48.75 1973.67,-54.4"/>
</g>
<!-- 232 -->
<g id="node38" class="node">
<title>232</title>
<polygon fill="darkseagreen" stroke="black" points="2059.5,-52 2024.5,-52 2024.5,-16 2059.5,-16 2059.5,-52"/>
<text text-anchor="middle" x="2042" y="-30.3" font-family="Times,serif" font-size="14.00">16</text>
</g>
<!-- 11&#45;&gt;232 -->
<g id="edge36" class="edge">
<title>11&#45;&gt;232</title>
<path fill="none" stroke="black" d="M1927.28,-89.5C1953.33,-79.83 1986.62,-66.48 2015,-52 2015.1,-51.95 2015.19,-51.9 2015.29,-51.85"/>
<polygon fill="black" stroke="black" points="2017.26,-54.76 2024.25,-46.8 2013.82,-48.66 2017.26,-54.76"/>
</g>
<!-- 234 -->
<g id="node40" class="node">
<title>234</title>
<polygon fill="darkseagreen" stroke="black" points="2112.5,-52 2077.5,-52 2077.5,-16 2112.5,-16 2112.5,-52"/>
<text text-anchor="middle" x="2095" y="-30.3" font-family="Times,serif" font-size="14.00">20</text>
</g>
<!-- 11&#45;&gt;234 -->
<g id="edge38" class="edge">
<title>11&#45;&gt;234</title>
<path fill="none" stroke="black" d="M1947.08,-91.38C1983.43,-82.5 2029.26,-69.32 2068,-52 2068.1,-51.96 2068.2,-51.91 2068.29,-51.87"/>
<polygon fill="black" stroke="black" points="2070.17,-54.84 2077.39,-47.08 2066.91,-48.64 2070.17,-54.84"/>
</g>
<!-- 239 -->
<g id="node45" class="node">
<title>239</title>
<polygon fill="darkseagreen" stroke="black" points="2165.5,-52 2130.5,-52 2130.5,-16 2165.5,-16 2165.5,-52"/>
<text text-anchor="middle" x="2148" y="-30.3" font-family="Times,serif" font-size="14.00">91</text>
</g>
<!-- 11&#45;&gt;239 -->
<g id="edge43" class="edge">
<title>11&#45;&gt;239</title>
<path fill="none" stroke="black" d="M1963.87,-94.06C2010.93,-85.98 2070.7,-72.71 2121,-52 2121.1,-51.96 2121.2,-51.92 2121.3,-51.88"/>
<polygon fill="black" stroke="black" points="2123.12,-54.88 2130.46,-47.24 2119.95,-48.63 2123.12,-54.88"/>
</g>
<!-- 243 -->
<g id="node49" class="node">
<title>243</title>
<polygon fill="darkseagreen" stroke="black" points="2256,-52 2184,-52 2184,-16 2256,-16 2256,-52"/>
<text text-anchor="middle" x="2220" y="-30.3" font-family="Times,serif" font-size="14.00">299</text>
</g>
<!-- 11&#45;&gt;243 -->
<g id="edge47" class="edge">
<title>11&#45;&gt;243</title>
<path fill="none" stroke="black" d="M1964.13,-94.09C2022.98,-85.25 2104.16,-71.11 2174,-52 2174.1,-51.97 2174.2,-51.95 2174.3,-51.92"/>
<polygon fill="black" stroke="black" points="2175.22,-55.29 2183.78,-49.05 2173.2,-48.6 2175.22,-55.29"/>
</g>
<!-- 245 -->
<g id="node51" class="node">
<title>245</title>
<polygon fill="darkseagreen" stroke="black" points="2346,-52 2274,-52 2274,-16 2346,-16 2346,-52"/>
<text text-anchor="middle" x="2310" y="-30.3" font-family="Times,serif" font-size="14.00">333</text>
</g>
<!-- 11&#45;&gt;245 -->
<g id="edge49" class="edge">
<title>11&#45;&gt;245</title>
<path fill="none" stroke="black" d="M1979.12,-97.65C2054.63,-90.5 2162.32,-77.25 2264.05,-51.93"/>
<polygon fill="black" stroke="black" points="2265.04,-55.29 2273.87,-49.44 2263.32,-48.5 2265.04,-55.29"/>
</g>
<!-- legend_2 -->
<g id="node52" class="node">
<title>legend_2</title>
<polygon fill="darkseagreen" stroke="black" points="2585.5,-52 2364.5,-52 2364.5,-16 2585.5,-16 2585.5,-52"/>
<text text-anchor="middle" x="2475" y="-30.3" font-family="Times,serif" font-size="14.00">DT=6 ST=1 Similarity=0.47</text>
</g>
<!-- legend_1&#45;&gt;legend_2 -->
<g id="edge50" class="edge">
<title>legend_1&#45;&gt;legend_2</title>
<path fill="none" stroke="black" d="M2475,-87.7C2475,-79.98 2475,-70.71 2475,-62.11"/>
<polygon fill="black" stroke="black" points="2478.5,-62.1 2475,-52.1 2471.5,-62.1 2478.5,-62.1"/>
</g>
</g>
</svg>
