<?xml version="1.0" encoding="UTF-8" standalone="no"?>
<!DOCTYPE svg PUBLIC "-//W3C//DTD SVG 1.1//EN"
 "http://www.w3.org/Graphics/SVG/1.1/DTD/svg11.dtd">
<!-- Generated by graphviz version 2.43.0 (0)
 -->
<!-- Title: %3 Pages: 1 -->
<svg width="3050pt" height="497pt"
 viewBox="0.00 0.00 3049.90 497.00" xmlns="http://www.w3.org/2000/svg" xmlns:xlink="http://www.w3.org/1999/xlink">
<g id="graph0" class="graph" transform="scale(1 1) rotate(0) translate(4 493)">
<title>%3</title>
<polygon fill="white" stroke="transparent" points="-4,4 -4,-493 3045.9,-493 3045.9,4 -4,4"/>
<text text-anchor="middle" x="1520.95" y="-473.8" font-family="Times,serif" font-size="14.00">ConsTree</text>
<text text-anchor="middle" x="1520.95" y="-458.8" font-family="Times,serif" font-size="14.00">Tree Quality = 1</text>
<g id="clust1" class="cluster">
<title>cluster</title>
<polygon fill="none" stroke="black" points="2797.9,-8 2797.9,-443 3033.9,-443 3033.9,-8 2797.9,-8"/>
<text text-anchor="middle" x="2915.9" y="-427.8" font-family="Times,serif" font-size="14.00">Legend</text>
</g>
<!-- 00 -->
<g id="node1" class="node">
<title>00</title>
<ellipse fill="#b9d3ee" stroke="black" cx="1131.9" cy="-394" rx="108" ry="18"/>
<text text-anchor="middle" x="1131.9" y="-390.3" font-family="Times,serif" font-size="14.00">712</text>
</g>
<!-- 12 -->
<g id="node6" class="node">
<title>12</title>
<ellipse fill="#b9d3ee" stroke="black" cx="1203.9" cy="-322" rx="108" ry="18"/>
<text text-anchor="middle" x="1203.9" y="-318.3" font-family="Times,serif" font-size="14.00">809</text>
</g>
<!-- 00&#45;&gt;12 -->
<g id="edge3" class="edge">
<title>00&#45;&gt;12</title>
<path fill="none" stroke="black" d="M1149.33,-376.05C1158.35,-367.28 1169.51,-356.43 1179.39,-346.83"/>
<polygon fill="black" stroke="black" points="1181.9,-349.27 1186.63,-339.79 1177.02,-344.25 1181.9,-349.27"/>
</g>
<!-- 01 -->
<g id="node2" class="node">
<title>01</title>
<ellipse fill="#b9d3ee" stroke="black" cx="1437.9" cy="-394" rx="180" ry="18"/>
<text text-anchor="middle" x="1437.9" y="-390.3" font-family="Times,serif" font-size="14.00">1288</text>
</g>
<!-- 10 -->
<g id="node4" class="node">
<title>10</title>
<ellipse fill="#b9d3ee" stroke="black" cx="1365.9" cy="-322" rx="36" ry="18"/>
<text text-anchor="middle" x="1365.9" y="-318.3" font-family="Times,serif" font-size="14.00">442</text>
</g>
<!-- 01&#45;&gt;10 -->
<g id="edge1" class="edge">
<title>01&#45;&gt;10</title>
<path fill="none" stroke="black" d="M1420.47,-376.05C1411.05,-366.9 1399.3,-355.47 1389.11,-345.57"/>
<polygon fill="black" stroke="black" points="1391.3,-342.82 1381.69,-338.36 1386.42,-347.84 1391.3,-342.82"/>
</g>
<!-- 11 -->
<g id="node5" class="node">
<title>11</title>
<ellipse fill="#b9d3ee" stroke="black" cx="1527.9" cy="-322" rx="108" ry="18"/>
<text text-anchor="middle" x="1527.9" y="-318.3" font-family="Times,serif" font-size="14.00">749</text>
</g>
<!-- 01&#45;&gt;11 -->
<g id="edge2" class="edge">
<title>01&#45;&gt;11</title>
<path fill="none" stroke="black" d="M1459.68,-376.05C1471.29,-367.03 1485.74,-355.79 1498.34,-345.99"/>
<polygon fill="black" stroke="black" points="1500.57,-348.69 1506.31,-339.79 1496.27,-343.17 1500.57,-348.69"/>
</g>
<!-- 01&#45;&gt;12 -->
<g id="edge4" class="edge">
<title>01&#45;&gt;12</title>
<path fill="none" stroke="black" d="M1383.63,-376.76C1347.81,-366.05 1300.86,-352 1263.92,-340.96"/>
<polygon fill="black" stroke="black" points="1264.86,-337.58 1254.28,-338.07 1262.85,-344.29 1264.86,-337.58"/>
</g>
<!-- legend_0 -->
<g id="node3" class="node">
<title>legend_0</title>
<polygon fill="#b9d3ee" stroke="black" points="3026.4,-412 2805.4,-412 2805.4,-376 3026.4,-376 3026.4,-412"/>
<text text-anchor="middle" x="2915.9" y="-390.3" font-family="Times,serif" font-size="14.00">DT=1 ST=1 Similarity=0.44</text>
</g>
<!-- legend_1 -->
<g id="node7" class="node">
<title>legend_1</title>
<polygon fill="#b9d3ee" stroke="black" points="3026.4,-340 2805.4,-340 2805.4,-304 3026.4,-304 3026.4,-340"/>
<text text-anchor="middle" x="2915.9" y="-318.3" font-family="Times,serif" font-size="14.00">DT=2 ST=1 Similarity=0.59</text>
</g>
<!-- legend_0&#45;&gt;legend_1 -->
<g id="edge5" class="edge">
<title>legend_0&#45;&gt;legend_1</title>
<path fill="none" stroke="black" d="M2915.9,-375.7C2915.9,-367.98 2915.9,-358.71 2915.9,-350.11"/>
<polygon fill="black" stroke="black" points="2919.4,-350.1 2915.9,-340.1 2912.4,-350.1 2919.4,-350.1"/>
</g>
<!-- 21 -->
<g id="node9" class="node">
<title>21</title>
<ellipse fill="#b9d3ee" stroke="black" cx="1513.9" cy="-250" rx="36" ry="18"/>
<text text-anchor="middle" x="1513.9" y="-246.3" font-family="Times,serif" font-size="14.00">402</text>
</g>
<!-- 10&#45;&gt;21 -->
<g id="edge8" class="edge">
<title>10&#45;&gt;21</title>
<path fill="none" stroke="black" d="M1391.34,-308.97C1415.59,-297.5 1452.29,-280.14 1479.22,-267.4"/>
<polygon fill="black" stroke="black" points="1480.75,-270.55 1488.29,-263.11 1477.76,-264.22 1480.75,-270.55"/>
</g>
<!-- 23 -->
<g id="node11" class="node">
<title>23</title>
<ellipse fill="#b9d3ee" stroke="black" cx="1203.9" cy="-250" rx="108" ry="18"/>
<text text-anchor="middle" x="1203.9" y="-246.3" font-family="Times,serif" font-size="14.00">801</text>
</g>
<!-- 10&#45;&gt;23 -->
<g id="edge11" class="edge">
<title>10&#45;&gt;23</title>
<path fill="none" stroke="black" d="M1339.51,-309.6C1315.42,-299.19 1279.28,-283.57 1250.36,-271.08"/>
<polygon fill="black" stroke="black" points="1251.43,-267.73 1240.86,-266.97 1248.65,-274.15 1251.43,-267.73"/>
</g>
<!-- 20 -->
<g id="node8" class="node">
<title>20</title>
<ellipse fill="#b9d3ee" stroke="black" cx="1401.9" cy="-250" rx="36" ry="18"/>
<text text-anchor="middle" x="1401.9" y="-246.3" font-family="Times,serif" font-size="14.00">395</text>
</g>
<!-- 11&#45;&gt;20 -->
<g id="edge6" class="edge">
<title>11&#45;&gt;20</title>
<path fill="none" stroke="black" d="M1498.36,-304.59C1479.14,-293.91 1454.08,-279.99 1434.31,-269.01"/>
<polygon fill="black" stroke="black" points="1435.81,-265.84 1425.37,-264.04 1432.41,-271.95 1435.81,-265.84"/>
</g>
<!-- 11&#45;&gt;21 -->
<g id="edge9" class="edge">
<title>11&#45;&gt;21</title>
<path fill="none" stroke="black" d="M1524.44,-303.7C1522.9,-295.98 1521.04,-286.71 1519.32,-278.11"/>
<polygon fill="black" stroke="black" points="1522.71,-277.22 1517.32,-268.1 1515.85,-278.6 1522.71,-277.22"/>
</g>
<!-- 22 -->
<g id="node10" class="node">
<title>22</title>
<ellipse fill="#b9d3ee" stroke="black" cx="1603.9" cy="-250" rx="36" ry="18"/>
<text text-anchor="middle" x="1603.9" y="-246.3" font-family="Times,serif" font-size="14.00">402</text>
</g>
<!-- 11&#45;&gt;22 -->
<g id="edge10" class="edge">
<title>11&#45;&gt;22</title>
<path fill="none" stroke="black" d="M1546.3,-304.05C1556.41,-294.74 1569.07,-283.08 1579.94,-273.07"/>
<polygon fill="black" stroke="black" points="1582.5,-275.47 1587.48,-266.12 1577.75,-270.32 1582.5,-275.47"/>
</g>
<!-- 12&#45;&gt;20 -->
<g id="edge7" class="edge">
<title>12&#45;&gt;20</title>
<path fill="none" stroke="black" d="M1247.84,-305.46C1282.53,-293.2 1330.45,-276.26 1363.59,-264.54"/>
<polygon fill="black" stroke="black" points="1365.11,-267.72 1373.37,-261.09 1362.78,-261.12 1365.11,-267.72"/>
</g>
<!-- 12&#45;&gt;23 -->
<g id="edge12" class="edge">
<title>12&#45;&gt;23</title>
<path fill="none" stroke="black" d="M1203.9,-303.7C1203.9,-295.98 1203.9,-286.71 1203.9,-278.11"/>
<polygon fill="black" stroke="black" points="1207.4,-278.1 1203.9,-268.1 1200.4,-278.1 1207.4,-278.1"/>
</g>
<!-- legend_2 -->
<g id="node12" class="node">
<title>legend_2</title>
<polygon fill="#b9d3ee" stroke="black" points="3026.4,-268 2805.4,-268 2805.4,-232 3026.4,-232 3026.4,-268"/>
<text text-anchor="middle" x="2915.9" y="-246.3" font-family="Times,serif" font-size="14.00">DT=3 ST=1 Similarity=0.66</text>
</g>
<!-- legend_1&#45;&gt;legend_2 -->
<g id="edge13" class="edge">
<title>legend_1&#45;&gt;legend_2</title>
<path fill="none" stroke="black" d="M2915.9,-303.7C2915.9,-295.98 2915.9,-286.71 2915.9,-278.11"/>
<polygon fill="black" stroke="black" points="2919.4,-278.1 2915.9,-268.1 2912.4,-278.1 2919.4,-278.1"/>
</g>
<!-- 30 -->
<g id="node13" class="node">
<title>30</title>
<polygon fill="darkseagreen" stroke="black" points="1279.9,-196 1207.9,-196 1207.9,-160 1279.9,-160 1279.9,-196"/>
<text text-anchor="middle" x="1243.9" y="-174.3" font-family="Times,serif" font-size="14.00">399</text>
</g>
<!-- 20&#45;&gt;30 -->
<g id="edge14" class="edge">
<title>20&#45;&gt;30</title>
<path fill="none" stroke="black" d="M1375.81,-237.44C1352.34,-227.04 1317.35,-211.54 1289.3,-199.11"/>
<polygon fill="black" stroke="black" points="1290.64,-195.88 1280.08,-195.03 1287.8,-202.28 1290.64,-195.88"/>
</g>
<!-- 34 -->
<g id="node17" class="node">
<title>34</title>
<polygon fill="darkseagreen" stroke="black" points="1639.9,-196 1567.9,-196 1567.9,-160 1639.9,-160 1639.9,-196"/>
<text text-anchor="middle" x="1603.9" y="-174.3" font-family="Times,serif" font-size="14.00">405</text>
</g>
<!-- 20&#45;&gt;34 -->
<g id="edge19" class="edge">
<title>20&#45;&gt;34</title>
<path fill="none" stroke="black" d="M1431.23,-239.44C1460.94,-229.69 1508.41,-213.9 1557.98,-196.27"/>
<polygon fill="black" stroke="black" points="1559.35,-199.5 1567.59,-192.84 1557,-192.91 1559.35,-199.5"/>
</g>
<!-- 31 -->
<g id="node14" class="node">
<title>31</title>
<polygon fill="darkseagreen" stroke="black" points="1549.9,-196 1477.9,-196 1477.9,-160 1549.9,-160 1549.9,-196"/>
<text text-anchor="middle" x="1513.9" y="-174.3" font-family="Times,serif" font-size="14.00">401</text>
</g>
<!-- 21&#45;&gt;31 -->
<g id="edge16" class="edge">
<title>21&#45;&gt;31</title>
<path fill="none" stroke="black" d="M1513.9,-231.7C1513.9,-223.98 1513.9,-214.71 1513.9,-206.11"/>
<polygon fill="black" stroke="black" points="1517.4,-206.1 1513.9,-196.1 1510.4,-206.1 1517.4,-206.1"/>
</g>
<!-- 21&#45;&gt;34 -->
<g id="edge20" class="edge">
<title>21&#45;&gt;34</title>
<path fill="none" stroke="black" d="M1532.55,-234.5C1544.4,-225.28 1560.02,-213.13 1573.62,-202.55"/>
<polygon fill="black" stroke="black" points="1576.03,-205.11 1581.78,-196.2 1571.74,-199.58 1576.03,-205.11"/>
</g>
<!-- 22&#45;&gt;34 -->
<g id="edge21" class="edge">
<title>22&#45;&gt;34</title>
<path fill="none" stroke="black" d="M1603.9,-231.7C1603.9,-223.98 1603.9,-214.71 1603.9,-206.11"/>
<polygon fill="black" stroke="black" points="1607.4,-206.1 1603.9,-196.1 1600.4,-206.1 1607.4,-206.1"/>
</g>
<!-- 23&#45;&gt;30 -->
<g id="edge15" class="edge">
<title>23&#45;&gt;30</title>
<path fill="none" stroke="black" d="M1213.58,-232.05C1218.18,-224.01 1223.78,-214.2 1228.91,-205.23"/>
<polygon fill="black" stroke="black" points="1232.1,-206.69 1234.03,-196.28 1226.03,-203.22 1232.1,-206.69"/>
</g>
<!-- 32 -->
<g id="node15" class="node">
<title>32</title>
<polygon fill="darkseagreen" stroke="black" points="606.9,-196 534.9,-196 534.9,-160 606.9,-160 606.9,-196"/>
<text text-anchor="middle" x="570.9" y="-174.3" font-family="Times,serif" font-size="14.00">394</text>
</g>
<!-- 23&#45;&gt;32 -->
<g id="edge17" class="edge">
<title>23&#45;&gt;32</title>
<path fill="none" stroke="black" d="M1116.55,-239.34C980.33,-224.28 722.07,-195.72 617.05,-184.1"/>
<polygon fill="black" stroke="black" points="617.4,-180.62 607.08,-183 616.63,-187.58 617.4,-180.62"/>
</g>
<!-- 33 -->
<g id="node16" class="node">
<title>33</title>
<polygon fill="darkseagreen" stroke="black" points="998.9,-196 926.9,-196 926.9,-160 998.9,-160 998.9,-196"/>
<text text-anchor="middle" x="962.9" y="-174.3" font-family="Times,serif" font-size="14.00">401</text>
</g>
<!-- 23&#45;&gt;33 -->
<g id="edge18" class="edge">
<title>23&#45;&gt;33</title>
<path fill="none" stroke="black" d="M1152.49,-234.07C1109.84,-221.68 1049.74,-204.22 1008.71,-192.31"/>
<polygon fill="black" stroke="black" points="1009.55,-188.91 998.97,-189.48 1007.6,-195.63 1009.55,-188.91"/>
</g>
<!-- legend_3 -->
<g id="node18" class="node">
<title>legend_3</title>
<polygon fill="darkseagreen" stroke="black" points="3026.4,-196 2805.4,-196 2805.4,-160 3026.4,-160 3026.4,-196"/>
<text text-anchor="middle" x="2915.9" y="-174.3" font-family="Times,serif" font-size="14.00">DT=4 ST=1 Similarity=0.69</text>
</g>
<!-- legend_2&#45;&gt;legend_3 -->
<g id="edge22" class="edge">
<title>legend_2&#45;&gt;legend_3</title>
<path fill="none" stroke="black" d="M2915.9,-231.7C2915.9,-223.98 2915.9,-214.71 2915.9,-206.11"/>
<polygon fill="black" stroke="black" points="2919.4,-206.1 2915.9,-196.1 2912.4,-206.1 2919.4,-206.1"/>
</g>
<!-- 40 -->
<g id="node19" class="node">
<title>40</title>
<ellipse fill="#b9d3ee" stroke="black" cx="1151.9" cy="-106" rx="16.8" ry="18"/>
<text text-anchor="middle" x="1151.9" y="-102.3" font-family="Times,serif" font-size="14.00">4</text>
</g>
<!-- 30&#45;&gt;40 -->
<g id="edge23" class="edge">
<title>30&#45;&gt;40</title>
<path fill="none" stroke="black" d="M1221.16,-159.7C1206.62,-148.63 1187.87,-134.37 1173.54,-123.47"/>
<polygon fill="black" stroke="black" points="1175.35,-120.45 1165.27,-117.18 1171.11,-126.02 1175.35,-120.45"/>
</g>
<!-- 45 -->
<g id="node24" class="node">
<title>45</title>
<ellipse fill="#b9d3ee" stroke="black" cx="1537.9" cy="-106" rx="36" ry="18"/>
<text text-anchor="middle" x="1537.9" y="-102.3" font-family="Times,serif" font-size="14.00">400</text>
</g>
<!-- 30&#45;&gt;45 -->
<g id="edge31" class="edge">
<title>30&#45;&gt;45</title>
<path fill="none" stroke="black" d="M1279.95,-168.42C1334.63,-155.4 1438.26,-130.72 1496.14,-116.94"/>
<polygon fill="black" stroke="black" points="1497.13,-120.3 1506.05,-114.58 1495.51,-113.49 1497.13,-120.3"/>
</g>
<!-- 41 -->
<g id="node20" class="node">
<title>41</title>
<ellipse fill="#b9d3ee" stroke="black" cx="2252.9" cy="-106" rx="16.8" ry="18"/>
<text text-anchor="middle" x="2252.9" y="-102.3" font-family="Times,serif" font-size="14.00">3</text>
</g>
<!-- 31&#45;&gt;41 -->
<g id="edge25" class="edge">
<title>31&#45;&gt;41</title>
<path fill="none" stroke="black" d="M1549.97,-162.35C1552.96,-161.45 1555.96,-160.65 1558.9,-160 1770.82,-113.17 1829.52,-140.88 2045.9,-124 2110.47,-118.96 2186.33,-112.63 2225.85,-109.29"/>
<polygon fill="black" stroke="black" points="2226.33,-112.76 2236,-108.43 2225.74,-105.79 2226.33,-112.76"/>
</g>
<!-- 43 -->
<g id="node22" class="node">
<title>43</title>
<ellipse fill="#b9d3ee" stroke="black" cx="943.9" cy="-106" rx="23" ry="18"/>
<text text-anchor="middle" x="943.9" y="-102.3" font-family="Times,serif" font-size="14.00">15</text>
</g>
<!-- 31&#45;&gt;43 -->
<g id="edge28" class="edge">
<title>31&#45;&gt;43</title>
<path fill="none" stroke="black" d="M1477.81,-172.57C1373.92,-159.81 1075.24,-123.13 976.23,-110.97"/>
<polygon fill="black" stroke="black" points="976.57,-107.49 966.22,-109.74 975.71,-114.43 976.57,-107.49"/>
</g>
<!-- 47 -->
<g id="node26" class="node">
<title>47</title>
<ellipse fill="#b9d3ee" stroke="black" cx="2000.9" cy="-106" rx="36" ry="18"/>
<text text-anchor="middle" x="2000.9" y="-102.3" font-family="Times,serif" font-size="14.00">399</text>
</g>
<!-- 31&#45;&gt;47 -->
<g id="edge34" class="edge">
<title>31&#45;&gt;47</title>
<path fill="none" stroke="black" d="M1550.01,-162.5C1552.99,-161.57 1555.98,-160.72 1558.9,-160 1700.6,-125.28 1873.66,-112.95 1954.78,-108.86"/>
<polygon fill="black" stroke="black" points="1955.32,-112.34 1965.14,-108.36 1954.98,-105.35 1955.32,-112.34"/>
</g>
<!-- 32&#45;&gt;43 -->
<g id="edge29" class="edge">
<title>32&#45;&gt;43</title>
<path fill="none" stroke="black" d="M607,-170.22C679.69,-156.58 842.64,-126 911.84,-113.02"/>
<polygon fill="black" stroke="black" points="912.55,-116.44 921.73,-111.16 911.26,-109.57 912.55,-116.44"/>
</g>
<!-- 44 -->
<g id="node23" class="node">
<title>44</title>
<ellipse fill="#b9d3ee" stroke="black" cx="331.9" cy="-106" rx="23" ry="18"/>
<text text-anchor="middle" x="331.9" y="-102.3" font-family="Times,serif" font-size="14.00">51</text>
</g>
<!-- 32&#45;&gt;44 -->
<g id="edge30" class="edge">
<title>32&#45;&gt;44</title>
<path fill="none" stroke="black" d="M534.86,-166.44C487.92,-152.7 406.66,-128.9 362.54,-115.98"/>
<polygon fill="black" stroke="black" points="363.52,-112.62 352.94,-113.16 361.56,-119.33 363.52,-112.62"/>
</g>
<!-- 46 -->
<g id="node25" class="node">
<title>46</title>
<ellipse fill="#b9d3ee" stroke="black" cx="139.9" cy="-106" rx="36" ry="18"/>
<text text-anchor="middle" x="139.9" y="-102.3" font-family="Times,serif" font-size="14.00">328</text>
</g>
<!-- 32&#45;&gt;46 -->
<g id="edge33" class="edge">
<title>32&#45;&gt;46</title>
<path fill="none" stroke="black" d="M534.89,-171.15C456.16,-158.36 268.9,-127.95 183.59,-114.1"/>
<polygon fill="black" stroke="black" points="184.14,-110.64 173.71,-112.49 183.02,-117.55 184.14,-110.64"/>
</g>
<!-- 48 -->
<g id="node27" class="node">
<title>48</title>
<ellipse fill="#b9d3ee" stroke="black" cx="570.9" cy="-106" rx="36" ry="18"/>
<text text-anchor="middle" x="570.9" y="-102.3" font-family="Times,serif" font-size="14.00">397</text>
</g>
<!-- 32&#45;&gt;48 -->
<g id="edge35" class="edge">
<title>32&#45;&gt;48</title>
<path fill="none" stroke="black" d="M570.9,-159.7C570.9,-151.98 570.9,-142.71 570.9,-134.11"/>
<polygon fill="black" stroke="black" points="574.4,-134.1 570.9,-124.1 567.4,-134.1 574.4,-134.1"/>
</g>
<!-- 33&#45;&gt;40 -->
<g id="edge24" class="edge">
<title>33&#45;&gt;40</title>
<path fill="none" stroke="black" d="M999.34,-163.5C1036.51,-149.74 1093.24,-128.73 1126.03,-116.58"/>
<polygon fill="black" stroke="black" points="1127.62,-119.72 1135.78,-112.97 1125.19,-113.16 1127.62,-119.72"/>
</g>
<!-- 42 -->
<g id="node21" class="node">
<title>42</title>
<ellipse fill="#b9d3ee" stroke="black" cx="787.9" cy="-106" rx="16.8" ry="18"/>
<text text-anchor="middle" x="787.9" y="-102.3" font-family="Times,serif" font-size="14.00">3</text>
</g>
<!-- 33&#45;&gt;42 -->
<g id="edge27" class="edge">
<title>33&#45;&gt;42</title>
<path fill="none" stroke="black" d="M926.64,-162.5C892.79,-148.96 843.14,-129.09 813.32,-117.17"/>
<polygon fill="black" stroke="black" points="814.24,-113.77 803.66,-113.3 811.64,-120.27 814.24,-113.77"/>
</g>
<!-- 33&#45;&gt;48 -->
<g id="edge36" class="edge">
<title>33&#45;&gt;48</title>
<path fill="none" stroke="black" d="M926.72,-170.54C854.35,-157.62 692.01,-128.63 614.15,-114.72"/>
<polygon fill="black" stroke="black" points="614.65,-111.26 604.19,-112.95 613.42,-118.15 614.65,-111.26"/>
</g>
<!-- 34&#45;&gt;41 -->
<g id="edge26" class="edge">
<title>34&#45;&gt;41</title>
<path fill="none" stroke="black" d="M1640.18,-173.09C1757.24,-160.46 2123.25,-120.98 2225.9,-109.91"/>
<polygon fill="black" stroke="black" points="2226.47,-113.37 2236.04,-108.82 2225.72,-106.41 2226.47,-113.37"/>
</g>
<!-- 34&#45;&gt;45 -->
<g id="edge32" class="edge">
<title>34&#45;&gt;45</title>
<path fill="none" stroke="black" d="M1587.58,-159.7C1579.15,-150.75 1568.74,-139.71 1559.64,-130.06"/>
<polygon fill="black" stroke="black" points="1562.08,-127.55 1552.67,-122.67 1556.99,-132.35 1562.08,-127.55"/>
</g>
<!-- 49 -->
<g id="node28" class="node">
<title>49</title>
<ellipse fill="#b9d3ee" stroke="black" cx="2541.9" cy="-106" rx="36" ry="18"/>
<text text-anchor="middle" x="2541.9" y="-102.3" font-family="Times,serif" font-size="14.00">400</text>
</g>
<!-- 34&#45;&gt;49 -->
<g id="edge37" class="edge">
<title>34&#45;&gt;49</title>
<path fill="none" stroke="black" d="M1640.09,-174.3C1786.37,-163.38 2333.74,-122.53 2496.18,-110.41"/>
<polygon fill="black" stroke="black" points="2496.6,-113.89 2506.31,-109.66 2496.08,-106.91 2496.6,-113.89"/>
</g>
<!-- legend_4 -->
<g id="node29" class="node">
<title>legend_4</title>
<polygon fill="#b9d3ee" stroke="black" points="3026.4,-124 2805.4,-124 2805.4,-88 3026.4,-88 3026.4,-124"/>
<text text-anchor="middle" x="2915.9" y="-102.3" font-family="Times,serif" font-size="14.00">DT=5 ST=1 Similarity=0.66</text>
</g>
<!-- legend_3&#45;&gt;legend_4 -->
<g id="edge38" class="edge">
<title>legend_3&#45;&gt;legend_4</title>
<path fill="none" stroke="black" d="M2915.9,-159.7C2915.9,-151.98 2915.9,-142.71 2915.9,-134.11"/>
<polygon fill="black" stroke="black" points="2919.4,-134.1 2915.9,-124.1 2912.4,-134.1 2919.4,-134.1"/>
</g>
<!-- 53 -->
<g id="node33" class="node">
<title>53</title>
<ellipse fill="#b9d3ee" stroke="black" cx="1177.9" cy="-34" rx="16.8" ry="18"/>
<text text-anchor="middle" x="1177.9" y="-30.3" font-family="Times,serif" font-size="14.00">1</text>
</g>
<!-- 40&#45;&gt;53 -->
<g id="edge42" class="edge">
<title>40&#45;&gt;53</title>
<path fill="none" stroke="black" d="M1157.8,-89.12C1160.91,-80.73 1164.81,-70.24 1168.34,-60.73"/>
<polygon fill="black" stroke="black" points="1171.64,-61.9 1171.84,-51.31 1165.08,-59.46 1171.64,-61.9"/>
</g>
<!-- 54 -->
<g id="node34" class="node">
<title>54</title>
<ellipse fill="#b9d3ee" stroke="black" cx="1229.9" cy="-34" rx="16.8" ry="18"/>
<text text-anchor="middle" x="1229.9" y="-30.3" font-family="Times,serif" font-size="14.00">1</text>
</g>
<!-- 40&#45;&gt;54 -->
<g id="edge43" class="edge">
<title>40&#45;&gt;54</title>
<path fill="none" stroke="black" d="M1164.43,-93.75C1176.6,-82.83 1195.27,-66.07 1209.57,-53.24"/>
<polygon fill="black" stroke="black" points="1212.29,-55.5 1217.4,-46.22 1207.62,-50.29 1212.29,-55.5"/>
</g>
<!-- 56 -->
<g id="node36" class="node">
<title>56</title>
<ellipse fill="#b9d3ee" stroke="black" cx="1073.9" cy="-34" rx="16.8" ry="18"/>
<text text-anchor="middle" x="1073.9" y="-30.3" font-family="Times,serif" font-size="14.00">1</text>
</g>
<!-- 40&#45;&gt;56 -->
<g id="edge45" class="edge">
<title>40&#45;&gt;56</title>
<path fill="none" stroke="black" d="M1139.37,-93.75C1127.2,-82.83 1108.52,-66.07 1094.23,-53.24"/>
<polygon fill="black" stroke="black" points="1096.18,-50.29 1086.4,-46.22 1091.5,-55.5 1096.18,-50.29"/>
</g>
<!-- 57 -->
<g id="node37" class="node">
<title>57</title>
<ellipse fill="#b9d3ee" stroke="black" cx="1125.9" cy="-34" rx="16.8" ry="18"/>
<text text-anchor="middle" x="1125.9" y="-30.3" font-family="Times,serif" font-size="14.00">1</text>
</g>
<!-- 40&#45;&gt;57 -->
<g id="edge46" class="edge">
<title>40&#45;&gt;57</title>
<path fill="none" stroke="black" d="M1146,-89.12C1142.89,-80.73 1138.99,-70.24 1135.46,-60.73"/>
<polygon fill="black" stroke="black" points="1138.72,-59.46 1131.96,-51.31 1132.16,-61.9 1138.72,-59.46"/>
</g>
<!-- 51 -->
<g id="node31" class="node">
<title>51</title>
<ellipse fill="#b9d3ee" stroke="black" cx="2356.9" cy="-34" rx="16.8" ry="18"/>
<text text-anchor="middle" x="2356.9" y="-30.3" font-family="Times,serif" font-size="14.00">1</text>
</g>
<!-- 41&#45;&gt;51 -->
<g id="edge40" class="edge">
<title>41&#45;&gt;51</title>
<path fill="none" stroke="black" d="M2266.92,-95.56C2284.21,-83.92 2313.82,-63.99 2334.33,-50.19"/>
<polygon fill="black" stroke="black" points="2336.42,-53 2342.76,-44.51 2332.51,-47.19 2336.42,-53"/>
</g>
<!-- 58 -->
<g id="node38" class="node">
<title>58</title>
<ellipse fill="#b9d3ee" stroke="black" cx="2252.9" cy="-34" rx="16.8" ry="18"/>
<text text-anchor="middle" x="2252.9" y="-30.3" font-family="Times,serif" font-size="14.00">1</text>
</g>
<!-- 41&#45;&gt;58 -->
<g id="edge47" class="edge">
<title>41&#45;&gt;58</title>
<path fill="none" stroke="black" d="M2252.9,-87.7C2252.9,-79.98 2252.9,-70.71 2252.9,-62.11"/>
<polygon fill="black" stroke="black" points="2256.4,-62.1 2252.9,-52.1 2249.4,-62.1 2256.4,-62.1"/>
</g>
<!-- 59 -->
<g id="node39" class="node">
<title>59</title>
<ellipse fill="#b9d3ee" stroke="black" cx="2304.9" cy="-34" rx="16.8" ry="18"/>
<text text-anchor="middle" x="2304.9" y="-30.3" font-family="Times,serif" font-size="14.00">1</text>
</g>
<!-- 41&#45;&gt;59 -->
<g id="edge48" class="edge">
<title>41&#45;&gt;59</title>
<path fill="none" stroke="black" d="M2262.92,-91.5C2270.17,-81.75 2280.11,-68.37 2288.5,-57.07"/>
<polygon fill="black" stroke="black" points="2291.39,-59.05 2294.55,-48.93 2285.77,-54.87 2291.39,-59.05"/>
</g>
<!-- 511 -->
<g id="node41" class="node">
<title>511</title>
<ellipse fill="#b9d3ee" stroke="black" cx="709.9" cy="-34" rx="16.8" ry="18"/>
<text text-anchor="middle" x="709.9" y="-30.3" font-family="Times,serif" font-size="14.00">1</text>
</g>
<!-- 42&#45;&gt;511 -->
<g id="edge50" class="edge">
<title>42&#45;&gt;511</title>
<path fill="none" stroke="black" d="M775.37,-93.75C763.2,-82.83 744.52,-66.07 730.23,-53.24"/>
<polygon fill="black" stroke="black" points="732.18,-50.29 722.4,-46.22 727.5,-55.5 732.18,-50.29"/>
</g>
<!-- 512 -->
<g id="node42" class="node">
<title>512</title>
<ellipse fill="#b9d3ee" stroke="black" cx="761.9" cy="-34" rx="16.8" ry="18"/>
<text text-anchor="middle" x="761.9" y="-30.3" font-family="Times,serif" font-size="14.00">1</text>
</g>
<!-- 42&#45;&gt;512 -->
<g id="edge51" class="edge">
<title>42&#45;&gt;512</title>
<path fill="none" stroke="black" d="M782,-89.12C778.89,-80.73 774.99,-70.24 771.46,-60.73"/>
<polygon fill="black" stroke="black" points="774.72,-59.46 767.96,-51.31 768.16,-61.9 774.72,-59.46"/>
</g>
<!-- 515 -->
<g id="node45" class="node">
<title>515</title>
<ellipse fill="#b9d3ee" stroke="black" cx="813.9" cy="-34" rx="16.8" ry="18"/>
<text text-anchor="middle" x="813.9" y="-30.3" font-family="Times,serif" font-size="14.00">1</text>
</g>
<!-- 42&#45;&gt;515 -->
<g id="edge54" class="edge">
<title>42&#45;&gt;515</title>
<path fill="none" stroke="black" d="M793.8,-89.12C796.91,-80.73 800.81,-70.24 804.34,-60.73"/>
<polygon fill="black" stroke="black" points="807.64,-61.9 807.84,-51.31 801.08,-59.46 807.64,-61.9"/>
</g>
<!-- 50 -->
<g id="node30" class="node">
<title>50</title>
<ellipse fill="#b9d3ee" stroke="black" cx="969.9" cy="-34" rx="16.8" ry="18"/>
<text text-anchor="middle" x="969.9" y="-30.3" font-family="Times,serif" font-size="14.00">1</text>
</g>
<!-- 43&#45;&gt;50 -->
<g id="edge39" class="edge">
<title>43&#45;&gt;50</title>
<path fill="none" stroke="black" d="M950.06,-88.41C953.15,-80.1 956.96,-69.85 960.41,-60.56"/>
<polygon fill="black" stroke="black" points="963.76,-61.58 963.96,-50.99 957.2,-59.14 963.76,-61.58"/>
</g>
<!-- 55 -->
<g id="node35" class="node">
<title>55</title>
<ellipse fill="#b9d3ee" stroke="black" cx="1021.9" cy="-34" rx="16.8" ry="18"/>
<text text-anchor="middle" x="1021.9" y="-30.3" font-family="Times,serif" font-size="14.00">1</text>
</g>
<!-- 43&#45;&gt;55 -->
<g id="edge44" class="edge">
<title>43&#45;&gt;55</title>
<path fill="none" stroke="black" d="M958.57,-91.83C970.7,-80.94 988.07,-65.36 1001.54,-53.27"/>
<polygon fill="black" stroke="black" points="1004.25,-55.54 1009.35,-46.26 999.57,-50.33 1004.25,-55.54"/>
</g>
<!-- 527 -->
<g id="node57" class="node">
<title>527</title>
<ellipse fill="#b9d3ee" stroke="black" cx="865.9" cy="-34" rx="16.8" ry="18"/>
<text text-anchor="middle" x="865.9" y="-30.3" font-family="Times,serif" font-size="14.00">6</text>
</g>
<!-- 43&#45;&gt;527 -->
<g id="edge66" class="edge">
<title>43&#45;&gt;527</title>
<path fill="none" stroke="black" d="M929.23,-91.83C917.09,-80.94 899.73,-65.36 886.25,-53.27"/>
<polygon fill="black" stroke="black" points="888.22,-50.33 878.44,-46.26 883.55,-55.54 888.22,-50.33"/>
</g>
<!-- 529 -->
<g id="node59" class="node">
<title>529</title>
<ellipse fill="#b9d3ee" stroke="black" cx="917.9" cy="-34" rx="16.8" ry="18"/>
<text text-anchor="middle" x="917.9" y="-30.3" font-family="Times,serif" font-size="14.00">7</text>
</g>
<!-- 43&#45;&gt;529 -->
<g id="edge68" class="edge">
<title>43&#45;&gt;529</title>
<path fill="none" stroke="black" d="M937.74,-88.41C934.65,-80.1 930.84,-69.85 927.39,-60.56"/>
<polygon fill="black" stroke="black" points="930.6,-59.14 923.84,-50.99 924.04,-61.58 930.6,-59.14"/>
</g>
<!-- 538 -->
<g id="node68" class="node">
<title>538</title>
<ellipse fill="#b9d3ee" stroke="black" cx="331.9" cy="-34" rx="23" ry="18"/>
<text text-anchor="middle" x="331.9" y="-30.3" font-family="Times,serif" font-size="14.00">23</text>
</g>
<!-- 44&#45;&gt;538 -->
<g id="edge77" class="edge">
<title>44&#45;&gt;538</title>
<path fill="none" stroke="black" d="M331.9,-87.7C331.9,-79.98 331.9,-70.71 331.9,-62.11"/>
<polygon fill="black" stroke="black" points="335.4,-62.1 331.9,-52.1 328.4,-62.1 335.4,-62.1"/>
</g>
<!-- 539 -->
<g id="node69" class="node">
<title>539</title>
<ellipse fill="#b9d3ee" stroke="black" cx="268.9" cy="-34" rx="23" ry="18"/>
<text text-anchor="middle" x="268.9" y="-30.3" font-family="Times,serif" font-size="14.00">28</text>
</g>
<!-- 44&#45;&gt;539 -->
<g id="edge78" class="edge">
<title>44&#45;&gt;539</title>
<path fill="none" stroke="black" d="M319.15,-90.83C310.35,-81.06 298.49,-67.88 288.5,-56.78"/>
<polygon fill="black" stroke="black" points="290.92,-54.24 281.63,-49.14 285.72,-58.92 290.92,-54.24"/>
</g>
<!-- 518 -->
<g id="node48" class="node">
<title>518</title>
<ellipse fill="#b9d3ee" stroke="black" cx="1355.9" cy="-34" rx="16.8" ry="18"/>
<text text-anchor="middle" x="1355.9" y="-30.3" font-family="Times,serif" font-size="14.00">2</text>
</g>
<!-- 45&#45;&gt;518 -->
<g id="edge57" class="edge">
<title>45&#45;&gt;518</title>
<path fill="none" stroke="black" d="M1506.5,-96.85C1474.33,-87.93 1423.3,-72.17 1381.9,-52 1380.73,-51.43 1379.54,-50.81 1378.36,-50.17"/>
<polygon fill="black" stroke="black" points="1379.92,-47.02 1369.55,-44.85 1376.3,-53.01 1379.92,-47.02"/>
</g>
<!-- 522 -->
<g id="node52" class="node">
<title>522</title>
<ellipse fill="#b9d3ee" stroke="black" cx="1407.9" cy="-34" rx="16.8" ry="18"/>
<text text-anchor="middle" x="1407.9" y="-30.3" font-family="Times,serif" font-size="14.00">3</text>
</g>
<!-- 45&#45;&gt;522 -->
<g id="edge61" class="edge">
<title>45&#45;&gt;522</title>
<path fill="none" stroke="black" d="M1512.7,-93.1C1491.38,-82.82 1460.2,-67.24 1433.9,-52 1432.77,-51.35 1431.62,-50.66 1430.47,-49.96"/>
<polygon fill="black" stroke="black" points="1432.08,-46.84 1421.76,-44.46 1428.34,-52.76 1432.08,-46.84"/>
</g>
<!-- 523 -->
<g id="node53" class="node">
<title>523</title>
<ellipse fill="#b9d3ee" stroke="black" cx="1459.9" cy="-34" rx="16.8" ry="18"/>
<text text-anchor="middle" x="1459.9" y="-30.3" font-family="Times,serif" font-size="14.00">3</text>
</g>
<!-- 45&#45;&gt;523 -->
<g id="edge62" class="edge">
<title>45&#45;&gt;523</title>
<path fill="none" stroke="black" d="M1520.97,-89.81C1509.07,-79.12 1493.06,-64.76 1480.42,-53.42"/>
<polygon fill="black" stroke="black" points="1482.46,-50.55 1472.68,-46.47 1477.79,-55.76 1482.46,-50.55"/>
</g>
<!-- 524 -->
<g id="node54" class="node">
<title>524</title>
<ellipse fill="#b9d3ee" stroke="black" cx="1511.9" cy="-34" rx="16.8" ry="18"/>
<text text-anchor="middle" x="1511.9" y="-30.3" font-family="Times,serif" font-size="14.00">4</text>
</g>
<!-- 45&#45;&gt;524 -->
<g id="edge63" class="edge">
<title>45&#45;&gt;524</title>
<path fill="none" stroke="black" d="M1531.6,-88.05C1528.56,-79.85 1524.84,-69.83 1521.45,-60.71"/>
<polygon fill="black" stroke="black" points="1524.72,-59.46 1517.96,-51.31 1518.16,-61.9 1524.72,-59.46"/>
</g>
<!-- 526 -->
<g id="node56" class="node">
<title>526</title>
<ellipse fill="#b9d3ee" stroke="black" cx="1563.9" cy="-34" rx="16.8" ry="18"/>
<text text-anchor="middle" x="1563.9" y="-30.3" font-family="Times,serif" font-size="14.00">6</text>
</g>
<!-- 45&#45;&gt;526 -->
<g id="edge65" class="edge">
<title>45&#45;&gt;526</title>
<path fill="none" stroke="black" d="M1544.19,-88.05C1547.24,-79.85 1550.96,-69.83 1554.35,-60.71"/>
<polygon fill="black" stroke="black" points="1557.64,-61.9 1557.84,-51.31 1551.08,-59.46 1557.64,-61.9"/>
</g>
<!-- 531 -->
<g id="node61" class="node">
<title>531</title>
<ellipse fill="#b9d3ee" stroke="black" cx="1615.9" cy="-34" rx="16.8" ry="18"/>
<text text-anchor="middle" x="1615.9" y="-30.3" font-family="Times,serif" font-size="14.00">9</text>
</g>
<!-- 45&#45;&gt;531 -->
<g id="edge70" class="edge">
<title>45&#45;&gt;531</title>
<path fill="none" stroke="black" d="M1554.82,-89.81C1566.73,-79.12 1582.73,-64.76 1595.37,-53.42"/>
<polygon fill="black" stroke="black" points="1598.01,-55.76 1603.11,-46.47 1593.33,-50.55 1598.01,-55.76"/>
</g>
<!-- 533 -->
<g id="node63" class="node">
<title>533</title>
<ellipse fill="#b9d3ee" stroke="black" cx="1673.9" cy="-34" rx="23" ry="18"/>
<text text-anchor="middle" x="1673.9" y="-30.3" font-family="Times,serif" font-size="14.00">13</text>
</g>
<!-- 45&#45;&gt;533 -->
<g id="edge72" class="edge">
<title>45&#45;&gt;533</title>
<path fill="none" stroke="black" d="M1562.33,-92.69C1583.45,-82.03 1614.75,-66.13 1641.9,-52 1643.43,-51.2 1645.01,-50.38 1646.59,-49.54"/>
<polygon fill="black" stroke="black" points="1648.44,-52.53 1655.65,-44.76 1645.17,-46.34 1648.44,-52.53"/>
</g>
<!-- 540 -->
<g id="node70" class="node">
<title>540</title>
<ellipse fill="#b9d3ee" stroke="black" cx="1736.9" cy="-34" rx="23" ry="18"/>
<text text-anchor="middle" x="1736.9" y="-30.3" font-family="Times,serif" font-size="14.00">36</text>
</g>
<!-- 45&#45;&gt;540 -->
<g id="edge79" class="edge">
<title>45&#45;&gt;540</title>
<path fill="none" stroke="black" d="M1569.21,-97.1C1603.46,-88.01 1659.63,-71.76 1705.9,-52 1707.27,-51.41 1708.67,-50.78 1710.07,-50.12"/>
<polygon fill="black" stroke="black" points="1711.84,-53.15 1719.16,-45.5 1708.66,-46.91 1711.84,-53.15"/>
</g>
<!-- 542 -->
<g id="node72" class="node">
<title>542</title>
<ellipse fill="#b9d3ee" stroke="black" cx="1805.9" cy="-34" rx="28.7" ry="18"/>
<text text-anchor="middle" x="1805.9" y="-30.3" font-family="Times,serif" font-size="14.00">124</text>
</g>
<!-- 45&#45;&gt;542 -->
<g id="edge81" class="edge">
<title>45&#45;&gt;542</title>
<path fill="none" stroke="black" d="M1571.78,-99.48C1617.34,-91.54 1700.54,-75.27 1768.9,-52 1770.81,-51.35 1772.75,-50.64 1774.69,-49.88"/>
<polygon fill="black" stroke="black" points="1776.44,-52.94 1784.29,-45.83 1773.71,-46.49 1776.44,-52.94"/>
</g>
<!-- 543 -->
<g id="node73" class="node">
<title>543</title>
<ellipse fill="#b9d3ee" stroke="black" cx="1292.9" cy="-34" rx="28.7" ry="18"/>
<text text-anchor="middle" x="1292.9" y="-30.3" font-family="Times,serif" font-size="14.00">200</text>
</g>
<!-- 45&#45;&gt;543 -->
<g id="edge82" class="edge">
<title>45&#45;&gt;543</title>
<path fill="none" stroke="black" d="M1504.93,-98.53C1463.45,-89.96 1390.32,-73.38 1329.9,-52 1328.05,-51.35 1326.17,-50.63 1324.28,-49.88"/>
<polygon fill="black" stroke="black" points="1325.51,-46.6 1314.93,-45.91 1322.77,-53.05 1325.51,-46.6"/>
</g>
<!-- 510 -->
<g id="node40" class="node">
<title>510</title>
<ellipse fill="#b9d3ee" stroke="black" cx="210.9" cy="-34" rx="16.8" ry="18"/>
<text text-anchor="middle" x="210.9" y="-30.3" font-family="Times,serif" font-size="14.00">1</text>
</g>
<!-- 46&#45;&gt;510 -->
<g id="edge49" class="edge">
<title>46&#45;&gt;510</title>
<path fill="none" stroke="black" d="M155.66,-89.46C166.28,-78.99 180.36,-65.11 191.64,-53.98"/>
<polygon fill="black" stroke="black" points="194.27,-56.31 198.93,-46.8 189.36,-51.32 194.27,-56.31"/>
</g>
<!-- 516 -->
<g id="node46" class="node">
<title>516</title>
<ellipse fill="#b9d3ee" stroke="black" cx="16.9" cy="-34" rx="16.8" ry="18"/>
<text text-anchor="middle" x="16.9" y="-30.3" font-family="Times,serif" font-size="14.00">1</text>
</g>
<!-- 46&#45;&gt;516 -->
<g id="edge55" class="edge">
<title>46&#45;&gt;516</title>
<path fill="none" stroke="black" d="M115.68,-92.45C95.88,-82.03 67.26,-66.59 42.9,-52 41.78,-51.33 40.64,-50.63 39.49,-49.92"/>
<polygon fill="black" stroke="black" points="41.12,-46.81 30.8,-44.38 37.35,-52.71 41.12,-46.81"/>
</g>
<!-- 517 -->
<g id="node47" class="node">
<title>517</title>
<ellipse fill="#b9d3ee" stroke="black" cx="68.9" cy="-34" rx="16.8" ry="18"/>
<text text-anchor="middle" x="68.9" y="-30.3" font-family="Times,serif" font-size="14.00">2</text>
</g>
<!-- 46&#45;&gt;517 -->
<g id="edge56" class="edge">
<title>46&#45;&gt;517</title>
<path fill="none" stroke="black" d="M124.14,-89.46C113.52,-78.99 99.44,-65.11 88.15,-53.98"/>
<polygon fill="black" stroke="black" points="90.44,-51.32 80.86,-46.8 85.53,-56.31 90.44,-51.32"/>
</g>
<!-- 545 -->
<g id="node75" class="node">
<title>545</title>
<ellipse fill="#b9d3ee" stroke="black" cx="139.9" cy="-34" rx="36" ry="18"/>
<text text-anchor="middle" x="139.9" y="-30.3" font-family="Times,serif" font-size="14.00">324</text>
</g>
<!-- 46&#45;&gt;545 -->
<g id="edge84" class="edge">
<title>46&#45;&gt;545</title>
<path fill="none" stroke="black" d="M139.9,-87.7C139.9,-79.98 139.9,-70.71 139.9,-62.11"/>
<polygon fill="black" stroke="black" points="143.4,-62.1 139.9,-52.1 136.4,-62.1 143.4,-62.1"/>
</g>
<!-- 513 -->
<g id="node43" class="node">
<title>513</title>
<ellipse fill="#b9d3ee" stroke="black" cx="2148.9" cy="-34" rx="16.8" ry="18"/>
<text text-anchor="middle" x="2148.9" y="-30.3" font-family="Times,serif" font-size="14.00">1</text>
</g>
<!-- 47&#45;&gt;513 -->
<g id="edge52" class="edge">
<title>47&#45;&gt;513</title>
<path fill="none" stroke="black" d="M2028.66,-94.5C2053.8,-84.63 2091.59,-68.88 2122.9,-52 2124.05,-51.38 2125.21,-50.73 2126.38,-50.05"/>
<polygon fill="black" stroke="black" points="2128.48,-52.87 2135.13,-44.62 2124.79,-46.92 2128.48,-52.87"/>
</g>
<!-- 521 -->
<g id="node51" class="node">
<title>521</title>
<ellipse fill="#b9d3ee" stroke="black" cx="2200.9" cy="-34" rx="16.8" ry="18"/>
<text text-anchor="middle" x="2200.9" y="-30.3" font-family="Times,serif" font-size="14.00">2</text>
</g>
<!-- 47&#45;&gt;521 -->
<g id="edge60" class="edge">
<title>47&#45;&gt;521</title>
<path fill="none" stroke="black" d="M2033.33,-98.04C2069.06,-89.71 2127.7,-74.07 2174.9,-52 2176.08,-51.45 2177.27,-50.85 2178.46,-50.21"/>
<polygon fill="black" stroke="black" points="2180.5,-53.07 2187.29,-44.93 2176.91,-47.06 2180.5,-53.07"/>
</g>
<!-- 532 -->
<g id="node62" class="node">
<title>532</title>
<ellipse fill="#b9d3ee" stroke="black" cx="1874.9" cy="-34" rx="23" ry="18"/>
<text text-anchor="middle" x="1874.9" y="-30.3" font-family="Times,serif" font-size="14.00">11</text>
</g>
<!-- 47&#45;&gt;532 -->
<g id="edge71" class="edge">
<title>47&#45;&gt;532</title>
<path fill="none" stroke="black" d="M1977.79,-92.16C1956.31,-80.23 1924.32,-62.46 1901.72,-49.9"/>
<polygon fill="black" stroke="black" points="1903.41,-46.84 1892.97,-45.04 1900.01,-52.95 1903.41,-46.84"/>
</g>
<!-- 536 -->
<g id="node66" class="node">
<title>536</title>
<ellipse fill="#b9d3ee" stroke="black" cx="1937.9" cy="-34" rx="23" ry="18"/>
<text text-anchor="middle" x="1937.9" y="-30.3" font-family="Times,serif" font-size="14.00">15</text>
</g>
<!-- 47&#45;&gt;536 -->
<g id="edge75" class="edge">
<title>47&#45;&gt;536</title>
<path fill="none" stroke="black" d="M1986.6,-89.12C1978.04,-79.6 1967.03,-67.37 1957.64,-56.94"/>
<polygon fill="black" stroke="black" points="1960.14,-54.48 1950.85,-49.39 1954.94,-59.17 1960.14,-54.48"/>
</g>
<!-- 537 -->
<g id="node67" class="node">
<title>537</title>
<ellipse fill="#b9d3ee" stroke="black" cx="2000.9" cy="-34" rx="23" ry="18"/>
<text text-anchor="middle" x="2000.9" y="-30.3" font-family="Times,serif" font-size="14.00">21</text>
</g>
<!-- 47&#45;&gt;537 -->
<g id="edge76" class="edge">
<title>47&#45;&gt;537</title>
<path fill="none" stroke="black" d="M2000.9,-87.7C2000.9,-79.98 2000.9,-70.71 2000.9,-62.11"/>
<polygon fill="black" stroke="black" points="2004.4,-62.1 2000.9,-52.1 1997.4,-62.1 2004.4,-62.1"/>
</g>
<!-- 546 -->
<g id="node76" class="node">
<title>546</title>
<ellipse fill="#b9d3ee" stroke="black" cx="2077.9" cy="-34" rx="36" ry="18"/>
<text text-anchor="middle" x="2077.9" y="-30.3" font-family="Times,serif" font-size="14.00">349</text>
</g>
<!-- 47&#45;&gt;546 -->
<g id="edge85" class="edge">
<title>47&#45;&gt;546</title>
<path fill="none" stroke="black" d="M2017.61,-89.81C2028.1,-80.27 2041.81,-67.8 2053.51,-57.17"/>
<polygon fill="black" stroke="black" points="2056.18,-59.48 2061.22,-50.16 2051.47,-54.3 2056.18,-59.48"/>
</g>
<!-- 52 -->
<g id="node32" class="node">
<title>52</title>
<ellipse fill="#b9d3ee" stroke="black" cx="605.9" cy="-34" rx="16.8" ry="18"/>
<text text-anchor="middle" x="605.9" y="-30.3" font-family="Times,serif" font-size="14.00">1</text>
</g>
<!-- 48&#45;&gt;52 -->
<g id="edge41" class="edge">
<title>48&#45;&gt;52</title>
<path fill="none" stroke="black" d="M579.19,-88.41C583.5,-79.8 588.84,-69.11 593.62,-59.56"/>
<polygon fill="black" stroke="black" points="596.8,-61.02 598.14,-50.51 590.54,-57.89 596.8,-61.02"/>
</g>
<!-- 530 -->
<g id="node60" class="node">
<title>530</title>
<ellipse fill="#b9d3ee" stroke="black" cx="657.9" cy="-34" rx="16.8" ry="18"/>
<text text-anchor="middle" x="657.9" y="-30.3" font-family="Times,serif" font-size="14.00">9</text>
</g>
<!-- 48&#45;&gt;530 -->
<g id="edge69" class="edge">
<title>48&#45;&gt;530</title>
<path fill="none" stroke="black" d="M589.35,-90.15C603.28,-78.95 622.4,-63.56 636.91,-51.89"/>
<polygon fill="black" stroke="black" points="639.25,-54.5 644.84,-45.5 634.86,-49.05 639.25,-54.5"/>
</g>
<!-- 534 -->
<g id="node64" class="node">
<title>534</title>
<ellipse fill="#b9d3ee" stroke="black" cx="394.9" cy="-34" rx="23" ry="18"/>
<text text-anchor="middle" x="394.9" y="-30.3" font-family="Times,serif" font-size="14.00">14</text>
</g>
<!-- 48&#45;&gt;534 -->
<g id="edge73" class="edge">
<title>48&#45;&gt;534</title>
<path fill="none" stroke="black" d="M541.22,-95.62C511.53,-85.89 464.83,-69.67 425.9,-52 424.54,-51.38 423.15,-50.73 421.76,-50.05"/>
<polygon fill="black" stroke="black" points="423.19,-46.84 412.7,-45.36 419.97,-53.06 423.19,-46.84"/>
</g>
<!-- 535 -->
<g id="node65" class="node">
<title>535</title>
<ellipse fill="#b9d3ee" stroke="black" cx="457.9" cy="-34" rx="23" ry="18"/>
<text text-anchor="middle" x="457.9" y="-30.3" font-family="Times,serif" font-size="14.00">15</text>
</g>
<!-- 48&#45;&gt;535 -->
<g id="edge74" class="edge">
<title>48&#45;&gt;535</title>
<path fill="none" stroke="black" d="M549.11,-91.5C530.42,-79.93 503.47,-63.23 483.7,-50.98"/>
<polygon fill="black" stroke="black" points="485.53,-48 475.18,-45.71 481.84,-53.95 485.53,-48"/>
</g>
<!-- 547 -->
<g id="node77" class="node">
<title>547</title>
<ellipse fill="#b9d3ee" stroke="black" cx="534.9" cy="-34" rx="36" ry="18"/>
<text text-anchor="middle" x="534.9" y="-30.3" font-family="Times,serif" font-size="14.00">358</text>
</g>
<!-- 48&#45;&gt;547 -->
<g id="edge86" class="edge">
<title>48&#45;&gt;547</title>
<path fill="none" stroke="black" d="M562.37,-88.41C558.17,-80.25 553.01,-70.22 548.3,-61.07"/>
<polygon fill="black" stroke="black" points="551.3,-59.25 543.62,-51.96 545.08,-62.45 551.3,-59.25"/>
</g>
<!-- 514 -->
<g id="node44" class="node">
<title>514</title>
<ellipse fill="#b9d3ee" stroke="black" cx="2718.9" cy="-34" rx="16.8" ry="18"/>
<text text-anchor="middle" x="2718.9" y="-30.3" font-family="Times,serif" font-size="14.00">1</text>
</g>
<!-- 49&#45;&gt;514 -->
<g id="edge53" class="edge">
<title>49&#45;&gt;514</title>
<path fill="none" stroke="black" d="M2572.86,-96.53C2604.02,-87.45 2653.03,-71.67 2692.9,-52 2694.07,-51.42 2695.25,-50.8 2696.43,-50.15"/>
<polygon fill="black" stroke="black" points="2698.49,-52.99 2705.23,-44.82 2694.87,-47.01 2698.49,-52.99"/>
</g>
<!-- 519 -->
<g id="node49" class="node">
<title>519</title>
<ellipse fill="#b9d3ee" stroke="black" cx="2770.9" cy="-34" rx="16.8" ry="18"/>
<text text-anchor="middle" x="2770.9" y="-30.3" font-family="Times,serif" font-size="14.00">2</text>
</g>
<!-- 49&#45;&gt;519 -->
<g id="edge58" class="edge">
<title>49&#45;&gt;519</title>
<path fill="none" stroke="black" d="M2575.71,-99.63C2616.93,-92.32 2688.12,-77.17 2744.9,-52 2746.09,-51.47 2747.29,-50.89 2748.48,-50.27"/>
<polygon fill="black" stroke="black" points="2750.51,-53.14 2757.34,-45.05 2746.95,-47.12 2750.51,-53.14"/>
</g>
<!-- 520 -->
<g id="node50" class="node">
<title>520</title>
<ellipse fill="#b9d3ee" stroke="black" cx="2408.9" cy="-34" rx="16.8" ry="18"/>
<text text-anchor="middle" x="2408.9" y="-30.3" font-family="Times,serif" font-size="14.00">2</text>
</g>
<!-- 49&#45;&gt;520 -->
<g id="edge59" class="edge">
<title>49&#45;&gt;520</title>
<path fill="none" stroke="black" d="M2515.94,-93.2C2493.99,-82.98 2461.89,-67.44 2434.9,-52 2433.77,-51.35 2432.62,-50.68 2431.46,-49.98"/>
<polygon fill="black" stroke="black" points="2433.07,-46.86 2422.74,-44.49 2429.34,-52.78 2433.07,-46.86"/>
</g>
<!-- 525 -->
<g id="node55" class="node">
<title>525</title>
<ellipse fill="#b9d3ee" stroke="black" cx="2460.9" cy="-34" rx="16.8" ry="18"/>
<text text-anchor="middle" x="2460.9" y="-30.3" font-family="Times,serif" font-size="14.00">5</text>
</g>
<!-- 49&#45;&gt;525 -->
<g id="edge64" class="edge">
<title>49&#45;&gt;525</title>
<path fill="none" stroke="black" d="M2524.72,-90.15C2512.11,-79.25 2494.91,-64.4 2481.55,-52.85"/>
<polygon fill="black" stroke="black" points="2483.66,-50.04 2473.8,-46.15 2479.08,-55.34 2483.66,-50.04"/>
</g>
<!-- 528 -->
<g id="node58" class="node">
<title>528</title>
<ellipse fill="#b9d3ee" stroke="black" cx="2512.9" cy="-34" rx="16.8" ry="18"/>
<text text-anchor="middle" x="2512.9" y="-30.3" font-family="Times,serif" font-size="14.00">6</text>
</g>
<!-- 49&#45;&gt;528 -->
<g id="edge67" class="edge">
<title>49&#45;&gt;528</title>
<path fill="none" stroke="black" d="M2534.88,-88.05C2531.43,-79.73 2527.21,-69.54 2523.39,-60.32"/>
<polygon fill="black" stroke="black" points="2526.52,-58.73 2519.46,-50.83 2520.05,-61.41 2526.52,-58.73"/>
</g>
<!-- 541 -->
<g id="node71" class="node">
<title>541</title>
<ellipse fill="#b9d3ee" stroke="black" cx="2570.9" cy="-34" rx="23" ry="18"/>
<text text-anchor="middle" x="2570.9" y="-30.3" font-family="Times,serif" font-size="14.00">94</text>
</g>
<!-- 49&#45;&gt;541 -->
<g id="edge80" class="edge">
<title>49&#45;&gt;541</title>
<path fill="none" stroke="black" d="M2548.92,-88.05C2552.32,-79.85 2556.47,-69.83 2560.25,-60.71"/>
<polygon fill="black" stroke="black" points="2563.55,-61.89 2564.14,-51.31 2557.08,-59.21 2563.55,-61.89"/>
</g>
<!-- 544 -->
<g id="node74" class="node">
<title>544</title>
<ellipse fill="#b9d3ee" stroke="black" cx="2647.9" cy="-34" rx="36" ry="18"/>
<text text-anchor="middle" x="2647.9" y="-30.3" font-family="Times,serif" font-size="14.00">290</text>
</g>
<!-- 49&#45;&gt;544 -->
<g id="edge83" class="edge">
<title>49&#45;&gt;544</title>
<path fill="none" stroke="black" d="M2562.84,-91.17C2578.67,-80.72 2600.6,-66.24 2618.23,-54.59"/>
<polygon fill="black" stroke="black" points="2620.58,-57.23 2627,-48.8 2616.73,-51.39 2620.58,-57.23"/>
</g>
<!-- legend_5 -->
<g id="node78" class="node">
<title>legend_5</title>
<polygon fill="#b9d3ee" stroke="black" points="3026.4,-52 2805.4,-52 2805.4,-16 3026.4,-16 3026.4,-52"/>
<text text-anchor="middle" x="2915.9" y="-30.3" font-family="Times,serif" font-size="14.00">DT=6 ST=1 Similarity=0.51</text>
</g>
<!-- legend_4&#45;&gt;legend_5 -->
<g id="edge87" class="edge">
<title>legend_4&#45;&gt;legend_5</title>
<path fill="none" stroke="black" d="M2915.9,-87.7C2915.9,-79.98 2915.9,-70.71 2915.9,-62.11"/>
<polygon fill="black" stroke="black" points="2919.4,-62.1 2915.9,-52.1 2912.4,-62.1 2919.4,-62.1"/>
</g>
</g>
</svg>
