<?xml version="1.0" encoding="UTF-8" standalone="no"?>
<!DOCTYPE svg PUBLIC "-//W3C//DTD SVG 1.1//EN"
 "http://www.w3.org/Graphics/SVG/1.1/DTD/svg11.dtd">
<!-- Generated by graphviz version 2.43.0 (0)
 -->
<!-- Title: %3 Pages: 1 -->
<svg width="2315pt" height="281pt"
 viewBox="0.00 0.00 2315.00 281.00" xmlns="http://www.w3.org/2000/svg" xmlns:xlink="http://www.w3.org/1999/xlink">
<g id="graph0" class="graph" transform="scale(1 1) rotate(0) translate(4 277)">
<title>%3</title>
<polygon fill="white" stroke="transparent" points="-4,4 -4,-277 2311,-277 2311,4 -4,4"/>
<text text-anchor="middle" x="1153.5" y="-257.8" font-family="Times,serif" font-size="14.00">ConsTree</text>
<text text-anchor="middle" x="1153.5" y="-242.8" font-family="Times,serif" font-size="14.00">Tree Quality = 0.5</text>
<g id="clust1" class="cluster">
<title>cluster</title>
<polygon fill="none" stroke="black" points="2063,-8 2063,-227 2299,-227 2299,-8 2063,-8"/>
<text text-anchor="middle" x="2181" y="-211.8" font-family="Times,serif" font-size="14.00">Legend</text>
</g>
<!-- 00 -->
<g id="node1" class="node">
<title>00</title>
<ellipse fill="#b9d3ee" stroke="black" cx="646" cy="-178" rx="324" ry="18"/>
<text text-anchor="middle" x="646" y="-174.3" font-family="Times,serif" font-size="14.00">2000</text>
</g>
<!-- 10 -->
<g id="node3" class="node">
<title>10</title>
<ellipse fill="#b9d3ee" stroke="black" cx="194" cy="-106" rx="36" ry="18"/>
<text text-anchor="middle" x="194" y="-102.3" font-family="Times,serif" font-size="14.00">399</text>
</g>
<!-- 00&#45;&gt;10 -->
<g id="edge1" class="edge">
<title>00&#45;&gt;10</title>
<path fill="none" stroke="black" d="M542.3,-160.94C446.24,-146.06 307.98,-124.65 238.07,-113.82"/>
<polygon fill="black" stroke="black" points="238.27,-110.31 227.85,-112.24 237.2,-117.23 238.27,-110.31"/>
</g>
<!-- 11 -->
<g id="node4" class="node">
<title>11</title>
<ellipse fill="#b9d3ee" stroke="black" cx="1099" cy="-106" rx="252" ry="18"/>
<text text-anchor="middle" x="1099" y="-102.3" font-family="Times,serif" font-size="14.00">1601</text>
</g>
<!-- 00&#45;&gt;11 -->
<g id="edge2" class="edge">
<title>00&#45;&gt;11</title>
<path fill="none" stroke="black" d="M749.93,-160.94C821.15,-149.93 915.52,-135.35 988.18,-124.12"/>
<polygon fill="black" stroke="black" points="988.94,-127.55 998.28,-122.56 987.87,-120.63 988.94,-127.55"/>
</g>
<!-- legend_0 -->
<g id="node2" class="node">
<title>legend_0</title>
<polygon fill="#b9d3ee" stroke="black" points="2291.5,-196 2070.5,-196 2070.5,-160 2291.5,-160 2291.5,-196"/>
<text text-anchor="middle" x="2181" y="-174.3" font-family="Times,serif" font-size="14.00">DT=4 ST=4 Similarity=0.28</text>
</g>
<!-- legend_1 -->
<g id="node5" class="node">
<title>legend_1</title>
<polygon fill="#b9d3ee" stroke="black" points="2291.5,-124 2070.5,-124 2070.5,-88 2291.5,-88 2291.5,-124"/>
<text text-anchor="middle" x="2181" y="-102.3" font-family="Times,serif" font-size="14.00">DT=5 ST=1 Similarity=0.36</text>
</g>
<!-- legend_0&#45;&gt;legend_1 -->
<g id="edge3" class="edge">
<title>legend_0&#45;&gt;legend_1</title>
<path fill="none" stroke="black" d="M2181,-159.7C2181,-151.98 2181,-142.71 2181,-134.11"/>
<polygon fill="black" stroke="black" points="2184.5,-134.1 2181,-124.1 2177.5,-134.1 2184.5,-134.1"/>
</g>
<!-- 20 -->
<g id="node6" class="node">
<title>20</title>
<polygon fill="darkseagreen" stroke="black" points="26,-52 0,-52 0,-16 26,-16 26,-52"/>
<text text-anchor="middle" x="13" y="-30.3" font-family="Times,serif" font-size="14.00">1</text>
</g>
<!-- 10&#45;&gt;20 -->
<g id="edge4" class="edge">
<title>10&#45;&gt;20</title>
<path fill="none" stroke="black" d="M161.95,-97.7C128.89,-89.42 76.47,-74.11 35,-52 34.81,-51.9 34.62,-51.79 34.42,-51.69"/>
<polygon fill="black" stroke="black" points="36.29,-48.73 26.01,-46.19 32.46,-54.59 36.29,-48.73"/>
</g>
<!-- 25 -->
<g id="node11" class="node">
<title>25</title>
<polygon fill="darkseagreen" stroke="black" points="70,-52 44,-52 44,-16 70,-16 70,-52"/>
<text text-anchor="middle" x="57" y="-30.3" font-family="Times,serif" font-size="14.00">1</text>
</g>
<!-- 10&#45;&gt;25 -->
<g id="edge9" class="edge">
<title>10&#45;&gt;25</title>
<path fill="none" stroke="black" d="M166.16,-94.25C142.3,-84.55 107.39,-69.21 79,-52 78.81,-51.89 78.63,-51.77 78.44,-51.66"/>
<polygon fill="black" stroke="black" points="80.37,-48.74 70.15,-45.93 76.39,-54.49 80.37,-48.74"/>
</g>
<!-- 212 -->
<g id="node18" class="node">
<title>212</title>
<polygon fill="darkseagreen" stroke="black" points="114,-52 88,-52 88,-16 114,-16 114,-52"/>
<text text-anchor="middle" x="101" y="-30.3" font-family="Times,serif" font-size="14.00">2</text>
</g>
<!-- 10&#45;&gt;212 -->
<g id="edge16" class="edge">
<title>10&#45;&gt;212</title>
<path fill="none" stroke="black" d="M174.65,-90.69C160.34,-80.07 140.39,-65.21 123,-52 122.73,-51.79 122.45,-51.58 122.17,-51.37"/>
<polygon fill="black" stroke="black" points="124.07,-48.41 114,-45.1 119.81,-53.97 124.07,-48.41"/>
</g>
<!-- 216 -->
<g id="node22" class="node">
<title>216</title>
<polygon fill="darkseagreen" stroke="black" points="158,-52 132,-52 132,-16 158,-16 158,-52"/>
<text text-anchor="middle" x="145" y="-30.3" font-family="Times,serif" font-size="14.00">3</text>
</g>
<!-- 10&#45;&gt;216 -->
<g id="edge20" class="edge">
<title>10&#45;&gt;216</title>
<path fill="none" stroke="black" d="M182.64,-88.76C176.75,-80.35 169.42,-69.89 162.8,-60.44"/>
<polygon fill="black" stroke="black" points="165.59,-58.31 156.99,-52.12 159.85,-62.32 165.59,-58.31"/>
</g>
<!-- 228 -->
<g id="node34" class="node">
<title>228</title>
<polygon fill="darkseagreen" stroke="black" points="211.5,-52 176.5,-52 176.5,-16 211.5,-16 211.5,-52"/>
<text text-anchor="middle" x="194" y="-30.3" font-family="Times,serif" font-size="14.00">14</text>
</g>
<!-- 10&#45;&gt;228 -->
<g id="edge32" class="edge">
<title>10&#45;&gt;228</title>
<path fill="none" stroke="black" d="M194,-87.7C194,-79.98 194,-70.71 194,-62.11"/>
<polygon fill="black" stroke="black" points="197.5,-62.1 194,-52.1 190.5,-62.1 197.5,-62.1"/>
</g>
<!-- 231 -->
<g id="node37" class="node">
<title>231</title>
<polygon fill="darkseagreen" stroke="black" points="264.5,-52 229.5,-52 229.5,-16 264.5,-16 264.5,-52"/>
<text text-anchor="middle" x="247" y="-30.3" font-family="Times,serif" font-size="14.00">19</text>
</g>
<!-- 10&#45;&gt;231 -->
<g id="edge35" class="edge">
<title>10&#45;&gt;231</title>
<path fill="none" stroke="black" d="M206.29,-88.76C212.73,-80.27 220.74,-69.68 227.96,-60.15"/>
<polygon fill="black" stroke="black" points="230.79,-62.21 234.03,-52.12 225.21,-57.98 230.79,-62.21"/>
</g>
<!-- 234 -->
<g id="node40" class="node">
<title>234</title>
<polygon fill="darkseagreen" stroke="black" points="317.5,-52 282.5,-52 282.5,-16 317.5,-16 317.5,-52"/>
<text text-anchor="middle" x="300" y="-30.3" font-family="Times,serif" font-size="14.00">62</text>
</g>
<!-- 10&#45;&gt;234 -->
<g id="edge38" class="edge">
<title>10&#45;&gt;234</title>
<path fill="none" stroke="black" d="M214.94,-91.17C231.85,-80.01 255.72,-64.24 273.87,-52.26"/>
<polygon fill="black" stroke="black" points="275.85,-55.14 282.27,-46.71 271.99,-49.3 275.85,-55.14"/>
</g>
<!-- 235 -->
<g id="node41" class="node">
<title>235</title>
<polygon fill="darkseagreen" stroke="black" points="408,-52 336,-52 336,-16 408,-16 408,-52"/>
<text text-anchor="middle" x="372" y="-30.3" font-family="Times,serif" font-size="14.00">297</text>
</g>
<!-- 10&#45;&gt;235 -->
<g id="edge39" class="edge">
<title>10&#45;&gt;235</title>
<path fill="none" stroke="black" d="M221.42,-94.22C249.38,-83.22 293.24,-65.97 326.43,-52.92"/>
<polygon fill="black" stroke="black" points="327.9,-56.11 335.92,-49.19 325.33,-49.59 327.9,-56.11"/>
</g>
<!-- 21 -->
<g id="node7" class="node">
<title>21</title>
<polygon fill="darkseagreen" stroke="black" points="452,-52 426,-52 426,-16 452,-16 452,-52"/>
<text text-anchor="middle" x="439" y="-30.3" font-family="Times,serif" font-size="14.00">1</text>
</g>
<!-- 11&#45;&gt;21 -->
<g id="edge5" class="edge">
<title>11&#45;&gt;21</title>
<path fill="none" stroke="black" d="M864.51,-99.36C713.6,-93.09 532.75,-79.86 461,-52 460.9,-51.96 460.81,-51.93 460.71,-51.89"/>
<polygon fill="black" stroke="black" points="462.65,-48.96 452.22,-47.12 459.22,-55.06 462.65,-48.96"/>
</g>
<!-- 22 -->
<g id="node8" class="node">
<title>22</title>
<polygon fill="darkseagreen" stroke="black" points="496,-52 470,-52 470,-16 496,-16 496,-52"/>
<text text-anchor="middle" x="483" y="-30.3" font-family="Times,serif" font-size="14.00">1</text>
</g>
<!-- 11&#45;&gt;22 -->
<g id="edge6" class="edge">
<title>11&#45;&gt;22</title>
<path fill="none" stroke="black" d="M873.4,-97.93C734.4,-91.06 570.61,-77.71 505,-52 504.9,-51.96 504.81,-51.92 504.71,-51.89"/>
<polygon fill="black" stroke="black" points="506.65,-48.96 496.22,-47.1 503.22,-55.06 506.65,-48.96"/>
</g>
<!-- 23 -->
<g id="node9" class="node">
<title>23</title>
<polygon fill="darkseagreen" stroke="black" points="540,-52 514,-52 514,-16 540,-16 540,-52"/>
<text text-anchor="middle" x="527" y="-30.3" font-family="Times,serif" font-size="14.00">1</text>
</g>
<!-- 11&#45;&gt;23 -->
<g id="edge7" class="edge">
<title>11&#45;&gt;23</title>
<path fill="none" stroke="black" d="M884.75,-96.52C757.2,-89.12 608.87,-75.7 549,-52 548.9,-51.96 548.81,-51.92 548.71,-51.89"/>
<polygon fill="black" stroke="black" points="550.66,-48.96 540.23,-47.08 547.21,-55.06 550.66,-48.96"/>
</g>
<!-- 24 -->
<g id="node10" class="node">
<title>24</title>
<polygon fill="darkseagreen" stroke="black" points="584,-52 558,-52 558,-16 584,-16 584,-52"/>
<text text-anchor="middle" x="571" y="-30.3" font-family="Times,serif" font-size="14.00">1</text>
</g>
<!-- 11&#45;&gt;24 -->
<g id="edge8" class="edge">
<title>11&#45;&gt;24</title>
<path fill="none" stroke="black" d="M897.92,-95.14C781.46,-87.25 647.42,-73.81 593,-52 592.9,-51.96 592.81,-51.92 592.71,-51.88"/>
<polygon fill="black" stroke="black" points="594.66,-48.96 584.24,-47.06 591.2,-55.05 594.66,-48.96"/>
</g>
<!-- 26 -->
<g id="node12" class="node">
<title>26</title>
<polygon fill="darkseagreen" stroke="black" points="628,-52 602,-52 602,-16 628,-16 628,-52"/>
<text text-anchor="middle" x="615" y="-30.3" font-family="Times,serif" font-size="14.00">1</text>
</g>
<!-- 11&#45;&gt;26 -->
<g id="edge10" class="edge">
<title>11&#45;&gt;26</title>
<path fill="none" stroke="black" d="M912.97,-93.82C807.19,-85.48 686.27,-72.03 637,-52 636.9,-51.96 636.81,-51.92 636.72,-51.88"/>
<polygon fill="black" stroke="black" points="638.67,-48.97 628.25,-47.04 635.19,-55.04 638.67,-48.97"/>
</g>
<!-- 27 -->
<g id="node13" class="node">
<title>27</title>
<polygon fill="darkseagreen" stroke="black" points="672,-52 646,-52 646,-16 672,-16 672,-52"/>
<text text-anchor="middle" x="659" y="-30.3" font-family="Times,serif" font-size="14.00">1</text>
</g>
<!-- 11&#45;&gt;27 -->
<g id="edge11" class="edge">
<title>11&#45;&gt;27</title>
<path fill="none" stroke="black" d="M930.11,-92.62C834.53,-83.86 725.45,-70.37 681,-52 680.91,-51.96 680.81,-51.92 680.72,-51.88"/>
<polygon fill="black" stroke="black" points="682.67,-48.97 672.26,-47.01 679.18,-55.03 682.67,-48.97"/>
</g>
<!-- 28 -->
<g id="node14" class="node">
<title>28</title>
<polygon fill="darkseagreen" stroke="black" points="716,-52 690,-52 690,-16 716,-16 716,-52"/>
<text text-anchor="middle" x="703" y="-30.3" font-family="Times,serif" font-size="14.00">2</text>
</g>
<!-- 11&#45;&gt;28 -->
<g id="edge12" class="edge">
<title>11&#45;&gt;28</title>
<path fill="none" stroke="black" d="M894.92,-95.34C838.29,-87.56 777.87,-74.31 725,-52 724.91,-51.96 724.81,-51.92 724.72,-51.88"/>
<polygon fill="black" stroke="black" points="726.68,-48.97 716.28,-46.97 723.16,-55.02 726.68,-48.97"/>
</g>
<!-- 29 -->
<g id="node15" class="node">
<title>29</title>
<polygon fill="darkseagreen" stroke="black" points="760,-52 734,-52 734,-16 760,-16 760,-52"/>
<text text-anchor="middle" x="747" y="-30.3" font-family="Times,serif" font-size="14.00">2</text>
</g>
<!-- 11&#45;&gt;29 -->
<g id="edge13" class="edge">
<title>11&#45;&gt;29</title>
<path fill="none" stroke="black" d="M922.28,-93.09C871.33,-85.32 816.66,-72.63 769,-52 768.91,-51.96 768.81,-51.92 768.72,-51.88"/>
<polygon fill="black" stroke="black" points="770.69,-48.98 760.29,-46.93 767.14,-55.01 770.69,-48.98"/>
</g>
<!-- 210 -->
<g id="node16" class="node">
<title>210</title>
<polygon fill="darkseagreen" stroke="black" points="804,-52 778,-52 778,-16 804,-16 804,-52"/>
<text text-anchor="middle" x="791" y="-30.3" font-family="Times,serif" font-size="14.00">2</text>
</g>
<!-- 11&#45;&gt;210 -->
<g id="edge14" class="edge">
<title>11&#45;&gt;210</title>
<path fill="none" stroke="black" d="M951.69,-91.35C905.87,-83.54 856.1,-71.28 813,-52 812.91,-51.96 812.81,-51.92 812.72,-51.87"/>
<polygon fill="black" stroke="black" points="814.7,-48.98 804.32,-46.87 811.12,-54.99 814.7,-48.98"/>
</g>
<!-- 211 -->
<g id="node17" class="node">
<title>211</title>
<polygon fill="darkseagreen" stroke="black" points="848,-52 822,-52 822,-16 848,-16 848,-52"/>
<text text-anchor="middle" x="835" y="-30.3" font-family="Times,serif" font-size="14.00">2</text>
</g>
<!-- 11&#45;&gt;211 -->
<g id="edge15" class="edge">
<title>11&#45;&gt;211</title>
<path fill="none" stroke="black" d="M981.42,-90.03C940.74,-82.08 895.68,-70.06 857,-52 856.91,-51.96 856.81,-51.91 856.72,-51.87"/>
<polygon fill="black" stroke="black" points="858.72,-48.99 848.36,-46.79 855.09,-54.97 858.72,-48.99"/>
</g>
<!-- 213 -->
<g id="node19" class="node">
<title>213</title>
<polygon fill="darkseagreen" stroke="black" points="892,-52 866,-52 866,-16 892,-16 892,-52"/>
<text text-anchor="middle" x="879" y="-30.3" font-family="Times,serif" font-size="14.00">2</text>
</g>
<!-- 11&#45;&gt;213 -->
<g id="edge17" class="edge">
<title>11&#45;&gt;213</title>
<path fill="none" stroke="black" d="M1010.04,-89.09C974.94,-80.81 934.96,-68.82 901,-52 900.91,-51.95 900.82,-51.91 900.72,-51.86"/>
<polygon fill="black" stroke="black" points="902.75,-49 892.41,-46.68 899.05,-54.94 902.75,-49"/>
</g>
<!-- 214 -->
<g id="node20" class="node">
<title>214</title>
<polygon fill="darkseagreen" stroke="black" points="936,-52 910,-52 910,-16 936,-16 936,-52"/>
<text text-anchor="middle" x="923" y="-30.3" font-family="Times,serif" font-size="14.00">2</text>
</g>
<!-- 11&#45;&gt;214 -->
<g id="edge18" class="edge">
<title>11&#45;&gt;214</title>
<path fill="none" stroke="black" d="M1036.35,-88.53C1007.6,-79.7 973.62,-67.44 945,-52 944.81,-51.9 944.62,-51.79 944.43,-51.69"/>
<polygon fill="black" stroke="black" points="946.3,-48.73 936.02,-46.17 942.46,-54.58 946.3,-48.73"/>
</g>
<!-- 215 -->
<g id="node21" class="node">
<title>215</title>
<polygon fill="darkseagreen" stroke="black" points="980,-52 954,-52 954,-16 980,-16 980,-52"/>
<text text-anchor="middle" x="967" y="-30.3" font-family="Times,serif" font-size="14.00">3</text>
</g>
<!-- 11&#45;&gt;215 -->
<g id="edge19" class="edge">
<title>11&#45;&gt;215</title>
<path fill="none" stroke="black" d="M1059,-88.16C1037.66,-78.58 1011.27,-65.76 989,-52 988.82,-51.89 988.63,-51.77 988.44,-51.65"/>
<polygon fill="black" stroke="black" points="990.38,-48.74 980.18,-45.89 986.38,-54.48 990.38,-48.74"/>
</g>
<!-- 217 -->
<g id="node23" class="node">
<title>217</title>
<polygon fill="darkseagreen" stroke="black" points="1024,-52 998,-52 998,-16 1024,-16 1024,-52"/>
<text text-anchor="middle" x="1011" y="-30.3" font-family="Times,serif" font-size="14.00">3</text>
</g>
<!-- 11&#45;&gt;217 -->
<g id="edge21" class="edge">
<title>11&#45;&gt;217</title>
<path fill="none" stroke="black" d="M1077.7,-88.05C1063.88,-77.06 1045.95,-62.8 1032.16,-51.83"/>
<polygon fill="black" stroke="black" points="1034.19,-48.98 1024.19,-45.49 1029.83,-54.45 1034.19,-48.98"/>
</g>
<!-- 218 -->
<g id="node24" class="node">
<title>218</title>
<polygon fill="darkseagreen" stroke="black" points="1068,-52 1042,-52 1042,-16 1068,-16 1068,-52"/>
<text text-anchor="middle" x="1055" y="-30.3" font-family="Times,serif" font-size="14.00">3</text>
</g>
<!-- 11&#45;&gt;218 -->
<g id="edge22" class="edge">
<title>11&#45;&gt;218</title>
<path fill="none" stroke="black" d="M1088.12,-87.7C1083.01,-79.56 1076.8,-69.69 1071.16,-60.7"/>
<polygon fill="black" stroke="black" points="1074.04,-58.71 1065.75,-52.1 1068.11,-62.43 1074.04,-58.71"/>
</g>
<!-- 219 -->
<g id="node25" class="node">
<title>219</title>
<polygon fill="darkseagreen" stroke="black" points="1112,-52 1086,-52 1086,-16 1112,-16 1112,-52"/>
<text text-anchor="middle" x="1099" y="-30.3" font-family="Times,serif" font-size="14.00">4</text>
</g>
<!-- 11&#45;&gt;219 -->
<g id="edge23" class="edge">
<title>11&#45;&gt;219</title>
<path fill="none" stroke="black" d="M1099,-87.7C1099,-79.98 1099,-70.71 1099,-62.11"/>
<polygon fill="black" stroke="black" points="1102.5,-62.1 1099,-52.1 1095.5,-62.1 1102.5,-62.1"/>
</g>
<!-- 220 -->
<g id="node26" class="node">
<title>220</title>
<polygon fill="darkseagreen" stroke="black" points="1156,-52 1130,-52 1130,-16 1156,-16 1156,-52"/>
<text text-anchor="middle" x="1143" y="-30.3" font-family="Times,serif" font-size="14.00">5</text>
</g>
<!-- 11&#45;&gt;220 -->
<g id="edge24" class="edge">
<title>11&#45;&gt;220</title>
<path fill="none" stroke="black" d="M1109.88,-87.7C1114.99,-79.56 1121.2,-69.69 1126.84,-60.7"/>
<polygon fill="black" stroke="black" points="1129.89,-62.43 1132.25,-52.1 1123.96,-58.71 1129.89,-62.43"/>
</g>
<!-- 221 -->
<g id="node27" class="node">
<title>221</title>
<polygon fill="darkseagreen" stroke="black" points="1200,-52 1174,-52 1174,-16 1200,-16 1200,-52"/>
<text text-anchor="middle" x="1187" y="-30.3" font-family="Times,serif" font-size="14.00">5</text>
</g>
<!-- 11&#45;&gt;221 -->
<g id="edge25" class="edge">
<title>11&#45;&gt;221</title>
<path fill="none" stroke="black" d="M1120.3,-88.05C1134.12,-77.06 1152.05,-62.8 1165.84,-51.83"/>
<polygon fill="black" stroke="black" points="1168.17,-54.45 1173.81,-45.49 1163.81,-48.98 1168.17,-54.45"/>
</g>
<!-- 222 -->
<g id="node28" class="node">
<title>222</title>
<polygon fill="darkseagreen" stroke="black" points="1244,-52 1218,-52 1218,-16 1244,-16 1244,-52"/>
<text text-anchor="middle" x="1231" y="-30.3" font-family="Times,serif" font-size="14.00">7</text>
</g>
<!-- 11&#45;&gt;222 -->
<g id="edge26" class="edge">
<title>11&#45;&gt;222</title>
<path fill="none" stroke="black" d="M1139,-88.16C1160.34,-78.58 1186.73,-65.76 1209,-52 1209.18,-51.89 1209.37,-51.77 1209.56,-51.65"/>
<polygon fill="black" stroke="black" points="1211.62,-54.48 1217.82,-45.89 1207.62,-48.74 1211.62,-54.48"/>
</g>
<!-- 223 -->
<g id="node29" class="node">
<title>223</title>
<polygon fill="darkseagreen" stroke="black" points="1288,-52 1262,-52 1262,-16 1288,-16 1288,-52"/>
<text text-anchor="middle" x="1275" y="-30.3" font-family="Times,serif" font-size="14.00">7</text>
</g>
<!-- 11&#45;&gt;223 -->
<g id="edge27" class="edge">
<title>11&#45;&gt;223</title>
<path fill="none" stroke="black" d="M1161.65,-88.53C1190.4,-79.7 1224.38,-67.44 1253,-52 1253.19,-51.9 1253.38,-51.79 1253.57,-51.69"/>
<polygon fill="black" stroke="black" points="1255.54,-54.58 1261.98,-46.17 1251.7,-48.73 1255.54,-54.58"/>
</g>
<!-- 224 -->
<g id="node30" class="node">
<title>224</title>
<polygon fill="darkseagreen" stroke="black" points="1332,-52 1306,-52 1306,-16 1332,-16 1332,-52"/>
<text text-anchor="middle" x="1319" y="-30.3" font-family="Times,serif" font-size="14.00">7</text>
</g>
<!-- 11&#45;&gt;224 -->
<g id="edge28" class="edge">
<title>11&#45;&gt;224</title>
<path fill="none" stroke="black" d="M1187.96,-89.09C1223.06,-80.81 1263.04,-68.82 1297,-52 1297.09,-51.95 1297.18,-51.91 1297.28,-51.86"/>
<polygon fill="black" stroke="black" points="1298.95,-54.94 1305.59,-46.68 1295.25,-49 1298.95,-54.94"/>
</g>
<!-- 225 -->
<g id="node31" class="node">
<title>225</title>
<polygon fill="darkseagreen" stroke="black" points="1376,-52 1350,-52 1350,-16 1376,-16 1376,-52"/>
<text text-anchor="middle" x="1363" y="-30.3" font-family="Times,serif" font-size="14.00">7</text>
</g>
<!-- 11&#45;&gt;225 -->
<g id="edge29" class="edge">
<title>11&#45;&gt;225</title>
<path fill="none" stroke="black" d="M1216.58,-90.03C1257.26,-82.08 1302.32,-70.06 1341,-52 1341.09,-51.96 1341.19,-51.91 1341.28,-51.87"/>
<polygon fill="black" stroke="black" points="1342.91,-54.97 1349.64,-46.79 1339.28,-48.99 1342.91,-54.97"/>
</g>
<!-- 226 -->
<g id="node32" class="node">
<title>226</title>
<polygon fill="darkseagreen" stroke="black" points="1429.5,-52 1394.5,-52 1394.5,-16 1429.5,-16 1429.5,-52"/>
<text text-anchor="middle" x="1412" y="-30.3" font-family="Times,serif" font-size="14.00">11</text>
</g>
<!-- 11&#45;&gt;226 -->
<g id="edge30" class="edge">
<title>11&#45;&gt;226</title>
<path fill="none" stroke="black" d="M1233.61,-90.78C1282.42,-82.85 1337.26,-70.66 1385,-52 1385.1,-51.96 1385.2,-51.92 1385.3,-51.88"/>
<polygon fill="black" stroke="black" points="1387.08,-54.91 1394.49,-47.34 1383.98,-48.63 1387.08,-54.91"/>
</g>
<!-- 227 -->
<g id="node33" class="node">
<title>227</title>
<polygon fill="darkseagreen" stroke="black" points="1482.5,-52 1447.5,-52 1447.5,-16 1482.5,-16 1482.5,-52"/>
<text text-anchor="middle" x="1465" y="-30.3" font-family="Times,serif" font-size="14.00">13</text>
</g>
<!-- 11&#45;&gt;227 -->
<g id="edge31" class="edge">
<title>11&#45;&gt;227</title>
<path fill="none" stroke="black" d="M1266.25,-92.52C1322.12,-84.79 1383.89,-72.27 1438,-52 1438.1,-51.96 1438.19,-51.93 1438.29,-51.89"/>
<polygon fill="black" stroke="black" points="1439.74,-55.08 1447.23,-47.59 1436.7,-48.77 1439.74,-55.08"/>
</g>
<!-- 229 -->
<g id="node35" class="node">
<title>229</title>
<polygon fill="darkseagreen" stroke="black" points="1535.5,-52 1500.5,-52 1500.5,-16 1535.5,-16 1535.5,-52"/>
<text text-anchor="middle" x="1518" y="-30.3" font-family="Times,serif" font-size="14.00">15</text>
</g>
<!-- 11&#45;&gt;229 -->
<g id="edge33" class="edge">
<title>11&#45;&gt;229</title>
<path fill="none" stroke="black" d="M1296.85,-94.83C1360.25,-87.23 1429.83,-74.2 1491,-52 1491.1,-51.96 1491.2,-51.93 1491.29,-51.89"/>
<polygon fill="black" stroke="black" points="1492.71,-55.09 1500.25,-47.64 1489.71,-48.77 1492.71,-55.09"/>
</g>
<!-- 230 -->
<g id="node36" class="node">
<title>230</title>
<polygon fill="darkseagreen" stroke="black" points="1588.5,-52 1553.5,-52 1553.5,-16 1588.5,-16 1588.5,-52"/>
<text text-anchor="middle" x="1571" y="-30.3" font-family="Times,serif" font-size="14.00">18</text>
</g>
<!-- 11&#45;&gt;230 -->
<g id="edge34" class="edge">
<title>11&#45;&gt;230</title>
<path fill="none" stroke="black" d="M1267.79,-92.62C1371.65,-83.51 1494.13,-69.66 1544,-52 1544.1,-51.97 1544.2,-51.93 1544.29,-51.89"/>
<polygon fill="black" stroke="black" points="1545.7,-55.1 1553.26,-47.69 1542.72,-48.77 1545.7,-55.1"/>
</g>
<!-- 232 -->
<g id="node38" class="node">
<title>232</title>
<polygon fill="darkseagreen" stroke="black" points="1641.5,-52 1606.5,-52 1606.5,-16 1641.5,-16 1641.5,-52"/>
<text text-anchor="middle" x="1624" y="-30.3" font-family="Times,serif" font-size="14.00">27</text>
</g>
<!-- 11&#45;&gt;232 -->
<g id="edge36" class="edge">
<title>11&#45;&gt;232</title>
<path fill="none" stroke="black" d="M1285.95,-93.9C1402.57,-85.28 1540.84,-71.49 1597,-52 1597.1,-51.97 1597.2,-51.93 1597.29,-51.9"/>
<polygon fill="black" stroke="black" points="1598.68,-55.11 1606.28,-47.72 1595.73,-48.76 1598.68,-55.11"/>
</g>
<!-- 233 -->
<g id="node39" class="node">
<title>233</title>
<polygon fill="darkseagreen" stroke="black" points="1694.5,-52 1659.5,-52 1659.5,-16 1694.5,-16 1694.5,-52"/>
<text text-anchor="middle" x="1677" y="-30.3" font-family="Times,serif" font-size="14.00">33</text>
</g>
<!-- 11&#45;&gt;233 -->
<g id="edge37" class="edge">
<title>11&#45;&gt;233</title>
<path fill="none" stroke="black" d="M1301.93,-95.27C1431.75,-87.17 1587.19,-73.44 1650,-52 1650.1,-51.97 1650.2,-51.93 1650.29,-51.9"/>
<polygon fill="black" stroke="black" points="1651.67,-55.12 1659.29,-47.75 1648.74,-48.76 1651.67,-55.12"/>
</g>
<!-- 236 -->
<g id="node42" class="node">
<title>236</title>
<polygon fill="darkseagreen" stroke="black" points="1785,-52 1713,-52 1713,-16 1785,-16 1785,-52"/>
<text text-anchor="middle" x="1749" y="-30.3" font-family="Times,serif" font-size="14.00">340</text>
</g>
<!-- 11&#45;&gt;236 -->
<g id="edge40" class="edge">
<title>11&#45;&gt;236</title>
<path fill="none" stroke="black" d="M1331.74,-99.05C1444.88,-92.5 1582.19,-79.11 1703,-52 1703.1,-51.98 1703.2,-51.95 1703.3,-51.93"/>
<polygon fill="black" stroke="black" points="1704.11,-55.34 1712.86,-49.37 1702.3,-48.58 1704.11,-55.34"/>
</g>
<!-- 237 -->
<g id="node43" class="node">
<title>237</title>
<polygon fill="darkseagreen" stroke="black" points="1875,-52 1803,-52 1803,-16 1875,-16 1875,-52"/>
<text text-anchor="middle" x="1839" y="-30.3" font-family="Times,serif" font-size="14.00">355</text>
</g>
<!-- 11&#45;&gt;237 -->
<g id="edge41" class="edge">
<title>11&#45;&gt;237</title>
<path fill="none" stroke="black" d="M1305.88,-95.72C1470.92,-87.15 1689.67,-72.89 1792.99,-51.77"/>
<polygon fill="black" stroke="black" points="1793.88,-55.16 1802.92,-49.64 1792.41,-48.32 1793.88,-55.16"/>
</g>
<!-- 238 -->
<g id="node44" class="node">
<title>238</title>
<polygon fill="darkseagreen" stroke="black" points="1965,-52 1893,-52 1893,-16 1965,-16 1965,-52"/>
<text text-anchor="middle" x="1929" y="-30.3" font-family="Times,serif" font-size="14.00">359</text>
</g>
<!-- 11&#45;&gt;238 -->
<g id="edge42" class="edge">
<title>11&#45;&gt;238</title>
<path fill="none" stroke="black" d="M1319.91,-97.31C1508.26,-89.47 1765.35,-75.38 1883,-51.76"/>
<polygon fill="black" stroke="black" points="1883.86,-55.15 1892.93,-49.67 1882.42,-48.3 1883.86,-55.15"/>
</g>
<!-- 239 -->
<g id="node45" class="node">
<title>239</title>
<polygon fill="darkseagreen" stroke="black" points="2055,-52 1983,-52 1983,-16 2055,-16 2055,-52"/>
<text text-anchor="middle" x="2019" y="-30.3" font-family="Times,serif" font-size="14.00">361</text>
</g>
<!-- 11&#45;&gt;239 -->
<g id="edge43" class="edge">
<title>11&#45;&gt;239</title>
<path fill="none" stroke="black" d="M1330.23,-98.83C1541.78,-91.8 1840.18,-78.02 1972.9,-51.77"/>
<polygon fill="black" stroke="black" points="1973.85,-55.15 1982.93,-49.69 1972.43,-48.29 1973.85,-55.15"/>
</g>
<!-- legend_2 -->
<g id="node46" class="node">
<title>legend_2</title>
<polygon fill="darkseagreen" stroke="black" points="2287,-52 2075,-52 2075,-16 2287,-16 2287,-52"/>
<text text-anchor="middle" x="2181" y="-30.3" font-family="Times,serif" font-size="14.00">DT=6 ST=1 Similarity=0.6</text>
</g>
<!-- legend_1&#45;&gt;legend_2 -->
<g id="edge44" class="edge">
<title>legend_1&#45;&gt;legend_2</title>
<path fill="none" stroke="black" d="M2181,-87.7C2181,-79.98 2181,-70.71 2181,-62.11"/>
<polygon fill="black" stroke="black" points="2184.5,-62.1 2181,-52.1 2177.5,-62.1 2184.5,-62.1"/>
</g>
</g>
</svg>
