<?xml version="1.0" encoding="UTF-8" standalone="no"?>
<!DOCTYPE svg PUBLIC "-//W3C//DTD SVG 1.1//EN"
 "http://www.w3.org/Graphics/SVG/1.1/DTD/svg11.dtd">
<!-- Generated by graphviz version 2.43.0 (0)
 -->
<!-- Title: %3 Pages: 1 -->
<svg width="2544pt" height="425pt"
 viewBox="0.00 0.00 2543.75 425.00" xmlns="http://www.w3.org/2000/svg" xmlns:xlink="http://www.w3.org/1999/xlink">
<g id="graph0" class="graph" transform="scale(1 1) rotate(0) translate(4 421)">
<title>%3</title>
<polygon fill="white" stroke="transparent" points="-4,4 -4,-421 2539.75,-421 2539.75,4 -4,4"/>
<text text-anchor="middle" x="1267.87" y="-401.8" font-family="Times,serif" font-size="14.00">ConsTree</text>
<text text-anchor="middle" x="1267.87" y="-386.8" font-family="Times,serif" font-size="14.00">Tree Quality = 0.8333333333333334</text>
<g id="clust1" class="cluster">
<title>cluster</title>
<polygon fill="none" stroke="black" points="2291.75,-8 2291.75,-371 2527.75,-371 2527.75,-8 2291.75,-8"/>
<text text-anchor="middle" x="2409.75" y="-355.8" font-family="Times,serif" font-size="14.00">Legend</text>
</g>
<!-- 00 -->
<g id="node1" class="node">
<title>00</title>
<ellipse fill="#b9d3ee" stroke="black" cx="1087.75" cy="-322" rx="324" ry="18"/>
<text text-anchor="middle" x="1087.75" y="-318.3" font-family="Times,serif" font-size="14.00">2000</text>
</g>
<!-- 10 -->
<g id="node3" class="node">
<title>10</title>
<ellipse fill="#b9d3ee" stroke="black" cx="1341.75" cy="-250" rx="108" ry="18"/>
<text text-anchor="middle" x="1341.75" y="-246.3" font-family="Times,serif" font-size="14.00">770</text>
</g>
<!-- 00&#45;&gt;10 -->
<g id="edge1" class="edge">
<title>00&#45;&gt;10</title>
<path fill="none" stroke="black" d="M1148.59,-304.23C1187.82,-293.42 1238.75,-279.39 1278.46,-268.44"/>
<polygon fill="black" stroke="black" points="1279.59,-271.76 1288.3,-265.73 1277.73,-265.01 1279.59,-271.76"/>
</g>
<!-- 11 -->
<g id="node4" class="node">
<title>11</title>
<ellipse fill="#b9d3ee" stroke="black" cx="1087.75" cy="-250" rx="108" ry="18"/>
<text text-anchor="middle" x="1087.75" y="-246.3" font-family="Times,serif" font-size="14.00">780</text>
</g>
<!-- 00&#45;&gt;11 -->
<g id="edge2" class="edge">
<title>00&#45;&gt;11</title>
<path fill="none" stroke="black" d="M1087.75,-303.7C1087.75,-295.98 1087.75,-286.71 1087.75,-278.11"/>
<polygon fill="black" stroke="black" points="1091.25,-278.1 1087.75,-268.1 1084.25,-278.1 1091.25,-278.1"/>
</g>
<!-- 12 -->
<g id="node5" class="node">
<title>12</title>
<ellipse fill="#b9d3ee" stroke="black" cx="696.75" cy="-250" rx="72" ry="18"/>
<text text-anchor="middle" x="696.75" y="-246.3" font-family="Times,serif" font-size="14.00">450</text>
</g>
<!-- 00&#45;&gt;12 -->
<g id="edge3" class="edge">
<title>00&#45;&gt;12</title>
<path fill="none" stroke="black" d="M996.57,-304.68C925.24,-291.91 827.71,-274.45 763.52,-262.95"/>
<polygon fill="black" stroke="black" points="763.97,-259.48 753.51,-261.16 762.74,-266.37 763.97,-259.48"/>
</g>
<!-- legend_0 -->
<g id="node2" class="node">
<title>legend_0</title>
<polygon fill="#b9d3ee" stroke="black" points="2520.25,-340 2299.25,-340 2299.25,-304 2520.25,-304 2520.25,-340"/>
<text text-anchor="middle" x="2409.75" y="-318.3" font-family="Times,serif" font-size="14.00">DT=2 ST=2 Similarity=0.28</text>
</g>
<!-- legend_1 -->
<g id="node6" class="node">
<title>legend_1</title>
<polygon fill="#b9d3ee" stroke="black" points="2520.25,-268 2299.25,-268 2299.25,-232 2520.25,-232 2520.25,-268"/>
<text text-anchor="middle" x="2409.75" y="-246.3" font-family="Times,serif" font-size="14.00">DT=3 ST=1 Similarity=0.47</text>
</g>
<!-- legend_0&#45;&gt;legend_1 -->
<g id="edge4" class="edge">
<title>legend_0&#45;&gt;legend_1</title>
<path fill="none" stroke="black" d="M2409.75,-303.7C2409.75,-295.98 2409.75,-286.71 2409.75,-278.11"/>
<polygon fill="black" stroke="black" points="2413.25,-278.1 2409.75,-268.1 2406.25,-278.1 2413.25,-278.1"/>
</g>
<!-- 20 -->
<g id="node7" class="node">
<title>20</title>
<ellipse fill="#b9d3ee" stroke="black" cx="1528.75" cy="-178" rx="36" ry="18"/>
<text text-anchor="middle" x="1528.75" y="-174.3" font-family="Times,serif" font-size="14.00">393</text>
</g>
<!-- 10&#45;&gt;20 -->
<g id="edge5" class="edge">
<title>10&#45;&gt;20</title>
<path fill="none" stroke="black" d="M1383.71,-233.29C1415.97,-221.21 1460.14,-204.68 1491.23,-193.05"/>
<polygon fill="black" stroke="black" points="1492.69,-196.23 1500.83,-189.45 1490.24,-189.68 1492.69,-196.23"/>
</g>
<!-- 21 -->
<g id="node8" class="node">
<title>21</title>
<ellipse fill="#b9d3ee" stroke="black" cx="1341.75" cy="-178" rx="36" ry="18"/>
<text text-anchor="middle" x="1341.75" y="-174.3" font-family="Times,serif" font-size="14.00">419</text>
</g>
<!-- 10&#45;&gt;21 -->
<g id="edge6" class="edge">
<title>10&#45;&gt;21</title>
<path fill="none" stroke="black" d="M1341.75,-231.7C1341.75,-223.98 1341.75,-214.71 1341.75,-206.11"/>
<polygon fill="black" stroke="black" points="1345.25,-206.1 1341.75,-196.1 1338.25,-206.1 1345.25,-206.1"/>
</g>
<!-- 11&#45;&gt;21 -->
<g id="edge7" class="edge">
<title>11&#45;&gt;21</title>
<path fill="none" stroke="black" d="M1140.99,-234.33C1188.77,-221.16 1257.85,-202.12 1301.25,-190.16"/>
<polygon fill="black" stroke="black" points="1302.2,-193.53 1310.91,-187.5 1300.34,-186.78 1302.2,-193.53"/>
</g>
<!-- 22 -->
<g id="node9" class="node">
<title>22</title>
<ellipse fill="#b9d3ee" stroke="black" cx="696.75" cy="-178" rx="108" ry="18"/>
<text text-anchor="middle" x="696.75" y="-174.3" font-family="Times,serif" font-size="14.00">774</text>
</g>
<!-- 11&#45;&gt;22 -->
<g id="edge8" class="edge">
<title>11&#45;&gt;22</title>
<path fill="none" stroke="black" d="M1016.94,-236.32C949.51,-224.25 848.1,-206.1 777.54,-193.46"/>
<polygon fill="black" stroke="black" points="777.82,-189.96 767.36,-191.64 776.58,-196.85 777.82,-189.96"/>
</g>
<!-- 12&#45;&gt;22 -->
<g id="edge9" class="edge">
<title>12&#45;&gt;22</title>
<path fill="none" stroke="black" d="M696.75,-231.7C696.75,-223.98 696.75,-214.71 696.75,-206.11"/>
<polygon fill="black" stroke="black" points="700.25,-206.1 696.75,-196.1 693.25,-206.1 700.25,-206.1"/>
</g>
<!-- 23 -->
<g id="node10" class="node">
<title>23</title>
<ellipse fill="#b9d3ee" stroke="black" cx="476.75" cy="-178" rx="36" ry="18"/>
<text text-anchor="middle" x="476.75" y="-174.3" font-family="Times,serif" font-size="14.00">414</text>
</g>
<!-- 12&#45;&gt;23 -->
<g id="edge10" class="edge">
<title>12&#45;&gt;23</title>
<path fill="none" stroke="black" d="M654.07,-235.42C614.15,-222.72 555.02,-203.9 516.18,-191.55"/>
<polygon fill="black" stroke="black" points="516.88,-188.1 506.29,-188.4 514.76,-194.77 516.88,-188.1"/>
</g>
<!-- legend_2 -->
<g id="node11" class="node">
<title>legend_2</title>
<polygon fill="#b9d3ee" stroke="black" points="2520.25,-196 2299.25,-196 2299.25,-160 2520.25,-160 2520.25,-196"/>
<text text-anchor="middle" x="2409.75" y="-174.3" font-family="Times,serif" font-size="14.00">DT=4 ST=1 Similarity=0.54</text>
</g>
<!-- legend_1&#45;&gt;legend_2 -->
<g id="edge11" class="edge">
<title>legend_1&#45;&gt;legend_2</title>
<path fill="none" stroke="black" d="M2409.75,-231.7C2409.75,-223.98 2409.75,-214.71 2409.75,-206.11"/>
<polygon fill="black" stroke="black" points="2413.25,-206.1 2409.75,-196.1 2406.25,-206.1 2413.25,-206.1"/>
</g>
<!-- 31 -->
<g id="node13" class="node">
<title>31</title>
<polygon fill="darkseagreen" stroke="black" points="1612.75,-124 1540.75,-124 1540.75,-88 1612.75,-88 1612.75,-124"/>
<text text-anchor="middle" x="1576.75" y="-102.3" font-family="Times,serif" font-size="14.00">396</text>
</g>
<!-- 20&#45;&gt;31 -->
<g id="edge13" class="edge">
<title>20&#45;&gt;31</title>
<path fill="none" stroke="black" d="M1539.88,-160.76C1545.65,-152.35 1552.82,-141.89 1559.31,-132.44"/>
<polygon fill="black" stroke="black" points="1562.24,-134.35 1565.01,-124.12 1556.46,-130.39 1562.24,-134.35"/>
</g>
<!-- 21&#45;&gt;31 -->
<g id="edge14" class="edge">
<title>21&#45;&gt;31</title>
<path fill="none" stroke="black" d="M1371.99,-167.99C1412.26,-156 1483.87,-134.66 1530.83,-120.68"/>
<polygon fill="black" stroke="black" points="1531.88,-124.02 1540.46,-117.81 1529.88,-117.31 1531.88,-124.02"/>
</g>
<!-- 33 -->
<g id="node15" class="node">
<title>33</title>
<polygon fill="darkseagreen" stroke="black" points="1160.75,-124 1088.75,-124 1088.75,-88 1160.75,-88 1160.75,-124"/>
<text text-anchor="middle" x="1124.75" y="-102.3" font-family="Times,serif" font-size="14.00">391</text>
</g>
<!-- 21&#45;&gt;33 -->
<g id="edge18" class="edge">
<title>21&#45;&gt;33</title>
<path fill="none" stroke="black" d="M1312.03,-167.41C1275.52,-155.64 1213.2,-135.53 1170.55,-121.78"/>
<polygon fill="black" stroke="black" points="1171.56,-118.42 1160.97,-118.68 1169.41,-125.08 1171.56,-118.42"/>
</g>
<!-- 34 -->
<g id="node16" class="node">
<title>34</title>
<polygon fill="darkseagreen" stroke="black" points="2121.75,-124 2049.75,-124 2049.75,-88 2121.75,-88 2121.75,-124"/>
<text text-anchor="middle" x="2085.75" y="-102.3" font-family="Times,serif" font-size="14.00">409</text>
</g>
<!-- 21&#45;&gt;34 -->
<g id="edge20" class="edge">
<title>21&#45;&gt;34</title>
<path fill="none" stroke="black" d="M1376.15,-172.58C1404.88,-168.95 1446.95,-163.82 1483.75,-160 1690.87,-138.49 1938.68,-118.48 2039.59,-110.57"/>
<polygon fill="black" stroke="black" points="2040.05,-114.04 2049.75,-109.77 2039.51,-107.06 2040.05,-114.04"/>
</g>
<!-- 30 -->
<g id="node12" class="node">
<title>30</title>
<polygon fill="darkseagreen" stroke="black" points="674.25,-124 639.25,-124 639.25,-88 674.25,-88 674.25,-124"/>
<text text-anchor="middle" x="656.75" y="-102.3" font-family="Times,serif" font-size="14.00">82</text>
</g>
<!-- 22&#45;&gt;30 -->
<g id="edge12" class="edge">
<title>22&#45;&gt;30</title>
<path fill="none" stroke="black" d="M687.07,-160.05C682.47,-152.01 676.86,-142.2 671.73,-133.23"/>
<polygon fill="black" stroke="black" points="674.62,-131.22 666.62,-124.28 668.54,-134.69 674.62,-131.22"/>
</g>
<!-- 32 -->
<g id="node14" class="node">
<title>32</title>
<polygon fill="darkseagreen" stroke="black" points="393.75,-124 321.75,-124 321.75,-88 393.75,-88 393.75,-124"/>
<text text-anchor="middle" x="357.75" y="-102.3" font-family="Times,serif" font-size="14.00">315</text>
</g>
<!-- 22&#45;&gt;32 -->
<g id="edge16" class="edge">
<title>22&#45;&gt;32</title>
<path fill="none" stroke="black" d="M631.79,-163.59C565.04,-149.8 462.82,-128.7 403.92,-116.53"/>
<polygon fill="black" stroke="black" points="404.3,-113.04 393.8,-114.44 402.88,-119.89 404.3,-113.04"/>
</g>
<!-- 22&#45;&gt;33 -->
<g id="edge19" class="edge">
<title>22&#45;&gt;33</title>
<path fill="none" stroke="black" d="M770.81,-164.89C859.36,-150.4 1004.82,-126.61 1078.66,-114.54"/>
<polygon fill="black" stroke="black" points="1079.28,-117.98 1088.59,-112.91 1078.15,-111.07 1079.28,-117.98"/>
</g>
<!-- 23&#45;&gt;31 -->
<g id="edge15" class="edge">
<title>23&#45;&gt;31</title>
<path fill="none" stroke="black" d="M510.02,-170.55C530.13,-166.89 556.33,-162.55 579.75,-160 767.84,-139.54 1360.14,-115.43 1530.5,-108.78"/>
<polygon fill="black" stroke="black" points="1530.78,-112.27 1540.64,-108.38 1530.51,-105.28 1530.78,-112.27"/>
</g>
<!-- 23&#45;&gt;32 -->
<g id="edge17" class="edge">
<title>23&#45;&gt;32</title>
<path fill="none" stroke="black" d="M454.36,-163.83C437.78,-154.08 414.8,-140.56 395.41,-129.15"/>
<polygon fill="black" stroke="black" points="397.18,-126.14 386.79,-124.08 393.63,-132.17 397.18,-126.14"/>
</g>
<!-- 35 -->
<g id="node17" class="node">
<title>35</title>
<polygon fill="darkseagreen" stroke="black" points="135.75,-124 63.75,-124 63.75,-88 135.75,-88 135.75,-124"/>
<text text-anchor="middle" x="99.75" y="-102.3" font-family="Times,serif" font-size="14.00">407</text>
</g>
<!-- 23&#45;&gt;35 -->
<g id="edge21" class="edge">
<title>23&#45;&gt;35</title>
<path fill="none" stroke="black" d="M443.62,-170.85C376.21,-158.33 222.97,-129.88 145.87,-115.56"/>
<polygon fill="black" stroke="black" points="146.43,-112.11 135.96,-113.72 145.15,-118.99 146.43,-112.11"/>
</g>
<!-- legend_3 -->
<g id="node18" class="node">
<title>legend_3</title>
<polygon fill="darkseagreen" stroke="black" points="2520.25,-124 2299.25,-124 2299.25,-88 2520.25,-88 2520.25,-124"/>
<text text-anchor="middle" x="2409.75" y="-102.3" font-family="Times,serif" font-size="14.00">DT=5 ST=1 Similarity=0.65</text>
</g>
<!-- legend_2&#45;&gt;legend_3 -->
<g id="edge22" class="edge">
<title>legend_2&#45;&gt;legend_3</title>
<path fill="none" stroke="black" d="M2409.75,-159.7C2409.75,-151.98 2409.75,-142.71 2409.75,-134.11"/>
<polygon fill="black" stroke="black" points="2413.25,-134.1 2409.75,-124.1 2406.25,-134.1 2413.25,-134.1"/>
</g>
<!-- 41 -->
<g id="node20" class="node">
<title>41</title>
<ellipse fill="#b9d3ee" stroke="black" cx="480.75" cy="-34" rx="16.8" ry="18"/>
<text text-anchor="middle" x="480.75" y="-30.3" font-family="Times,serif" font-size="14.00">1</text>
</g>
<!-- 30&#45;&gt;41 -->
<g id="edge24" class="edge">
<title>30&#45;&gt;41</title>
<path fill="none" stroke="black" d="M639.1,-100.26C610.49,-92.24 552.55,-74.65 506.75,-52 505.58,-51.42 504.4,-50.8 503.22,-50.15"/>
<polygon fill="black" stroke="black" points="504.78,-47.01 494.42,-44.81 501.15,-52.99 504.78,-47.01"/>
</g>
<!-- 42 -->
<g id="node21" class="node">
<title>42</title>
<ellipse fill="#b9d3ee" stroke="black" cx="532.75" cy="-34" rx="16.8" ry="18"/>
<text text-anchor="middle" x="532.75" y="-30.3" font-family="Times,serif" font-size="14.00">1</text>
</g>
<!-- 30&#45;&gt;42 -->
<g id="edge25" class="edge">
<title>30&#45;&gt;42</title>
<path fill="none" stroke="black" d="M639.15,-96.05C619.35,-85.84 586.33,-68.44 558.75,-52 557.63,-51.33 556.49,-50.64 555.34,-49.93"/>
<polygon fill="black" stroke="black" points="556.96,-46.81 546.65,-44.39 553.2,-52.72 556.96,-46.81"/>
</g>
<!-- 45 -->
<g id="node24" class="node">
<title>45</title>
<ellipse fill="#b9d3ee" stroke="black" cx="584.75" cy="-34" rx="16.8" ry="18"/>
<text text-anchor="middle" x="584.75" y="-30.3" font-family="Times,serif" font-size="14.00">1</text>
</g>
<!-- 30&#45;&gt;45 -->
<g id="edge28" class="edge">
<title>30&#45;&gt;45</title>
<path fill="none" stroke="black" d="M638.95,-87.7C628.5,-77.53 615.26,-64.67 604.49,-54.19"/>
<polygon fill="black" stroke="black" points="606.76,-51.52 597.15,-47.06 601.88,-56.54 606.76,-51.52"/>
</g>
<!-- 413 -->
<g id="node32" class="node">
<title>413</title>
<ellipse fill="#b9d3ee" stroke="black" cx="636.75" cy="-34" rx="16.8" ry="18"/>
<text text-anchor="middle" x="636.75" y="-30.3" font-family="Times,serif" font-size="14.00">2</text>
</g>
<!-- 30&#45;&gt;413 -->
<g id="edge36" class="edge">
<title>30&#45;&gt;413</title>
<path fill="none" stroke="black" d="M651.8,-87.7C649.54,-79.78 646.81,-70.23 644.3,-61.44"/>
<polygon fill="black" stroke="black" points="647.61,-60.28 641.5,-51.62 640.88,-62.2 647.61,-60.28"/>
</g>
<!-- 416 -->
<g id="node35" class="node">
<title>416</title>
<ellipse fill="#b9d3ee" stroke="black" cx="688.75" cy="-34" rx="16.8" ry="18"/>
<text text-anchor="middle" x="688.75" y="-30.3" font-family="Times,serif" font-size="14.00">3</text>
</g>
<!-- 30&#45;&gt;416 -->
<g id="edge39" class="edge">
<title>30&#45;&gt;416</title>
<path fill="none" stroke="black" d="M664.66,-87.7C668.5,-79.28 673.2,-69.02 677.42,-59.79"/>
<polygon fill="black" stroke="black" points="680.61,-61.22 681.58,-50.67 674.24,-58.31 680.61,-61.22"/>
</g>
<!-- 417 -->
<g id="node36" class="node">
<title>417</title>
<ellipse fill="#b9d3ee" stroke="black" cx="740.75" cy="-34" rx="16.8" ry="18"/>
<text text-anchor="middle" x="740.75" y="-30.3" font-family="Times,serif" font-size="14.00">4</text>
</g>
<!-- 30&#45;&gt;417 -->
<g id="edge40" class="edge">
<title>30&#45;&gt;417</title>
<path fill="none" stroke="black" d="M674.56,-90.15C687.8,-79.12 705.91,-64.03 719.84,-52.43"/>
<polygon fill="black" stroke="black" points="722.45,-54.81 727.89,-45.72 717.96,-49.43 722.45,-54.81"/>
</g>
<!-- 431 -->
<g id="node50" class="node">
<title>431</title>
<ellipse fill="#b9d3ee" stroke="black" cx="798.75" cy="-34" rx="23" ry="18"/>
<text text-anchor="middle" x="798.75" y="-30.3" font-family="Times,serif" font-size="14.00">70</text>
</g>
<!-- 30&#45;&gt;431 -->
<g id="edge54" class="edge">
<title>30&#45;&gt;431</title>
<path fill="none" stroke="black" d="M674.38,-96.77C696.19,-86.52 734.41,-68.37 766.75,-52 768.29,-51.22 769.87,-50.41 771.47,-49.59"/>
<polygon fill="black" stroke="black" points="773.3,-52.57 780.54,-44.83 770.05,-46.37 773.3,-52.57"/>
</g>
<!-- 44 -->
<g id="node23" class="node">
<title>44</title>
<ellipse fill="#b9d3ee" stroke="black" cx="1608.75" cy="-34" rx="16.8" ry="18"/>
<text text-anchor="middle" x="1608.75" y="-30.3" font-family="Times,serif" font-size="14.00">1</text>
</g>
<!-- 31&#45;&gt;44 -->
<g id="edge27" class="edge">
<title>31&#45;&gt;44</title>
<path fill="none" stroke="black" d="M1584.66,-87.7C1588.5,-79.28 1593.2,-69.02 1597.42,-59.79"/>
<polygon fill="black" stroke="black" points="1600.61,-61.22 1601.58,-50.67 1594.24,-58.31 1600.61,-61.22"/>
</g>
<!-- 410 -->
<g id="node29" class="node">
<title>410</title>
<ellipse fill="#b9d3ee" stroke="black" cx="1660.75" cy="-34" rx="16.8" ry="18"/>
<text text-anchor="middle" x="1660.75" y="-30.3" font-family="Times,serif" font-size="14.00">2</text>
</g>
<!-- 31&#45;&gt;410 -->
<g id="edge33" class="edge">
<title>31&#45;&gt;410</title>
<path fill="none" stroke="black" d="M1597.51,-87.7C1610.42,-76.94 1626.97,-63.15 1639.9,-52.37"/>
<polygon fill="black" stroke="black" points="1642.36,-54.88 1647.8,-45.79 1637.88,-49.5 1642.36,-54.88"/>
</g>
<!-- 411 -->
<g id="node30" class="node">
<title>411</title>
<ellipse fill="#b9d3ee" stroke="black" cx="1712.75" cy="-34" rx="16.8" ry="18"/>
<text text-anchor="middle" x="1712.75" y="-30.3" font-family="Times,serif" font-size="14.00">2</text>
</g>
<!-- 31&#45;&gt;411 -->
<g id="edge34" class="edge">
<title>31&#45;&gt;411</title>
<path fill="none" stroke="black" d="M1612.77,-89.08C1634.54,-79.11 1662.66,-65.6 1686.75,-52 1687.88,-51.36 1689.04,-50.69 1690.19,-50"/>
<polygon fill="black" stroke="black" points="1692.31,-52.8 1698.92,-44.52 1688.59,-46.87 1692.31,-52.8"/>
</g>
<!-- 412 -->
<g id="node31" class="node">
<title>412</title>
<ellipse fill="#b9d3ee" stroke="black" cx="1764.75" cy="-34" rx="16.8" ry="18"/>
<text text-anchor="middle" x="1764.75" y="-30.3" font-family="Times,serif" font-size="14.00">2</text>
</g>
<!-- 31&#45;&gt;412 -->
<g id="edge35" class="edge">
<title>31&#45;&gt;412</title>
<path fill="none" stroke="black" d="M1612.87,-96.12C1646.41,-87.19 1697.27,-71.92 1738.75,-52 1739.92,-51.44 1741.11,-50.83 1742.29,-50.18"/>
<polygon fill="black" stroke="black" points="1744.35,-53.03 1751.11,-44.88 1740.74,-47.04 1744.35,-53.03"/>
</g>
<!-- 420 -->
<g id="node39" class="node">
<title>420</title>
<ellipse fill="#b9d3ee" stroke="black" cx="1816.75" cy="-34" rx="16.8" ry="18"/>
<text text-anchor="middle" x="1816.75" y="-30.3" font-family="Times,serif" font-size="14.00">9</text>
</g>
<!-- 31&#45;&gt;420 -->
<g id="edge43" class="edge">
<title>31&#45;&gt;420</title>
<path fill="none" stroke="black" d="M1612.78,-99.87C1656.3,-92.84 1731.1,-77.99 1790.75,-52 1791.94,-51.48 1793.15,-50.9 1794.34,-50.29"/>
<polygon fill="black" stroke="black" points="1796.36,-53.17 1803.2,-45.08 1792.81,-47.13 1796.36,-53.17"/>
</g>
<!-- 427 -->
<g id="node46" class="node">
<title>427</title>
<ellipse fill="#b9d3ee" stroke="black" cx="1874.75" cy="-34" rx="23" ry="18"/>
<text text-anchor="middle" x="1874.75" y="-30.3" font-family="Times,serif" font-size="14.00">29</text>
</g>
<!-- 31&#45;&gt;427 -->
<g id="edge50" class="edge">
<title>31&#45;&gt;427</title>
<path fill="none" stroke="black" d="M1612.92,-101.18C1664.94,-94.94 1763.36,-80.31 1842.75,-52 1844.42,-51.4 1846.11,-50.73 1847.79,-50.01"/>
<polygon fill="black" stroke="black" points="1849.73,-52.97 1857.23,-45.48 1846.7,-46.66 1849.73,-52.97"/>
</g>
<!-- 430 -->
<g id="node49" class="node">
<title>430</title>
<ellipse fill="#b9d3ee" stroke="black" cx="1401.75" cy="-34" rx="23" ry="18"/>
<text text-anchor="middle" x="1401.75" y="-30.3" font-family="Times,serif" font-size="14.00">56</text>
</g>
<!-- 31&#45;&gt;430 -->
<g id="edge53" class="edge">
<title>31&#45;&gt;430</title>
<path fill="none" stroke="black" d="M1540.65,-93.38C1511.15,-83.5 1468.63,-68.33 1432.75,-52 1431.39,-51.38 1430,-50.72 1428.61,-50.04"/>
<polygon fill="black" stroke="black" points="1430.04,-46.84 1419.55,-45.35 1426.82,-53.06 1430.04,-46.84"/>
</g>
<!-- 432 -->
<g id="node51" class="node">
<title>432</title>
<ellipse fill="#b9d3ee" stroke="black" cx="1470.75" cy="-34" rx="28.7" ry="18"/>
<text text-anchor="middle" x="1470.75" y="-30.3" font-family="Times,serif" font-size="14.00">140</text>
</g>
<!-- 31&#45;&gt;432 -->
<g id="edge55" class="edge">
<title>31&#45;&gt;432</title>
<path fill="none" stroke="black" d="M1550.82,-87.88C1534.89,-77.36 1514.5,-63.89 1498.29,-53.19"/>
<polygon fill="black" stroke="black" points="1500.04,-50.15 1489.76,-47.56 1496.18,-55.99 1500.04,-50.15"/>
</g>
<!-- 433 -->
<g id="node52" class="node">
<title>433</title>
<ellipse fill="#b9d3ee" stroke="black" cx="1545.75" cy="-34" rx="28.7" ry="18"/>
<text text-anchor="middle" x="1545.75" y="-30.3" font-family="Times,serif" font-size="14.00">155</text>
</g>
<!-- 31&#45;&gt;433 -->
<g id="edge56" class="edge">
<title>31&#45;&gt;433</title>
<path fill="none" stroke="black" d="M1569.09,-87.7C1565.5,-79.61 1561.16,-69.81 1557.2,-60.87"/>
<polygon fill="black" stroke="black" points="1560.36,-59.35 1553.11,-51.62 1553.96,-62.18 1560.36,-59.35"/>
</g>
<!-- 40 -->
<g id="node19" class="node">
<title>40</title>
<ellipse fill="#b9d3ee" stroke="black" cx="428.75" cy="-34" rx="16.8" ry="18"/>
<text text-anchor="middle" x="428.75" y="-30.3" font-family="Times,serif" font-size="14.00">1</text>
</g>
<!-- 32&#45;&gt;40 -->
<g id="edge23" class="edge">
<title>32&#45;&gt;40</title>
<path fill="none" stroke="black" d="M375.3,-87.7C385.61,-77.53 398.66,-64.67 409.28,-54.19"/>
<polygon fill="black" stroke="black" points="411.85,-56.57 416.52,-47.06 406.94,-51.59 411.85,-56.57"/>
</g>
<!-- 47 -->
<g id="node26" class="node">
<title>47</title>
<ellipse fill="#b9d3ee" stroke="black" cx="170.75" cy="-34" rx="16.8" ry="18"/>
<text text-anchor="middle" x="170.75" y="-30.3" font-family="Times,serif" font-size="14.00">2</text>
</g>
<!-- 32&#45;&gt;47 -->
<g id="edge30" class="edge">
<title>32&#45;&gt;47</title>
<path fill="none" stroke="black" d="M321.53,-96C288.2,-87.04 237.85,-71.78 196.75,-52 195.57,-51.43 194.39,-50.82 193.2,-50.18"/>
<polygon fill="black" stroke="black" points="194.76,-47.03 184.39,-44.87 191.15,-53.03 194.76,-47.03"/>
</g>
<!-- 415 -->
<g id="node34" class="node">
<title>415</title>
<ellipse fill="#b9d3ee" stroke="black" cx="222.75" cy="-34" rx="16.8" ry="18"/>
<text text-anchor="middle" x="222.75" y="-30.3" font-family="Times,serif" font-size="14.00">3</text>
</g>
<!-- 32&#45;&gt;415 -->
<g id="edge38" class="edge">
<title>32&#45;&gt;415</title>
<path fill="none" stroke="black" d="M321.32,-88.7C299.85,-78.74 272.36,-65.39 248.75,-52 247.61,-51.36 246.46,-50.68 245.3,-49.99"/>
<polygon fill="black" stroke="black" points="246.91,-46.86 236.58,-44.51 243.18,-52.79 246.91,-46.86"/>
</g>
<!-- 428 -->
<g id="node47" class="node">
<title>428</title>
<ellipse fill="#b9d3ee" stroke="black" cx="280.75" cy="-34" rx="23" ry="18"/>
<text text-anchor="middle" x="280.75" y="-30.3" font-family="Times,serif" font-size="14.00">35</text>
</g>
<!-- 32&#45;&gt;428 -->
<g id="edge51" class="edge">
<title>32&#45;&gt;428</title>
<path fill="none" stroke="black" d="M338.71,-87.7C327.86,-77.83 314.2,-65.41 302.87,-55.11"/>
<polygon fill="black" stroke="black" points="305.21,-52.51 295.46,-48.38 300.51,-57.69 305.21,-52.51"/>
</g>
<!-- 434 -->
<g id="node53" class="node">
<title>434</title>
<ellipse fill="#b9d3ee" stroke="black" cx="357.75" cy="-34" rx="36" ry="18"/>
<text text-anchor="middle" x="357.75" y="-30.3" font-family="Times,serif" font-size="14.00">274</text>
</g>
<!-- 32&#45;&gt;434 -->
<g id="edge57" class="edge">
<title>32&#45;&gt;434</title>
<path fill="none" stroke="black" d="M357.75,-87.7C357.75,-79.98 357.75,-70.71 357.75,-62.11"/>
<polygon fill="black" stroke="black" points="361.25,-62.1 357.75,-52.1 354.25,-62.1 361.25,-62.1"/>
</g>
<!-- 43 -->
<g id="node22" class="node">
<title>43</title>
<ellipse fill="#b9d3ee" stroke="black" cx="1072.75" cy="-34" rx="16.8" ry="18"/>
<text text-anchor="middle" x="1072.75" y="-30.3" font-family="Times,serif" font-size="14.00">1</text>
</g>
<!-- 33&#45;&gt;43 -->
<g id="edge26" class="edge">
<title>33&#45;&gt;43</title>
<path fill="none" stroke="black" d="M1111.89,-87.7C1105.01,-78.43 1096.45,-66.91 1089.1,-57.01"/>
<polygon fill="black" stroke="black" points="1091.79,-54.76 1083.02,-48.82 1086.17,-58.94 1091.79,-54.76"/>
</g>
<!-- 46 -->
<g id="node25" class="node">
<title>46</title>
<ellipse fill="#b9d3ee" stroke="black" cx="1124.75" cy="-34" rx="16.8" ry="18"/>
<text text-anchor="middle" x="1124.75" y="-30.3" font-family="Times,serif" font-size="14.00">1</text>
</g>
<!-- 33&#45;&gt;46 -->
<g id="edge29" class="edge">
<title>33&#45;&gt;46</title>
<path fill="none" stroke="black" d="M1124.75,-87.7C1124.75,-79.98 1124.75,-70.71 1124.75,-62.11"/>
<polygon fill="black" stroke="black" points="1128.25,-62.1 1124.75,-52.1 1121.25,-62.1 1128.25,-62.1"/>
</g>
<!-- 48 -->
<g id="node27" class="node">
<title>48</title>
<ellipse fill="#b9d3ee" stroke="black" cx="1176.75" cy="-34" rx="16.8" ry="18"/>
<text text-anchor="middle" x="1176.75" y="-30.3" font-family="Times,serif" font-size="14.00">2</text>
</g>
<!-- 33&#45;&gt;48 -->
<g id="edge31" class="edge">
<title>33&#45;&gt;48</title>
<path fill="none" stroke="black" d="M1137.6,-87.7C1144.49,-78.43 1153.04,-66.91 1160.4,-57.01"/>
<polygon fill="black" stroke="black" points="1163.32,-58.94 1166.48,-48.82 1157.71,-54.76 1163.32,-58.94"/>
</g>
<!-- 418 -->
<g id="node37" class="node">
<title>418</title>
<ellipse fill="#b9d3ee" stroke="black" cx="1228.75" cy="-34" rx="16.8" ry="18"/>
<text text-anchor="middle" x="1228.75" y="-30.3" font-family="Times,serif" font-size="14.00">4</text>
</g>
<!-- 33&#45;&gt;418 -->
<g id="edge41" class="edge">
<title>33&#45;&gt;418</title>
<path fill="none" stroke="black" d="M1150.19,-87.88C1167.34,-76.33 1189.76,-61.24 1206.25,-50.14"/>
<polygon fill="black" stroke="black" points="1208.4,-52.92 1214.74,-44.43 1204.49,-47.11 1208.4,-52.92"/>
</g>
<!-- 419 -->
<g id="node38" class="node">
<title>419</title>
<ellipse fill="#b9d3ee" stroke="black" cx="1280.75" cy="-34" rx="16.8" ry="18"/>
<text text-anchor="middle" x="1280.75" y="-30.3" font-family="Times,serif" font-size="14.00">7</text>
</g>
<!-- 33&#45;&gt;419 -->
<g id="edge42" class="edge">
<title>33&#45;&gt;419</title>
<path fill="none" stroke="black" d="M1160.89,-92.39C1187.45,-82.63 1224.1,-68.08 1254.75,-52 1255.9,-51.39 1257.07,-50.75 1258.24,-50.08"/>
<polygon fill="black" stroke="black" points="1260.33,-52.91 1267.01,-44.68 1256.66,-46.95 1260.33,-52.91"/>
</g>
<!-- 421 -->
<g id="node40" class="node">
<title>421</title>
<ellipse fill="#b9d3ee" stroke="black" cx="1338.75" cy="-34" rx="23" ry="18"/>
<text text-anchor="middle" x="1338.75" y="-30.3" font-family="Times,serif" font-size="14.00">10</text>
</g>
<!-- 33&#45;&gt;421 -->
<g id="edge44" class="edge">
<title>33&#45;&gt;421</title>
<path fill="none" stroke="black" d="M1161.06,-96.76C1198.33,-87.76 1257.66,-71.94 1306.75,-52 1308.35,-51.35 1309.98,-50.64 1311.61,-49.9"/>
<polygon fill="black" stroke="black" points="1313.36,-52.93 1320.78,-45.37 1310.26,-46.66 1313.36,-52.93"/>
</g>
<!-- 423 -->
<g id="node42" class="node">
<title>423</title>
<ellipse fill="#b9d3ee" stroke="black" cx="861.75" cy="-34" rx="23" ry="18"/>
<text text-anchor="middle" x="861.75" y="-30.3" font-family="Times,serif" font-size="14.00">18</text>
</g>
<!-- 33&#45;&gt;423 -->
<g id="edge46" class="edge">
<title>33&#45;&gt;423</title>
<path fill="none" stroke="black" d="M1088.47,-99.9C1042.02,-92.67 959.56,-77.39 892.75,-52 891.35,-51.47 889.94,-50.88 888.52,-50.26"/>
<polygon fill="black" stroke="black" points="889.89,-47.04 879.38,-45.76 886.8,-53.32 889.89,-47.04"/>
</g>
<!-- 424 -->
<g id="node43" class="node">
<title>424</title>
<ellipse fill="#b9d3ee" stroke="black" cx="924.75" cy="-34" rx="23" ry="18"/>
<text text-anchor="middle" x="924.75" y="-30.3" font-family="Times,serif" font-size="14.00">27</text>
</g>
<!-- 33&#45;&gt;424 -->
<g id="edge47" class="edge">
<title>33&#45;&gt;424</title>
<path fill="none" stroke="black" d="M1088.67,-95.68C1054.18,-86.29 1001.03,-70.56 956.75,-52 955.15,-51.33 953.53,-50.61 951.91,-49.86"/>
<polygon fill="black" stroke="black" points="953.26,-46.62 942.74,-45.3 950.14,-52.89 953.26,-46.62"/>
</g>
<!-- 436 -->
<g id="node55" class="node">
<title>436</title>
<ellipse fill="#b9d3ee" stroke="black" cx="1001.75" cy="-34" rx="36" ry="18"/>
<text text-anchor="middle" x="1001.75" y="-30.3" font-family="Times,serif" font-size="14.00">321</text>
</g>
<!-- 33&#45;&gt;436 -->
<g id="edge59" class="edge">
<title>33&#45;&gt;436</title>
<path fill="none" stroke="black" d="M1094.66,-87.88C1076.08,-77.3 1052.27,-63.75 1033.4,-53.02"/>
<polygon fill="black" stroke="black" points="1035.01,-49.9 1024.59,-48 1031.55,-55.99 1035.01,-49.9"/>
</g>
<!-- 49 -->
<g id="node28" class="node">
<title>49</title>
<ellipse fill="#b9d3ee" stroke="black" cx="2085.75" cy="-34" rx="16.8" ry="18"/>
<text text-anchor="middle" x="2085.75" y="-30.3" font-family="Times,serif" font-size="14.00">2</text>
</g>
<!-- 34&#45;&gt;49 -->
<g id="edge32" class="edge">
<title>34&#45;&gt;49</title>
<path fill="none" stroke="black" d="M2085.75,-87.7C2085.75,-79.98 2085.75,-70.71 2085.75,-62.11"/>
<polygon fill="black" stroke="black" points="2089.25,-62.1 2085.75,-52.1 2082.25,-62.1 2089.25,-62.1"/>
</g>
<!-- 414 -->
<g id="node33" class="node">
<title>414</title>
<ellipse fill="#b9d3ee" stroke="black" cx="2137.75" cy="-34" rx="16.8" ry="18"/>
<text text-anchor="middle" x="2137.75" y="-30.3" font-family="Times,serif" font-size="14.00">2</text>
</g>
<!-- 34&#45;&gt;414 -->
<g id="edge37" class="edge">
<title>34&#45;&gt;414</title>
<path fill="none" stroke="black" d="M2098.6,-87.7C2105.49,-78.43 2114.04,-66.91 2121.4,-57.01"/>
<polygon fill="black" stroke="black" points="2124.32,-58.94 2127.48,-48.82 2118.71,-54.76 2124.32,-58.94"/>
</g>
<!-- 425 -->
<g id="node44" class="node">
<title>425</title>
<ellipse fill="#b9d3ee" stroke="black" cx="2195.75" cy="-34" rx="23" ry="18"/>
<text text-anchor="middle" x="2195.75" y="-30.3" font-family="Times,serif" font-size="14.00">27</text>
</g>
<!-- 34&#45;&gt;425 -->
<g id="edge48" class="edge">
<title>34&#45;&gt;425</title>
<path fill="none" stroke="black" d="M2112.66,-87.88C2130.1,-76.78 2152.69,-62.4 2169.91,-51.44"/>
<polygon fill="black" stroke="black" points="2171.82,-54.38 2178.37,-46.06 2168.06,-48.47 2171.82,-54.38"/>
</g>
<!-- 426 -->
<g id="node45" class="node">
<title>426</title>
<ellipse fill="#b9d3ee" stroke="black" cx="2258.75" cy="-34" rx="23" ry="18"/>
<text text-anchor="middle" x="2258.75" y="-30.3" font-family="Times,serif" font-size="14.00">29</text>
</g>
<!-- 34&#45;&gt;426 -->
<g id="edge49" class="edge">
<title>34&#45;&gt;426</title>
<path fill="none" stroke="black" d="M2121.93,-93.12C2150.98,-83.19 2192.58,-68.1 2227.75,-52 2229.11,-51.38 2230.49,-50.72 2231.88,-50.04"/>
<polygon fill="black" stroke="black" points="2233.68,-53.05 2240.94,-45.34 2230.45,-46.83 2233.68,-53.05"/>
</g>
<!-- 429 -->
<g id="node48" class="node">
<title>429</title>
<ellipse fill="#b9d3ee" stroke="black" cx="1937.75" cy="-34" rx="23" ry="18"/>
<text text-anchor="middle" x="1937.75" y="-30.3" font-family="Times,serif" font-size="14.00">56</text>
</g>
<!-- 34&#45;&gt;429 -->
<g id="edge52" class="edge">
<title>34&#45;&gt;429</title>
<path fill="none" stroke="black" d="M2049.69,-89.19C2026.66,-78.93 1996.25,-65.08 1969.75,-52 1968.2,-51.23 1966.61,-50.44 1965.01,-49.62"/>
<polygon fill="black" stroke="black" points="1966.41,-46.41 1955.93,-44.9 1963.18,-52.62 1966.41,-46.41"/>
</g>
<!-- 435 -->
<g id="node54" class="node">
<title>435</title>
<ellipse fill="#b9d3ee" stroke="black" cx="2014.75" cy="-34" rx="36" ry="18"/>
<text text-anchor="middle" x="2014.75" y="-30.3" font-family="Times,serif" font-size="14.00">293</text>
</g>
<!-- 34&#45;&gt;435 -->
<g id="edge58" class="edge">
<title>34&#45;&gt;435</title>
<path fill="none" stroke="black" d="M2068.2,-87.7C2059.03,-78.66 2047.71,-67.5 2037.84,-57.77"/>
<polygon fill="black" stroke="black" points="2040.22,-55.2 2030.64,-50.67 2035.31,-60.18 2040.22,-55.2"/>
</g>
<!-- 422 -->
<g id="node41" class="node">
<title>422</title>
<ellipse fill="#b9d3ee" stroke="black" cx="22.75" cy="-34" rx="23" ry="18"/>
<text text-anchor="middle" x="22.75" y="-30.3" font-family="Times,serif" font-size="14.00">11</text>
</g>
<!-- 35&#45;&gt;422 -->
<g id="edge45" class="edge">
<title>35&#45;&gt;422</title>
<path fill="none" stroke="black" d="M80.71,-87.7C69.86,-77.83 56.2,-65.41 44.87,-55.11"/>
<polygon fill="black" stroke="black" points="47.21,-52.51 37.46,-48.38 42.51,-57.69 47.21,-52.51"/>
</g>
<!-- 437 -->
<g id="node56" class="node">
<title>437</title>
<ellipse fill="#b9d3ee" stroke="black" cx="99.75" cy="-34" rx="36" ry="18"/>
<text text-anchor="middle" x="99.75" y="-30.3" font-family="Times,serif" font-size="14.00">396</text>
</g>
<!-- 35&#45;&gt;437 -->
<g id="edge60" class="edge">
<title>35&#45;&gt;437</title>
<path fill="none" stroke="black" d="M99.75,-87.7C99.75,-79.98 99.75,-70.71 99.75,-62.11"/>
<polygon fill="black" stroke="black" points="103.25,-62.1 99.75,-52.1 96.25,-62.1 103.25,-62.1"/>
</g>
<!-- legend_4 -->
<g id="node57" class="node">
<title>legend_4</title>
<polygon fill="#b9d3ee" stroke="black" points="2520.25,-52 2299.25,-52 2299.25,-16 2520.25,-16 2520.25,-52"/>
<text text-anchor="middle" x="2409.75" y="-30.3" font-family="Times,serif" font-size="14.00">DT=6 ST=1 Similarity=0.49</text>
</g>
<!-- legend_3&#45;&gt;legend_4 -->
<g id="edge61" class="edge">
<title>legend_3&#45;&gt;legend_4</title>
<path fill="none" stroke="black" d="M2409.75,-87.7C2409.75,-79.98 2409.75,-70.71 2409.75,-62.11"/>
<polygon fill="black" stroke="black" points="2413.25,-62.1 2409.75,-52.1 2406.25,-62.1 2413.25,-62.1"/>
</g>
</g>
</svg>
