<?xml version="1.0" encoding="UTF-8" standalone="no"?>
<!DOCTYPE svg PUBLIC "-//W3C//DTD SVG 1.1//EN"
 "http://www.w3.org/Graphics/SVG/1.1/DTD/svg11.dtd">
<!-- Generated by graphviz version 2.43.0 (0)
 -->
<!-- Title: %3 Pages: 1 -->
<svg width="2967pt" height="497pt"
 viewBox="0.00 0.00 2966.90 497.00" xmlns="http://www.w3.org/2000/svg" xmlns:xlink="http://www.w3.org/1999/xlink">
<g id="graph0" class="graph" transform="scale(1 1) rotate(0) translate(4 493)">
<title>%3</title>
<polygon fill="white" stroke="transparent" points="-4,4 -4,-493 2962.9,-493 2962.9,4 -4,4"/>
<text text-anchor="middle" x="1479.45" y="-473.8" font-family="Times,serif" font-size="14.00">ConsTree</text>
<text text-anchor="middle" x="1479.45" y="-458.8" font-family="Times,serif" font-size="14.00">Tree Quality = 1.0</text>
<g id="clust1" class="cluster">
<title>cluster</title>
<polygon fill="none" stroke="black" points="2714.9,-8 2714.9,-443 2950.9,-443 2950.9,-8 2714.9,-8"/>
<text text-anchor="middle" x="2832.9" y="-427.8" font-family="Times,serif" font-size="14.00">Legend</text>
</g>
<!-- 00 -->
<g id="node1" class="node">
<title>00</title>
<ellipse fill="#b9d3ee" stroke="black" cx="1405.9" cy="-394" rx="324" ry="18"/>
<text text-anchor="middle" x="1405.9" y="-390.3" font-family="Times,serif" font-size="14.00">2000</text>
</g>
<!-- 10 -->
<g id="node3" class="node">
<title>10</title>
<ellipse fill="#b9d3ee" stroke="black" cx="1252.9" cy="-322" rx="144" ry="18"/>
<text text-anchor="middle" x="1252.9" y="-318.3" font-family="Times,serif" font-size="14.00">981</text>
</g>
<!-- 00&#45;&gt;10 -->
<g id="edge1" class="edge">
<title>00&#45;&gt;10</title>
<path fill="none" stroke="black" d="M1368.86,-376.05C1347.66,-366.35 1320.89,-354.11 1298.41,-343.82"/>
<polygon fill="black" stroke="black" points="1299.62,-340.53 1289.07,-339.55 1296.7,-346.89 1299.62,-340.53"/>
</g>
<!-- 11 -->
<g id="node4" class="node">
<title>11</title>
<ellipse fill="#b9d3ee" stroke="black" cx="1558.9" cy="-322" rx="144" ry="18"/>
<text text-anchor="middle" x="1558.9" y="-318.3" font-family="Times,serif" font-size="14.00">1019</text>
</g>
<!-- 00&#45;&gt;11 -->
<g id="edge2" class="edge">
<title>00&#45;&gt;11</title>
<path fill="none" stroke="black" d="M1442.94,-376.05C1464.14,-366.35 1490.91,-354.11 1513.39,-343.82"/>
<polygon fill="black" stroke="black" points="1515.09,-346.89 1522.73,-339.55 1512.18,-340.53 1515.09,-346.89"/>
</g>
<!-- legend_0 -->
<g id="node2" class="node">
<title>legend_0</title>
<polygon fill="#b9d3ee" stroke="black" points="2943.4,-412 2722.4,-412 2722.4,-376 2943.4,-376 2943.4,-412"/>
<text text-anchor="middle" x="2832.9" y="-390.3" font-family="Times,serif" font-size="14.00">DT=1 ST=1 Similarity=0.28</text>
</g>
<!-- legend_1 -->
<g id="node5" class="node">
<title>legend_1</title>
<polygon fill="#b9d3ee" stroke="black" points="2943.4,-340 2722.4,-340 2722.4,-304 2943.4,-304 2943.4,-340"/>
<text text-anchor="middle" x="2832.9" y="-318.3" font-family="Times,serif" font-size="14.00">DT=2 ST=1 Similarity=0.46</text>
</g>
<!-- legend_0&#45;&gt;legend_1 -->
<g id="edge3" class="edge">
<title>legend_0&#45;&gt;legend_1</title>
<path fill="none" stroke="black" d="M2832.9,-375.7C2832.9,-367.98 2832.9,-358.71 2832.9,-350.11"/>
<polygon fill="black" stroke="black" points="2836.4,-350.1 2832.9,-340.1 2829.4,-350.1 2836.4,-350.1"/>
</g>
<!-- 20 -->
<g id="node6" class="node">
<title>20</title>
<ellipse fill="#b9d3ee" stroke="black" cx="929.9" cy="-250" rx="36" ry="18"/>
<text text-anchor="middle" x="929.9" y="-246.3" font-family="Times,serif" font-size="14.00">369</text>
</g>
<!-- 10&#45;&gt;20 -->
<g id="edge4" class="edge">
<title>10&#45;&gt;20</title>
<path fill="none" stroke="black" d="M1184.4,-306.15C1120.2,-292.24 1026.27,-271.89 972.3,-260.19"/>
<polygon fill="black" stroke="black" points="972.89,-256.74 962.38,-258.04 971.41,-263.58 972.89,-256.74"/>
</g>
<!-- 21 -->
<g id="node7" class="node">
<title>21</title>
<ellipse fill="#b9d3ee" stroke="black" cx="1672.9" cy="-250" rx="36" ry="18"/>
<text text-anchor="middle" x="1672.9" y="-246.3" font-family="Times,serif" font-size="14.00">403</text>
</g>
<!-- 10&#45;&gt;21 -->
<g id="edge5" class="edge">
<title>10&#45;&gt;21</title>
<path fill="none" stroke="black" d="M1335.63,-307.21C1423.71,-292.53 1559.76,-269.86 1629.07,-258.31"/>
<polygon fill="black" stroke="black" points="1629.91,-261.71 1639.2,-256.62 1628.76,-254.81 1629.91,-261.71"/>
</g>
<!-- 22 -->
<g id="node8" class="node">
<title>22</title>
<ellipse fill="#b9d3ee" stroke="black" cx="1171.9" cy="-250" rx="36" ry="18"/>
<text text-anchor="middle" x="1171.9" y="-246.3" font-family="Times,serif" font-size="14.00">420</text>
</g>
<!-- 10&#45;&gt;22 -->
<g id="edge7" class="edge">
<title>10&#45;&gt;22</title>
<path fill="none" stroke="black" d="M1233.29,-304.05C1222.33,-294.59 1208.57,-282.69 1196.85,-272.56"/>
<polygon fill="black" stroke="black" points="1198.98,-269.78 1189.13,-265.89 1194.4,-275.07 1198.98,-269.78"/>
</g>
<!-- 23 -->
<g id="node9" class="node">
<title>23</title>
<ellipse fill="#b9d3ee" stroke="black" cx="1333.9" cy="-250" rx="108" ry="18"/>
<text text-anchor="middle" x="1333.9" y="-246.3" font-family="Times,serif" font-size="14.00">808</text>
</g>
<!-- 10&#45;&gt;23 -->
<g id="edge8" class="edge">
<title>10&#45;&gt;23</title>
<path fill="none" stroke="black" d="M1272.51,-304.05C1282.75,-295.2 1295.46,-284.22 1306.65,-274.55"/>
<polygon fill="black" stroke="black" points="1309.19,-276.98 1314.47,-267.79 1304.62,-271.68 1309.19,-276.98"/>
</g>
<!-- 11&#45;&gt;21 -->
<g id="edge6" class="edge">
<title>11&#45;&gt;21</title>
<path fill="none" stroke="black" d="M1586.2,-304.23C1603.14,-293.83 1624.94,-280.45 1642.44,-269.7"/>
<polygon fill="black" stroke="black" points="1644.46,-272.57 1651.15,-264.36 1640.8,-266.61 1644.46,-272.57"/>
</g>
<!-- 11&#45;&gt;23 -->
<g id="edge9" class="edge">
<title>11&#45;&gt;23</title>
<path fill="none" stroke="black" d="M1507.84,-305.12C1473.47,-294.42 1428.07,-280.3 1392.27,-269.16"/>
<polygon fill="black" stroke="black" points="1393.03,-265.73 1382.44,-266.1 1390.95,-272.41 1393.03,-265.73"/>
</g>
<!-- legend_2 -->
<g id="node10" class="node">
<title>legend_2</title>
<polygon fill="#b9d3ee" stroke="black" points="2943.4,-268 2722.4,-268 2722.4,-232 2943.4,-232 2943.4,-268"/>
<text text-anchor="middle" x="2832.9" y="-246.3" font-family="Times,serif" font-size="14.00">DT=3 ST=1 Similarity=0.52</text>
</g>
<!-- legend_1&#45;&gt;legend_2 -->
<g id="edge10" class="edge">
<title>legend_1&#45;&gt;legend_2</title>
<path fill="none" stroke="black" d="M2832.9,-303.7C2832.9,-295.98 2832.9,-286.71 2832.9,-278.11"/>
<polygon fill="black" stroke="black" points="2836.4,-278.1 2832.9,-268.1 2829.4,-278.1 2836.4,-278.1"/>
</g>
<!-- 33 -->
<g id="node14" class="node">
<title>33</title>
<polygon fill="darkseagreen" stroke="black" points="814.9,-196 742.9,-196 742.9,-160 814.9,-160 814.9,-196"/>
<text text-anchor="middle" x="778.9" y="-174.3" font-family="Times,serif" font-size="14.00">404</text>
</g>
<!-- 20&#45;&gt;33 -->
<g id="edge14" class="edge">
<title>20&#45;&gt;33</title>
<path fill="none" stroke="black" d="M904.28,-237.13C882.48,-227.02 850.62,-212.25 824.47,-200.13"/>
<polygon fill="black" stroke="black" points="825.67,-196.83 815.13,-195.8 822.73,-203.18 825.67,-196.83"/>
</g>
<!-- 30 -->
<g id="node11" class="node">
<title>30</title>
<polygon fill="darkseagreen" stroke="black" points="1821.9,-196 1749.9,-196 1749.9,-160 1821.9,-160 1821.9,-196"/>
<text text-anchor="middle" x="1785.9" y="-174.3" font-family="Times,serif" font-size="14.00">373</text>
</g>
<!-- 21&#45;&gt;30 -->
<g id="edge11" class="edge">
<title>21&#45;&gt;30</title>
<path fill="none" stroke="black" d="M1694.69,-235.5C1710.23,-225.88 1731.49,-212.7 1749.58,-201.5"/>
<polygon fill="black" stroke="black" points="1751.51,-204.42 1758.17,-196.18 1747.82,-198.47 1751.51,-204.42"/>
</g>
<!-- 32 -->
<g id="node13" class="node">
<title>32</title>
<polygon fill="darkseagreen" stroke="black" points="2277.4,-196 2242.4,-196 2242.4,-160 2277.4,-160 2277.4,-196"/>
<text text-anchor="middle" x="2259.9" y="-174.3" font-family="Times,serif" font-size="14.00">30</text>
</g>
<!-- 21&#45;&gt;32 -->
<g id="edge13" class="edge">
<title>21&#45;&gt;32</title>
<path fill="none" stroke="black" d="M1707.43,-244.88C1813.79,-232.2 2135.13,-193.88 2231.98,-182.33"/>
<polygon fill="black" stroke="black" points="2232.63,-185.78 2242.15,-181.12 2231.81,-178.83 2232.63,-185.78"/>
</g>
<!-- 22&#45;&gt;33 -->
<g id="edge15" class="edge">
<title>22&#45;&gt;33</title>
<path fill="none" stroke="black" d="M1138.39,-243.03C1068.22,-230.53 905.7,-201.58 825.45,-187.29"/>
<polygon fill="black" stroke="black" points="825.61,-183.76 815.15,-185.46 824.38,-190.66 825.61,-183.76"/>
</g>
<!-- 34 -->
<g id="node15" class="node">
<title>34</title>
<polygon fill="darkseagreen" stroke="black" points="1254.9,-196 1182.9,-196 1182.9,-160 1254.9,-160 1254.9,-196"/>
<text text-anchor="middle" x="1218.9" y="-174.3" font-family="Times,serif" font-size="14.00">385</text>
</g>
<!-- 22&#45;&gt;34 -->
<g id="edge16" class="edge">
<title>22&#45;&gt;34</title>
<path fill="none" stroke="black" d="M1182.8,-232.76C1188.45,-224.35 1195.47,-213.89 1201.82,-204.44"/>
<polygon fill="black" stroke="black" points="1204.73,-206.38 1207.4,-196.12 1198.92,-202.48 1204.73,-206.38"/>
</g>
<!-- 31 -->
<g id="node12" class="node">
<title>31</title>
<polygon fill="darkseagreen" stroke="black" points="1114.9,-196 1042.9,-196 1042.9,-160 1114.9,-160 1114.9,-196"/>
<text text-anchor="middle" x="1078.9" y="-174.3" font-family="Times,serif" font-size="14.00">410</text>
</g>
<!-- 23&#45;&gt;31 -->
<g id="edge12" class="edge">
<title>23&#45;&gt;31</title>
<path fill="none" stroke="black" d="M1280.44,-234.33C1234.38,-221.68 1168.57,-203.62 1124.84,-191.61"/>
<polygon fill="black" stroke="black" points="1125.61,-188.19 1115.04,-188.92 1123.76,-194.94 1125.61,-188.19"/>
</g>
<!-- 35 -->
<g id="node16" class="node">
<title>35</title>
<polygon fill="darkseagreen" stroke="black" points="1369.9,-196 1297.9,-196 1297.9,-160 1369.9,-160 1369.9,-196"/>
<text text-anchor="middle" x="1333.9" y="-174.3" font-family="Times,serif" font-size="14.00">398</text>
</g>
<!-- 23&#45;&gt;35 -->
<g id="edge17" class="edge">
<title>23&#45;&gt;35</title>
<path fill="none" stroke="black" d="M1333.9,-231.7C1333.9,-223.98 1333.9,-214.71 1333.9,-206.11"/>
<polygon fill="black" stroke="black" points="1337.4,-206.1 1333.9,-196.1 1330.4,-206.1 1337.4,-206.1"/>
</g>
<!-- legend_3 -->
<g id="node17" class="node">
<title>legend_3</title>
<polygon fill="darkseagreen" stroke="black" points="2943.4,-196 2722.4,-196 2722.4,-160 2943.4,-160 2943.4,-196"/>
<text text-anchor="middle" x="2832.9" y="-174.3" font-family="Times,serif" font-size="14.00">DT=4 ST=1 Similarity=0.67</text>
</g>
<!-- legend_2&#45;&gt;legend_3 -->
<g id="edge18" class="edge">
<title>legend_2&#45;&gt;legend_3</title>
<path fill="none" stroke="black" d="M2832.9,-231.7C2832.9,-223.98 2832.9,-214.71 2832.9,-206.11"/>
<polygon fill="black" stroke="black" points="2836.4,-206.1 2832.9,-196.1 2829.4,-206.1 2836.4,-206.1"/>
</g>
<!-- 40 -->
<g id="node18" class="node">
<title>40</title>
<ellipse fill="#b9d3ee" stroke="black" cx="2195.9" cy="-106" rx="23" ry="18"/>
<text text-anchor="middle" x="2195.9" y="-102.3" font-family="Times,serif" font-size="14.00">35</text>
</g>
<!-- 30&#45;&gt;40 -->
<g id="edge19" class="edge">
<title>30&#45;&gt;40</title>
<path fill="none" stroke="black" d="M1821.92,-170.85C1900.89,-157.37 2088.19,-125.39 2163.61,-112.51"/>
<polygon fill="black" stroke="black" points="2164.63,-115.89 2173.9,-110.76 2163.45,-108.99 2164.63,-115.89"/>
</g>
<!-- 42 -->
<g id="node20" class="node">
<title>42</title>
<ellipse fill="#b9d3ee" stroke="black" cx="1584.9" cy="-106" rx="36" ry="18"/>
<text text-anchor="middle" x="1584.9" y="-102.3" font-family="Times,serif" font-size="14.00">390</text>
</g>
<!-- 30&#45;&gt;42 -->
<g id="edge22" class="edge">
<title>30&#45;&gt;42</title>
<path fill="none" stroke="black" d="M1749.5,-164.32C1713.82,-151.9 1659.65,-133.03 1623.3,-120.37"/>
<polygon fill="black" stroke="black" points="1624.15,-116.96 1613.55,-116.98 1621.85,-123.57 1624.15,-116.96"/>
</g>
<!-- 45 -->
<g id="node23" class="node">
<title>45</title>
<ellipse fill="#b9d3ee" stroke="black" cx="2495.9" cy="-106" rx="36" ry="18"/>
<text text-anchor="middle" x="2495.9" y="-102.3" font-family="Times,serif" font-size="14.00">363</text>
</g>
<!-- 30&#45;&gt;45 -->
<g id="edge27" class="edge">
<title>30&#45;&gt;45</title>
<path fill="none" stroke="black" d="M1822.08,-173.43C1940.94,-161.71 2319.25,-124.42 2450.52,-111.47"/>
<polygon fill="black" stroke="black" points="2451.02,-114.94 2460.63,-110.48 2450.33,-107.98 2451.02,-114.94"/>
</g>
<!-- 41 -->
<g id="node19" class="node">
<title>41</title>
<ellipse fill="#b9d3ee" stroke="black" cx="702.9" cy="-106" rx="23" ry="18"/>
<text text-anchor="middle" x="702.9" y="-102.3" font-family="Times,serif" font-size="14.00">71</text>
</g>
<!-- 31&#45;&gt;41 -->
<g id="edge20" class="edge">
<title>31&#45;&gt;41</title>
<path fill="none" stroke="black" d="M1042.85,-170.29C969.59,-156.65 804.4,-125.9 734.79,-112.94"/>
<polygon fill="black" stroke="black" points="735.32,-109.48 724.85,-111.09 734.04,-116.36 735.32,-109.48"/>
</g>
<!-- 44 -->
<g id="node22" class="node">
<title>44</title>
<ellipse fill="#b9d3ee" stroke="black" cx="1078.9" cy="-106" rx="36" ry="18"/>
<text text-anchor="middle" x="1078.9" y="-102.3" font-family="Times,serif" font-size="14.00">406</text>
</g>
<!-- 31&#45;&gt;44 -->
<g id="edge25" class="edge">
<title>31&#45;&gt;44</title>
<path fill="none" stroke="black" d="M1078.9,-159.7C1078.9,-151.98 1078.9,-142.71 1078.9,-134.11"/>
<polygon fill="black" stroke="black" points="1082.4,-134.1 1078.9,-124.1 1075.4,-134.1 1082.4,-134.1"/>
</g>
<!-- 32&#45;&gt;45 -->
<g id="edge28" class="edge">
<title>32&#45;&gt;45</title>
<path fill="none" stroke="black" d="M2277.64,-171.74C2315.22,-160.59 2403.69,-134.35 2455.72,-118.92"/>
<polygon fill="black" stroke="black" points="2457.02,-122.18 2465.62,-115.98 2455.03,-115.47 2457.02,-122.18"/>
</g>
<!-- 33&#45;&gt;41 -->
<g id="edge21" class="edge">
<title>33&#45;&gt;41</title>
<path fill="none" stroke="black" d="M760.11,-159.7C749.5,-149.92 736.18,-137.65 725.06,-127.41"/>
<polygon fill="black" stroke="black" points="727.15,-124.58 717.42,-120.38 722.4,-129.72 727.15,-124.58"/>
</g>
<!-- 43 -->
<g id="node21" class="node">
<title>43</title>
<ellipse fill="#b9d3ee" stroke="black" cx="269.9" cy="-106" rx="36" ry="18"/>
<text text-anchor="middle" x="269.9" y="-102.3" font-family="Times,serif" font-size="14.00">339</text>
</g>
<!-- 33&#45;&gt;43 -->
<g id="edge24" class="edge">
<title>33&#45;&gt;43</title>
<path fill="none" stroke="black" d="M742.7,-172.02C651.67,-159.5 413.41,-126.74 314.22,-113.1"/>
<polygon fill="black" stroke="black" points="314.61,-109.62 304.23,-111.72 313.66,-116.55 314.61,-109.62"/>
</g>
<!-- 34&#45;&gt;42 -->
<g id="edge23" class="edge">
<title>34&#45;&gt;42</title>
<path fill="none" stroke="black" d="M1255.13,-167.75C1265.96,-165.11 1277.89,-162.32 1288.9,-160 1378.05,-141.21 1483.21,-123.41 1541.12,-113.98"/>
<polygon fill="black" stroke="black" points="1541.72,-117.43 1551.03,-112.37 1540.6,-110.52 1541.72,-117.43"/>
</g>
<!-- 35&#45;&gt;44 -->
<g id="edge26" class="edge">
<title>35&#45;&gt;44</title>
<path fill="none" stroke="black" d="M1297.63,-167.05C1250.55,-154.12 1168.61,-131.63 1119.5,-118.15"/>
<polygon fill="black" stroke="black" points="1120.41,-114.77 1109.84,-115.49 1118.55,-121.52 1120.41,-114.77"/>
</g>
<!-- 46 -->
<g id="node24" class="node">
<title>46</title>
<ellipse fill="#b9d3ee" stroke="black" cx="1899.9" cy="-106" rx="36" ry="18"/>
<text text-anchor="middle" x="1899.9" y="-102.3" font-family="Times,serif" font-size="14.00">396</text>
</g>
<!-- 35&#45;&gt;46 -->
<g id="edge29" class="edge">
<title>35&#45;&gt;46</title>
<path fill="none" stroke="black" d="M1370.17,-172.51C1469.67,-160.21 1746.78,-125.94 1855.4,-112.5"/>
<polygon fill="black" stroke="black" points="1855.88,-115.97 1865.38,-111.27 1855.03,-109.02 1855.88,-115.97"/>
</g>
<!-- legend_4 -->
<g id="node25" class="node">
<title>legend_4</title>
<polygon fill="#b9d3ee" stroke="black" points="2943.4,-124 2722.4,-124 2722.4,-88 2943.4,-88 2943.4,-124"/>
<text text-anchor="middle" x="2832.9" y="-102.3" font-family="Times,serif" font-size="14.00">DT=5 ST=1 Similarity=0.65</text>
</g>
<!-- legend_3&#45;&gt;legend_4 -->
<g id="edge30" class="edge">
<title>legend_3&#45;&gt;legend_4</title>
<path fill="none" stroke="black" d="M2832.9,-159.7C2832.9,-151.98 2832.9,-142.71 2832.9,-134.11"/>
<polygon fill="black" stroke="black" points="2836.4,-134.1 2832.9,-124.1 2829.4,-134.1 2836.4,-134.1"/>
</g>
<!-- 52 -->
<g id="node28" class="node">
<title>52</title>
<ellipse fill="#b9d3ee" stroke="black" cx="2169.9" cy="-34" rx="16.8" ry="18"/>
<text text-anchor="middle" x="2169.9" y="-30.3" font-family="Times,serif" font-size="14.00">1</text>
</g>
<!-- 40&#45;&gt;52 -->
<g id="edge33" class="edge">
<title>40&#45;&gt;52</title>
<path fill="none" stroke="black" d="M2189.74,-88.41C2186.65,-80.1 2182.84,-69.85 2179.39,-60.56"/>
<polygon fill="black" stroke="black" points="2182.6,-59.14 2175.84,-50.99 2176.04,-61.58 2182.6,-59.14"/>
</g>
<!-- 526 -->
<g id="node52" class="node">
<title>526</title>
<ellipse fill="#b9d3ee" stroke="black" cx="2221.9" cy="-34" rx="16.8" ry="18"/>
<text text-anchor="middle" x="2221.9" y="-30.3" font-family="Times,serif" font-size="14.00">5</text>
</g>
<!-- 40&#45;&gt;526 -->
<g id="edge57" class="edge">
<title>40&#45;&gt;526</title>
<path fill="none" stroke="black" d="M2202.06,-88.41C2205.15,-80.1 2208.96,-69.85 2212.41,-60.56"/>
<polygon fill="black" stroke="black" points="2215.76,-61.58 2215.96,-50.99 2209.2,-59.14 2215.76,-61.58"/>
</g>
<!-- 527 -->
<g id="node53" class="node">
<title>527</title>
<ellipse fill="#b9d3ee" stroke="black" cx="2273.9" cy="-34" rx="16.8" ry="18"/>
<text text-anchor="middle" x="2273.9" y="-30.3" font-family="Times,serif" font-size="14.00">6</text>
</g>
<!-- 40&#45;&gt;527 -->
<g id="edge58" class="edge">
<title>40&#45;&gt;527</title>
<path fill="none" stroke="black" d="M2210.57,-91.83C2222.7,-80.94 2240.07,-65.36 2253.54,-53.27"/>
<polygon fill="black" stroke="black" points="2256.25,-55.54 2261.35,-46.26 2251.57,-50.33 2256.25,-55.54"/>
</g>
<!-- 528 -->
<g id="node54" class="node">
<title>528</title>
<ellipse fill="#b9d3ee" stroke="black" cx="2325.9" cy="-34" rx="16.8" ry="18"/>
<text text-anchor="middle" x="2325.9" y="-30.3" font-family="Times,serif" font-size="14.00">7</text>
</g>
<!-- 40&#45;&gt;528 -->
<g id="edge59" class="edge">
<title>40&#45;&gt;528</title>
<path fill="none" stroke="black" d="M2215.01,-96.03C2236.13,-85.94 2270.97,-68.76 2299.9,-52 2301.03,-51.35 2302.17,-50.66 2303.33,-49.96"/>
<polygon fill="black" stroke="black" points="2305.46,-52.76 2312.04,-44.46 2301.72,-46.84 2305.46,-52.76"/>
</g>
<!-- 532 -->
<g id="node58" class="node">
<title>532</title>
<ellipse fill="#b9d3ee" stroke="black" cx="2111.9" cy="-34" rx="23" ry="18"/>
<text text-anchor="middle" x="2111.9" y="-30.3" font-family="Times,serif" font-size="14.00">16</text>
</g>
<!-- 40&#45;&gt;532 -->
<g id="edge63" class="edge">
<title>40&#45;&gt;532</title>
<path fill="none" stroke="black" d="M2180.49,-92.16C2167.74,-81.54 2149.44,-66.28 2134.95,-54.21"/>
<polygon fill="black" stroke="black" points="2136.85,-51.24 2126.93,-47.52 2132.37,-56.61 2136.85,-51.24"/>
</g>
<!-- 56 -->
<g id="node32" class="node">
<title>56</title>
<ellipse fill="#b9d3ee" stroke="black" cx="598.9" cy="-34" rx="16.8" ry="18"/>
<text text-anchor="middle" x="598.9" y="-30.3" font-family="Times,serif" font-size="14.00">1</text>
</g>
<!-- 41&#45;&gt;56 -->
<g id="edge37" class="edge">
<title>41&#45;&gt;56</title>
<path fill="none" stroke="black" d="M686.19,-93.75C668.56,-81.89 640.69,-63.13 621.2,-50.01"/>
<polygon fill="black" stroke="black" points="623.15,-47.1 612.9,-44.42 619.24,-52.91 623.15,-47.1"/>
</g>
<!-- 521 -->
<g id="node47" class="node">
<title>521</title>
<ellipse fill="#b9d3ee" stroke="black" cx="650.9" cy="-34" rx="16.8" ry="18"/>
<text text-anchor="middle" x="650.9" y="-30.3" font-family="Times,serif" font-size="14.00">3</text>
</g>
<!-- 41&#45;&gt;521 -->
<g id="edge52" class="edge">
<title>41&#45;&gt;521</title>
<path fill="none" stroke="black" d="M691.87,-90.15C684.72,-80.53 675.28,-67.82 667.26,-57.02"/>
<polygon fill="black" stroke="black" points="669.98,-54.81 661.2,-48.87 664.36,-58.99 669.98,-54.81"/>
</g>
<!-- 522 -->
<g id="node48" class="node">
<title>522</title>
<ellipse fill="#b9d3ee" stroke="black" cx="702.9" cy="-34" rx="16.8" ry="18"/>
<text text-anchor="middle" x="702.9" y="-30.3" font-family="Times,serif" font-size="14.00">3</text>
</g>
<!-- 41&#45;&gt;522 -->
<g id="edge53" class="edge">
<title>41&#45;&gt;522</title>
<path fill="none" stroke="black" d="M702.9,-87.7C702.9,-79.98 702.9,-70.71 702.9,-62.11"/>
<polygon fill="black" stroke="black" points="706.4,-62.1 702.9,-52.1 699.4,-62.1 706.4,-62.1"/>
</g>
<!-- 531 -->
<g id="node57" class="node">
<title>531</title>
<ellipse fill="#b9d3ee" stroke="black" cx="760.9" cy="-34" rx="23" ry="18"/>
<text text-anchor="middle" x="760.9" y="-30.3" font-family="Times,serif" font-size="14.00">15</text>
</g>
<!-- 41&#45;&gt;531 -->
<g id="edge62" class="edge">
<title>41&#45;&gt;531</title>
<path fill="none" stroke="black" d="M714.92,-90.5C722.85,-80.92 733.4,-68.19 742.39,-57.34"/>
<polygon fill="black" stroke="black" points="745.21,-59.42 748.9,-49.49 739.82,-54.95 745.21,-59.42"/>
</g>
<!-- 536 -->
<g id="node62" class="node">
<title>536</title>
<ellipse fill="#b9d3ee" stroke="black" cx="540.9" cy="-34" rx="23" ry="18"/>
<text text-anchor="middle" x="540.9" y="-30.3" font-family="Times,serif" font-size="14.00">49</text>
</g>
<!-- 41&#45;&gt;536 -->
<g id="edge67" class="edge">
<title>41&#45;&gt;536</title>
<path fill="none" stroke="black" d="M682.81,-97.54C657.03,-87.79 611.09,-69.87 572.9,-52 571.33,-51.27 569.73,-50.49 568.13,-49.7"/>
<polygon fill="black" stroke="black" points="569.51,-46.48 559.01,-45.03 566.32,-52.71 569.51,-46.48"/>
</g>
<!-- 511 -->
<g id="node37" class="node">
<title>511</title>
<ellipse fill="#b9d3ee" stroke="black" cx="1795.9" cy="-34" rx="16.8" ry="18"/>
<text text-anchor="middle" x="1795.9" y="-30.3" font-family="Times,serif" font-size="14.00">1</text>
</g>
<!-- 42&#45;&gt;511 -->
<g id="edge42" class="edge">
<title>42&#45;&gt;511</title>
<path fill="none" stroke="black" d="M1618.03,-98.65C1655.89,-90.69 1719.16,-75.21 1769.9,-52 1771.08,-51.46 1772.28,-50.87 1773.47,-50.24"/>
<polygon fill="black" stroke="black" points="1775.5,-53.1 1782.31,-44.98 1771.93,-47.08 1775.5,-53.1"/>
</g>
<!-- 512 -->
<g id="node38" class="node">
<title>512</title>
<ellipse fill="#b9d3ee" stroke="black" cx="1411.9" cy="-34" rx="16.8" ry="18"/>
<text text-anchor="middle" x="1411.9" y="-30.3" font-family="Times,serif" font-size="14.00">2</text>
</g>
<!-- 42&#45;&gt;512 -->
<g id="edge43" class="edge">
<title>42&#45;&gt;512</title>
<path fill="none" stroke="black" d="M1554.49,-96.32C1524.16,-87.13 1476.62,-71.31 1437.9,-52 1436.73,-51.42 1435.55,-50.79 1434.37,-50.14"/>
<polygon fill="black" stroke="black" points="1435.94,-47 1425.58,-44.8 1432.3,-52.98 1435.94,-47"/>
</g>
<!-- 519 -->
<g id="node45" class="node">
<title>519</title>
<ellipse fill="#b9d3ee" stroke="black" cx="1463.9" cy="-34" rx="16.8" ry="18"/>
<text text-anchor="middle" x="1463.9" y="-30.3" font-family="Times,serif" font-size="14.00">3</text>
</g>
<!-- 42&#45;&gt;519 -->
<g id="edge50" class="edge">
<title>42&#45;&gt;519</title>
<path fill="none" stroke="black" d="M1561.21,-92.38C1541.83,-81.92 1513.82,-66.47 1489.9,-52 1488.78,-51.32 1487.64,-50.63 1486.5,-49.91"/>
<polygon fill="black" stroke="black" points="1488.13,-46.8 1477.82,-44.36 1484.35,-52.7 1488.13,-46.8"/>
</g>
<!-- 533 -->
<g id="node59" class="node">
<title>533</title>
<ellipse fill="#b9d3ee" stroke="black" cx="1521.9" cy="-34" rx="23" ry="18"/>
<text text-anchor="middle" x="1521.9" y="-30.3" font-family="Times,serif" font-size="14.00">19</text>
</g>
<!-- 42&#45;&gt;533 -->
<g id="edge64" class="edge">
<title>42&#45;&gt;533</title>
<path fill="none" stroke="black" d="M1570.6,-89.12C1562.04,-79.6 1551.03,-67.37 1541.64,-56.94"/>
<polygon fill="black" stroke="black" points="1544.14,-54.48 1534.85,-49.39 1538.94,-59.17 1544.14,-54.48"/>
</g>
<!-- 537 -->
<g id="node63" class="node">
<title>537</title>
<ellipse fill="#b9d3ee" stroke="black" cx="1584.9" cy="-34" rx="23" ry="18"/>
<text text-anchor="middle" x="1584.9" y="-30.3" font-family="Times,serif" font-size="14.00">52</text>
</g>
<!-- 42&#45;&gt;537 -->
<g id="edge68" class="edge">
<title>42&#45;&gt;537</title>
<path fill="none" stroke="black" d="M1584.9,-87.7C1584.9,-79.98 1584.9,-70.71 1584.9,-62.11"/>
<polygon fill="black" stroke="black" points="1588.4,-62.1 1584.9,-52.1 1581.4,-62.1 1588.4,-62.1"/>
</g>
<!-- 538 -->
<g id="node64" class="node">
<title>538</title>
<ellipse fill="#b9d3ee" stroke="black" cx="1647.9" cy="-34" rx="23" ry="18"/>
<text text-anchor="middle" x="1647.9" y="-30.3" font-family="Times,serif" font-size="14.00">60</text>
</g>
<!-- 42&#45;&gt;538 -->
<g id="edge69" class="edge">
<title>42&#45;&gt;538</title>
<path fill="none" stroke="black" d="M1599.19,-89.12C1607.76,-79.6 1618.77,-67.37 1628.15,-56.94"/>
<polygon fill="black" stroke="black" points="1630.86,-59.17 1634.95,-49.39 1625.65,-54.48 1630.86,-59.17"/>
</g>
<!-- 542 -->
<g id="node68" class="node">
<title>542</title>
<ellipse fill="#b9d3ee" stroke="black" cx="1724.9" cy="-34" rx="36" ry="18"/>
<text text-anchor="middle" x="1724.9" y="-30.3" font-family="Times,serif" font-size="14.00">253</text>
</g>
<!-- 42&#45;&gt;542 -->
<g id="edge73" class="edge">
<title>42&#45;&gt;542</title>
<path fill="none" stroke="black" d="M1609.61,-92.65C1632.3,-81.3 1666.12,-64.39 1691.27,-51.82"/>
<polygon fill="black" stroke="black" points="1693.06,-54.83 1700.44,-47.23 1689.93,-48.57 1693.06,-54.83"/>
</g>
<!-- 50 -->
<g id="node26" class="node">
<title>50</title>
<ellipse fill="#b9d3ee" stroke="black" cx="378.9" cy="-34" rx="16.8" ry="18"/>
<text text-anchor="middle" x="378.9" y="-30.3" font-family="Times,serif" font-size="14.00">1</text>
</g>
<!-- 43&#45;&gt;50 -->
<g id="edge31" class="edge">
<title>43&#45;&gt;50</title>
<path fill="none" stroke="black" d="M291.44,-91.34C308.21,-80.67 332.08,-65.45 352.9,-52 353.99,-51.29 355.11,-50.57 356.25,-49.83"/>
<polygon fill="black" stroke="black" points="358.42,-52.6 364.88,-44.2 354.59,-46.73 358.42,-52.6"/>
</g>
<!-- 58 -->
<g id="node34" class="node">
<title>58</title>
<ellipse fill="#b9d3ee" stroke="black" cx="430.9" cy="-34" rx="16.8" ry="18"/>
<text text-anchor="middle" x="430.9" y="-30.3" font-family="Times,serif" font-size="14.00">1</text>
</g>
<!-- 43&#45;&gt;58 -->
<g id="edge39" class="edge">
<title>43&#45;&gt;58</title>
<path fill="none" stroke="black" d="M299.36,-95.4C327.23,-85.86 369.88,-70.08 404.9,-52 406.06,-51.4 407.23,-50.76 408.4,-50.1"/>
<polygon fill="black" stroke="black" points="410.49,-52.93 417.18,-44.72 406.83,-46.96 410.49,-52.93"/>
</g>
<!-- 513 -->
<g id="node39" class="node">
<title>513</title>
<ellipse fill="#b9d3ee" stroke="black" cx="482.9" cy="-34" rx="16.8" ry="18"/>
<text text-anchor="middle" x="482.9" y="-30.3" font-family="Times,serif" font-size="14.00">2</text>
</g>
<!-- 43&#45;&gt;513 -->
<g id="edge44" class="edge">
<title>43&#45;&gt;513</title>
<path fill="none" stroke="black" d="M303.05,-98.78C341.28,-90.9 405.47,-75.44 456.9,-52 458.09,-51.46 459.28,-50.87 460.47,-50.24"/>
<polygon fill="black" stroke="black" points="462.5,-53.11 469.31,-44.99 458.93,-47.09 462.5,-53.11"/>
</g>
<!-- 514 -->
<g id="node40" class="node">
<title>514</title>
<ellipse fill="#b9d3ee" stroke="black" cx="16.9" cy="-34" rx="16.8" ry="18"/>
<text text-anchor="middle" x="16.9" y="-30.3" font-family="Times,serif" font-size="14.00">2</text>
</g>
<!-- 43&#45;&gt;514 -->
<g id="edge45" class="edge">
<title>43&#45;&gt;514</title>
<path fill="none" stroke="black" d="M235.27,-100.75C189.71,-94.31 107.83,-79.77 42.9,-52 41.7,-51.49 40.49,-50.92 39.3,-50.31"/>
<polygon fill="black" stroke="black" points="40.82,-47.15 30.43,-45.12 37.29,-53.19 40.82,-47.15"/>
</g>
<!-- 517 -->
<g id="node43" class="node">
<title>517</title>
<ellipse fill="#b9d3ee" stroke="black" cx="68.9" cy="-34" rx="16.8" ry="18"/>
<text text-anchor="middle" x="68.9" y="-30.3" font-family="Times,serif" font-size="14.00">3</text>
</g>
<!-- 43&#45;&gt;517 -->
<g id="edge48" class="edge">
<title>43&#45;&gt;517</title>
<path fill="none" stroke="black" d="M237.27,-98.07C201.34,-89.76 142.36,-74.15 94.9,-52 93.72,-51.45 92.53,-50.85 91.34,-50.22"/>
<polygon fill="black" stroke="black" points="92.89,-47.06 82.51,-44.94 89.3,-53.07 92.89,-47.06"/>
</g>
<!-- 518 -->
<g id="node44" class="node">
<title>518</title>
<ellipse fill="#b9d3ee" stroke="black" cx="120.9" cy="-34" rx="16.8" ry="18"/>
<text text-anchor="middle" x="120.9" y="-30.3" font-family="Times,serif" font-size="14.00">3</text>
</g>
<!-- 43&#45;&gt;518 -->
<g id="edge49" class="edge">
<title>43&#45;&gt;518</title>
<path fill="none" stroke="black" d="M241.9,-94.53C216.55,-84.68 178.44,-68.95 146.9,-52 145.75,-51.38 144.59,-50.73 143.42,-50.05"/>
<polygon fill="black" stroke="black" points="145.01,-46.92 134.66,-44.63 141.32,-52.87 145.01,-46.92"/>
</g>
<!-- 529 -->
<g id="node55" class="node">
<title>529</title>
<ellipse fill="#b9d3ee" stroke="black" cx="172.9" cy="-34" rx="16.8" ry="18"/>
<text text-anchor="middle" x="172.9" y="-30.3" font-family="Times,serif" font-size="14.00">8</text>
</g>
<!-- 43&#45;&gt;529 -->
<g id="edge60" class="edge">
<title>43&#45;&gt;529</title>
<path fill="none" stroke="black" d="M250.27,-90.83C234.29,-79.31 211.75,-63.04 195.12,-51.03"/>
<polygon fill="black" stroke="black" points="196.72,-47.87 186.56,-44.86 192.62,-53.55 196.72,-47.87"/>
</g>
<!-- 530 -->
<g id="node56" class="node">
<title>530</title>
<ellipse fill="#b9d3ee" stroke="black" cx="230.9" cy="-34" rx="23" ry="18"/>
<text text-anchor="middle" x="230.9" y="-30.3" font-family="Times,serif" font-size="14.00">15</text>
</g>
<!-- 43&#45;&gt;530 -->
<g id="edge61" class="edge">
<title>43&#45;&gt;530</title>
<path fill="none" stroke="black" d="M260.66,-88.41C255.93,-79.92 250.07,-69.41 244.81,-59.96"/>
<polygon fill="black" stroke="black" points="247.73,-58.02 239.81,-50.99 241.62,-61.43 247.73,-58.02"/>
</g>
<!-- 544 -->
<g id="node70" class="node">
<title>544</title>
<ellipse fill="#b9d3ee" stroke="black" cx="307.9" cy="-34" rx="36" ry="18"/>
<text text-anchor="middle" x="307.9" y="-30.3" font-family="Times,serif" font-size="14.00">304</text>
</g>
<!-- 43&#45;&gt;544 -->
<g id="edge75" class="edge">
<title>43&#45;&gt;544</title>
<path fill="none" stroke="black" d="M278.9,-88.41C283.45,-80.04 289.06,-69.71 294.13,-60.37"/>
<polygon fill="black" stroke="black" points="297.26,-61.93 298.96,-51.47 291.11,-58.59 297.26,-61.93"/>
</g>
<!-- 53 -->
<g id="node29" class="node">
<title>53</title>
<ellipse fill="#b9d3ee" stroke="black" cx="818.9" cy="-34" rx="16.8" ry="18"/>
<text text-anchor="middle" x="818.9" y="-30.3" font-family="Times,serif" font-size="14.00">1</text>
</g>
<!-- 44&#45;&gt;53 -->
<g id="edge34" class="edge">
<title>44&#45;&gt;53</title>
<path fill="none" stroke="black" d="M1044,-101.04C997.2,-94.85 912.2,-80.53 844.9,-52 843.7,-51.49 842.49,-50.93 841.29,-50.32"/>
<polygon fill="black" stroke="black" points="842.82,-47.16 832.42,-45.14 839.29,-53.2 842.82,-47.16"/>
</g>
<!-- 54 -->
<g id="node30" class="node">
<title>54</title>
<ellipse fill="#b9d3ee" stroke="black" cx="870.9" cy="-34" rx="16.8" ry="18"/>
<text text-anchor="middle" x="870.9" y="-30.3" font-family="Times,serif" font-size="14.00">1</text>
</g>
<!-- 44&#45;&gt;54 -->
<g id="edge35" class="edge">
<title>44&#45;&gt;54</title>
<path fill="none" stroke="black" d="M1045.97,-98.49C1008.69,-90.43 946.68,-74.9 896.9,-52 895.71,-51.45 894.52,-50.86 893.33,-50.23"/>
<polygon fill="black" stroke="black" points="894.88,-47.08 884.49,-44.97 891.29,-53.09 894.88,-47.08"/>
</g>
<!-- 55 -->
<g id="node31" class="node">
<title>55</title>
<ellipse fill="#b9d3ee" stroke="black" cx="922.9" cy="-34" rx="16.8" ry="18"/>
<text text-anchor="middle" x="922.9" y="-30.3" font-family="Times,serif" font-size="14.00">1</text>
</g>
<!-- 44&#45;&gt;55 -->
<g id="edge36" class="edge">
<title>44&#45;&gt;55</title>
<path fill="none" stroke="black" d="M1050.04,-95.05C1023.22,-85.38 982.46,-69.61 948.9,-52 947.74,-51.39 946.57,-50.75 945.4,-50.08"/>
<polygon fill="black" stroke="black" points="946.98,-46.95 936.63,-44.68 943.31,-52.91 946.98,-46.95"/>
</g>
<!-- 59 -->
<g id="node35" class="node">
<title>59</title>
<ellipse fill="#b9d3ee" stroke="black" cx="974.9" cy="-34" rx="16.8" ry="18"/>
<text text-anchor="middle" x="974.9" y="-30.3" font-family="Times,serif" font-size="14.00">1</text>
</g>
<!-- 44&#45;&gt;59 -->
<g id="edge40" class="edge">
<title>44&#45;&gt;59</title>
<path fill="none" stroke="black" d="M1058.35,-91.17C1040.81,-79.36 1015.62,-62.41 997.51,-50.22"/>
<polygon fill="black" stroke="black" points="999.01,-47.01 988.76,-44.33 995.1,-52.82 999.01,-47.01"/>
</g>
<!-- 510 -->
<g id="node36" class="node">
<title>510</title>
<ellipse fill="#b9d3ee" stroke="black" cx="1026.9" cy="-34" rx="16.8" ry="18"/>
<text text-anchor="middle" x="1026.9" y="-30.3" font-family="Times,serif" font-size="14.00">1</text>
</g>
<!-- 44&#45;&gt;510 -->
<g id="edge41" class="edge">
<title>44&#45;&gt;510</title>
<path fill="none" stroke="black" d="M1066.84,-88.76C1059.81,-79.3 1050.84,-67.23 1043.19,-56.93"/>
<polygon fill="black" stroke="black" points="1045.91,-54.73 1037.14,-48.79 1040.29,-58.9 1045.91,-54.73"/>
</g>
<!-- 516 -->
<g id="node42" class="node">
<title>516</title>
<ellipse fill="#b9d3ee" stroke="black" cx="1078.9" cy="-34" rx="16.8" ry="18"/>
<text text-anchor="middle" x="1078.9" y="-30.3" font-family="Times,serif" font-size="14.00">2</text>
</g>
<!-- 44&#45;&gt;516 -->
<g id="edge47" class="edge">
<title>44&#45;&gt;516</title>
<path fill="none" stroke="black" d="M1078.9,-87.7C1078.9,-79.98 1078.9,-70.71 1078.9,-62.11"/>
<polygon fill="black" stroke="black" points="1082.4,-62.1 1078.9,-52.1 1075.4,-62.1 1082.4,-62.1"/>
</g>
<!-- 525 -->
<g id="node51" class="node">
<title>525</title>
<ellipse fill="#b9d3ee" stroke="black" cx="1130.9" cy="-34" rx="16.8" ry="18"/>
<text text-anchor="middle" x="1130.9" y="-30.3" font-family="Times,serif" font-size="14.00">5</text>
</g>
<!-- 44&#45;&gt;525 -->
<g id="edge56" class="edge">
<title>44&#45;&gt;525</title>
<path fill="none" stroke="black" d="M1090.96,-88.76C1097.99,-79.3 1106.95,-67.23 1114.61,-56.93"/>
<polygon fill="black" stroke="black" points="1117.5,-58.9 1120.66,-48.79 1111.88,-54.73 1117.5,-58.9"/>
</g>
<!-- 535 -->
<g id="node61" class="node">
<title>535</title>
<ellipse fill="#b9d3ee" stroke="black" cx="1188.9" cy="-34" rx="23" ry="18"/>
<text text-anchor="middle" x="1188.9" y="-30.3" font-family="Times,serif" font-size="14.00">48</text>
</g>
<!-- 44&#45;&gt;535 -->
<g id="edge66" class="edge">
<title>44&#45;&gt;535</title>
<path fill="none" stroke="black" d="M1100.37,-91.34C1118.29,-79.93 1143.89,-63.64 1162.95,-51.51"/>
<polygon fill="black" stroke="black" points="1164.91,-54.42 1171.46,-46.1 1161.15,-48.51 1164.91,-54.42"/>
</g>
<!-- 540 -->
<g id="node66" class="node">
<title>540</title>
<ellipse fill="#b9d3ee" stroke="black" cx="1257.9" cy="-34" rx="28.7" ry="18"/>
<text text-anchor="middle" x="1257.9" y="-30.3" font-family="Times,serif" font-size="14.00">104</text>
</g>
<!-- 44&#45;&gt;540 -->
<g id="edge71" class="edge">
<title>44&#45;&gt;540</title>
<path fill="none" stroke="black" d="M1107.7,-94.95C1136.56,-84.72 1182.14,-68.11 1220.9,-52 1222.71,-51.25 1224.56,-50.46 1226.43,-49.65"/>
<polygon fill="black" stroke="black" points="1228,-52.78 1235.71,-45.52 1225.15,-46.39 1228,-52.78"/>
</g>
<!-- 541 -->
<g id="node67" class="node">
<title>541</title>
<ellipse fill="#b9d3ee" stroke="black" cx="1340.9" cy="-34" rx="36" ry="18"/>
<text text-anchor="middle" x="1340.9" y="-30.3" font-family="Times,serif" font-size="14.00">242</text>
</g>
<!-- 44&#45;&gt;541 -->
<g id="edge72" class="edge">
<title>44&#45;&gt;541</title>
<path fill="none" stroke="black" d="M1111.59,-98.32C1154.36,-89.28 1231.44,-71.97 1295.9,-52 1298.5,-51.19 1301.17,-50.32 1303.85,-49.4"/>
<polygon fill="black" stroke="black" points="1305.23,-52.62 1313.48,-45.96 1302.88,-46.03 1305.23,-52.62"/>
</g>
<!-- 51 -->
<g id="node27" class="node">
<title>51</title>
<ellipse fill="#b9d3ee" stroke="black" cx="2531.9" cy="-34" rx="16.8" ry="18"/>
<text text-anchor="middle" x="2531.9" y="-30.3" font-family="Times,serif" font-size="14.00">1</text>
</g>
<!-- 45&#45;&gt;51 -->
<g id="edge32" class="edge">
<title>45&#45;&gt;51</title>
<path fill="none" stroke="black" d="M2504.43,-88.41C2508.92,-79.68 2514.51,-68.81 2519.47,-59.16"/>
<polygon fill="black" stroke="black" points="2522.7,-60.53 2524.16,-50.04 2516.48,-57.33 2522.7,-60.53"/>
</g>
<!-- 57 -->
<g id="node33" class="node">
<title>57</title>
<ellipse fill="#b9d3ee" stroke="black" cx="2583.9" cy="-34" rx="16.8" ry="18"/>
<text text-anchor="middle" x="2583.9" y="-30.3" font-family="Times,serif" font-size="14.00">1</text>
</g>
<!-- 45&#45;&gt;57 -->
<g id="edge38" class="edge">
<title>45&#45;&gt;57</title>
<path fill="none" stroke="black" d="M2514.56,-90.15C2528.65,-78.95 2547.99,-63.56 2562.67,-51.89"/>
<polygon fill="black" stroke="black" points="2565.05,-54.47 2570.69,-45.5 2560.69,-48.99 2565.05,-54.47"/>
</g>
<!-- 520 -->
<g id="node46" class="node">
<title>520</title>
<ellipse fill="#b9d3ee" stroke="black" cx="2635.9" cy="-34" rx="16.8" ry="18"/>
<text text-anchor="middle" x="2635.9" y="-30.3" font-family="Times,serif" font-size="14.00">3</text>
</g>
<!-- 45&#45;&gt;520 -->
<g id="edge51" class="edge">
<title>45&#45;&gt;520</title>
<path fill="none" stroke="black" d="M2522.7,-93.84C2546.15,-83.78 2580.9,-68.11 2609.9,-52 2611.04,-51.37 2612.2,-50.7 2613.36,-50.01"/>
<polygon fill="black" stroke="black" points="2615.47,-52.82 2622.09,-44.55 2611.76,-46.89 2615.47,-52.82"/>
</g>
<!-- 524 -->
<g id="node50" class="node">
<title>524</title>
<ellipse fill="#b9d3ee" stroke="black" cx="2687.9" cy="-34" rx="16.8" ry="18"/>
<text text-anchor="middle" x="2687.9" y="-30.3" font-family="Times,serif" font-size="14.00">5</text>
</g>
<!-- 45&#45;&gt;524 -->
<g id="edge55" class="edge">
<title>45&#45;&gt;524</title>
<path fill="none" stroke="black" d="M2527.76,-97.56C2561.91,-88.98 2617.23,-73.25 2661.9,-52 2663.08,-51.44 2664.26,-50.83 2665.45,-50.19"/>
<polygon fill="black" stroke="black" points="2667.5,-53.05 2674.27,-44.9 2663.9,-47.04 2667.5,-53.05"/>
</g>
<!-- 534 -->
<g id="node60" class="node">
<title>534</title>
<ellipse fill="#b9d3ee" stroke="black" cx="2383.9" cy="-34" rx="23" ry="18"/>
<text text-anchor="middle" x="2383.9" y="-30.3" font-family="Times,serif" font-size="14.00">20</text>
</g>
<!-- 45&#45;&gt;534 -->
<g id="edge65" class="edge">
<title>45&#45;&gt;534</title>
<path fill="none" stroke="black" d="M2474.3,-91.5C2455.98,-80.05 2429.62,-63.58 2410.09,-51.37"/>
<polygon fill="black" stroke="black" points="2411.72,-48.26 2401.38,-45.93 2408.01,-54.2 2411.72,-48.26"/>
</g>
<!-- 545 -->
<g id="node71" class="node">
<title>545</title>
<ellipse fill="#b9d3ee" stroke="black" cx="2460.9" cy="-34" rx="36" ry="18"/>
<text text-anchor="middle" x="2460.9" y="-30.3" font-family="Times,serif" font-size="14.00">333</text>
</g>
<!-- 45&#45;&gt;545 -->
<g id="edge76" class="edge">
<title>45&#45;&gt;545</title>
<path fill="none" stroke="black" d="M2487.6,-88.41C2483.52,-80.25 2478.51,-70.22 2473.93,-61.07"/>
<polygon fill="black" stroke="black" points="2476.98,-59.34 2469.38,-51.96 2470.72,-62.47 2476.98,-59.34"/>
</g>
<!-- 515 -->
<g id="node41" class="node">
<title>515</title>
<ellipse fill="#b9d3ee" stroke="black" cx="1847.9" cy="-34" rx="16.8" ry="18"/>
<text text-anchor="middle" x="1847.9" y="-30.3" font-family="Times,serif" font-size="14.00">2</text>
</g>
<!-- 46&#45;&gt;515 -->
<g id="edge46" class="edge">
<title>46&#45;&gt;515</title>
<path fill="none" stroke="black" d="M1887.84,-88.76C1880.81,-79.3 1871.84,-67.23 1864.19,-56.93"/>
<polygon fill="black" stroke="black" points="1866.91,-54.73 1858.14,-48.79 1861.29,-58.9 1866.91,-54.73"/>
</g>
<!-- 523 -->
<g id="node49" class="node">
<title>523</title>
<ellipse fill="#b9d3ee" stroke="black" cx="1899.9" cy="-34" rx="16.8" ry="18"/>
<text text-anchor="middle" x="1899.9" y="-30.3" font-family="Times,serif" font-size="14.00">4</text>
</g>
<!-- 46&#45;&gt;523 -->
<g id="edge54" class="edge">
<title>46&#45;&gt;523</title>
<path fill="none" stroke="black" d="M1899.9,-87.7C1899.9,-79.98 1899.9,-70.71 1899.9,-62.11"/>
<polygon fill="black" stroke="black" points="1903.4,-62.1 1899.9,-52.1 1896.4,-62.1 1903.4,-62.1"/>
</g>
<!-- 539 -->
<g id="node65" class="node">
<title>539</title>
<ellipse fill="#b9d3ee" stroke="black" cx="1957.9" cy="-34" rx="23" ry="18"/>
<text text-anchor="middle" x="1957.9" y="-30.3" font-family="Times,serif" font-size="14.00">91</text>
</g>
<!-- 46&#45;&gt;539 -->
<g id="edge70" class="edge">
<title>46&#45;&gt;539</title>
<path fill="none" stroke="black" d="M1913.06,-89.12C1920.87,-79.69 1930.88,-67.61 1939.47,-57.25"/>
<polygon fill="black" stroke="black" points="1942.29,-59.33 1945.97,-49.39 1936.9,-54.86 1942.29,-59.33"/>
</g>
<!-- 543 -->
<g id="node69" class="node">
<title>543</title>
<ellipse fill="#b9d3ee" stroke="black" cx="2034.9" cy="-34" rx="36" ry="18"/>
<text text-anchor="middle" x="2034.9" y="-30.3" font-family="Times,serif" font-size="14.00">299</text>
</g>
<!-- 46&#45;&gt;543 -->
<g id="edge74" class="edge">
<title>46&#45;&gt;543</title>
<path fill="none" stroke="black" d="M1924.03,-92.49C1945.59,-81.31 1977.39,-64.82 2001.41,-52.37"/>
<polygon fill="black" stroke="black" points="2003.25,-55.35 2010.52,-47.64 2000.03,-49.14 2003.25,-55.35"/>
</g>
<!-- legend_5 -->
<g id="node72" class="node">
<title>legend_5</title>
<polygon fill="#b9d3ee" stroke="black" points="2943.4,-52 2722.4,-52 2722.4,-16 2943.4,-16 2943.4,-52"/>
<text text-anchor="middle" x="2832.9" y="-30.3" font-family="Times,serif" font-size="14.00">DT=6 ST=1 Similarity=0.47</text>
</g>
<!-- legend_4&#45;&gt;legend_5 -->
<g id="edge77" class="edge">
<title>legend_4&#45;&gt;legend_5</title>
<path fill="none" stroke="black" d="M2832.9,-87.7C2832.9,-79.98 2832.9,-70.71 2832.9,-62.11"/>
<polygon fill="black" stroke="black" points="2836.4,-62.1 2832.9,-52.1 2829.4,-62.1 2836.4,-62.1"/>
</g>
</g>
</svg>
