<?xml version="1.0" encoding="UTF-8" standalone="no"?>
<!DOCTYPE svg PUBLIC "-//W3C//DTD SVG 1.1//EN"
 "http://www.w3.org/Graphics/SVG/1.1/DTD/svg11.dtd">
<!-- Generated by graphviz version 2.43.0 (0)
 -->
<!-- Title: %3 Pages: 1 -->
<svg width="3116pt" height="497pt"
 viewBox="0.00 0.00 3115.75 497.00" xmlns="http://www.w3.org/2000/svg" xmlns:xlink="http://www.w3.org/1999/xlink">
<g id="graph0" class="graph" transform="scale(1 1) rotate(0) translate(4 493)">
<title>%3</title>
<polygon fill="white" stroke="transparent" points="-4,4 -4,-493 3111.75,-493 3111.75,4 -4,4"/>
<text text-anchor="middle" x="1553.87" y="-473.8" font-family="Times,serif" font-size="14.00">ConsTree</text>
<text text-anchor="middle" x="1553.87" y="-458.8" font-family="Times,serif" font-size="14.00">Tree Quality = 1</text>
<g id="clust1" class="cluster">
<title>cluster</title>
<polygon fill="none" stroke="black" points="2863.75,-8 2863.75,-443 3099.75,-443 3099.75,-8 2863.75,-8"/>
<text text-anchor="middle" x="2981.75" y="-427.8" font-family="Times,serif" font-size="14.00">Legend</text>
</g>
<!-- 00 -->
<g id="node1" class="node">
<title>00</title>
<ellipse fill="#b9d3ee" stroke="black" cx="1357.75" cy="-394" rx="180" ry="18"/>
<text text-anchor="middle" x="1357.75" y="-390.3" font-family="Times,serif" font-size="14.00">1220</text>
</g>
<!-- 10 -->
<g id="node4" class="node">
<title>10</title>
<ellipse fill="#b9d3ee" stroke="black" cx="1294.75" cy="-322" rx="72" ry="18"/>
<text text-anchor="middle" x="1294.75" y="-318.3" font-family="Times,serif" font-size="14.00">470</text>
</g>
<!-- 00&#45;&gt;10 -->
<g id="edge1" class="edge">
<title>00&#45;&gt;10</title>
<path fill="none" stroke="black" d="M1342.5,-376.05C1334.76,-367.46 1325.22,-356.86 1316.71,-347.4"/>
<polygon fill="black" stroke="black" points="1319.15,-344.88 1309.86,-339.79 1313.95,-349.56 1319.15,-344.88"/>
</g>
<!-- 11 -->
<g id="node5" class="node">
<title>11</title>
<ellipse fill="#b9d3ee" stroke="black" cx="1492.75" cy="-322" rx="108" ry="18"/>
<text text-anchor="middle" x="1492.75" y="-318.3" font-family="Times,serif" font-size="14.00">776</text>
</g>
<!-- 00&#45;&gt;11 -->
<g id="edge2" class="edge">
<title>00&#45;&gt;11</title>
<path fill="none" stroke="black" d="M1390.08,-376.23C1408.67,-366.6 1432.19,-354.4 1452.03,-344.11"/>
<polygon fill="black" stroke="black" points="1453.88,-347.1 1461.14,-339.39 1450.65,-340.88 1453.88,-347.1"/>
</g>
<!-- 01 -->
<g id="node2" class="node">
<title>01</title>
<ellipse fill="#b9d3ee" stroke="black" cx="1694.75" cy="-394" rx="108" ry="18"/>
<text text-anchor="middle" x="1694.75" y="-390.3" font-family="Times,serif" font-size="14.00">780</text>
</g>
<!-- 01&#45;&gt;11 -->
<g id="edge3" class="edge">
<title>01&#45;&gt;11</title>
<path fill="none" stroke="black" d="M1649.92,-377.46C1619.58,-366.95 1579.33,-353 1547.16,-341.86"/>
<polygon fill="black" stroke="black" points="1548.05,-338.46 1537.45,-338.49 1545.76,-345.07 1548.05,-338.46"/>
</g>
<!-- 12 -->
<g id="node6" class="node">
<title>12</title>
<ellipse fill="#b9d3ee" stroke="black" cx="1726.75" cy="-322" rx="108" ry="18"/>
<text text-anchor="middle" x="1726.75" y="-318.3" font-family="Times,serif" font-size="14.00">754</text>
</g>
<!-- 01&#45;&gt;12 -->
<g id="edge4" class="edge">
<title>01&#45;&gt;12</title>
<path fill="none" stroke="black" d="M1702.66,-375.7C1706.3,-367.73 1710.7,-358.1 1714.74,-349.26"/>
<polygon fill="black" stroke="black" points="1717.95,-350.65 1718.93,-340.1 1711.59,-347.74 1717.95,-350.65"/>
</g>
<!-- legend_0 -->
<g id="node3" class="node">
<title>legend_0</title>
<polygon fill="#b9d3ee" stroke="black" points="3092.25,-412 2871.25,-412 2871.25,-376 3092.25,-376 3092.25,-412"/>
<text text-anchor="middle" x="2981.75" y="-390.3" font-family="Times,serif" font-size="14.00">DT=1 ST=1 Similarity=0.48</text>
</g>
<!-- legend_1 -->
<g id="node7" class="node">
<title>legend_1</title>
<polygon fill="#b9d3ee" stroke="black" points="3092.25,-340 2871.25,-340 2871.25,-304 3092.25,-304 3092.25,-340"/>
<text text-anchor="middle" x="2981.75" y="-318.3" font-family="Times,serif" font-size="14.00">DT=2 ST=1 Similarity=0.62</text>
</g>
<!-- legend_0&#45;&gt;legend_1 -->
<g id="edge5" class="edge">
<title>legend_0&#45;&gt;legend_1</title>
<path fill="none" stroke="black" d="M2981.75,-375.7C2981.75,-367.98 2981.75,-358.71 2981.75,-350.11"/>
<polygon fill="black" stroke="black" points="2985.25,-350.1 2981.75,-340.1 2978.25,-350.1 2985.25,-350.1"/>
</g>
<!-- 20 -->
<g id="node8" class="node">
<title>20</title>
<ellipse fill="#b9d3ee" stroke="black" cx="1663.75" cy="-250" rx="36" ry="18"/>
<text text-anchor="middle" x="1663.75" y="-246.3" font-family="Times,serif" font-size="14.00">409</text>
</g>
<!-- 10&#45;&gt;20 -->
<g id="edge6" class="edge">
<title>10&#45;&gt;20</title>
<path fill="none" stroke="black" d="M1346.95,-309.57C1356.51,-307.61 1366.41,-305.67 1375.75,-304 1483.22,-284.78 1513.08,-295.45 1618.75,-268 1621.55,-267.27 1624.42,-266.43 1627.29,-265.52"/>
<polygon fill="black" stroke="black" points="1628.6,-268.76 1636.92,-262.2 1626.33,-262.14 1628.6,-268.76"/>
</g>
<!-- 21 -->
<g id="node9" class="node">
<title>21</title>
<ellipse fill="#b9d3ee" stroke="black" cx="1501.75" cy="-250" rx="108" ry="18"/>
<text text-anchor="middle" x="1501.75" y="-246.3" font-family="Times,serif" font-size="14.00">763</text>
</g>
<!-- 10&#45;&gt;21 -->
<g id="edge9" class="edge">
<title>10&#45;&gt;21</title>
<path fill="none" stroke="black" d="M1335.64,-307.17C1367.42,-296.43 1411.79,-281.42 1446.69,-269.62"/>
<polygon fill="black" stroke="black" points="1447.91,-272.9 1456.26,-266.38 1445.66,-266.27 1447.91,-272.9"/>
</g>
<!-- 22 -->
<g id="node10" class="node">
<title>22</title>
<ellipse fill="#b9d3ee" stroke="black" cx="1249.75" cy="-250" rx="36" ry="18"/>
<text text-anchor="middle" x="1249.75" y="-246.3" font-family="Times,serif" font-size="14.00">428</text>
</g>
<!-- 10&#45;&gt;22 -->
<g id="edge11" class="edge">
<title>10&#45;&gt;22</title>
<path fill="none" stroke="black" d="M1283.85,-304.05C1278.41,-295.59 1271.73,-285.19 1265.72,-275.84"/>
<polygon fill="black" stroke="black" points="1268.58,-273.83 1260.23,-267.31 1262.69,-277.61 1268.58,-273.83"/>
</g>
<!-- 23 -->
<g id="node11" class="node">
<title>23</title>
<ellipse fill="#b9d3ee" stroke="black" cx="1339.75" cy="-250" rx="36" ry="18"/>
<text text-anchor="middle" x="1339.75" y="-246.3" font-family="Times,serif" font-size="14.00">400</text>
</g>
<!-- 10&#45;&gt;23 -->
<g id="edge12" class="edge">
<title>10&#45;&gt;23</title>
<path fill="none" stroke="black" d="M1305.64,-304.05C1311.08,-295.59 1317.77,-285.19 1323.78,-275.84"/>
<polygon fill="black" stroke="black" points="1326.8,-277.61 1329.26,-267.31 1320.91,-273.83 1326.8,-277.61"/>
</g>
<!-- 11&#45;&gt;20 -->
<g id="edge7" class="edge">
<title>11&#45;&gt;20</title>
<path fill="none" stroke="black" d="M1531.55,-305.12C1560.29,-293.35 1599.17,-277.43 1627.33,-265.91"/>
<polygon fill="black" stroke="black" points="1628.87,-269.06 1636.8,-262.03 1626.22,-262.58 1628.87,-269.06"/>
</g>
<!-- 11&#45;&gt;23 -->
<g id="edge13" class="edge">
<title>11&#45;&gt;23</title>
<path fill="none" stroke="black" d="M1457.65,-304.94C1432.88,-293.61 1399.83,-278.49 1375.02,-267.14"/>
<polygon fill="black" stroke="black" points="1376.17,-263.81 1365.62,-262.84 1373.25,-270.18 1376.17,-263.81"/>
</g>
<!-- 12&#45;&gt;20 -->
<g id="edge8" class="edge">
<title>12&#45;&gt;20</title>
<path fill="none" stroke="black" d="M1711.5,-304.05C1703.45,-295.12 1693.46,-284.01 1684.7,-274.28"/>
<polygon fill="black" stroke="black" points="1687.29,-271.92 1677.99,-266.83 1682.08,-276.6 1687.29,-271.92"/>
</g>
<!-- 12&#45;&gt;21 -->
<g id="edge10" class="edge">
<title>12&#45;&gt;21</title>
<path fill="none" stroke="black" d="M1678.2,-305.9C1643.58,-295.12 1596.84,-280.58 1560.17,-269.18"/>
<polygon fill="black" stroke="black" points="1561.18,-265.83 1550.59,-266.2 1559.1,-272.51 1561.18,-265.83"/>
</g>
<!-- legend_2 -->
<g id="node12" class="node">
<title>legend_2</title>
<polygon fill="#b9d3ee" stroke="black" points="3092.25,-268 2871.25,-268 2871.25,-232 3092.25,-232 3092.25,-268"/>
<text text-anchor="middle" x="2981.75" y="-246.3" font-family="Times,serif" font-size="14.00">DT=3 ST=1 Similarity=0.67</text>
</g>
<!-- legend_1&#45;&gt;legend_2 -->
<g id="edge14" class="edge">
<title>legend_1&#45;&gt;legend_2</title>
<path fill="none" stroke="black" d="M2981.75,-303.7C2981.75,-295.98 2981.75,-286.71 2981.75,-278.11"/>
<polygon fill="black" stroke="black" points="2985.25,-278.1 2981.75,-268.1 2978.25,-278.1 2985.25,-278.1"/>
</g>
<!-- 31 -->
<g id="node14" class="node">
<title>31</title>
<polygon fill="darkseagreen" stroke="black" points="1699.75,-196 1627.75,-196 1627.75,-160 1699.75,-160 1699.75,-196"/>
<text text-anchor="middle" x="1663.75" y="-174.3" font-family="Times,serif" font-size="14.00">395</text>
</g>
<!-- 20&#45;&gt;31 -->
<g id="edge17" class="edge">
<title>20&#45;&gt;31</title>
<path fill="none" stroke="black" d="M1663.75,-231.7C1663.75,-223.98 1663.75,-214.71 1663.75,-206.11"/>
<polygon fill="black" stroke="black" points="1667.25,-206.1 1663.75,-196.1 1660.25,-206.1 1667.25,-206.1"/>
</g>
<!-- 32 -->
<g id="node15" class="node">
<title>32</title>
<polygon fill="darkseagreen" stroke="black" points="2271.75,-196 2199.75,-196 2199.75,-160 2271.75,-160 2271.75,-196"/>
<text text-anchor="middle" x="2235.75" y="-174.3" font-family="Times,serif" font-size="14.00">403</text>
</g>
<!-- 20&#45;&gt;32 -->
<g id="edge19" class="edge">
<title>20&#45;&gt;32</title>
<path fill="none" stroke="black" d="M1698.24,-244.78C1796.52,-232.75 2078.04,-198.3 2189.5,-184.66"/>
<polygon fill="black" stroke="black" points="2190.25,-188.09 2199.75,-183.41 2189.4,-181.15 2190.25,-188.09"/>
</g>
<!-- 34 -->
<g id="node17" class="node">
<title>34</title>
<polygon fill="darkseagreen" stroke="black" points="1537.75,-196 1465.75,-196 1465.75,-160 1537.75,-160 1537.75,-196"/>
<text text-anchor="middle" x="1501.75" y="-174.3" font-family="Times,serif" font-size="14.00">403</text>
</g>
<!-- 20&#45;&gt;34 -->
<g id="edge22" class="edge">
<title>20&#45;&gt;34</title>
<path fill="none" stroke="black" d="M1637.36,-237.6C1613.03,-227.09 1576.41,-211.26 1547.35,-198.7"/>
<polygon fill="black" stroke="black" points="1548.38,-195.34 1537.81,-194.58 1545.6,-201.76 1548.38,-195.34"/>
</g>
<!-- 30 -->
<g id="node13" class="node">
<title>30</title>
<polygon fill="darkseagreen" stroke="black" points="1288.75,-196 1216.75,-196 1216.75,-160 1288.75,-160 1288.75,-196"/>
<text text-anchor="middle" x="1252.75" y="-174.3" font-family="Times,serif" font-size="14.00">386</text>
</g>
<!-- 21&#45;&gt;30 -->
<g id="edge15" class="edge">
<title>21&#45;&gt;30</title>
<path fill="none" stroke="black" d="M1449.25,-234.24C1404.73,-221.73 1341.5,-203.95 1298.9,-191.97"/>
<polygon fill="black" stroke="black" points="1299.64,-188.55 1289.07,-189.21 1297.75,-195.29 1299.64,-188.55"/>
</g>
<!-- 21&#45;&gt;34 -->
<g id="edge23" class="edge">
<title>21&#45;&gt;34</title>
<path fill="none" stroke="black" d="M1501.75,-231.7C1501.75,-223.98 1501.75,-214.71 1501.75,-206.11"/>
<polygon fill="black" stroke="black" points="1505.25,-206.1 1501.75,-196.1 1498.25,-206.1 1505.25,-206.1"/>
</g>
<!-- 22&#45;&gt;30 -->
<g id="edge16" class="edge">
<title>22&#45;&gt;30</title>
<path fill="none" stroke="black" d="M1250.49,-231.7C1250.82,-223.98 1251.22,-214.71 1251.59,-206.11"/>
<polygon fill="black" stroke="black" points="1255.08,-206.25 1252.01,-196.1 1248.09,-205.95 1255.08,-206.25"/>
</g>
<!-- 33 -->
<g id="node16" class="node">
<title>33</title>
<polygon fill="darkseagreen" stroke="black" points="1198.75,-196 1126.75,-196 1126.75,-160 1198.75,-160 1198.75,-196"/>
<text text-anchor="middle" x="1162.75" y="-174.3" font-family="Times,serif" font-size="14.00">413</text>
</g>
<!-- 22&#45;&gt;33 -->
<g id="edge20" class="edge">
<title>22&#45;&gt;33</title>
<path fill="none" stroke="black" d="M1231.3,-234.15C1219.81,-224.92 1204.8,-212.83 1191.75,-202.33"/>
<polygon fill="black" stroke="black" points="1193.91,-199.58 1183.93,-196.04 1189.52,-205.04 1193.91,-199.58"/>
</g>
<!-- 22&#45;&gt;34 -->
<g id="edge24" class="edge">
<title>22&#45;&gt;34</title>
<path fill="none" stroke="black" d="M1277.19,-238.08C1282.95,-235.95 1289.01,-233.81 1294.75,-232 1349.32,-214.76 1413.3,-199.05 1455.52,-189.29"/>
<polygon fill="black" stroke="black" points="1456.54,-192.65 1465.51,-187 1454.98,-185.82 1456.54,-192.65"/>
</g>
<!-- 23&#45;&gt;31 -->
<g id="edge18" class="edge">
<title>23&#45;&gt;31</title>
<path fill="none" stroke="black" d="M1366.62,-237.98C1372.53,-235.8 1378.8,-233.67 1384.75,-232 1465.39,-209.29 1561.9,-193.38 1617.68,-185.24"/>
<polygon fill="black" stroke="black" points="1618.21,-188.7 1627.61,-183.82 1617.22,-181.78 1618.21,-188.7"/>
</g>
<!-- 23&#45;&gt;33 -->
<g id="edge21" class="edge">
<title>23&#45;&gt;33</title>
<path fill="none" stroke="black" d="M1312.48,-238.22C1284.77,-227.26 1241.34,-210.08 1208.38,-197.04"/>
<polygon fill="black" stroke="black" points="1209.53,-193.74 1198.95,-193.32 1206.96,-200.25 1209.53,-193.74"/>
</g>
<!-- legend_3 -->
<g id="node18" class="node">
<title>legend_3</title>
<polygon fill="darkseagreen" stroke="black" points="3092.25,-196 2871.25,-196 2871.25,-160 3092.25,-160 3092.25,-196"/>
<text text-anchor="middle" x="2981.75" y="-174.3" font-family="Times,serif" font-size="14.00">DT=4 ST=1 Similarity=0.68</text>
</g>
<!-- legend_2&#45;&gt;legend_3 -->
<g id="edge25" class="edge">
<title>legend_2&#45;&gt;legend_3</title>
<path fill="none" stroke="black" d="M2981.75,-231.7C2981.75,-223.98 2981.75,-214.71 2981.75,-206.11"/>
<polygon fill="black" stroke="black" points="2985.25,-206.1 2981.75,-196.1 2978.25,-206.1 2985.25,-206.1"/>
</g>
<!-- 42 -->
<g id="node21" class="node">
<title>42</title>
<ellipse fill="#b9d3ee" stroke="black" cx="872.75" cy="-106" rx="23" ry="18"/>
<text text-anchor="middle" x="872.75" y="-102.3" font-family="Times,serif" font-size="14.00">29</text>
</g>
<!-- 30&#45;&gt;42 -->
<g id="edge28" class="edge">
<title>30&#45;&gt;42</title>
<path fill="none" stroke="black" d="M1216.61,-162.62C1213.63,-161.66 1210.65,-160.77 1207.75,-160 1099.02,-131.19 966.02,-115.86 905.52,-109.94"/>
<polygon fill="black" stroke="black" points="905.71,-106.44 895.42,-108.97 905.04,-113.41 905.71,-106.44"/>
</g>
<!-- 45 -->
<g id="node24" class="node">
<title>45</title>
<ellipse fill="#b9d3ee" stroke="black" cx="1253.75" cy="-106" rx="36" ry="18"/>
<text text-anchor="middle" x="1253.75" y="-102.3" font-family="Times,serif" font-size="14.00">412</text>
</g>
<!-- 30&#45;&gt;45 -->
<g id="edge32" class="edge">
<title>30&#45;&gt;45</title>
<path fill="none" stroke="black" d="M1253,-159.7C1253.11,-151.98 1253.24,-142.71 1253.36,-134.11"/>
<polygon fill="black" stroke="black" points="1256.86,-134.15 1253.5,-124.1 1249.86,-134.05 1256.86,-134.15"/>
</g>
<!-- 47 -->
<g id="node26" class="node">
<title>47</title>
<ellipse fill="#b9d3ee" stroke="black" cx="628.75" cy="-106" rx="36" ry="18"/>
<text text-anchor="middle" x="628.75" y="-102.3" font-family="Times,serif" font-size="14.00">345</text>
</g>
<!-- 30&#45;&gt;47 -->
<g id="edge35" class="edge">
<title>30&#45;&gt;47</title>
<path fill="none" stroke="black" d="M1216.66,-162.41C1213.67,-161.5 1210.68,-160.67 1207.75,-160 1181.83,-154.03 806.03,-121.96 674.12,-110.82"/>
<polygon fill="black" stroke="black" points="674.21,-107.31 663.95,-109.96 673.62,-114.29 674.21,-107.31"/>
</g>
<!-- 43 -->
<g id="node22" class="node">
<title>43</title>
<ellipse fill="#b9d3ee" stroke="black" cx="2076.75" cy="-106" rx="36" ry="18"/>
<text text-anchor="middle" x="2076.75" y="-102.3" font-family="Times,serif" font-size="14.00">378</text>
</g>
<!-- 31&#45;&gt;43 -->
<g id="edge29" class="edge">
<title>31&#45;&gt;43</title>
<path fill="none" stroke="black" d="M1700.04,-170.85C1776.01,-157.97 1951.54,-128.22 2033.33,-114.36"/>
<polygon fill="black" stroke="black" points="2034.02,-117.79 2043.3,-112.67 2032.85,-110.89 2034.02,-117.79"/>
</g>
<!-- 44 -->
<g id="node23" class="node">
<title>44</title>
<ellipse fill="#b9d3ee" stroke="black" cx="1663.75" cy="-106" rx="23" ry="18"/>
<text text-anchor="middle" x="1663.75" y="-102.3" font-family="Times,serif" font-size="14.00">20</text>
</g>
<!-- 31&#45;&gt;44 -->
<g id="edge31" class="edge">
<title>31&#45;&gt;44</title>
<path fill="none" stroke="black" d="M1663.75,-159.7C1663.75,-151.98 1663.75,-142.71 1663.75,-134.11"/>
<polygon fill="black" stroke="black" points="1667.25,-134.1 1663.75,-124.1 1660.25,-134.1 1667.25,-134.1"/>
</g>
<!-- 41 -->
<g id="node20" class="node">
<title>41</title>
<ellipse fill="#b9d3ee" stroke="black" cx="2758.75" cy="-106" rx="16.8" ry="18"/>
<text text-anchor="middle" x="2758.75" y="-102.3" font-family="Times,serif" font-size="14.00">3</text>
</g>
<!-- 32&#45;&gt;41 -->
<g id="edge27" class="edge">
<title>32&#45;&gt;41</title>
<path fill="none" stroke="black" d="M2272.11,-172.13C2371.19,-158.87 2644.33,-122.31 2731.58,-110.64"/>
<polygon fill="black" stroke="black" points="2732.28,-114.07 2741.72,-109.28 2731.35,-107.14 2732.28,-114.07"/>
</g>
<!-- 32&#45;&gt;43 -->
<g id="edge30" class="edge">
<title>32&#45;&gt;43</title>
<path fill="none" stroke="black" d="M2199.67,-161.12C2173.51,-149.6 2138.3,-134.1 2112.27,-122.64"/>
<polygon fill="black" stroke="black" points="2113.34,-119.29 2102.78,-118.46 2110.52,-125.69 2113.34,-119.29"/>
</g>
<!-- 46 -->
<g id="node25" class="node">
<title>46</title>
<ellipse fill="#b9d3ee" stroke="black" cx="2425.75" cy="-106" rx="36" ry="18"/>
<text text-anchor="middle" x="2425.75" y="-102.3" font-family="Times,serif" font-size="14.00">397</text>
</g>
<!-- 32&#45;&gt;46 -->
<g id="edge34" class="edge">
<title>32&#45;&gt;46</title>
<path fill="none" stroke="black" d="M2271.93,-163.67C2305.25,-151.39 2354.48,-133.26 2388.22,-120.83"/>
<polygon fill="black" stroke="black" points="2389.56,-124.06 2397.73,-117.32 2387.14,-117.5 2389.56,-124.06"/>
</g>
<!-- 48 -->
<g id="node27" class="node">
<title>48</title>
<ellipse fill="#b9d3ee" stroke="black" cx="280.75" cy="-106" rx="36" ry="18"/>
<text text-anchor="middle" x="280.75" y="-102.3" font-family="Times,serif" font-size="14.00">413</text>
</g>
<!-- 33&#45;&gt;48 -->
<g id="edge36" class="edge">
<title>33&#45;&gt;48</title>
<path fill="none" stroke="black" d="M1126.53,-174.13C986.63,-163.02 481.62,-122.94 326.43,-110.63"/>
<polygon fill="black" stroke="black" points="326.54,-107.12 316.3,-109.82 325.99,-114.1 326.54,-107.12"/>
</g>
<!-- 40 -->
<g id="node19" class="node">
<title>40</title>
<ellipse fill="#b9d3ee" stroke="black" cx="1503.75" cy="-106" rx="16.8" ry="18"/>
<text text-anchor="middle" x="1503.75" y="-102.3" font-family="Times,serif" font-size="14.00">3</text>
</g>
<!-- 34&#45;&gt;40 -->
<g id="edge26" class="edge">
<title>34&#45;&gt;40</title>
<path fill="none" stroke="black" d="M1502.24,-159.7C1502.46,-151.98 1502.73,-142.71 1502.97,-134.11"/>
<polygon fill="black" stroke="black" points="1506.47,-134.2 1503.26,-124.1 1499.48,-134 1506.47,-134.2"/>
</g>
<!-- 34&#45;&gt;45 -->
<g id="edge33" class="edge">
<title>34&#45;&gt;45</title>
<path fill="none" stroke="black" d="M1465.69,-166.82C1420.03,-153.94 1341.62,-131.8 1294.04,-118.37"/>
<polygon fill="black" stroke="black" points="1294.95,-114.99 1284.38,-115.65 1293.05,-121.73 1294.95,-114.99"/>
</g>
<!-- legend_4 -->
<g id="node28" class="node">
<title>legend_4</title>
<polygon fill="#b9d3ee" stroke="black" points="3092.25,-124 2871.25,-124 2871.25,-88 3092.25,-88 3092.25,-124"/>
<text text-anchor="middle" x="2981.75" y="-102.3" font-family="Times,serif" font-size="14.00">DT=5 ST=1 Similarity=0.68</text>
</g>
<!-- legend_3&#45;&gt;legend_4 -->
<g id="edge37" class="edge">
<title>legend_3&#45;&gt;legend_4</title>
<path fill="none" stroke="black" d="M2981.75,-159.7C2981.75,-151.98 2981.75,-142.71 2981.75,-134.11"/>
<polygon fill="black" stroke="black" points="2985.25,-134.1 2981.75,-124.1 2978.25,-134.1 2985.25,-134.1"/>
</g>
<!-- 523 -->
<g id="node52" class="node">
<title>523</title>
<ellipse fill="#b9d3ee" stroke="black" cx="1506.75" cy="-34" rx="16.8" ry="18"/>
<text text-anchor="middle" x="1506.75" y="-30.3" font-family="Times,serif" font-size="14.00">3</text>
</g>
<!-- 40&#45;&gt;523 -->
<g id="edge61" class="edge">
<title>40&#45;&gt;523</title>
<path fill="none" stroke="black" d="M1504.49,-87.7C1504.82,-79.98 1505.22,-70.71 1505.59,-62.11"/>
<polygon fill="black" stroke="black" points="1509.08,-62.25 1506.01,-52.1 1502.09,-61.95 1509.08,-62.25"/>
</g>
<!-- 51 -->
<g id="node30" class="node">
<title>51</title>
<ellipse fill="#b9d3ee" stroke="black" cx="2784.75" cy="-34" rx="16.8" ry="18"/>
<text text-anchor="middle" x="2784.75" y="-30.3" font-family="Times,serif" font-size="14.00">1</text>
</g>
<!-- 41&#45;&gt;51 -->
<g id="edge39" class="edge">
<title>41&#45;&gt;51</title>
<path fill="none" stroke="black" d="M2764.65,-89.12C2767.76,-80.73 2771.66,-70.24 2775.19,-60.73"/>
<polygon fill="black" stroke="black" points="2778.49,-61.9 2778.69,-51.31 2771.93,-59.46 2778.49,-61.9"/>
</g>
<!-- 53 -->
<g id="node32" class="node">
<title>53</title>
<ellipse fill="#b9d3ee" stroke="black" cx="2836.75" cy="-34" rx="16.8" ry="18"/>
<text text-anchor="middle" x="2836.75" y="-30.3" font-family="Times,serif" font-size="14.00">1</text>
</g>
<!-- 41&#45;&gt;53 -->
<g id="edge41" class="edge">
<title>41&#45;&gt;53</title>
<path fill="none" stroke="black" d="M2771.28,-93.75C2783.45,-82.83 2802.12,-66.07 2816.42,-53.24"/>
<polygon fill="black" stroke="black" points="2819.14,-55.5 2824.25,-46.22 2814.47,-50.29 2819.14,-55.5"/>
</g>
<!-- 54 -->
<g id="node33" class="node">
<title>54</title>
<ellipse fill="#b9d3ee" stroke="black" cx="2732.75" cy="-34" rx="16.8" ry="18"/>
<text text-anchor="middle" x="2732.75" y="-30.3" font-family="Times,serif" font-size="14.00">1</text>
</g>
<!-- 41&#45;&gt;54 -->
<g id="edge42" class="edge">
<title>41&#45;&gt;54</title>
<path fill="none" stroke="black" d="M2752.85,-89.12C2749.73,-80.73 2745.84,-70.24 2742.31,-60.73"/>
<polygon fill="black" stroke="black" points="2745.57,-59.46 2738.8,-51.31 2739.01,-61.9 2745.57,-59.46"/>
</g>
<!-- 55 -->
<g id="node34" class="node">
<title>55</title>
<ellipse fill="#b9d3ee" stroke="black" cx="988.75" cy="-34" rx="16.8" ry="18"/>
<text text-anchor="middle" x="988.75" y="-30.3" font-family="Times,serif" font-size="14.00">1</text>
</g>
<!-- 42&#45;&gt;55 -->
<g id="edge43" class="edge">
<title>42&#45;&gt;55</title>
<path fill="none" stroke="black" d="M890.83,-94.69C909.11,-84.18 938.1,-67.3 962.75,-52 963.86,-51.31 964.99,-50.6 966.13,-49.88"/>
<polygon fill="black" stroke="black" points="968.28,-52.66 974.79,-44.3 964.49,-46.77 968.28,-52.66"/>
</g>
<!-- 56 -->
<g id="node35" class="node">
<title>56</title>
<ellipse fill="#b9d3ee" stroke="black" cx="716.75" cy="-34" rx="16.8" ry="18"/>
<text text-anchor="middle" x="716.75" y="-30.3" font-family="Times,serif" font-size="14.00">1</text>
</g>
<!-- 42&#45;&gt;56 -->
<g id="edge44" class="edge">
<title>42&#45;&gt;56</title>
<path fill="none" stroke="black" d="M851.93,-97.92C825.79,-88.7 779.87,-71.47 742.75,-52 741.59,-51.39 740.42,-50.75 739.25,-50.08"/>
<polygon fill="black" stroke="black" points="740.83,-46.95 730.48,-44.68 737.16,-52.91 740.83,-46.95"/>
</g>
<!-- 513 -->
<g id="node42" class="node">
<title>513</title>
<ellipse fill="#b9d3ee" stroke="black" cx="768.75" cy="-34" rx="16.8" ry="18"/>
<text text-anchor="middle" x="768.75" y="-30.3" font-family="Times,serif" font-size="14.00">1</text>
</g>
<!-- 42&#45;&gt;513 -->
<g id="edge51" class="edge">
<title>42&#45;&gt;513</title>
<path fill="none" stroke="black" d="M856.04,-93.75C838.41,-81.89 810.54,-63.13 791.05,-50.01"/>
<polygon fill="black" stroke="black" points="793,-47.1 782.75,-44.42 789.09,-52.91 793,-47.1"/>
</g>
<!-- 524 -->
<g id="node53" class="node">
<title>524</title>
<ellipse fill="#b9d3ee" stroke="black" cx="820.75" cy="-34" rx="16.8" ry="18"/>
<text text-anchor="middle" x="820.75" y="-30.3" font-family="Times,serif" font-size="14.00">4</text>
</g>
<!-- 42&#45;&gt;524 -->
<g id="edge62" class="edge">
<title>42&#45;&gt;524</title>
<path fill="none" stroke="black" d="M861.72,-90.15C854.57,-80.53 845.13,-67.82 837.11,-57.02"/>
<polygon fill="black" stroke="black" points="839.83,-54.81 831.05,-48.87 834.21,-58.99 839.83,-54.81"/>
</g>
<!-- 528 -->
<g id="node57" class="node">
<title>528</title>
<ellipse fill="#b9d3ee" stroke="black" cx="872.75" cy="-34" rx="16.8" ry="18"/>
<text text-anchor="middle" x="872.75" y="-30.3" font-family="Times,serif" font-size="14.00">7</text>
</g>
<!-- 42&#45;&gt;528 -->
<g id="edge66" class="edge">
<title>42&#45;&gt;528</title>
<path fill="none" stroke="black" d="M872.75,-87.7C872.75,-79.98 872.75,-70.71 872.75,-62.11"/>
<polygon fill="black" stroke="black" points="876.25,-62.1 872.75,-52.1 869.25,-62.1 876.25,-62.1"/>
</g>
<!-- 535 -->
<g id="node64" class="node">
<title>535</title>
<ellipse fill="#b9d3ee" stroke="black" cx="930.75" cy="-34" rx="23" ry="18"/>
<text text-anchor="middle" x="930.75" y="-30.3" font-family="Times,serif" font-size="14.00">15</text>
</g>
<!-- 42&#45;&gt;535 -->
<g id="edge73" class="edge">
<title>42&#45;&gt;535</title>
<path fill="none" stroke="black" d="M884.77,-90.5C892.7,-80.92 903.25,-68.19 912.24,-57.34"/>
<polygon fill="black" stroke="black" points="915.06,-59.42 918.75,-49.49 909.67,-54.95 915.06,-59.42"/>
</g>
<!-- 50 -->
<g id="node29" class="node">
<title>50</title>
<ellipse fill="#b9d3ee" stroke="black" cx="2024.75" cy="-34" rx="16.8" ry="18"/>
<text text-anchor="middle" x="2024.75" y="-30.3" font-family="Times,serif" font-size="14.00">1</text>
</g>
<!-- 43&#45;&gt;50 -->
<g id="edge38" class="edge">
<title>43&#45;&gt;50</title>
<path fill="none" stroke="black" d="M2064.69,-88.76C2057.66,-79.3 2048.69,-67.23 2041.04,-56.93"/>
<polygon fill="black" stroke="black" points="2043.76,-54.73 2034.99,-48.79 2038.14,-58.9 2043.76,-54.73"/>
</g>
<!-- 510 -->
<g id="node39" class="node">
<title>510</title>
<ellipse fill="#b9d3ee" stroke="black" cx="2076.75" cy="-34" rx="16.8" ry="18"/>
<text text-anchor="middle" x="2076.75" y="-30.3" font-family="Times,serif" font-size="14.00">1</text>
</g>
<!-- 43&#45;&gt;510 -->
<g id="edge48" class="edge">
<title>43&#45;&gt;510</title>
<path fill="none" stroke="black" d="M2076.75,-87.7C2076.75,-79.98 2076.75,-70.71 2076.75,-62.11"/>
<polygon fill="black" stroke="black" points="2080.25,-62.1 2076.75,-52.1 2073.25,-62.1 2080.25,-62.1"/>
</g>
<!-- 511 -->
<g id="node40" class="node">
<title>511</title>
<ellipse fill="#b9d3ee" stroke="black" cx="2128.75" cy="-34" rx="16.8" ry="18"/>
<text text-anchor="middle" x="2128.75" y="-30.3" font-family="Times,serif" font-size="14.00">1</text>
</g>
<!-- 43&#45;&gt;511 -->
<g id="edge49" class="edge">
<title>43&#45;&gt;511</title>
<path fill="none" stroke="black" d="M2088.81,-88.76C2095.84,-79.3 2104.8,-67.23 2112.46,-56.93"/>
<polygon fill="black" stroke="black" points="2115.35,-58.9 2118.51,-48.79 2109.73,-54.73 2115.35,-58.9"/>
</g>
<!-- 517 -->
<g id="node46" class="node">
<title>517</title>
<ellipse fill="#b9d3ee" stroke="black" cx="2180.75" cy="-34" rx="16.8" ry="18"/>
<text text-anchor="middle" x="2180.75" y="-30.3" font-family="Times,serif" font-size="14.00">2</text>
</g>
<!-- 43&#45;&gt;517 -->
<g id="edge55" class="edge">
<title>43&#45;&gt;517</title>
<path fill="none" stroke="black" d="M2097.3,-91.17C2114.84,-79.36 2140.03,-62.41 2158.14,-50.22"/>
<polygon fill="black" stroke="black" points="2160.55,-52.82 2166.89,-44.33 2156.64,-47.01 2160.55,-52.82"/>
</g>
<!-- 518 -->
<g id="node47" class="node">
<title>518</title>
<ellipse fill="#b9d3ee" stroke="black" cx="2232.75" cy="-34" rx="16.8" ry="18"/>
<text text-anchor="middle" x="2232.75" y="-30.3" font-family="Times,serif" font-size="14.00">2</text>
</g>
<!-- 43&#45;&gt;518 -->
<g id="edge56" class="edge">
<title>43&#45;&gt;518</title>
<path fill="none" stroke="black" d="M2105.61,-95.05C2132.43,-85.38 2173.19,-69.61 2206.75,-52 2207.9,-51.39 2209.07,-50.75 2210.24,-50.08"/>
<polygon fill="black" stroke="black" points="2212.33,-52.91 2219.01,-44.68 2208.66,-46.95 2212.33,-52.91"/>
</g>
<!-- 529 -->
<g id="node58" class="node">
<title>529</title>
<ellipse fill="#b9d3ee" stroke="black" cx="1882.75" cy="-34" rx="16.8" ry="18"/>
<text text-anchor="middle" x="1882.75" y="-30.3" font-family="Times,serif" font-size="14.00">7</text>
</g>
<!-- 43&#45;&gt;529 -->
<g id="edge67" class="edge">
<title>43&#45;&gt;529</title>
<path fill="none" stroke="black" d="M2044.5,-97.63C2009.93,-89.09 1953.94,-73.4 1908.75,-52 1907.57,-51.44 1906.38,-50.84 1905.2,-50.2"/>
<polygon fill="black" stroke="black" points="1906.75,-47.05 1896.37,-44.91 1903.15,-53.05 1906.75,-47.05"/>
</g>
<!-- 547 -->
<g id="node76" class="node">
<title>547</title>
<ellipse fill="#b9d3ee" stroke="black" cx="1953.75" cy="-34" rx="36" ry="18"/>
<text text-anchor="middle" x="1953.75" y="-30.3" font-family="Times,serif" font-size="14.00">364</text>
</g>
<!-- 43&#45;&gt;547 -->
<g id="edge85" class="edge">
<title>43&#45;&gt;547</title>
<path fill="none" stroke="black" d="M2053.9,-92C2034.69,-81.07 2007.02,-65.32 1985.63,-53.14"/>
<polygon fill="black" stroke="black" points="1987.31,-50.07 1976.89,-48.17 1983.85,-56.16 1987.31,-50.07"/>
</g>
<!-- 52 -->
<g id="node31" class="node">
<title>52</title>
<ellipse fill="#b9d3ee" stroke="black" cx="1778.75" cy="-34" rx="16.8" ry="18"/>
<text text-anchor="middle" x="1778.75" y="-30.3" font-family="Times,serif" font-size="14.00">1</text>
</g>
<!-- 44&#45;&gt;52 -->
<g id="edge40" class="edge">
<title>44&#45;&gt;52</title>
<path fill="none" stroke="black" d="M1681.61,-94.66C1699.68,-84.13 1728.34,-67.24 1752.75,-52 1753.85,-51.31 1754.98,-50.6 1756.12,-49.87"/>
<polygon fill="black" stroke="black" points="1758.28,-52.65 1764.78,-44.28 1754.48,-46.77 1758.28,-52.65"/>
</g>
<!-- 515 -->
<g id="node44" class="node">
<title>515</title>
<ellipse fill="#b9d3ee" stroke="black" cx="1830.75" cy="-34" rx="16.8" ry="18"/>
<text text-anchor="middle" x="1830.75" y="-30.3" font-family="Times,serif" font-size="14.00">1</text>
</g>
<!-- 44&#45;&gt;515 -->
<g id="edge53" class="edge">
<title>44&#45;&gt;515</title>
<path fill="none" stroke="black" d="M1684.9,-98.66C1713.03,-89.86 1763.93,-72.7 1804.75,-52 1805.91,-51.41 1807.09,-50.78 1808.26,-50.12"/>
<polygon fill="black" stroke="black" points="1810.34,-52.96 1817.05,-44.76 1806.69,-46.98 1810.34,-52.96"/>
</g>
<!-- 516 -->
<g id="node45" class="node">
<title>516</title>
<ellipse fill="#b9d3ee" stroke="black" cx="1558.75" cy="-34" rx="16.8" ry="18"/>
<text text-anchor="middle" x="1558.75" y="-30.3" font-family="Times,serif" font-size="14.00">1</text>
</g>
<!-- 44&#45;&gt;516 -->
<g id="edge54" class="edge">
<title>44&#45;&gt;516</title>
<path fill="none" stroke="black" d="M1646.88,-93.75C1629.08,-81.89 1600.94,-63.13 1581.26,-50.01"/>
<polygon fill="black" stroke="black" points="1583.15,-47.06 1572.88,-44.42 1579.26,-52.88 1583.15,-47.06"/>
</g>
<!-- 520 -->
<g id="node49" class="node">
<title>520</title>
<ellipse fill="#b9d3ee" stroke="black" cx="1610.75" cy="-34" rx="16.8" ry="18"/>
<text text-anchor="middle" x="1610.75" y="-30.3" font-family="Times,serif" font-size="14.00">2</text>
</g>
<!-- 44&#45;&gt;520 -->
<g id="edge58" class="edge">
<title>44&#45;&gt;520</title>
<path fill="none" stroke="black" d="M1652.51,-90.15C1645.12,-80.4 1635.34,-67.48 1627.1,-56.6"/>
<polygon fill="black" stroke="black" points="1629.72,-54.26 1620.9,-48.4 1624.14,-58.49 1629.72,-54.26"/>
</g>
<!-- 521 -->
<g id="node50" class="node">
<title>521</title>
<ellipse fill="#b9d3ee" stroke="black" cx="1662.75" cy="-34" rx="16.8" ry="18"/>
<text text-anchor="middle" x="1662.75" y="-30.3" font-family="Times,serif" font-size="14.00">2</text>
</g>
<!-- 44&#45;&gt;521 -->
<g id="edge59" class="edge">
<title>44&#45;&gt;521</title>
<path fill="none" stroke="black" d="M1663.5,-87.7C1663.39,-79.98 1663.26,-70.71 1663.14,-62.11"/>
<polygon fill="black" stroke="black" points="1666.63,-62.05 1662.99,-52.1 1659.64,-62.15 1666.63,-62.05"/>
</g>
<!-- 533 -->
<g id="node62" class="node">
<title>533</title>
<ellipse fill="#b9d3ee" stroke="black" cx="1720.75" cy="-34" rx="23" ry="18"/>
<text text-anchor="middle" x="1720.75" y="-30.3" font-family="Times,serif" font-size="14.00">13</text>
</g>
<!-- 44&#45;&gt;533 -->
<g id="edge71" class="edge">
<title>44&#45;&gt;533</title>
<path fill="none" stroke="black" d="M1675.56,-90.5C1683.35,-80.92 1693.72,-68.19 1702.56,-57.34"/>
<polygon fill="black" stroke="black" points="1705.35,-59.45 1708.95,-49.49 1699.92,-55.03 1705.35,-59.45"/>
</g>
<!-- 59 -->
<g id="node38" class="node">
<title>59</title>
<ellipse fill="#b9d3ee" stroke="black" cx="1402.75" cy="-34" rx="16.8" ry="18"/>
<text text-anchor="middle" x="1402.75" y="-30.3" font-family="Times,serif" font-size="14.00">1</text>
</g>
<!-- 45&#45;&gt;59 -->
<g id="edge47" class="edge">
<title>45&#45;&gt;59</title>
<path fill="none" stroke="black" d="M1281.74,-94.53C1307.1,-84.68 1345.2,-68.95 1376.75,-52 1377.9,-51.38 1379.06,-50.73 1380.23,-50.05"/>
<polygon fill="black" stroke="black" points="1382.33,-52.87 1388.98,-44.63 1378.64,-46.92 1382.33,-52.87"/>
</g>
<!-- 514 -->
<g id="node43" class="node">
<title>514</title>
<ellipse fill="#b9d3ee" stroke="black" cx="1454.75" cy="-34" rx="16.8" ry="18"/>
<text text-anchor="middle" x="1454.75" y="-30.3" font-family="Times,serif" font-size="14.00">1</text>
</g>
<!-- 45&#45;&gt;514 -->
<g id="edge52" class="edge">
<title>45&#45;&gt;514</title>
<path fill="none" stroke="black" d="M1286.37,-98.07C1322.3,-89.76 1381.28,-74.15 1428.75,-52 1429.93,-51.45 1431.12,-50.85 1432.31,-50.22"/>
<polygon fill="black" stroke="black" points="1434.35,-53.07 1441.14,-44.94 1430.76,-47.06 1434.35,-53.07"/>
</g>
<!-- 519 -->
<g id="node48" class="node">
<title>519</title>
<ellipse fill="#b9d3ee" stroke="black" cx="1040.75" cy="-34" rx="16.8" ry="18"/>
<text text-anchor="middle" x="1040.75" y="-30.3" font-family="Times,serif" font-size="14.00">2</text>
</g>
<!-- 45&#45;&gt;519 -->
<g id="edge57" class="edge">
<title>45&#45;&gt;519</title>
<path fill="none" stroke="black" d="M1220.59,-98.78C1182.36,-90.9 1118.18,-75.44 1066.75,-52 1065.56,-51.46 1064.37,-50.87 1063.18,-50.24"/>
<polygon fill="black" stroke="black" points="1064.72,-47.09 1054.33,-44.99 1061.14,-53.11 1064.72,-47.09"/>
</g>
<!-- 525 -->
<g id="node54" class="node">
<title>525</title>
<ellipse fill="#b9d3ee" stroke="black" cx="1092.75" cy="-34" rx="16.8" ry="18"/>
<text text-anchor="middle" x="1092.75" y="-30.3" font-family="Times,serif" font-size="14.00">5</text>
</g>
<!-- 45&#45;&gt;525 -->
<g id="edge63" class="edge">
<title>45&#45;&gt;525</title>
<path fill="none" stroke="black" d="M1224.29,-95.4C1196.42,-85.86 1153.76,-70.08 1118.75,-52 1117.59,-51.4 1116.42,-50.76 1115.24,-50.1"/>
<polygon fill="black" stroke="black" points="1116.82,-46.96 1106.46,-44.72 1113.16,-52.93 1116.82,-46.96"/>
</g>
<!-- 526 -->
<g id="node55" class="node">
<title>526</title>
<ellipse fill="#b9d3ee" stroke="black" cx="1144.75" cy="-34" rx="16.8" ry="18"/>
<text text-anchor="middle" x="1144.75" y="-30.3" font-family="Times,serif" font-size="14.00">5</text>
</g>
<!-- 45&#45;&gt;526 -->
<g id="edge64" class="edge">
<title>45&#45;&gt;526</title>
<path fill="none" stroke="black" d="M1232.21,-91.34C1215.43,-80.67 1191.57,-65.45 1170.75,-52 1169.65,-51.29 1168.53,-50.57 1167.4,-49.83"/>
<polygon fill="black" stroke="black" points="1169.05,-46.73 1158.76,-44.2 1165.23,-52.6 1169.05,-46.73"/>
</g>
<!-- 531 -->
<g id="node60" class="node">
<title>531</title>
<ellipse fill="#b9d3ee" stroke="black" cx="1196.75" cy="-34" rx="16.8" ry="18"/>
<text text-anchor="middle" x="1196.75" y="-30.3" font-family="Times,serif" font-size="14.00">9</text>
</g>
<!-- 45&#45;&gt;531 -->
<g id="edge69" class="edge">
<title>45&#45;&gt;531</title>
<path fill="none" stroke="black" d="M1240.81,-89.12C1232.93,-79.44 1222.77,-66.95 1214.18,-56.41"/>
<polygon fill="black" stroke="black" points="1216.74,-54.01 1207.71,-48.47 1211.31,-58.43 1216.74,-54.01"/>
</g>
<!-- 534 -->
<g id="node63" class="node">
<title>534</title>
<ellipse fill="#b9d3ee" stroke="black" cx="1254.75" cy="-34" rx="23" ry="18"/>
<text text-anchor="middle" x="1254.75" y="-30.3" font-family="Times,serif" font-size="14.00">14</text>
</g>
<!-- 45&#45;&gt;534 -->
<g id="edge72" class="edge">
<title>45&#45;&gt;534</title>
<path fill="none" stroke="black" d="M1254,-87.7C1254.11,-79.98 1254.24,-70.71 1254.36,-62.11"/>
<polygon fill="black" stroke="black" points="1257.86,-62.15 1254.5,-52.1 1250.86,-62.05 1257.86,-62.15"/>
</g>
<!-- 548 -->
<g id="node77" class="node">
<title>548</title>
<ellipse fill="#b9d3ee" stroke="black" cx="1331.75" cy="-34" rx="36" ry="18"/>
<text text-anchor="middle" x="1331.75" y="-30.3" font-family="Times,serif" font-size="14.00">375</text>
</g>
<!-- 45&#45;&gt;548 -->
<g id="edge86" class="edge">
<title>45&#45;&gt;548</title>
<path fill="none" stroke="black" d="M1270.67,-89.81C1281.41,-80.18 1295.46,-67.56 1307.39,-56.86"/>
<polygon fill="black" stroke="black" points="1309.75,-59.44 1314.86,-50.16 1305.08,-54.23 1309.75,-59.44"/>
</g>
<!-- 57 -->
<g id="node36" class="node">
<title>57</title>
<ellipse fill="#b9d3ee" stroke="black" cx="2680.75" cy="-34" rx="16.8" ry="18"/>
<text text-anchor="middle" x="2680.75" y="-30.3" font-family="Times,serif" font-size="14.00">1</text>
</g>
<!-- 46&#45;&gt;57 -->
<g id="edge45" class="edge">
<title>46&#45;&gt;57</title>
<path fill="none" stroke="black" d="M2460.29,-100.86C2506.17,-94.5 2589.06,-80.02 2654.75,-52 2655.95,-51.49 2657.15,-50.92 2658.35,-50.31"/>
<polygon fill="black" stroke="black" points="2660.36,-53.2 2667.22,-45.13 2656.82,-47.15 2660.36,-53.2"/>
</g>
<!-- 58 -->
<g id="node37" class="node">
<title>58</title>
<ellipse fill="#b9d3ee" stroke="black" cx="2284.75" cy="-34" rx="16.8" ry="18"/>
<text text-anchor="middle" x="2284.75" y="-30.3" font-family="Times,serif" font-size="14.00">1</text>
</g>
<!-- 46&#45;&gt;58 -->
<g id="edge46" class="edge">
<title>46&#45;&gt;58</title>
<path fill="none" stroke="black" d="M2398.71,-93.88C2375.04,-83.83 2339.98,-68.18 2310.75,-52 2309.61,-51.37 2308.45,-50.7 2307.29,-50.02"/>
<polygon fill="black" stroke="black" points="2308.88,-46.89 2298.55,-44.56 2305.18,-52.83 2308.88,-46.89"/>
</g>
<!-- 527 -->
<g id="node56" class="node">
<title>527</title>
<ellipse fill="#b9d3ee" stroke="black" cx="2336.75" cy="-34" rx="16.8" ry="18"/>
<text text-anchor="middle" x="2336.75" y="-30.3" font-family="Times,serif" font-size="14.00">6</text>
</g>
<!-- 46&#45;&gt;527 -->
<g id="edge65" class="edge">
<title>46&#45;&gt;527</title>
<path fill="none" stroke="black" d="M2407.31,-90.5C2393.01,-79.25 2373.16,-63.64 2358.16,-51.84"/>
<polygon fill="black" stroke="black" points="2359.99,-48.83 2349.96,-45.39 2355.66,-54.33 2359.99,-48.83"/>
</g>
<!-- 532 -->
<g id="node61" class="node">
<title>532</title>
<ellipse fill="#b9d3ee" stroke="black" cx="2394.75" cy="-34" rx="23" ry="18"/>
<text text-anchor="middle" x="2394.75" y="-30.3" font-family="Times,serif" font-size="14.00">11</text>
</g>
<!-- 46&#45;&gt;532 -->
<g id="edge70" class="edge">
<title>46&#45;&gt;532</title>
<path fill="none" stroke="black" d="M2418.24,-88.05C2414.61,-79.85 2410.17,-69.83 2406.14,-60.71"/>
<polygon fill="black" stroke="black" points="2409.22,-59.03 2401.97,-51.31 2402.82,-61.87 2409.22,-59.03"/>
</g>
<!-- 538 -->
<g id="node67" class="node">
<title>538</title>
<ellipse fill="#b9d3ee" stroke="black" cx="2457.75" cy="-34" rx="23" ry="18"/>
<text text-anchor="middle" x="2457.75" y="-30.3" font-family="Times,serif" font-size="14.00">25</text>
</g>
<!-- 46&#45;&gt;538 -->
<g id="edge76" class="edge">
<title>46&#45;&gt;538</title>
<path fill="none" stroke="black" d="M2433.49,-88.05C2437.28,-79.77 2441.92,-69.62 2446.13,-60.42"/>
<polygon fill="black" stroke="black" points="2449.32,-61.86 2450.29,-51.31 2442.95,-58.95 2449.32,-61.86"/>
</g>
<!-- 543 -->
<g id="node72" class="node">
<title>543</title>
<ellipse fill="#b9d3ee" stroke="black" cx="2526.75" cy="-34" rx="28.7" ry="18"/>
<text text-anchor="middle" x="2526.75" y="-30.3" font-family="Times,serif" font-size="14.00">120</text>
</g>
<!-- 46&#45;&gt;543 -->
<g id="edge81" class="edge">
<title>46&#45;&gt;543</title>
<path fill="none" stroke="black" d="M2446.19,-90.83C2461.6,-80.15 2482.89,-65.4 2499.71,-53.74"/>
<polygon fill="black" stroke="black" points="2501.82,-56.54 2508.04,-47.96 2497.83,-50.78 2501.82,-56.54"/>
</g>
<!-- 545 -->
<g id="node74" class="node">
<title>545</title>
<ellipse fill="#b9d3ee" stroke="black" cx="2609.75" cy="-34" rx="36" ry="18"/>
<text text-anchor="middle" x="2609.75" y="-30.3" font-family="Times,serif" font-size="14.00">233</text>
</g>
<!-- 46&#45;&gt;545 -->
<g id="edge83" class="edge">
<title>46&#45;&gt;545</title>
<path fill="none" stroke="black" d="M2453.69,-94.37C2485.4,-82.31 2537.25,-62.58 2572.4,-49.21"/>
<polygon fill="black" stroke="black" points="2573.74,-52.44 2581.84,-45.62 2571.25,-45.9 2573.74,-52.44"/>
</g>
<!-- 522 -->
<g id="node51" class="node">
<title>522</title>
<ellipse fill="#b9d3ee" stroke="black" cx="664.75" cy="-34" rx="16.8" ry="18"/>
<text text-anchor="middle" x="664.75" y="-30.3" font-family="Times,serif" font-size="14.00">3</text>
</g>
<!-- 47&#45;&gt;522 -->
<g id="edge60" class="edge">
<title>47&#45;&gt;522</title>
<path fill="none" stroke="black" d="M637.28,-88.41C641.77,-79.68 647.36,-68.81 652.32,-59.16"/>
<polygon fill="black" stroke="black" points="655.55,-60.53 657.01,-50.04 649.33,-57.33 655.55,-60.53"/>
</g>
<!-- 540 -->
<g id="node69" class="node">
<title>540</title>
<ellipse fill="#b9d3ee" stroke="black" cx="516.75" cy="-34" rx="23" ry="18"/>
<text text-anchor="middle" x="516.75" y="-30.3" font-family="Times,serif" font-size="14.00">31</text>
</g>
<!-- 47&#45;&gt;540 -->
<g id="edge78" class="edge">
<title>47&#45;&gt;540</title>
<path fill="none" stroke="black" d="M607.15,-91.5C588.82,-80.05 562.47,-63.58 542.94,-51.37"/>
<polygon fill="black" stroke="black" points="544.57,-48.26 534.23,-45.93 540.86,-54.2 544.57,-48.26"/>
</g>
<!-- 546 -->
<g id="node75" class="node">
<title>546</title>
<ellipse fill="#b9d3ee" stroke="black" cx="593.75" cy="-34" rx="36" ry="18"/>
<text text-anchor="middle" x="593.75" y="-30.3" font-family="Times,serif" font-size="14.00">311</text>
</g>
<!-- 47&#45;&gt;546 -->
<g id="edge84" class="edge">
<title>47&#45;&gt;546</title>
<path fill="none" stroke="black" d="M620.45,-88.41C616.37,-80.25 611.36,-70.22 606.78,-61.07"/>
<polygon fill="black" stroke="black" points="609.83,-59.34 602.23,-51.96 603.57,-62.47 609.83,-59.34"/>
</g>
<!-- 512 -->
<g id="node41" class="node">
<title>512</title>
<ellipse fill="#b9d3ee" stroke="black" cx="280.75" cy="-34" rx="16.8" ry="18"/>
<text text-anchor="middle" x="280.75" y="-30.3" font-family="Times,serif" font-size="14.00">1</text>
</g>
<!-- 48&#45;&gt;512 -->
<g id="edge50" class="edge">
<title>48&#45;&gt;512</title>
<path fill="none" stroke="black" d="M280.75,-87.7C280.75,-79.98 280.75,-70.71 280.75,-62.11"/>
<polygon fill="black" stroke="black" points="284.25,-62.1 280.75,-52.1 277.25,-62.1 284.25,-62.1"/>
</g>
<!-- 530 -->
<g id="node59" class="node">
<title>530</title>
<ellipse fill="#b9d3ee" stroke="black" cx="332.75" cy="-34" rx="16.8" ry="18"/>
<text text-anchor="middle" x="332.75" y="-30.3" font-family="Times,serif" font-size="14.00">8</text>
</g>
<!-- 48&#45;&gt;530 -->
<g id="edge68" class="edge">
<title>48&#45;&gt;530</title>
<path fill="none" stroke="black" d="M292.81,-88.76C299.84,-79.3 308.8,-67.23 316.46,-56.93"/>
<polygon fill="black" stroke="black" points="319.35,-58.9 322.51,-48.79 313.73,-54.73 319.35,-58.9"/>
</g>
<!-- 536 -->
<g id="node65" class="node">
<title>536</title>
<ellipse fill="#b9d3ee" stroke="black" cx="390.75" cy="-34" rx="23" ry="18"/>
<text text-anchor="middle" x="390.75" y="-30.3" font-family="Times,serif" font-size="14.00">17</text>
</g>
<!-- 48&#45;&gt;536 -->
<g id="edge74" class="edge">
<title>48&#45;&gt;536</title>
<path fill="none" stroke="black" d="M302.22,-91.34C320.14,-79.93 345.74,-63.64 364.8,-51.51"/>
<polygon fill="black" stroke="black" points="366.75,-54.42 373.31,-46.1 363,-48.51 366.75,-54.42"/>
</g>
<!-- 537 -->
<g id="node66" class="node">
<title>537</title>
<ellipse fill="#b9d3ee" stroke="black" cx="453.75" cy="-34" rx="23" ry="18"/>
<text text-anchor="middle" x="453.75" y="-30.3" font-family="Times,serif" font-size="14.00">23</text>
</g>
<!-- 48&#45;&gt;537 -->
<g id="edge75" class="edge">
<title>48&#45;&gt;537</title>
<path fill="none" stroke="black" d="M310.07,-95.44C339.14,-85.65 384.71,-69.42 422.75,-52 424.11,-51.38 425.49,-50.72 426.88,-50.04"/>
<polygon fill="black" stroke="black" points="428.68,-53.05 435.94,-45.34 425.45,-46.83 428.68,-53.05"/>
</g>
<!-- 539 -->
<g id="node68" class="node">
<title>539</title>
<ellipse fill="#b9d3ee" stroke="black" cx="22.75" cy="-34" rx="23" ry="18"/>
<text text-anchor="middle" x="22.75" y="-30.3" font-family="Times,serif" font-size="14.00">26</text>
</g>
<!-- 48&#45;&gt;539 -->
<g id="edge77" class="edge">
<title>48&#45;&gt;539</title>
<path fill="none" stroke="black" d="M246.43,-99.98C201.21,-92.7 119.7,-77.24 53.75,-52 52.35,-51.47 50.94,-50.88 49.53,-50.25"/>
<polygon fill="black" stroke="black" points="50.9,-47.03 40.38,-45.75 47.8,-53.31 50.9,-47.03"/>
</g>
<!-- 541 -->
<g id="node70" class="node">
<title>541</title>
<ellipse fill="#b9d3ee" stroke="black" cx="85.75" cy="-34" rx="23" ry="18"/>
<text text-anchor="middle" x="85.75" y="-30.3" font-family="Times,serif" font-size="14.00">61</text>
</g>
<!-- 48&#45;&gt;541 -->
<g id="edge79" class="edge">
<title>48&#45;&gt;541</title>
<path fill="none" stroke="black" d="M249.58,-96.83C216.11,-87.62 161.67,-71.37 116.75,-52 115.37,-51.41 113.98,-50.77 112.58,-50.11"/>
<polygon fill="black" stroke="black" points="113.99,-46.9 103.49,-45.48 110.81,-53.14 113.99,-46.9"/>
</g>
<!-- 542 -->
<g id="node71" class="node">
<title>542</title>
<ellipse fill="#b9d3ee" stroke="black" cx="148.75" cy="-34" rx="23" ry="18"/>
<text text-anchor="middle" x="148.75" y="-30.3" font-family="Times,serif" font-size="14.00">62</text>
</g>
<!-- 48&#45;&gt;542 -->
<g id="edge80" class="edge">
<title>48&#45;&gt;542</title>
<path fill="none" stroke="black" d="M256.6,-92.49C236.1,-81.83 205.92,-66.04 179.75,-52 178.59,-51.38 177.41,-50.74 176.22,-50.1"/>
<polygon fill="black" stroke="black" points="177.53,-46.83 167.08,-45.12 174.19,-52.98 177.53,-46.83"/>
</g>
<!-- 544 -->
<g id="node73" class="node">
<title>544</title>
<ellipse fill="#b9d3ee" stroke="black" cx="217.75" cy="-34" rx="28.7" ry="18"/>
<text text-anchor="middle" x="217.75" y="-30.3" font-family="Times,serif" font-size="14.00">215</text>
</g>
<!-- 48&#45;&gt;544 -->
<g id="edge82" class="edge">
<title>48&#45;&gt;544</title>
<path fill="none" stroke="black" d="M266.45,-89.12C258.12,-79.86 247.47,-68.03 238.26,-57.79"/>
<polygon fill="black" stroke="black" points="240.85,-55.43 231.55,-50.34 235.64,-60.11 240.85,-55.43"/>
</g>
<!-- legend_5 -->
<g id="node78" class="node">
<title>legend_5</title>
<polygon fill="#b9d3ee" stroke="black" points="3092.25,-52 2871.25,-52 2871.25,-16 3092.25,-16 3092.25,-52"/>
<text text-anchor="middle" x="2981.75" y="-30.3" font-family="Times,serif" font-size="14.00">DT=6 ST=1 Similarity=0.53</text>
</g>
<!-- legend_4&#45;&gt;legend_5 -->
<g id="edge87" class="edge">
<title>legend_4&#45;&gt;legend_5</title>
<path fill="none" stroke="black" d="M2981.75,-87.7C2981.75,-79.98 2981.75,-70.71 2981.75,-62.11"/>
<polygon fill="black" stroke="black" points="2985.25,-62.1 2981.75,-52.1 2978.25,-62.1 2985.25,-62.1"/>
</g>
</g>
</svg>
