<?xml version="1.0" encoding="UTF-8" standalone="no"?>
<!DOCTYPE svg PUBLIC "-//W3C//DTD SVG 1.1//EN"
 "http://www.w3.org/Graphics/SVG/1.1/DTD/svg11.dtd">
<!-- Generated by graphviz version 2.43.0 (0)
 -->
<!-- Title: %3 Pages: 1 -->
<svg width="2616pt" height="497pt"
 viewBox="0.00 0.00 2615.90 497.00" xmlns="http://www.w3.org/2000/svg" xmlns:xlink="http://www.w3.org/1999/xlink">
<g id="graph0" class="graph" transform="scale(1 1) rotate(0) translate(4 493)">
<title>%3</title>
<polygon fill="white" stroke="transparent" points="-4,4 -4,-493 2611.9,-493 2611.9,4 -4,4"/>
<text text-anchor="middle" x="1303.95" y="-473.8" font-family="Times,serif" font-size="14.00">ConsTree</text>
<text text-anchor="middle" x="1303.95" y="-458.8" font-family="Times,serif" font-size="14.00">Tree Quality = 1</text>
<g id="clust1" class="cluster">
<title>cluster</title>
<polygon fill="none" stroke="black" points="2363.9,-8 2363.9,-443 2599.9,-443 2599.9,-8 2363.9,-8"/>
<text text-anchor="middle" x="2481.9" y="-427.8" font-family="Times,serif" font-size="14.00">Legend</text>
</g>
<!-- 00 -->
<g id="node1" class="node">
<title>00</title>
<ellipse fill="#b9d3ee" stroke="black" cx="980.9" cy="-394" rx="144" ry="18"/>
<text text-anchor="middle" x="980.9" y="-390.3" font-family="Times,serif" font-size="14.00">941</text>
</g>
<!-- 10 -->
<g id="node4" class="node">
<title>10</title>
<ellipse fill="#b9d3ee" stroke="black" cx="998.9" cy="-322" rx="108" ry="18"/>
<text text-anchor="middle" x="998.9" y="-318.3" font-family="Times,serif" font-size="14.00">788</text>
</g>
<!-- 00&#45;&gt;10 -->
<g id="edge1" class="edge">
<title>00&#45;&gt;10</title>
<path fill="none" stroke="black" d="M985.35,-375.7C987.35,-367.9 989.77,-358.51 992,-349.83"/>
<polygon fill="black" stroke="black" points="995.4,-350.66 994.5,-340.1 988.62,-348.92 995.4,-350.66"/>
</g>
<!-- 11 -->
<g id="node5" class="node">
<title>11</title>
<ellipse fill="#b9d3ee" stroke="black" cx="674.9" cy="-322" rx="108" ry="18"/>
<text text-anchor="middle" x="674.9" y="-318.3" font-family="Times,serif" font-size="14.00">777</text>
</g>
<!-- 00&#45;&gt;11 -->
<g id="edge2" class="edge">
<title>00&#45;&gt;11</title>
<path fill="none" stroke="black" d="M914.88,-377.9C865.05,-366.5 796.8,-350.89 745.82,-339.22"/>
<polygon fill="black" stroke="black" points="746.39,-335.76 735.86,-336.95 744.83,-342.59 746.39,-335.76"/>
</g>
<!-- 12 -->
<g id="node6" class="node">
<title>12</title>
<ellipse fill="#b9d3ee" stroke="black" cx="836.9" cy="-322" rx="36" ry="18"/>
<text text-anchor="middle" x="836.9" y="-318.3" font-family="Times,serif" font-size="14.00">435</text>
</g>
<!-- 00&#45;&gt;12 -->
<g id="edge4" class="edge">
<title>00&#45;&gt;12</title>
<path fill="none" stroke="black" d="M946.77,-376.41C923.82,-365.25 893.69,-350.61 870.79,-339.47"/>
<polygon fill="black" stroke="black" points="872.29,-336.31 861.77,-335.09 869.23,-342.61 872.29,-336.31"/>
</g>
<!-- 01 -->
<g id="node2" class="node">
<title>01</title>
<ellipse fill="#b9d3ee" stroke="black" cx="674.9" cy="-394" rx="144" ry="18"/>
<text text-anchor="middle" x="674.9" y="-390.3" font-family="Times,serif" font-size="14.00">1059</text>
</g>
<!-- 01&#45;&gt;11 -->
<g id="edge3" class="edge">
<title>01&#45;&gt;11</title>
<path fill="none" stroke="black" d="M674.9,-375.7C674.9,-367.98 674.9,-358.71 674.9,-350.11"/>
<polygon fill="black" stroke="black" points="678.4,-350.1 674.9,-340.1 671.4,-350.1 678.4,-350.1"/>
</g>
<!-- 01&#45;&gt;12 -->
<g id="edge5" class="edge">
<title>01&#45;&gt;12</title>
<path fill="none" stroke="black" d="M712.88,-376.59C739.53,-365.07 774.94,-349.77 801.1,-338.47"/>
<polygon fill="black" stroke="black" points="802.49,-341.68 810.28,-334.5 799.72,-335.25 802.49,-341.68"/>
</g>
<!-- legend_0 -->
<g id="node3" class="node">
<title>legend_0</title>
<polygon fill="#b9d3ee" stroke="black" points="2592.4,-412 2371.4,-412 2371.4,-376 2592.4,-376 2592.4,-412"/>
<text text-anchor="middle" x="2481.9" y="-390.3" font-family="Times,serif" font-size="14.00">DT=1 ST=1 Similarity=0.51</text>
</g>
<!-- legend_1 -->
<g id="node7" class="node">
<title>legend_1</title>
<polygon fill="#b9d3ee" stroke="black" points="2592.4,-340 2371.4,-340 2371.4,-304 2592.4,-304 2592.4,-340"/>
<text text-anchor="middle" x="2481.9" y="-318.3" font-family="Times,serif" font-size="14.00">DT=2 ST=1 Similarity=0.64</text>
</g>
<!-- legend_0&#45;&gt;legend_1 -->
<g id="edge6" class="edge">
<title>legend_0&#45;&gt;legend_1</title>
<path fill="none" stroke="black" d="M2481.9,-375.7C2481.9,-367.98 2481.9,-358.71 2481.9,-350.11"/>
<polygon fill="black" stroke="black" points="2485.4,-350.1 2481.9,-340.1 2478.4,-350.1 2485.4,-350.1"/>
</g>
<!-- 20 -->
<g id="node8" class="node">
<title>20</title>
<ellipse fill="#b9d3ee" stroke="black" cx="1016.9" cy="-250" rx="36" ry="18"/>
<text text-anchor="middle" x="1016.9" y="-246.3" font-family="Times,serif" font-size="14.00">416</text>
</g>
<!-- 10&#45;&gt;20 -->
<g id="edge7" class="edge">
<title>10&#45;&gt;20</title>
<path fill="none" stroke="black" d="M1003.35,-303.7C1005.35,-295.9 1007.77,-286.51 1010,-277.83"/>
<polygon fill="black" stroke="black" points="1013.4,-278.66 1012.5,-268.1 1006.62,-276.92 1013.4,-278.66"/>
</g>
<!-- 21 -->
<g id="node9" class="node">
<title>21</title>
<ellipse fill="#b9d3ee" stroke="black" cx="926.9" cy="-250" rx="36" ry="18"/>
<text text-anchor="middle" x="926.9" y="-246.3" font-family="Times,serif" font-size="14.00">410</text>
</g>
<!-- 10&#45;&gt;21 -->
<g id="edge9" class="edge">
<title>10&#45;&gt;21</title>
<path fill="none" stroke="black" d="M981.47,-304.05C972.05,-294.9 960.3,-283.47 950.11,-273.57"/>
<polygon fill="black" stroke="black" points="952.3,-270.82 942.69,-266.36 947.42,-275.84 952.3,-270.82"/>
</g>
<!-- 11&#45;&gt;21 -->
<g id="edge10" class="edge">
<title>11&#45;&gt;21</title>
<path fill="none" stroke="black" d="M736.54,-307.11C777.97,-297.31 833.61,-283.25 881.9,-268 884.5,-267.18 887.16,-266.29 889.84,-265.37"/>
<polygon fill="black" stroke="black" points="891.23,-268.59 899.46,-261.92 888.87,-262 891.23,-268.59"/>
</g>
<!-- 23 -->
<g id="node11" class="node">
<title>23</title>
<ellipse fill="#b9d3ee" stroke="black" cx="674.9" cy="-250" rx="108" ry="18"/>
<text text-anchor="middle" x="674.9" y="-246.3" font-family="Times,serif" font-size="14.00">760</text>
</g>
<!-- 11&#45;&gt;23 -->
<g id="edge12" class="edge">
<title>11&#45;&gt;23</title>
<path fill="none" stroke="black" d="M674.9,-303.7C674.9,-295.98 674.9,-286.71 674.9,-278.11"/>
<polygon fill="black" stroke="black" points="678.4,-278.1 674.9,-268.1 671.4,-278.1 678.4,-278.1"/>
</g>
<!-- 12&#45;&gt;20 -->
<g id="edge8" class="edge">
<title>12&#45;&gt;20</title>
<path fill="none" stroke="black" d="M864.63,-310.22C895.51,-298.21 945.56,-278.74 979.79,-265.43"/>
<polygon fill="black" stroke="black" points="981.38,-268.57 989.43,-261.68 978.84,-262.04 981.38,-268.57"/>
</g>
<!-- 22 -->
<g id="node10" class="node">
<title>22</title>
<ellipse fill="#b9d3ee" stroke="black" cx="836.9" cy="-250" rx="36" ry="18"/>
<text text-anchor="middle" x="836.9" y="-246.3" font-family="Times,serif" font-size="14.00">414</text>
</g>
<!-- 12&#45;&gt;22 -->
<g id="edge11" class="edge">
<title>12&#45;&gt;22</title>
<path fill="none" stroke="black" d="M836.9,-303.7C836.9,-295.98 836.9,-286.71 836.9,-278.11"/>
<polygon fill="black" stroke="black" points="840.4,-278.1 836.9,-268.1 833.4,-278.1 840.4,-278.1"/>
</g>
<!-- 12&#45;&gt;23 -->
<g id="edge13" class="edge">
<title>12&#45;&gt;23</title>
<path fill="none" stroke="black" d="M810.51,-309.6C786.42,-299.19 750.28,-283.57 721.36,-271.08"/>
<polygon fill="black" stroke="black" points="722.43,-267.73 711.86,-266.97 719.65,-274.15 722.43,-267.73"/>
</g>
<!-- legend_2 -->
<g id="node12" class="node">
<title>legend_2</title>
<polygon fill="#b9d3ee" stroke="black" points="2592.4,-268 2371.4,-268 2371.4,-232 2592.4,-232 2592.4,-268"/>
<text text-anchor="middle" x="2481.9" y="-246.3" font-family="Times,serif" font-size="14.00">DT=3 ST=1 Similarity=0.69</text>
</g>
<!-- legend_1&#45;&gt;legend_2 -->
<g id="edge14" class="edge">
<title>legend_1&#45;&gt;legend_2</title>
<path fill="none" stroke="black" d="M2481.9,-303.7C2481.9,-295.98 2481.9,-286.71 2481.9,-278.11"/>
<polygon fill="black" stroke="black" points="2485.4,-278.1 2481.9,-268.1 2478.4,-278.1 2485.4,-278.1"/>
</g>
<!-- 32 -->
<g id="node15" class="node">
<title>32</title>
<polygon fill="darkseagreen" stroke="black" points="1620.9,-196 1548.9,-196 1548.9,-160 1620.9,-160 1620.9,-196"/>
<text text-anchor="middle" x="1584.9" y="-174.3" font-family="Times,serif" font-size="14.00">405</text>
</g>
<!-- 20&#45;&gt;32 -->
<g id="edge18" class="edge">
<title>20&#45;&gt;32</title>
<path fill="none" stroke="black" d="M1051.57,-244.73C1149.46,-232.66 1427.95,-198.34 1538.68,-184.7"/>
<polygon fill="black" stroke="black" points="1539.36,-188.14 1548.86,-183.44 1538.51,-181.19 1539.36,-188.14"/>
</g>
<!-- 33 -->
<g id="node16" class="node">
<title>33</title>
<polygon fill="darkseagreen" stroke="black" points="1047.9,-196 975.9,-196 975.9,-160 1047.9,-160 1047.9,-196"/>
<text text-anchor="middle" x="1011.9" y="-174.3" font-family="Times,serif" font-size="14.00">413</text>
</g>
<!-- 20&#45;&gt;33 -->
<g id="edge19" class="edge">
<title>20&#45;&gt;33</title>
<path fill="none" stroke="black" d="M1015.66,-231.7C1015.11,-223.98 1014.45,-214.71 1013.84,-206.11"/>
<polygon fill="black" stroke="black" points="1017.32,-205.83 1013.12,-196.1 1010.34,-206.33 1017.32,-205.83"/>
</g>
<!-- 31 -->
<g id="node14" class="node">
<title>31</title>
<polygon fill="darkseagreen" stroke="black" points="713.9,-196 641.9,-196 641.9,-160 713.9,-160 713.9,-196"/>
<text text-anchor="middle" x="677.9" y="-174.3" font-family="Times,serif" font-size="14.00">390</text>
</g>
<!-- 21&#45;&gt;31 -->
<g id="edge16" class="edge">
<title>21&#45;&gt;31</title>
<path fill="none" stroke="black" d="M899.46,-238.1C893.7,-235.96 887.63,-233.82 881.9,-232 828.26,-214.95 765.43,-199.26 723.82,-189.44"/>
<polygon fill="black" stroke="black" points="724.51,-186.01 713.98,-187.14 722.91,-192.83 724.51,-186.01"/>
</g>
<!-- 21&#45;&gt;33 -->
<g id="edge20" class="edge">
<title>21&#45;&gt;33</title>
<path fill="none" stroke="black" d="M944.92,-234.15C956.04,-225 970.54,-213.06 983.2,-202.63"/>
<polygon fill="black" stroke="black" points="985.71,-205.1 991.21,-196.04 981.26,-199.7 985.71,-205.1"/>
</g>
<!-- 30 -->
<g id="node13" class="node">
<title>30</title>
<polygon fill="darkseagreen" stroke="black" points="912.9,-196 840.9,-196 840.9,-160 912.9,-160 912.9,-196"/>
<text text-anchor="middle" x="876.9" y="-174.3" font-family="Times,serif" font-size="14.00">396</text>
</g>
<!-- 22&#45;&gt;30 -->
<g id="edge15" class="edge">
<title>22&#45;&gt;30</title>
<path fill="none" stroke="black" d="M846.38,-232.41C851.02,-224.28 856.72,-214.31 861.94,-205.18"/>
<polygon fill="black" stroke="black" points="865.01,-206.87 866.93,-196.45 858.93,-203.39 865.01,-206.87"/>
</g>
<!-- 34 -->
<g id="node17" class="node">
<title>34</title>
<polygon fill="darkseagreen" stroke="black" points="472.9,-196 400.9,-196 400.9,-160 472.9,-160 472.9,-196"/>
<text text-anchor="middle" x="436.9" y="-174.3" font-family="Times,serif" font-size="14.00">396</text>
</g>
<!-- 22&#45;&gt;34 -->
<g id="edge21" class="edge">
<title>22&#45;&gt;34</title>
<path fill="none" stroke="black" d="M810.07,-237.8C804.16,-235.63 797.88,-233.56 791.9,-232 683.06,-203.66 551.23,-188.94 482.93,-182.72"/>
<polygon fill="black" stroke="black" points="483.2,-179.23 472.93,-181.83 482.58,-186.2 483.2,-179.23"/>
</g>
<!-- 23&#45;&gt;31 -->
<g id="edge17" class="edge">
<title>23&#45;&gt;31</title>
<path fill="none" stroke="black" d="M675.64,-231.7C675.97,-223.98 676.37,-214.71 676.74,-206.11"/>
<polygon fill="black" stroke="black" points="680.23,-206.25 677.17,-196.1 673.24,-205.95 680.23,-206.25"/>
</g>
<!-- 23&#45;&gt;34 -->
<g id="edge22" class="edge">
<title>23&#45;&gt;34</title>
<path fill="none" stroke="black" d="M624.13,-234.07C582.26,-221.75 523.37,-204.43 482.87,-192.52"/>
<polygon fill="black" stroke="black" points="483.83,-189.15 473.25,-189.69 481.85,-195.87 483.83,-189.15"/>
</g>
<!-- legend_3 -->
<g id="node18" class="node">
<title>legend_3</title>
<polygon fill="darkseagreen" stroke="black" points="2592.4,-196 2371.4,-196 2371.4,-160 2592.4,-160 2592.4,-196"/>
<text text-anchor="middle" x="2481.9" y="-174.3" font-family="Times,serif" font-size="14.00">DT=4 ST=1 Similarity=0.72</text>
</g>
<!-- legend_2&#45;&gt;legend_3 -->
<g id="edge23" class="edge">
<title>legend_2&#45;&gt;legend_3</title>
<path fill="none" stroke="black" d="M2481.9,-231.7C2481.9,-223.98 2481.9,-214.71 2481.9,-206.11"/>
<polygon fill="black" stroke="black" points="2485.4,-206.1 2481.9,-196.1 2478.4,-206.1 2485.4,-206.1"/>
</g>
<!-- 45 -->
<g id="node24" class="node">
<title>45</title>
<ellipse fill="#b9d3ee" stroke="black" cx="1369.9" cy="-106" rx="36" ry="18"/>
<text text-anchor="middle" x="1369.9" y="-102.3" font-family="Times,serif" font-size="14.00">399</text>
</g>
<!-- 30&#45;&gt;45 -->
<g id="edge29" class="edge">
<title>30&#45;&gt;45</title>
<path fill="none" stroke="black" d="M913.16,-169.67C929.54,-166.49 949.16,-162.84 966.9,-160 1096.51,-139.25 1250.52,-120.68 1325.06,-112.07"/>
<polygon fill="black" stroke="black" points="1325.5,-115.54 1335.03,-110.92 1324.7,-108.59 1325.5,-115.54"/>
</g>
<!-- 40 -->
<g id="node19" class="node">
<title>40</title>
<ellipse fill="#b9d3ee" stroke="black" cx="699.9" cy="-106" rx="36" ry="18"/>
<text text-anchor="middle" x="699.9" y="-102.3" font-family="Times,serif" font-size="14.00">381</text>
</g>
<!-- 31&#45;&gt;40 -->
<g id="edge24" class="edge">
<title>31&#45;&gt;40</title>
<path fill="none" stroke="black" d="M683.34,-159.7C685.79,-151.9 688.74,-142.51 691.47,-133.83"/>
<polygon fill="black" stroke="black" points="694.86,-134.69 694.52,-124.1 688.19,-132.59 694.86,-134.69"/>
</g>
<!-- 41 -->
<g id="node20" class="node">
<title>41</title>
<ellipse fill="#b9d3ee" stroke="black" cx="441.9" cy="-106" rx="16.8" ry="18"/>
<text text-anchor="middle" x="441.9" y="-102.3" font-family="Times,serif" font-size="14.00">7</text>
</g>
<!-- 31&#45;&gt;41 -->
<g id="edge25" class="edge">
<title>31&#45;&gt;41</title>
<path fill="none" stroke="black" d="M641.8,-166.29C593.83,-152.06 510.22,-127.27 467.95,-114.73"/>
<polygon fill="black" stroke="black" points="468.73,-111.31 458.15,-111.82 466.74,-118.02 468.73,-111.31"/>
</g>
<!-- 47 -->
<g id="node26" class="node">
<title>47</title>
<ellipse fill="#b9d3ee" stroke="black" cx="1008.9" cy="-106" rx="36" ry="18"/>
<text text-anchor="middle" x="1008.9" y="-102.3" font-family="Times,serif" font-size="14.00">400</text>
</g>
<!-- 31&#45;&gt;47 -->
<g id="edge32" class="edge">
<title>31&#45;&gt;47</title>
<path fill="none" stroke="black" d="M713.95,-169.38C775.5,-156.36 900.56,-129.91 966.31,-116.01"/>
<polygon fill="black" stroke="black" points="967.28,-119.38 976.34,-113.89 965.83,-112.53 967.28,-119.38"/>
</g>
<!-- 48 -->
<g id="node27" class="node">
<title>48</title>
<ellipse fill="#b9d3ee" stroke="black" cx="285.9" cy="-106" rx="36" ry="18"/>
<text text-anchor="middle" x="285.9" y="-102.3" font-family="Times,serif" font-size="14.00">374</text>
</g>
<!-- 31&#45;&gt;48 -->
<g id="edge34" class="edge">
<title>31&#45;&gt;48</title>
<path fill="none" stroke="black" d="M641.72,-170.54C569.35,-157.62 407.01,-128.63 329.15,-114.72"/>
<polygon fill="black" stroke="black" points="329.65,-111.26 319.19,-112.95 328.42,-118.15 329.65,-111.26"/>
</g>
<!-- 42 -->
<g id="node21" class="node">
<title>42</title>
<ellipse fill="#b9d3ee" stroke="black" cx="2054.9" cy="-106" rx="36" ry="18"/>
<text text-anchor="middle" x="2054.9" y="-102.3" font-family="Times,serif" font-size="14.00">390</text>
</g>
<!-- 32&#45;&gt;42 -->
<g id="edge26" class="edge">
<title>32&#45;&gt;42</title>
<path fill="none" stroke="black" d="M1621,-171.62C1705.96,-158.97 1918.34,-127.34 2010.77,-113.57"/>
<polygon fill="black" stroke="black" points="2011.53,-117 2020.91,-112.06 2010.5,-110.07 2011.53,-117"/>
</g>
<!-- 43 -->
<g id="node22" class="node">
<title>43</title>
<ellipse fill="#b9d3ee" stroke="black" cx="1768.9" cy="-106" rx="23" ry="18"/>
<text text-anchor="middle" x="1768.9" y="-102.3" font-family="Times,serif" font-size="14.00">12</text>
</g>
<!-- 32&#45;&gt;43 -->
<g id="edge27" class="edge">
<title>32&#45;&gt;43</title>
<path fill="none" stroke="black" d="M1621.25,-163.17C1655.75,-150.05 1706.96,-130.56 1739.11,-118.33"/>
<polygon fill="black" stroke="black" points="1740.73,-121.46 1748.83,-114.64 1738.24,-114.92 1740.73,-121.46"/>
</g>
<!-- 32&#45;&gt;45 -->
<g id="edge30" class="edge">
<title>32&#45;&gt;45</title>
<path fill="none" stroke="black" d="M1548.43,-165.13C1509.66,-152.5 1448.59,-132.62 1408.89,-119.69"/>
<polygon fill="black" stroke="black" points="1409.87,-116.33 1399.28,-116.57 1407.71,-122.99 1409.87,-116.33"/>
</g>
<!-- 44 -->
<g id="node23" class="node">
<title>44</title>
<ellipse fill="#b9d3ee" stroke="black" cx="1664.9" cy="-106" rx="23" ry="18"/>
<text text-anchor="middle" x="1664.9" y="-102.3" font-family="Times,serif" font-size="14.00">14</text>
</g>
<!-- 33&#45;&gt;44 -->
<g id="edge28" class="edge">
<title>33&#45;&gt;44</title>
<path fill="none" stroke="black" d="M1047.94,-173.14C1163.21,-160.78 1521.83,-122.34 1632.22,-110.5"/>
<polygon fill="black" stroke="black" points="1632.84,-113.96 1642.41,-109.41 1632.09,-107 1632.84,-113.96"/>
</g>
<!-- 33&#45;&gt;47 -->
<g id="edge33" class="edge">
<title>33&#45;&gt;47</title>
<path fill="none" stroke="black" d="M1011.16,-159.7C1010.83,-151.98 1010.43,-142.71 1010.06,-134.11"/>
<polygon fill="black" stroke="black" points="1013.56,-133.95 1009.63,-124.1 1006.56,-134.25 1013.56,-133.95"/>
</g>
<!-- 46 -->
<g id="node25" class="node">
<title>46</title>
<ellipse fill="#b9d3ee" stroke="black" cx="74.9" cy="-106" rx="23" ry="18"/>
<text text-anchor="middle" x="74.9" y="-102.3" font-family="Times,serif" font-size="14.00">23</text>
</g>
<!-- 34&#45;&gt;46 -->
<g id="edge31" class="edge">
<title>34&#45;&gt;46</title>
<path fill="none" stroke="black" d="M400.87,-170.03C330.08,-156.34 173.92,-126.15 106.7,-113.15"/>
<polygon fill="black" stroke="black" points="107.18,-109.68 96.7,-111.22 105.85,-116.55 107.18,-109.68"/>
</g>
<!-- 34&#45;&gt;48 -->
<g id="edge35" class="edge">
<title>34&#45;&gt;48</title>
<path fill="none" stroke="black" d="M400.73,-160.23C376.39,-148.95 344.48,-134.16 320.48,-123.03"/>
<polygon fill="black" stroke="black" points="321.92,-119.84 311.38,-118.81 318.98,-126.19 321.92,-119.84"/>
</g>
<!-- legend_4 -->
<g id="node28" class="node">
<title>legend_4</title>
<polygon fill="#b9d3ee" stroke="black" points="2587.9,-124 2375.9,-124 2375.9,-88 2587.9,-88 2587.9,-124"/>
<text text-anchor="middle" x="2481.9" y="-102.3" font-family="Times,serif" font-size="14.00">DT=5 ST=1 Similarity=0.7</text>
</g>
<!-- legend_3&#45;&gt;legend_4 -->
<g id="edge36" class="edge">
<title>legend_3&#45;&gt;legend_4</title>
<path fill="none" stroke="black" d="M2481.9,-159.7C2481.9,-151.98 2481.9,-142.71 2481.9,-134.11"/>
<polygon fill="black" stroke="black" points="2485.4,-134.1 2481.9,-124.1 2478.4,-134.1 2485.4,-134.1"/>
</g>
<!-- 53 -->
<g id="node32" class="node">
<title>53</title>
<ellipse fill="#b9d3ee" stroke="black" cx="699.9" cy="-34" rx="16.8" ry="18"/>
<text text-anchor="middle" x="699.9" y="-30.3" font-family="Times,serif" font-size="14.00">1</text>
</g>
<!-- 40&#45;&gt;53 -->
<g id="edge40" class="edge">
<title>40&#45;&gt;53</title>
<path fill="none" stroke="black" d="M699.9,-87.7C699.9,-79.98 699.9,-70.71 699.9,-62.11"/>
<polygon fill="black" stroke="black" points="703.4,-62.1 699.9,-52.1 696.4,-62.1 703.4,-62.1"/>
</g>
<!-- 59 -->
<g id="node38" class="node">
<title>59</title>
<ellipse fill="#b9d3ee" stroke="black" cx="751.9" cy="-34" rx="16.8" ry="18"/>
<text text-anchor="middle" x="751.9" y="-30.3" font-family="Times,serif" font-size="14.00">2</text>
</g>
<!-- 40&#45;&gt;59 -->
<g id="edge46" class="edge">
<title>40&#45;&gt;59</title>
<path fill="none" stroke="black" d="M711.96,-88.76C718.99,-79.3 727.95,-67.23 735.61,-56.93"/>
<polygon fill="black" stroke="black" points="738.5,-58.9 741.66,-48.79 732.88,-54.73 738.5,-58.9"/>
</g>
<!-- 510 -->
<g id="node39" class="node">
<title>510</title>
<ellipse fill="#b9d3ee" stroke="black" cx="803.9" cy="-34" rx="16.8" ry="18"/>
<text text-anchor="middle" x="803.9" y="-30.3" font-family="Times,serif" font-size="14.00">2</text>
</g>
<!-- 40&#45;&gt;510 -->
<g id="edge47" class="edge">
<title>40&#45;&gt;510</title>
<path fill="none" stroke="black" d="M720.45,-91.17C737.99,-79.36 763.18,-62.41 781.29,-50.22"/>
<polygon fill="black" stroke="black" points="783.7,-52.82 790.04,-44.33 779.79,-47.01 783.7,-52.82"/>
</g>
<!-- 511 -->
<g id="node40" class="node">
<title>511</title>
<ellipse fill="#b9d3ee" stroke="black" cx="855.9" cy="-34" rx="16.8" ry="18"/>
<text text-anchor="middle" x="855.9" y="-30.3" font-family="Times,serif" font-size="14.00">2</text>
</g>
<!-- 40&#45;&gt;511 -->
<g id="edge48" class="edge">
<title>40&#45;&gt;511</title>
<path fill="none" stroke="black" d="M728.76,-95.05C755.58,-85.38 796.34,-69.61 829.9,-52 831.05,-51.39 832.22,-50.75 833.39,-50.08"/>
<polygon fill="black" stroke="black" points="835.48,-52.91 842.16,-44.68 831.81,-46.95 835.48,-52.91"/>
</g>
<!-- 529 -->
<g id="node58" class="node">
<title>529</title>
<ellipse fill="#b9d3ee" stroke="black" cx="551.9" cy="-34" rx="23" ry="18"/>
<text text-anchor="middle" x="551.9" y="-30.3" font-family="Times,serif" font-size="14.00">15</text>
</g>
<!-- 40&#45;&gt;529 -->
<g id="edge66" class="edge">
<title>40&#45;&gt;529</title>
<path fill="none" stroke="black" d="M673.43,-93.45C649.78,-83 614.28,-66.99 583.9,-52 582.35,-51.23 580.76,-50.44 579.16,-49.62"/>
<polygon fill="black" stroke="black" points="580.56,-46.41 570.08,-44.9 577.33,-52.62 580.56,-46.41"/>
</g>
<!-- 538 -->
<g id="node67" class="node">
<title>538</title>
<ellipse fill="#b9d3ee" stroke="black" cx="628.9" cy="-34" rx="36" ry="18"/>
<text text-anchor="middle" x="628.9" y="-30.3" font-family="Times,serif" font-size="14.00">359</text>
</g>
<!-- 40&#45;&gt;538 -->
<g id="edge75" class="edge">
<title>40&#45;&gt;538</title>
<path fill="none" stroke="black" d="M684.14,-89.46C674.67,-80.13 662.46,-68.09 651.92,-57.7"/>
<polygon fill="black" stroke="black" points="654.19,-55.02 644.61,-50.49 649.28,-60 654.19,-55.02"/>
</g>
<!-- 56 -->
<g id="node35" class="node">
<title>56</title>
<ellipse fill="#b9d3ee" stroke="black" cx="337.9" cy="-34" rx="16.8" ry="18"/>
<text text-anchor="middle" x="337.9" y="-30.3" font-family="Times,serif" font-size="14.00">1</text>
</g>
<!-- 41&#45;&gt;56 -->
<g id="edge43" class="edge">
<title>41&#45;&gt;56</title>
<path fill="none" stroke="black" d="M427.87,-95.56C410.58,-83.92 380.98,-63.99 360.47,-50.19"/>
<polygon fill="black" stroke="black" points="362.28,-47.19 352.03,-44.51 358.38,-53 362.28,-47.19"/>
</g>
<!-- 57 -->
<g id="node36" class="node">
<title>57</title>
<ellipse fill="#b9d3ee" stroke="black" cx="389.9" cy="-34" rx="16.8" ry="18"/>
<text text-anchor="middle" x="389.9" y="-30.3" font-family="Times,serif" font-size="14.00">1</text>
</g>
<!-- 41&#45;&gt;57 -->
<g id="edge44" class="edge">
<title>41&#45;&gt;57</title>
<path fill="none" stroke="black" d="M431.87,-91.5C424.63,-81.75 414.68,-68.37 406.29,-57.07"/>
<polygon fill="black" stroke="black" points="409.02,-54.87 400.25,-48.93 403.4,-59.05 409.02,-54.87"/>
</g>
<!-- 514 -->
<g id="node43" class="node">
<title>514</title>
<ellipse fill="#b9d3ee" stroke="black" cx="441.9" cy="-34" rx="16.8" ry="18"/>
<text text-anchor="middle" x="441.9" y="-30.3" font-family="Times,serif" font-size="14.00">2</text>
</g>
<!-- 41&#45;&gt;514 -->
<g id="edge51" class="edge">
<title>41&#45;&gt;514</title>
<path fill="none" stroke="black" d="M441.9,-87.7C441.9,-79.98 441.9,-70.71 441.9,-62.11"/>
<polygon fill="black" stroke="black" points="445.4,-62.1 441.9,-52.1 438.4,-62.1 445.4,-62.1"/>
</g>
<!-- 518 -->
<g id="node47" class="node">
<title>518</title>
<ellipse fill="#b9d3ee" stroke="black" cx="493.9" cy="-34" rx="16.8" ry="18"/>
<text text-anchor="middle" x="493.9" y="-30.3" font-family="Times,serif" font-size="14.00">3</text>
</g>
<!-- 41&#45;&gt;518 -->
<g id="edge55" class="edge">
<title>41&#45;&gt;518</title>
<path fill="none" stroke="black" d="M451.92,-91.5C459.17,-81.75 469.11,-68.37 477.5,-57.07"/>
<polygon fill="black" stroke="black" points="480.39,-59.05 483.55,-48.93 474.77,-54.87 480.39,-59.05"/>
</g>
<!-- 51 -->
<g id="node30" class="node">
<title>51</title>
<ellipse fill="#b9d3ee" stroke="black" cx="2286.9" cy="-34" rx="16.8" ry="18"/>
<text text-anchor="middle" x="2286.9" y="-30.3" font-family="Times,serif" font-size="14.00">1</text>
</g>
<!-- 42&#45;&gt;51 -->
<g id="edge38" class="edge">
<title>42&#45;&gt;51</title>
<path fill="none" stroke="black" d="M2088.84,-99.78C2130.62,-92.57 2203.12,-77.49 2260.9,-52 2262.09,-51.47 2263.29,-50.89 2264.49,-50.28"/>
<polygon fill="black" stroke="black" points="2266.51,-53.15 2273.34,-45.06 2262.95,-47.12 2266.51,-53.15"/>
</g>
<!-- 58 -->
<g id="node37" class="node">
<title>58</title>
<ellipse fill="#b9d3ee" stroke="black" cx="2338.9" cy="-34" rx="16.8" ry="18"/>
<text text-anchor="middle" x="2338.9" y="-30.3" font-family="Times,serif" font-size="14.00">2</text>
</g>
<!-- 42&#45;&gt;58 -->
<g id="edge45" class="edge">
<title>42&#45;&gt;58</title>
<path fill="none" stroke="black" d="M2090.34,-101.96C2141.23,-96.67 2237.22,-83.18 2312.9,-52 2314.1,-51.5 2315.31,-50.95 2316.52,-50.35"/>
<polygon fill="black" stroke="black" points="2318.51,-53.24 2325.4,-45.2 2315,-47.19 2318.51,-53.24"/>
</g>
<!-- 513 -->
<g id="node42" class="node">
<title>513</title>
<ellipse fill="#b9d3ee" stroke="black" cx="1872.9" cy="-34" rx="16.8" ry="18"/>
<text text-anchor="middle" x="1872.9" y="-30.3" font-family="Times,serif" font-size="14.00">2</text>
</g>
<!-- 42&#45;&gt;513 -->
<g id="edge50" class="edge">
<title>42&#45;&gt;513</title>
<path fill="none" stroke="black" d="M2023.5,-96.85C1991.33,-87.93 1940.3,-72.17 1898.9,-52 1897.73,-51.43 1896.54,-50.81 1895.36,-50.17"/>
<polygon fill="black" stroke="black" points="1896.92,-47.02 1886.55,-44.85 1893.3,-53.01 1896.92,-47.02"/>
</g>
<!-- 515 -->
<g id="node44" class="node">
<title>515</title>
<ellipse fill="#b9d3ee" stroke="black" cx="1924.9" cy="-34" rx="16.8" ry="18"/>
<text text-anchor="middle" x="1924.9" y="-30.3" font-family="Times,serif" font-size="14.00">3</text>
</g>
<!-- 42&#45;&gt;515 -->
<g id="edge52" class="edge">
<title>42&#45;&gt;515</title>
<path fill="none" stroke="black" d="M2029.7,-93.1C2008.38,-82.82 1977.2,-67.24 1950.9,-52 1949.77,-51.35 1948.62,-50.66 1947.47,-49.96"/>
<polygon fill="black" stroke="black" points="1949.08,-46.84 1938.76,-44.46 1945.34,-52.76 1949.08,-46.84"/>
</g>
<!-- 517 -->
<g id="node46" class="node">
<title>517</title>
<ellipse fill="#b9d3ee" stroke="black" cx="1976.9" cy="-34" rx="16.8" ry="18"/>
<text text-anchor="middle" x="1976.9" y="-30.3" font-family="Times,serif" font-size="14.00">3</text>
</g>
<!-- 42&#45;&gt;517 -->
<g id="edge54" class="edge">
<title>42&#45;&gt;517</title>
<path fill="none" stroke="black" d="M2037.97,-89.81C2026.07,-79.12 2010.06,-64.76 1997.42,-53.42"/>
<polygon fill="black" stroke="black" points="1999.46,-50.55 1989.68,-46.47 1994.79,-55.76 1999.46,-50.55"/>
</g>
<!-- 519 -->
<g id="node48" class="node">
<title>519</title>
<ellipse fill="#b9d3ee" stroke="black" cx="2028.9" cy="-34" rx="16.8" ry="18"/>
<text text-anchor="middle" x="2028.9" y="-30.3" font-family="Times,serif" font-size="14.00">4</text>
</g>
<!-- 42&#45;&gt;519 -->
<g id="edge56" class="edge">
<title>42&#45;&gt;519</title>
<path fill="none" stroke="black" d="M2048.6,-88.05C2045.56,-79.85 2041.84,-69.83 2038.45,-60.71"/>
<polygon fill="black" stroke="black" points="2041.72,-59.46 2034.96,-51.31 2035.16,-61.9 2041.72,-59.46"/>
</g>
<!-- 522 -->
<g id="node51" class="node">
<title>522</title>
<ellipse fill="#b9d3ee" stroke="black" cx="2080.9" cy="-34" rx="16.8" ry="18"/>
<text text-anchor="middle" x="2080.9" y="-30.3" font-family="Times,serif" font-size="14.00">7</text>
</g>
<!-- 42&#45;&gt;522 -->
<g id="edge59" class="edge">
<title>42&#45;&gt;522</title>
<path fill="none" stroke="black" d="M2061.19,-88.05C2064.24,-79.85 2067.96,-69.83 2071.35,-60.71"/>
<polygon fill="black" stroke="black" points="2074.64,-61.9 2074.84,-51.31 2068.08,-59.46 2074.64,-61.9"/>
</g>
<!-- 527 -->
<g id="node56" class="node">
<title>527</title>
<ellipse fill="#b9d3ee" stroke="black" cx="2138.9" cy="-34" rx="23" ry="18"/>
<text text-anchor="middle" x="2138.9" y="-30.3" font-family="Times,serif" font-size="14.00">13</text>
</g>
<!-- 42&#45;&gt;527 -->
<g id="edge64" class="edge">
<title>42&#45;&gt;527</title>
<path fill="none" stroke="black" d="M2072.71,-90.15C2085.24,-79.72 2102.11,-65.66 2115.69,-54.34"/>
<polygon fill="black" stroke="black" points="2118.2,-56.8 2123.64,-47.71 2113.72,-51.43 2118.2,-56.8"/>
</g>
<!-- 537 -->
<g id="node66" class="node">
<title>537</title>
<ellipse fill="#b9d3ee" stroke="black" cx="2215.9" cy="-34" rx="36" ry="18"/>
<text text-anchor="middle" x="2215.9" y="-30.3" font-family="Times,serif" font-size="14.00">355</text>
</g>
<!-- 42&#45;&gt;537 -->
<g id="edge74" class="edge">
<title>42&#45;&gt;537</title>
<path fill="none" stroke="black" d="M2081.12,-93.6C2108.14,-81.85 2150.42,-63.47 2180.41,-50.43"/>
<polygon fill="black" stroke="black" points="2181.91,-53.59 2189.68,-46.4 2179.12,-47.18 2181.91,-53.59"/>
</g>
<!-- 521 -->
<g id="node50" class="node">
<title>521</title>
<ellipse fill="#b9d3ee" stroke="black" cx="1768.9" cy="-34" rx="16.8" ry="18"/>
<text text-anchor="middle" x="1768.9" y="-30.3" font-family="Times,serif" font-size="14.00">5</text>
</g>
<!-- 43&#45;&gt;521 -->
<g id="edge58" class="edge">
<title>43&#45;&gt;521</title>
<path fill="none" stroke="black" d="M1768.9,-87.7C1768.9,-79.98 1768.9,-70.71 1768.9,-62.11"/>
<polygon fill="black" stroke="black" points="1772.4,-62.1 1768.9,-52.1 1765.4,-62.1 1772.4,-62.1"/>
</g>
<!-- 525 -->
<g id="node54" class="node">
<title>525</title>
<ellipse fill="#b9d3ee" stroke="black" cx="1820.9" cy="-34" rx="16.8" ry="18"/>
<text text-anchor="middle" x="1820.9" y="-30.3" font-family="Times,serif" font-size="14.00">7</text>
</g>
<!-- 43&#45;&gt;525 -->
<g id="edge62" class="edge">
<title>43&#45;&gt;525</title>
<path fill="none" stroke="black" d="M1779.93,-90.15C1787.08,-80.53 1796.52,-67.82 1804.54,-57.02"/>
<polygon fill="black" stroke="black" points="1807.44,-58.99 1810.59,-48.87 1801.82,-54.81 1807.44,-58.99"/>
</g>
<!-- 523 -->
<g id="node52" class="node">
<title>523</title>
<ellipse fill="#b9d3ee" stroke="black" cx="1716.9" cy="-34" rx="16.8" ry="18"/>
<text text-anchor="middle" x="1716.9" y="-30.3" font-family="Times,serif" font-size="14.00">7</text>
</g>
<!-- 44&#45;&gt;523 -->
<g id="edge60" class="edge">
<title>44&#45;&gt;523</title>
<path fill="none" stroke="black" d="M1675.93,-90.15C1683.08,-80.53 1692.52,-67.82 1700.54,-57.02"/>
<polygon fill="black" stroke="black" points="1703.44,-58.99 1706.59,-48.87 1697.82,-54.81 1703.44,-58.99"/>
</g>
<!-- 524 -->
<g id="node53" class="node">
<title>524</title>
<ellipse fill="#b9d3ee" stroke="black" cx="1664.9" cy="-34" rx="16.8" ry="18"/>
<text text-anchor="middle" x="1664.9" y="-30.3" font-family="Times,serif" font-size="14.00">7</text>
</g>
<!-- 44&#45;&gt;524 -->
<g id="edge61" class="edge">
<title>44&#45;&gt;524</title>
<path fill="none" stroke="black" d="M1664.9,-87.7C1664.9,-79.98 1664.9,-70.71 1664.9,-62.11"/>
<polygon fill="black" stroke="black" points="1668.4,-62.1 1664.9,-52.1 1661.4,-62.1 1668.4,-62.1"/>
</g>
<!-- 50 -->
<g id="node29" class="node">
<title>50</title>
<ellipse fill="#b9d3ee" stroke="black" cx="1612.9" cy="-34" rx="16.8" ry="18"/>
<text text-anchor="middle" x="1612.9" y="-30.3" font-family="Times,serif" font-size="14.00">1</text>
</g>
<!-- 45&#45;&gt;50 -->
<g id="edge37" class="edge">
<title>45&#45;&gt;50</title>
<path fill="none" stroke="black" d="M1404.13,-100.32C1447.89,-93.52 1525.35,-78.7 1586.9,-52 1588.1,-51.48 1589.3,-50.91 1590.49,-50.3"/>
<polygon fill="black" stroke="black" points="1592.51,-53.17 1599.36,-45.09 1588.96,-47.14 1592.51,-53.17"/>
</g>
<!-- 55 -->
<g id="node34" class="node">
<title>55</title>
<ellipse fill="#b9d3ee" stroke="black" cx="1176.9" cy="-34" rx="16.8" ry="18"/>
<text text-anchor="middle" x="1176.9" y="-30.3" font-family="Times,serif" font-size="14.00">1</text>
</g>
<!-- 45&#45;&gt;55 -->
<g id="edge42" class="edge">
<title>45&#45;&gt;55</title>
<path fill="none" stroke="black" d="M1337.84,-97.6C1303.49,-89.03 1247.83,-73.33 1202.9,-52 1201.72,-51.44 1200.53,-50.84 1199.35,-50.2"/>
<polygon fill="black" stroke="black" points="1200.9,-47.05 1190.52,-44.9 1197.3,-53.05 1200.9,-47.05"/>
</g>
<!-- 512 -->
<g id="node41" class="node">
<title>512</title>
<ellipse fill="#b9d3ee" stroke="black" cx="1228.9" cy="-34" rx="16.8" ry="18"/>
<text text-anchor="middle" x="1228.9" y="-30.3" font-family="Times,serif" font-size="14.00">2</text>
</g>
<!-- 45&#45;&gt;512 -->
<g id="edge49" class="edge">
<title>45&#45;&gt;512</title>
<path fill="none" stroke="black" d="M1342.86,-93.88C1319.2,-83.83 1284.13,-68.18 1254.9,-52 1253.76,-51.37 1252.6,-50.7 1251.44,-50.02"/>
<polygon fill="black" stroke="black" points="1253.03,-46.89 1242.7,-44.56 1249.33,-52.83 1253.03,-46.89"/>
</g>
<!-- 516 -->
<g id="node45" class="node">
<title>516</title>
<ellipse fill="#b9d3ee" stroke="black" cx="1280.9" cy="-34" rx="16.8" ry="18"/>
<text text-anchor="middle" x="1280.9" y="-30.3" font-family="Times,serif" font-size="14.00">3</text>
</g>
<!-- 45&#45;&gt;516 -->
<g id="edge53" class="edge">
<title>45&#45;&gt;516</title>
<path fill="none" stroke="black" d="M1351.46,-90.5C1337.16,-79.25 1317.31,-63.64 1302.31,-51.84"/>
<polygon fill="black" stroke="black" points="1304.14,-48.83 1294.11,-45.39 1299.81,-54.33 1304.14,-48.83"/>
</g>
<!-- 528 -->
<g id="node57" class="node">
<title>528</title>
<ellipse fill="#b9d3ee" stroke="black" cx="1338.9" cy="-34" rx="23" ry="18"/>
<text text-anchor="middle" x="1338.9" y="-30.3" font-family="Times,serif" font-size="14.00">14</text>
</g>
<!-- 45&#45;&gt;528 -->
<g id="edge65" class="edge">
<title>45&#45;&gt;528</title>
<path fill="none" stroke="black" d="M1362.39,-88.05C1358.76,-79.85 1354.32,-69.83 1350.29,-60.71"/>
<polygon fill="black" stroke="black" points="1353.37,-59.03 1346.12,-51.31 1346.97,-61.87 1353.37,-59.03"/>
</g>
<!-- 531 -->
<g id="node60" class="node">
<title>531</title>
<ellipse fill="#b9d3ee" stroke="black" cx="1401.9" cy="-34" rx="23" ry="18"/>
<text text-anchor="middle" x="1401.9" y="-30.3" font-family="Times,serif" font-size="14.00">19</text>
</g>
<!-- 45&#45;&gt;531 -->
<g id="edge68" class="edge">
<title>45&#45;&gt;531</title>
<path fill="none" stroke="black" d="M1377.64,-88.05C1381.43,-79.77 1386.07,-69.62 1390.28,-60.42"/>
<polygon fill="black" stroke="black" points="1393.47,-61.86 1394.44,-51.31 1387.1,-58.95 1393.47,-61.86"/>
</g>
<!-- 534 -->
<g id="node63" class="node">
<title>534</title>
<ellipse fill="#b9d3ee" stroke="black" cx="1464.9" cy="-34" rx="23" ry="18"/>
<text text-anchor="middle" x="1464.9" y="-30.3" font-family="Times,serif" font-size="14.00">62</text>
</g>
<!-- 45&#45;&gt;534 -->
<g id="edge71" class="edge">
<title>45&#45;&gt;534</title>
<path fill="none" stroke="black" d="M1389.58,-90.5C1404.35,-79.62 1424.65,-64.66 1440.46,-53.01"/>
<polygon fill="black" stroke="black" points="1442.74,-55.68 1448.71,-46.93 1438.58,-50.04 1442.74,-55.68"/>
</g>
<!-- 535 -->
<g id="node64" class="node">
<title>535</title>
<ellipse fill="#b9d3ee" stroke="black" cx="1541.9" cy="-34" rx="36" ry="18"/>
<text text-anchor="middle" x="1541.9" y="-30.3" font-family="Times,serif" font-size="14.00">297</text>
</g>
<!-- 45&#45;&gt;535 -->
<g id="edge72" class="edge">
<title>45&#45;&gt;535</title>
<path fill="none" stroke="black" d="M1397.15,-93.91C1426.34,-82.03 1472.82,-63.11 1505.21,-49.93"/>
<polygon fill="black" stroke="black" points="1506.83,-53.05 1514.77,-46.04 1504.19,-46.57 1506.83,-53.05"/>
</g>
<!-- 520 -->
<g id="node49" class="node">
<title>520</title>
<ellipse fill="#b9d3ee" stroke="black" cx="16.9" cy="-34" rx="16.8" ry="18"/>
<text text-anchor="middle" x="16.9" y="-30.3" font-family="Times,serif" font-size="14.00">5</text>
</g>
<!-- 46&#45;&gt;520 -->
<g id="edge57" class="edge">
<title>46&#45;&gt;520</title>
<path fill="none" stroke="black" d="M62.88,-90.5C54.63,-80.54 43.55,-67.17 34.33,-56.04"/>
<polygon fill="black" stroke="black" points="36.8,-53.54 27.73,-48.07 31.41,-58 36.8,-53.54"/>
</g>
<!-- 530 -->
<g id="node59" class="node">
<title>530</title>
<ellipse fill="#b9d3ee" stroke="black" cx="74.9" cy="-34" rx="23" ry="18"/>
<text text-anchor="middle" x="74.9" y="-30.3" font-family="Times,serif" font-size="14.00">18</text>
</g>
<!-- 46&#45;&gt;530 -->
<g id="edge67" class="edge">
<title>46&#45;&gt;530</title>
<path fill="none" stroke="black" d="M74.9,-87.7C74.9,-79.98 74.9,-70.71 74.9,-62.11"/>
<polygon fill="black" stroke="black" points="78.4,-62.1 74.9,-52.1 71.4,-62.1 78.4,-62.1"/>
</g>
<!-- 54 -->
<g id="node33" class="node">
<title>54</title>
<ellipse fill="#b9d3ee" stroke="black" cx="997.9" cy="-34" rx="16.8" ry="18"/>
<text text-anchor="middle" x="997.9" y="-30.3" font-family="Times,serif" font-size="14.00">1</text>
</g>
<!-- 47&#45;&gt;54 -->
<g id="edge41" class="edge">
<title>47&#45;&gt;54</title>
<path fill="none" stroke="black" d="M1006.18,-87.7C1004.97,-79.98 1003.51,-70.71 1002.16,-62.11"/>
<polygon fill="black" stroke="black" points="1005.6,-61.44 1000.59,-52.1 998.68,-62.53 1005.6,-61.44"/>
</g>
<!-- 526 -->
<g id="node55" class="node">
<title>526</title>
<ellipse fill="#b9d3ee" stroke="black" cx="1055.9" cy="-34" rx="23" ry="18"/>
<text text-anchor="middle" x="1055.9" y="-30.3" font-family="Times,serif" font-size="14.00">11</text>
</g>
<!-- 47&#45;&gt;526 -->
<g id="edge63" class="edge">
<title>47&#45;&gt;526</title>
<path fill="none" stroke="black" d="M1019.8,-88.76C1025.78,-79.86 1033.3,-68.65 1039.93,-58.78"/>
<polygon fill="black" stroke="black" points="1043.03,-60.44 1045.7,-50.19 1037.22,-56.54 1043.03,-60.44"/>
</g>
<!-- 532 -->
<g id="node61" class="node">
<title>532</title>
<ellipse fill="#b9d3ee" stroke="black" cx="1118.9" cy="-34" rx="23" ry="18"/>
<text text-anchor="middle" x="1118.9" y="-30.3" font-family="Times,serif" font-size="14.00">27</text>
</g>
<!-- 47&#45;&gt;532 -->
<g id="edge69" class="edge">
<title>47&#45;&gt;532</title>
<path fill="none" stroke="black" d="M1030.37,-91.34C1048.29,-79.93 1073.89,-63.64 1092.95,-51.51"/>
<polygon fill="black" stroke="black" points="1094.91,-54.42 1101.46,-46.1 1091.15,-48.51 1094.91,-54.42"/>
</g>
<!-- 539 -->
<g id="node68" class="node">
<title>539</title>
<ellipse fill="#b9d3ee" stroke="black" cx="926.9" cy="-34" rx="36" ry="18"/>
<text text-anchor="middle" x="926.9" y="-30.3" font-family="Times,serif" font-size="14.00">361</text>
</g>
<!-- 47&#45;&gt;539 -->
<g id="edge76" class="edge">
<title>47&#45;&gt;539</title>
<path fill="none" stroke="black" d="M991.51,-90.15C980.09,-80.41 964.97,-67.5 952.23,-56.63"/>
<polygon fill="black" stroke="black" points="954.14,-53.65 944.26,-49.82 949.6,-58.98 954.14,-53.65"/>
</g>
<!-- 52 -->
<g id="node31" class="node">
<title>52</title>
<ellipse fill="#b9d3ee" stroke="black" cx="285.9" cy="-34" rx="16.8" ry="18"/>
<text text-anchor="middle" x="285.9" y="-30.3" font-family="Times,serif" font-size="14.00">1</text>
</g>
<!-- 48&#45;&gt;52 -->
<g id="edge39" class="edge">
<title>48&#45;&gt;52</title>
<path fill="none" stroke="black" d="M285.9,-87.7C285.9,-79.98 285.9,-70.71 285.9,-62.11"/>
<polygon fill="black" stroke="black" points="289.4,-62.1 285.9,-52.1 282.4,-62.1 289.4,-62.1"/>
</g>
<!-- 533 -->
<g id="node62" class="node">
<title>533</title>
<ellipse fill="#b9d3ee" stroke="black" cx="137.9" cy="-34" rx="23" ry="18"/>
<text text-anchor="middle" x="137.9" y="-30.3" font-family="Times,serif" font-size="14.00">33</text>
</g>
<!-- 48&#45;&gt;533 -->
<g id="edge70" class="edge">
<title>48&#45;&gt;533</title>
<path fill="none" stroke="black" d="M259.43,-93.45C235.78,-83 200.28,-66.99 169.9,-52 168.35,-51.23 166.76,-50.44 165.16,-49.62"/>
<polygon fill="black" stroke="black" points="166.56,-46.41 156.08,-44.9 163.33,-52.62 166.56,-46.41"/>
</g>
<!-- 536 -->
<g id="node65" class="node">
<title>536</title>
<ellipse fill="#b9d3ee" stroke="black" cx="214.9" cy="-34" rx="36" ry="18"/>
<text text-anchor="middle" x="214.9" y="-30.3" font-family="Times,serif" font-size="14.00">340</text>
</g>
<!-- 48&#45;&gt;536 -->
<g id="edge73" class="edge">
<title>48&#45;&gt;536</title>
<path fill="none" stroke="black" d="M270.14,-89.46C260.67,-80.13 248.46,-68.09 237.92,-57.7"/>
<polygon fill="black" stroke="black" points="240.19,-55.02 230.61,-50.49 235.28,-60 240.19,-55.02"/>
</g>
<!-- legend_5 -->
<g id="node69" class="node">
<title>legend_5</title>
<polygon fill="#b9d3ee" stroke="black" points="2587.9,-52 2375.9,-52 2375.9,-16 2587.9,-16 2587.9,-52"/>
<text text-anchor="middle" x="2481.9" y="-30.3" font-family="Times,serif" font-size="14.00">DT=6 ST=1 Similarity=0.6</text>
</g>
<!-- legend_4&#45;&gt;legend_5 -->
<g id="edge77" class="edge">
<title>legend_4&#45;&gt;legend_5</title>
<path fill="none" stroke="black" d="M2481.9,-87.7C2481.9,-79.98 2481.9,-70.71 2481.9,-62.11"/>
<polygon fill="black" stroke="black" points="2485.4,-62.1 2481.9,-52.1 2478.4,-62.1 2485.4,-62.1"/>
</g>
</g>
</svg>
