<?xml version="1.0" encoding="UTF-8" standalone="no"?>
<!DOCTYPE svg PUBLIC "-//W3C//DTD SVG 1.1//EN"
 "http://www.w3.org/Graphics/SVG/1.1/DTD/svg11.dtd">
<!-- Generated by graphviz version 2.43.0 (0)
 -->
<!-- Title: %3 Pages: 1 -->
<svg width="2827pt" height="353pt"
 viewBox="0.00 0.00 2826.90 353.00" xmlns="http://www.w3.org/2000/svg" xmlns:xlink="http://www.w3.org/1999/xlink">
<g id="graph0" class="graph" transform="scale(1 1) rotate(0) translate(4 349)">
<title>%3</title>
<polygon fill="white" stroke="transparent" points="-4,4 -4,-349 2822.9,-349 2822.9,4 -4,4"/>
<text text-anchor="middle" x="1409.45" y="-329.8" font-family="Times,serif" font-size="14.00">ConsTree</text>
<text text-anchor="middle" x="1409.45" y="-314.8" font-family="Times,serif" font-size="14.00">Tree Quality = 0.6666666666666667</text>
<g id="clust1" class="cluster">
<title>cluster</title>
<polygon fill="none" stroke="black" points="2574.9,-8 2574.9,-299 2810.9,-299 2810.9,-8 2574.9,-8"/>
<text text-anchor="middle" x="2692.9" y="-283.8" font-family="Times,serif" font-size="14.00">Legend</text>
</g>
<!-- 00 -->
<g id="node1" class="node">
<title>00</title>
<ellipse fill="#b9d3ee" stroke="black" cx="1693.9" cy="-250" rx="324" ry="18"/>
<text text-anchor="middle" x="1693.9" y="-246.3" font-family="Times,serif" font-size="14.00">2000</text>
</g>
<!-- 10 -->
<g id="node3" class="node">
<title>10</title>
<ellipse fill="#b9d3ee" stroke="black" cx="973.9" cy="-178" rx="180" ry="18"/>
<text text-anchor="middle" x="973.9" y="-174.3" font-family="Times,serif" font-size="14.00">1197</text>
</g>
<!-- 00&#45;&gt;10 -->
<g id="edge1" class="edge">
<title>00&#45;&gt;10</title>
<path fill="none" stroke="black" d="M1540.76,-234.11C1412.45,-221.64 1231.07,-204 1108.3,-192.07"/>
<polygon fill="black" stroke="black" points="1108.38,-188.56 1098.09,-191.07 1107.71,-195.53 1108.38,-188.56"/>
</g>
<!-- 11 -->
<g id="node4" class="node">
<title>11</title>
<ellipse fill="#b9d3ee" stroke="black" cx="1842.9" cy="-178" rx="36" ry="18"/>
<text text-anchor="middle" x="1842.9" y="-174.3" font-family="Times,serif" font-size="14.00">401</text>
</g>
<!-- 00&#45;&gt;11 -->
<g id="edge2" class="edge">
<title>00&#45;&gt;11</title>
<path fill="none" stroke="black" d="M1729.97,-232.05C1753.74,-220.89 1784.69,-206.35 1808.18,-195.31"/>
<polygon fill="black" stroke="black" points="1809.86,-198.39 1817.43,-190.97 1806.89,-192.05 1809.86,-198.39"/>
</g>
<!-- 12 -->
<g id="node5" class="node">
<title>12</title>
<ellipse fill="#b9d3ee" stroke="black" cx="1693.9" cy="-178" rx="36" ry="18"/>
<text text-anchor="middle" x="1693.9" y="-174.3" font-family="Times,serif" font-size="14.00">402</text>
</g>
<!-- 00&#45;&gt;12 -->
<g id="edge3" class="edge">
<title>00&#45;&gt;12</title>
<path fill="none" stroke="black" d="M1693.9,-231.7C1693.9,-223.98 1693.9,-214.71 1693.9,-206.11"/>
<polygon fill="black" stroke="black" points="1697.4,-206.1 1693.9,-196.1 1690.4,-206.1 1697.4,-206.1"/>
</g>
<!-- legend_0 -->
<g id="node2" class="node">
<title>legend_0</title>
<polygon fill="#b9d3ee" stroke="black" points="2803.4,-268 2582.4,-268 2582.4,-232 2803.4,-232 2803.4,-268"/>
<text text-anchor="middle" x="2692.9" y="-246.3" font-family="Times,serif" font-size="14.00">DT=3 ST=3 Similarity=0.28</text>
</g>
<!-- legend_1 -->
<g id="node6" class="node">
<title>legend_1</title>
<polygon fill="#b9d3ee" stroke="black" points="2803.4,-196 2582.4,-196 2582.4,-160 2803.4,-160 2803.4,-196"/>
<text text-anchor="middle" x="2692.9" y="-174.3" font-family="Times,serif" font-size="14.00">DT=4 ST=1 Similarity=0.42</text>
</g>
<!-- legend_0&#45;&gt;legend_1 -->
<g id="edge4" class="edge">
<title>legend_0&#45;&gt;legend_1</title>
<path fill="none" stroke="black" d="M2692.9,-231.7C2692.9,-223.98 2692.9,-214.71 2692.9,-206.11"/>
<polygon fill="black" stroke="black" points="2696.4,-206.1 2692.9,-196.1 2689.4,-206.1 2696.4,-206.1"/>
</g>
<!-- 20 -->
<g id="node7" class="node">
<title>20</title>
<polygon fill="darkseagreen" stroke="black" points="991.4,-124 956.4,-124 956.4,-88 991.4,-88 991.4,-124"/>
<text text-anchor="middle" x="973.9" y="-102.3" font-family="Times,serif" font-size="14.00">33</text>
</g>
<!-- 10&#45;&gt;20 -->
<g id="edge5" class="edge">
<title>10&#45;&gt;20</title>
<path fill="none" stroke="black" d="M973.9,-159.7C973.9,-151.98 973.9,-142.71 973.9,-134.11"/>
<polygon fill="black" stroke="black" points="977.4,-134.1 973.9,-124.1 970.4,-134.1 977.4,-134.1"/>
</g>
<!-- 22 -->
<g id="node9" class="node">
<title>22</title>
<polygon fill="darkseagreen" stroke="black" points="194.9,-124 122.9,-124 122.9,-88 194.9,-88 194.9,-124"/>
<text text-anchor="middle" x="158.9" y="-102.3" font-family="Times,serif" font-size="14.00">392</text>
</g>
<!-- 10&#45;&gt;22 -->
<g id="edge9" class="edge">
<title>10&#45;&gt;22</title>
<path fill="none" stroke="black" d="M842.05,-165.68C656.22,-149.71 326.43,-121.39 205.24,-110.98"/>
<polygon fill="black" stroke="black" points="205.44,-107.48 195.18,-110.12 204.84,-114.46 205.44,-107.48"/>
</g>
<!-- 24 -->
<g id="node11" class="node">
<title>24</title>
<polygon fill="darkseagreen" stroke="black" points="1371.9,-124 1299.9,-124 1299.9,-88 1371.9,-88 1371.9,-124"/>
<text text-anchor="middle" x="1335.9" y="-102.3" font-family="Times,serif" font-size="14.00">403</text>
</g>
<!-- 10&#45;&gt;24 -->
<g id="edge11" class="edge">
<title>10&#45;&gt;24</title>
<path fill="none" stroke="black" d="M1052.89,-161.72C1125.26,-147.73 1229.94,-127.49 1289.61,-115.95"/>
<polygon fill="black" stroke="black" points="1290.35,-119.37 1299.5,-114.04 1289.02,-112.5 1290.35,-119.37"/>
</g>
<!-- 25 -->
<g id="node12" class="node">
<title>25</title>
<polygon fill="darkseagreen" stroke="black" points="619.9,-124 547.9,-124 547.9,-88 619.9,-88 619.9,-124"/>
<text text-anchor="middle" x="583.9" y="-102.3" font-family="Times,serif" font-size="14.00">391</text>
</g>
<!-- 10&#45;&gt;25 -->
<g id="edge13" class="edge">
<title>10&#45;&gt;25</title>
<path fill="none" stroke="black" d="M890.23,-161.98C810.73,-147.71 694.09,-126.78 630.11,-115.29"/>
<polygon fill="black" stroke="black" points="630.39,-111.79 619.93,-113.47 629.16,-118.68 630.39,-111.79"/>
</g>
<!-- 21 -->
<g id="node8" class="node">
<title>21</title>
<polygon fill="darkseagreen" stroke="black" points="1919.4,-124 1884.4,-124 1884.4,-88 1919.4,-88 1919.4,-124"/>
<text text-anchor="middle" x="1901.9" y="-102.3" font-family="Times,serif" font-size="14.00">31</text>
</g>
<!-- 11&#45;&gt;21 -->
<g id="edge7" class="edge">
<title>11&#45;&gt;21</title>
<path fill="none" stroke="black" d="M1856.29,-161.12C1863.51,-152.54 1872.6,-141.77 1880.75,-132.09"/>
<polygon fill="black" stroke="black" points="1883.56,-134.19 1887.32,-124.29 1878.2,-129.68 1883.56,-134.19"/>
</g>
<!-- 23 -->
<g id="node10" class="node">
<title>23</title>
<polygon fill="darkseagreen" stroke="black" points="2363.9,-124 2291.9,-124 2291.9,-88 2363.9,-88 2363.9,-124"/>
<text text-anchor="middle" x="2327.9" y="-102.3" font-family="Times,serif" font-size="14.00">366</text>
</g>
<!-- 11&#45;&gt;23 -->
<g id="edge10" class="edge">
<title>11&#45;&gt;23</title>
<path fill="none" stroke="black" d="M1877,-172.08C1962.3,-159.77 2184.95,-127.63 2281.8,-113.65"/>
<polygon fill="black" stroke="black" points="2282.47,-117.09 2291.87,-112.2 2281.47,-110.16 2282.47,-117.09"/>
</g>
<!-- 11&#45;&gt;24 -->
<g id="edge12" class="edge">
<title>11&#45;&gt;24</title>
<path fill="none" stroke="black" d="M1809.22,-171.22C1788.88,-167.8 1762.43,-163.47 1738.9,-160 1609.88,-140.98 1457.12,-121.8 1382.13,-112.6"/>
<polygon fill="black" stroke="black" points="1382.43,-109.11 1372.08,-111.37 1381.58,-116.06 1382.43,-109.11"/>
</g>
<!-- 12&#45;&gt;20 -->
<g id="edge6" class="edge">
<title>12&#45;&gt;20</title>
<path fill="none" stroke="black" d="M1658.68,-173.58C1533.82,-161.44 1113.7,-120.59 1001.59,-109.69"/>
<polygon fill="black" stroke="black" points="1001.73,-106.19 991.44,-108.71 1001.05,-113.16 1001.73,-106.19"/>
</g>
<!-- 12&#45;&gt;21 -->
<g id="edge8" class="edge">
<title>12&#45;&gt;21</title>
<path fill="none" stroke="black" d="M1722.82,-167.27C1762.99,-153.75 1835.15,-129.46 1874.49,-116.22"/>
<polygon fill="black" stroke="black" points="1875.85,-119.46 1884.21,-112.95 1873.62,-112.83 1875.85,-119.46"/>
</g>
<!-- 26 -->
<g id="node13" class="node">
<title>26</title>
<polygon fill="darkseagreen" stroke="black" points="1729.9,-124 1657.9,-124 1657.9,-88 1729.9,-88 1729.9,-124"/>
<text text-anchor="middle" x="1693.9" y="-102.3" font-family="Times,serif" font-size="14.00">384</text>
</g>
<!-- 12&#45;&gt;26 -->
<g id="edge14" class="edge">
<title>12&#45;&gt;26</title>
<path fill="none" stroke="black" d="M1693.9,-159.7C1693.9,-151.98 1693.9,-142.71 1693.9,-134.11"/>
<polygon fill="black" stroke="black" points="1697.4,-134.1 1693.9,-124.1 1690.4,-134.1 1697.4,-134.1"/>
</g>
<!-- legend_2 -->
<g id="node14" class="node">
<title>legend_2</title>
<polygon fill="darkseagreen" stroke="black" points="2803.4,-124 2582.4,-124 2582.4,-88 2803.4,-88 2803.4,-124"/>
<text text-anchor="middle" x="2692.9" y="-102.3" font-family="Times,serif" font-size="14.00">DT=5 ST=1 Similarity=0.68</text>
</g>
<!-- legend_1&#45;&gt;legend_2 -->
<g id="edge15" class="edge">
<title>legend_1&#45;&gt;legend_2</title>
<path fill="none" stroke="black" d="M2692.9,-159.7C2692.9,-151.98 2692.9,-142.71 2692.9,-134.11"/>
<polygon fill="black" stroke="black" points="2696.4,-134.1 2692.9,-124.1 2689.4,-134.1 2696.4,-134.1"/>
</g>
<!-- 30 -->
<g id="node15" class="node">
<title>30</title>
<ellipse fill="#b9d3ee" stroke="black" cx="1115.9" cy="-34" rx="16.8" ry="18"/>
<text text-anchor="middle" x="1115.9" y="-30.3" font-family="Times,serif" font-size="14.00">1</text>
</g>
<!-- 20&#45;&gt;30 -->
<g id="edge16" class="edge">
<title>20&#45;&gt;30</title>
<path fill="none" stroke="black" d="M991.59,-97.9C1014.7,-88.4 1056.16,-70.6 1089.9,-52 1091.04,-51.37 1092.2,-50.71 1093.36,-50.02"/>
<polygon fill="black" stroke="black" points="1095.47,-52.83 1102.1,-44.57 1091.77,-46.89 1095.47,-52.83"/>
</g>
<!-- 31 -->
<g id="node16" class="node">
<title>31</title>
<ellipse fill="#b9d3ee" stroke="black" cx="791.9" cy="-34" rx="16.8" ry="18"/>
<text text-anchor="middle" x="791.9" y="-30.3" font-family="Times,serif" font-size="14.00">1</text>
</g>
<!-- 20&#45;&gt;31 -->
<g id="edge17" class="edge">
<title>20&#45;&gt;31</title>
<path fill="none" stroke="black" d="M956.01,-100.51C926.41,-92.72 865.73,-75.3 817.9,-52 816.73,-51.43 815.54,-50.81 814.36,-50.17"/>
<polygon fill="black" stroke="black" points="815.92,-47.02 805.55,-44.85 812.3,-53.01 815.92,-47.02"/>
</g>
<!-- 35 -->
<g id="node20" class="node">
<title>35</title>
<ellipse fill="#b9d3ee" stroke="black" cx="843.9" cy="-34" rx="16.8" ry="18"/>
<text text-anchor="middle" x="843.9" y="-30.3" font-family="Times,serif" font-size="14.00">1</text>
</g>
<!-- 20&#45;&gt;35 -->
<g id="edge21" class="edge">
<title>20&#45;&gt;35</title>
<path fill="none" stroke="black" d="M956.3,-96.75C935.36,-86.77 899.53,-69.17 869.9,-52 868.77,-51.35 867.62,-50.66 866.47,-49.96"/>
<polygon fill="black" stroke="black" points="868.08,-46.84 857.76,-44.46 864.34,-52.76 868.08,-46.84"/>
</g>
<!-- 312 -->
<g id="node27" class="node">
<title>312</title>
<ellipse fill="#b9d3ee" stroke="black" cx="895.9" cy="-34" rx="16.8" ry="18"/>
<text text-anchor="middle" x="895.9" y="-30.3" font-family="Times,serif" font-size="14.00">2</text>
</g>
<!-- 20&#45;&gt;312 -->
<g id="edge28" class="edge">
<title>20&#45;&gt;312</title>
<path fill="none" stroke="black" d="M956.2,-89.12C944.25,-78.39 928.46,-64.22 916.03,-53.07"/>
<polygon fill="black" stroke="black" points="918.21,-50.32 908.43,-46.24 913.53,-55.53 918.21,-50.32"/>
</g>
<!-- 323 -->
<g id="node38" class="node">
<title>323</title>
<ellipse fill="#b9d3ee" stroke="black" cx="947.9" cy="-34" rx="16.8" ry="18"/>
<text text-anchor="middle" x="947.9" y="-30.3" font-family="Times,serif" font-size="14.00">4</text>
</g>
<!-- 20&#45;&gt;323 -->
<g id="edge39" class="edge">
<title>20&#45;&gt;323</title>
<path fill="none" stroke="black" d="M967.47,-87.7C964.46,-79.58 960.8,-69.74 957.47,-60.76"/>
<polygon fill="black" stroke="black" points="960.66,-59.3 953.9,-51.14 954.1,-61.74 960.66,-59.3"/>
</g>
<!-- 329 -->
<g id="node44" class="node">
<title>329</title>
<ellipse fill="#b9d3ee" stroke="black" cx="999.9" cy="-34" rx="16.8" ry="18"/>
<text text-anchor="middle" x="999.9" y="-30.3" font-family="Times,serif" font-size="14.00">9</text>
</g>
<!-- 20&#45;&gt;329 -->
<g id="edge45" class="edge">
<title>20&#45;&gt;329</title>
<path fill="none" stroke="black" d="M980.33,-87.7C983.34,-79.58 987,-69.74 990.33,-60.76"/>
<polygon fill="black" stroke="black" points="993.7,-61.74 993.9,-51.14 987.14,-59.3 993.7,-61.74"/>
</g>
<!-- 333 -->
<g id="node48" class="node">
<title>333</title>
<ellipse fill="#b9d3ee" stroke="black" cx="1057.9" cy="-34" rx="23" ry="18"/>
<text text-anchor="middle" x="1057.9" y="-30.3" font-family="Times,serif" font-size="14.00">15</text>
</g>
<!-- 20&#45;&gt;333 -->
<g id="edge49" class="edge">
<title>20&#45;&gt;333</title>
<path fill="none" stroke="black" d="M991.71,-90.15C1004.24,-79.72 1021.11,-65.66 1034.69,-54.34"/>
<polygon fill="black" stroke="black" points="1037.2,-56.8 1042.64,-47.71 1032.72,-51.43 1037.2,-56.8"/>
</g>
<!-- 39 -->
<g id="node24" class="node">
<title>39</title>
<ellipse fill="#b9d3ee" stroke="black" cx="2017.9" cy="-34" rx="16.8" ry="18"/>
<text text-anchor="middle" x="2017.9" y="-30.3" font-family="Times,serif" font-size="14.00">1</text>
</g>
<!-- 21&#45;&gt;39 -->
<g id="edge25" class="edge">
<title>21&#45;&gt;39</title>
<path fill="none" stroke="black" d="M1919.64,-94.88C1937.89,-84.39 1967.1,-67.4 1991.9,-52 1993.01,-51.31 1994.14,-50.6 1995.28,-49.88"/>
<polygon fill="black" stroke="black" points="1997.43,-52.66 2003.94,-44.3 1993.64,-46.77 1997.43,-52.66"/>
</g>
<!-- 313 -->
<g id="node28" class="node">
<title>313</title>
<ellipse fill="#b9d3ee" stroke="black" cx="2069.9" cy="-34" rx="16.8" ry="18"/>
<text text-anchor="middle" x="2069.9" y="-30.3" font-family="Times,serif" font-size="14.00">2</text>
</g>
<!-- 21&#45;&gt;313 -->
<g id="edge29" class="edge">
<title>21&#45;&gt;313</title>
<path fill="none" stroke="black" d="M1919.47,-99.83C1946.83,-91.48 2000.93,-73.73 2043.9,-52 2045.06,-51.41 2046.24,-50.78 2047.41,-50.13"/>
<polygon fill="black" stroke="black" points="2049.49,-52.96 2056.21,-44.76 2045.85,-46.98 2049.49,-52.96"/>
</g>
<!-- 314 -->
<g id="node29" class="node">
<title>314</title>
<ellipse fill="#b9d3ee" stroke="black" cx="1849.9" cy="-34" rx="16.8" ry="18"/>
<text text-anchor="middle" x="1849.9" y="-30.3" font-family="Times,serif" font-size="14.00">2</text>
</g>
<!-- 21&#45;&gt;314 -->
<g id="edge30" class="edge">
<title>21&#45;&gt;314</title>
<path fill="none" stroke="black" d="M1889.04,-87.7C1882.16,-78.43 1873.6,-66.91 1866.25,-57.01"/>
<polygon fill="black" stroke="black" points="1868.94,-54.76 1860.17,-48.82 1863.32,-58.94 1868.94,-54.76"/>
</g>
<!-- 321 -->
<g id="node36" class="node">
<title>321</title>
<ellipse fill="#b9d3ee" stroke="black" cx="1901.9" cy="-34" rx="16.8" ry="18"/>
<text text-anchor="middle" x="1901.9" y="-30.3" font-family="Times,serif" font-size="14.00">3</text>
</g>
<!-- 21&#45;&gt;321 -->
<g id="edge37" class="edge">
<title>21&#45;&gt;321</title>
<path fill="none" stroke="black" d="M1901.9,-87.7C1901.9,-79.98 1901.9,-70.71 1901.9,-62.11"/>
<polygon fill="black" stroke="black" points="1905.4,-62.1 1901.9,-52.1 1898.4,-62.1 1905.4,-62.1"/>
</g>
<!-- 334 -->
<g id="node49" class="node">
<title>334</title>
<ellipse fill="#b9d3ee" stroke="black" cx="1959.9" cy="-34" rx="23" ry="18"/>
<text text-anchor="middle" x="1959.9" y="-30.3" font-family="Times,serif" font-size="14.00">23</text>
</g>
<!-- 21&#45;&gt;334 -->
<g id="edge50" class="edge">
<title>21&#45;&gt;334</title>
<path fill="none" stroke="black" d="M1916.24,-87.7C1923.78,-78.59 1933.13,-67.31 1941.24,-57.52"/>
<polygon fill="black" stroke="black" points="1944,-59.67 1947.69,-49.74 1938.61,-55.21 1944,-59.67"/>
</g>
<!-- 37 -->
<g id="node22" class="node">
<title>37</title>
<ellipse fill="#b9d3ee" stroke="black" cx="16.9" cy="-34" rx="16.8" ry="18"/>
<text text-anchor="middle" x="16.9" y="-30.3" font-family="Times,serif" font-size="14.00">1</text>
</g>
<!-- 22&#45;&gt;37 -->
<g id="edge23" class="edge">
<title>22&#45;&gt;37</title>
<path fill="none" stroke="black" d="M122.68,-90.12C99.45,-80.17 68.88,-66.32 42.9,-52 41.76,-51.37 40.6,-50.71 39.44,-50.02"/>
<polygon fill="black" stroke="black" points="41.03,-46.89 30.69,-44.57 37.33,-52.83 41.03,-46.89"/>
</g>
<!-- 322 -->
<g id="node37" class="node">
<title>322</title>
<ellipse fill="#b9d3ee" stroke="black" cx="68.9" cy="-34" rx="16.8" ry="18"/>
<text text-anchor="middle" x="68.9" y="-30.3" font-family="Times,serif" font-size="14.00">4</text>
</g>
<!-- 22&#45;&gt;322 -->
<g id="edge38" class="edge">
<title>22&#45;&gt;322</title>
<path fill="none" stroke="black" d="M136.65,-87.7C122.51,-76.7 104.31,-62.54 90.33,-51.67"/>
<polygon fill="black" stroke="black" points="92.29,-48.76 82.24,-45.38 87.99,-54.28 92.29,-48.76"/>
</g>
<!-- 336 -->
<g id="node51" class="node">
<title>336</title>
<ellipse fill="#b9d3ee" stroke="black" cx="126.9" cy="-34" rx="23" ry="18"/>
<text text-anchor="middle" x="126.9" y="-30.3" font-family="Times,serif" font-size="14.00">48</text>
</g>
<!-- 22&#45;&gt;336 -->
<g id="edge52" class="edge">
<title>22&#45;&gt;336</title>
<path fill="none" stroke="black" d="M150.99,-87.7C147.24,-79.49 142.68,-69.52 138.54,-60.48"/>
<polygon fill="black" stroke="black" points="141.62,-58.78 134.28,-51.14 135.25,-61.69 141.62,-58.78"/>
</g>
<!-- 337 -->
<g id="node52" class="node">
<title>337</title>
<ellipse fill="#b9d3ee" stroke="black" cx="189.9" cy="-34" rx="23" ry="18"/>
<text text-anchor="middle" x="189.9" y="-30.3" font-family="Times,serif" font-size="14.00">68</text>
</g>
<!-- 22&#45;&gt;337 -->
<g id="edge53" class="edge">
<title>22&#45;&gt;337</title>
<path fill="none" stroke="black" d="M166.56,-87.7C170.2,-79.49 174.61,-69.52 178.62,-60.48"/>
<polygon fill="black" stroke="black" points="181.9,-61.71 182.75,-51.14 175.5,-58.87 181.9,-61.71"/>
</g>
<!-- 340 -->
<g id="node55" class="node">
<title>340</title>
<ellipse fill="#b9d3ee" stroke="black" cx="266.9" cy="-34" rx="36" ry="18"/>
<text text-anchor="middle" x="266.9" y="-30.3" font-family="Times,serif" font-size="14.00">271</text>
</g>
<!-- 22&#45;&gt;340 -->
<g id="edge56" class="edge">
<title>22&#45;&gt;340</title>
<path fill="none" stroke="black" d="M185.32,-87.88C201.02,-77.7 220.97,-64.77 237.22,-54.24"/>
<polygon fill="black" stroke="black" points="239.32,-57.04 245.81,-48.67 235.51,-51.17 239.32,-57.04"/>
</g>
<!-- 34 -->
<g id="node19" class="node">
<title>34</title>
<ellipse fill="#b9d3ee" stroke="black" cx="2275.9" cy="-34" rx="16.8" ry="18"/>
<text text-anchor="middle" x="2275.9" y="-30.3" font-family="Times,serif" font-size="14.00">1</text>
</g>
<!-- 23&#45;&gt;34 -->
<g id="edge20" class="edge">
<title>23&#45;&gt;34</title>
<path fill="none" stroke="black" d="M2315.04,-87.7C2308.16,-78.43 2299.6,-66.91 2292.25,-57.01"/>
<polygon fill="black" stroke="black" points="2294.94,-54.76 2286.17,-48.82 2289.32,-58.94 2294.94,-54.76"/>
</g>
<!-- 310 -->
<g id="node25" class="node">
<title>310</title>
<ellipse fill="#b9d3ee" stroke="black" cx="2327.9" cy="-34" rx="16.8" ry="18"/>
<text text-anchor="middle" x="2327.9" y="-30.3" font-family="Times,serif" font-size="14.00">1</text>
</g>
<!-- 23&#45;&gt;310 -->
<g id="edge26" class="edge">
<title>23&#45;&gt;310</title>
<path fill="none" stroke="black" d="M2327.9,-87.7C2327.9,-79.98 2327.9,-70.71 2327.9,-62.11"/>
<polygon fill="black" stroke="black" points="2331.4,-62.1 2327.9,-52.1 2324.4,-62.1 2331.4,-62.1"/>
</g>
<!-- 315 -->
<g id="node30" class="node">
<title>315</title>
<ellipse fill="#b9d3ee" stroke="black" cx="2379.9" cy="-34" rx="16.8" ry="18"/>
<text text-anchor="middle" x="2379.9" y="-30.3" font-family="Times,serif" font-size="14.00">2</text>
</g>
<!-- 23&#45;&gt;315 -->
<g id="edge31" class="edge">
<title>23&#45;&gt;315</title>
<path fill="none" stroke="black" d="M2340.75,-87.7C2347.64,-78.43 2356.19,-66.91 2363.55,-57.01"/>
<polygon fill="black" stroke="black" points="2366.48,-58.94 2369.63,-48.82 2360.86,-54.76 2366.48,-58.94"/>
</g>
<!-- 317 -->
<g id="node32" class="node">
<title>317</title>
<ellipse fill="#b9d3ee" stroke="black" cx="2431.9" cy="-34" rx="16.8" ry="18"/>
<text text-anchor="middle" x="2431.9" y="-30.3" font-family="Times,serif" font-size="14.00">2</text>
</g>
<!-- 23&#45;&gt;317 -->
<g id="edge33" class="edge">
<title>23&#45;&gt;317</title>
<path fill="none" stroke="black" d="M2353.34,-87.88C2370.49,-76.33 2392.91,-61.24 2409.4,-50.14"/>
<polygon fill="black" stroke="black" points="2411.55,-52.92 2417.89,-44.43 2407.64,-47.11 2411.55,-52.92"/>
</g>
<!-- 318 -->
<g id="node33" class="node">
<title>318</title>
<ellipse fill="#b9d3ee" stroke="black" cx="2483.9" cy="-34" rx="16.8" ry="18"/>
<text text-anchor="middle" x="2483.9" y="-30.3" font-family="Times,serif" font-size="14.00">2</text>
</g>
<!-- 23&#45;&gt;318 -->
<g id="edge34" class="edge">
<title>23&#45;&gt;318</title>
<path fill="none" stroke="black" d="M2364.04,-92.39C2390.6,-82.63 2427.25,-68.08 2457.9,-52 2459.05,-51.39 2460.22,-50.75 2461.39,-50.08"/>
<polygon fill="black" stroke="black" points="2463.48,-52.91 2470.16,-44.68 2459.81,-46.95 2463.48,-52.91"/>
</g>
<!-- 331 -->
<g id="node46" class="node">
<title>331</title>
<ellipse fill="#b9d3ee" stroke="black" cx="2541.9" cy="-34" rx="23" ry="18"/>
<text text-anchor="middle" x="2541.9" y="-30.3" font-family="Times,serif" font-size="14.00">10</text>
</g>
<!-- 23&#45;&gt;331 -->
<g id="edge47" class="edge">
<title>23&#45;&gt;331</title>
<path fill="none" stroke="black" d="M2364.21,-96.76C2401.48,-87.76 2460.81,-71.94 2509.9,-52 2511.5,-51.35 2513.13,-50.64 2514.76,-49.9"/>
<polygon fill="black" stroke="black" points="2516.51,-52.93 2523.93,-45.37 2513.42,-46.66 2516.51,-52.93"/>
</g>
<!-- 335 -->
<g id="node50" class="node">
<title>335</title>
<ellipse fill="#b9d3ee" stroke="black" cx="2127.9" cy="-34" rx="23" ry="18"/>
<text text-anchor="middle" x="2127.9" y="-30.3" font-family="Times,serif" font-size="14.00">26</text>
</g>
<!-- 23&#45;&gt;335 -->
<g id="edge51" class="edge">
<title>23&#45;&gt;335</title>
<path fill="none" stroke="black" d="M2291.82,-95.68C2257.34,-86.29 2204.18,-70.56 2159.9,-52 2158.3,-51.33 2156.68,-50.61 2155.06,-49.86"/>
<polygon fill="black" stroke="black" points="2156.41,-46.62 2145.9,-45.3 2153.29,-52.89 2156.41,-46.62"/>
</g>
<!-- 341 -->
<g id="node56" class="node">
<title>341</title>
<ellipse fill="#b9d3ee" stroke="black" cx="2204.9" cy="-34" rx="36" ry="18"/>
<text text-anchor="middle" x="2204.9" y="-30.3" font-family="Times,serif" font-size="14.00">322</text>
</g>
<!-- 23&#45;&gt;341 -->
<g id="edge57" class="edge">
<title>23&#45;&gt;341</title>
<path fill="none" stroke="black" d="M2297.81,-87.88C2279.23,-77.3 2255.42,-63.75 2236.56,-53.02"/>
<polygon fill="black" stroke="black" points="2238.16,-49.9 2227.74,-48 2234.7,-55.99 2238.16,-49.9"/>
</g>
<!-- 324 -->
<g id="node39" class="node">
<title>324</title>
<ellipse fill="#b9d3ee" stroke="black" cx="1257.9" cy="-34" rx="16.8" ry="18"/>
<text text-anchor="middle" x="1257.9" y="-30.3" font-family="Times,serif" font-size="14.00">4</text>
</g>
<!-- 24&#45;&gt;324 -->
<g id="edge40" class="edge">
<title>24&#45;&gt;324</title>
<path fill="none" stroke="black" d="M1316.62,-87.7C1304.89,-77.17 1289.93,-63.75 1278.05,-53.08"/>
<polygon fill="black" stroke="black" points="1280.17,-50.28 1270.39,-46.21 1275.49,-55.49 1280.17,-50.28"/>
</g>
<!-- 327 -->
<g id="node42" class="node">
<title>327</title>
<ellipse fill="#b9d3ee" stroke="black" cx="1309.9" cy="-34" rx="16.8" ry="18"/>
<text text-anchor="middle" x="1309.9" y="-30.3" font-family="Times,serif" font-size="14.00">5</text>
</g>
<!-- 24&#45;&gt;327 -->
<g id="edge43" class="edge">
<title>24&#45;&gt;327</title>
<path fill="none" stroke="black" d="M1329.47,-87.7C1326.46,-79.58 1322.8,-69.74 1319.47,-60.76"/>
<polygon fill="black" stroke="black" points="1322.66,-59.3 1315.9,-51.14 1316.1,-61.74 1322.66,-59.3"/>
</g>
<!-- 330 -->
<g id="node45" class="node">
<title>330</title>
<ellipse fill="#b9d3ee" stroke="black" cx="1361.9" cy="-34" rx="16.8" ry="18"/>
<text text-anchor="middle" x="1361.9" y="-30.3" font-family="Times,serif" font-size="14.00">9</text>
</g>
<!-- 24&#45;&gt;330 -->
<g id="edge46" class="edge">
<title>24&#45;&gt;330</title>
<path fill="none" stroke="black" d="M1342.33,-87.7C1345.34,-79.58 1349,-69.74 1352.33,-60.76"/>
<polygon fill="black" stroke="black" points="1355.7,-61.74 1355.9,-51.14 1349.14,-59.3 1355.7,-61.74"/>
</g>
<!-- 332 -->
<g id="node47" class="node">
<title>332</title>
<ellipse fill="#b9d3ee" stroke="black" cx="1419.9" cy="-34" rx="23" ry="18"/>
<text text-anchor="middle" x="1419.9" y="-30.3" font-family="Times,serif" font-size="14.00">13</text>
</g>
<!-- 24&#45;&gt;332 -->
<g id="edge48" class="edge">
<title>24&#45;&gt;332</title>
<path fill="none" stroke="black" d="M1356.66,-87.7C1368.86,-77.53 1384.29,-64.67 1396.86,-54.2"/>
<polygon fill="black" stroke="black" points="1399.2,-56.8 1404.65,-47.71 1394.72,-51.42 1399.2,-56.8"/>
</g>
<!-- 338 -->
<g id="node53" class="node">
<title>338</title>
<ellipse fill="#b9d3ee" stroke="black" cx="1488.9" cy="-34" rx="28.7" ry="18"/>
<text text-anchor="middle" x="1488.9" y="-30.3" font-family="Times,serif" font-size="14.00">104</text>
</g>
<!-- 24&#45;&gt;338 -->
<g id="edge54" class="edge">
<title>24&#45;&gt;338</title>
<path fill="none" stroke="black" d="M1371.96,-88.55C1394.86,-78.09 1425.13,-64.27 1451.9,-52 1453.49,-51.27 1455.12,-50.52 1456.76,-49.77"/>
<polygon fill="black" stroke="black" points="1458.58,-52.79 1466.2,-45.44 1455.66,-46.43 1458.58,-52.79"/>
</g>
<!-- 339 -->
<g id="node54" class="node">
<title>339</title>
<ellipse fill="#b9d3ee" stroke="black" cx="1186.9" cy="-34" rx="36" ry="18"/>
<text text-anchor="middle" x="1186.9" y="-30.3" font-family="Times,serif" font-size="14.00">268</text>
</g>
<!-- 24&#45;&gt;339 -->
<g id="edge55" class="edge">
<title>24&#45;&gt;339</title>
<path fill="none" stroke="black" d="M1299.83,-88.05C1276.06,-76.89 1245.1,-62.35 1221.62,-51.31"/>
<polygon fill="black" stroke="black" points="1222.91,-48.05 1212.37,-46.97 1219.93,-54.39 1222.91,-48.05"/>
</g>
<!-- 32 -->
<g id="node17" class="node">
<title>32</title>
<ellipse fill="#b9d3ee" stroke="black" cx="531.9" cy="-34" rx="16.8" ry="18"/>
<text text-anchor="middle" x="531.9" y="-30.3" font-family="Times,serif" font-size="14.00">1</text>
</g>
<!-- 25&#45;&gt;32 -->
<g id="edge18" class="edge">
<title>25&#45;&gt;32</title>
<path fill="none" stroke="black" d="M571.04,-87.7C564.16,-78.43 555.6,-66.91 548.25,-57.01"/>
<polygon fill="black" stroke="black" points="550.94,-54.76 542.17,-48.82 545.32,-58.94 550.94,-54.76"/>
</g>
<!-- 33 -->
<g id="node18" class="node">
<title>33</title>
<ellipse fill="#b9d3ee" stroke="black" cx="583.9" cy="-34" rx="16.8" ry="18"/>
<text text-anchor="middle" x="583.9" y="-30.3" font-family="Times,serif" font-size="14.00">1</text>
</g>
<!-- 25&#45;&gt;33 -->
<g id="edge19" class="edge">
<title>25&#45;&gt;33</title>
<path fill="none" stroke="black" d="M583.9,-87.7C583.9,-79.98 583.9,-70.71 583.9,-62.11"/>
<polygon fill="black" stroke="black" points="587.4,-62.1 583.9,-52.1 580.4,-62.1 587.4,-62.1"/>
</g>
<!-- 311 -->
<g id="node26" class="node">
<title>311</title>
<ellipse fill="#b9d3ee" stroke="black" cx="635.9" cy="-34" rx="16.8" ry="18"/>
<text text-anchor="middle" x="635.9" y="-30.3" font-family="Times,serif" font-size="14.00">1</text>
</g>
<!-- 25&#45;&gt;311 -->
<g id="edge27" class="edge">
<title>25&#45;&gt;311</title>
<path fill="none" stroke="black" d="M596.75,-87.7C603.64,-78.43 612.19,-66.91 619.55,-57.01"/>
<polygon fill="black" stroke="black" points="622.48,-58.94 625.63,-48.82 616.86,-54.76 622.48,-58.94"/>
</g>
<!-- 316 -->
<g id="node31" class="node">
<title>316</title>
<ellipse fill="#b9d3ee" stroke="black" cx="687.9" cy="-34" rx="16.8" ry="18"/>
<text text-anchor="middle" x="687.9" y="-30.3" font-family="Times,serif" font-size="14.00">2</text>
</g>
<!-- 25&#45;&gt;316 -->
<g id="edge32" class="edge">
<title>25&#45;&gt;316</title>
<path fill="none" stroke="black" d="M609.34,-87.88C626.49,-76.33 648.91,-61.24 665.4,-50.14"/>
<polygon fill="black" stroke="black" points="667.55,-52.92 673.89,-44.43 663.64,-47.11 667.55,-52.92"/>
</g>
<!-- 319 -->
<g id="node34" class="node">
<title>319</title>
<ellipse fill="#b9d3ee" stroke="black" cx="739.9" cy="-34" rx="16.8" ry="18"/>
<text text-anchor="middle" x="739.9" y="-30.3" font-family="Times,serif" font-size="14.00">3</text>
</g>
<!-- 25&#45;&gt;319 -->
<g id="edge35" class="edge">
<title>25&#45;&gt;319</title>
<path fill="none" stroke="black" d="M620.04,-92.39C646.6,-82.63 683.25,-68.08 713.9,-52 715.05,-51.39 716.22,-50.75 717.39,-50.08"/>
<polygon fill="black" stroke="black" points="719.48,-52.91 726.16,-44.68 715.81,-46.95 719.48,-52.91"/>
</g>
<!-- 325 -->
<g id="node40" class="node">
<title>325</title>
<ellipse fill="#b9d3ee" stroke="black" cx="337.9" cy="-34" rx="16.8" ry="18"/>
<text text-anchor="middle" x="337.9" y="-30.3" font-family="Times,serif" font-size="14.00">4</text>
</g>
<!-- 25&#45;&gt;325 -->
<g id="edge41" class="edge">
<title>25&#45;&gt;325</title>
<path fill="none" stroke="black" d="M547.64,-100.16C503.01,-93.34 425.57,-78.64 363.9,-52 362.7,-51.48 361.5,-50.91 360.3,-50.3"/>
<polygon fill="black" stroke="black" points="361.83,-47.14 351.43,-45.1 358.29,-53.18 361.83,-47.14"/>
</g>
<!-- 328 -->
<g id="node43" class="node">
<title>328</title>
<ellipse fill="#b9d3ee" stroke="black" cx="389.9" cy="-34" rx="16.8" ry="18"/>
<text text-anchor="middle" x="389.9" y="-30.3" font-family="Times,serif" font-size="14.00">7</text>
</g>
<!-- 25&#45;&gt;328 -->
<g id="edge44" class="edge">
<title>25&#45;&gt;328</title>
<path fill="none" stroke="black" d="M547.76,-96.66C512.99,-87.93 459.43,-72.62 415.9,-52 414.72,-51.44 413.53,-50.84 412.35,-50.2"/>
<polygon fill="black" stroke="black" points="413.9,-47.05 403.52,-44.91 410.3,-53.05 413.9,-47.05"/>
</g>
<!-- 342 -->
<g id="node57" class="node">
<title>342</title>
<ellipse fill="#b9d3ee" stroke="black" cx="460.9" cy="-34" rx="36" ry="18"/>
<text text-anchor="middle" x="460.9" y="-30.3" font-family="Times,serif" font-size="14.00">372</text>
</g>
<!-- 25&#45;&gt;342 -->
<g id="edge58" class="edge">
<title>25&#45;&gt;342</title>
<path fill="none" stroke="black" d="M553.81,-87.88C535.23,-77.3 511.42,-63.75 492.56,-53.02"/>
<polygon fill="black" stroke="black" points="494.16,-49.9 483.74,-48 490.7,-55.99 494.16,-49.9"/>
</g>
<!-- 36 -->
<g id="node21" class="node">
<title>36</title>
<ellipse fill="#b9d3ee" stroke="black" cx="1693.9" cy="-34" rx="16.8" ry="18"/>
<text text-anchor="middle" x="1693.9" y="-30.3" font-family="Times,serif" font-size="14.00">1</text>
</g>
<!-- 26&#45;&gt;36 -->
<g id="edge22" class="edge">
<title>26&#45;&gt;36</title>
<path fill="none" stroke="black" d="M1693.9,-87.7C1693.9,-79.98 1693.9,-70.71 1693.9,-62.11"/>
<polygon fill="black" stroke="black" points="1697.4,-62.1 1693.9,-52.1 1690.4,-62.1 1697.4,-62.1"/>
</g>
<!-- 38 -->
<g id="node23" class="node">
<title>38</title>
<ellipse fill="#b9d3ee" stroke="black" cx="1745.9" cy="-34" rx="16.8" ry="18"/>
<text text-anchor="middle" x="1745.9" y="-30.3" font-family="Times,serif" font-size="14.00">1</text>
</g>
<!-- 26&#45;&gt;38 -->
<g id="edge24" class="edge">
<title>26&#45;&gt;38</title>
<path fill="none" stroke="black" d="M1706.75,-87.7C1713.64,-78.43 1722.19,-66.91 1729.55,-57.01"/>
<polygon fill="black" stroke="black" points="1732.48,-58.94 1735.63,-48.82 1726.86,-54.76 1732.48,-58.94"/>
</g>
<!-- 320 -->
<g id="node35" class="node">
<title>320</title>
<ellipse fill="#b9d3ee" stroke="black" cx="1797.9" cy="-34" rx="16.8" ry="18"/>
<text text-anchor="middle" x="1797.9" y="-30.3" font-family="Times,serif" font-size="14.00">3</text>
</g>
<!-- 26&#45;&gt;320 -->
<g id="edge36" class="edge">
<title>26&#45;&gt;320</title>
<path fill="none" stroke="black" d="M1719.34,-87.88C1736.49,-76.33 1758.91,-61.24 1775.4,-50.14"/>
<polygon fill="black" stroke="black" points="1777.55,-52.92 1783.89,-44.43 1773.64,-47.11 1777.55,-52.92"/>
</g>
<!-- 326 -->
<g id="node41" class="node">
<title>326</title>
<ellipse fill="#b9d3ee" stroke="black" cx="1551.9" cy="-34" rx="16.8" ry="18"/>
<text text-anchor="middle" x="1551.9" y="-30.3" font-family="Times,serif" font-size="14.00">5</text>
</g>
<!-- 26&#45;&gt;326 -->
<g id="edge42" class="edge">
<title>26&#45;&gt;326</title>
<path fill="none" stroke="black" d="M1657.68,-90.12C1634.45,-80.17 1603.88,-66.32 1577.9,-52 1576.76,-51.37 1575.6,-50.71 1574.44,-50.02"/>
<polygon fill="black" stroke="black" points="1576.03,-46.89 1565.69,-44.57 1572.33,-52.83 1576.03,-46.89"/>
</g>
<!-- 343 -->
<g id="node58" class="node">
<title>343</title>
<ellipse fill="#b9d3ee" stroke="black" cx="1622.9" cy="-34" rx="36" ry="18"/>
<text text-anchor="middle" x="1622.9" y="-30.3" font-family="Times,serif" font-size="14.00">374</text>
</g>
<!-- 26&#45;&gt;343 -->
<g id="edge59" class="edge">
<title>26&#45;&gt;343</title>
<path fill="none" stroke="black" d="M1676.35,-87.7C1667.19,-78.66 1655.86,-67.5 1645.99,-57.77"/>
<polygon fill="black" stroke="black" points="1648.37,-55.2 1638.79,-50.67 1643.46,-60.18 1648.37,-55.2"/>
</g>
<!-- legend_3 -->
<g id="node59" class="node">
<title>legend_3</title>
<polygon fill="#b9d3ee" stroke="black" points="2803.4,-52 2582.4,-52 2582.4,-16 2803.4,-16 2803.4,-52"/>
<text text-anchor="middle" x="2692.9" y="-30.3" font-family="Times,serif" font-size="14.00">DT=6 ST=1 Similarity=0.55</text>
</g>
<!-- legend_2&#45;&gt;legend_3 -->
<g id="edge60" class="edge">
<title>legend_2&#45;&gt;legend_3</title>
<path fill="none" stroke="black" d="M2692.9,-87.7C2692.9,-79.98 2692.9,-70.71 2692.9,-62.11"/>
<polygon fill="black" stroke="black" points="2696.4,-62.1 2692.9,-52.1 2689.4,-62.1 2696.4,-62.1"/>
</g>
</g>
</svg>
