<?xml version="1.0" encoding="UTF-8" standalone="no"?>
<!DOCTYPE svg PUBLIC "-//W3C//DTD SVG 1.1//EN"
 "http://www.w3.org/Graphics/SVG/1.1/DTD/svg11.dtd">
<!-- Generated by graphviz version 2.43.0 (0)
 -->
<!-- Title: %3 Pages: 1 -->
<svg width="2769pt" height="425pt"
 viewBox="0.00 0.00 2768.90 425.00" xmlns="http://www.w3.org/2000/svg" xmlns:xlink="http://www.w3.org/1999/xlink">
<g id="graph0" class="graph" transform="scale(1 1) rotate(0) translate(4 421)">
<title>%3</title>
<polygon fill="white" stroke="transparent" points="-4,4 -4,-421 2764.9,-421 2764.9,4 -4,4"/>
<text text-anchor="middle" x="1380.45" y="-401.8" font-family="Times,serif" font-size="14.00">ConsTree</text>
<text text-anchor="middle" x="1380.45" y="-386.8" font-family="Times,serif" font-size="14.00">Tree Quality = 0.8333333333333334</text>
<g id="clust1" class="cluster">
<title>cluster</title>
<polygon fill="none" stroke="black" points="2516.9,-8 2516.9,-371 2752.9,-371 2752.9,-8 2516.9,-8"/>
<text text-anchor="middle" x="2634.9" y="-355.8" font-family="Times,serif" font-size="14.00">Legend</text>
</g>
<!-- 00 -->
<g id="node1" class="node">
<title>00</title>
<ellipse fill="#b9d3ee" stroke="black" cx="1127.9" cy="-322" rx="324" ry="18"/>
<text text-anchor="middle" x="1127.9" y="-318.3" font-family="Times,serif" font-size="14.00">2000</text>
</g>
<!-- 10 -->
<g id="node3" class="node">
<title>10</title>
<ellipse fill="#b9d3ee" stroke="black" cx="1603.9" cy="-250" rx="36" ry="18"/>
<text text-anchor="middle" x="1603.9" y="-246.3" font-family="Times,serif" font-size="14.00">399</text>
</g>
<!-- 00&#45;&gt;10 -->
<g id="edge1" class="edge">
<title>00&#45;&gt;10</title>
<path fill="none" stroke="black" d="M1236.51,-305.03C1338.63,-290.01 1486.43,-268.28 1559.52,-257.53"/>
<polygon fill="black" stroke="black" points="1560.37,-260.94 1569.75,-256.02 1559.35,-254.01 1560.37,-260.94"/>
</g>
<!-- 11 -->
<g id="node4" class="node">
<title>11</title>
<ellipse fill="#b9d3ee" stroke="black" cx="897.9" cy="-250" rx="36" ry="18"/>
<text text-anchor="middle" x="897.9" y="-246.3" font-family="Times,serif" font-size="14.00">426</text>
</g>
<!-- 00&#45;&gt;11 -->
<g id="edge2" class="edge">
<title>00&#45;&gt;11</title>
<path fill="none" stroke="black" d="M1072.81,-304.23C1031.26,-291.59 975.25,-274.54 937.92,-263.18"/>
<polygon fill="black" stroke="black" points="938.5,-259.7 927.91,-260.13 936.46,-266.39 938.5,-259.7"/>
</g>
<!-- 12 -->
<g id="node5" class="node">
<title>12</title>
<ellipse fill="#b9d3ee" stroke="black" cx="1208.9" cy="-250" rx="108" ry="18"/>
<text text-anchor="middle" x="1208.9" y="-246.3" font-family="Times,serif" font-size="14.00">774</text>
</g>
<!-- 00&#45;&gt;12 -->
<g id="edge3" class="edge">
<title>00&#45;&gt;12</title>
<path fill="none" stroke="black" d="M1147.92,-303.7C1158.1,-294.9 1170.62,-284.08 1181.66,-274.54"/>
<polygon fill="black" stroke="black" points="1184.11,-277.05 1189.39,-267.86 1179.53,-271.75 1184.11,-277.05"/>
</g>
<!-- 13 -->
<g id="node6" class="node">
<title>13</title>
<ellipse fill="#b9d3ee" stroke="black" cx="1046.9" cy="-250" rx="36" ry="18"/>
<text text-anchor="middle" x="1046.9" y="-246.3" font-family="Times,serif" font-size="14.00">401</text>
</g>
<!-- 00&#45;&gt;13 -->
<g id="edge4" class="edge">
<title>00&#45;&gt;13</title>
<path fill="none" stroke="black" d="M1107.88,-303.7C1096.99,-294.29 1083.42,-282.57 1071.85,-272.57"/>
<polygon fill="black" stroke="black" points="1074.08,-269.86 1064.22,-265.97 1069.5,-275.16 1074.08,-269.86"/>
</g>
<!-- legend_0 -->
<g id="node2" class="node">
<title>legend_0</title>
<polygon fill="#b9d3ee" stroke="black" points="2745.4,-340 2524.4,-340 2524.4,-304 2745.4,-304 2745.4,-340"/>
<text text-anchor="middle" x="2634.9" y="-318.3" font-family="Times,serif" font-size="14.00">DT=2 ST=2 Similarity=0.28</text>
</g>
<!-- legend_1 -->
<g id="node7" class="node">
<title>legend_1</title>
<polygon fill="#b9d3ee" stroke="black" points="2745.4,-268 2524.4,-268 2524.4,-232 2745.4,-232 2745.4,-268"/>
<text text-anchor="middle" x="2634.9" y="-246.3" font-family="Times,serif" font-size="14.00">DT=3 ST=1 Similarity=0.62</text>
</g>
<!-- legend_0&#45;&gt;legend_1 -->
<g id="edge5" class="edge">
<title>legend_0&#45;&gt;legend_1</title>
<path fill="none" stroke="black" d="M2634.9,-303.7C2634.9,-295.98 2634.9,-286.71 2634.9,-278.11"/>
<polygon fill="black" stroke="black" points="2638.4,-278.1 2634.9,-268.1 2631.4,-278.1 2638.4,-278.1"/>
</g>
<!-- 21 -->
<g id="node9" class="node">
<title>21</title>
<polygon fill="darkseagreen" stroke="black" points="1738.9,-196 1666.9,-196 1666.9,-160 1738.9,-160 1738.9,-196"/>
<text text-anchor="middle" x="1702.9" y="-174.3" font-family="Times,serif" font-size="14.00">399</text>
</g>
<!-- 10&#45;&gt;21 -->
<g id="edge7" class="edge">
<title>10&#45;&gt;21</title>
<path fill="none" stroke="black" d="M1623.93,-234.83C1637.28,-225.4 1655.12,-212.78 1670.47,-201.93"/>
<polygon fill="black" stroke="black" points="1672.55,-204.74 1678.7,-196.11 1668.51,-199.03 1672.55,-204.74"/>
</g>
<!-- 20 -->
<g id="node8" class="node">
<title>20</title>
<polygon fill="darkseagreen" stroke="black" points="500.9,-196 474.9,-196 474.9,-160 500.9,-160 500.9,-196"/>
<text text-anchor="middle" x="487.9" y="-174.3" font-family="Times,serif" font-size="14.00">1</text>
</g>
<!-- 11&#45;&gt;20 -->
<g id="edge6" class="edge">
<title>11&#45;&gt;20</title>
<path fill="none" stroke="black" d="M864.35,-243.27C783.73,-229.51 580.69,-194.84 511.45,-183.02"/>
<polygon fill="black" stroke="black" points="511.62,-179.5 501.18,-181.27 510.45,-186.4 511.62,-179.5"/>
</g>
<!-- 22 -->
<g id="node10" class="node">
<title>22</title>
<polygon fill="darkseagreen" stroke="black" points="772.9,-196 700.9,-196 700.9,-160 772.9,-160 772.9,-196"/>
<text text-anchor="middle" x="736.9" y="-174.3" font-family="Times,serif" font-size="14.00">398</text>
</g>
<!-- 11&#45;&gt;22 -->
<g id="edge8" class="edge">
<title>11&#45;&gt;22</title>
<path fill="none" stroke="black" d="M871.67,-237.6C847.58,-227.12 811.34,-211.36 782.5,-198.83"/>
<polygon fill="black" stroke="black" points="783.6,-195.49 773.04,-194.71 780.81,-201.91 783.6,-195.49"/>
</g>
<!-- 23 -->
<g id="node11" class="node">
<title>23</title>
<polygon fill="darkseagreen" stroke="black" points="1208.9,-196 1136.9,-196 1136.9,-160 1208.9,-160 1208.9,-196"/>
<text text-anchor="middle" x="1172.9" y="-174.3" font-family="Times,serif" font-size="14.00">390</text>
</g>
<!-- 11&#45;&gt;23 -->
<g id="edge9" class="edge">
<title>11&#45;&gt;23</title>
<path fill="none" stroke="black" d="M929.18,-241.04C977.55,-228.73 1070.77,-205 1126.85,-190.72"/>
<polygon fill="black" stroke="black" points="1128.04,-194.03 1136.87,-188.17 1126.32,-187.25 1128.04,-194.03"/>
</g>
<!-- 12&#45;&gt;23 -->
<g id="edge10" class="edge">
<title>12&#45;&gt;23</title>
<path fill="none" stroke="black" d="M1200.18,-232.05C1196.04,-224.01 1191,-214.2 1186.39,-205.23"/>
<polygon fill="black" stroke="black" points="1189.47,-203.57 1181.78,-196.28 1183.24,-206.77 1189.47,-203.57"/>
</g>
<!-- 24 -->
<g id="node12" class="node">
<title>24</title>
<polygon fill="darkseagreen" stroke="black" points="1478.9,-196 1406.9,-196 1406.9,-160 1478.9,-160 1478.9,-196"/>
<text text-anchor="middle" x="1442.9" y="-174.3" font-family="Times,serif" font-size="14.00">411</text>
</g>
<!-- 12&#45;&gt;24 -->
<g id="edge11" class="edge">
<title>12&#45;&gt;24</title>
<path fill="none" stroke="black" d="M1259.1,-233.98C1300.07,-221.72 1357.49,-204.55 1397.2,-192.67"/>
<polygon fill="black" stroke="black" points="1398.32,-195.99 1406.89,-189.77 1396.31,-189.28 1398.32,-195.99"/>
</g>
<!-- 25 -->
<g id="node13" class="node">
<title>25</title>
<polygon fill="darkseagreen" stroke="black" points="1082.9,-196 1010.9,-196 1010.9,-160 1082.9,-160 1082.9,-196"/>
<text text-anchor="middle" x="1046.9" y="-174.3" font-family="Times,serif" font-size="14.00">401</text>
</g>
<!-- 13&#45;&gt;25 -->
<g id="edge12" class="edge">
<title>13&#45;&gt;25</title>
<path fill="none" stroke="black" d="M1046.9,-231.7C1046.9,-223.98 1046.9,-214.71 1046.9,-206.11"/>
<polygon fill="black" stroke="black" points="1050.4,-206.1 1046.9,-196.1 1043.4,-206.1 1050.4,-206.1"/>
</g>
<!-- legend_2 -->
<g id="node14" class="node">
<title>legend_2</title>
<polygon fill="darkseagreen" stroke="black" points="2745.4,-196 2524.4,-196 2524.4,-160 2745.4,-160 2745.4,-196"/>
<text text-anchor="middle" x="2634.9" y="-174.3" font-family="Times,serif" font-size="14.00">DT=4 ST=1 Similarity=0.67</text>
</g>
<!-- legend_1&#45;&gt;legend_2 -->
<g id="edge13" class="edge">
<title>legend_1&#45;&gt;legend_2</title>
<path fill="none" stroke="black" d="M2634.9,-231.7C2634.9,-223.98 2634.9,-214.71 2634.9,-206.11"/>
<polygon fill="black" stroke="black" points="2638.4,-206.1 2634.9,-196.1 2631.4,-206.1 2638.4,-206.1"/>
</g>
<!-- 30 -->
<g id="node15" class="node">
<title>30</title>
<ellipse fill="#b9d3ee" stroke="black" cx="115.9" cy="-106" rx="16.8" ry="18"/>
<text text-anchor="middle" x="115.9" y="-102.3" font-family="Times,serif" font-size="14.00">1</text>
</g>
<!-- 20&#45;&gt;30 -->
<g id="edge14" class="edge">
<title>20&#45;&gt;30</title>
<path fill="none" stroke="black" d="M474.66,-174.51C420.63,-164.34 216.19,-125.87 142.55,-112.01"/>
<polygon fill="black" stroke="black" points="143.14,-108.56 132.66,-110.15 141.84,-115.44 143.14,-108.56"/>
</g>
<!-- 31 -->
<g id="node16" class="node">
<title>31</title>
<ellipse fill="#b9d3ee" stroke="black" cx="2064.9" cy="-106" rx="16.8" ry="18"/>
<text text-anchor="middle" x="2064.9" y="-102.3" font-family="Times,serif" font-size="14.00">2</text>
</g>
<!-- 21&#45;&gt;31 -->
<g id="edge15" class="edge">
<title>21&#45;&gt;31</title>
<path fill="none" stroke="black" d="M1738.93,-170.03C1811.63,-155.98 1974.35,-124.51 2038.33,-112.14"/>
<polygon fill="black" stroke="black" points="2039.26,-115.52 2048.41,-110.19 2037.93,-108.65 2039.26,-115.52"/>
</g>
<!-- 36 -->
<g id="node21" class="node">
<title>36</title>
<ellipse fill="#b9d3ee" stroke="black" cx="2310.9" cy="-106" rx="36" ry="18"/>
<text text-anchor="middle" x="2310.9" y="-102.3" font-family="Times,serif" font-size="14.00">389</text>
</g>
<!-- 21&#45;&gt;36 -->
<g id="edge23" class="edge">
<title>21&#45;&gt;36</title>
<path fill="none" stroke="black" d="M1739.11,-172.83C1844.35,-160.71 2149.98,-125.53 2265.74,-112.2"/>
<polygon fill="black" stroke="black" points="2266.48,-115.64 2276.02,-111.02 2265.68,-108.68 2266.48,-115.64"/>
</g>
<!-- 37 -->
<g id="node22" class="node">
<title>37</title>
<ellipse fill="#b9d3ee" stroke="black" cx="1702.9" cy="-106" rx="36" ry="18"/>
<text text-anchor="middle" x="1702.9" y="-102.3" font-family="Times,serif" font-size="14.00">412</text>
</g>
<!-- 21&#45;&gt;37 -->
<g id="edge24" class="edge">
<title>21&#45;&gt;37</title>
<path fill="none" stroke="black" d="M1702.9,-159.7C1702.9,-151.98 1702.9,-142.71 1702.9,-134.11"/>
<polygon fill="black" stroke="black" points="1706.4,-134.1 1702.9,-124.1 1699.4,-134.1 1706.4,-134.1"/>
</g>
<!-- 38 -->
<g id="node23" class="node">
<title>38</title>
<ellipse fill="#b9d3ee" stroke="black" cx="1302.9" cy="-106" rx="36" ry="18"/>
<text text-anchor="middle" x="1302.9" y="-102.3" font-family="Times,serif" font-size="14.00">401</text>
</g>
<!-- 21&#45;&gt;38 -->
<g id="edge27" class="edge">
<title>21&#45;&gt;38</title>
<path fill="none" stroke="black" d="M1666.7,-170.66C1593.08,-157.78 1426.17,-128.57 1346.63,-114.65"/>
<polygon fill="black" stroke="black" points="1346.92,-111.15 1336.46,-112.87 1345.71,-118.05 1346.92,-111.15"/>
</g>
<!-- 33 -->
<g id="node18" class="node">
<title>33</title>
<ellipse fill="#b9d3ee" stroke="black" cx="305.9" cy="-106" rx="28.7" ry="18"/>
<text text-anchor="middle" x="305.9" y="-102.3" font-family="Times,serif" font-size="14.00">137</text>
</g>
<!-- 22&#45;&gt;33 -->
<g id="edge18" class="edge">
<title>22&#45;&gt;33</title>
<path fill="none" stroke="black" d="M700.89,-171.15C620.17,-158.04 425.37,-126.4 343.32,-113.08"/>
<polygon fill="black" stroke="black" points="343.64,-109.58 333.2,-111.43 342.51,-116.49 343.64,-109.58"/>
</g>
<!-- 34 -->
<g id="node19" class="node">
<title>34</title>
<ellipse fill="#b9d3ee" stroke="black" cx="736.9" cy="-106" rx="36" ry="18"/>
<text text-anchor="middle" x="736.9" y="-102.3" font-family="Times,serif" font-size="14.00">294</text>
</g>
<!-- 22&#45;&gt;34 -->
<g id="edge20" class="edge">
<title>22&#45;&gt;34</title>
<path fill="none" stroke="black" d="M736.9,-159.7C736.9,-151.98 736.9,-142.71 736.9,-134.11"/>
<polygon fill="black" stroke="black" points="740.4,-134.1 736.9,-124.1 733.4,-134.1 740.4,-134.1"/>
</g>
<!-- 32 -->
<g id="node17" class="node">
<title>32</title>
<ellipse fill="#b9d3ee" stroke="black" cx="1442.9" cy="-106" rx="16.8" ry="18"/>
<text text-anchor="middle" x="1442.9" y="-102.3" font-family="Times,serif" font-size="14.00">9</text>
</g>
<!-- 23&#45;&gt;32 -->
<g id="edge16" class="edge">
<title>23&#45;&gt;32</title>
<path fill="none" stroke="black" d="M1209.03,-167.63C1264.32,-153.3 1368.59,-126.27 1416.99,-113.72"/>
<polygon fill="black" stroke="black" points="1417.9,-117.1 1426.71,-111.2 1416.15,-110.32 1417.9,-117.1"/>
</g>
<!-- 23&#45;&gt;34 -->
<g id="edge21" class="edge">
<title>23&#45;&gt;34</title>
<path fill="none" stroke="black" d="M1136.7,-168.93C1122.73,-165.94 1106.61,-162.64 1091.9,-160 980.7,-140.05 848.95,-121.77 781.53,-112.81"/>
<polygon fill="black" stroke="black" points="781.65,-109.29 771.28,-111.45 780.73,-116.23 781.65,-109.29"/>
</g>
<!-- 35 -->
<g id="node20" class="node">
<title>35</title>
<ellipse fill="#b9d3ee" stroke="black" cx="1073.9" cy="-106" rx="36" ry="18"/>
<text text-anchor="middle" x="1073.9" y="-102.3" font-family="Times,serif" font-size="14.00">355</text>
</g>
<!-- 23&#45;&gt;35 -->
<g id="edge22" class="edge">
<title>23&#45;&gt;35</title>
<path fill="none" stroke="black" d="M1148.68,-159.88C1134.61,-149.93 1116.82,-137.35 1102.12,-126.95"/>
<polygon fill="black" stroke="black" points="1104.06,-124.04 1093.87,-121.12 1100.02,-129.75 1104.06,-124.04"/>
</g>
<!-- 23&#45;&gt;37 -->
<g id="edge25" class="edge">
<title>23&#45;&gt;37</title>
<path fill="none" stroke="black" d="M1208.91,-172.24C1302.95,-159.82 1555.73,-126.44 1658.52,-112.86"/>
<polygon fill="black" stroke="black" points="1659.11,-116.31 1668.57,-111.53 1658.19,-109.37 1659.11,-116.31"/>
</g>
<!-- 24&#45;&gt;32 -->
<g id="edge17" class="edge">
<title>24&#45;&gt;32</title>
<path fill="none" stroke="black" d="M1442.9,-159.7C1442.9,-151.98 1442.9,-142.71 1442.9,-134.11"/>
<polygon fill="black" stroke="black" points="1446.4,-134.1 1442.9,-124.1 1439.4,-134.1 1446.4,-134.1"/>
</g>
<!-- 24&#45;&gt;37 -->
<g id="edge26" class="edge">
<title>24&#45;&gt;37</title>
<path fill="none" stroke="black" d="M1479.05,-167.27C1527.09,-154.33 1611.74,-131.54 1662.04,-118"/>
<polygon fill="black" stroke="black" points="1663.18,-121.32 1671.92,-115.34 1661.36,-114.56 1663.18,-121.32"/>
</g>
<!-- 25&#45;&gt;33 -->
<g id="edge19" class="edge">
<title>25&#45;&gt;33</title>
<path fill="none" stroke="black" d="M1010.66,-173.58C885.6,-161.76 472.78,-122.76 344.37,-110.63"/>
<polygon fill="black" stroke="black" points="344.51,-107.13 334.22,-109.68 343.85,-114.1 344.51,-107.13"/>
</g>
<!-- 25&#45;&gt;38 -->
<g id="edge28" class="edge">
<title>25&#45;&gt;38</title>
<path fill="none" stroke="black" d="M1083.03,-167.12C1130.36,-154.18 1213.08,-131.56 1262.45,-118.06"/>
<polygon fill="black" stroke="black" points="1263.43,-121.42 1272.16,-115.41 1261.59,-114.67 1263.43,-121.42"/>
</g>
<!-- legend_3 -->
<g id="node24" class="node">
<title>legend_3</title>
<polygon fill="#b9d3ee" stroke="black" points="2745.4,-124 2524.4,-124 2524.4,-88 2745.4,-88 2745.4,-124"/>
<text text-anchor="middle" x="2634.9" y="-102.3" font-family="Times,serif" font-size="14.00">DT=5 ST=1 Similarity=0.65</text>
</g>
<!-- legend_2&#45;&gt;legend_3 -->
<g id="edge29" class="edge">
<title>legend_2&#45;&gt;legend_3</title>
<path fill="none" stroke="black" d="M2634.9,-159.7C2634.9,-151.98 2634.9,-142.71 2634.9,-134.11"/>
<polygon fill="black" stroke="black" points="2638.4,-134.1 2634.9,-124.1 2631.4,-134.1 2638.4,-134.1"/>
</g>
<!-- 413 -->
<g id="node38" class="node">
<title>413</title>
<ellipse fill="#b9d3ee" stroke="black" cx="16.9" cy="-34" rx="16.8" ry="18"/>
<text text-anchor="middle" x="16.9" y="-30.3" font-family="Times,serif" font-size="14.00">1</text>
</g>
<!-- 30&#45;&gt;413 -->
<g id="edge43" class="edge">
<title>30&#45;&gt;413</title>
<path fill="none" stroke="black" d="M102.13,-95.27C85.73,-83.67 58.12,-64.15 38.78,-50.47"/>
<polygon fill="black" stroke="black" points="40.73,-47.57 30.55,-44.65 36.69,-53.28 40.73,-47.57"/>
</g>
<!-- 49 -->
<g id="node34" class="node">
<title>49</title>
<ellipse fill="#b9d3ee" stroke="black" cx="2116.9" cy="-34" rx="16.8" ry="18"/>
<text text-anchor="middle" x="2116.9" y="-30.3" font-family="Times,serif" font-size="14.00">1</text>
</g>
<!-- 31&#45;&gt;49 -->
<g id="edge39" class="edge">
<title>31&#45;&gt;49</title>
<path fill="none" stroke="black" d="M2074.92,-91.5C2082.17,-81.75 2092.11,-68.37 2100.5,-57.07"/>
<polygon fill="black" stroke="black" points="2103.39,-59.05 2106.55,-48.93 2097.77,-54.87 2103.39,-59.05"/>
</g>
<!-- 410 -->
<g id="node35" class="node">
<title>410</title>
<ellipse fill="#b9d3ee" stroke="black" cx="2064.9" cy="-34" rx="16.8" ry="18"/>
<text text-anchor="middle" x="2064.9" y="-30.3" font-family="Times,serif" font-size="14.00">1</text>
</g>
<!-- 31&#45;&gt;410 -->
<g id="edge40" class="edge">
<title>31&#45;&gt;410</title>
<path fill="none" stroke="black" d="M2064.9,-87.7C2064.9,-79.98 2064.9,-70.71 2064.9,-62.11"/>
<polygon fill="black" stroke="black" points="2068.4,-62.1 2064.9,-52.1 2061.4,-62.1 2068.4,-62.1"/>
</g>
<!-- 421 -->
<g id="node46" class="node">
<title>421</title>
<ellipse fill="#b9d3ee" stroke="black" cx="1494.9" cy="-34" rx="16.8" ry="18"/>
<text text-anchor="middle" x="1494.9" y="-30.3" font-family="Times,serif" font-size="14.00">4</text>
</g>
<!-- 32&#45;&gt;421 -->
<g id="edge51" class="edge">
<title>32&#45;&gt;421</title>
<path fill="none" stroke="black" d="M1452.92,-91.5C1460.17,-81.75 1470.11,-68.37 1478.5,-57.07"/>
<polygon fill="black" stroke="black" points="1481.39,-59.05 1484.55,-48.93 1475.77,-54.87 1481.39,-59.05"/>
</g>
<!-- 423 -->
<g id="node48" class="node">
<title>423</title>
<ellipse fill="#b9d3ee" stroke="black" cx="1442.9" cy="-34" rx="16.8" ry="18"/>
<text text-anchor="middle" x="1442.9" y="-30.3" font-family="Times,serif" font-size="14.00">5</text>
</g>
<!-- 32&#45;&gt;423 -->
<g id="edge53" class="edge">
<title>32&#45;&gt;423</title>
<path fill="none" stroke="black" d="M1442.9,-87.7C1442.9,-79.98 1442.9,-70.71 1442.9,-62.11"/>
<polygon fill="black" stroke="black" points="1446.4,-62.1 1442.9,-52.1 1439.4,-62.1 1446.4,-62.1"/>
</g>
<!-- 40 -->
<g id="node25" class="node">
<title>40</title>
<ellipse fill="#b9d3ee" stroke="black" cx="466.9" cy="-34" rx="16.8" ry="18"/>
<text text-anchor="middle" x="466.9" y="-30.3" font-family="Times,serif" font-size="14.00">1</text>
</g>
<!-- 33&#45;&gt;40 -->
<g id="edge30" class="edge">
<title>33&#45;&gt;40</title>
<path fill="none" stroke="black" d="M330.96,-97.13C358.82,-87.96 404.78,-71.53 441.9,-52 442.73,-51.56 443.57,-51.1 444.41,-50.62"/>
<polygon fill="black" stroke="black" points="446.61,-53.38 453.23,-45.11 442.9,-47.44 446.61,-53.38"/>
</g>
<!-- 42 -->
<g id="node27" class="node">
<title>42</title>
<ellipse fill="#b9d3ee" stroke="black" cx="68.9" cy="-34" rx="16.8" ry="18"/>
<text text-anchor="middle" x="68.9" y="-30.3" font-family="Times,serif" font-size="14.00">1</text>
</g>
<!-- 33&#45;&gt;42 -->
<g id="edge32" class="edge">
<title>33&#45;&gt;42</title>
<path fill="none" stroke="black" d="M278.31,-101.08C237.07,-94.56 157.53,-79.41 94.9,-52 93.7,-51.48 92.5,-50.9 91.31,-50.29"/>
<polygon fill="black" stroke="black" points="92.84,-47.13 82.45,-45.07 89.29,-53.16 92.84,-47.13"/>
</g>
<!-- 46 -->
<g id="node31" class="node">
<title>46</title>
<ellipse fill="#b9d3ee" stroke="black" cx="120.9" cy="-34" rx="16.8" ry="18"/>
<text text-anchor="middle" x="120.9" y="-30.3" font-family="Times,serif" font-size="14.00">1</text>
</g>
<!-- 33&#45;&gt;46 -->
<g id="edge36" class="edge">
<title>33&#45;&gt;46</title>
<path fill="none" stroke="black" d="M279.77,-98.52C247.59,-90.03 191.69,-73.66 146.9,-52 145.72,-51.43 144.54,-50.82 143.36,-50.18"/>
<polygon fill="black" stroke="black" points="144.91,-47.03 134.54,-44.86 141.3,-53.02 144.91,-47.03"/>
</g>
<!-- 47 -->
<g id="node32" class="node">
<title>47</title>
<ellipse fill="#b9d3ee" stroke="black" cx="172.9" cy="-34" rx="16.8" ry="18"/>
<text text-anchor="middle" x="172.9" y="-30.3" font-family="Times,serif" font-size="14.00">1</text>
</g>
<!-- 33&#45;&gt;47 -->
<g id="edge37" class="edge">
<title>33&#45;&gt;47</title>
<path fill="none" stroke="black" d="M283.36,-94.79C261.43,-84.64 227.33,-68.26 198.9,-52 197.77,-51.35 196.62,-50.68 195.46,-49.98"/>
<polygon fill="black" stroke="black" points="197.07,-46.86 186.74,-44.49 193.34,-52.78 197.07,-46.86"/>
</g>
<!-- 414 -->
<g id="node39" class="node">
<title>414</title>
<ellipse fill="#b9d3ee" stroke="black" cx="224.9" cy="-34" rx="16.8" ry="18"/>
<text text-anchor="middle" x="224.9" y="-30.3" font-family="Times,serif" font-size="14.00">2</text>
</g>
<!-- 33&#45;&gt;414 -->
<g id="edge44" class="edge">
<title>33&#45;&gt;414</title>
<path fill="none" stroke="black" d="M289.51,-90.83C276.87,-79.92 259.32,-64.75 245.7,-52.97"/>
<polygon fill="black" stroke="black" points="247.66,-50.04 237.8,-46.15 243.08,-55.34 247.66,-50.04"/>
</g>
<!-- 428 -->
<g id="node53" class="node">
<title>428</title>
<ellipse fill="#b9d3ee" stroke="black" cx="276.9" cy="-34" rx="16.8" ry="18"/>
<text text-anchor="middle" x="276.9" y="-30.3" font-family="Times,serif" font-size="14.00">9</text>
</g>
<!-- 33&#45;&gt;428 -->
<g id="edge58" class="edge">
<title>33&#45;&gt;428</title>
<path fill="none" stroke="black" d="M299.03,-88.41C295.55,-80.01 291.24,-69.63 287.36,-60.26"/>
<polygon fill="black" stroke="black" points="290.58,-58.89 283.52,-50.99 284.12,-61.57 290.58,-58.89"/>
</g>
<!-- 429 -->
<g id="node54" class="node">
<title>429</title>
<ellipse fill="#b9d3ee" stroke="black" cx="334.9" cy="-34" rx="23" ry="18"/>
<text text-anchor="middle" x="334.9" y="-30.3" font-family="Times,serif" font-size="14.00">10</text>
</g>
<!-- 33&#45;&gt;429 -->
<g id="edge59" class="edge">
<title>33&#45;&gt;429</title>
<path fill="none" stroke="black" d="M312.77,-88.41C316.17,-80.22 320.34,-70.14 324.15,-60.95"/>
<polygon fill="black" stroke="black" points="327.48,-62.05 328.08,-51.47 321.01,-59.37 327.48,-62.05"/>
</g>
<!-- 437 -->
<g id="node62" class="node">
<title>437</title>
<ellipse fill="#b9d3ee" stroke="black" cx="403.9" cy="-34" rx="28.7" ry="18"/>
<text text-anchor="middle" x="403.9" y="-30.3" font-family="Times,serif" font-size="14.00">112</text>
</g>
<!-- 33&#45;&gt;437 -->
<g id="edge67" class="edge">
<title>33&#45;&gt;437</title>
<path fill="none" stroke="black" d="M324.33,-91.83C339.25,-81.18 360.47,-66.02 377.24,-54.04"/>
<polygon fill="black" stroke="black" points="379.45,-56.77 385.55,-48.11 375.38,-51.07 379.45,-56.77"/>
</g>
<!-- 45 -->
<g id="node30" class="node">
<title>45</title>
<ellipse fill="#b9d3ee" stroke="black" cx="834.9" cy="-34" rx="16.8" ry="18"/>
<text text-anchor="middle" x="834.9" y="-30.3" font-family="Times,serif" font-size="14.00">1</text>
</g>
<!-- 34&#45;&gt;45 -->
<g id="edge35" class="edge">
<title>34&#45;&gt;45</title>
<path fill="none" stroke="black" d="M756.73,-90.83C773.02,-79.2 796.07,-62.74 812.92,-50.7"/>
<polygon fill="black" stroke="black" points="814.99,-53.52 821.09,-44.86 810.92,-47.82 814.99,-53.52"/>
</g>
<!-- 411 -->
<g id="node36" class="node">
<title>411</title>
<ellipse fill="#b9d3ee" stroke="black" cx="886.9" cy="-34" rx="16.8" ry="18"/>
<text text-anchor="middle" x="886.9" y="-30.3" font-family="Times,serif" font-size="14.00">1</text>
</g>
<!-- 34&#45;&gt;411 -->
<g id="edge41" class="edge">
<title>34&#45;&gt;411</title>
<path fill="none" stroke="black" d="M765.13,-94.57C790.7,-84.74 829.11,-69.02 860.9,-52 862.05,-51.38 863.21,-50.73 864.38,-50.06"/>
<polygon fill="black" stroke="black" points="866.48,-52.88 873.14,-44.64 862.79,-46.92 866.48,-52.88"/>
</g>
<!-- 420 -->
<g id="node45" class="node">
<title>420</title>
<ellipse fill="#b9d3ee" stroke="black" cx="518.9" cy="-34" rx="16.8" ry="18"/>
<text text-anchor="middle" x="518.9" y="-30.3" font-family="Times,serif" font-size="14.00">4</text>
</g>
<!-- 34&#45;&gt;420 -->
<g id="edge50" class="edge">
<title>34&#45;&gt;420</title>
<path fill="none" stroke="black" d="M703.55,-99.06C664.38,-91.36 598,-75.98 544.9,-52 543.71,-51.46 542.51,-50.88 541.32,-50.25"/>
<polygon fill="black" stroke="black" points="542.86,-47.1 532.48,-45.01 539.29,-53.12 542.86,-47.1"/>
</g>
<!-- 432 -->
<g id="node57" class="node">
<title>432</title>
<ellipse fill="#b9d3ee" stroke="black" cx="576.9" cy="-34" rx="23" ry="18"/>
<text text-anchor="middle" x="576.9" y="-30.3" font-family="Times,serif" font-size="14.00">23</text>
</g>
<!-- 34&#45;&gt;432 -->
<g id="edge62" class="edge">
<title>34&#45;&gt;432</title>
<path fill="none" stroke="black" d="M708.83,-94.51C682.43,-84.4 641.98,-68.28 607.9,-52 606.55,-51.36 605.17,-50.68 603.79,-49.98"/>
<polygon fill="black" stroke="black" points="605.23,-46.79 594.75,-45.23 601.98,-52.98 605.23,-46.79"/>
</g>
<!-- 433 -->
<g id="node58" class="node">
<title>433</title>
<ellipse fill="#b9d3ee" stroke="black" cx="639.9" cy="-34" rx="23" ry="18"/>
<text text-anchor="middle" x="639.9" y="-30.3" font-family="Times,serif" font-size="14.00">23</text>
</g>
<!-- 34&#45;&gt;433 -->
<g id="edge63" class="edge">
<title>34&#45;&gt;433</title>
<path fill="none" stroke="black" d="M717.27,-90.83C702.14,-79.91 681.11,-64.74 664.79,-52.96"/>
<polygon fill="black" stroke="black" points="666.43,-49.83 656.28,-46.82 662.34,-55.51 666.43,-49.83"/>
</g>
<!-- 434 -->
<g id="node59" class="node">
<title>434</title>
<ellipse fill="#b9d3ee" stroke="black" cx="702.9" cy="-34" rx="23" ry="18"/>
<text text-anchor="middle" x="702.9" y="-30.3" font-family="Times,serif" font-size="14.00">66</text>
</g>
<!-- 34&#45;&gt;434 -->
<g id="edge64" class="edge">
<title>34&#45;&gt;434</title>
<path fill="none" stroke="black" d="M728.84,-88.41C724.76,-80.01 719.72,-69.63 715.17,-60.26"/>
<polygon fill="black" stroke="black" points="718.18,-58.45 710.66,-50.99 711.88,-61.51 718.18,-58.45"/>
</g>
<!-- 438 -->
<g id="node63" class="node">
<title>438</title>
<ellipse fill="#b9d3ee" stroke="black" cx="771.9" cy="-34" rx="28.7" ry="18"/>
<text text-anchor="middle" x="771.9" y="-30.3" font-family="Times,serif" font-size="14.00">176</text>
</g>
<!-- 34&#45;&gt;438 -->
<g id="edge68" class="edge">
<title>34&#45;&gt;438</title>
<path fill="none" stroke="black" d="M745.19,-88.41C749.33,-80.13 754.44,-69.92 759.07,-60.66"/>
<polygon fill="black" stroke="black" points="762.32,-61.98 763.66,-51.47 756.06,-58.85 762.32,-61.98"/>
</g>
<!-- 44 -->
<g id="node29" class="node">
<title>44</title>
<ellipse fill="#b9d3ee" stroke="black" cx="1144.9" cy="-34" rx="16.8" ry="18"/>
<text text-anchor="middle" x="1144.9" y="-30.3" font-family="Times,serif" font-size="14.00">1</text>
</g>
<!-- 35&#45;&gt;44 -->
<g id="edge34" class="edge">
<title>35&#45;&gt;44</title>
<path fill="none" stroke="black" d="M1089.66,-89.46C1100.28,-78.99 1114.36,-65.11 1125.64,-53.98"/>
<polygon fill="black" stroke="black" points="1128.27,-56.31 1132.93,-46.8 1123.36,-51.32 1128.27,-56.31"/>
</g>
<!-- 425 -->
<g id="node50" class="node">
<title>425</title>
<ellipse fill="#b9d3ee" stroke="black" cx="938.9" cy="-34" rx="16.8" ry="18"/>
<text text-anchor="middle" x="938.9" y="-30.3" font-family="Times,serif" font-size="14.00">7</text>
</g>
<!-- 35&#45;&gt;425 -->
<g id="edge55" class="edge">
<title>35&#45;&gt;425</title>
<path fill="none" stroke="black" d="M1047.88,-93.48C1025.49,-83.3 992.54,-67.67 964.9,-52 963.76,-51.36 962.61,-50.68 961.45,-49.99"/>
<polygon fill="black" stroke="black" points="963.06,-46.86 952.73,-44.51 959.33,-52.79 963.06,-46.86"/>
</g>
<!-- 436 -->
<g id="node61" class="node">
<title>436</title>
<ellipse fill="#b9d3ee" stroke="black" cx="996.9" cy="-34" rx="23" ry="18"/>
<text text-anchor="middle" x="996.9" y="-30.3" font-family="Times,serif" font-size="14.00">81</text>
</g>
<!-- 35&#45;&gt;436 -->
<g id="edge66" class="edge">
<title>35&#45;&gt;436</title>
<path fill="none" stroke="black" d="M1057.19,-89.81C1045.94,-79.59 1030.99,-66 1018.8,-54.91"/>
<polygon fill="black" stroke="black" points="1021,-52.18 1011.24,-48.04 1016.29,-57.36 1021,-52.18"/>
</g>
<!-- 439 -->
<g id="node64" class="node">
<title>439</title>
<ellipse fill="#b9d3ee" stroke="black" cx="1073.9" cy="-34" rx="36" ry="18"/>
<text text-anchor="middle" x="1073.9" y="-30.3" font-family="Times,serif" font-size="14.00">266</text>
</g>
<!-- 35&#45;&gt;439 -->
<g id="edge69" class="edge">
<title>35&#45;&gt;439</title>
<path fill="none" stroke="black" d="M1073.9,-87.7C1073.9,-79.98 1073.9,-70.71 1073.9,-62.11"/>
<polygon fill="black" stroke="black" points="1077.4,-62.1 1073.9,-52.1 1070.4,-62.1 1077.4,-62.1"/>
</g>
<!-- 43 -->
<g id="node28" class="node">
<title>43</title>
<ellipse fill="#b9d3ee" stroke="black" cx="2258.9" cy="-34" rx="16.8" ry="18"/>
<text text-anchor="middle" x="2258.9" y="-30.3" font-family="Times,serif" font-size="14.00">1</text>
</g>
<!-- 36&#45;&gt;43 -->
<g id="edge33" class="edge">
<title>36&#45;&gt;43</title>
<path fill="none" stroke="black" d="M2298.84,-88.76C2291.81,-79.3 2282.84,-67.23 2275.19,-56.93"/>
<polygon fill="black" stroke="black" points="2277.91,-54.73 2269.14,-48.79 2272.29,-58.9 2277.91,-54.73"/>
</g>
<!-- 415 -->
<g id="node40" class="node">
<title>415</title>
<ellipse fill="#b9d3ee" stroke="black" cx="2310.9" cy="-34" rx="16.8" ry="18"/>
<text text-anchor="middle" x="2310.9" y="-30.3" font-family="Times,serif" font-size="14.00">3</text>
</g>
<!-- 36&#45;&gt;415 -->
<g id="edge45" class="edge">
<title>36&#45;&gt;415</title>
<path fill="none" stroke="black" d="M2310.9,-87.7C2310.9,-79.98 2310.9,-70.71 2310.9,-62.11"/>
<polygon fill="black" stroke="black" points="2314.4,-62.1 2310.9,-52.1 2307.4,-62.1 2314.4,-62.1"/>
</g>
<!-- 419 -->
<g id="node44" class="node">
<title>419</title>
<ellipse fill="#b9d3ee" stroke="black" cx="2362.9" cy="-34" rx="16.8" ry="18"/>
<text text-anchor="middle" x="2362.9" y="-30.3" font-family="Times,serif" font-size="14.00">4</text>
</g>
<!-- 36&#45;&gt;419 -->
<g id="edge49" class="edge">
<title>36&#45;&gt;419</title>
<path fill="none" stroke="black" d="M2322.96,-88.76C2329.99,-79.3 2338.95,-67.23 2346.61,-56.93"/>
<polygon fill="black" stroke="black" points="2349.5,-58.9 2352.66,-48.79 2343.88,-54.73 2349.5,-58.9"/>
</g>
<!-- 430 -->
<g id="node55" class="node">
<title>430</title>
<ellipse fill="#b9d3ee" stroke="black" cx="2420.9" cy="-34" rx="23" ry="18"/>
<text text-anchor="middle" x="2420.9" y="-30.3" font-family="Times,serif" font-size="14.00">19</text>
</g>
<!-- 36&#45;&gt;430 -->
<g id="edge60" class="edge">
<title>36&#45;&gt;430</title>
<path fill="none" stroke="black" d="M2332.37,-91.34C2350.29,-79.93 2375.89,-63.64 2394.95,-51.51"/>
<polygon fill="black" stroke="black" points="2396.91,-54.42 2403.46,-46.1 2393.15,-48.51 2396.91,-54.42"/>
</g>
<!-- 435 -->
<g id="node60" class="node">
<title>435</title>
<ellipse fill="#b9d3ee" stroke="black" cx="2483.9" cy="-34" rx="23" ry="18"/>
<text text-anchor="middle" x="2483.9" y="-30.3" font-family="Times,serif" font-size="14.00">68</text>
</g>
<!-- 36&#45;&gt;435 -->
<g id="edge65" class="edge">
<title>36&#45;&gt;435</title>
<path fill="none" stroke="black" d="M2340.23,-95.44C2369.29,-85.65 2414.86,-69.42 2452.9,-52 2454.26,-51.38 2455.64,-50.72 2457.03,-50.04"/>
<polygon fill="black" stroke="black" points="2458.83,-53.05 2466.09,-45.34 2455.6,-46.83 2458.83,-53.05"/>
</g>
<!-- 440 -->
<g id="node65" class="node">
<title>440</title>
<ellipse fill="#b9d3ee" stroke="black" cx="2187.9" cy="-34" rx="36" ry="18"/>
<text text-anchor="middle" x="2187.9" y="-30.3" font-family="Times,serif" font-size="14.00">294</text>
</g>
<!-- 36&#45;&gt;440 -->
<g id="edge70" class="edge">
<title>36&#45;&gt;440</title>
<path fill="none" stroke="black" d="M2288.05,-92C2268.84,-81.07 2241.17,-65.32 2219.78,-53.14"/>
<polygon fill="black" stroke="black" points="2221.46,-50.07 2211.04,-48.17 2218,-56.16 2221.46,-50.07"/>
</g>
<!-- 41 -->
<g id="node26" class="node">
<title>41</title>
<ellipse fill="#b9d3ee" stroke="black" cx="1546.9" cy="-34" rx="16.8" ry="18"/>
<text text-anchor="middle" x="1546.9" y="-30.3" font-family="Times,serif" font-size="14.00">1</text>
</g>
<!-- 37&#45;&gt;41 -->
<g id="edge31" class="edge">
<title>37&#45;&gt;41</title>
<path fill="none" stroke="black" d="M1674.04,-95.05C1647.22,-85.38 1606.46,-69.61 1572.9,-52 1571.74,-51.39 1570.57,-50.75 1569.4,-50.08"/>
<polygon fill="black" stroke="black" points="1570.98,-46.95 1560.63,-44.68 1567.31,-52.91 1570.98,-46.95"/>
</g>
<!-- 48 -->
<g id="node33" class="node">
<title>48</title>
<ellipse fill="#b9d3ee" stroke="black" cx="1598.9" cy="-34" rx="16.8" ry="18"/>
<text text-anchor="middle" x="1598.9" y="-30.3" font-family="Times,serif" font-size="14.00">1</text>
</g>
<!-- 37&#45;&gt;48 -->
<g id="edge38" class="edge">
<title>37&#45;&gt;48</title>
<path fill="none" stroke="black" d="M1682.35,-91.17C1664.81,-79.36 1639.62,-62.41 1621.51,-50.22"/>
<polygon fill="black" stroke="black" points="1623.01,-47.01 1612.76,-44.33 1619.1,-52.82 1623.01,-47.01"/>
</g>
<!-- 412 -->
<g id="node37" class="node">
<title>412</title>
<ellipse fill="#b9d3ee" stroke="black" cx="1650.9" cy="-34" rx="16.8" ry="18"/>
<text text-anchor="middle" x="1650.9" y="-30.3" font-family="Times,serif" font-size="14.00">1</text>
</g>
<!-- 37&#45;&gt;412 -->
<g id="edge42" class="edge">
<title>37&#45;&gt;412</title>
<path fill="none" stroke="black" d="M1690.84,-88.76C1683.81,-79.3 1674.84,-67.23 1667.19,-56.93"/>
<polygon fill="black" stroke="black" points="1669.91,-54.73 1661.14,-48.79 1664.29,-58.9 1669.91,-54.73"/>
</g>
<!-- 416 -->
<g id="node41" class="node">
<title>416</title>
<ellipse fill="#b9d3ee" stroke="black" cx="1702.9" cy="-34" rx="16.8" ry="18"/>
<text text-anchor="middle" x="1702.9" y="-30.3" font-family="Times,serif" font-size="14.00">3</text>
</g>
<!-- 37&#45;&gt;416 -->
<g id="edge46" class="edge">
<title>37&#45;&gt;416</title>
<path fill="none" stroke="black" d="M1702.9,-87.7C1702.9,-79.98 1702.9,-70.71 1702.9,-62.11"/>
<polygon fill="black" stroke="black" points="1706.4,-62.1 1702.9,-52.1 1699.4,-62.1 1706.4,-62.1"/>
</g>
<!-- 417 -->
<g id="node42" class="node">
<title>417</title>
<ellipse fill="#b9d3ee" stroke="black" cx="1754.9" cy="-34" rx="16.8" ry="18"/>
<text text-anchor="middle" x="1754.9" y="-30.3" font-family="Times,serif" font-size="14.00">3</text>
</g>
<!-- 37&#45;&gt;417 -->
<g id="edge47" class="edge">
<title>37&#45;&gt;417</title>
<path fill="none" stroke="black" d="M1714.96,-88.76C1721.99,-79.3 1730.95,-67.23 1738.61,-56.93"/>
<polygon fill="black" stroke="black" points="1741.5,-58.9 1744.66,-48.79 1735.88,-54.73 1741.5,-58.9"/>
</g>
<!-- 418 -->
<g id="node43" class="node">
<title>418</title>
<ellipse fill="#b9d3ee" stroke="black" cx="1806.9" cy="-34" rx="16.8" ry="18"/>
<text text-anchor="middle" x="1806.9" y="-30.3" font-family="Times,serif" font-size="14.00">3</text>
</g>
<!-- 37&#45;&gt;418 -->
<g id="edge48" class="edge">
<title>37&#45;&gt;418</title>
<path fill="none" stroke="black" d="M1723.45,-91.17C1740.99,-79.36 1766.18,-62.41 1784.29,-50.22"/>
<polygon fill="black" stroke="black" points="1786.7,-52.82 1793.04,-44.33 1782.79,-47.01 1786.7,-52.82"/>
</g>
<!-- 427 -->
<g id="node52" class="node">
<title>427</title>
<ellipse fill="#b9d3ee" stroke="black" cx="1858.9" cy="-34" rx="16.8" ry="18"/>
<text text-anchor="middle" x="1858.9" y="-30.3" font-family="Times,serif" font-size="14.00">8</text>
</g>
<!-- 37&#45;&gt;427 -->
<g id="edge57" class="edge">
<title>37&#45;&gt;427</title>
<path fill="none" stroke="black" d="M1731.76,-95.05C1758.58,-85.38 1799.34,-69.61 1832.9,-52 1834.05,-51.39 1835.22,-50.75 1836.39,-50.08"/>
<polygon fill="black" stroke="black" points="1838.48,-52.91 1845.16,-44.68 1834.81,-46.95 1838.48,-52.91"/>
</g>
<!-- 431 -->
<g id="node56" class="node">
<title>431</title>
<ellipse fill="#b9d3ee" stroke="black" cx="1916.9" cy="-34" rx="23" ry="18"/>
<text text-anchor="middle" x="1916.9" y="-30.3" font-family="Times,serif" font-size="14.00">21</text>
</g>
<!-- 37&#45;&gt;431 -->
<g id="edge61" class="edge">
<title>37&#45;&gt;431</title>
<path fill="none" stroke="black" d="M1735.13,-97.74C1772.04,-88.94 1833.98,-72.68 1884.9,-52 1886.5,-51.35 1888.13,-50.64 1889.76,-49.9"/>
<polygon fill="black" stroke="black" points="1891.51,-52.93 1898.93,-45.37 1888.42,-46.66 1891.51,-52.93"/>
</g>
<!-- 441 -->
<g id="node66" class="node">
<title>441</title>
<ellipse fill="#b9d3ee" stroke="black" cx="1993.9" cy="-34" rx="36" ry="18"/>
<text text-anchor="middle" x="1993.9" y="-30.3" font-family="Times,serif" font-size="14.00">371</text>
</g>
<!-- 37&#45;&gt;441 -->
<g id="edge71" class="edge">
<title>37&#45;&gt;441</title>
<path fill="none" stroke="black" d="M1736.72,-99.36C1784.51,-91.02 1874.31,-73.99 1948.9,-52 1951.51,-51.23 1954.19,-50.38 1956.87,-49.48"/>
<polygon fill="black" stroke="black" points="1958.24,-52.71 1966.51,-46.09 1955.92,-46.11 1958.24,-52.71"/>
</g>
<!-- 422 -->
<g id="node47" class="node">
<title>422</title>
<ellipse fill="#b9d3ee" stroke="black" cx="1338.9" cy="-34" rx="16.8" ry="18"/>
<text text-anchor="middle" x="1338.9" y="-30.3" font-family="Times,serif" font-size="14.00">5</text>
</g>
<!-- 38&#45;&gt;422 -->
<g id="edge52" class="edge">
<title>38&#45;&gt;422</title>
<path fill="none" stroke="black" d="M1311.43,-88.41C1315.92,-79.68 1321.51,-68.81 1326.47,-59.16"/>
<polygon fill="black" stroke="black" points="1329.7,-60.53 1331.16,-50.04 1323.48,-57.33 1329.7,-60.53"/>
</g>
<!-- 424 -->
<g id="node49" class="node">
<title>424</title>
<ellipse fill="#b9d3ee" stroke="black" cx="1390.9" cy="-34" rx="16.8" ry="18"/>
<text text-anchor="middle" x="1390.9" y="-30.3" font-family="Times,serif" font-size="14.00">6</text>
</g>
<!-- 38&#45;&gt;424 -->
<g id="edge54" class="edge">
<title>38&#45;&gt;424</title>
<path fill="none" stroke="black" d="M1321.56,-90.15C1335.65,-78.95 1354.99,-63.56 1369.67,-51.89"/>
<polygon fill="black" stroke="black" points="1372.05,-54.47 1377.69,-45.5 1367.69,-48.99 1372.05,-54.47"/>
</g>
<!-- 426 -->
<g id="node51" class="node">
<title>426</title>
<ellipse fill="#b9d3ee" stroke="black" cx="1196.9" cy="-34" rx="16.8" ry="18"/>
<text text-anchor="middle" x="1196.9" y="-30.3" font-family="Times,serif" font-size="14.00">8</text>
</g>
<!-- 38&#45;&gt;426 -->
<g id="edge56" class="edge">
<title>38&#45;&gt;426</title>
<path fill="none" stroke="black" d="M1281.96,-91.17C1263.91,-79.25 1237.93,-62.09 1219.43,-49.88"/>
<polygon fill="black" stroke="black" points="1221.3,-46.92 1211.03,-44.33 1217.44,-52.76 1221.3,-46.92"/>
</g>
<!-- 442 -->
<g id="node67" class="node">
<title>442</title>
<ellipse fill="#b9d3ee" stroke="black" cx="1267.9" cy="-34" rx="36" ry="18"/>
<text text-anchor="middle" x="1267.9" y="-30.3" font-family="Times,serif" font-size="14.00">382</text>
</g>
<!-- 38&#45;&gt;442 -->
<g id="edge72" class="edge">
<title>38&#45;&gt;442</title>
<path fill="none" stroke="black" d="M1294.6,-88.41C1290.52,-80.25 1285.51,-70.22 1280.93,-61.07"/>
<polygon fill="black" stroke="black" points="1283.98,-59.34 1276.38,-51.96 1277.72,-62.47 1283.98,-59.34"/>
</g>
<!-- legend_4 -->
<g id="node68" class="node">
<title>legend_4</title>
<polygon fill="#b9d3ee" stroke="black" points="2745.4,-52 2524.4,-52 2524.4,-16 2745.4,-16 2745.4,-52"/>
<text text-anchor="middle" x="2634.9" y="-30.3" font-family="Times,serif" font-size="14.00">DT=6 ST=1 Similarity=0.52</text>
</g>
<!-- legend_3&#45;&gt;legend_4 -->
<g id="edge73" class="edge">
<title>legend_3&#45;&gt;legend_4</title>
<path fill="none" stroke="black" d="M2634.9,-87.7C2634.9,-79.98 2634.9,-70.71 2634.9,-62.11"/>
<polygon fill="black" stroke="black" points="2638.4,-62.1 2634.9,-52.1 2631.4,-62.1 2638.4,-62.1"/>
</g>
</g>
</svg>
