<?xml version="1.0" encoding="UTF-8" standalone="no"?>
<!DOCTYPE svg PUBLIC "-//W3C//DTD SVG 1.1//EN"
 "http://www.w3.org/Graphics/SVG/1.1/DTD/svg11.dtd">
<!-- Generated by graphviz version 2.43.0 (0)
 -->
<!-- Title: %3 Pages: 1 -->
<svg width="2966pt" height="497pt"
 viewBox="0.00 0.00 2965.90 497.00" xmlns="http://www.w3.org/2000/svg" xmlns:xlink="http://www.w3.org/1999/xlink">
<g id="graph0" class="graph" transform="scale(1 1) rotate(0) translate(4 493)">
<title>%3</title>
<polygon fill="white" stroke="transparent" points="-4,4 -4,-493 2961.9,-493 2961.9,4 -4,4"/>
<text text-anchor="middle" x="1478.95" y="-473.8" font-family="Times,serif" font-size="14.00">ConsTree</text>
<text text-anchor="middle" x="1478.95" y="-458.8" font-family="Times,serif" font-size="14.00">Tree Quality = 1</text>
<g id="clust1" class="cluster">
<title>cluster</title>
<polygon fill="none" stroke="black" points="2713.9,-8 2713.9,-443 2949.9,-443 2949.9,-8 2713.9,-8"/>
<text text-anchor="middle" x="2831.9" y="-427.8" font-family="Times,serif" font-size="14.00">Legend</text>
</g>
<!-- 00 -->
<g id="node1" class="node">
<title>00</title>
<ellipse fill="#b9d3ee" stroke="black" cx="1396.9" cy="-394" rx="180" ry="18"/>
<text text-anchor="middle" x="1396.9" y="-390.3" font-family="Times,serif" font-size="14.00">1114</text>
</g>
<!-- 10 -->
<g id="node4" class="node">
<title>10</title>
<ellipse fill="#b9d3ee" stroke="black" cx="1702.9" cy="-322" rx="72" ry="18"/>
<text text-anchor="middle" x="1702.9" y="-318.3" font-family="Times,serif" font-size="14.00">462</text>
</g>
<!-- 00&#45;&gt;10 -->
<g id="edge1" class="edge">
<title>00&#45;&gt;10</title>
<path fill="none" stroke="black" d="M1465.57,-377.29C1518.43,-365.2 1590.83,-348.64 1641.72,-337"/>
<polygon fill="black" stroke="black" points="1642.63,-340.38 1651.59,-334.74 1641.07,-333.55 1642.63,-340.38"/>
</g>
<!-- 11 -->
<g id="node5" class="node">
<title>11</title>
<ellipse fill="#b9d3ee" stroke="black" cx="1270.9" cy="-322" rx="108" ry="18"/>
<text text-anchor="middle" x="1270.9" y="-318.3" font-family="Times,serif" font-size="14.00">765</text>
</g>
<!-- 00&#45;&gt;11 -->
<g id="edge3" class="edge">
<title>00&#45;&gt;11</title>
<path fill="none" stroke="black" d="M1366.72,-376.23C1349.45,-366.64 1327.62,-354.51 1309.16,-344.25"/>
<polygon fill="black" stroke="black" points="1310.84,-341.19 1300.4,-339.39 1307.44,-347.3 1310.84,-341.19"/>
</g>
<!-- 12 -->
<g id="node6" class="node">
<title>12</title>
<ellipse fill="#b9d3ee" stroke="black" cx="1504.9" cy="-322" rx="108" ry="18"/>
<text text-anchor="middle" x="1504.9" y="-318.3" font-family="Times,serif" font-size="14.00">773</text>
</g>
<!-- 00&#45;&gt;12 -->
<g id="edge4" class="edge">
<title>00&#45;&gt;12</title>
<path fill="none" stroke="black" d="M1423.04,-376.05C1437.34,-366.79 1455.23,-355.19 1470.63,-345.21"/>
<polygon fill="black" stroke="black" points="1472.88,-347.92 1479.37,-339.55 1469.07,-342.05 1472.88,-347.92"/>
</g>
<!-- 01 -->
<g id="node2" class="node">
<title>01</title>
<ellipse fill="#b9d3ee" stroke="black" cx="1702.9" cy="-394" rx="108" ry="18"/>
<text text-anchor="middle" x="1702.9" y="-390.3" font-family="Times,serif" font-size="14.00">886</text>
</g>
<!-- 01&#45;&gt;10 -->
<g id="edge2" class="edge">
<title>01&#45;&gt;10</title>
<path fill="none" stroke="black" d="M1702.9,-375.7C1702.9,-367.98 1702.9,-358.71 1702.9,-350.11"/>
<polygon fill="black" stroke="black" points="1706.4,-350.1 1702.9,-340.1 1699.4,-350.1 1706.4,-350.1"/>
</g>
<!-- 01&#45;&gt;12 -->
<g id="edge5" class="edge">
<title>01&#45;&gt;12</title>
<path fill="none" stroke="black" d="M1658.96,-377.46C1629.22,-366.95 1589.77,-353 1558.23,-341.86"/>
<polygon fill="black" stroke="black" points="1559.31,-338.53 1548.72,-338.49 1556.98,-345.12 1559.31,-338.53"/>
</g>
<!-- legend_0 -->
<g id="node3" class="node">
<title>legend_0</title>
<polygon fill="#b9d3ee" stroke="black" points="2942.4,-412 2721.4,-412 2721.4,-376 2942.4,-376 2942.4,-412"/>
<text text-anchor="middle" x="2831.9" y="-390.3" font-family="Times,serif" font-size="14.00">DT=1 ST=1 Similarity=0.44</text>
</g>
<!-- legend_1 -->
<g id="node7" class="node">
<title>legend_1</title>
<polygon fill="#b9d3ee" stroke="black" points="2942.4,-340 2721.4,-340 2721.4,-304 2942.4,-304 2942.4,-340"/>
<text text-anchor="middle" x="2831.9" y="-318.3" font-family="Times,serif" font-size="14.00">DT=2 ST=1 Similarity=0.55</text>
</g>
<!-- legend_0&#45;&gt;legend_1 -->
<g id="edge6" class="edge">
<title>legend_0&#45;&gt;legend_1</title>
<path fill="none" stroke="black" d="M2831.9,-375.7C2831.9,-367.98 2831.9,-358.71 2831.9,-350.11"/>
<polygon fill="black" stroke="black" points="2835.4,-350.1 2831.9,-340.1 2828.4,-350.1 2835.4,-350.1"/>
</g>
<!-- 22 -->
<g id="node10" class="node">
<title>22</title>
<ellipse fill="#b9d3ee" stroke="black" cx="1861.9" cy="-250" rx="36" ry="18"/>
<text text-anchor="middle" x="1861.9" y="-246.3" font-family="Times,serif" font-size="14.00">402</text>
</g>
<!-- 10&#45;&gt;22 -->
<g id="edge10" class="edge">
<title>10&#45;&gt;22</title>
<path fill="none" stroke="black" d="M1737.01,-305.98C1763.34,-294.39 1799.66,-278.4 1826.35,-266.65"/>
<polygon fill="black" stroke="black" points="1827.96,-269.76 1835.71,-262.53 1825.14,-263.36 1827.96,-269.76"/>
</g>
<!-- 23 -->
<g id="node11" class="node">
<title>23</title>
<ellipse fill="#b9d3ee" stroke="black" cx="1697.9" cy="-250" rx="36" ry="18"/>
<text text-anchor="middle" x="1697.9" y="-246.3" font-family="Times,serif" font-size="14.00">410</text>
</g>
<!-- 10&#45;&gt;23 -->
<g id="edge11" class="edge">
<title>10&#45;&gt;23</title>
<path fill="none" stroke="black" d="M1701.66,-303.7C1701.11,-295.98 1700.45,-286.71 1699.84,-278.11"/>
<polygon fill="black" stroke="black" points="1703.32,-277.83 1699.12,-268.1 1696.34,-278.33 1703.32,-277.83"/>
</g>
<!-- 24 -->
<g id="node12" class="node">
<title>24</title>
<ellipse fill="#b9d3ee" stroke="black" cx="1603.9" cy="-250" rx="36" ry="18"/>
<text text-anchor="middle" x="1603.9" y="-246.3" font-family="Times,serif" font-size="14.00">400</text>
</g>
<!-- 10&#45;&gt;24 -->
<g id="edge13" class="edge">
<title>10&#45;&gt;24</title>
<path fill="none" stroke="black" d="M1679.94,-304.76C1665.8,-294.77 1647.57,-281.88 1632.5,-271.23"/>
<polygon fill="black" stroke="black" points="1634.24,-268.17 1624.05,-265.25 1630.2,-273.88 1634.24,-268.17"/>
</g>
<!-- 20 -->
<g id="node8" class="node">
<title>20</title>
<ellipse fill="#b9d3ee" stroke="black" cx="1270.9" cy="-250" rx="36" ry="18"/>
<text text-anchor="middle" x="1270.9" y="-246.3" font-family="Times,serif" font-size="14.00">392</text>
</g>
<!-- 11&#45;&gt;20 -->
<g id="edge7" class="edge">
<title>11&#45;&gt;20</title>
<path fill="none" stroke="black" d="M1270.9,-303.7C1270.9,-295.98 1270.9,-286.71 1270.9,-278.11"/>
<polygon fill="black" stroke="black" points="1274.4,-278.1 1270.9,-268.1 1267.4,-278.1 1274.4,-278.1"/>
</g>
<!-- 11&#45;&gt;24 -->
<g id="edge14" class="edge">
<title>11&#45;&gt;24</title>
<path fill="none" stroke="black" d="M1346.62,-309.09C1403.03,-299.62 1481.76,-285.13 1549.9,-268 1554.89,-266.74 1560.11,-265.29 1565.24,-263.77"/>
<polygon fill="black" stroke="black" points="1566.39,-267.08 1574.93,-260.81 1564.34,-260.38 1566.39,-267.08"/>
</g>
<!-- 12&#45;&gt;20 -->
<g id="edge8" class="edge">
<title>12&#45;&gt;20</title>
<path fill="none" stroke="black" d="M1454.7,-305.98C1411.62,-293.1 1350.36,-274.77 1310.62,-262.88"/>
<polygon fill="black" stroke="black" points="1311.59,-259.52 1301.01,-260.01 1309.58,-266.23 1311.59,-259.52"/>
</g>
<!-- 21 -->
<g id="node9" class="node">
<title>21</title>
<ellipse fill="#b9d3ee" stroke="black" cx="1504.9" cy="-250" rx="36" ry="18"/>
<text text-anchor="middle" x="1504.9" y="-246.3" font-family="Times,serif" font-size="14.00">396</text>
</g>
<!-- 12&#45;&gt;21 -->
<g id="edge9" class="edge">
<title>12&#45;&gt;21</title>
<path fill="none" stroke="black" d="M1504.9,-303.7C1504.9,-295.98 1504.9,-286.71 1504.9,-278.11"/>
<polygon fill="black" stroke="black" points="1508.4,-278.1 1504.9,-268.1 1501.4,-278.1 1508.4,-278.1"/>
</g>
<!-- 12&#45;&gt;23 -->
<g id="edge12" class="edge">
<title>12&#45;&gt;23</title>
<path fill="none" stroke="black" d="M1547.73,-305.46C1581.35,-293.27 1627.7,-276.46 1659.98,-264.75"/>
<polygon fill="black" stroke="black" points="1661.31,-267.99 1669.52,-261.29 1658.92,-261.41 1661.31,-267.99"/>
</g>
<!-- legend_2 -->
<g id="node13" class="node">
<title>legend_2</title>
<polygon fill="#b9d3ee" stroke="black" points="2942.4,-268 2721.4,-268 2721.4,-232 2942.4,-232 2942.4,-268"/>
<text text-anchor="middle" x="2831.9" y="-246.3" font-family="Times,serif" font-size="14.00">DT=3 ST=1 Similarity=0.67</text>
</g>
<!-- legend_1&#45;&gt;legend_2 -->
<g id="edge15" class="edge">
<title>legend_1&#45;&gt;legend_2</title>
<path fill="none" stroke="black" d="M2831.9,-303.7C2831.9,-295.98 2831.9,-286.71 2831.9,-278.11"/>
<polygon fill="black" stroke="black" points="2835.4,-278.1 2831.9,-268.1 2828.4,-278.1 2835.4,-278.1"/>
</g>
<!-- 31 -->
<g id="node15" class="node">
<title>31</title>
<polygon fill="darkseagreen" stroke="black" points="922.9,-196 850.9,-196 850.9,-160 922.9,-160 922.9,-196"/>
<text text-anchor="middle" x="886.9" y="-174.3" font-family="Times,serif" font-size="14.00">403</text>
</g>
<!-- 20&#45;&gt;31 -->
<g id="edge19" class="edge">
<title>20&#45;&gt;31</title>
<path fill="none" stroke="black" d="M1237.49,-242.91C1168.78,-230.38 1011.47,-201.71 933.07,-187.42"/>
<polygon fill="black" stroke="black" points="933.47,-183.93 923.01,-185.58 932.22,-190.82 933.47,-183.93"/>
</g>
<!-- 21&#45;&gt;31 -->
<g id="edge20" class="edge">
<title>21&#45;&gt;31</title>
<path fill="none" stroke="black" d="M1469.9,-245.04C1364.81,-233.13 1051.94,-197.69 933.26,-184.25"/>
<polygon fill="black" stroke="black" points="933.38,-180.74 923.05,-183.09 932.59,-187.7 933.38,-180.74"/>
</g>
<!-- 33 -->
<g id="node17" class="node">
<title>33</title>
<polygon fill="darkseagreen" stroke="black" points="1562.9,-196 1490.9,-196 1490.9,-160 1562.9,-160 1562.9,-196"/>
<text text-anchor="middle" x="1526.9" y="-174.3" font-family="Times,serif" font-size="14.00">404</text>
</g>
<!-- 21&#45;&gt;33 -->
<g id="edge22" class="edge">
<title>21&#45;&gt;33</title>
<path fill="none" stroke="black" d="M1510.22,-232.05C1512.67,-224.26 1515.64,-214.82 1518.39,-206.08"/>
<polygon fill="black" stroke="black" points="1521.81,-206.86 1521.47,-196.28 1515.13,-204.77 1521.81,-206.86"/>
</g>
<!-- 30 -->
<g id="node14" class="node">
<title>30</title>
<polygon fill="darkseagreen" stroke="black" points="1979.9,-196 1907.9,-196 1907.9,-160 1979.9,-160 1979.9,-196"/>
<text text-anchor="middle" x="1943.9" y="-174.3" font-family="Times,serif" font-size="14.00">412</text>
</g>
<!-- 22&#45;&gt;30 -->
<g id="edge16" class="edge">
<title>22&#45;&gt;30</title>
<path fill="none" stroke="black" d="M1879.29,-234.15C1890.01,-225 1904,-213.06 1916.22,-202.63"/>
<polygon fill="black" stroke="black" points="1918.6,-205.19 1923.94,-196.04 1914.06,-199.87 1918.6,-205.19"/>
</g>
<!-- 23&#45;&gt;30 -->
<g id="edge17" class="edge">
<title>23&#45;&gt;30</title>
<path fill="none" stroke="black" d="M1728.56,-240.28C1771.09,-228.17 1848.35,-206.19 1897.84,-192.11"/>
<polygon fill="black" stroke="black" points="1898.99,-195.42 1907.65,-189.31 1897.07,-188.69 1898.99,-195.42"/>
</g>
<!-- 32 -->
<g id="node16" class="node">
<title>32</title>
<polygon fill="darkseagreen" stroke="black" points="1733.9,-196 1661.9,-196 1661.9,-160 1733.9,-160 1733.9,-196"/>
<text text-anchor="middle" x="1697.9" y="-174.3" font-family="Times,serif" font-size="14.00">385</text>
</g>
<!-- 23&#45;&gt;32 -->
<g id="edge21" class="edge">
<title>23&#45;&gt;32</title>
<path fill="none" stroke="black" d="M1697.9,-231.7C1697.9,-223.98 1697.9,-214.71 1697.9,-206.11"/>
<polygon fill="black" stroke="black" points="1701.4,-206.1 1697.9,-196.1 1694.4,-206.1 1701.4,-206.1"/>
</g>
<!-- 23&#45;&gt;33 -->
<g id="edge23" class="edge">
<title>23&#45;&gt;33</title>
<path fill="none" stroke="black" d="M1670.8,-237.91C1644.43,-227.11 1603.86,-210.5 1572.51,-197.67"/>
<polygon fill="black" stroke="black" points="1573.68,-194.37 1563.1,-193.82 1571.03,-200.85 1573.68,-194.37"/>
</g>
<!-- 24&#45;&gt;30 -->
<g id="edge18" class="edge">
<title>24&#45;&gt;30</title>
<path fill="none" stroke="black" d="M1631.91,-238.45C1638.72,-236.12 1646.02,-233.81 1652.9,-232 1738.17,-209.59 1839.95,-193.4 1897.75,-185.17"/>
<polygon fill="black" stroke="black" points="1898.25,-188.63 1907.67,-183.77 1897.28,-181.7 1898.25,-188.63"/>
</g>
<!-- 34 -->
<g id="node18" class="node">
<title>34</title>
<polygon fill="darkseagreen" stroke="black" points="1400.9,-196 1328.9,-196 1328.9,-160 1400.9,-160 1400.9,-196"/>
<text text-anchor="middle" x="1364.9" y="-174.3" font-family="Times,serif" font-size="14.00">396</text>
</g>
<!-- 24&#45;&gt;34 -->
<g id="edge24" class="edge">
<title>24&#45;&gt;34</title>
<path fill="none" stroke="black" d="M1574.51,-239.6C1566.54,-237.09 1557.9,-234.4 1549.9,-232 1502.61,-217.79 1448.26,-202.32 1410.77,-191.78"/>
<polygon fill="black" stroke="black" points="1411.71,-188.41 1401.14,-189.08 1409.82,-195.15 1411.71,-188.41"/>
</g>
<!-- legend_3 -->
<g id="node19" class="node">
<title>legend_3</title>
<polygon fill="darkseagreen" stroke="black" points="2942.4,-196 2721.4,-196 2721.4,-160 2942.4,-160 2942.4,-196"/>
<text text-anchor="middle" x="2831.9" y="-174.3" font-family="Times,serif" font-size="14.00">DT=4 ST=1 Similarity=0.68</text>
</g>
<!-- legend_2&#45;&gt;legend_3 -->
<g id="edge25" class="edge">
<title>legend_2&#45;&gt;legend_3</title>
<path fill="none" stroke="black" d="M2831.9,-231.7C2831.9,-223.98 2831.9,-214.71 2831.9,-206.11"/>
<polygon fill="black" stroke="black" points="2835.4,-206.1 2831.9,-196.1 2828.4,-206.1 2835.4,-206.1"/>
</g>
<!-- 41 -->
<g id="node21" class="node">
<title>41</title>
<ellipse fill="#b9d3ee" stroke="black" cx="2608.9" cy="-106" rx="16.8" ry="18"/>
<text text-anchor="middle" x="2608.9" y="-102.3" font-family="Times,serif" font-size="14.00">3</text>
</g>
<!-- 30&#45;&gt;41 -->
<g id="edge28" class="edge">
<title>30&#45;&gt;41</title>
<path fill="none" stroke="black" d="M1980.12,-173.19C2099.36,-160.64 2477.91,-120.79 2582.12,-109.82"/>
<polygon fill="black" stroke="black" points="2582.55,-113.29 2592.13,-108.77 2581.82,-106.33 2582.55,-113.29"/>
</g>
<!-- 42 -->
<g id="node22" class="node">
<title>42</title>
<ellipse fill="#b9d3ee" stroke="black" cx="2145.9" cy="-106" rx="16.8" ry="18"/>
<text text-anchor="middle" x="2145.9" y="-102.3" font-family="Times,serif" font-size="14.00">2</text>
</g>
<!-- 30&#45;&gt;42 -->
<g id="edge29" class="edge">
<title>30&#45;&gt;42</title>
<path fill="none" stroke="black" d="M1980.01,-164.49C2020.4,-150.49 2084.78,-128.18 2120.3,-115.87"/>
<polygon fill="black" stroke="black" points="2121.61,-119.12 2129.92,-112.54 2119.32,-112.51 2121.61,-119.12"/>
</g>
<!-- 48 -->
<g id="node28" class="node">
<title>48</title>
<ellipse fill="#b9d3ee" stroke="black" cx="2330.9" cy="-106" rx="36" ry="18"/>
<text text-anchor="middle" x="2330.9" y="-102.3" font-family="Times,serif" font-size="14.00">401</text>
</g>
<!-- 30&#45;&gt;48 -->
<g id="edge37" class="edge">
<title>30&#45;&gt;48</title>
<path fill="none" stroke="black" d="M1979.96,-170.48C2051.43,-157.55 2210.79,-128.73 2287.71,-114.81"/>
<polygon fill="black" stroke="black" points="2288.34,-118.25 2297.56,-113.03 2287.1,-111.37 2288.34,-118.25"/>
</g>
<!-- 49 -->
<g id="node29" class="node">
<title>49</title>
<ellipse fill="#b9d3ee" stroke="black" cx="1943.9" cy="-106" rx="23" ry="18"/>
<text text-anchor="middle" x="1943.9" y="-102.3" font-family="Times,serif" font-size="14.00">71</text>
</g>
<!-- 30&#45;&gt;49 -->
<g id="edge38" class="edge">
<title>30&#45;&gt;49</title>
<path fill="none" stroke="black" d="M1943.9,-159.7C1943.9,-151.98 1943.9,-142.71 1943.9,-134.11"/>
<polygon fill="black" stroke="black" points="1947.4,-134.1 1943.9,-124.1 1940.4,-134.1 1947.4,-134.1"/>
</g>
<!-- 43 -->
<g id="node23" class="node">
<title>43</title>
<ellipse fill="#b9d3ee" stroke="black" cx="494.9" cy="-106" rx="36" ry="18"/>
<text text-anchor="middle" x="494.9" y="-102.3" font-family="Times,serif" font-size="14.00">363</text>
</g>
<!-- 31&#45;&gt;43 -->
<g id="edge30" class="edge">
<title>31&#45;&gt;43</title>
<path fill="none" stroke="black" d="M850.72,-170.54C778.35,-157.62 616.01,-128.63 538.15,-114.72"/>
<polygon fill="black" stroke="black" points="538.65,-111.26 528.19,-112.95 537.42,-118.15 538.65,-111.26"/>
</g>
<!-- 45 -->
<g id="node25" class="node">
<title>45</title>
<ellipse fill="#b9d3ee" stroke="black" cx="886.9" cy="-106" rx="36" ry="18"/>
<text text-anchor="middle" x="886.9" y="-102.3" font-family="Times,serif" font-size="14.00">398</text>
</g>
<!-- 31&#45;&gt;45 -->
<g id="edge32" class="edge">
<title>31&#45;&gt;45</title>
<path fill="none" stroke="black" d="M886.9,-159.7C886.9,-151.98 886.9,-142.71 886.9,-134.11"/>
<polygon fill="black" stroke="black" points="890.4,-134.1 886.9,-124.1 883.4,-134.1 890.4,-134.1"/>
</g>
<!-- 47 -->
<g id="node27" class="node">
<title>47</title>
<ellipse fill="#b9d3ee" stroke="black" cx="149.9" cy="-106" rx="23" ry="18"/>
<text text-anchor="middle" x="149.9" y="-102.3" font-family="Times,serif" font-size="14.00">35</text>
</g>
<!-- 31&#45;&gt;47 -->
<g id="edge36" class="edge">
<title>31&#45;&gt;47</title>
<path fill="none" stroke="black" d="M850.85,-173.58C724.61,-161.59 303.57,-121.6 182.64,-110.11"/>
<polygon fill="black" stroke="black" points="182.81,-106.61 172.52,-109.15 182.15,-113.58 182.81,-106.61"/>
</g>
<!-- 40 -->
<g id="node20" class="node">
<title>40</title>
<ellipse fill="#b9d3ee" stroke="black" cx="1526.9" cy="-106" rx="23" ry="18"/>
<text text-anchor="middle" x="1526.9" y="-102.3" font-family="Times,serif" font-size="14.00">10</text>
</g>
<!-- 32&#45;&gt;40 -->
<g id="edge26" class="edge">
<title>32&#45;&gt;40</title>
<path fill="none" stroke="black" d="M1661.63,-162.15C1630.24,-149.3 1585.41,-130.95 1556.23,-119.01"/>
<polygon fill="black" stroke="black" points="1557.19,-115.62 1546.61,-115.07 1554.54,-122.1 1557.19,-115.62"/>
</g>
<!-- 46 -->
<g id="node26" class="node">
<title>46</title>
<ellipse fill="#b9d3ee" stroke="black" cx="1697.9" cy="-106" rx="36" ry="18"/>
<text text-anchor="middle" x="1697.9" y="-102.3" font-family="Times,serif" font-size="14.00">321</text>
</g>
<!-- 32&#45;&gt;46 -->
<g id="edge34" class="edge">
<title>32&#45;&gt;46</title>
<path fill="none" stroke="black" d="M1697.9,-159.7C1697.9,-151.98 1697.9,-142.71 1697.9,-134.11"/>
<polygon fill="black" stroke="black" points="1701.4,-134.1 1697.9,-124.1 1694.4,-134.1 1701.4,-134.1"/>
</g>
<!-- 32&#45;&gt;49 -->
<g id="edge39" class="edge">
<title>32&#45;&gt;49</title>
<path fill="none" stroke="black" d="M1733.93,-166.75C1782.32,-152.98 1867.47,-128.75 1913.05,-115.78"/>
<polygon fill="black" stroke="black" points="1914.02,-119.14 1922.68,-113.04 1912.1,-112.41 1914.02,-119.14"/>
</g>
<!-- 33&#45;&gt;40 -->
<g id="edge27" class="edge">
<title>33&#45;&gt;40</title>
<path fill="none" stroke="black" d="M1526.9,-159.7C1526.9,-151.98 1526.9,-142.71 1526.9,-134.11"/>
<polygon fill="black" stroke="black" points="1530.4,-134.1 1526.9,-124.1 1523.4,-134.1 1530.4,-134.1"/>
</g>
<!-- 33&#45;&gt;45 -->
<g id="edge33" class="edge">
<title>33&#45;&gt;45</title>
<path fill="none" stroke="black" d="M1490.85,-171.35C1467.74,-167.83 1437.09,-163.35 1409.9,-160 1233.68,-138.28 1023.25,-118.96 932.38,-110.94"/>
<polygon fill="black" stroke="black" points="932.42,-107.43 922.16,-110.04 931.81,-114.4 932.42,-107.43"/>
</g>
<!-- 33&#45;&gt;46 -->
<g id="edge35" class="edge">
<title>33&#45;&gt;46</title>
<path fill="none" stroke="black" d="M1563.16,-162.15C1592.14,-150.29 1632.57,-133.74 1661.56,-121.87"/>
<polygon fill="black" stroke="black" points="1663,-125.07 1670.93,-118.04 1660.35,-118.59 1663,-125.07"/>
</g>
<!-- 44 -->
<g id="node24" class="node">
<title>44</title>
<ellipse fill="#b9d3ee" stroke="black" cx="1292.9" cy="-106" rx="36" ry="18"/>
<text text-anchor="middle" x="1292.9" y="-102.3" font-family="Times,serif" font-size="14.00">396</text>
</g>
<!-- 34&#45;&gt;44 -->
<g id="edge31" class="edge">
<title>34&#45;&gt;44</title>
<path fill="none" stroke="black" d="M1347.1,-159.7C1337.81,-150.66 1326.32,-139.5 1316.32,-129.77"/>
<polygon fill="black" stroke="black" points="1318.63,-127.13 1309.02,-122.67 1313.75,-132.15 1318.63,-127.13"/>
</g>
<!-- legend_4 -->
<g id="node30" class="node">
<title>legend_4</title>
<polygon fill="#b9d3ee" stroke="black" points="2942.4,-124 2721.4,-124 2721.4,-88 2942.4,-88 2942.4,-124"/>
<text text-anchor="middle" x="2831.9" y="-102.3" font-family="Times,serif" font-size="14.00">DT=5 ST=1 Similarity=0.65</text>
</g>
<!-- legend_3&#45;&gt;legend_4 -->
<g id="edge40" class="edge">
<title>legend_3&#45;&gt;legend_4</title>
<path fill="none" stroke="black" d="M2831.9,-159.7C2831.9,-151.98 2831.9,-142.71 2831.9,-134.11"/>
<polygon fill="black" stroke="black" points="2835.4,-134.1 2831.9,-124.1 2828.4,-134.1 2835.4,-134.1"/>
</g>
<!-- 50 -->
<g id="node31" class="node">
<title>50</title>
<ellipse fill="#b9d3ee" stroke="black" cx="1448.9" cy="-34" rx="16.8" ry="18"/>
<text text-anchor="middle" x="1448.9" y="-30.3" font-family="Times,serif" font-size="14.00">1</text>
</g>
<!-- 40&#45;&gt;50 -->
<g id="edge41" class="edge">
<title>40&#45;&gt;50</title>
<path fill="none" stroke="black" d="M1512.23,-91.83C1500.09,-80.94 1482.73,-65.36 1469.25,-53.27"/>
<polygon fill="black" stroke="black" points="1471.22,-50.33 1461.44,-46.26 1466.55,-55.54 1471.22,-50.33"/>
</g>
<!-- 58 -->
<g id="node39" class="node">
<title>58</title>
<ellipse fill="#b9d3ee" stroke="black" cx="1500.9" cy="-34" rx="16.8" ry="18"/>
<text text-anchor="middle" x="1500.9" y="-30.3" font-family="Times,serif" font-size="14.00">1</text>
</g>
<!-- 40&#45;&gt;58 -->
<g id="edge49" class="edge">
<title>40&#45;&gt;58</title>
<path fill="none" stroke="black" d="M1520.74,-88.41C1517.65,-80.1 1513.84,-69.85 1510.39,-60.56"/>
<polygon fill="black" stroke="black" points="1513.6,-59.14 1506.84,-50.99 1507.04,-61.58 1513.6,-59.14"/>
</g>
<!-- 514 -->
<g id="node45" class="node">
<title>514</title>
<ellipse fill="#b9d3ee" stroke="black" cx="1552.9" cy="-34" rx="16.8" ry="18"/>
<text text-anchor="middle" x="1552.9" y="-30.3" font-family="Times,serif" font-size="14.00">2</text>
</g>
<!-- 40&#45;&gt;514 -->
<g id="edge55" class="edge">
<title>40&#45;&gt;514</title>
<path fill="none" stroke="black" d="M1533.06,-88.41C1536.15,-80.1 1539.96,-69.85 1543.41,-60.56"/>
<polygon fill="black" stroke="black" points="1546.76,-61.58 1546.96,-50.99 1540.2,-59.14 1546.76,-61.58"/>
</g>
<!-- 517 -->
<g id="node48" class="node">
<title>517</title>
<ellipse fill="#b9d3ee" stroke="black" cx="1604.9" cy="-34" rx="16.8" ry="18"/>
<text text-anchor="middle" x="1604.9" y="-30.3" font-family="Times,serif" font-size="14.00">3</text>
</g>
<!-- 40&#45;&gt;517 -->
<g id="edge58" class="edge">
<title>40&#45;&gt;517</title>
<path fill="none" stroke="black" d="M1541.57,-91.83C1553.7,-80.94 1571.07,-65.36 1584.54,-53.27"/>
<polygon fill="black" stroke="black" points="1587.25,-55.54 1592.35,-46.26 1582.57,-50.33 1587.25,-55.54"/>
</g>
<!-- 518 -->
<g id="node49" class="node">
<title>518</title>
<ellipse fill="#b9d3ee" stroke="black" cx="1396.9" cy="-34" rx="16.8" ry="18"/>
<text text-anchor="middle" x="1396.9" y="-30.3" font-family="Times,serif" font-size="14.00">3</text>
</g>
<!-- 40&#45;&gt;518 -->
<g id="edge59" class="edge">
<title>40&#45;&gt;518</title>
<path fill="none" stroke="black" d="M1507.78,-96.03C1486.67,-85.94 1451.83,-68.76 1422.9,-52 1421.77,-51.35 1420.62,-50.66 1419.47,-49.96"/>
<polygon fill="black" stroke="black" points="1421.08,-46.84 1410.76,-44.46 1417.34,-52.76 1421.08,-46.84"/>
</g>
<!-- 53 -->
<g id="node34" class="node">
<title>53</title>
<ellipse fill="#b9d3ee" stroke="black" cx="2686.9" cy="-34" rx="16.8" ry="18"/>
<text text-anchor="middle" x="2686.9" y="-30.3" font-family="Times,serif" font-size="14.00">1</text>
</g>
<!-- 41&#45;&gt;53 -->
<g id="edge44" class="edge">
<title>41&#45;&gt;53</title>
<path fill="none" stroke="black" d="M2621.43,-93.75C2633.6,-82.83 2652.27,-66.07 2666.57,-53.24"/>
<polygon fill="black" stroke="black" points="2669.29,-55.5 2674.4,-46.22 2664.62,-50.29 2669.29,-55.5"/>
</g>
<!-- 54 -->
<g id="node35" class="node">
<title>54</title>
<ellipse fill="#b9d3ee" stroke="black" cx="2582.9" cy="-34" rx="16.8" ry="18"/>
<text text-anchor="middle" x="2582.9" y="-30.3" font-family="Times,serif" font-size="14.00">1</text>
</g>
<!-- 41&#45;&gt;54 -->
<g id="edge45" class="edge">
<title>41&#45;&gt;54</title>
<path fill="none" stroke="black" d="M2603,-89.12C2599.89,-80.73 2595.99,-70.24 2592.46,-60.73"/>
<polygon fill="black" stroke="black" points="2595.72,-59.46 2588.96,-51.31 2589.16,-61.9 2595.72,-59.46"/>
</g>
<!-- 55 -->
<g id="node36" class="node">
<title>55</title>
<ellipse fill="#b9d3ee" stroke="black" cx="2634.9" cy="-34" rx="16.8" ry="18"/>
<text text-anchor="middle" x="2634.9" y="-30.3" font-family="Times,serif" font-size="14.00">1</text>
</g>
<!-- 41&#45;&gt;55 -->
<g id="edge46" class="edge">
<title>41&#45;&gt;55</title>
<path fill="none" stroke="black" d="M2614.8,-89.12C2617.91,-80.73 2621.81,-70.24 2625.34,-60.73"/>
<polygon fill="black" stroke="black" points="2628.64,-61.9 2628.84,-51.31 2622.08,-59.46 2628.64,-61.9"/>
</g>
<!-- 59 -->
<g id="node40" class="node">
<title>59</title>
<ellipse fill="#b9d3ee" stroke="black" cx="2145.9" cy="-34" rx="16.8" ry="18"/>
<text text-anchor="middle" x="2145.9" y="-30.3" font-family="Times,serif" font-size="14.00">1</text>
</g>
<!-- 42&#45;&gt;59 -->
<g id="edge50" class="edge">
<title>42&#45;&gt;59</title>
<path fill="none" stroke="black" d="M2145.9,-87.7C2145.9,-79.98 2145.9,-70.71 2145.9,-62.11"/>
<polygon fill="black" stroke="black" points="2149.4,-62.1 2145.9,-52.1 2142.4,-62.1 2149.4,-62.1"/>
</g>
<!-- 510 -->
<g id="node41" class="node">
<title>510</title>
<ellipse fill="#b9d3ee" stroke="black" cx="2197.9" cy="-34" rx="16.8" ry="18"/>
<text text-anchor="middle" x="2197.9" y="-30.3" font-family="Times,serif" font-size="14.00">1</text>
</g>
<!-- 42&#45;&gt;510 -->
<g id="edge51" class="edge">
<title>42&#45;&gt;510</title>
<path fill="none" stroke="black" d="M2155.92,-91.5C2163.17,-81.75 2173.11,-68.37 2181.5,-57.07"/>
<polygon fill="black" stroke="black" points="2184.39,-59.05 2187.55,-48.93 2178.77,-54.87 2184.39,-59.05"/>
</g>
<!-- 51 -->
<g id="node32" class="node">
<title>51</title>
<ellipse fill="#b9d3ee" stroke="black" cx="442.9" cy="-34" rx="16.8" ry="18"/>
<text text-anchor="middle" x="442.9" y="-30.3" font-family="Times,serif" font-size="14.00">1</text>
</g>
<!-- 43&#45;&gt;51 -->
<g id="edge42" class="edge">
<title>43&#45;&gt;51</title>
<path fill="none" stroke="black" d="M482.84,-88.76C475.81,-79.3 466.84,-67.23 459.19,-56.93"/>
<polygon fill="black" stroke="black" points="461.91,-54.73 453.14,-48.79 456.29,-58.9 461.91,-54.73"/>
</g>
<!-- 57 -->
<g id="node38" class="node">
<title>57</title>
<ellipse fill="#b9d3ee" stroke="black" cx="494.9" cy="-34" rx="16.8" ry="18"/>
<text text-anchor="middle" x="494.9" y="-30.3" font-family="Times,serif" font-size="14.00">1</text>
</g>
<!-- 43&#45;&gt;57 -->
<g id="edge48" class="edge">
<title>43&#45;&gt;57</title>
<path fill="none" stroke="black" d="M494.9,-87.7C494.9,-79.98 494.9,-70.71 494.9,-62.11"/>
<polygon fill="black" stroke="black" points="498.4,-62.1 494.9,-52.1 491.4,-62.1 498.4,-62.1"/>
</g>
<!-- 520 -->
<g id="node51" class="node">
<title>520</title>
<ellipse fill="#b9d3ee" stroke="black" cx="546.9" cy="-34" rx="16.8" ry="18"/>
<text text-anchor="middle" x="546.9" y="-30.3" font-family="Times,serif" font-size="14.00">3</text>
</g>
<!-- 43&#45;&gt;520 -->
<g id="edge61" class="edge">
<title>43&#45;&gt;520</title>
<path fill="none" stroke="black" d="M506.96,-88.76C513.99,-79.3 522.95,-67.23 530.61,-56.93"/>
<polygon fill="black" stroke="black" points="533.5,-58.9 536.66,-48.79 527.88,-54.73 533.5,-58.9"/>
</g>
<!-- 524 -->
<g id="node55" class="node">
<title>524</title>
<ellipse fill="#b9d3ee" stroke="black" cx="598.9" cy="-34" rx="16.8" ry="18"/>
<text text-anchor="middle" x="598.9" y="-30.3" font-family="Times,serif" font-size="14.00">5</text>
</g>
<!-- 43&#45;&gt;524 -->
<g id="edge65" class="edge">
<title>43&#45;&gt;524</title>
<path fill="none" stroke="black" d="M515.45,-91.17C532.99,-79.36 558.18,-62.41 576.29,-50.22"/>
<polygon fill="black" stroke="black" points="578.7,-52.82 585.04,-44.33 574.79,-47.01 578.7,-52.82"/>
</g>
<!-- 534 -->
<g id="node65" class="node">
<title>534</title>
<ellipse fill="#b9d3ee" stroke="black" cx="294.9" cy="-34" rx="23" ry="18"/>
<text text-anchor="middle" x="294.9" y="-30.3" font-family="Times,serif" font-size="14.00">20</text>
</g>
<!-- 43&#45;&gt;534 -->
<g id="edge75" class="edge">
<title>43&#45;&gt;534</title>
<path fill="none" stroke="black" d="M463.64,-96.98C429.43,-87.79 373.3,-71.45 326.9,-52 325.3,-51.33 323.68,-50.61 322.06,-49.86"/>
<polygon fill="black" stroke="black" points="323.41,-46.62 312.9,-45.3 320.29,-52.89 323.41,-46.62"/>
</g>
<!-- 545 -->
<g id="node76" class="node">
<title>545</title>
<ellipse fill="#b9d3ee" stroke="black" cx="371.9" cy="-34" rx="36" ry="18"/>
<text text-anchor="middle" x="371.9" y="-30.3" font-family="Times,serif" font-size="14.00">333</text>
</g>
<!-- 43&#45;&gt;545 -->
<g id="edge86" class="edge">
<title>43&#45;&gt;545</title>
<path fill="none" stroke="black" d="M472.05,-92C452.84,-81.07 425.17,-65.32 403.78,-53.14"/>
<polygon fill="black" stroke="black" points="405.46,-50.07 395.04,-48.17 402,-56.16 405.46,-50.07"/>
</g>
<!-- 515 -->
<g id="node46" class="node">
<title>515</title>
<ellipse fill="#b9d3ee" stroke="black" cx="1292.9" cy="-34" rx="16.8" ry="18"/>
<text text-anchor="middle" x="1292.9" y="-30.3" font-family="Times,serif" font-size="14.00">2</text>
</g>
<!-- 44&#45;&gt;515 -->
<g id="edge56" class="edge">
<title>44&#45;&gt;515</title>
<path fill="none" stroke="black" d="M1292.9,-87.7C1292.9,-79.98 1292.9,-70.71 1292.9,-62.11"/>
<polygon fill="black" stroke="black" points="1296.4,-62.1 1292.9,-52.1 1289.4,-62.1 1296.4,-62.1"/>
</g>
<!-- 523 -->
<g id="node54" class="node">
<title>523</title>
<ellipse fill="#b9d3ee" stroke="black" cx="1344.9" cy="-34" rx="16.8" ry="18"/>
<text text-anchor="middle" x="1344.9" y="-30.3" font-family="Times,serif" font-size="14.00">4</text>
</g>
<!-- 44&#45;&gt;523 -->
<g id="edge64" class="edge">
<title>44&#45;&gt;523</title>
<path fill="none" stroke="black" d="M1304.96,-88.76C1311.99,-79.3 1320.95,-67.23 1328.61,-56.93"/>
<polygon fill="black" stroke="black" points="1331.5,-58.9 1334.66,-48.79 1325.88,-54.73 1331.5,-58.9"/>
</g>
<!-- 539 -->
<g id="node70" class="node">
<title>539</title>
<ellipse fill="#b9d3ee" stroke="black" cx="1144.9" cy="-34" rx="23" ry="18"/>
<text text-anchor="middle" x="1144.9" y="-30.3" font-family="Times,serif" font-size="14.00">91</text>
</g>
<!-- 44&#45;&gt;539 -->
<g id="edge80" class="edge">
<title>44&#45;&gt;539</title>
<path fill="none" stroke="black" d="M1266.43,-93.45C1242.78,-83 1207.28,-66.99 1176.9,-52 1175.35,-51.23 1173.76,-50.44 1172.16,-49.62"/>
<polygon fill="black" stroke="black" points="1173.56,-46.41 1163.08,-44.9 1170.33,-52.62 1173.56,-46.41"/>
</g>
<!-- 543 -->
<g id="node74" class="node">
<title>543</title>
<ellipse fill="#b9d3ee" stroke="black" cx="1221.9" cy="-34" rx="36" ry="18"/>
<text text-anchor="middle" x="1221.9" y="-30.3" font-family="Times,serif" font-size="14.00">299</text>
</g>
<!-- 44&#45;&gt;543 -->
<g id="edge84" class="edge">
<title>44&#45;&gt;543</title>
<path fill="none" stroke="black" d="M1277.14,-89.46C1267.67,-80.13 1255.46,-68.09 1244.92,-57.7"/>
<polygon fill="black" stroke="black" points="1247.19,-55.02 1237.61,-50.49 1242.28,-60 1247.19,-55.02"/>
</g>
<!-- 511 -->
<g id="node42" class="node">
<title>511</title>
<ellipse fill="#b9d3ee" stroke="black" cx="1034.9" cy="-34" rx="16.8" ry="18"/>
<text text-anchor="middle" x="1034.9" y="-30.3" font-family="Times,serif" font-size="14.00">1</text>
</g>
<!-- 45&#45;&gt;511 -->
<g id="edge52" class="edge">
<title>45&#45;&gt;511</title>
<path fill="none" stroke="black" d="M914.66,-94.5C939.8,-84.63 977.59,-68.88 1008.9,-52 1010.05,-51.38 1011.21,-50.73 1012.38,-50.05"/>
<polygon fill="black" stroke="black" points="1014.48,-52.87 1021.13,-44.62 1010.79,-46.92 1014.48,-52.87"/>
</g>
<!-- 512 -->
<g id="node43" class="node">
<title>512</title>
<ellipse fill="#b9d3ee" stroke="black" cx="1086.9" cy="-34" rx="16.8" ry="18"/>
<text text-anchor="middle" x="1086.9" y="-30.3" font-family="Times,serif" font-size="14.00">2</text>
</g>
<!-- 45&#45;&gt;512 -->
<g id="edge53" class="edge">
<title>45&#45;&gt;512</title>
<path fill="none" stroke="black" d="M919.33,-98.04C955.06,-89.71 1013.7,-74.07 1060.9,-52 1062.08,-51.45 1063.27,-50.85 1064.46,-50.21"/>
<polygon fill="black" stroke="black" points="1066.5,-53.07 1073.29,-44.93 1062.91,-47.06 1066.5,-53.07"/>
</g>
<!-- 519 -->
<g id="node50" class="node">
<title>519</title>
<ellipse fill="#b9d3ee" stroke="black" cx="650.9" cy="-34" rx="16.8" ry="18"/>
<text text-anchor="middle" x="650.9" y="-30.3" font-family="Times,serif" font-size="14.00">3</text>
</g>
<!-- 45&#45;&gt;519 -->
<g id="edge60" class="edge">
<title>45&#45;&gt;519</title>
<path fill="none" stroke="black" d="M852.67,-99.95C810.13,-92.88 735.96,-77.89 676.9,-52 675.7,-51.48 674.5,-50.9 673.31,-50.29"/>
<polygon fill="black" stroke="black" points="674.84,-47.13 664.45,-45.07 671.29,-53.16 674.84,-47.13"/>
</g>
<!-- 529 -->
<g id="node60" class="node">
<title>529</title>
<ellipse fill="#b9d3ee" stroke="black" cx="702.9" cy="-34" rx="16.8" ry="18"/>
<text text-anchor="middle" x="702.9" y="-30.3" font-family="Times,serif" font-size="14.00">8</text>
</g>
<!-- 45&#45;&gt;529 -->
<g id="edge70" class="edge">
<title>45&#45;&gt;529</title>
<path fill="none" stroke="black" d="M855.39,-97C822.82,-88.14 770.95,-72.38 728.9,-52 727.72,-51.43 726.54,-50.82 725.36,-50.17"/>
<polygon fill="black" stroke="black" points="726.92,-47.03 716.55,-44.86 723.3,-53.02 726.92,-47.03"/>
</g>
<!-- 533 -->
<g id="node64" class="node">
<title>533</title>
<ellipse fill="#b9d3ee" stroke="black" cx="760.9" cy="-34" rx="23" ry="18"/>
<text text-anchor="middle" x="760.9" y="-30.3" font-family="Times,serif" font-size="14.00">19</text>
</g>
<!-- 45&#45;&gt;533 -->
<g id="edge74" class="edge">
<title>45&#45;&gt;533</title>
<path fill="none" stroke="black" d="M863.79,-92.16C842.31,-80.23 810.32,-62.46 787.72,-49.9"/>
<polygon fill="black" stroke="black" points="789.41,-46.84 778.97,-45.04 786.01,-52.95 789.41,-46.84"/>
</g>
<!-- 537 -->
<g id="node68" class="node">
<title>537</title>
<ellipse fill="#b9d3ee" stroke="black" cx="823.9" cy="-34" rx="23" ry="18"/>
<text text-anchor="middle" x="823.9" y="-30.3" font-family="Times,serif" font-size="14.00">52</text>
</g>
<!-- 45&#45;&gt;537 -->
<g id="edge78" class="edge">
<title>45&#45;&gt;537</title>
<path fill="none" stroke="black" d="M872.6,-89.12C864.04,-79.6 853.03,-67.37 843.64,-56.94"/>
<polygon fill="black" stroke="black" points="846.14,-54.48 836.85,-49.39 840.94,-59.17 846.14,-54.48"/>
</g>
<!-- 538 -->
<g id="node69" class="node">
<title>538</title>
<ellipse fill="#b9d3ee" stroke="black" cx="886.9" cy="-34" rx="23" ry="18"/>
<text text-anchor="middle" x="886.9" y="-30.3" font-family="Times,serif" font-size="14.00">60</text>
</g>
<!-- 45&#45;&gt;538 -->
<g id="edge79" class="edge">
<title>45&#45;&gt;538</title>
<path fill="none" stroke="black" d="M886.9,-87.7C886.9,-79.98 886.9,-70.71 886.9,-62.11"/>
<polygon fill="black" stroke="black" points="890.4,-62.1 886.9,-52.1 883.4,-62.1 890.4,-62.1"/>
</g>
<!-- 542 -->
<g id="node73" class="node">
<title>542</title>
<ellipse fill="#b9d3ee" stroke="black" cx="963.9" cy="-34" rx="36" ry="18"/>
<text text-anchor="middle" x="963.9" y="-30.3" font-family="Times,serif" font-size="14.00">253</text>
</g>
<!-- 45&#45;&gt;542 -->
<g id="edge83" class="edge">
<title>45&#45;&gt;542</title>
<path fill="none" stroke="black" d="M903.61,-89.81C914.1,-80.27 927.81,-67.8 939.51,-57.17"/>
<polygon fill="black" stroke="black" points="942.18,-59.48 947.22,-50.16 937.47,-54.3 942.18,-59.48"/>
</g>
<!-- 513 -->
<g id="node44" class="node">
<title>513</title>
<ellipse fill="#b9d3ee" stroke="black" cx="1746.9" cy="-34" rx="16.8" ry="18"/>
<text text-anchor="middle" x="1746.9" y="-30.3" font-family="Times,serif" font-size="14.00">2</text>
</g>
<!-- 46&#45;&gt;513 -->
<g id="edge54" class="edge">
<title>46&#45;&gt;513</title>
<path fill="none" stroke="black" d="M1709.26,-88.76C1715.82,-79.39 1724.17,-67.47 1731.33,-57.24"/>
<polygon fill="black" stroke="black" points="1734.38,-58.99 1737.25,-48.79 1728.64,-54.97 1734.38,-58.99"/>
</g>
<!-- 530 -->
<g id="node61" class="node">
<title>530</title>
<ellipse fill="#b9d3ee" stroke="black" cx="1804.9" cy="-34" rx="23" ry="18"/>
<text text-anchor="middle" x="1804.9" y="-30.3" font-family="Times,serif" font-size="14.00">15</text>
</g>
<!-- 46&#45;&gt;530 -->
<g id="edge71" class="edge">
<title>46&#45;&gt;530</title>
<path fill="none" stroke="black" d="M1718.78,-91.34C1736.14,-79.99 1760.89,-63.79 1779.41,-51.68"/>
<polygon fill="black" stroke="black" points="1781.49,-54.5 1787.94,-46.1 1777.65,-48.64 1781.49,-54.5"/>
</g>
<!-- 544 -->
<g id="node75" class="node">
<title>544</title>
<ellipse fill="#b9d3ee" stroke="black" cx="1675.9" cy="-34" rx="36" ry="18"/>
<text text-anchor="middle" x="1675.9" y="-30.3" font-family="Times,serif" font-size="14.00">304</text>
</g>
<!-- 46&#45;&gt;544 -->
<g id="edge85" class="edge">
<title>46&#45;&gt;544</title>
<path fill="none" stroke="black" d="M1692.57,-88.05C1690.12,-80.26 1687.16,-70.82 1684.41,-62.08"/>
<polygon fill="black" stroke="black" points="1687.67,-60.77 1681.33,-52.28 1680.99,-62.86 1687.67,-60.77"/>
</g>
<!-- 52 -->
<g id="node33" class="node">
<title>52</title>
<ellipse fill="#b9d3ee" stroke="black" cx="236.9" cy="-34" rx="16.8" ry="18"/>
<text text-anchor="middle" x="236.9" y="-30.3" font-family="Times,serif" font-size="14.00">1</text>
</g>
<!-- 47&#45;&gt;52 -->
<g id="edge43" class="edge">
<title>47&#45;&gt;52</title>
<path fill="none" stroke="black" d="M165.45,-92.49C179.47,-81.2 200.21,-64.52 215.74,-52.02"/>
<polygon fill="black" stroke="black" points="218.16,-54.57 223.75,-45.58 213.77,-49.12 218.16,-54.57"/>
</g>
<!-- 526 -->
<g id="node57" class="node">
<title>526</title>
<ellipse fill="#b9d3ee" stroke="black" cx="16.9" cy="-34" rx="16.8" ry="18"/>
<text text-anchor="middle" x="16.9" y="-30.3" font-family="Times,serif" font-size="14.00">5</text>
</g>
<!-- 47&#45;&gt;526 -->
<g id="edge67" class="edge">
<title>47&#45;&gt;526</title>
<path fill="none" stroke="black" d="M130.6,-96.29C108.89,-86.3 72.77,-69.08 42.9,-52 41.77,-51.35 40.62,-50.68 39.46,-49.98"/>
<polygon fill="black" stroke="black" points="41.07,-46.86 30.74,-44.49 37.34,-52.78 41.07,-46.86"/>
</g>
<!-- 527 -->
<g id="node58" class="node">
<title>527</title>
<ellipse fill="#b9d3ee" stroke="black" cx="68.9" cy="-34" rx="16.8" ry="18"/>
<text text-anchor="middle" x="68.9" y="-30.3" font-family="Times,serif" font-size="14.00">6</text>
</g>
<!-- 47&#45;&gt;527 -->
<g id="edge68" class="edge">
<title>47&#45;&gt;527</title>
<path fill="none" stroke="black" d="M135.04,-92.16C122.29,-81.14 103.78,-65.14 89.58,-52.87"/>
<polygon fill="black" stroke="black" points="91.65,-50.03 81.79,-46.14 87.07,-55.33 91.65,-50.03"/>
</g>
<!-- 528 -->
<g id="node59" class="node">
<title>528</title>
<ellipse fill="#b9d3ee" stroke="black" cx="120.9" cy="-34" rx="16.8" ry="18"/>
<text text-anchor="middle" x="120.9" y="-30.3" font-family="Times,serif" font-size="14.00">7</text>
</g>
<!-- 47&#45;&gt;528 -->
<g id="edge69" class="edge">
<title>47&#45;&gt;528</title>
<path fill="none" stroke="black" d="M143.17,-88.76C139.65,-80.25 135.25,-69.64 131.29,-60.09"/>
<polygon fill="black" stroke="black" points="134.45,-58.56 127.39,-50.67 127.98,-61.24 134.45,-58.56"/>
</g>
<!-- 532 -->
<g id="node63" class="node">
<title>532</title>
<ellipse fill="#b9d3ee" stroke="black" cx="178.9" cy="-34" rx="23" ry="18"/>
<text text-anchor="middle" x="178.9" y="-30.3" font-family="Times,serif" font-size="14.00">16</text>
</g>
<!-- 47&#45;&gt;532 -->
<g id="edge73" class="edge">
<title>47&#45;&gt;532</title>
<path fill="none" stroke="black" d="M156.62,-88.76C160.05,-80.49 164.3,-70.23 168.17,-60.9"/>
<polygon fill="black" stroke="black" points="171.41,-62.21 172.01,-51.63 164.95,-59.53 171.41,-62.21"/>
</g>
<!-- 516 -->
<g id="node47" class="node">
<title>516</title>
<ellipse fill="#b9d3ee" stroke="black" cx="2249.9" cy="-34" rx="16.8" ry="18"/>
<text text-anchor="middle" x="2249.9" y="-30.3" font-family="Times,serif" font-size="14.00">2</text>
</g>
<!-- 48&#45;&gt;516 -->
<g id="edge57" class="edge">
<title>48&#45;&gt;516</title>
<path fill="none" stroke="black" d="M2313.72,-90.15C2301.11,-79.25 2283.91,-64.4 2270.55,-52.85"/>
<polygon fill="black" stroke="black" points="2272.66,-50.04 2262.8,-46.15 2268.08,-55.34 2272.66,-50.04"/>
</g>
<!-- 525 -->
<g id="node56" class="node">
<title>525</title>
<ellipse fill="#b9d3ee" stroke="black" cx="2301.9" cy="-34" rx="16.8" ry="18"/>
<text text-anchor="middle" x="2301.9" y="-30.3" font-family="Times,serif" font-size="14.00">5</text>
</g>
<!-- 48&#45;&gt;525 -->
<g id="edge66" class="edge">
<title>48&#45;&gt;525</title>
<path fill="none" stroke="black" d="M2323.88,-88.05C2320.43,-79.73 2316.21,-69.54 2312.39,-60.32"/>
<polygon fill="black" stroke="black" points="2315.52,-58.73 2308.46,-50.83 2309.05,-61.41 2315.52,-58.73"/>
</g>
<!-- 535 -->
<g id="node66" class="node">
<title>535</title>
<ellipse fill="#b9d3ee" stroke="black" cx="2359.9" cy="-34" rx="23" ry="18"/>
<text text-anchor="middle" x="2359.9" y="-30.3" font-family="Times,serif" font-size="14.00">48</text>
</g>
<!-- 48&#45;&gt;535 -->
<g id="edge76" class="edge">
<title>48&#45;&gt;535</title>
<path fill="none" stroke="black" d="M2337.92,-88.05C2341.32,-79.85 2345.47,-69.83 2349.25,-60.71"/>
<polygon fill="black" stroke="black" points="2352.55,-61.89 2353.14,-51.31 2346.08,-59.21 2352.55,-61.89"/>
</g>
<!-- 540 -->
<g id="node71" class="node">
<title>540</title>
<ellipse fill="#b9d3ee" stroke="black" cx="2428.9" cy="-34" rx="28.7" ry="18"/>
<text text-anchor="middle" x="2428.9" y="-30.3" font-family="Times,serif" font-size="14.00">104</text>
</g>
<!-- 48&#45;&gt;540 -->
<g id="edge81" class="edge">
<title>48&#45;&gt;540</title>
<path fill="none" stroke="black" d="M2350.73,-90.83C2365.55,-80.25 2385.96,-65.67 2402.21,-54.06"/>
<polygon fill="black" stroke="black" points="2404.65,-56.62 2410.75,-47.96 2400.58,-50.93 2404.65,-56.62"/>
</g>
<!-- 541 -->
<g id="node72" class="node">
<title>541</title>
<ellipse fill="#b9d3ee" stroke="black" cx="2511.9" cy="-34" rx="36" ry="18"/>
<text text-anchor="middle" x="2511.9" y="-30.3" font-family="Times,serif" font-size="14.00">242</text>
</g>
<!-- 48&#45;&gt;541 -->
<g id="edge82" class="edge">
<title>48&#45;&gt;541</title>
<path fill="none" stroke="black" d="M2358.39,-94.37C2389.35,-82.39 2439.85,-62.86 2474.41,-49.5"/>
<polygon fill="black" stroke="black" points="2476.09,-52.6 2484.15,-45.73 2473.56,-46.07 2476.09,-52.6"/>
</g>
<!-- 56 -->
<g id="node37" class="node">
<title>56</title>
<ellipse fill="#b9d3ee" stroke="black" cx="2093.9" cy="-34" rx="16.8" ry="18"/>
<text text-anchor="middle" x="2093.9" y="-30.3" font-family="Times,serif" font-size="14.00">1</text>
</g>
<!-- 49&#45;&gt;56 -->
<g id="edge47" class="edge">
<title>49&#45;&gt;56</title>
<path fill="none" stroke="black" d="M1964.16,-97.6C1989.13,-88.19 2032.6,-70.89 2067.9,-52 2069.05,-51.38 2070.21,-50.73 2071.38,-50.06"/>
<polygon fill="black" stroke="black" points="2073.48,-52.88 2080.14,-44.64 2069.79,-46.92 2073.48,-52.88"/>
</g>
<!-- 521 -->
<g id="node52" class="node">
<title>521</title>
<ellipse fill="#b9d3ee" stroke="black" cx="1862.9" cy="-34" rx="16.8" ry="18"/>
<text text-anchor="middle" x="1862.9" y="-30.3" font-family="Times,serif" font-size="14.00">3</text>
</g>
<!-- 49&#45;&gt;521 -->
<g id="edge62" class="edge">
<title>49&#45;&gt;521</title>
<path fill="none" stroke="black" d="M1929.04,-92.16C1916.29,-81.14 1897.78,-65.14 1883.58,-52.87"/>
<polygon fill="black" stroke="black" points="1885.65,-50.03 1875.79,-46.14 1881.07,-55.33 1885.65,-50.03"/>
</g>
<!-- 522 -->
<g id="node53" class="node">
<title>522</title>
<ellipse fill="#b9d3ee" stroke="black" cx="1914.9" cy="-34" rx="16.8" ry="18"/>
<text text-anchor="middle" x="1914.9" y="-30.3" font-family="Times,serif" font-size="14.00">3</text>
</g>
<!-- 49&#45;&gt;522 -->
<g id="edge63" class="edge">
<title>49&#45;&gt;522</title>
<path fill="none" stroke="black" d="M1937.17,-88.76C1933.65,-80.25 1929.25,-69.64 1925.29,-60.09"/>
<polygon fill="black" stroke="black" points="1928.45,-58.56 1921.39,-50.67 1921.98,-61.24 1928.45,-58.56"/>
</g>
<!-- 531 -->
<g id="node62" class="node">
<title>531</title>
<ellipse fill="#b9d3ee" stroke="black" cx="1972.9" cy="-34" rx="23" ry="18"/>
<text text-anchor="middle" x="1972.9" y="-30.3" font-family="Times,serif" font-size="14.00">15</text>
</g>
<!-- 49&#45;&gt;531 -->
<g id="edge72" class="edge">
<title>49&#45;&gt;531</title>
<path fill="none" stroke="black" d="M1950.62,-88.76C1954.05,-80.49 1958.3,-70.23 1962.17,-60.9"/>
<polygon fill="black" stroke="black" points="1965.41,-62.21 1966.01,-51.63 1958.95,-59.53 1965.41,-62.21"/>
</g>
<!-- 536 -->
<g id="node67" class="node">
<title>536</title>
<ellipse fill="#b9d3ee" stroke="black" cx="2035.9" cy="-34" rx="23" ry="18"/>
<text text-anchor="middle" x="2035.9" y="-30.3" font-family="Times,serif" font-size="14.00">49</text>
</g>
<!-- 49&#45;&gt;536 -->
<g id="edge77" class="edge">
<title>49&#45;&gt;536</title>
<path fill="none" stroke="black" d="M1959.92,-92.81C1974.3,-81.87 1995.6,-65.66 2012,-53.19"/>
<polygon fill="black" stroke="black" points="2014.22,-55.89 2020.06,-47.05 2009.98,-50.32 2014.22,-55.89"/>
</g>
<!-- legend_5 -->
<g id="node77" class="node">
<title>legend_5</title>
<polygon fill="#b9d3ee" stroke="black" points="2942.4,-52 2721.4,-52 2721.4,-16 2942.4,-16 2942.4,-52"/>
<text text-anchor="middle" x="2831.9" y="-30.3" font-family="Times,serif" font-size="14.00">DT=6 ST=1 Similarity=0.47</text>
</g>
<!-- legend_4&#45;&gt;legend_5 -->
<g id="edge87" class="edge">
<title>legend_4&#45;&gt;legend_5</title>
<path fill="none" stroke="black" d="M2831.9,-87.7C2831.9,-79.98 2831.9,-70.71 2831.9,-62.11"/>
<polygon fill="black" stroke="black" points="2835.4,-62.1 2831.9,-52.1 2828.4,-62.1 2835.4,-62.1"/>
</g>
</g>
</svg>
