<?xml version="1.0" encoding="UTF-8" standalone="no"?>
<!DOCTYPE svg PUBLIC "-//W3C//DTD SVG 1.1//EN"
 "http://www.w3.org/Graphics/SVG/1.1/DTD/svg11.dtd">
<!-- Generated by graphviz version 2.43.0 (0)
 -->
<!-- Title: %3 Pages: 1 -->
<svg width="2967pt" height="497pt"
 viewBox="0.00 0.00 2966.90 497.00" xmlns="http://www.w3.org/2000/svg" xmlns:xlink="http://www.w3.org/1999/xlink">
<g id="graph0" class="graph" transform="scale(1 1) rotate(0) translate(4 493)">
<title>%3</title>
<polygon fill="white" stroke="transparent" points="-4,4 -4,-493 2962.9,-493 2962.9,4 -4,4"/>
<text text-anchor="middle" x="1479.45" y="-473.8" font-family="Times,serif" font-size="14.00">ConsTree</text>
<text text-anchor="middle" x="1479.45" y="-458.8" font-family="Times,serif" font-size="14.00">Tree Quality = 1</text>
<g id="clust1" class="cluster">
<title>cluster</title>
<polygon fill="none" stroke="black" points="2714.9,-8 2714.9,-443 2950.9,-443 2950.9,-8 2714.9,-8"/>
<text text-anchor="middle" x="2832.9" y="-427.8" font-family="Times,serif" font-size="14.00">Legend</text>
</g>
<!-- 00 -->
<g id="node1" class="node">
<title>00</title>
<ellipse fill="#b9d3ee" stroke="black" cx="1461.9" cy="-394" rx="108" ry="18"/>
<text text-anchor="middle" x="1461.9" y="-390.3" font-family="Times,serif" font-size="14.00">750</text>
</g>
<!-- 11 -->
<g id="node5" class="node">
<title>11</title>
<ellipse fill="#b9d3ee" stroke="black" cx="1461.9" cy="-322" rx="108" ry="18"/>
<text text-anchor="middle" x="1461.9" y="-318.3" font-family="Times,serif" font-size="14.00">795</text>
</g>
<!-- 00&#45;&gt;11 -->
<g id="edge2" class="edge">
<title>00&#45;&gt;11</title>
<path fill="none" stroke="black" d="M1461.9,-375.7C1461.9,-367.98 1461.9,-358.71 1461.9,-350.11"/>
<polygon fill="black" stroke="black" points="1465.4,-350.1 1461.9,-340.1 1458.4,-350.1 1465.4,-350.1"/>
</g>
<!-- 12 -->
<g id="node6" class="node">
<title>12</title>
<ellipse fill="#b9d3ee" stroke="black" cx="1709.9" cy="-322" rx="108" ry="18"/>
<text text-anchor="middle" x="1709.9" y="-318.3" font-family="Times,serif" font-size="14.00">806</text>
</g>
<!-- 00&#45;&gt;12 -->
<g id="edge4" class="edge">
<title>00&#45;&gt;12</title>
<path fill="none" stroke="black" d="M1514.19,-378.24C1553.13,-367.25 1606.45,-352.2 1647.6,-340.58"/>
<polygon fill="black" stroke="black" points="1648.58,-343.94 1657.25,-337.86 1646.68,-337.21 1648.58,-343.94"/>
</g>
<!-- 01 -->
<g id="node2" class="node">
<title>01</title>
<ellipse fill="#b9d3ee" stroke="black" cx="1767.9" cy="-394" rx="180" ry="18"/>
<text text-anchor="middle" x="1767.9" y="-390.3" font-family="Times,serif" font-size="14.00">1250</text>
</g>
<!-- 10 -->
<g id="node4" class="node">
<title>10</title>
<ellipse fill="#b9d3ee" stroke="black" cx="1878.9" cy="-322" rx="36" ry="18"/>
<text text-anchor="middle" x="1878.9" y="-318.3" font-family="Times,serif" font-size="14.00">399</text>
</g>
<!-- 01&#45;&gt;10 -->
<g id="edge1" class="edge">
<title>01&#45;&gt;10</title>
<path fill="none" stroke="black" d="M1794.77,-376.05C1811.01,-365.81 1831.75,-352.73 1848.58,-342.12"/>
<polygon fill="black" stroke="black" points="1850.88,-344.81 1857.47,-336.51 1847.15,-338.89 1850.88,-344.81"/>
</g>
<!-- 01&#45;&gt;11 -->
<g id="edge3" class="edge">
<title>01&#45;&gt;11</title>
<path fill="none" stroke="black" d="M1699.23,-377.29C1649.58,-365.93 1582.72,-350.64 1532.61,-339.18"/>
<polygon fill="black" stroke="black" points="1533.36,-335.76 1522.83,-336.94 1531.79,-342.58 1533.36,-335.76"/>
</g>
<!-- 01&#45;&gt;12 -->
<g id="edge5" class="edge">
<title>01&#45;&gt;12</title>
<path fill="none" stroke="black" d="M1753.56,-375.7C1746.61,-367.3 1738.13,-357.07 1730.5,-347.86"/>
<polygon fill="black" stroke="black" points="1733.15,-345.57 1724.07,-340.1 1727.76,-350.04 1733.15,-345.57"/>
</g>
<!-- legend_0 -->
<g id="node3" class="node">
<title>legend_0</title>
<polygon fill="#b9d3ee" stroke="black" points="2943.4,-412 2722.4,-412 2722.4,-376 2943.4,-376 2943.4,-412"/>
<text text-anchor="middle" x="2832.9" y="-390.3" font-family="Times,serif" font-size="14.00">DT=1 ST=1 Similarity=0.43</text>
</g>
<!-- legend_1 -->
<g id="node7" class="node">
<title>legend_1</title>
<polygon fill="#b9d3ee" stroke="black" points="2943.4,-340 2722.4,-340 2722.4,-304 2943.4,-304 2943.4,-340"/>
<text text-anchor="middle" x="2832.9" y="-318.3" font-family="Times,serif" font-size="14.00">DT=2 ST=1 Similarity=0.56</text>
</g>
<!-- legend_0&#45;&gt;legend_1 -->
<g id="edge6" class="edge">
<title>legend_0&#45;&gt;legend_1</title>
<path fill="none" stroke="black" d="M2832.9,-375.7C2832.9,-367.98 2832.9,-358.71 2832.9,-350.11"/>
<polygon fill="black" stroke="black" points="2836.4,-350.1 2832.9,-340.1 2829.4,-350.1 2836.4,-350.1"/>
</g>
<!-- 22 -->
<g id="node10" class="node">
<title>22</title>
<polygon fill="darkseagreen" stroke="black" points="1914.9,-268 1842.9,-268 1842.9,-232 1914.9,-232 1914.9,-268"/>
<text text-anchor="middle" x="1878.9" y="-246.3" font-family="Times,serif" font-size="14.00">402</text>
</g>
<!-- 10&#45;&gt;22 -->
<g id="edge9" class="edge">
<title>10&#45;&gt;22</title>
<path fill="none" stroke="black" d="M1878.9,-303.7C1878.9,-295.98 1878.9,-286.71 1878.9,-278.11"/>
<polygon fill="black" stroke="black" points="1882.4,-278.1 1878.9,-268.1 1875.4,-278.1 1882.4,-278.1"/>
</g>
<!-- 24 -->
<g id="node12" class="node">
<title>24</title>
<polygon fill="darkseagreen" stroke="black" points="2005.9,-268 1933.9,-268 1933.9,-232 2005.9,-232 2005.9,-268"/>
<text text-anchor="middle" x="1969.9" y="-246.3" font-family="Times,serif" font-size="14.00">400</text>
</g>
<!-- 10&#45;&gt;24 -->
<g id="edge13" class="edge">
<title>10&#45;&gt;24</title>
<path fill="none" stroke="black" d="M1897.75,-306.5C1909.74,-297.28 1925.53,-285.13 1939.29,-274.55"/>
<polygon fill="black" stroke="black" points="1941.74,-277.08 1947.53,-268.2 1937.47,-271.53 1941.74,-277.08"/>
</g>
<!-- 21 -->
<g id="node9" class="node">
<title>21</title>
<polygon fill="darkseagreen" stroke="black" points="1497.9,-268 1425.9,-268 1425.9,-232 1497.9,-232 1497.9,-268"/>
<text text-anchor="middle" x="1461.9" y="-246.3" font-family="Times,serif" font-size="14.00">394</text>
</g>
<!-- 11&#45;&gt;21 -->
<g id="edge8" class="edge">
<title>11&#45;&gt;21</title>
<path fill="none" stroke="black" d="M1461.9,-303.7C1461.9,-295.98 1461.9,-286.71 1461.9,-278.11"/>
<polygon fill="black" stroke="black" points="1465.4,-278.1 1461.9,-268.1 1458.4,-278.1 1465.4,-278.1"/>
</g>
<!-- 23 -->
<g id="node11" class="node">
<title>23</title>
<polygon fill="darkseagreen" stroke="black" points="1407.9,-268 1335.9,-268 1335.9,-232 1407.9,-232 1407.9,-268"/>
<text text-anchor="middle" x="1371.9" y="-246.3" font-family="Times,serif" font-size="14.00">406</text>
</g>
<!-- 11&#45;&gt;23 -->
<g id="edge11" class="edge">
<title>11&#45;&gt;23</title>
<path fill="none" stroke="black" d="M1440.11,-304.05C1428.59,-295.09 1414.27,-283.96 1401.73,-274.2"/>
<polygon fill="black" stroke="black" points="1403.84,-271.41 1393.8,-268.03 1399.54,-276.93 1403.84,-271.41"/>
</g>
<!-- 20 -->
<g id="node8" class="node">
<title>20</title>
<polygon fill="darkseagreen" stroke="black" points="1185.9,-268 1113.9,-268 1113.9,-232 1185.9,-232 1185.9,-268"/>
<text text-anchor="middle" x="1149.9" y="-246.3" font-family="Times,serif" font-size="14.00">398</text>
</g>
<!-- 12&#45;&gt;20 -->
<g id="edge7" class="edge">
<title>12&#45;&gt;20</title>
<path fill="none" stroke="black" d="M1627.8,-310.27C1611.59,-308.17 1594.71,-306 1578.9,-304 1439.6,-286.36 1274.77,-266.19 1196.13,-256.62"/>
<polygon fill="black" stroke="black" points="1196.42,-253.13 1186.07,-255.39 1195.57,-260.08 1196.42,-253.13"/>
</g>
<!-- 12&#45;&gt;22 -->
<g id="edge10" class="edge">
<title>12&#45;&gt;22</title>
<path fill="none" stroke="black" d="M1748.25,-305.12C1773.49,-294.66 1806.65,-280.92 1833.25,-269.91"/>
<polygon fill="black" stroke="black" points="1834.83,-273.04 1842.73,-265.98 1832.15,-266.58 1834.83,-273.04"/>
</g>
<!-- 12&#45;&gt;23 -->
<g id="edge12" class="edge">
<title>12&#45;&gt;23</title>
<path fill="none" stroke="black" d="M1627.85,-310.25C1571.03,-301.86 1493.67,-288.56 1417.79,-267.99"/>
<polygon fill="black" stroke="black" points="1418.63,-264.59 1408.06,-265.31 1416.77,-271.34 1418.63,-264.59"/>
</g>
<!-- 12&#45;&gt;24 -->
<g id="edge14" class="edge">
<title>12&#45;&gt;24</title>
<path fill="none" stroke="black" d="M1773.14,-307.28C1816.01,-297.51 1873.78,-283.42 1923.9,-268 1924,-267.97 1924.1,-267.94 1924.2,-267.91"/>
<polygon fill="black" stroke="black" points="1925.45,-271.18 1933.87,-264.75 1923.28,-264.53 1925.45,-271.18"/>
</g>
<!-- legend_2 -->
<g id="node13" class="node">
<title>legend_2</title>
<polygon fill="darkseagreen" stroke="black" points="2943.4,-268 2722.4,-268 2722.4,-232 2943.4,-232 2943.4,-268"/>
<text text-anchor="middle" x="2832.9" y="-246.3" font-family="Times,serif" font-size="14.00">DT=3 ST=1 Similarity=0.68</text>
</g>
<!-- legend_1&#45;&gt;legend_2 -->
<g id="edge15" class="edge">
<title>legend_1&#45;&gt;legend_2</title>
<path fill="none" stroke="black" d="M2832.9,-303.7C2832.9,-295.98 2832.9,-286.71 2832.9,-278.11"/>
<polygon fill="black" stroke="black" points="2836.4,-278.1 2832.9,-268.1 2829.4,-278.1 2836.4,-278.1"/>
</g>
<!-- 30 -->
<g id="node14" class="node">
<title>30</title>
<ellipse fill="#b9d3ee" stroke="black" cx="986.9" cy="-178" rx="36" ry="18"/>
<text text-anchor="middle" x="986.9" y="-174.3" font-family="Times,serif" font-size="14.00">400</text>
</g>
<!-- 20&#45;&gt;30 -->
<g id="edge16" class="edge">
<title>20&#45;&gt;30</title>
<path fill="none" stroke="black" d="M1113.72,-233.46C1086.66,-221.84 1049.82,-206.02 1022.81,-194.42"/>
<polygon fill="black" stroke="black" points="1023.92,-191.09 1013.35,-190.36 1021.16,-197.52 1023.92,-191.09"/>
</g>
<!-- 31 -->
<g id="node15" class="node">
<title>31</title>
<ellipse fill="#b9d3ee" stroke="black" cx="1457.9" cy="-178" rx="36" ry="18"/>
<text text-anchor="middle" x="1457.9" y="-174.3" font-family="Times,serif" font-size="14.00">399</text>
</g>
<!-- 21&#45;&gt;31 -->
<g id="edge18" class="edge">
<title>21&#45;&gt;31</title>
<path fill="none" stroke="black" d="M1460.91,-231.7C1460.47,-223.98 1459.94,-214.71 1459.45,-206.11"/>
<polygon fill="black" stroke="black" points="1462.94,-205.89 1458.88,-196.1 1455.95,-206.29 1462.94,-205.89"/>
</g>
<!-- 33 -->
<g id="node17" class="node">
<title>33</title>
<ellipse fill="#b9d3ee" stroke="black" cx="1971.9" cy="-178" rx="36" ry="18"/>
<text text-anchor="middle" x="1971.9" y="-174.3" font-family="Times,serif" font-size="14.00">405</text>
</g>
<!-- 22&#45;&gt;33 -->
<g id="edge21" class="edge">
<title>22&#45;&gt;33</title>
<path fill="none" stroke="black" d="M1901.89,-231.7C1914.81,-221.97 1931.01,-209.78 1944.57,-199.57"/>
<polygon fill="black" stroke="black" points="1946.74,-202.32 1952.62,-193.51 1942.53,-196.73 1946.74,-202.32"/>
</g>
<!-- 23&#45;&gt;30 -->
<g id="edge17" class="edge">
<title>23&#45;&gt;30</title>
<path fill="none" stroke="black" d="M1335.68,-242.41C1264.61,-229.49 1107.17,-200.87 1030.52,-186.93"/>
<polygon fill="black" stroke="black" points="1030.73,-183.41 1020.26,-185.07 1029.47,-190.3 1030.73,-183.41"/>
</g>
<!-- 23&#45;&gt;31 -->
<g id="edge19" class="edge">
<title>23&#45;&gt;31</title>
<path fill="none" stroke="black" d="M1393.16,-231.7C1404.91,-222.13 1419.6,-210.17 1432.01,-200.07"/>
<polygon fill="black" stroke="black" points="1434.25,-202.77 1439.79,-193.74 1429.83,-197.34 1434.25,-202.77"/>
</g>
<!-- 32 -->
<g id="node16" class="node">
<title>32</title>
<ellipse fill="#b9d3ee" stroke="black" cx="1347.9" cy="-178" rx="36" ry="18"/>
<text text-anchor="middle" x="1347.9" y="-174.3" font-family="Times,serif" font-size="14.00">399</text>
</g>
<!-- 23&#45;&gt;32 -->
<g id="edge20" class="edge">
<title>23&#45;&gt;32</title>
<path fill="none" stroke="black" d="M1365.97,-231.7C1363.29,-223.9 1360.07,-214.51 1357.1,-205.83"/>
<polygon fill="black" stroke="black" points="1360.32,-204.43 1353.76,-196.1 1353.7,-206.7 1360.32,-204.43"/>
</g>
<!-- 24&#45;&gt;33 -->
<g id="edge22" class="edge">
<title>24&#45;&gt;33</title>
<path fill="none" stroke="black" d="M1970.39,-231.7C1970.61,-223.98 1970.88,-214.71 1971.12,-206.11"/>
<polygon fill="black" stroke="black" points="1974.62,-206.2 1971.41,-196.1 1967.63,-206 1974.62,-206.2"/>
</g>
<!-- 34 -->
<g id="node18" class="node">
<title>34</title>
<ellipse fill="#b9d3ee" stroke="black" cx="2317.9" cy="-178" rx="36" ry="18"/>
<text text-anchor="middle" x="2317.9" y="-174.3" font-family="Times,serif" font-size="14.00">397</text>
</g>
<!-- 24&#45;&gt;34 -->
<g id="edge23" class="edge">
<title>24&#45;&gt;34</title>
<path fill="none" stroke="black" d="M2006.16,-241.71C2070.82,-228.7 2205.73,-201.56 2274.93,-187.64"/>
<polygon fill="black" stroke="black" points="2275.94,-191.01 2285.05,-185.61 2274.56,-184.15 2275.94,-191.01"/>
</g>
<!-- legend_3 -->
<g id="node19" class="node">
<title>legend_3</title>
<polygon fill="#b9d3ee" stroke="black" points="2943.4,-196 2722.4,-196 2722.4,-160 2943.4,-160 2943.4,-196"/>
<text text-anchor="middle" x="2832.9" y="-174.3" font-family="Times,serif" font-size="14.00">DT=4 ST=1 Similarity=0.68</text>
</g>
<!-- legend_2&#45;&gt;legend_3 -->
<g id="edge24" class="edge">
<title>legend_2&#45;&gt;legend_3</title>
<path fill="none" stroke="black" d="M2832.9,-231.7C2832.9,-223.98 2832.9,-214.71 2832.9,-206.11"/>
<polygon fill="black" stroke="black" points="2836.4,-206.1 2832.9,-196.1 2829.4,-206.1 2836.4,-206.1"/>
</g>
<!-- 42 -->
<g id="node22" class="node">
<title>42</title>
<ellipse fill="#b9d3ee" stroke="black" cx="146.9" cy="-106" rx="23" ry="18"/>
<text text-anchor="middle" x="146.9" y="-102.3" font-family="Times,serif" font-size="14.00">35</text>
</g>
<!-- 30&#45;&gt;42 -->
<g id="edge29" class="edge">
<title>30&#45;&gt;42</title>
<path fill="none" stroke="black" d="M951.61,-174.06C813.81,-162.58 313.09,-120.85 179.72,-109.74"/>
<polygon fill="black" stroke="black" points="179.97,-106.24 169.71,-108.9 179.39,-113.22 179.97,-106.24"/>
</g>
<!-- 44 -->
<g id="node24" class="node">
<title>44</title>
<ellipse fill="#b9d3ee" stroke="black" cx="986.9" cy="-106" rx="36" ry="18"/>
<text text-anchor="middle" x="986.9" y="-102.3" font-family="Times,serif" font-size="14.00">401</text>
</g>
<!-- 30&#45;&gt;44 -->
<g id="edge31" class="edge">
<title>30&#45;&gt;44</title>
<path fill="none" stroke="black" d="M986.9,-159.7C986.9,-151.98 986.9,-142.71 986.9,-134.11"/>
<polygon fill="black" stroke="black" points="990.4,-134.1 986.9,-124.1 983.4,-134.1 990.4,-134.1"/>
</g>
<!-- 47 -->
<g id="node27" class="node">
<title>47</title>
<ellipse fill="#b9d3ee" stroke="black" cx="475.9" cy="-106" rx="36" ry="18"/>
<text text-anchor="middle" x="475.9" y="-102.3" font-family="Times,serif" font-size="14.00">363</text>
</g>
<!-- 30&#45;&gt;47 -->
<g id="edge37" class="edge">
<title>30&#45;&gt;47</title>
<path fill="none" stroke="black" d="M952.58,-172.3C862.67,-159.98 620.33,-126.79 520.16,-113.06"/>
<polygon fill="black" stroke="black" points="520.45,-109.57 510.07,-111.68 519.5,-116.51 520.45,-109.57"/>
</g>
<!-- 41 -->
<g id="node21" class="node">
<title>41</title>
<ellipse fill="#b9d3ee" stroke="black" cx="1347.9" cy="-106" rx="16.8" ry="18"/>
<text text-anchor="middle" x="1347.9" y="-102.3" font-family="Times,serif" font-size="14.00">9</text>
</g>
<!-- 31&#45;&gt;41 -->
<g id="edge27" class="edge">
<title>31&#45;&gt;41</title>
<path fill="none" stroke="black" d="M1436.43,-163.34C1417.43,-151.25 1389.8,-133.66 1370.47,-121.37"/>
<polygon fill="black" stroke="black" points="1372.3,-118.38 1361.98,-115.96 1368.54,-124.28 1372.3,-118.38"/>
</g>
<!-- 43 -->
<g id="node23" class="node">
<title>43</title>
<ellipse fill="#b9d3ee" stroke="black" cx="1674.9" cy="-106" rx="23" ry="18"/>
<text text-anchor="middle" x="1674.9" y="-102.3" font-family="Times,serif" font-size="14.00">68</text>
</g>
<!-- 31&#45;&gt;43 -->
<g id="edge30" class="edge">
<title>31&#45;&gt;43</title>
<path fill="none" stroke="black" d="M1487.62,-167.41C1528.9,-154.1 1603.2,-130.13 1644.73,-116.73"/>
<polygon fill="black" stroke="black" points="1645.85,-120.05 1654.29,-113.65 1643.7,-113.39 1645.85,-120.05"/>
</g>
<!-- 31&#45;&gt;44 -->
<g id="edge32" class="edge">
<title>31&#45;&gt;44</title>
<path fill="none" stroke="black" d="M1427.33,-168.16C1416.52,-165.26 1404.23,-162.21 1392.9,-160 1263.13,-134.67 1107.61,-118.17 1032.26,-111.04"/>
<polygon fill="black" stroke="black" points="1032.45,-107.54 1022.17,-110.09 1031.8,-114.51 1032.45,-107.54"/>
</g>
<!-- 45 -->
<g id="node25" class="node">
<title>45</title>
<ellipse fill="#b9d3ee" stroke="black" cx="1457.9" cy="-106" rx="36" ry="18"/>
<text text-anchor="middle" x="1457.9" y="-102.3" font-family="Times,serif" font-size="14.00">319</text>
</g>
<!-- 31&#45;&gt;45 -->
<g id="edge34" class="edge">
<title>31&#45;&gt;45</title>
<path fill="none" stroke="black" d="M1457.9,-159.7C1457.9,-151.98 1457.9,-142.71 1457.9,-134.11"/>
<polygon fill="black" stroke="black" points="1461.4,-134.1 1457.9,-124.1 1454.4,-134.1 1461.4,-134.1"/>
</g>
<!-- 46 -->
<g id="node26" class="node">
<title>46</title>
<ellipse fill="#b9d3ee" stroke="black" cx="1972.9" cy="-106" rx="36" ry="18"/>
<text text-anchor="middle" x="1972.9" y="-102.3" font-family="Times,serif" font-size="14.00">404</text>
</g>
<!-- 31&#45;&gt;46 -->
<g id="edge35" class="edge">
<title>31&#45;&gt;46</title>
<path fill="none" stroke="black" d="M1492.09,-172.35C1582.35,-160.08 1827.03,-126.83 1928.2,-113.08"/>
<polygon fill="black" stroke="black" points="1928.95,-116.51 1938.38,-111.69 1928,-109.57 1928.95,-116.51"/>
</g>
<!-- 32&#45;&gt;41 -->
<g id="edge28" class="edge">
<title>32&#45;&gt;41</title>
<path fill="none" stroke="black" d="M1347.9,-159.7C1347.9,-151.98 1347.9,-142.71 1347.9,-134.11"/>
<polygon fill="black" stroke="black" points="1351.4,-134.1 1347.9,-124.1 1344.4,-134.1 1351.4,-134.1"/>
</g>
<!-- 32&#45;&gt;44 -->
<g id="edge33" class="edge">
<title>32&#45;&gt;44</title>
<path fill="none" stroke="black" d="M1314.91,-170.6C1249.46,-157.91 1103.24,-129.56 1030.18,-115.39"/>
<polygon fill="black" stroke="black" points="1030.43,-111.88 1019.95,-113.41 1029.1,-118.75 1030.43,-111.88"/>
</g>
<!-- 40 -->
<g id="node20" class="node">
<title>40</title>
<ellipse fill="#b9d3ee" stroke="black" cx="2531.9" cy="-106" rx="16.8" ry="18"/>
<text text-anchor="middle" x="2531.9" y="-102.3" font-family="Times,serif" font-size="14.00">5</text>
</g>
<!-- 33&#45;&gt;40 -->
<g id="edge25" class="edge">
<title>33&#45;&gt;40</title>
<path fill="none" stroke="black" d="M2006.51,-172.67C2109.51,-159.8 2412.65,-121.91 2504.93,-110.37"/>
<polygon fill="black" stroke="black" points="2505.63,-113.81 2515.11,-109.1 2504.76,-106.87 2505.63,-113.81"/>
</g>
<!-- 33&#45;&gt;46 -->
<g id="edge36" class="edge">
<title>33&#45;&gt;46</title>
<path fill="none" stroke="black" d="M1972.15,-159.7C1972.26,-151.98 1972.39,-142.71 1972.51,-134.11"/>
<polygon fill="black" stroke="black" points="1976.01,-134.15 1972.65,-124.1 1969.01,-134.05 1976.01,-134.15"/>
</g>
<!-- 34&#45;&gt;40 -->
<g id="edge26" class="edge">
<title>34&#45;&gt;40</title>
<path fill="none" stroke="black" d="M2347.21,-167.41C2389.33,-153.64 2466.3,-128.46 2506.27,-115.38"/>
<polygon fill="black" stroke="black" points="2507.41,-118.69 2515.82,-112.26 2505.23,-112.04 2507.41,-118.69"/>
</g>
<!-- 48 -->
<g id="node28" class="node">
<title>48</title>
<ellipse fill="#b9d3ee" stroke="black" cx="2317.9" cy="-106" rx="36" ry="18"/>
<text text-anchor="middle" x="2317.9" y="-102.3" font-family="Times,serif" font-size="14.00">396</text>
</g>
<!-- 34&#45;&gt;48 -->
<g id="edge38" class="edge">
<title>34&#45;&gt;48</title>
<path fill="none" stroke="black" d="M2317.9,-159.7C2317.9,-151.98 2317.9,-142.71 2317.9,-134.11"/>
<polygon fill="black" stroke="black" points="2321.4,-134.1 2317.9,-124.1 2314.4,-134.1 2321.4,-134.1"/>
</g>
<!-- legend_4 -->
<g id="node29" class="node">
<title>legend_4</title>
<polygon fill="#b9d3ee" stroke="black" points="2943.4,-124 2722.4,-124 2722.4,-88 2943.4,-88 2943.4,-124"/>
<text text-anchor="middle" x="2832.9" y="-102.3" font-family="Times,serif" font-size="14.00">DT=5 ST=1 Similarity=0.65</text>
</g>
<!-- legend_3&#45;&gt;legend_4 -->
<g id="edge39" class="edge">
<title>legend_3&#45;&gt;legend_4</title>
<path fill="none" stroke="black" d="M2832.9,-159.7C2832.9,-151.98 2832.9,-142.71 2832.9,-134.11"/>
<polygon fill="black" stroke="black" points="2836.4,-134.1 2832.9,-124.1 2829.4,-134.1 2836.4,-134.1"/>
</g>
<!-- 53 -->
<g id="node33" class="node">
<title>53</title>
<ellipse fill="#b9d3ee" stroke="black" cx="2687.9" cy="-34" rx="16.8" ry="18"/>
<text text-anchor="middle" x="2687.9" y="-30.3" font-family="Times,serif" font-size="14.00">1</text>
</g>
<!-- 40&#45;&gt;53 -->
<g id="edge43" class="edge">
<title>40&#45;&gt;53</title>
<path fill="none" stroke="black" d="M2547.95,-99.58C2572.94,-90.9 2622.4,-72.72 2661.9,-52 2663.05,-51.39 2664.22,-50.75 2665.39,-50.08"/>
<polygon fill="black" stroke="black" points="2667.48,-52.91 2674.16,-44.68 2663.81,-46.95 2667.48,-52.91"/>
</g>
<!-- 54 -->
<g id="node34" class="node">
<title>54</title>
<ellipse fill="#b9d3ee" stroke="black" cx="2479.9" cy="-34" rx="16.8" ry="18"/>
<text text-anchor="middle" x="2479.9" y="-30.3" font-family="Times,serif" font-size="14.00">1</text>
</g>
<!-- 40&#45;&gt;54 -->
<g id="edge44" class="edge">
<title>40&#45;&gt;54</title>
<path fill="none" stroke="black" d="M2521.87,-91.5C2514.63,-81.75 2504.68,-68.37 2496.29,-57.07"/>
<polygon fill="black" stroke="black" points="2499.02,-54.87 2490.25,-48.93 2493.4,-59.05 2499.02,-54.87"/>
</g>
<!-- 55 -->
<g id="node35" class="node">
<title>55</title>
<ellipse fill="#b9d3ee" stroke="black" cx="2531.9" cy="-34" rx="16.8" ry="18"/>
<text text-anchor="middle" x="2531.9" y="-30.3" font-family="Times,serif" font-size="14.00">1</text>
</g>
<!-- 40&#45;&gt;55 -->
<g id="edge45" class="edge">
<title>40&#45;&gt;55</title>
<path fill="none" stroke="black" d="M2531.9,-87.7C2531.9,-79.98 2531.9,-70.71 2531.9,-62.11"/>
<polygon fill="black" stroke="black" points="2535.4,-62.1 2531.9,-52.1 2528.4,-62.1 2535.4,-62.1"/>
</g>
<!-- 59 -->
<g id="node39" class="node">
<title>59</title>
<ellipse fill="#b9d3ee" stroke="black" cx="2583.9" cy="-34" rx="16.8" ry="18"/>
<text text-anchor="middle" x="2583.9" y="-30.3" font-family="Times,serif" font-size="14.00">1</text>
</g>
<!-- 40&#45;&gt;59 -->
<g id="edge49" class="edge">
<title>40&#45;&gt;59</title>
<path fill="none" stroke="black" d="M2541.92,-91.5C2549.17,-81.75 2559.11,-68.37 2567.5,-57.07"/>
<polygon fill="black" stroke="black" points="2570.39,-59.05 2573.55,-48.93 2564.77,-54.87 2570.39,-59.05"/>
</g>
<!-- 510 -->
<g id="node40" class="node">
<title>510</title>
<ellipse fill="#b9d3ee" stroke="black" cx="2635.9" cy="-34" rx="16.8" ry="18"/>
<text text-anchor="middle" x="2635.9" y="-30.3" font-family="Times,serif" font-size="14.00">1</text>
</g>
<!-- 40&#45;&gt;510 -->
<g id="edge50" class="edge">
<title>40&#45;&gt;510</title>
<path fill="none" stroke="black" d="M2545.92,-95.56C2563.21,-83.92 2592.82,-63.99 2613.33,-50.19"/>
<polygon fill="black" stroke="black" points="2615.42,-53 2621.76,-44.51 2611.51,-47.19 2615.42,-53"/>
</g>
<!-- 50 -->
<g id="node30" class="node">
<title>50</title>
<ellipse fill="#b9d3ee" stroke="black" cx="1347.9" cy="-34" rx="16.8" ry="18"/>
<text text-anchor="middle" x="1347.9" y="-30.3" font-family="Times,serif" font-size="14.00">1</text>
</g>
<!-- 41&#45;&gt;50 -->
<g id="edge40" class="edge">
<title>41&#45;&gt;50</title>
<path fill="none" stroke="black" d="M1347.9,-87.7C1347.9,-79.98 1347.9,-70.71 1347.9,-62.11"/>
<polygon fill="black" stroke="black" points="1351.4,-62.1 1347.9,-52.1 1344.4,-62.1 1351.4,-62.1"/>
</g>
<!-- 514 -->
<g id="node44" class="node">
<title>514</title>
<ellipse fill="#b9d3ee" stroke="black" cx="1399.9" cy="-34" rx="16.8" ry="18"/>
<text text-anchor="middle" x="1399.9" y="-30.3" font-family="Times,serif" font-size="14.00">2</text>
</g>
<!-- 41&#45;&gt;514 -->
<g id="edge54" class="edge">
<title>41&#45;&gt;514</title>
<path fill="none" stroke="black" d="M1357.92,-91.5C1365.17,-81.75 1375.11,-68.37 1383.5,-57.07"/>
<polygon fill="black" stroke="black" points="1386.39,-59.05 1389.55,-48.93 1380.77,-54.87 1386.39,-59.05"/>
</g>
<!-- 517 -->
<g id="node47" class="node">
<title>517</title>
<ellipse fill="#b9d3ee" stroke="black" cx="1243.9" cy="-34" rx="16.8" ry="18"/>
<text text-anchor="middle" x="1243.9" y="-30.3" font-family="Times,serif" font-size="14.00">3</text>
</g>
<!-- 41&#45;&gt;517 -->
<g id="edge57" class="edge">
<title>41&#45;&gt;517</title>
<path fill="none" stroke="black" d="M1333.87,-95.56C1316.58,-83.92 1286.98,-63.99 1266.47,-50.19"/>
<polygon fill="black" stroke="black" points="1268.28,-47.19 1258.03,-44.51 1264.38,-53 1268.28,-47.19"/>
</g>
<!-- 518 -->
<g id="node48" class="node">
<title>518</title>
<ellipse fill="#b9d3ee" stroke="black" cx="1295.9" cy="-34" rx="16.8" ry="18"/>
<text text-anchor="middle" x="1295.9" y="-30.3" font-family="Times,serif" font-size="14.00">3</text>
</g>
<!-- 41&#45;&gt;518 -->
<g id="edge58" class="edge">
<title>41&#45;&gt;518</title>
<path fill="none" stroke="black" d="M1337.87,-91.5C1330.63,-81.75 1320.68,-68.37 1312.29,-57.07"/>
<polygon fill="black" stroke="black" points="1315.02,-54.87 1306.25,-48.93 1309.4,-59.05 1315.02,-54.87"/>
</g>
<!-- 52 -->
<g id="node32" class="node">
<title>52</title>
<ellipse fill="#b9d3ee" stroke="black" cx="16.9" cy="-34" rx="16.8" ry="18"/>
<text text-anchor="middle" x="16.9" y="-30.3" font-family="Times,serif" font-size="14.00">1</text>
</g>
<!-- 42&#45;&gt;52 -->
<g id="edge42" class="edge">
<title>42&#45;&gt;52</title>
<path fill="none" stroke="black" d="M127.78,-96.03C106.67,-85.94 71.83,-68.76 42.9,-52 41.77,-51.35 40.62,-50.66 39.47,-49.96"/>
<polygon fill="black" stroke="black" points="41.08,-46.84 30.76,-44.46 37.34,-52.76 41.08,-46.84"/>
</g>
<!-- 526 -->
<g id="node56" class="node">
<title>526</title>
<ellipse fill="#b9d3ee" stroke="black" cx="68.9" cy="-34" rx="16.8" ry="18"/>
<text text-anchor="middle" x="68.9" y="-30.3" font-family="Times,serif" font-size="14.00">5</text>
</g>
<!-- 42&#45;&gt;526 -->
<g id="edge66" class="edge">
<title>42&#45;&gt;526</title>
<path fill="none" stroke="black" d="M132.23,-91.83C120.09,-80.94 102.73,-65.36 89.25,-53.27"/>
<polygon fill="black" stroke="black" points="91.22,-50.33 81.44,-46.26 86.55,-55.54 91.22,-50.33"/>
</g>
<!-- 527 -->
<g id="node57" class="node">
<title>527</title>
<ellipse fill="#b9d3ee" stroke="black" cx="120.9" cy="-34" rx="16.8" ry="18"/>
<text text-anchor="middle" x="120.9" y="-30.3" font-family="Times,serif" font-size="14.00">6</text>
</g>
<!-- 42&#45;&gt;527 -->
<g id="edge67" class="edge">
<title>42&#45;&gt;527</title>
<path fill="none" stroke="black" d="M140.74,-88.41C137.65,-80.1 133.84,-69.85 130.39,-60.56"/>
<polygon fill="black" stroke="black" points="133.6,-59.14 126.84,-50.99 127.04,-61.58 133.6,-59.14"/>
</g>
<!-- 528 -->
<g id="node58" class="node">
<title>528</title>
<ellipse fill="#b9d3ee" stroke="black" cx="172.9" cy="-34" rx="16.8" ry="18"/>
<text text-anchor="middle" x="172.9" y="-30.3" font-family="Times,serif" font-size="14.00">7</text>
</g>
<!-- 42&#45;&gt;528 -->
<g id="edge68" class="edge">
<title>42&#45;&gt;528</title>
<path fill="none" stroke="black" d="M153.06,-88.41C156.15,-80.1 159.96,-69.85 163.41,-60.56"/>
<polygon fill="black" stroke="black" points="166.76,-61.58 166.96,-50.99 160.2,-59.14 166.76,-61.58"/>
</g>
<!-- 532 -->
<g id="node62" class="node">
<title>532</title>
<ellipse fill="#b9d3ee" stroke="black" cx="230.9" cy="-34" rx="23" ry="18"/>
<text text-anchor="middle" x="230.9" y="-30.3" font-family="Times,serif" font-size="14.00">16</text>
</g>
<!-- 42&#45;&gt;532 -->
<g id="edge72" class="edge">
<title>42&#45;&gt;532</title>
<path fill="none" stroke="black" d="M162.31,-92.16C175.05,-81.54 193.36,-66.28 207.85,-54.21"/>
<polygon fill="black" stroke="black" points="210.43,-56.61 215.87,-47.52 205.95,-51.24 210.43,-56.61"/>
</g>
<!-- 56 -->
<g id="node36" class="node">
<title>56</title>
<ellipse fill="#b9d3ee" stroke="black" cx="1732.9" cy="-34" rx="16.8" ry="18"/>
<text text-anchor="middle" x="1732.9" y="-30.3" font-family="Times,serif" font-size="14.00">1</text>
</g>
<!-- 43&#45;&gt;56 -->
<g id="edge46" class="edge">
<title>43&#45;&gt;56</title>
<path fill="none" stroke="black" d="M1686.92,-90.5C1695.17,-80.54 1706.25,-67.17 1715.46,-56.04"/>
<polygon fill="black" stroke="black" points="1718.38,-58 1722.07,-48.07 1712.99,-53.54 1718.38,-58"/>
</g>
<!-- 521 -->
<g id="node51" class="node">
<title>521</title>
<ellipse fill="#b9d3ee" stroke="black" cx="1784.9" cy="-34" rx="16.8" ry="18"/>
<text text-anchor="middle" x="1784.9" y="-30.3" font-family="Times,serif" font-size="14.00">3</text>
</g>
<!-- 43&#45;&gt;521 -->
<g id="edge61" class="edge">
<title>43&#45;&gt;521</title>
<path fill="none" stroke="black" d="M1692.33,-94.12C1709.35,-83.46 1735.98,-66.72 1758.9,-52 1760,-51.3 1761.12,-50.57 1762.25,-49.84"/>
<polygon fill="black" stroke="black" points="1764.42,-52.6 1770.89,-44.22 1760.6,-46.74 1764.42,-52.6"/>
</g>
<!-- 531 -->
<g id="node61" class="node">
<title>531</title>
<ellipse fill="#b9d3ee" stroke="black" cx="1611.9" cy="-34" rx="23" ry="18"/>
<text text-anchor="middle" x="1611.9" y="-30.3" font-family="Times,serif" font-size="14.00">15</text>
</g>
<!-- 43&#45;&gt;531 -->
<g id="edge71" class="edge">
<title>43&#45;&gt;531</title>
<path fill="none" stroke="black" d="M1662.15,-90.83C1653.35,-81.06 1641.49,-67.88 1631.5,-56.78"/>
<polygon fill="black" stroke="black" points="1633.92,-54.24 1624.63,-49.14 1628.72,-58.92 1633.92,-54.24"/>
</g>
<!-- 536 -->
<g id="node66" class="node">
<title>536</title>
<ellipse fill="#b9d3ee" stroke="black" cx="1674.9" cy="-34" rx="23" ry="18"/>
<text text-anchor="middle" x="1674.9" y="-30.3" font-family="Times,serif" font-size="14.00">49</text>
</g>
<!-- 43&#45;&gt;536 -->
<g id="edge76" class="edge">
<title>43&#45;&gt;536</title>
<path fill="none" stroke="black" d="M1674.9,-87.7C1674.9,-79.98 1674.9,-70.71 1674.9,-62.11"/>
<polygon fill="black" stroke="black" points="1678.4,-62.1 1674.9,-52.1 1671.4,-62.1 1678.4,-62.1"/>
</g>
<!-- 58 -->
<g id="node38" class="node">
<title>58</title>
<ellipse fill="#b9d3ee" stroke="black" cx="804.9" cy="-34" rx="16.8" ry="18"/>
<text text-anchor="middle" x="804.9" y="-30.3" font-family="Times,serif" font-size="14.00">1</text>
</g>
<!-- 44&#45;&gt;58 -->
<g id="edge48" class="edge">
<title>44&#45;&gt;58</title>
<path fill="none" stroke="black" d="M955.5,-96.85C923.33,-87.93 872.3,-72.17 830.9,-52 829.73,-51.43 828.54,-50.81 827.36,-50.17"/>
<polygon fill="black" stroke="black" points="828.92,-47.02 818.55,-44.85 825.3,-53.01 828.92,-47.02"/>
</g>
<!-- 511 -->
<g id="node41" class="node">
<title>511</title>
<ellipse fill="#b9d3ee" stroke="black" cx="856.9" cy="-34" rx="16.8" ry="18"/>
<text text-anchor="middle" x="856.9" y="-30.3" font-family="Times,serif" font-size="14.00">1</text>
</g>
<!-- 44&#45;&gt;511 -->
<g id="edge51" class="edge">
<title>44&#45;&gt;511</title>
<path fill="none" stroke="black" d="M961.7,-93.1C940.38,-82.82 909.2,-67.24 882.9,-52 881.77,-51.35 880.62,-50.66 879.47,-49.96"/>
<polygon fill="black" stroke="black" points="881.08,-46.84 870.76,-44.46 877.34,-52.76 881.08,-46.84"/>
</g>
<!-- 512 -->
<g id="node42" class="node">
<title>512</title>
<ellipse fill="#b9d3ee" stroke="black" cx="908.9" cy="-34" rx="16.8" ry="18"/>
<text text-anchor="middle" x="908.9" y="-30.3" font-family="Times,serif" font-size="14.00">2</text>
</g>
<!-- 44&#45;&gt;512 -->
<g id="edge52" class="edge">
<title>44&#45;&gt;512</title>
<path fill="none" stroke="black" d="M969.97,-89.81C958.07,-79.12 942.06,-64.76 929.42,-53.42"/>
<polygon fill="black" stroke="black" points="931.46,-50.55 921.68,-46.47 926.79,-55.76 931.46,-50.55"/>
</g>
<!-- 513 -->
<g id="node43" class="node">
<title>513</title>
<ellipse fill="#b9d3ee" stroke="black" cx="960.9" cy="-34" rx="16.8" ry="18"/>
<text text-anchor="middle" x="960.9" y="-30.3" font-family="Times,serif" font-size="14.00">2</text>
</g>
<!-- 44&#45;&gt;513 -->
<g id="edge53" class="edge">
<title>44&#45;&gt;513</title>
<path fill="none" stroke="black" d="M980.6,-88.05C977.56,-79.85 973.84,-69.83 970.45,-60.71"/>
<polygon fill="black" stroke="black" points="973.72,-59.46 966.96,-51.31 967.16,-61.9 973.72,-59.46"/>
</g>
<!-- 519 -->
<g id="node49" class="node">
<title>519</title>
<ellipse fill="#b9d3ee" stroke="black" cx="1012.9" cy="-34" rx="16.8" ry="18"/>
<text text-anchor="middle" x="1012.9" y="-30.3" font-family="Times,serif" font-size="14.00">3</text>
</g>
<!-- 44&#45;&gt;519 -->
<g id="edge59" class="edge">
<title>44&#45;&gt;519</title>
<path fill="none" stroke="black" d="M993.19,-88.05C996.24,-79.85 999.96,-69.83 1003.35,-60.71"/>
<polygon fill="black" stroke="black" points="1006.64,-61.9 1006.84,-51.31 1000.08,-59.46 1006.64,-61.9"/>
</g>
<!-- 529 -->
<g id="node59" class="node">
<title>529</title>
<ellipse fill="#b9d3ee" stroke="black" cx="1064.9" cy="-34" rx="16.8" ry="18"/>
<text text-anchor="middle" x="1064.9" y="-30.3" font-family="Times,serif" font-size="14.00">8</text>
</g>
<!-- 44&#45;&gt;529 -->
<g id="edge69" class="edge">
<title>44&#45;&gt;529</title>
<path fill="none" stroke="black" d="M1003.82,-89.81C1015.73,-79.12 1031.73,-64.76 1044.37,-53.42"/>
<polygon fill="black" stroke="black" points="1047.01,-55.76 1052.11,-46.47 1042.33,-50.55 1047.01,-55.76"/>
</g>
<!-- 533 -->
<g id="node63" class="node">
<title>533</title>
<ellipse fill="#b9d3ee" stroke="black" cx="1122.9" cy="-34" rx="23" ry="18"/>
<text text-anchor="middle" x="1122.9" y="-30.3" font-family="Times,serif" font-size="14.00">19</text>
</g>
<!-- 44&#45;&gt;533 -->
<g id="edge73" class="edge">
<title>44&#45;&gt;533</title>
<path fill="none" stroke="black" d="M1011.33,-92.69C1032.45,-82.03 1063.75,-66.13 1090.9,-52 1092.43,-51.2 1094.01,-50.38 1095.59,-49.54"/>
<polygon fill="black" stroke="black" points="1097.44,-52.53 1104.65,-44.76 1094.17,-46.34 1097.44,-52.53"/>
</g>
<!-- 537 -->
<g id="node67" class="node">
<title>537</title>
<ellipse fill="#b9d3ee" stroke="black" cx="1185.9" cy="-34" rx="23" ry="18"/>
<text text-anchor="middle" x="1185.9" y="-30.3" font-family="Times,serif" font-size="14.00">52</text>
</g>
<!-- 44&#45;&gt;537 -->
<g id="edge77" class="edge">
<title>44&#45;&gt;537</title>
<path fill="none" stroke="black" d="M1018.21,-97.1C1052.46,-88.01 1108.63,-71.76 1154.9,-52 1156.27,-51.41 1157.67,-50.78 1159.07,-50.12"/>
<polygon fill="black" stroke="black" points="1160.84,-53.15 1168.16,-45.5 1157.66,-46.91 1160.84,-53.15"/>
</g>
<!-- 538 -->
<g id="node68" class="node">
<title>538</title>
<ellipse fill="#b9d3ee" stroke="black" cx="656.9" cy="-34" rx="23" ry="18"/>
<text text-anchor="middle" x="656.9" y="-30.3" font-family="Times,serif" font-size="14.00">60</text>
</g>
<!-- 44&#45;&gt;538 -->
<g id="edge78" class="edge">
<title>44&#45;&gt;538</title>
<path fill="none" stroke="black" d="M951.59,-102.31C894.88,-97.19 780.55,-83.62 688.9,-52 687.22,-51.42 685.53,-50.76 683.84,-50.05"/>
<polygon fill="black" stroke="black" points="684.93,-46.7 674.39,-45.55 681.92,-53.01 684.93,-46.7"/>
</g>
<!-- 542 -->
<g id="node72" class="node">
<title>542</title>
<ellipse fill="#b9d3ee" stroke="black" cx="733.9" cy="-34" rx="36" ry="18"/>
<text text-anchor="middle" x="733.9" y="-30.3" font-family="Times,serif" font-size="14.00">253</text>
</g>
<!-- 44&#45;&gt;542 -->
<g id="edge82" class="edge">
<title>44&#45;&gt;542</title>
<path fill="none" stroke="black" d="M954.52,-97.93C913.33,-88.67 840.21,-71.32 778.9,-52 776.3,-51.18 773.63,-50.29 770.96,-49.37"/>
<polygon fill="black" stroke="black" points="771.93,-46 761.33,-45.92 769.57,-52.59 771.93,-46"/>
</g>
<!-- 530 -->
<g id="node60" class="node">
<title>530</title>
<ellipse fill="#b9d3ee" stroke="black" cx="1457.9" cy="-34" rx="23" ry="18"/>
<text text-anchor="middle" x="1457.9" y="-30.3" font-family="Times,serif" font-size="14.00">15</text>
</g>
<!-- 45&#45;&gt;530 -->
<g id="edge70" class="edge">
<title>45&#45;&gt;530</title>
<path fill="none" stroke="black" d="M1457.9,-87.7C1457.9,-79.98 1457.9,-70.71 1457.9,-62.11"/>
<polygon fill="black" stroke="black" points="1461.4,-62.1 1457.9,-52.1 1454.4,-62.1 1461.4,-62.1"/>
</g>
<!-- 544 -->
<g id="node74" class="node">
<title>544</title>
<ellipse fill="#b9d3ee" stroke="black" cx="1534.9" cy="-34" rx="36" ry="18"/>
<text text-anchor="middle" x="1534.9" y="-30.3" font-family="Times,serif" font-size="14.00">304</text>
</g>
<!-- 45&#45;&gt;544 -->
<g id="edge84" class="edge">
<title>45&#45;&gt;544</title>
<path fill="none" stroke="black" d="M1474.61,-89.81C1485.1,-80.27 1498.81,-67.8 1510.51,-57.17"/>
<polygon fill="black" stroke="black" points="1513.18,-59.48 1518.22,-50.16 1508.47,-54.3 1513.18,-59.48"/>
</g>
<!-- 516 -->
<g id="node46" class="node">
<title>516</title>
<ellipse fill="#b9d3ee" stroke="black" cx="2001.9" cy="-34" rx="16.8" ry="18"/>
<text text-anchor="middle" x="2001.9" y="-30.3" font-family="Times,serif" font-size="14.00">2</text>
</g>
<!-- 46&#45;&gt;516 -->
<g id="edge56" class="edge">
<title>46&#45;&gt;516</title>
<path fill="none" stroke="black" d="M1979.92,-88.05C1983.37,-79.73 1987.59,-69.54 1991.41,-60.32"/>
<polygon fill="black" stroke="black" points="1994.75,-61.41 1995.34,-50.83 1988.28,-58.73 1994.75,-61.41"/>
</g>
<!-- 522 -->
<g id="node52" class="node">
<title>522</title>
<ellipse fill="#b9d3ee" stroke="black" cx="2053.9" cy="-34" rx="16.8" ry="18"/>
<text text-anchor="middle" x="2053.9" y="-30.3" font-family="Times,serif" font-size="14.00">3</text>
</g>
<!-- 46&#45;&gt;522 -->
<g id="edge62" class="edge">
<title>46&#45;&gt;522</title>
<path fill="none" stroke="black" d="M1990.08,-90.15C2002.69,-79.25 2019.88,-64.4 2033.25,-52.85"/>
<polygon fill="black" stroke="black" points="2035.72,-55.34 2041,-46.15 2031.14,-50.04 2035.72,-55.34"/>
</g>
<!-- 525 -->
<g id="node55" class="node">
<title>525</title>
<ellipse fill="#b9d3ee" stroke="black" cx="2105.9" cy="-34" rx="16.8" ry="18"/>
<text text-anchor="middle" x="2105.9" y="-30.3" font-family="Times,serif" font-size="14.00">5</text>
</g>
<!-- 46&#45;&gt;525 -->
<g id="edge65" class="edge">
<title>46&#45;&gt;525</title>
<path fill="none" stroke="black" d="M1998.86,-93.2C2020.81,-82.98 2052.91,-67.44 2079.9,-52 2081.03,-51.35 2082.18,-50.68 2083.34,-49.98"/>
<polygon fill="black" stroke="black" points="2085.46,-52.78 2092.06,-44.49 2081.73,-46.86 2085.46,-52.78"/>
</g>
<!-- 535 -->
<g id="node65" class="node">
<title>535</title>
<ellipse fill="#b9d3ee" stroke="black" cx="2163.9" cy="-34" rx="23" ry="18"/>
<text text-anchor="middle" x="2163.9" y="-30.3" font-family="Times,serif" font-size="14.00">48</text>
</g>
<!-- 46&#45;&gt;535 -->
<g id="edge75" class="edge">
<title>46&#45;&gt;535</title>
<path fill="none" stroke="black" d="M2003.64,-96.41C2036.09,-86.97 2088.44,-70.63 2131.9,-52 2133.49,-51.32 2135.11,-50.59 2136.73,-49.82"/>
<polygon fill="black" stroke="black" points="2138.5,-52.85 2145.88,-45.25 2135.37,-46.59 2138.5,-52.85"/>
</g>
<!-- 540 -->
<g id="node70" class="node">
<title>540</title>
<ellipse fill="#b9d3ee" stroke="black" cx="1847.9" cy="-34" rx="28.7" ry="18"/>
<text text-anchor="middle" x="1847.9" y="-30.3" font-family="Times,serif" font-size="14.00">104</text>
</g>
<!-- 46&#45;&gt;540 -->
<g id="edge80" class="edge">
<title>46&#45;&gt;540</title>
<path fill="none" stroke="black" d="M1949.68,-92C1929.29,-80.58 1899.53,-63.91 1877.45,-51.55"/>
<polygon fill="black" stroke="black" points="1878.94,-48.37 1868.51,-46.54 1875.52,-54.48 1878.94,-48.37"/>
</g>
<!-- 541 -->
<g id="node71" class="node">
<title>541</title>
<ellipse fill="#b9d3ee" stroke="black" cx="1930.9" cy="-34" rx="36" ry="18"/>
<text text-anchor="middle" x="1930.9" y="-30.3" font-family="Times,serif" font-size="14.00">242</text>
</g>
<!-- 46&#45;&gt;541 -->
<g id="edge81" class="edge">
<title>46&#45;&gt;541</title>
<path fill="none" stroke="black" d="M1962.95,-88.41C1957.87,-79.95 1951.6,-69.49 1945.95,-60.08"/>
<polygon fill="black" stroke="black" points="1948.93,-58.24 1940.78,-51.47 1942.92,-61.85 1948.93,-58.24"/>
</g>
<!-- 51 -->
<g id="node31" class="node">
<title>51</title>
<ellipse fill="#b9d3ee" stroke="black" cx="546.9" cy="-34" rx="16.8" ry="18"/>
<text text-anchor="middle" x="546.9" y="-30.3" font-family="Times,serif" font-size="14.00">1</text>
</g>
<!-- 47&#45;&gt;51 -->
<g id="edge41" class="edge">
<title>47&#45;&gt;51</title>
<path fill="none" stroke="black" d="M491.66,-89.46C502.28,-78.99 516.36,-65.11 527.64,-53.98"/>
<polygon fill="black" stroke="black" points="530.27,-56.31 534.93,-46.8 525.36,-51.32 530.27,-56.31"/>
</g>
<!-- 57 -->
<g id="node37" class="node">
<title>57</title>
<ellipse fill="#b9d3ee" stroke="black" cx="598.9" cy="-34" rx="16.8" ry="18"/>
<text text-anchor="middle" x="598.9" y="-30.3" font-family="Times,serif" font-size="14.00">1</text>
</g>
<!-- 47&#45;&gt;57 -->
<g id="edge47" class="edge">
<title>47&#45;&gt;57</title>
<path fill="none" stroke="black" d="M500.11,-92.45C519.92,-82.03 548.53,-66.59 572.9,-52 574.02,-51.33 575.16,-50.63 576.3,-49.92"/>
<polygon fill="black" stroke="black" points="578.45,-52.71 584.99,-44.38 574.68,-46.81 578.45,-52.71"/>
</g>
<!-- 520 -->
<g id="node50" class="node">
<title>520</title>
<ellipse fill="#b9d3ee" stroke="black" cx="288.9" cy="-34" rx="16.8" ry="18"/>
<text text-anchor="middle" x="288.9" y="-30.3" font-family="Times,serif" font-size="14.00">3</text>
</g>
<!-- 47&#45;&gt;520 -->
<g id="edge60" class="edge">
<title>47&#45;&gt;520</title>
<path fill="none" stroke="black" d="M444.4,-97.25C411.24,-88.5 357.99,-72.74 314.9,-52 313.72,-51.43 312.54,-50.82 311.35,-50.18"/>
<polygon fill="black" stroke="black" points="312.91,-47.03 302.54,-44.87 309.3,-53.03 312.91,-47.03"/>
</g>
<!-- 524 -->
<g id="node54" class="node">
<title>524</title>
<ellipse fill="#b9d3ee" stroke="black" cx="340.9" cy="-34" rx="16.8" ry="18"/>
<text text-anchor="middle" x="340.9" y="-30.3" font-family="Times,serif" font-size="14.00">5</text>
</g>
<!-- 47&#45;&gt;524 -->
<g id="edge64" class="edge">
<title>47&#45;&gt;524</title>
<path fill="none" stroke="black" d="M449.88,-93.48C427.49,-83.3 394.54,-67.67 366.9,-52 365.76,-51.36 364.61,-50.68 363.45,-49.99"/>
<polygon fill="black" stroke="black" points="365.06,-46.86 354.73,-44.51 361.33,-52.79 365.06,-46.86"/>
</g>
<!-- 534 -->
<g id="node64" class="node">
<title>534</title>
<ellipse fill="#b9d3ee" stroke="black" cx="398.9" cy="-34" rx="23" ry="18"/>
<text text-anchor="middle" x="398.9" y="-30.3" font-family="Times,serif" font-size="14.00">20</text>
</g>
<!-- 47&#45;&gt;534 -->
<g id="edge74" class="edge">
<title>47&#45;&gt;534</title>
<path fill="none" stroke="black" d="M459.19,-89.81C447.94,-79.59 432.99,-66 420.8,-54.91"/>
<polygon fill="black" stroke="black" points="423,-52.18 413.24,-48.04 418.29,-57.36 423,-52.18"/>
</g>
<!-- 545 -->
<g id="node75" class="node">
<title>545</title>
<ellipse fill="#b9d3ee" stroke="black" cx="475.9" cy="-34" rx="36" ry="18"/>
<text text-anchor="middle" x="475.9" y="-30.3" font-family="Times,serif" font-size="14.00">333</text>
</g>
<!-- 47&#45;&gt;545 -->
<g id="edge85" class="edge">
<title>47&#45;&gt;545</title>
<path fill="none" stroke="black" d="M475.9,-87.7C475.9,-79.98 475.9,-70.71 475.9,-62.11"/>
<polygon fill="black" stroke="black" points="479.4,-62.1 475.9,-52.1 472.4,-62.1 479.4,-62.1"/>
</g>
<!-- 515 -->
<g id="node45" class="node">
<title>515</title>
<ellipse fill="#b9d3ee" stroke="black" cx="2427.9" cy="-34" rx="16.8" ry="18"/>
<text text-anchor="middle" x="2427.9" y="-30.3" font-family="Times,serif" font-size="14.00">2</text>
</g>
<!-- 48&#45;&gt;515 -->
<g id="edge55" class="edge">
<title>48&#45;&gt;515</title>
<path fill="none" stroke="black" d="M2339.72,-91.37C2356.71,-80.72 2380.86,-65.51 2401.9,-52 2403,-51.3 2404.12,-50.57 2405.25,-49.84"/>
<polygon fill="black" stroke="black" points="2407.42,-52.6 2413.89,-44.22 2403.6,-46.74 2407.42,-52.6"/>
</g>
<!-- 523 -->
<g id="node53" class="node">
<title>523</title>
<ellipse fill="#b9d3ee" stroke="black" cx="2221.9" cy="-34" rx="16.8" ry="18"/>
<text text-anchor="middle" x="2221.9" y="-30.3" font-family="Times,serif" font-size="14.00">4</text>
</g>
<!-- 48&#45;&gt;523 -->
<g id="edge63" class="edge">
<title>48&#45;&gt;523</title>
<path fill="none" stroke="black" d="M2298.47,-90.83C2282.66,-79.31 2260.35,-63.04 2243.89,-51.03"/>
<polygon fill="black" stroke="black" points="2245.56,-47.92 2235.42,-44.86 2241.44,-53.58 2245.56,-47.92"/>
</g>
<!-- 539 -->
<g id="node69" class="node">
<title>539</title>
<ellipse fill="#b9d3ee" stroke="black" cx="2279.9" cy="-34" rx="23" ry="18"/>
<text text-anchor="middle" x="2279.9" y="-30.3" font-family="Times,serif" font-size="14.00">91</text>
</g>
<!-- 48&#45;&gt;539 -->
<g id="edge79" class="edge">
<title>48&#45;&gt;539</title>
<path fill="none" stroke="black" d="M2308.89,-88.41C2304.28,-79.92 2298.58,-69.41 2293.45,-59.96"/>
<polygon fill="black" stroke="black" points="2296.42,-58.11 2288.58,-50.99 2290.27,-61.45 2296.42,-58.11"/>
</g>
<!-- 543 -->
<g id="node73" class="node">
<title>543</title>
<ellipse fill="#b9d3ee" stroke="black" cx="2356.9" cy="-34" rx="36" ry="18"/>
<text text-anchor="middle" x="2356.9" y="-30.3" font-family="Times,serif" font-size="14.00">299</text>
</g>
<!-- 48&#45;&gt;543 -->
<g id="edge83" class="edge">
<title>48&#45;&gt;543</title>
<path fill="none" stroke="black" d="M2327.14,-88.41C2331.8,-80.04 2337.56,-69.71 2342.76,-60.37"/>
<polygon fill="black" stroke="black" points="2345.91,-61.91 2347.72,-51.47 2339.8,-58.5 2345.91,-61.91"/>
</g>
<!-- legend_5 -->
<g id="node76" class="node">
<title>legend_5</title>
<polygon fill="#b9d3ee" stroke="black" points="2943.4,-52 2722.4,-52 2722.4,-16 2943.4,-16 2943.4,-52"/>
<text text-anchor="middle" x="2832.9" y="-30.3" font-family="Times,serif" font-size="14.00">DT=6 ST=1 Similarity=0.47</text>
</g>
<!-- legend_4&#45;&gt;legend_5 -->
<g id="edge86" class="edge">
<title>legend_4&#45;&gt;legend_5</title>
<path fill="none" stroke="black" d="M2832.9,-87.7C2832.9,-79.98 2832.9,-70.71 2832.9,-62.11"/>
<polygon fill="black" stroke="black" points="2836.4,-62.1 2832.9,-52.1 2829.4,-62.1 2836.4,-62.1"/>
</g>
</g>
</svg>
