<?xml version="1.0" encoding="UTF-8" standalone="no"?>
<!DOCTYPE svg PUBLIC "-//W3C//DTD SVG 1.1//EN"
 "http://www.w3.org/Graphics/SVG/1.1/DTD/svg11.dtd">
<!-- Generated by graphviz version 2.43.0 (0)
 -->
<!-- Title: %3 Pages: 1 -->
<svg width="3116pt" height="497pt"
 viewBox="0.00 0.00 3115.90 497.00" xmlns="http://www.w3.org/2000/svg" xmlns:xlink="http://www.w3.org/1999/xlink">
<g id="graph0" class="graph" transform="scale(1 1) rotate(0) translate(4 493)">
<title>%3</title>
<polygon fill="white" stroke="transparent" points="-4,4 -4,-493 3111.9,-493 3111.9,4 -4,4"/>
<text text-anchor="middle" x="1553.95" y="-473.8" font-family="Times,serif" font-size="14.00">ConsTree</text>
<text text-anchor="middle" x="1553.95" y="-458.8" font-family="Times,serif" font-size="14.00">Tree Quality = 1</text>
<g id="clust1" class="cluster">
<title>cluster</title>
<polygon fill="none" stroke="black" points="2863.9,-8 2863.9,-443 3099.9,-443 3099.9,-8 2863.9,-8"/>
<text text-anchor="middle" x="2981.9" y="-427.8" font-family="Times,serif" font-size="14.00">Legend</text>
</g>
<!-- 00 -->
<g id="node1" class="node">
<title>00</title>
<ellipse fill="#b9d3ee" stroke="black" cx="1805.9" cy="-394" rx="108" ry="18"/>
<text text-anchor="middle" x="1805.9" y="-390.3" font-family="Times,serif" font-size="14.00">882</text>
</g>
<!-- 10 -->
<g id="node4" class="node">
<title>10</title>
<ellipse fill="#b9d3ee" stroke="black" cx="1697.9" cy="-322" rx="72" ry="18"/>
<text text-anchor="middle" x="1697.9" y="-318.3" font-family="Times,serif" font-size="14.00">470</text>
</g>
<!-- 00&#45;&gt;10 -->
<g id="edge1" class="edge">
<title>00&#45;&gt;10</title>
<path fill="none" stroke="black" d="M1780.3,-376.41C1765.57,-366.86 1746.89,-354.75 1731.04,-344.48"/>
<polygon fill="black" stroke="black" points="1732.86,-341.49 1722.57,-338.99 1729.05,-347.36 1732.86,-341.49"/>
</g>
<!-- 11 -->
<g id="node5" class="node">
<title>11</title>
<ellipse fill="#b9d3ee" stroke="black" cx="1499.9" cy="-322" rx="108" ry="18"/>
<text text-anchor="middle" x="1499.9" y="-318.3" font-family="Times,serif" font-size="14.00">776</text>
</g>
<!-- 00&#45;&gt;11 -->
<g id="edge3" class="edge">
<title>00&#45;&gt;11</title>
<path fill="none" stroke="black" d="M1745.08,-379.09C1694.89,-367.61 1623.61,-351.3 1570.83,-339.23"/>
<polygon fill="black" stroke="black" points="1571.4,-335.77 1560.87,-336.95 1569.83,-342.59 1571.4,-335.77"/>
</g>
<!-- 12 -->
<g id="node6" class="node">
<title>12</title>
<ellipse fill="#b9d3ee" stroke="black" cx="1895.9" cy="-322" rx="108" ry="18"/>
<text text-anchor="middle" x="1895.9" y="-318.3" font-family="Times,serif" font-size="14.00">754</text>
</g>
<!-- 00&#45;&gt;12 -->
<g id="edge5" class="edge">
<title>00&#45;&gt;12</title>
<path fill="none" stroke="black" d="M1827.68,-376.05C1839.29,-367.03 1853.74,-355.79 1866.34,-345.99"/>
<polygon fill="black" stroke="black" points="1868.57,-348.69 1874.31,-339.79 1864.27,-343.17 1868.57,-348.69"/>
</g>
<!-- 01 -->
<g id="node2" class="node">
<title>01</title>
<ellipse fill="#b9d3ee" stroke="black" cx="1499.9" cy="-394" rx="180" ry="18"/>
<text text-anchor="middle" x="1499.9" y="-390.3" font-family="Times,serif" font-size="14.00">1118</text>
</g>
<!-- 01&#45;&gt;10 -->
<g id="edge2" class="edge">
<title>01&#45;&gt;10</title>
<path fill="none" stroke="black" d="M1546.32,-376.59C1576.95,-365.76 1617.05,-351.58 1648.3,-340.53"/>
<polygon fill="black" stroke="black" points="1649.86,-343.7 1658.12,-337.06 1647.52,-337.1 1649.86,-343.7"/>
</g>
<!-- 01&#45;&gt;11 -->
<g id="edge4" class="edge">
<title>01&#45;&gt;11</title>
<path fill="none" stroke="black" d="M1499.9,-375.7C1499.9,-367.98 1499.9,-358.71 1499.9,-350.11"/>
<polygon fill="black" stroke="black" points="1503.4,-350.1 1499.9,-340.1 1496.4,-350.1 1503.4,-350.1"/>
</g>
<!-- legend_0 -->
<g id="node3" class="node">
<title>legend_0</title>
<polygon fill="#b9d3ee" stroke="black" points="3087.9,-412 2875.9,-412 2875.9,-376 3087.9,-376 3087.9,-412"/>
<text text-anchor="middle" x="2981.9" y="-390.3" font-family="Times,serif" font-size="14.00">DT=1 ST=1 Similarity=0.5</text>
</g>
<!-- legend_1 -->
<g id="node7" class="node">
<title>legend_1</title>
<polygon fill="#b9d3ee" stroke="black" points="3092.4,-340 2871.4,-340 2871.4,-304 3092.4,-304 3092.4,-340"/>
<text text-anchor="middle" x="2981.9" y="-318.3" font-family="Times,serif" font-size="14.00">DT=2 ST=1 Similarity=0.62</text>
</g>
<!-- legend_0&#45;&gt;legend_1 -->
<g id="edge6" class="edge">
<title>legend_0&#45;&gt;legend_1</title>
<path fill="none" stroke="black" d="M2981.9,-375.7C2981.9,-367.98 2981.9,-358.71 2981.9,-350.11"/>
<polygon fill="black" stroke="black" points="2985.4,-350.1 2981.9,-340.1 2978.4,-350.1 2985.4,-350.1"/>
</g>
<!-- 20 -->
<g id="node8" class="node">
<title>20</title>
<ellipse fill="#b9d3ee" stroke="black" cx="1706.9" cy="-250" rx="36" ry="18"/>
<text text-anchor="middle" x="1706.9" y="-246.3" font-family="Times,serif" font-size="14.00">428</text>
</g>
<!-- 10&#45;&gt;20 -->
<g id="edge7" class="edge">
<title>10&#45;&gt;20</title>
<path fill="none" stroke="black" d="M1700.12,-303.7C1701.12,-295.98 1702.31,-286.71 1703.41,-278.11"/>
<polygon fill="black" stroke="black" points="1706.9,-278.47 1704.7,-268.1 1699.95,-277.58 1706.9,-278.47"/>
</g>
<!-- 21 -->
<g id="node9" class="node">
<title>21</title>
<ellipse fill="#b9d3ee" stroke="black" cx="1612.9" cy="-250" rx="36" ry="18"/>
<text text-anchor="middle" x="1612.9" y="-246.3" font-family="Times,serif" font-size="14.00">409</text>
</g>
<!-- 10&#45;&gt;21 -->
<g id="edge8" class="edge">
<title>10&#45;&gt;21</title>
<path fill="none" stroke="black" d="M1677.75,-304.41C1666.08,-294.79 1651.25,-282.58 1638.72,-272.26"/>
<polygon fill="black" stroke="black" points="1640.82,-269.46 1630.87,-265.8 1636.37,-274.86 1640.82,-269.46"/>
</g>
<!-- 22 -->
<g id="node10" class="node">
<title>22</title>
<ellipse fill="#b9d3ee" stroke="black" cx="1508.9" cy="-250" rx="36" ry="18"/>
<text text-anchor="middle" x="1508.9" y="-246.3" font-family="Times,serif" font-size="14.00">400</text>
</g>
<!-- 10&#45;&gt;22 -->
<g id="edge11" class="edge">
<title>10&#45;&gt;22</title>
<path fill="none" stroke="black" d="M1659.2,-306.67C1626.31,-294.49 1579.38,-277.1 1546.74,-265.02"/>
<polygon fill="black" stroke="black" points="1547.7,-261.64 1537.1,-261.45 1545.27,-268.2 1547.7,-261.64"/>
</g>
<!-- 23 -->
<g id="node11" class="node">
<title>23</title>
<ellipse fill="#b9d3ee" stroke="black" cx="1877.9" cy="-250" rx="108" ry="18"/>
<text text-anchor="middle" x="1877.9" y="-246.3" font-family="Times,serif" font-size="14.00">763</text>
</g>
<!-- 10&#45;&gt;23 -->
<g id="edge13" class="edge">
<title>10&#45;&gt;23</title>
<path fill="none" stroke="black" d="M1735.19,-306.5C1762.02,-296.06 1798.5,-281.88 1827.86,-270.46"/>
<polygon fill="black" stroke="black" points="1829.47,-273.59 1837.52,-266.7 1826.93,-267.07 1829.47,-273.59"/>
</g>
<!-- 11&#45;&gt;21 -->
<g id="edge9" class="edge">
<title>11&#45;&gt;21</title>
<path fill="none" stroke="black" d="M1526.68,-304.41C1543.46,-294.01 1565.14,-280.59 1582.56,-269.8"/>
<polygon fill="black" stroke="black" points="1584.57,-272.66 1591.23,-264.42 1580.89,-266.71 1584.57,-272.66"/>
</g>
<!-- 11&#45;&gt;22 -->
<g id="edge12" class="edge">
<title>11&#45;&gt;22</title>
<path fill="none" stroke="black" d="M1502.12,-303.7C1503.12,-295.98 1504.31,-286.71 1505.41,-278.11"/>
<polygon fill="black" stroke="black" points="1508.9,-278.47 1506.7,-268.1 1501.95,-277.58 1508.9,-278.47"/>
</g>
<!-- 12&#45;&gt;21 -->
<g id="edge10" class="edge">
<title>12&#45;&gt;21</title>
<path fill="none" stroke="black" d="M1828.83,-307.88C1781.77,-298.17 1717.57,-283.91 1661.9,-268 1658.26,-266.96 1654.51,-265.81 1650.76,-264.6"/>
<polygon fill="black" stroke="black" points="1651.56,-261.18 1640.97,-261.34 1649.35,-267.82 1651.56,-261.18"/>
</g>
<!-- 12&#45;&gt;23 -->
<g id="edge14" class="edge">
<title>12&#45;&gt;23</title>
<path fill="none" stroke="black" d="M1891.45,-303.7C1889.44,-295.9 1887.03,-286.51 1884.8,-277.83"/>
<polygon fill="black" stroke="black" points="1888.18,-276.92 1882.3,-268.1 1881.4,-278.66 1888.18,-276.92"/>
</g>
<!-- legend_2 -->
<g id="node12" class="node">
<title>legend_2</title>
<polygon fill="#b9d3ee" stroke="black" points="3092.4,-268 2871.4,-268 2871.4,-232 3092.4,-232 3092.4,-268"/>
<text text-anchor="middle" x="2981.9" y="-246.3" font-family="Times,serif" font-size="14.00">DT=3 ST=1 Similarity=0.67</text>
</g>
<!-- legend_1&#45;&gt;legend_2 -->
<g id="edge15" class="edge">
<title>legend_1&#45;&gt;legend_2</title>
<path fill="none" stroke="black" d="M2981.9,-303.7C2981.9,-295.98 2981.9,-286.71 2981.9,-278.11"/>
<polygon fill="black" stroke="black" points="2985.4,-278.1 2981.9,-268.1 2978.4,-278.1 2985.4,-278.1"/>
</g>
<!-- 30 -->
<g id="node13" class="node">
<title>30</title>
<polygon fill="darkseagreen" stroke="black" points="1613.9,-196 1541.9,-196 1541.9,-160 1613.9,-160 1613.9,-196"/>
<text text-anchor="middle" x="1577.9" y="-174.3" font-family="Times,serif" font-size="14.00">413</text>
</g>
<!-- 20&#45;&gt;30 -->
<g id="edge16" class="edge">
<title>20&#45;&gt;30</title>
<path fill="none" stroke="black" d="M1683.24,-236.16C1665.16,-226.35 1639.82,-212.6 1618.52,-201.04"/>
<polygon fill="black" stroke="black" points="1620.13,-197.93 1609.67,-196.24 1616.79,-204.09 1620.13,-197.93"/>
</g>
<!-- 31 -->
<g id="node14" class="node">
<title>31</title>
<polygon fill="darkseagreen" stroke="black" points="2070.9,-196 1998.9,-196 1998.9,-160 2070.9,-160 2070.9,-196"/>
<text text-anchor="middle" x="2034.9" y="-174.3" font-family="Times,serif" font-size="14.00">386</text>
</g>
<!-- 20&#45;&gt;31 -->
<g id="edge18" class="edge">
<title>20&#45;&gt;31</title>
<path fill="none" stroke="black" d="M1735.87,-239.21C1743.92,-236.67 1752.7,-234.08 1760.9,-232 1840.1,-211.94 1933.85,-195.31 1988.62,-186.3"/>
<polygon fill="black" stroke="black" points="1989.4,-189.72 1998.7,-184.65 1988.27,-182.81 1989.4,-189.72"/>
</g>
<!-- 34 -->
<g id="node17" class="node">
<title>34</title>
<polygon fill="darkseagreen" stroke="black" points="1876.9,-196 1804.9,-196 1804.9,-160 1876.9,-160 1876.9,-196"/>
<text text-anchor="middle" x="1840.9" y="-174.3" font-family="Times,serif" font-size="14.00">403</text>
</g>
<!-- 20&#45;&gt;34 -->
<g id="edge23" class="edge">
<title>20&#45;&gt;34</title>
<path fill="none" stroke="black" d="M1730.86,-236.49C1749.84,-226.57 1776.83,-212.47 1799.33,-200.72"/>
<polygon fill="black" stroke="black" points="1801.1,-203.74 1808.34,-196.01 1797.86,-197.54 1801.1,-203.74"/>
</g>
<!-- 32 -->
<g id="node15" class="node">
<title>32</title>
<polygon fill="darkseagreen" stroke="black" points="1157.9,-196 1085.9,-196 1085.9,-160 1157.9,-160 1157.9,-196"/>
<text text-anchor="middle" x="1121.9" y="-174.3" font-family="Times,serif" font-size="14.00">404</text>
</g>
<!-- 21&#45;&gt;32 -->
<g id="edge20" class="edge">
<title>21&#45;&gt;32</title>
<path fill="none" stroke="black" d="M1583.41,-239.51C1574.05,-236.77 1563.61,-233.98 1553.9,-232 1415.02,-203.66 1247.73,-188.4 1168.22,-182.26"/>
<polygon fill="black" stroke="black" points="1168.29,-178.76 1158.05,-181.49 1167.76,-185.74 1168.29,-178.76"/>
</g>
<!-- 33 -->
<g id="node16" class="node">
<title>33</title>
<polygon fill="darkseagreen" stroke="black" points="863.9,-196 791.9,-196 791.9,-160 863.9,-160 863.9,-196"/>
<text text-anchor="middle" x="827.9" y="-174.3" font-family="Times,serif" font-size="14.00">394</text>
</g>
<!-- 21&#45;&gt;33 -->
<g id="edge21" class="edge">
<title>21&#45;&gt;33</title>
<path fill="none" stroke="black" d="M1583.77,-239.31C1574.34,-236.52 1563.76,-233.76 1553.9,-232 1537.1,-229 1031.63,-193.32 874.22,-182.25"/>
<polygon fill="black" stroke="black" points="874.16,-178.74 863.94,-181.53 873.67,-185.72 874.16,-178.74"/>
</g>
<!-- 21&#45;&gt;34 -->
<g id="edge24" class="edge">
<title>21&#45;&gt;34</title>
<path fill="none" stroke="black" d="M1641.33,-238.89C1648.05,-236.57 1655.21,-234.15 1661.9,-232 1706.88,-217.54 1758.69,-202.36 1794.95,-191.97"/>
<polygon fill="black" stroke="black" points="1796.1,-195.29 1804.75,-189.17 1794.17,-188.56 1796.1,-195.29"/>
</g>
<!-- 22&#45;&gt;30 -->
<g id="edge17" class="edge">
<title>22&#45;&gt;30</title>
<path fill="none" stroke="black" d="M1524.21,-233.46C1532.82,-224.73 1543.76,-213.63 1553.52,-203.74"/>
<polygon fill="black" stroke="black" points="1556.16,-206.04 1560.69,-196.46 1551.17,-201.13 1556.16,-206.04"/>
</g>
<!-- 22&#45;&gt;33 -->
<g id="edge22" class="edge">
<title>22&#45;&gt;33</title>
<path fill="none" stroke="black" d="M1473.72,-245.38C1360.07,-233.7 1002.72,-196.97 874.37,-183.78"/>
<polygon fill="black" stroke="black" points="874.41,-180.26 864.1,-182.72 873.69,-187.23 874.41,-180.26"/>
</g>
<!-- 23&#45;&gt;31 -->
<g id="edge19" class="edge">
<title>23&#45;&gt;31</title>
<path fill="none" stroke="black" d="M1913.92,-232.94C1936.38,-222.93 1965.47,-209.95 1989.5,-199.24"/>
<polygon fill="black" stroke="black" points="1991.07,-202.37 1998.78,-195.11 1988.22,-195.98 1991.07,-202.37"/>
</g>
<!-- 23&#45;&gt;34 -->
<g id="edge25" class="edge">
<title>23&#45;&gt;34</title>
<path fill="none" stroke="black" d="M1868.94,-232.05C1864.69,-224.01 1859.51,-214.2 1854.76,-205.23"/>
<polygon fill="black" stroke="black" points="1857.8,-203.48 1850.03,-196.28 1851.61,-206.75 1857.8,-203.48"/>
</g>
<!-- legend_3 -->
<g id="node18" class="node">
<title>legend_3</title>
<polygon fill="darkseagreen" stroke="black" points="3092.4,-196 2871.4,-196 2871.4,-160 3092.4,-160 3092.4,-196"/>
<text text-anchor="middle" x="2981.9" y="-174.3" font-family="Times,serif" font-size="14.00">DT=4 ST=1 Similarity=0.68</text>
</g>
<!-- legend_2&#45;&gt;legend_3 -->
<g id="edge26" class="edge">
<title>legend_2&#45;&gt;legend_3</title>
<path fill="none" stroke="black" d="M2981.9,-231.7C2981.9,-223.98 2981.9,-214.71 2981.9,-206.11"/>
<polygon fill="black" stroke="black" points="2985.4,-206.1 2981.9,-196.1 2978.4,-206.1 2985.4,-206.1"/>
</g>
<!-- 43 -->
<g id="node22" class="node">
<title>43</title>
<ellipse fill="#b9d3ee" stroke="black" cx="1577.9" cy="-106" rx="36" ry="18"/>
<text text-anchor="middle" x="1577.9" y="-102.3" font-family="Times,serif" font-size="14.00">413</text>
</g>
<!-- 30&#45;&gt;43 -->
<g id="edge30" class="edge">
<title>30&#45;&gt;43</title>
<path fill="none" stroke="black" d="M1577.9,-159.7C1577.9,-151.98 1577.9,-142.71 1577.9,-134.11"/>
<polygon fill="black" stroke="black" points="1581.4,-134.1 1577.9,-124.1 1574.4,-134.1 1581.4,-134.1"/>
</g>
<!-- 42 -->
<g id="node21" class="node">
<title>42</title>
<ellipse fill="#b9d3ee" stroke="black" cx="2674.9" cy="-106" rx="23" ry="18"/>
<text text-anchor="middle" x="2674.9" y="-102.3" font-family="Times,serif" font-size="14.00">29</text>
</g>
<!-- 31&#45;&gt;42 -->
<g id="edge29" class="edge">
<title>31&#45;&gt;42</title>
<path fill="none" stroke="black" d="M2071.14,-173.04C2184.89,-160.59 2533.7,-122.44 2642.28,-110.57"/>
<polygon fill="black" stroke="black" points="2642.75,-114.04 2652.31,-109.47 2641.99,-107.08 2642.75,-114.04"/>
</g>
<!-- 44 -->
<g id="node23" class="node">
<title>44</title>
<ellipse fill="#b9d3ee" stroke="black" cx="2335.9" cy="-106" rx="36" ry="18"/>
<text text-anchor="middle" x="2335.9" y="-102.3" font-family="Times,serif" font-size="14.00">356</text>
</g>
<!-- 31&#45;&gt;44 -->
<g id="edge31" class="edge">
<title>31&#45;&gt;44</title>
<path fill="none" stroke="black" d="M2070.91,-168.63C2126.96,-155.59 2234.8,-130.51 2294.17,-116.7"/>
<polygon fill="black" stroke="black" points="2295.02,-120.1 2303.96,-114.43 2293.43,-113.28 2295.02,-120.1"/>
</g>
<!-- 47 -->
<g id="node26" class="node">
<title>47</title>
<ellipse fill="#b9d3ee" stroke="black" cx="2034.9" cy="-106" rx="36" ry="18"/>
<text text-anchor="middle" x="2034.9" y="-102.3" font-family="Times,serif" font-size="14.00">401</text>
</g>
<!-- 31&#45;&gt;47 -->
<g id="edge35" class="edge">
<title>31&#45;&gt;47</title>
<path fill="none" stroke="black" d="M2034.9,-159.7C2034.9,-151.98 2034.9,-142.71 2034.9,-134.11"/>
<polygon fill="black" stroke="black" points="2038.4,-134.1 2034.9,-124.1 2031.4,-134.1 2038.4,-134.1"/>
</g>
<!-- 45 -->
<g id="node24" class="node">
<title>45</title>
<ellipse fill="#b9d3ee" stroke="black" cx="1121.9" cy="-106" rx="36" ry="18"/>
<text text-anchor="middle" x="1121.9" y="-102.3" font-family="Times,serif" font-size="14.00">391</text>
</g>
<!-- 32&#45;&gt;45 -->
<g id="edge32" class="edge">
<title>32&#45;&gt;45</title>
<path fill="none" stroke="black" d="M1121.9,-159.7C1121.9,-151.98 1121.9,-142.71 1121.9,-134.11"/>
<polygon fill="black" stroke="black" points="1125.4,-134.1 1121.9,-124.1 1118.4,-134.1 1125.4,-134.1"/>
</g>
<!-- 46 -->
<g id="node25" class="node">
<title>46</title>
<ellipse fill="#b9d3ee" stroke="black" cx="652.9" cy="-106" rx="36" ry="18"/>
<text text-anchor="middle" x="652.9" y="-102.3" font-family="Times,serif" font-size="14.00">387</text>
</g>
<!-- 32&#45;&gt;46 -->
<g id="edge33" class="edge">
<title>32&#45;&gt;46</title>
<path fill="none" stroke="black" d="M1085.88,-171.62C1001.09,-158.97 789.16,-127.34 696.93,-113.57"/>
<polygon fill="black" stroke="black" points="697.23,-110.08 686.82,-112.06 696.19,-117 697.23,-110.08"/>
</g>
<!-- 41 -->
<g id="node20" class="node">
<title>41</title>
<ellipse fill="#b9d3ee" stroke="black" cx="172.9" cy="-106" rx="23" ry="18"/>
<text text-anchor="middle" x="172.9" y="-102.3" font-family="Times,serif" font-size="14.00">20</text>
</g>
<!-- 33&#45;&gt;41 -->
<g id="edge28" class="edge">
<title>33&#45;&gt;41</title>
<path fill="none" stroke="black" d="M791.75,-173.14C676.12,-160.78 316.41,-122.34 205.67,-110.5"/>
<polygon fill="black" stroke="black" points="205.77,-106.99 195.46,-109.41 205.03,-113.95 205.77,-106.99"/>
</g>
<!-- 33&#45;&gt;46 -->
<g id="edge34" class="edge">
<title>33&#45;&gt;46</title>
<path fill="none" stroke="black" d="M791.64,-162.5C761.87,-150.59 719.87,-133.79 689.9,-121.8"/>
<polygon fill="black" stroke="black" points="690.82,-118.4 680.23,-117.93 688.22,-124.9 690.82,-118.4"/>
</g>
<!-- 40 -->
<g id="node19" class="node">
<title>40</title>
<ellipse fill="#b9d3ee" stroke="black" cx="1840.9" cy="-106" rx="16.8" ry="18"/>
<text text-anchor="middle" x="1840.9" y="-102.3" font-family="Times,serif" font-size="14.00">3</text>
</g>
<!-- 34&#45;&gt;40 -->
<g id="edge27" class="edge">
<title>34&#45;&gt;40</title>
<path fill="none" stroke="black" d="M1840.9,-159.7C1840.9,-151.98 1840.9,-142.71 1840.9,-134.11"/>
<polygon fill="black" stroke="black" points="1844.4,-134.1 1840.9,-124.1 1837.4,-134.1 1844.4,-134.1"/>
</g>
<!-- 34&#45;&gt;47 -->
<g id="edge36" class="edge">
<title>34&#45;&gt;47</title>
<path fill="none" stroke="black" d="M1876.93,-164C1911.04,-151.69 1962.06,-133.28 1996.83,-120.74"/>
<polygon fill="black" stroke="black" points="1998.39,-123.89 2006.61,-117.21 1996.02,-117.31 1998.39,-123.89"/>
</g>
<!-- legend_4 -->
<g id="node27" class="node">
<title>legend_4</title>
<polygon fill="#b9d3ee" stroke="black" points="3092.4,-124 2871.4,-124 2871.4,-88 3092.4,-88 3092.4,-124"/>
<text text-anchor="middle" x="2981.9" y="-102.3" font-family="Times,serif" font-size="14.00">DT=5 ST=1 Similarity=0.68</text>
</g>
<!-- legend_3&#45;&gt;legend_4 -->
<g id="edge37" class="edge">
<title>legend_3&#45;&gt;legend_4</title>
<path fill="none" stroke="black" d="M2981.9,-159.7C2981.9,-151.98 2981.9,-142.71 2981.9,-134.11"/>
<polygon fill="black" stroke="black" points="2985.4,-134.1 2981.9,-124.1 2978.4,-134.1 2985.4,-134.1"/>
</g>
<!-- 523 -->
<g id="node51" class="node">
<title>523</title>
<ellipse fill="#b9d3ee" stroke="black" cx="1840.9" cy="-34" rx="16.8" ry="18"/>
<text text-anchor="middle" x="1840.9" y="-30.3" font-family="Times,serif" font-size="14.00">3</text>
</g>
<!-- 40&#45;&gt;523 -->
<g id="edge61" class="edge">
<title>40&#45;&gt;523</title>
<path fill="none" stroke="black" d="M1840.9,-87.7C1840.9,-79.98 1840.9,-70.71 1840.9,-62.11"/>
<polygon fill="black" stroke="black" points="1844.4,-62.1 1840.9,-52.1 1837.4,-62.1 1844.4,-62.1"/>
</g>
<!-- 52 -->
<g id="node30" class="node">
<title>52</title>
<ellipse fill="#b9d3ee" stroke="black" cx="16.9" cy="-34" rx="16.8" ry="18"/>
<text text-anchor="middle" x="16.9" y="-30.3" font-family="Times,serif" font-size="14.00">1</text>
</g>
<!-- 41&#45;&gt;52 -->
<g id="edge40" class="edge">
<title>41&#45;&gt;52</title>
<path fill="none" stroke="black" d="M152.09,-97.92C125.95,-88.7 80.02,-71.47 42.9,-52 41.74,-51.39 40.57,-50.75 39.4,-50.08"/>
<polygon fill="black" stroke="black" points="40.98,-46.95 30.63,-44.68 37.31,-52.91 40.98,-46.95"/>
</g>
<!-- 515 -->
<g id="node43" class="node">
<title>515</title>
<ellipse fill="#b9d3ee" stroke="black" cx="68.9" cy="-34" rx="16.8" ry="18"/>
<text text-anchor="middle" x="68.9" y="-30.3" font-family="Times,serif" font-size="14.00">1</text>
</g>
<!-- 41&#45;&gt;515 -->
<g id="edge53" class="edge">
<title>41&#45;&gt;515</title>
<path fill="none" stroke="black" d="M156.19,-93.75C138.56,-81.89 110.69,-63.13 91.2,-50.01"/>
<polygon fill="black" stroke="black" points="93.15,-47.1 82.9,-44.42 89.24,-52.91 93.15,-47.1"/>
</g>
<!-- 516 -->
<g id="node44" class="node">
<title>516</title>
<ellipse fill="#b9d3ee" stroke="black" cx="120.9" cy="-34" rx="16.8" ry="18"/>
<text text-anchor="middle" x="120.9" y="-30.3" font-family="Times,serif" font-size="14.00">1</text>
</g>
<!-- 41&#45;&gt;516 -->
<g id="edge54" class="edge">
<title>41&#45;&gt;516</title>
<path fill="none" stroke="black" d="M161.87,-90.15C154.72,-80.53 145.28,-67.82 137.26,-57.02"/>
<polygon fill="black" stroke="black" points="139.98,-54.81 131.2,-48.87 134.36,-58.99 139.98,-54.81"/>
</g>
<!-- 520 -->
<g id="node48" class="node">
<title>520</title>
<ellipse fill="#b9d3ee" stroke="black" cx="172.9" cy="-34" rx="16.8" ry="18"/>
<text text-anchor="middle" x="172.9" y="-30.3" font-family="Times,serif" font-size="14.00">2</text>
</g>
<!-- 41&#45;&gt;520 -->
<g id="edge58" class="edge">
<title>41&#45;&gt;520</title>
<path fill="none" stroke="black" d="M172.9,-87.7C172.9,-79.98 172.9,-70.71 172.9,-62.11"/>
<polygon fill="black" stroke="black" points="176.4,-62.1 172.9,-52.1 169.4,-62.1 176.4,-62.1"/>
</g>
<!-- 521 -->
<g id="node49" class="node">
<title>521</title>
<ellipse fill="#b9d3ee" stroke="black" cx="224.9" cy="-34" rx="16.8" ry="18"/>
<text text-anchor="middle" x="224.9" y="-30.3" font-family="Times,serif" font-size="14.00">2</text>
</g>
<!-- 41&#45;&gt;521 -->
<g id="edge59" class="edge">
<title>41&#45;&gt;521</title>
<path fill="none" stroke="black" d="M183.93,-90.15C191.08,-80.53 200.52,-67.82 208.54,-57.02"/>
<polygon fill="black" stroke="black" points="211.44,-58.99 214.59,-48.87 205.82,-54.81 211.44,-58.99"/>
</g>
<!-- 533 -->
<g id="node61" class="node">
<title>533</title>
<ellipse fill="#b9d3ee" stroke="black" cx="282.9" cy="-34" rx="23" ry="18"/>
<text text-anchor="middle" x="282.9" y="-30.3" font-family="Times,serif" font-size="14.00">13</text>
</g>
<!-- 41&#45;&gt;533 -->
<g id="edge71" class="edge">
<title>41&#45;&gt;533</title>
<path fill="none" stroke="black" d="M190.09,-94.06C207.98,-82.67 236.23,-64.7 256.87,-51.57"/>
<polygon fill="black" stroke="black" points="258.91,-54.41 265.47,-46.09 255.15,-48.51 258.91,-54.41"/>
</g>
<!-- 55 -->
<g id="node33" class="node">
<title>55</title>
<ellipse fill="#b9d3ee" stroke="black" cx="2732.9" cy="-34" rx="16.8" ry="18"/>
<text text-anchor="middle" x="2732.9" y="-30.3" font-family="Times,serif" font-size="14.00">1</text>
</g>
<!-- 42&#45;&gt;55 -->
<g id="edge43" class="edge">
<title>42&#45;&gt;55</title>
<path fill="none" stroke="black" d="M2686.92,-90.5C2695.17,-80.54 2706.25,-67.17 2715.46,-56.04"/>
<polygon fill="black" stroke="black" points="2718.38,-58 2722.07,-48.07 2712.99,-53.54 2718.38,-58"/>
</g>
<!-- 56 -->
<g id="node34" class="node">
<title>56</title>
<ellipse fill="#b9d3ee" stroke="black" cx="2784.9" cy="-34" rx="16.8" ry="18"/>
<text text-anchor="middle" x="2784.9" y="-30.3" font-family="Times,serif" font-size="14.00">1</text>
</g>
<!-- 42&#45;&gt;56 -->
<g id="edge44" class="edge">
<title>42&#45;&gt;56</title>
<path fill="none" stroke="black" d="M2692.33,-94.12C2709.35,-83.46 2735.98,-66.72 2758.9,-52 2760,-51.3 2761.12,-50.57 2762.25,-49.84"/>
<polygon fill="black" stroke="black" points="2764.42,-52.6 2770.89,-44.22 2760.6,-46.74 2764.42,-52.6"/>
</g>
<!-- 513 -->
<g id="node41" class="node">
<title>513</title>
<ellipse fill="#b9d3ee" stroke="black" cx="2836.9" cy="-34" rx="16.8" ry="18"/>
<text text-anchor="middle" x="2836.9" y="-30.3" font-family="Times,serif" font-size="14.00">1</text>
</g>
<!-- 42&#45;&gt;513 -->
<g id="edge51" class="edge">
<title>42&#45;&gt;513</title>
<path fill="none" stroke="black" d="M2695.75,-98.38C2722.95,-89.41 2771.69,-72.18 2810.9,-52 2812.06,-51.4 2813.23,-50.77 2814.4,-50.1"/>
<polygon fill="black" stroke="black" points="2816.49,-52.93 2823.19,-44.73 2812.83,-46.96 2816.49,-52.93"/>
</g>
<!-- 524 -->
<g id="node52" class="node">
<title>524</title>
<ellipse fill="#b9d3ee" stroke="black" cx="2564.9" cy="-34" rx="16.8" ry="18"/>
<text text-anchor="middle" x="2564.9" y="-30.3" font-family="Times,serif" font-size="14.00">4</text>
</g>
<!-- 42&#45;&gt;524 -->
<g id="edge62" class="edge">
<title>42&#45;&gt;524</title>
<path fill="none" stroke="black" d="M2657.47,-94.12C2640.45,-83.46 2613.82,-66.72 2590.9,-52 2589.8,-51.3 2588.68,-50.57 2587.55,-49.84"/>
<polygon fill="black" stroke="black" points="2589.2,-46.74 2578.9,-44.22 2585.38,-52.6 2589.2,-46.74"/>
</g>
<!-- 528 -->
<g id="node56" class="node">
<title>528</title>
<ellipse fill="#b9d3ee" stroke="black" cx="2616.9" cy="-34" rx="16.8" ry="18"/>
<text text-anchor="middle" x="2616.9" y="-30.3" font-family="Times,serif" font-size="14.00">7</text>
</g>
<!-- 42&#45;&gt;528 -->
<g id="edge66" class="edge">
<title>42&#45;&gt;528</title>
<path fill="none" stroke="black" d="M2662.88,-90.5C2654.63,-80.54 2643.55,-67.17 2634.33,-56.04"/>
<polygon fill="black" stroke="black" points="2636.8,-53.54 2627.73,-48.07 2631.41,-58 2636.8,-53.54"/>
</g>
<!-- 535 -->
<g id="node63" class="node">
<title>535</title>
<ellipse fill="#b9d3ee" stroke="black" cx="2674.9" cy="-34" rx="23" ry="18"/>
<text text-anchor="middle" x="2674.9" y="-30.3" font-family="Times,serif" font-size="14.00">15</text>
</g>
<!-- 42&#45;&gt;535 -->
<g id="edge73" class="edge">
<title>42&#45;&gt;535</title>
<path fill="none" stroke="black" d="M2674.9,-87.7C2674.9,-79.98 2674.9,-70.71 2674.9,-62.11"/>
<polygon fill="black" stroke="black" points="2678.4,-62.1 2674.9,-52.1 2671.4,-62.1 2678.4,-62.1"/>
</g>
<!-- 512 -->
<g id="node40" class="node">
<title>512</title>
<ellipse fill="#b9d3ee" stroke="black" cx="1609.9" cy="-34" rx="16.8" ry="18"/>
<text text-anchor="middle" x="1609.9" y="-30.3" font-family="Times,serif" font-size="14.00">1</text>
</g>
<!-- 43&#45;&gt;512 -->
<g id="edge50" class="edge">
<title>43&#45;&gt;512</title>
<path fill="none" stroke="black" d="M1585.64,-88.05C1589.49,-79.65 1594.21,-69.32 1598.46,-60.02"/>
<polygon fill="black" stroke="black" points="1601.69,-61.38 1602.66,-50.83 1595.32,-58.47 1601.69,-61.38"/>
</g>
<!-- 530 -->
<g id="node58" class="node">
<title>530</title>
<ellipse fill="#b9d3ee" stroke="black" cx="1661.9" cy="-34" rx="16.8" ry="18"/>
<text text-anchor="middle" x="1661.9" y="-30.3" font-family="Times,serif" font-size="14.00">8</text>
</g>
<!-- 43&#45;&gt;530 -->
<g id="edge68" class="edge">
<title>43&#45;&gt;530</title>
<path fill="none" stroke="black" d="M1595.71,-90.15C1608.95,-79.12 1627.06,-64.03 1640.99,-52.43"/>
<polygon fill="black" stroke="black" points="1643.6,-54.81 1649.04,-45.72 1639.11,-49.43 1643.6,-54.81"/>
</g>
<!-- 536 -->
<g id="node64" class="node">
<title>536</title>
<ellipse fill="#b9d3ee" stroke="black" cx="1719.9" cy="-34" rx="23" ry="18"/>
<text text-anchor="middle" x="1719.9" y="-30.3" font-family="Times,serif" font-size="14.00">17</text>
</g>
<!-- 43&#45;&gt;536 -->
<g id="edge74" class="edge">
<title>43&#45;&gt;536</title>
<path fill="none" stroke="black" d="M1603.38,-93.07C1625.76,-82.51 1659.15,-66.55 1687.9,-52 1689.44,-51.22 1691.02,-50.41 1692.62,-49.59"/>
<polygon fill="black" stroke="black" points="1694.45,-52.57 1701.69,-44.83 1691.2,-46.37 1694.45,-52.57"/>
</g>
<!-- 537 -->
<g id="node65" class="node">
<title>537</title>
<ellipse fill="#b9d3ee" stroke="black" cx="1782.9" cy="-34" rx="23" ry="18"/>
<text text-anchor="middle" x="1782.9" y="-30.3" font-family="Times,serif" font-size="14.00">23</text>
</g>
<!-- 43&#45;&gt;537 -->
<g id="edge75" class="edge">
<title>43&#45;&gt;537</title>
<path fill="none" stroke="black" d="M1609.7,-97.42C1645.12,-88.49 1703.73,-72.29 1751.9,-52 1753.28,-51.42 1754.67,-50.79 1756.07,-50.14"/>
<polygon fill="black" stroke="black" points="1757.84,-53.17 1765.18,-45.53 1754.68,-46.93 1757.84,-53.17"/>
</g>
<!-- 539 -->
<g id="node67" class="node">
<title>539</title>
<ellipse fill="#b9d3ee" stroke="black" cx="1351.9" cy="-34" rx="23" ry="18"/>
<text text-anchor="middle" x="1351.9" y="-30.3" font-family="Times,serif" font-size="14.00">26</text>
</g>
<!-- 43&#45;&gt;539 -->
<g id="edge77" class="edge">
<title>43&#45;&gt;539</title>
<path fill="none" stroke="black" d="M1545.04,-98.56C1505.65,-90.27 1438.04,-74.25 1382.9,-52 1381.51,-51.44 1380.11,-50.83 1378.7,-50.19"/>
<polygon fill="black" stroke="black" points="1380.09,-46.97 1369.58,-45.63 1376.96,-53.23 1380.09,-46.97"/>
</g>
<!-- 541 -->
<g id="node69" class="node">
<title>541</title>
<ellipse fill="#b9d3ee" stroke="black" cx="1414.9" cy="-34" rx="23" ry="18"/>
<text text-anchor="middle" x="1414.9" y="-30.3" font-family="Times,serif" font-size="14.00">61</text>
</g>
<!-- 43&#45;&gt;541 -->
<g id="edge79" class="edge">
<title>43&#45;&gt;541</title>
<path fill="none" stroke="black" d="M1549.67,-94.79C1522.65,-84.75 1480.95,-68.57 1445.9,-52 1444.55,-51.36 1443.17,-50.69 1441.79,-50"/>
<polygon fill="black" stroke="black" points="1443.22,-46.8 1432.74,-45.26 1439.98,-53 1443.22,-46.8"/>
</g>
<!-- 542 -->
<g id="node70" class="node">
<title>542</title>
<ellipse fill="#b9d3ee" stroke="black" cx="1477.9" cy="-34" rx="23" ry="18"/>
<text text-anchor="middle" x="1477.9" y="-30.3" font-family="Times,serif" font-size="14.00">62</text>
</g>
<!-- 43&#45;&gt;542 -->
<g id="edge80" class="edge">
<title>43&#45;&gt;542</title>
<path fill="none" stroke="black" d="M1557.66,-90.83C1541.82,-79.74 1519.71,-64.27 1502.78,-52.42"/>
<polygon fill="black" stroke="black" points="1504.66,-49.46 1494.46,-46.6 1500.65,-55.2 1504.66,-49.46"/>
</g>
<!-- 544 -->
<g id="node72" class="node">
<title>544</title>
<ellipse fill="#b9d3ee" stroke="black" cx="1546.9" cy="-34" rx="28.7" ry="18"/>
<text text-anchor="middle" x="1546.9" y="-30.3" font-family="Times,serif" font-size="14.00">215</text>
</g>
<!-- 43&#45;&gt;544 -->
<g id="edge82" class="edge">
<title>43&#45;&gt;544</title>
<path fill="none" stroke="black" d="M1570.39,-88.05C1566.81,-79.97 1562.45,-70.12 1558.46,-61.11"/>
<polygon fill="black" stroke="black" points="1561.58,-59.52 1554.33,-51.79 1555.18,-62.35 1561.58,-59.52"/>
</g>
<!-- 519 -->
<g id="node47" class="node">
<title>519</title>
<ellipse fill="#b9d3ee" stroke="black" cx="2512.9" cy="-34" rx="16.8" ry="18"/>
<text text-anchor="middle" x="2512.9" y="-30.3" font-family="Times,serif" font-size="14.00">2</text>
</g>
<!-- 44&#45;&gt;519 -->
<g id="edge57" class="edge">
<title>44&#45;&gt;519</title>
<path fill="none" stroke="black" d="M2366.86,-96.53C2398.02,-87.45 2447.03,-71.67 2486.9,-52 2488.07,-51.42 2489.25,-50.8 2490.43,-50.15"/>
<polygon fill="black" stroke="black" points="2492.49,-52.99 2499.23,-44.82 2488.87,-47.01 2492.49,-52.99"/>
</g>
<!-- 522 -->
<g id="node50" class="node">
<title>522</title>
<ellipse fill="#b9d3ee" stroke="black" cx="2254.9" cy="-34" rx="16.8" ry="18"/>
<text text-anchor="middle" x="2254.9" y="-30.3" font-family="Times,serif" font-size="14.00">3</text>
</g>
<!-- 44&#45;&gt;522 -->
<g id="edge60" class="edge">
<title>44&#45;&gt;522</title>
<path fill="none" stroke="black" d="M2318.72,-90.15C2306.11,-79.25 2288.91,-64.4 2275.55,-52.85"/>
<polygon fill="black" stroke="black" points="2277.66,-50.04 2267.8,-46.15 2273.08,-55.34 2277.66,-50.04"/>
</g>
<!-- 531 -->
<g id="node59" class="node">
<title>531</title>
<ellipse fill="#b9d3ee" stroke="black" cx="2306.9" cy="-34" rx="16.8" ry="18"/>
<text text-anchor="middle" x="2306.9" y="-30.3" font-family="Times,serif" font-size="14.00">9</text>
</g>
<!-- 44&#45;&gt;531 -->
<g id="edge69" class="edge">
<title>44&#45;&gt;531</title>
<path fill="none" stroke="black" d="M2328.88,-88.05C2325.43,-79.73 2321.21,-69.54 2317.39,-60.32"/>
<polygon fill="black" stroke="black" points="2320.52,-58.73 2313.46,-50.83 2314.05,-61.41 2320.52,-58.73"/>
</g>
<!-- 540 -->
<g id="node68" class="node">
<title>540</title>
<ellipse fill="#b9d3ee" stroke="black" cx="2364.9" cy="-34" rx="23" ry="18"/>
<text text-anchor="middle" x="2364.9" y="-30.3" font-family="Times,serif" font-size="14.00">31</text>
</g>
<!-- 44&#45;&gt;540 -->
<g id="edge78" class="edge">
<title>44&#45;&gt;540</title>
<path fill="none" stroke="black" d="M2342.92,-88.05C2346.32,-79.85 2350.47,-69.83 2354.25,-60.71"/>
<polygon fill="black" stroke="black" points="2357.55,-61.89 2358.14,-51.31 2351.08,-59.21 2357.55,-61.89"/>
</g>
<!-- 546 -->
<g id="node74" class="node">
<title>546</title>
<ellipse fill="#b9d3ee" stroke="black" cx="2441.9" cy="-34" rx="36" ry="18"/>
<text text-anchor="middle" x="2441.9" y="-30.3" font-family="Times,serif" font-size="14.00">311</text>
</g>
<!-- 44&#45;&gt;546 -->
<g id="edge84" class="edge">
<title>44&#45;&gt;546</title>
<path fill="none" stroke="black" d="M2356.84,-91.17C2372.67,-80.72 2394.6,-66.24 2412.23,-54.59"/>
<polygon fill="black" stroke="black" points="2414.58,-57.23 2421,-48.8 2410.73,-51.39 2414.58,-57.23"/>
</g>
<!-- 57 -->
<g id="node35" class="node">
<title>57</title>
<ellipse fill="#b9d3ee" stroke="black" cx="1040.9" cy="-34" rx="16.8" ry="18"/>
<text text-anchor="middle" x="1040.9" y="-30.3" font-family="Times,serif" font-size="14.00">1</text>
</g>
<!-- 45&#45;&gt;57 -->
<g id="edge45" class="edge">
<title>45&#45;&gt;57</title>
<path fill="none" stroke="black" d="M1104.72,-90.15C1092.11,-79.25 1074.91,-64.4 1061.55,-52.85"/>
<polygon fill="black" stroke="black" points="1063.66,-50.04 1053.8,-46.15 1059.08,-55.34 1063.66,-50.04"/>
</g>
<!-- 58 -->
<g id="node36" class="node">
<title>58</title>
<ellipse fill="#b9d3ee" stroke="black" cx="1092.9" cy="-34" rx="16.8" ry="18"/>
<text text-anchor="middle" x="1092.9" y="-30.3" font-family="Times,serif" font-size="14.00">1</text>
</g>
<!-- 45&#45;&gt;58 -->
<g id="edge46" class="edge">
<title>45&#45;&gt;58</title>
<path fill="none" stroke="black" d="M1114.88,-88.05C1111.43,-79.73 1107.21,-69.54 1103.39,-60.32"/>
<polygon fill="black" stroke="black" points="1106.52,-58.73 1099.46,-50.83 1100.05,-61.41 1106.52,-58.73"/>
</g>
<!-- 532 -->
<g id="node60" class="node">
<title>532</title>
<ellipse fill="#b9d3ee" stroke="black" cx="1150.9" cy="-34" rx="23" ry="18"/>
<text text-anchor="middle" x="1150.9" y="-30.3" font-family="Times,serif" font-size="14.00">11</text>
</g>
<!-- 45&#45;&gt;532 -->
<g id="edge70" class="edge">
<title>45&#45;&gt;532</title>
<path fill="none" stroke="black" d="M1128.92,-88.05C1132.32,-79.85 1136.47,-69.83 1140.25,-60.71"/>
<polygon fill="black" stroke="black" points="1143.55,-61.89 1144.14,-51.31 1137.08,-59.21 1143.55,-61.89"/>
</g>
<!-- 538 -->
<g id="node66" class="node">
<title>538</title>
<ellipse fill="#b9d3ee" stroke="black" cx="1213.9" cy="-34" rx="23" ry="18"/>
<text text-anchor="middle" x="1213.9" y="-30.3" font-family="Times,serif" font-size="14.00">25</text>
</g>
<!-- 45&#45;&gt;538 -->
<g id="edge76" class="edge">
<title>45&#45;&gt;538</title>
<path fill="none" stroke="black" d="M1140.96,-90.5C1155.17,-79.68 1174.68,-64.84 1189.94,-53.23"/>
<polygon fill="black" stroke="black" points="1192.09,-55.99 1197.93,-47.15 1187.85,-50.42 1192.09,-55.99"/>
</g>
<!-- 543 -->
<g id="node71" class="node">
<title>543</title>
<ellipse fill="#b9d3ee" stroke="black" cx="1282.9" cy="-34" rx="28.7" ry="18"/>
<text text-anchor="middle" x="1282.9" y="-30.3" font-family="Times,serif" font-size="14.00">120</text>
</g>
<!-- 45&#45;&gt;543 -->
<g id="edge81" class="edge">
<title>45&#45;&gt;543</title>
<path fill="none" stroke="black" d="M1148.6,-93.83C1173.77,-83.25 1212.51,-66.8 1245.9,-52 1247.69,-51.2 1249.53,-50.38 1251.39,-49.55"/>
<polygon fill="black" stroke="black" points="1252.98,-52.67 1260.64,-45.34 1250.09,-46.29 1252.98,-52.67"/>
</g>
<!-- 545 -->
<g id="node73" class="node">
<title>545</title>
<ellipse fill="#b9d3ee" stroke="black" cx="969.9" cy="-34" rx="36" ry="18"/>
<text text-anchor="middle" x="969.9" y="-30.3" font-family="Times,serif" font-size="14.00">233</text>
</g>
<!-- 45&#45;&gt;545 -->
<g id="edge83" class="edge">
<title>45&#45;&gt;545</title>
<path fill="none" stroke="black" d="M1096.11,-93.13C1071.04,-81.58 1032.75,-63.95 1004.92,-51.13"/>
<polygon fill="black" stroke="black" points="1006.1,-47.82 995.56,-46.82 1003.17,-54.18 1006.1,-47.82"/>
</g>
<!-- 50 -->
<g id="node28" class="node">
<title>50</title>
<ellipse fill="#b9d3ee" stroke="black" cx="898.9" cy="-34" rx="16.8" ry="18"/>
<text text-anchor="middle" x="898.9" y="-30.3" font-family="Times,serif" font-size="14.00">1</text>
</g>
<!-- 46&#45;&gt;50 -->
<g id="edge38" class="edge">
<title>46&#45;&gt;50</title>
<path fill="none" stroke="black" d="M687.22,-100.46C731.52,-93.77 810.32,-79.03 872.9,-52 874.1,-51.48 875.3,-50.91 876.5,-50.3"/>
<polygon fill="black" stroke="black" points="878.51,-53.18 885.36,-45.1 874.97,-47.14 878.51,-53.18"/>
</g>
<!-- 51 -->
<g id="node29" class="node">
<title>51</title>
<ellipse fill="#b9d3ee" stroke="black" cx="340.9" cy="-34" rx="16.8" ry="18"/>
<text text-anchor="middle" x="340.9" y="-30.3" font-family="Times,serif" font-size="14.00">1</text>
</g>
<!-- 46&#45;&gt;51 -->
<g id="edge39" class="edge">
<title>46&#45;&gt;51</title>
<path fill="none" stroke="black" d="M617.32,-102.91C561.97,-98.69 452.68,-86.38 366.9,-52 365.69,-51.51 364.47,-50.97 363.27,-50.38"/>
<polygon fill="black" stroke="black" points="364.78,-47.21 354.37,-45.25 361.29,-53.28 364.78,-47.21"/>
</g>
<!-- 53 -->
<g id="node31" class="node">
<title>53</title>
<ellipse fill="#b9d3ee" stroke="black" cx="392.9" cy="-34" rx="16.8" ry="18"/>
<text text-anchor="middle" x="392.9" y="-30.3" font-family="Times,serif" font-size="14.00">1</text>
</g>
<!-- 46&#45;&gt;53 -->
<g id="edge41" class="edge">
<title>46&#45;&gt;53</title>
<path fill="none" stroke="black" d="M618,-101.04C571.2,-94.85 486.2,-80.53 418.9,-52 417.7,-51.49 416.49,-50.93 415.29,-50.32"/>
<polygon fill="black" stroke="black" points="416.82,-47.16 406.42,-45.14 413.29,-53.2 416.82,-47.16"/>
</g>
<!-- 54 -->
<g id="node32" class="node">
<title>54</title>
<ellipse fill="#b9d3ee" stroke="black" cx="444.9" cy="-34" rx="16.8" ry="18"/>
<text text-anchor="middle" x="444.9" y="-30.3" font-family="Times,serif" font-size="14.00">1</text>
</g>
<!-- 46&#45;&gt;54 -->
<g id="edge42" class="edge">
<title>46&#45;&gt;54</title>
<path fill="none" stroke="black" d="M619.97,-98.49C582.69,-90.43 520.68,-74.9 470.9,-52 469.71,-51.45 468.52,-50.86 467.33,-50.23"/>
<polygon fill="black" stroke="black" points="468.88,-47.08 458.49,-44.97 465.29,-53.09 468.88,-47.08"/>
</g>
<!-- 510 -->
<g id="node38" class="node">
<title>510</title>
<ellipse fill="#b9d3ee" stroke="black" cx="496.9" cy="-34" rx="16.8" ry="18"/>
<text text-anchor="middle" x="496.9" y="-30.3" font-family="Times,serif" font-size="14.00">1</text>
</g>
<!-- 46&#45;&gt;510 -->
<g id="edge48" class="edge">
<title>46&#45;&gt;510</title>
<path fill="none" stroke="black" d="M624.04,-95.05C597.22,-85.38 556.46,-69.61 522.9,-52 521.74,-51.39 520.57,-50.75 519.4,-50.08"/>
<polygon fill="black" stroke="black" points="520.98,-46.95 510.63,-44.68 517.31,-52.91 520.98,-46.95"/>
</g>
<!-- 511 -->
<g id="node39" class="node">
<title>511</title>
<ellipse fill="#b9d3ee" stroke="black" cx="548.9" cy="-34" rx="16.8" ry="18"/>
<text text-anchor="middle" x="548.9" y="-30.3" font-family="Times,serif" font-size="14.00">1</text>
</g>
<!-- 46&#45;&gt;511 -->
<g id="edge49" class="edge">
<title>46&#45;&gt;511</title>
<path fill="none" stroke="black" d="M632.35,-91.17C614.81,-79.36 589.62,-62.41 571.51,-50.22"/>
<polygon fill="black" stroke="black" points="573.01,-47.01 562.76,-44.33 569.1,-52.82 573.01,-47.01"/>
</g>
<!-- 517 -->
<g id="node45" class="node">
<title>517</title>
<ellipse fill="#b9d3ee" stroke="black" cx="600.9" cy="-34" rx="16.8" ry="18"/>
<text text-anchor="middle" x="600.9" y="-30.3" font-family="Times,serif" font-size="14.00">2</text>
</g>
<!-- 46&#45;&gt;517 -->
<g id="edge55" class="edge">
<title>46&#45;&gt;517</title>
<path fill="none" stroke="black" d="M640.84,-88.76C633.81,-79.3 624.84,-67.23 617.19,-56.93"/>
<polygon fill="black" stroke="black" points="619.91,-54.73 611.14,-48.79 614.29,-58.9 619.91,-54.73"/>
</g>
<!-- 518 -->
<g id="node46" class="node">
<title>518</title>
<ellipse fill="#b9d3ee" stroke="black" cx="652.9" cy="-34" rx="16.8" ry="18"/>
<text text-anchor="middle" x="652.9" y="-30.3" font-family="Times,serif" font-size="14.00">2</text>
</g>
<!-- 46&#45;&gt;518 -->
<g id="edge56" class="edge">
<title>46&#45;&gt;518</title>
<path fill="none" stroke="black" d="M652.9,-87.7C652.9,-79.98 652.9,-70.71 652.9,-62.11"/>
<polygon fill="black" stroke="black" points="656.4,-62.1 652.9,-52.1 649.4,-62.1 656.4,-62.1"/>
</g>
<!-- 527 -->
<g id="node55" class="node">
<title>527</title>
<ellipse fill="#b9d3ee" stroke="black" cx="704.9" cy="-34" rx="16.8" ry="18"/>
<text text-anchor="middle" x="704.9" y="-30.3" font-family="Times,serif" font-size="14.00">6</text>
</g>
<!-- 46&#45;&gt;527 -->
<g id="edge65" class="edge">
<title>46&#45;&gt;527</title>
<path fill="none" stroke="black" d="M664.96,-88.76C671.99,-79.3 680.95,-67.23 688.61,-56.93"/>
<polygon fill="black" stroke="black" points="691.5,-58.9 694.66,-48.79 685.88,-54.73 691.5,-58.9"/>
</g>
<!-- 529 -->
<g id="node57" class="node">
<title>529</title>
<ellipse fill="#b9d3ee" stroke="black" cx="756.9" cy="-34" rx="16.8" ry="18"/>
<text text-anchor="middle" x="756.9" y="-30.3" font-family="Times,serif" font-size="14.00">7</text>
</g>
<!-- 46&#45;&gt;529 -->
<g id="edge67" class="edge">
<title>46&#45;&gt;529</title>
<path fill="none" stroke="black" d="M673.45,-91.17C690.99,-79.36 716.18,-62.41 734.29,-50.22"/>
<polygon fill="black" stroke="black" points="736.7,-52.82 743.04,-44.33 732.79,-47.01 736.7,-52.82"/>
</g>
<!-- 547 -->
<g id="node75" class="node">
<title>547</title>
<ellipse fill="#b9d3ee" stroke="black" cx="827.9" cy="-34" rx="36" ry="18"/>
<text text-anchor="middle" x="827.9" y="-30.3" font-family="Times,serif" font-size="14.00">364</text>
</g>
<!-- 46&#45;&gt;547 -->
<g id="edge85" class="edge">
<title>46&#45;&gt;547</title>
<path fill="none" stroke="black" d="M680.24,-94.06C710.17,-82.09 758.28,-62.85 791.41,-49.6"/>
<polygon fill="black" stroke="black" points="792.76,-52.82 800.75,-45.86 790.16,-46.32 792.76,-52.82"/>
</g>
<!-- 59 -->
<g id="node37" class="node">
<title>59</title>
<ellipse fill="#b9d3ee" stroke="black" cx="1982.9" cy="-34" rx="16.8" ry="18"/>
<text text-anchor="middle" x="1982.9" y="-30.3" font-family="Times,serif" font-size="14.00">1</text>
</g>
<!-- 47&#45;&gt;59 -->
<g id="edge47" class="edge">
<title>47&#45;&gt;59</title>
<path fill="none" stroke="black" d="M2022.84,-88.76C2015.81,-79.3 2006.84,-67.23 1999.19,-56.93"/>
<polygon fill="black" stroke="black" points="2001.91,-54.73 1993.14,-48.79 1996.29,-58.9 2001.91,-54.73"/>
</g>
<!-- 514 -->
<g id="node42" class="node">
<title>514</title>
<ellipse fill="#b9d3ee" stroke="black" cx="2034.9" cy="-34" rx="16.8" ry="18"/>
<text text-anchor="middle" x="2034.9" y="-30.3" font-family="Times,serif" font-size="14.00">1</text>
</g>
<!-- 47&#45;&gt;514 -->
<g id="edge52" class="edge">
<title>47&#45;&gt;514</title>
<path fill="none" stroke="black" d="M2034.9,-87.7C2034.9,-79.98 2034.9,-70.71 2034.9,-62.11"/>
<polygon fill="black" stroke="black" points="2038.4,-62.1 2034.9,-52.1 2031.4,-62.1 2038.4,-62.1"/>
</g>
<!-- 525 -->
<g id="node53" class="node">
<title>525</title>
<ellipse fill="#b9d3ee" stroke="black" cx="2086.9" cy="-34" rx="16.8" ry="18"/>
<text text-anchor="middle" x="2086.9" y="-30.3" font-family="Times,serif" font-size="14.00">5</text>
</g>
<!-- 47&#45;&gt;525 -->
<g id="edge63" class="edge">
<title>47&#45;&gt;525</title>
<path fill="none" stroke="black" d="M2046.96,-88.76C2053.99,-79.3 2062.95,-67.23 2070.61,-56.93"/>
<polygon fill="black" stroke="black" points="2073.5,-58.9 2076.66,-48.79 2067.88,-54.73 2073.5,-58.9"/>
</g>
<!-- 526 -->
<g id="node54" class="node">
<title>526</title>
<ellipse fill="#b9d3ee" stroke="black" cx="2138.9" cy="-34" rx="16.8" ry="18"/>
<text text-anchor="middle" x="2138.9" y="-30.3" font-family="Times,serif" font-size="14.00">5</text>
</g>
<!-- 47&#45;&gt;526 -->
<g id="edge64" class="edge">
<title>47&#45;&gt;526</title>
<path fill="none" stroke="black" d="M2055.45,-91.17C2072.99,-79.36 2098.18,-62.41 2116.29,-50.22"/>
<polygon fill="black" stroke="black" points="2118.7,-52.82 2125.04,-44.33 2114.79,-47.01 2118.7,-52.82"/>
</g>
<!-- 534 -->
<g id="node62" class="node">
<title>534</title>
<ellipse fill="#b9d3ee" stroke="black" cx="2196.9" cy="-34" rx="23" ry="18"/>
<text text-anchor="middle" x="2196.9" y="-30.3" font-family="Times,serif" font-size="14.00">14</text>
</g>
<!-- 47&#45;&gt;534 -->
<g id="edge72" class="edge">
<title>47&#45;&gt;534</title>
<path fill="none" stroke="black" d="M2062.89,-94.53C2089.46,-84.38 2130.35,-68.17 2164.9,-52 2166.47,-51.27 2168.06,-50.49 2169.67,-49.7"/>
<polygon fill="black" stroke="black" points="2171.48,-52.71 2178.78,-45.03 2168.29,-46.48 2171.48,-52.71"/>
</g>
<!-- 548 -->
<g id="node76" class="node">
<title>548</title>
<ellipse fill="#b9d3ee" stroke="black" cx="1911.9" cy="-34" rx="36" ry="18"/>
<text text-anchor="middle" x="1911.9" y="-30.3" font-family="Times,serif" font-size="14.00">375</text>
</g>
<!-- 47&#45;&gt;548 -->
<g id="edge86" class="edge">
<title>47&#45;&gt;548</title>
<path fill="none" stroke="black" d="M2012.05,-92C1992.84,-81.07 1965.17,-65.32 1943.78,-53.14"/>
<polygon fill="black" stroke="black" points="1945.46,-50.07 1935.04,-48.17 1942,-56.16 1945.46,-50.07"/>
</g>
<!-- legend_5 -->
<g id="node77" class="node">
<title>legend_5</title>
<polygon fill="#b9d3ee" stroke="black" points="3092.4,-52 2871.4,-52 2871.4,-16 3092.4,-16 3092.4,-52"/>
<text text-anchor="middle" x="2981.9" y="-30.3" font-family="Times,serif" font-size="14.00">DT=6 ST=1 Similarity=0.53</text>
</g>
<!-- legend_4&#45;&gt;legend_5 -->
<g id="edge87" class="edge">
<title>legend_4&#45;&gt;legend_5</title>
<path fill="none" stroke="black" d="M2981.9,-87.7C2981.9,-79.98 2981.9,-70.71 2981.9,-62.11"/>
<polygon fill="black" stroke="black" points="2985.4,-62.1 2981.9,-52.1 2978.4,-62.1 2985.4,-62.1"/>
</g>
</g>
</svg>
