<?xml version="1.0" encoding="UTF-8" standalone="no"?>
<!DOCTYPE svg PUBLIC "-//W3C//DTD SVG 1.1//EN"
 "http://www.w3.org/Graphics/SVG/1.1/DTD/svg11.dtd">
<!-- Generated by graphviz version 2.43.0 (0)
 -->
<!-- Title: %3 Pages: 1 -->
<svg width="2538pt" height="497pt"
 viewBox="0.00 0.00 2537.90 497.00" xmlns="http://www.w3.org/2000/svg" xmlns:xlink="http://www.w3.org/1999/xlink">
<g id="graph0" class="graph" transform="scale(1 1) rotate(0) translate(4 493)">
<title>%3</title>
<polygon fill="white" stroke="transparent" points="-4,4 -4,-493 2533.9,-493 2533.9,4 -4,4"/>
<text text-anchor="middle" x="1264.95" y="-473.8" font-family="Times,serif" font-size="14.00">ConsTree</text>
<text text-anchor="middle" x="1264.95" y="-458.8" font-family="Times,serif" font-size="14.00">Tree Quality = 1</text>
<g id="clust1" class="cluster">
<title>cluster</title>
<polygon fill="none" stroke="black" points="2285.9,-8 2285.9,-443 2521.9,-443 2521.9,-8 2285.9,-8"/>
<text text-anchor="middle" x="2403.9" y="-427.8" font-family="Times,serif" font-size="14.00">Legend</text>
</g>
<!-- 00 -->
<g id="node1" class="node">
<title>00</title>
<ellipse fill="#b9d3ee" stroke="black" cx="617.9" cy="-394" rx="144" ry="18"/>
<text text-anchor="middle" x="617.9" y="-390.3" font-family="Times,serif" font-size="14.00">1007</text>
</g>
<!-- 11 -->
<g id="node5" class="node">
<title>11</title>
<ellipse fill="#b9d3ee" stroke="black" cx="617.9" cy="-322" rx="144" ry="18"/>
<text text-anchor="middle" x="617.9" y="-318.3" font-family="Times,serif" font-size="14.00">1076</text>
</g>
<!-- 00&#45;&gt;11 -->
<g id="edge2" class="edge">
<title>00&#45;&gt;11</title>
<path fill="none" stroke="black" d="M617.9,-375.7C617.9,-367.98 617.9,-358.71 617.9,-350.11"/>
<polygon fill="black" stroke="black" points="621.4,-350.1 617.9,-340.1 614.4,-350.1 621.4,-350.1"/>
</g>
<!-- 01 -->
<g id="node2" class="node">
<title>01</title>
<ellipse fill="#b9d3ee" stroke="black" cx="923.9" cy="-394" rx="144" ry="18"/>
<text text-anchor="middle" x="923.9" y="-390.3" font-family="Times,serif" font-size="14.00">993</text>
</g>
<!-- 10 -->
<g id="node4" class="node">
<title>10</title>
<ellipse fill="#b9d3ee" stroke="black" cx="923.9" cy="-322" rx="144" ry="18"/>
<text text-anchor="middle" x="923.9" y="-318.3" font-family="Times,serif" font-size="14.00">924</text>
</g>
<!-- 01&#45;&gt;10 -->
<g id="edge1" class="edge">
<title>01&#45;&gt;10</title>
<path fill="none" stroke="black" d="M923.9,-375.7C923.9,-367.98 923.9,-358.71 923.9,-350.11"/>
<polygon fill="black" stroke="black" points="927.4,-350.1 923.9,-340.1 920.4,-350.1 927.4,-350.1"/>
</g>
<!-- 01&#45;&gt;11 -->
<g id="edge3" class="edge">
<title>01&#45;&gt;11</title>
<path fill="none" stroke="black" d="M857.88,-377.9C809.62,-366.86 744.07,-351.86 693.67,-340.33"/>
<polygon fill="black" stroke="black" points="694.33,-336.89 683.8,-338.08 692.77,-343.72 694.33,-336.89"/>
</g>
<!-- legend_0 -->
<g id="node3" class="node">
<title>legend_0</title>
<polygon fill="#b9d3ee" stroke="black" points="2514.4,-412 2293.4,-412 2293.4,-376 2514.4,-376 2514.4,-412"/>
<text text-anchor="middle" x="2403.9" y="-390.3" font-family="Times,serif" font-size="14.00">DT=1 ST=1 Similarity=0.49</text>
</g>
<!-- legend_1 -->
<g id="node6" class="node">
<title>legend_1</title>
<polygon fill="#b9d3ee" stroke="black" points="2514.4,-340 2293.4,-340 2293.4,-304 2514.4,-304 2514.4,-340"/>
<text text-anchor="middle" x="2403.9" y="-318.3" font-family="Times,serif" font-size="14.00">DT=2 ST=1 Similarity=0.49</text>
</g>
<!-- legend_0&#45;&gt;legend_1 -->
<g id="edge4" class="edge">
<title>legend_0&#45;&gt;legend_1</title>
<path fill="none" stroke="black" d="M2403.9,-375.7C2403.9,-367.98 2403.9,-358.71 2403.9,-350.11"/>
<polygon fill="black" stroke="black" points="2407.4,-350.1 2403.9,-340.1 2400.4,-350.1 2407.4,-350.1"/>
</g>
<!-- 21 -->
<g id="node8" class="node">
<title>21</title>
<ellipse fill="#b9d3ee" stroke="black" cx="689.9" cy="-250" rx="36" ry="18"/>
<text text-anchor="middle" x="689.9" y="-246.3" font-family="Times,serif" font-size="14.00">398</text>
</g>
<!-- 10&#45;&gt;21 -->
<g id="edge6" class="edge">
<title>10&#45;&gt;21</title>
<path fill="none" stroke="black" d="M871.09,-305.2C828.28,-292.4 768.85,-274.62 729.91,-262.97"/>
<polygon fill="black" stroke="black" points="730.56,-259.51 719.98,-260 728.56,-266.22 730.56,-259.51"/>
</g>
<!-- 22 -->
<g id="node9" class="node">
<title>22</title>
<ellipse fill="#b9d3ee" stroke="black" cx="923.9" cy="-250" rx="36" ry="18"/>
<text text-anchor="middle" x="923.9" y="-246.3" font-family="Times,serif" font-size="14.00">405</text>
</g>
<!-- 10&#45;&gt;22 -->
<g id="edge8" class="edge">
<title>10&#45;&gt;22</title>
<path fill="none" stroke="black" d="M923.9,-303.7C923.9,-295.98 923.9,-286.71 923.9,-278.11"/>
<polygon fill="black" stroke="black" points="927.4,-278.1 923.9,-268.1 920.4,-278.1 927.4,-278.1"/>
</g>
<!-- 23 -->
<g id="node10" class="node">
<title>23</title>
<ellipse fill="#b9d3ee" stroke="black" cx="815.9" cy="-250" rx="36" ry="18"/>
<text text-anchor="middle" x="815.9" y="-246.3" font-family="Times,serif" font-size="14.00">427</text>
</g>
<!-- 10&#45;&gt;23 -->
<g id="edge9" class="edge">
<title>10&#45;&gt;23</title>
<path fill="none" stroke="black" d="M898.03,-304.23C882.34,-294.06 862.25,-281.04 845.87,-270.43"/>
<polygon fill="black" stroke="black" points="847.5,-267.31 837.2,-264.81 843.69,-273.18 847.5,-267.31"/>
</g>
<!-- 24 -->
<g id="node11" class="node">
<title>24</title>
<ellipse fill="#b9d3ee" stroke="black" cx="1022.9" cy="-250" rx="36" ry="18"/>
<text text-anchor="middle" x="1022.9" y="-246.3" font-family="Times,serif" font-size="14.00">391</text>
</g>
<!-- 10&#45;&gt;24 -->
<g id="edge11" class="edge">
<title>10&#45;&gt;24</title>
<path fill="none" stroke="black" d="M947.61,-304.23C961.77,-294.23 979.82,-281.46 994.7,-270.93"/>
<polygon fill="black" stroke="black" points="996.9,-273.67 1003.05,-265.04 992.86,-267.95 996.9,-273.67"/>
</g>
<!-- 20 -->
<g id="node7" class="node">
<title>20</title>
<ellipse fill="#b9d3ee" stroke="black" cx="551.9" cy="-250" rx="36" ry="18"/>
<text text-anchor="middle" x="551.9" y="-246.3" font-family="Times,serif" font-size="14.00">379</text>
</g>
<!-- 11&#45;&gt;20 -->
<g id="edge5" class="edge">
<title>11&#45;&gt;20</title>
<path fill="none" stroke="black" d="M601.92,-304.05C593.49,-295.12 583.02,-284.01 573.84,-274.28"/>
<polygon fill="black" stroke="black" points="576.23,-271.7 566.82,-266.83 571.14,-276.51 576.23,-271.7"/>
</g>
<!-- 11&#45;&gt;21 -->
<g id="edge7" class="edge">
<title>11&#45;&gt;21</title>
<path fill="none" stroke="black" d="M635.33,-304.05C644.75,-294.9 656.5,-283.47 666.69,-273.57"/>
<polygon fill="black" stroke="black" points="669.37,-275.84 674.1,-266.36 664.49,-270.82 669.37,-275.84"/>
</g>
<!-- 11&#45;&gt;23 -->
<g id="edge10" class="edge">
<title>11&#45;&gt;23</title>
<path fill="none" stroke="black" d="M663.82,-304.76C698.4,-292.54 745.25,-275.98 777.77,-264.48"/>
<polygon fill="black" stroke="black" points="779.11,-267.72 787.37,-261.09 776.78,-261.12 779.11,-267.72"/>
</g>
<!-- legend_2 -->
<g id="node12" class="node">
<title>legend_2</title>
<polygon fill="#b9d3ee" stroke="black" points="2514.4,-268 2293.4,-268 2293.4,-232 2514.4,-232 2514.4,-268"/>
<text text-anchor="middle" x="2403.9" y="-246.3" font-family="Times,serif" font-size="14.00">DT=3 ST=1 Similarity=0.68</text>
</g>
<!-- legend_1&#45;&gt;legend_2 -->
<g id="edge12" class="edge">
<title>legend_1&#45;&gt;legend_2</title>
<path fill="none" stroke="black" d="M2403.9,-303.7C2403.9,-295.98 2403.9,-286.71 2403.9,-278.11"/>
<polygon fill="black" stroke="black" points="2407.4,-278.1 2403.9,-268.1 2400.4,-278.1 2407.4,-278.1"/>
</g>
<!-- 30 -->
<g id="node13" class="node">
<title>30</title>
<polygon fill="darkseagreen" stroke="black" points="405.9,-196 333.9,-196 333.9,-160 405.9,-160 405.9,-196"/>
<text text-anchor="middle" x="369.9" y="-174.3" font-family="Times,serif" font-size="14.00">399</text>
</g>
<!-- 20&#45;&gt;30 -->
<g id="edge13" class="edge">
<title>20&#45;&gt;30</title>
<path fill="none" stroke="black" d="M524.26,-238.37C495.48,-227.3 449.91,-209.77 415.73,-196.63"/>
<polygon fill="black" stroke="black" points="416.56,-193.2 405.97,-192.87 414.05,-199.73 416.56,-193.2"/>
</g>
<!-- 32 -->
<g id="node15" class="node">
<title>32</title>
<polygon fill="darkseagreen" stroke="black" points="587.9,-196 515.9,-196 515.9,-160 587.9,-160 587.9,-196"/>
<text text-anchor="middle" x="551.9" y="-174.3" font-family="Times,serif" font-size="14.00">409</text>
</g>
<!-- 20&#45;&gt;32 -->
<g id="edge17" class="edge">
<title>20&#45;&gt;32</title>
<path fill="none" stroke="black" d="M551.9,-231.7C551.9,-223.98 551.9,-214.71 551.9,-206.11"/>
<polygon fill="black" stroke="black" points="555.4,-206.1 551.9,-196.1 548.4,-206.1 555.4,-206.1"/>
</g>
<!-- 21&#45;&gt;30 -->
<g id="edge14" class="edge">
<title>21&#45;&gt;30</title>
<path fill="none" stroke="black" d="M657.45,-241.9C600.44,-229.43 482.12,-203.55 416.41,-189.17"/>
<polygon fill="black" stroke="black" points="416.85,-185.69 406.34,-186.97 415.36,-192.53 416.85,-185.69"/>
</g>
<!-- 33 -->
<g id="node16" class="node">
<title>33</title>
<polygon fill="darkseagreen" stroke="black" points="896.9,-196 824.9,-196 824.9,-160 896.9,-160 896.9,-196"/>
<text text-anchor="middle" x="860.9" y="-174.3" font-family="Times,serif" font-size="14.00">398</text>
</g>
<!-- 21&#45;&gt;33 -->
<g id="edge19" class="edge">
<title>21&#45;&gt;33</title>
<path fill="none" stroke="black" d="M716.99,-237.91C743.37,-227.11 783.94,-210.5 815.29,-197.67"/>
<polygon fill="black" stroke="black" points="816.77,-200.85 824.7,-193.82 814.11,-194.37 816.77,-200.85"/>
</g>
<!-- 31 -->
<g id="node14" class="node">
<title>31</title>
<polygon fill="darkseagreen" stroke="black" points="1673.9,-196 1601.9,-196 1601.9,-160 1673.9,-160 1673.9,-196"/>
<text text-anchor="middle" x="1637.9" y="-174.3" font-family="Times,serif" font-size="14.00">398</text>
</g>
<!-- 22&#45;&gt;31 -->
<g id="edge15" class="edge">
<title>22&#45;&gt;31</title>
<path fill="none" stroke="black" d="M952.17,-238.78C960.38,-236.18 969.41,-233.66 977.9,-232 1205.02,-187.72 1483.03,-180.31 1591.48,-179.16"/>
<polygon fill="black" stroke="black" points="1591.77,-182.66 1601.74,-179.07 1591.71,-175.66 1591.77,-182.66"/>
</g>
<!-- 22&#45;&gt;33 -->
<g id="edge20" class="edge">
<title>22&#45;&gt;33</title>
<path fill="none" stroke="black" d="M909.6,-233.12C901.81,-224.46 891.99,-213.55 883.22,-203.8"/>
<polygon fill="black" stroke="black" points="885.75,-201.38 876.46,-196.29 880.55,-206.07 885.75,-201.38"/>
</g>
<!-- 23&#45;&gt;32 -->
<g id="edge18" class="edge">
<title>23&#45;&gt;32</title>
<path fill="none" stroke="black" d="M784.84,-240.76C738.74,-228.54 651.9,-205.52 598.26,-191.29"/>
<polygon fill="black" stroke="black" points="598.89,-187.84 588.33,-188.66 597.09,-194.6 598.89,-187.84"/>
</g>
<!-- 34 -->
<g id="node17" class="node">
<title>34</title>
<polygon fill="darkseagreen" stroke="black" points="1058.9,-196 986.9,-196 986.9,-160 1058.9,-160 1058.9,-196"/>
<text text-anchor="middle" x="1022.9" y="-174.3" font-family="Times,serif" font-size="14.00">396</text>
</g>
<!-- 23&#45;&gt;34 -->
<g id="edge21" class="edge">
<title>23&#45;&gt;34</title>
<path fill="none" stroke="black" d="M845.12,-239.12C879.5,-227.49 937.01,-208.04 977.29,-194.42"/>
<polygon fill="black" stroke="black" points="978.52,-197.7 986.87,-191.18 976.28,-191.07 978.52,-197.7"/>
</g>
<!-- 24&#45;&gt;31 -->
<g id="edge16" class="edge">
<title>24&#45;&gt;31</title>
<path fill="none" stroke="black" d="M1057.73,-245.04C1162.18,-233.15 1472.92,-197.78 1591.35,-184.3"/>
<polygon fill="black" stroke="black" points="1591.99,-187.75 1601.53,-183.14 1591.2,-180.79 1591.99,-187.75"/>
</g>
<!-- 24&#45;&gt;34 -->
<g id="edge22" class="edge">
<title>24&#45;&gt;34</title>
<path fill="none" stroke="black" d="M1022.9,-231.7C1022.9,-223.98 1022.9,-214.71 1022.9,-206.11"/>
<polygon fill="black" stroke="black" points="1026.4,-206.1 1022.9,-196.1 1019.4,-206.1 1026.4,-206.1"/>
</g>
<!-- legend_3 -->
<g id="node18" class="node">
<title>legend_3</title>
<polygon fill="darkseagreen" stroke="black" points="2514.4,-196 2293.4,-196 2293.4,-160 2514.4,-160 2514.4,-196"/>
<text text-anchor="middle" x="2403.9" y="-174.3" font-family="Times,serif" font-size="14.00">DT=4 ST=1 Similarity=0.71</text>
</g>
<!-- legend_2&#45;&gt;legend_3 -->
<g id="edge23" class="edge">
<title>legend_2&#45;&gt;legend_3</title>
<path fill="none" stroke="black" d="M2403.9,-231.7C2403.9,-223.98 2403.9,-214.71 2403.9,-206.11"/>
<polygon fill="black" stroke="black" points="2407.4,-206.1 2403.9,-196.1 2400.4,-206.1 2407.4,-206.1"/>
</g>
<!-- 40 -->
<g id="node19" class="node">
<title>40</title>
<ellipse fill="#b9d3ee" stroke="black" cx="207.9" cy="-106" rx="16.8" ry="18"/>
<text text-anchor="middle" x="207.9" y="-102.3" font-family="Times,serif" font-size="14.00">1</text>
</g>
<!-- 30&#45;&gt;40 -->
<g id="edge24" class="edge">
<title>30&#45;&gt;40</title>
<path fill="none" stroke="black" d="M333.54,-161.29C302.94,-148.07 259.96,-129.5 233.04,-117.86"/>
<polygon fill="black" stroke="black" points="234.13,-114.52 223.57,-113.77 231.36,-120.95 234.13,-114.52"/>
</g>
<!-- 44 -->
<g id="node23" class="node">
<title>44</title>
<ellipse fill="#b9d3ee" stroke="black" cx="797.9" cy="-106" rx="23" ry="18"/>
<text text-anchor="middle" x="797.9" y="-102.3" font-family="Times,serif" font-size="14.00">40</text>
</g>
<!-- 30&#45;&gt;44 -->
<g id="edge29" class="edge">
<title>30&#45;&gt;44</title>
<path fill="none" stroke="black" d="M406.02,-171.09C488.02,-157.68 687.16,-125.11 765.48,-112.3"/>
<polygon fill="black" stroke="black" points="766.41,-115.7 775.71,-110.63 765.28,-108.79 766.41,-115.7"/>
</g>
<!-- 48 -->
<g id="node27" class="node">
<title>48</title>
<ellipse fill="#b9d3ee" stroke="black" cx="314.9" cy="-106" rx="23" ry="18"/>
<text text-anchor="middle" x="314.9" y="-102.3" font-family="Times,serif" font-size="14.00">18</text>
</g>
<!-- 30&#45;&gt;48 -->
<g id="edge35" class="edge">
<title>30&#45;&gt;48</title>
<path fill="none" stroke="black" d="M356.3,-159.7C349.22,-150.68 340.46,-139.53 332.83,-129.82"/>
<polygon fill="black" stroke="black" points="335.41,-127.44 326.48,-121.74 329.9,-131.76 335.41,-127.44"/>
</g>
<!-- 49 -->
<g id="node28" class="node">
<title>49</title>
<ellipse fill="#b9d3ee" stroke="black" cx="87.9" cy="-106" rx="36" ry="18"/>
<text text-anchor="middle" x="87.9" y="-102.3" font-family="Times,serif" font-size="14.00">351</text>
</g>
<!-- 30&#45;&gt;49 -->
<g id="edge37" class="edge">
<title>30&#45;&gt;49</title>
<path fill="none" stroke="black" d="M333.9,-168.06C281.48,-155.05 184.39,-130.95 129.16,-117.24"/>
<polygon fill="black" stroke="black" points="129.9,-113.82 119.35,-114.81 128.21,-120.61 129.9,-113.82"/>
</g>
<!-- 41 -->
<g id="node20" class="node">
<title>41</title>
<ellipse fill="#b9d3ee" stroke="black" cx="1882.9" cy="-106" rx="16.8" ry="18"/>
<text text-anchor="middle" x="1882.9" y="-102.3" font-family="Times,serif" font-size="14.00">4</text>
</g>
<!-- 31&#45;&gt;41 -->
<g id="edge25" class="edge">
<title>31&#45;&gt;41</title>
<path fill="none" stroke="black" d="M1674.05,-166.67C1724.08,-152.38 1813.21,-126.91 1857.07,-114.38"/>
<polygon fill="black" stroke="black" points="1858.05,-117.74 1866.7,-111.63 1856.12,-111.01 1858.05,-117.74"/>
</g>
<!-- 42 -->
<g id="node21" class="node">
<title>42</title>
<ellipse fill="#b9d3ee" stroke="black" cx="2128.9" cy="-106" rx="36" ry="18"/>
<text text-anchor="middle" x="2128.9" y="-102.3" font-family="Times,serif" font-size="14.00">390</text>
</g>
<!-- 31&#45;&gt;42 -->
<g id="edge26" class="edge">
<title>31&#45;&gt;42</title>
<path fill="none" stroke="black" d="M1674,-171.85C1762.25,-159.27 1988.68,-126.99 2084.74,-113.3"/>
<polygon fill="black" stroke="black" points="2085.31,-116.75 2094.71,-111.87 2084.32,-109.82 2085.31,-116.75"/>
</g>
<!-- 43 -->
<g id="node22" class="node">
<title>43</title>
<ellipse fill="#b9d3ee" stroke="black" cx="1637.9" cy="-106" rx="28.7" ry="18"/>
<text text-anchor="middle" x="1637.9" y="-102.3" font-family="Times,serif" font-size="14.00">181</text>
</g>
<!-- 31&#45;&gt;43 -->
<g id="edge27" class="edge">
<title>31&#45;&gt;43</title>
<path fill="none" stroke="black" d="M1637.9,-159.7C1637.9,-151.98 1637.9,-142.71 1637.9,-134.11"/>
<polygon fill="black" stroke="black" points="1641.4,-134.1 1637.9,-124.1 1634.4,-134.1 1641.4,-134.1"/>
</g>
<!-- 45 -->
<g id="node24" class="node">
<title>45</title>
<ellipse fill="#b9d3ee" stroke="black" cx="515.9" cy="-106" rx="36" ry="18"/>
<text text-anchor="middle" x="515.9" y="-102.3" font-family="Times,serif" font-size="14.00">389</text>
</g>
<!-- 32&#45;&gt;45 -->
<g id="edge31" class="edge">
<title>32&#45;&gt;45</title>
<path fill="none" stroke="black" d="M543,-159.7C538.8,-151.52 533.69,-141.6 529.06,-132.58"/>
<polygon fill="black" stroke="black" points="532.13,-130.91 524.45,-123.62 525.91,-134.12 532.13,-130.91"/>
</g>
<!-- 47 -->
<g id="node26" class="node">
<title>47</title>
<ellipse fill="#b9d3ee" stroke="black" cx="1022.9" cy="-106" rx="36" ry="18"/>
<text text-anchor="middle" x="1022.9" y="-102.3" font-family="Times,serif" font-size="14.00">229</text>
</g>
<!-- 32&#45;&gt;47 -->
<g id="edge33" class="edge">
<title>32&#45;&gt;47</title>
<path fill="none" stroke="black" d="M588.08,-171.62C673.22,-158.97 886.05,-127.34 978.67,-113.57"/>
<polygon fill="black" stroke="black" points="979.46,-116.99 988.83,-112.06 978.43,-110.07 979.46,-116.99"/>
</g>
<!-- 32&#45;&gt;48 -->
<g id="edge36" class="edge">
<title>32&#45;&gt;48</title>
<path fill="none" stroke="black" d="M515.65,-166.29C469.19,-152.57 389.45,-129.02 345.76,-116.11"/>
<polygon fill="black" stroke="black" points="346.56,-112.7 335.98,-113.23 344.58,-119.42 346.56,-112.7"/>
</g>
<!-- 33&#45;&gt;44 -->
<g id="edge30" class="edge">
<title>33&#45;&gt;44</title>
<path fill="none" stroke="black" d="M845.33,-159.7C836.93,-150.37 826.49,-138.76 817.54,-128.82"/>
<polygon fill="black" stroke="black" points="820.04,-126.37 810.75,-121.28 814.84,-131.05 820.04,-126.37"/>
</g>
<!-- 46 -->
<g id="node25" class="node">
<title>46</title>
<ellipse fill="#b9d3ee" stroke="black" cx="1318.9" cy="-106" rx="36" ry="18"/>
<text text-anchor="middle" x="1318.9" y="-102.3" font-family="Times,serif" font-size="14.00">397</text>
</g>
<!-- 33&#45;&gt;46 -->
<g id="edge32" class="edge">
<title>33&#45;&gt;46</title>
<path fill="none" stroke="black" d="M897.22,-171.45C980.46,-158.73 1184.75,-127.5 1274.92,-113.72"/>
<polygon fill="black" stroke="black" points="1275.72,-117.14 1285.07,-112.17 1274.66,-110.22 1275.72,-117.14"/>
</g>
<!-- 34&#45;&gt;43 -->
<g id="edge28" class="edge">
<title>34&#45;&gt;43</title>
<path fill="none" stroke="black" d="M1059.07,-172.88C1167.45,-160.55 1488.84,-123.97 1599.75,-111.34"/>
<polygon fill="black" stroke="black" points="1600.28,-114.8 1609.82,-110.2 1599.49,-107.85 1600.28,-114.8"/>
</g>
<!-- 34&#45;&gt;47 -->
<g id="edge34" class="edge">
<title>34&#45;&gt;47</title>
<path fill="none" stroke="black" d="M1022.9,-159.7C1022.9,-151.98 1022.9,-142.71 1022.9,-134.11"/>
<polygon fill="black" stroke="black" points="1026.4,-134.1 1022.9,-124.1 1019.4,-134.1 1026.4,-134.1"/>
</g>
<!-- legend_4 -->
<g id="node29" class="node">
<title>legend_4</title>
<polygon fill="#b9d3ee" stroke="black" points="2514.4,-124 2293.4,-124 2293.4,-88 2514.4,-88 2514.4,-124"/>
<text text-anchor="middle" x="2403.9" y="-102.3" font-family="Times,serif" font-size="14.00">DT=5 ST=1 Similarity=0.63</text>
</g>
<!-- legend_3&#45;&gt;legend_4 -->
<g id="edge38" class="edge">
<title>legend_3&#45;&gt;legend_4</title>
<path fill="none" stroke="black" d="M2403.9,-159.7C2403.9,-151.98 2403.9,-142.71 2403.9,-134.11"/>
<polygon fill="black" stroke="black" points="2407.4,-134.1 2403.9,-124.1 2400.4,-134.1 2407.4,-134.1"/>
</g>
<!-- 510 -->
<g id="node40" class="node">
<title>510</title>
<ellipse fill="#b9d3ee" stroke="black" cx="158.9" cy="-34" rx="16.8" ry="18"/>
<text text-anchor="middle" x="158.9" y="-30.3" font-family="Times,serif" font-size="14.00">1</text>
</g>
<!-- 40&#45;&gt;510 -->
<g id="edge49" class="edge">
<title>40&#45;&gt;510</title>
<path fill="none" stroke="black" d="M198.22,-91.17C191.44,-81.49 182.24,-68.34 174.44,-57.2"/>
<polygon fill="black" stroke="black" points="177.16,-54.99 168.56,-48.8 171.43,-59 177.16,-54.99"/>
</g>
<!-- 53 -->
<g id="node33" class="node">
<title>53</title>
<ellipse fill="#b9d3ee" stroke="black" cx="1856.9" cy="-34" rx="16.8" ry="18"/>
<text text-anchor="middle" x="1856.9" y="-30.3" font-family="Times,serif" font-size="14.00">1</text>
</g>
<!-- 41&#45;&gt;53 -->
<g id="edge42" class="edge">
<title>41&#45;&gt;53</title>
<path fill="none" stroke="black" d="M1877,-89.12C1873.89,-80.73 1869.99,-70.24 1866.46,-60.73"/>
<polygon fill="black" stroke="black" points="1869.72,-59.46 1862.96,-51.31 1863.16,-61.9 1869.72,-59.46"/>
</g>
<!-- 55 -->
<g id="node35" class="node">
<title>55</title>
<ellipse fill="#b9d3ee" stroke="black" cx="1908.9" cy="-34" rx="16.8" ry="18"/>
<text text-anchor="middle" x="1908.9" y="-30.3" font-family="Times,serif" font-size="14.00">1</text>
</g>
<!-- 41&#45;&gt;55 -->
<g id="edge44" class="edge">
<title>41&#45;&gt;55</title>
<path fill="none" stroke="black" d="M1888.8,-89.12C1891.91,-80.73 1895.81,-70.24 1899.34,-60.73"/>
<polygon fill="black" stroke="black" points="1902.64,-61.9 1902.84,-51.31 1896.08,-59.46 1902.64,-61.9"/>
</g>
<!-- 517 -->
<g id="node47" class="node">
<title>517</title>
<ellipse fill="#b9d3ee" stroke="black" cx="1960.9" cy="-34" rx="16.8" ry="18"/>
<text text-anchor="middle" x="1960.9" y="-30.3" font-family="Times,serif" font-size="14.00">2</text>
</g>
<!-- 41&#45;&gt;517 -->
<g id="edge56" class="edge">
<title>41&#45;&gt;517</title>
<path fill="none" stroke="black" d="M1895.43,-93.75C1907.6,-82.83 1926.27,-66.07 1940.57,-53.24"/>
<polygon fill="black" stroke="black" points="1943.29,-55.5 1948.4,-46.22 1938.62,-50.29 1943.29,-55.5"/>
</g>
<!-- 56 -->
<g id="node36" class="node">
<title>56</title>
<ellipse fill="#b9d3ee" stroke="black" cx="2102.9" cy="-34" rx="16.8" ry="18"/>
<text text-anchor="middle" x="2102.9" y="-30.3" font-family="Times,serif" font-size="14.00">1</text>
</g>
<!-- 42&#45;&gt;56 -->
<g id="edge45" class="edge">
<title>42&#45;&gt;56</title>
<path fill="none" stroke="black" d="M2122.6,-88.05C2119.56,-79.85 2115.84,-69.83 2112.45,-60.71"/>
<polygon fill="black" stroke="black" points="2115.72,-59.46 2108.96,-51.31 2109.16,-61.9 2115.72,-59.46"/>
</g>
<!-- 57 -->
<g id="node37" class="node">
<title>57</title>
<ellipse fill="#b9d3ee" stroke="black" cx="2154.9" cy="-34" rx="16.8" ry="18"/>
<text text-anchor="middle" x="2154.9" y="-30.3" font-family="Times,serif" font-size="14.00">1</text>
</g>
<!-- 42&#45;&gt;57 -->
<g id="edge46" class="edge">
<title>42&#45;&gt;57</title>
<path fill="none" stroke="black" d="M2135.19,-88.05C2138.24,-79.85 2141.96,-69.83 2145.35,-60.71"/>
<polygon fill="black" stroke="black" points="2148.64,-61.9 2148.84,-51.31 2142.08,-59.46 2148.64,-61.9"/>
</g>
<!-- 519 -->
<g id="node49" class="node">
<title>519</title>
<ellipse fill="#b9d3ee" stroke="black" cx="2206.9" cy="-34" rx="16.8" ry="18"/>
<text text-anchor="middle" x="2206.9" y="-30.3" font-family="Times,serif" font-size="14.00">2</text>
</g>
<!-- 42&#45;&gt;519 -->
<g id="edge58" class="edge">
<title>42&#45;&gt;519</title>
<path fill="none" stroke="black" d="M2145.82,-89.81C2157.73,-79.12 2173.73,-64.76 2186.37,-53.42"/>
<polygon fill="black" stroke="black" points="2189.01,-55.76 2194.11,-46.47 2184.33,-50.55 2189.01,-55.76"/>
</g>
<!-- 526 -->
<g id="node56" class="node">
<title>526</title>
<ellipse fill="#b9d3ee" stroke="black" cx="2258.9" cy="-34" rx="16.8" ry="18"/>
<text text-anchor="middle" x="2258.9" y="-30.3" font-family="Times,serif" font-size="14.00">9</text>
</g>
<!-- 42&#45;&gt;526 -->
<g id="edge65" class="edge">
<title>42&#45;&gt;526</title>
<path fill="none" stroke="black" d="M2154.1,-93.1C2175.41,-82.82 2206.6,-67.24 2232.9,-52 2234.03,-51.35 2235.17,-50.66 2236.33,-49.96"/>
<polygon fill="black" stroke="black" points="2238.46,-52.76 2245.04,-44.46 2234.72,-46.84 2238.46,-52.76"/>
</g>
<!-- 538 -->
<g id="node68" class="node">
<title>538</title>
<ellipse fill="#b9d3ee" stroke="black" cx="2031.9" cy="-34" rx="36" ry="18"/>
<text text-anchor="middle" x="2031.9" y="-30.3" font-family="Times,serif" font-size="14.00">377</text>
</g>
<!-- 42&#45;&gt;538 -->
<g id="edge77" class="edge">
<title>42&#45;&gt;538</title>
<path fill="none" stroke="black" d="M2109.27,-90.83C2095.07,-80.59 2075.68,-66.59 2059.86,-55.18"/>
<polygon fill="black" stroke="black" points="2061.66,-52.16 2051.5,-49.14 2057.56,-57.83 2061.66,-52.16"/>
</g>
<!-- 54 -->
<g id="node34" class="node">
<title>54</title>
<ellipse fill="#b9d3ee" stroke="black" cx="1700.9" cy="-34" rx="16.8" ry="18"/>
<text text-anchor="middle" x="1700.9" y="-30.3" font-family="Times,serif" font-size="14.00">1</text>
</g>
<!-- 43&#45;&gt;54 -->
<g id="edge43" class="edge">
<title>43&#45;&gt;54</title>
<path fill="none" stroke="black" d="M1651.57,-89.81C1660.65,-79.72 1672.69,-66.34 1682.6,-55.33"/>
<polygon fill="black" stroke="black" points="1685.28,-57.59 1689.37,-47.81 1680.08,-52.91 1685.28,-57.59"/>
</g>
<!-- 58 -->
<g id="node38" class="node">
<title>58</title>
<ellipse fill="#b9d3ee" stroke="black" cx="1752.9" cy="-34" rx="16.8" ry="18"/>
<text text-anchor="middle" x="1752.9" y="-30.3" font-family="Times,serif" font-size="14.00">1</text>
</g>
<!-- 43&#45;&gt;58 -->
<g id="edge47" class="edge">
<title>43&#45;&gt;58</title>
<path fill="none" stroke="black" d="M1658.19,-93.24C1676.33,-82.66 1703.56,-66.57 1726.9,-52 1728.01,-51.31 1729.13,-50.6 1730.27,-49.87"/>
<polygon fill="black" stroke="black" points="1732.43,-52.65 1738.93,-44.28 1728.63,-46.77 1732.43,-52.65"/>
</g>
<!-- 518 -->
<g id="node48" class="node">
<title>518</title>
<ellipse fill="#b9d3ee" stroke="black" cx="1804.9" cy="-34" rx="16.8" ry="18"/>
<text text-anchor="middle" x="1804.9" y="-30.3" font-family="Times,serif" font-size="14.00">2</text>
</g>
<!-- 43&#45;&gt;518 -->
<g id="edge57" class="edge">
<title>43&#45;&gt;518</title>
<path fill="none" stroke="black" d="M1663.05,-97.4C1691.81,-88.29 1739.95,-71.75 1778.9,-52 1780.06,-51.41 1781.24,-50.78 1782.41,-50.12"/>
<polygon fill="black" stroke="black" points="1784.49,-52.96 1791.2,-44.76 1780.84,-46.98 1784.49,-52.96"/>
</g>
<!-- 523 -->
<g id="node53" class="node">
<title>523</title>
<ellipse fill="#b9d3ee" stroke="black" cx="1510.9" cy="-34" rx="16.8" ry="18"/>
<text text-anchor="middle" x="1510.9" y="-30.3" font-family="Times,serif" font-size="14.00">8</text>
</g>
<!-- 43&#45;&gt;523 -->
<g id="edge62" class="edge">
<title>43&#45;&gt;523</title>
<path fill="none" stroke="black" d="M1615.9,-94.22C1595.21,-83.91 1563.53,-67.65 1536.9,-52 1535.77,-51.34 1534.63,-50.65 1533.48,-49.95"/>
<polygon fill="black" stroke="black" points="1535.1,-46.83 1524.78,-44.43 1531.34,-52.74 1535.1,-46.83"/>
</g>
<!-- 531 -->
<g id="node61" class="node">
<title>531</title>
<ellipse fill="#b9d3ee" stroke="black" cx="1568.9" cy="-34" rx="23" ry="18"/>
<text text-anchor="middle" x="1568.9" y="-30.3" font-family="Times,serif" font-size="14.00">69</text>
</g>
<!-- 43&#45;&gt;531 -->
<g id="edge70" class="edge">
<title>43&#45;&gt;531</title>
<path fill="none" stroke="black" d="M1623.27,-90.15C1613.49,-80.24 1600.5,-67.06 1589.66,-56.06"/>
<polygon fill="black" stroke="black" points="1592.08,-53.54 1582.57,-48.87 1587.1,-58.45 1592.08,-53.54"/>
</g>
<!-- 532 -->
<g id="node62" class="node">
<title>532</title>
<ellipse fill="#b9d3ee" stroke="black" cx="1637.9" cy="-34" rx="28.7" ry="18"/>
<text text-anchor="middle" x="1637.9" y="-30.3" font-family="Times,serif" font-size="14.00">100</text>
</g>
<!-- 43&#45;&gt;532 -->
<g id="edge71" class="edge">
<title>43&#45;&gt;532</title>
<path fill="none" stroke="black" d="M1637.9,-87.7C1637.9,-79.98 1637.9,-70.71 1637.9,-62.11"/>
<polygon fill="black" stroke="black" points="1641.4,-62.1 1637.9,-52.1 1634.4,-62.1 1641.4,-62.1"/>
</g>
<!-- 50 -->
<g id="node30" class="node">
<title>50</title>
<ellipse fill="#b9d3ee" stroke="black" cx="855.9" cy="-34" rx="16.8" ry="18"/>
<text text-anchor="middle" x="855.9" y="-30.3" font-family="Times,serif" font-size="14.00">1</text>
</g>
<!-- 44&#45;&gt;50 -->
<g id="edge39" class="edge">
<title>44&#45;&gt;50</title>
<path fill="none" stroke="black" d="M809.92,-90.5C818.17,-80.54 829.25,-67.17 838.46,-56.04"/>
<polygon fill="black" stroke="black" points="841.38,-58 845.07,-48.07 835.99,-53.54 841.38,-58"/>
</g>
<!-- 514 -->
<g id="node44" class="node">
<title>514</title>
<ellipse fill="#b9d3ee" stroke="black" cx="907.9" cy="-34" rx="16.8" ry="18"/>
<text text-anchor="middle" x="907.9" y="-30.3" font-family="Times,serif" font-size="14.00">2</text>
</g>
<!-- 44&#45;&gt;514 -->
<g id="edge53" class="edge">
<title>44&#45;&gt;514</title>
<path fill="none" stroke="black" d="M815.33,-94.12C832.35,-83.46 858.98,-66.72 881.9,-52 883,-51.3 884.12,-50.57 885.25,-49.84"/>
<polygon fill="black" stroke="black" points="887.42,-52.6 893.89,-44.22 883.6,-46.74 887.42,-52.6"/>
</g>
<!-- 520 -->
<g id="node50" class="node">
<title>520</title>
<ellipse fill="#b9d3ee" stroke="black" cx="676.9" cy="-34" rx="16.8" ry="18"/>
<text text-anchor="middle" x="676.9" y="-30.3" font-family="Times,serif" font-size="14.00">3</text>
</g>
<!-- 44&#45;&gt;520 -->
<g id="edge59" class="edge">
<title>44&#45;&gt;520</title>
<path fill="none" stroke="black" d="M779.47,-95.22C760.17,-84.85 729.08,-67.83 702.9,-52 701.78,-51.32 700.64,-50.63 699.5,-49.91"/>
<polygon fill="black" stroke="black" points="701.13,-46.8 690.82,-44.36 697.35,-52.7 701.13,-46.8"/>
</g>
<!-- 528 -->
<g id="node58" class="node">
<title>528</title>
<ellipse fill="#b9d3ee" stroke="black" cx="734.9" cy="-34" rx="23" ry="18"/>
<text text-anchor="middle" x="734.9" y="-30.3" font-family="Times,serif" font-size="14.00">15</text>
</g>
<!-- 44&#45;&gt;528 -->
<g id="edge67" class="edge">
<title>44&#45;&gt;528</title>
<path fill="none" stroke="black" d="M785.15,-90.83C776.35,-81.06 764.49,-67.88 754.5,-56.78"/>
<polygon fill="black" stroke="black" points="756.92,-54.24 747.63,-49.14 751.72,-58.92 756.92,-54.24"/>
</g>
<!-- 529 -->
<g id="node59" class="node">
<title>529</title>
<ellipse fill="#b9d3ee" stroke="black" cx="797.9" cy="-34" rx="23" ry="18"/>
<text text-anchor="middle" x="797.9" y="-30.3" font-family="Times,serif" font-size="14.00">19</text>
</g>
<!-- 44&#45;&gt;529 -->
<g id="edge68" class="edge">
<title>44&#45;&gt;529</title>
<path fill="none" stroke="black" d="M797.9,-87.7C797.9,-79.98 797.9,-70.71 797.9,-62.11"/>
<polygon fill="black" stroke="black" points="801.4,-62.1 797.9,-52.1 794.4,-62.1 801.4,-62.1"/>
</g>
<!-- 52 -->
<g id="node32" class="node">
<title>52</title>
<ellipse fill="#b9d3ee" stroke="black" cx="624.9" cy="-34" rx="16.8" ry="18"/>
<text text-anchor="middle" x="624.9" y="-30.3" font-family="Times,serif" font-size="14.00">1</text>
</g>
<!-- 45&#45;&gt;52 -->
<g id="edge41" class="edge">
<title>45&#45;&gt;52</title>
<path fill="none" stroke="black" d="M537.44,-91.34C554.21,-80.67 578.08,-65.45 598.9,-52 599.99,-51.29 601.11,-50.57 602.25,-49.83"/>
<polygon fill="black" stroke="black" points="604.42,-52.6 610.88,-44.2 600.59,-46.73 604.42,-52.6"/>
</g>
<!-- 59 -->
<g id="node39" class="node">
<title>59</title>
<ellipse fill="#b9d3ee" stroke="black" cx="366.9" cy="-34" rx="16.8" ry="18"/>
<text text-anchor="middle" x="366.9" y="-30.3" font-family="Times,serif" font-size="14.00">1</text>
</g>
<!-- 45&#45;&gt;59 -->
<g id="edge48" class="edge">
<title>45&#45;&gt;59</title>
<path fill="none" stroke="black" d="M487.9,-94.53C462.55,-84.68 424.44,-68.95 392.9,-52 391.75,-51.38 390.59,-50.73 389.42,-50.05"/>
<polygon fill="black" stroke="black" points="391.01,-46.92 380.66,-44.63 387.32,-52.87 391.01,-46.92"/>
</g>
<!-- 512 -->
<g id="node42" class="node">
<title>512</title>
<ellipse fill="#b9d3ee" stroke="black" cx="418.9" cy="-34" rx="16.8" ry="18"/>
<text text-anchor="middle" x="418.9" y="-30.3" font-family="Times,serif" font-size="14.00">2</text>
</g>
<!-- 45&#45;&gt;512 -->
<g id="edge51" class="edge">
<title>45&#45;&gt;512</title>
<path fill="none" stroke="black" d="M496.27,-90.83C480.29,-79.31 457.75,-63.04 441.12,-51.03"/>
<polygon fill="black" stroke="black" points="442.72,-47.87 432.56,-44.86 438.62,-53.55 442.72,-47.87"/>
</g>
<!-- 530 -->
<g id="node60" class="node">
<title>530</title>
<ellipse fill="#b9d3ee" stroke="black" cx="476.9" cy="-34" rx="23" ry="18"/>
<text text-anchor="middle" x="476.9" y="-30.3" font-family="Times,serif" font-size="14.00">27</text>
</g>
<!-- 45&#45;&gt;530 -->
<g id="edge69" class="edge">
<title>45&#45;&gt;530</title>
<path fill="none" stroke="black" d="M506.66,-88.41C501.93,-79.92 496.07,-69.41 490.81,-59.96"/>
<polygon fill="black" stroke="black" points="493.73,-58.02 485.81,-50.99 487.62,-61.43 493.73,-58.02"/>
</g>
<!-- 537 -->
<g id="node67" class="node">
<title>537</title>
<ellipse fill="#b9d3ee" stroke="black" cx="553.9" cy="-34" rx="36" ry="18"/>
<text text-anchor="middle" x="553.9" y="-30.3" font-family="Times,serif" font-size="14.00">358</text>
</g>
<!-- 45&#45;&gt;537 -->
<g id="edge76" class="edge">
<title>45&#45;&gt;537</title>
<path fill="none" stroke="black" d="M524.9,-88.41C529.45,-80.04 535.06,-69.71 540.13,-60.37"/>
<polygon fill="black" stroke="black" points="543.26,-61.93 544.96,-51.47 537.11,-58.59 543.26,-61.93"/>
</g>
<!-- 511 -->
<g id="node41" class="node">
<title>511</title>
<ellipse fill="#b9d3ee" stroke="black" cx="1354.9" cy="-34" rx="16.8" ry="18"/>
<text text-anchor="middle" x="1354.9" y="-30.3" font-family="Times,serif" font-size="14.00">1</text>
</g>
<!-- 46&#45;&gt;511 -->
<g id="edge50" class="edge">
<title>46&#45;&gt;511</title>
<path fill="none" stroke="black" d="M1327.43,-88.41C1331.92,-79.68 1337.51,-68.81 1342.47,-59.16"/>
<polygon fill="black" stroke="black" points="1345.7,-60.53 1347.16,-50.04 1339.48,-57.33 1345.7,-60.53"/>
</g>
<!-- 515 -->
<g id="node45" class="node">
<title>515</title>
<ellipse fill="#b9d3ee" stroke="black" cx="1406.9" cy="-34" rx="16.8" ry="18"/>
<text text-anchor="middle" x="1406.9" y="-30.3" font-family="Times,serif" font-size="14.00">2</text>
</g>
<!-- 46&#45;&gt;515 -->
<g id="edge54" class="edge">
<title>46&#45;&gt;515</title>
<path fill="none" stroke="black" d="M1337.56,-90.15C1351.65,-78.95 1370.99,-63.56 1385.67,-51.89"/>
<polygon fill="black" stroke="black" points="1388.05,-54.47 1393.69,-45.5 1383.69,-48.99 1388.05,-54.47"/>
</g>
<!-- 521 -->
<g id="node51" class="node">
<title>521</title>
<ellipse fill="#b9d3ee" stroke="black" cx="1458.9" cy="-34" rx="16.8" ry="18"/>
<text text-anchor="middle" x="1458.9" y="-30.3" font-family="Times,serif" font-size="14.00">5</text>
</g>
<!-- 46&#45;&gt;521 -->
<g id="edge60" class="edge">
<title>46&#45;&gt;521</title>
<path fill="none" stroke="black" d="M1345.7,-93.84C1369.15,-83.78 1403.9,-68.11 1432.9,-52 1434.04,-51.37 1435.2,-50.7 1436.36,-50.01"/>
<polygon fill="black" stroke="black" points="1438.47,-52.82 1445.09,-44.55 1434.76,-46.89 1438.47,-52.82"/>
</g>
<!-- 533 -->
<g id="node63" class="node">
<title>533</title>
<ellipse fill="#b9d3ee" stroke="black" cx="1200.9" cy="-34" rx="28.7" ry="18"/>
<text text-anchor="middle" x="1200.9" y="-30.3" font-family="Times,serif" font-size="14.00">104</text>
</g>
<!-- 46&#45;&gt;533 -->
<g id="edge72" class="edge">
<title>46&#45;&gt;533</title>
<path fill="none" stroke="black" d="M1296.43,-91.67C1277.44,-80.4 1250.13,-64.2 1229.56,-52.01"/>
<polygon fill="black" stroke="black" points="1231.32,-48.97 1220.93,-46.88 1227.74,-54.99 1231.32,-48.97"/>
</g>
<!-- 535 -->
<g id="node65" class="node">
<title>535</title>
<ellipse fill="#b9d3ee" stroke="black" cx="1283.9" cy="-34" rx="36" ry="18"/>
<text text-anchor="middle" x="1283.9" y="-30.3" font-family="Times,serif" font-size="14.00">285</text>
</g>
<!-- 46&#45;&gt;535 -->
<g id="edge74" class="edge">
<title>46&#45;&gt;535</title>
<path fill="none" stroke="black" d="M1310.6,-88.41C1306.52,-80.25 1301.51,-70.22 1296.93,-61.07"/>
<polygon fill="black" stroke="black" points="1299.98,-59.34 1292.38,-51.96 1293.72,-62.47 1299.98,-59.34"/>
</g>
<!-- 51 -->
<g id="node31" class="node">
<title>51</title>
<ellipse fill="#b9d3ee" stroke="black" cx="1085.9" cy="-34" rx="16.8" ry="18"/>
<text text-anchor="middle" x="1085.9" y="-30.3" font-family="Times,serif" font-size="14.00">1</text>
</g>
<!-- 47&#45;&gt;51 -->
<g id="edge40" class="edge">
<title>47&#45;&gt;51</title>
<path fill="none" stroke="black" d="M1037.19,-89.12C1046.22,-79.09 1057.96,-66.04 1067.66,-55.27"/>
<polygon fill="black" stroke="black" points="1070.51,-57.33 1074.59,-47.56 1065.3,-52.65 1070.51,-57.33"/>
</g>
<!-- 513 -->
<g id="node43" class="node">
<title>513</title>
<ellipse fill="#b9d3ee" stroke="black" cx="1137.9" cy="-34" rx="16.8" ry="18"/>
<text text-anchor="middle" x="1137.9" y="-30.3" font-family="Times,serif" font-size="14.00">2</text>
</g>
<!-- 47&#45;&gt;513 -->
<g id="edge52" class="edge">
<title>47&#45;&gt;513</title>
<path fill="none" stroke="black" d="M1045.74,-91.75C1063.81,-81.19 1089.63,-65.9 1111.9,-52 1113.01,-51.31 1114.13,-50.6 1115.27,-49.87"/>
<polygon fill="black" stroke="black" points="1117.43,-52.65 1123.93,-44.28 1113.63,-46.77 1117.43,-52.65"/>
</g>
<!-- 522 -->
<g id="node52" class="node">
<title>522</title>
<ellipse fill="#b9d3ee" stroke="black" cx="959.9" cy="-34" rx="16.8" ry="18"/>
<text text-anchor="middle" x="959.9" y="-30.3" font-family="Times,serif" font-size="14.00">7</text>
</g>
<!-- 47&#45;&gt;522 -->
<g id="edge61" class="edge">
<title>47&#45;&gt;522</title>
<path fill="none" stroke="black" d="M1008.6,-89.12C999.58,-79.09 987.83,-66.04 978.14,-55.27"/>
<polygon fill="black" stroke="black" points="980.49,-52.65 971.2,-47.56 975.29,-57.33 980.49,-52.65"/>
</g>
<!-- 534 -->
<g id="node64" class="node">
<title>534</title>
<ellipse fill="#b9d3ee" stroke="black" cx="1022.9" cy="-34" rx="28.7" ry="18"/>
<text text-anchor="middle" x="1022.9" y="-30.3" font-family="Times,serif" font-size="14.00">219</text>
</g>
<!-- 47&#45;&gt;534 -->
<g id="edge73" class="edge">
<title>47&#45;&gt;534</title>
<path fill="none" stroke="black" d="M1022.9,-87.7C1022.9,-79.98 1022.9,-70.71 1022.9,-62.11"/>
<polygon fill="black" stroke="black" points="1026.4,-62.1 1022.9,-52.1 1019.4,-62.1 1026.4,-62.1"/>
</g>
<!-- 516 -->
<g id="node46" class="node">
<title>516</title>
<ellipse fill="#b9d3ee" stroke="black" cx="210.9" cy="-34" rx="16.8" ry="18"/>
<text text-anchor="middle" x="210.9" y="-30.3" font-family="Times,serif" font-size="14.00">2</text>
</g>
<!-- 48&#45;&gt;516 -->
<g id="edge55" class="edge">
<title>48&#45;&gt;516</title>
<path fill="none" stroke="black" d="M298.19,-93.75C280.56,-81.89 252.69,-63.13 233.2,-50.01"/>
<polygon fill="black" stroke="black" points="235.15,-47.1 224.9,-44.42 231.24,-52.91 235.15,-47.1"/>
</g>
<!-- 524 -->
<g id="node54" class="node">
<title>524</title>
<ellipse fill="#b9d3ee" stroke="black" cx="262.9" cy="-34" rx="16.8" ry="18"/>
<text text-anchor="middle" x="262.9" y="-30.3" font-family="Times,serif" font-size="14.00">8</text>
</g>
<!-- 48&#45;&gt;524 -->
<g id="edge63" class="edge">
<title>48&#45;&gt;524</title>
<path fill="none" stroke="black" d="M303.87,-90.15C296.72,-80.53 287.28,-67.82 279.26,-57.02"/>
<polygon fill="black" stroke="black" points="281.98,-54.81 273.2,-48.87 276.36,-58.99 281.98,-54.81"/>
</g>
<!-- 525 -->
<g id="node55" class="node">
<title>525</title>
<ellipse fill="#b9d3ee" stroke="black" cx="314.9" cy="-34" rx="16.8" ry="18"/>
<text text-anchor="middle" x="314.9" y="-30.3" font-family="Times,serif" font-size="14.00">8</text>
</g>
<!-- 48&#45;&gt;525 -->
<g id="edge64" class="edge">
<title>48&#45;&gt;525</title>
<path fill="none" stroke="black" d="M314.9,-87.7C314.9,-79.98 314.9,-70.71 314.9,-62.11"/>
<polygon fill="black" stroke="black" points="318.4,-62.1 314.9,-52.1 311.4,-62.1 318.4,-62.1"/>
</g>
<!-- 527 -->
<g id="node57" class="node">
<title>527</title>
<ellipse fill="#b9d3ee" stroke="black" cx="16.9" cy="-34" rx="16.8" ry="18"/>
<text text-anchor="middle" x="16.9" y="-30.3" font-family="Times,serif" font-size="14.00">9</text>
</g>
<!-- 49&#45;&gt;527 -->
<g id="edge66" class="edge">
<title>49&#45;&gt;527</title>
<path fill="none" stroke="black" d="M72.14,-89.46C61.52,-78.99 47.44,-65.11 36.15,-53.98"/>
<polygon fill="black" stroke="black" points="38.44,-51.32 28.86,-46.8 33.53,-56.31 38.44,-51.32"/>
</g>
<!-- 536 -->
<g id="node66" class="node">
<title>536</title>
<ellipse fill="#b9d3ee" stroke="black" cx="87.9" cy="-34" rx="36" ry="18"/>
<text text-anchor="middle" x="87.9" y="-30.3" font-family="Times,serif" font-size="14.00">342</text>
</g>
<!-- 49&#45;&gt;536 -->
<g id="edge75" class="edge">
<title>49&#45;&gt;536</title>
<path fill="none" stroke="black" d="M87.9,-87.7C87.9,-79.98 87.9,-70.71 87.9,-62.11"/>
<polygon fill="black" stroke="black" points="91.4,-62.1 87.9,-52.1 84.4,-62.1 91.4,-62.1"/>
</g>
<!-- legend_5 -->
<g id="node69" class="node">
<title>legend_5</title>
<polygon fill="#b9d3ee" stroke="black" points="2514.4,-52 2293.4,-52 2293.4,-16 2514.4,-16 2514.4,-52"/>
<text text-anchor="middle" x="2403.9" y="-30.3" font-family="Times,serif" font-size="14.00">DT=6 ST=1 Similarity=0.54</text>
</g>
<!-- legend_4&#45;&gt;legend_5 -->
<g id="edge78" class="edge">
<title>legend_4&#45;&gt;legend_5</title>
<path fill="none" stroke="black" d="M2403.9,-87.7C2403.9,-79.98 2403.9,-70.71 2403.9,-62.11"/>
<polygon fill="black" stroke="black" points="2407.4,-62.1 2403.9,-52.1 2400.4,-62.1 2407.4,-62.1"/>
</g>
</g>
</svg>
