<?xml version="1.0" encoding="UTF-8" standalone="no"?>
<!DOCTYPE svg PUBLIC "-//W3C//DTD SVG 1.1//EN"
 "http://www.w3.org/Graphics/SVG/1.1/DTD/svg11.dtd">
<!-- Generated by graphviz version 2.43.0 (0)
 -->
<!-- Title: %3 Pages: 1 -->
<svg width="2771pt" height="497pt"
 viewBox="0.00 0.00 2770.90 497.00" xmlns="http://www.w3.org/2000/svg" xmlns:xlink="http://www.w3.org/1999/xlink">
<g id="graph0" class="graph" transform="scale(1 1) rotate(0) translate(4 493)">
<title>%3</title>
<polygon fill="white" stroke="transparent" points="-4,4 -4,-493 2766.9,-493 2766.9,4 -4,4"/>
<text text-anchor="middle" x="1381.45" y="-473.8" font-family="Times,serif" font-size="14.00">ConsTree</text>
<text text-anchor="middle" x="1381.45" y="-458.8" font-family="Times,serif" font-size="14.00">Tree Quality = 1</text>
<g id="clust1" class="cluster">
<title>cluster</title>
<polygon fill="none" stroke="black" points="2518.9,-8 2518.9,-443 2754.9,-443 2754.9,-8 2518.9,-8"/>
<text text-anchor="middle" x="2636.9" y="-427.8" font-family="Times,serif" font-size="14.00">Legend</text>
</g>
<!-- 00 -->
<g id="node1" class="node">
<title>00</title>
<ellipse fill="#b9d3ee" stroke="black" cx="939.9" cy="-394" rx="108" ry="18"/>
<text text-anchor="middle" x="939.9" y="-390.3" font-family="Times,serif" font-size="14.00">830</text>
</g>
<!-- 10 -->
<g id="node4" class="node">
<title>10</title>
<ellipse fill="#b9d3ee" stroke="black" cx="939.9" cy="-322" rx="36" ry="18"/>
<text text-anchor="middle" x="939.9" y="-318.3" font-family="Times,serif" font-size="14.00">422</text>
</g>
<!-- 00&#45;&gt;10 -->
<g id="edge1" class="edge">
<title>00&#45;&gt;10</title>
<path fill="none" stroke="black" d="M939.9,-375.7C939.9,-367.98 939.9,-358.71 939.9,-350.11"/>
<polygon fill="black" stroke="black" points="943.4,-350.1 939.9,-340.1 936.4,-350.1 943.4,-350.1"/>
</g>
<!-- 11 -->
<g id="node5" class="node">
<title>11</title>
<ellipse fill="#b9d3ee" stroke="black" cx="1155.9" cy="-322" rx="72" ry="18"/>
<text text-anchor="middle" x="1155.9" y="-318.3" font-family="Times,serif" font-size="14.00">445</text>
</g>
<!-- 00&#45;&gt;11 -->
<g id="edge3" class="edge">
<title>00&#45;&gt;11</title>
<path fill="none" stroke="black" d="M987.03,-377.72C1021.53,-366.55 1068.32,-351.38 1103.9,-339.85"/>
<polygon fill="black" stroke="black" points="1105.18,-343.11 1113.62,-336.7 1103.03,-336.46 1105.18,-343.11"/>
</g>
<!-- 13 -->
<g id="node7" class="node">
<title>13</title>
<ellipse fill="#b9d3ee" stroke="black" cx="1029.9" cy="-322" rx="36" ry="18"/>
<text text-anchor="middle" x="1029.9" y="-318.3" font-family="Times,serif" font-size="14.00">383</text>
</g>
<!-- 00&#45;&gt;13 -->
<g id="edge6" class="edge">
<title>00&#45;&gt;13</title>
<path fill="none" stroke="black" d="M961.68,-376.05C974.06,-366.43 989.66,-354.29 1002.82,-344.06"/>
<polygon fill="black" stroke="black" points="1005.31,-346.56 1011.06,-337.66 1001.01,-341.03 1005.31,-346.56"/>
</g>
<!-- 01 -->
<g id="node2" class="node">
<title>01</title>
<ellipse fill="#b9d3ee" stroke="black" cx="1245.9" cy="-394" rx="180" ry="18"/>
<text text-anchor="middle" x="1245.9" y="-390.3" font-family="Times,serif" font-size="14.00">1170</text>
</g>
<!-- 01&#45;&gt;10 -->
<g id="edge2" class="edge">
<title>01&#45;&gt;10</title>
<path fill="none" stroke="black" d="M1155.65,-378.37C1104.98,-369.23 1040.88,-356.14 984.9,-340 982.28,-339.25 979.6,-338.41 976.91,-337.52"/>
<polygon fill="black" stroke="black" points="977.86,-334.14 967.27,-334.14 975.55,-340.75 977.86,-334.14"/>
</g>
<!-- 01&#45;&gt;11 -->
<g id="edge4" class="edge">
<title>01&#45;&gt;11</title>
<path fill="none" stroke="black" d="M1224.11,-376.05C1212.33,-366.89 1197.63,-355.46 1184.9,-345.56"/>
<polygon fill="black" stroke="black" points="1186.91,-342.68 1176.86,-339.31 1182.61,-348.21 1186.91,-342.68"/>
</g>
<!-- 12 -->
<g id="node6" class="node">
<title>12</title>
<ellipse fill="#b9d3ee" stroke="black" cx="1353.9" cy="-322" rx="108" ry="18"/>
<text text-anchor="middle" x="1353.9" y="-318.3" font-family="Times,serif" font-size="14.00">750</text>
</g>
<!-- 01&#45;&gt;12 -->
<g id="edge5" class="edge">
<title>01&#45;&gt;12</title>
<path fill="none" stroke="black" d="M1272.04,-376.05C1286.34,-366.79 1304.23,-355.19 1319.63,-345.21"/>
<polygon fill="black" stroke="black" points="1321.88,-347.92 1328.37,-339.55 1318.07,-342.05 1321.88,-347.92"/>
</g>
<!-- 01&#45;&gt;13 -->
<g id="edge7" class="edge">
<title>01&#45;&gt;13</title>
<path fill="none" stroke="black" d="M1190.56,-376.78C1156.95,-366.69 1113.26,-353.18 1074.9,-340 1072.32,-339.11 1069.67,-338.18 1067.01,-337.22"/>
<polygon fill="black" stroke="black" points="1068,-333.86 1057.41,-333.69 1065.59,-340.43 1068,-333.86"/>
</g>
<!-- legend_0 -->
<g id="node3" class="node">
<title>legend_0</title>
<polygon fill="#b9d3ee" stroke="black" points="2747.4,-412 2526.4,-412 2526.4,-376 2747.4,-376 2747.4,-412"/>
<text text-anchor="middle" x="2636.9" y="-390.3" font-family="Times,serif" font-size="14.00">DT=1 ST=1 Similarity=0.44</text>
</g>
<!-- legend_1 -->
<g id="node8" class="node">
<title>legend_1</title>
<polygon fill="#b9d3ee" stroke="black" points="2747.4,-340 2526.4,-340 2526.4,-304 2747.4,-304 2747.4,-340"/>
<text text-anchor="middle" x="2636.9" y="-318.3" font-family="Times,serif" font-size="14.00">DT=2 ST=1 Similarity=0.61</text>
</g>
<!-- legend_0&#45;&gt;legend_1 -->
<g id="edge8" class="edge">
<title>legend_0&#45;&gt;legend_1</title>
<path fill="none" stroke="black" d="M2636.9,-375.7C2636.9,-367.98 2636.9,-358.71 2636.9,-350.11"/>
<polygon fill="black" stroke="black" points="2640.4,-350.1 2636.9,-340.1 2633.4,-350.1 2640.4,-350.1"/>
</g>
<!-- 20 -->
<g id="node9" class="node">
<title>20</title>
<ellipse fill="#b9d3ee" stroke="black" cx="984.9" cy="-250" rx="36" ry="18"/>
<text text-anchor="middle" x="984.9" y="-246.3" font-family="Times,serif" font-size="14.00">397</text>
</g>
<!-- 10&#45;&gt;20 -->
<g id="edge9" class="edge">
<title>10&#45;&gt;20</title>
<path fill="none" stroke="black" d="M950.34,-304.76C955.77,-296.32 962.53,-285.8 968.63,-276.31"/>
<polygon fill="black" stroke="black" points="971.74,-277.94 974.21,-267.63 965.85,-274.15 971.74,-277.94"/>
</g>
<!-- 21 -->
<g id="node10" class="node">
<title>21</title>
<ellipse fill="#b9d3ee" stroke="black" cx="894.9" cy="-250" rx="36" ry="18"/>
<text text-anchor="middle" x="894.9" y="-246.3" font-family="Times,serif" font-size="14.00">384</text>
</g>
<!-- 10&#45;&gt;21 -->
<g id="edge11" class="edge">
<title>10&#45;&gt;21</title>
<path fill="none" stroke="black" d="M929.46,-304.76C924.03,-296.32 917.27,-285.8 911.17,-276.31"/>
<polygon fill="black" stroke="black" points="913.94,-274.15 905.59,-267.63 908.05,-277.94 913.94,-274.15"/>
</g>
<!-- 24 -->
<g id="node13" class="node">
<title>24</title>
<ellipse fill="#b9d3ee" stroke="black" cx="1308.9" cy="-250" rx="36" ry="18"/>
<text text-anchor="middle" x="1308.9" y="-246.3" font-family="Times,serif" font-size="14.00">420</text>
</g>
<!-- 10&#45;&gt;24 -->
<g id="edge15" class="edge">
<title>10&#45;&gt;24</title>
<path fill="none" stroke="black" d="M966.74,-309.86C972.65,-307.69 978.93,-305.6 984.9,-304 1036.89,-290.08 1188.52,-267.85 1264.47,-257.15"/>
<polygon fill="black" stroke="black" points="1265.25,-260.57 1274.66,-255.72 1264.27,-253.64 1265.25,-260.57"/>
</g>
<!-- 22 -->
<g id="node11" class="node">
<title>22</title>
<ellipse fill="#b9d3ee" stroke="black" cx="1398.9" cy="-250" rx="36" ry="18"/>
<text text-anchor="middle" x="1398.9" y="-246.3" font-family="Times,serif" font-size="14.00">405</text>
</g>
<!-- 11&#45;&gt;22 -->
<g id="edge12" class="edge">
<title>11&#45;&gt;22</title>
<path fill="none" stroke="black" d="M1206.35,-308.97C1246.6,-299.02 1304.27,-283.97 1353.9,-268 1356.49,-267.17 1359.16,-266.27 1361.83,-265.34"/>
<polygon fill="black" stroke="black" points="1363.23,-268.55 1371.45,-261.87 1360.85,-261.97 1363.23,-268.55"/>
</g>
<!-- 23 -->
<g id="node12" class="node">
<title>23</title>
<ellipse fill="#b9d3ee" stroke="black" cx="1137.9" cy="-250" rx="36" ry="18"/>
<text text-anchor="middle" x="1137.9" y="-246.3" font-family="Times,serif" font-size="14.00">394</text>
</g>
<!-- 11&#45;&gt;23 -->
<g id="edge14" class="edge">
<title>11&#45;&gt;23</title>
<path fill="none" stroke="black" d="M1151.45,-303.7C1149.44,-295.9 1147.03,-286.51 1144.8,-277.83"/>
<polygon fill="black" stroke="black" points="1148.18,-276.92 1142.3,-268.1 1141.4,-278.66 1148.18,-276.92"/>
</g>
<!-- 12&#45;&gt;22 -->
<g id="edge13" class="edge">
<title>12&#45;&gt;22</title>
<path fill="none" stroke="black" d="M1364.79,-304.05C1370.23,-295.59 1376.92,-285.19 1382.93,-275.84"/>
<polygon fill="black" stroke="black" points="1385.95,-277.61 1388.42,-267.31 1380.06,-273.83 1385.95,-277.61"/>
</g>
<!-- 12&#45;&gt;24 -->
<g id="edge16" class="edge">
<title>12&#45;&gt;24</title>
<path fill="none" stroke="black" d="M1343.01,-304.05C1337.56,-295.59 1330.88,-285.19 1324.87,-275.84"/>
<polygon fill="black" stroke="black" points="1327.73,-273.83 1319.38,-267.31 1321.85,-277.61 1327.73,-273.83"/>
</g>
<!-- 13&#45;&gt;20 -->
<g id="edge10" class="edge">
<title>13&#45;&gt;20</title>
<path fill="none" stroke="black" d="M1019.46,-304.76C1014.03,-296.32 1007.27,-285.8 1001.17,-276.31"/>
<polygon fill="black" stroke="black" points="1003.94,-274.15 995.59,-267.63 998.05,-277.94 1003.94,-274.15"/>
</g>
<!-- legend_2 -->
<g id="node14" class="node">
<title>legend_2</title>
<polygon fill="#b9d3ee" stroke="black" points="2747.4,-268 2526.4,-268 2526.4,-232 2747.4,-232 2747.4,-268"/>
<text text-anchor="middle" x="2636.9" y="-246.3" font-family="Times,serif" font-size="14.00">DT=3 ST=1 Similarity=0.67</text>
</g>
<!-- legend_1&#45;&gt;legend_2 -->
<g id="edge17" class="edge">
<title>legend_1&#45;&gt;legend_2</title>
<path fill="none" stroke="black" d="M2636.9,-303.7C2636.9,-295.98 2636.9,-286.71 2636.9,-278.11"/>
<polygon fill="black" stroke="black" points="2640.4,-278.1 2636.9,-268.1 2633.4,-278.1 2640.4,-278.1"/>
</g>
<!-- 31 -->
<g id="node16" class="node">
<title>31</title>
<polygon fill="darkseagreen" stroke="black" points="1020.9,-196 948.9,-196 948.9,-160 1020.9,-160 1020.9,-196"/>
<text text-anchor="middle" x="984.9" y="-174.3" font-family="Times,serif" font-size="14.00">408</text>
</g>
<!-- 20&#45;&gt;31 -->
<g id="edge19" class="edge">
<title>20&#45;&gt;31</title>
<path fill="none" stroke="black" d="M984.9,-231.7C984.9,-223.98 984.9,-214.71 984.9,-206.11"/>
<polygon fill="black" stroke="black" points="988.4,-206.1 984.9,-196.1 981.4,-206.1 988.4,-206.1"/>
</g>
<!-- 34 -->
<g id="node19" class="node">
<title>34</title>
<polygon fill="darkseagreen" stroke="black" points="771.9,-196 699.9,-196 699.9,-160 771.9,-160 771.9,-196"/>
<text text-anchor="middle" x="735.9" y="-174.3" font-family="Times,serif" font-size="14.00">392</text>
</g>
<!-- 20&#45;&gt;34 -->
<g id="edge24" class="edge">
<title>20&#45;&gt;34</title>
<path fill="none" stroke="black" d="M957.46,-238.1C951.7,-235.96 945.63,-233.82 939.9,-232 886.26,-214.95 823.43,-199.26 781.82,-189.44"/>
<polygon fill="black" stroke="black" points="782.51,-186.01 771.98,-187.14 780.91,-192.83 782.51,-186.01"/>
</g>
<!-- 21&#45;&gt;34 -->
<g id="edge25" class="edge">
<title>21&#45;&gt;34</title>
<path fill="none" stroke="black" d="M868.64,-237.44C844.95,-227.01 809.58,-211.44 781.3,-198.99"/>
<polygon fill="black" stroke="black" points="782.57,-195.73 772.01,-194.9 779.75,-202.13 782.57,-195.73"/>
</g>
<!-- 32 -->
<g id="node17" class="node">
<title>32</title>
<polygon fill="darkseagreen" stroke="black" points="1879.9,-196 1807.9,-196 1807.9,-160 1879.9,-160 1879.9,-196"/>
<text text-anchor="middle" x="1843.9" y="-174.3" font-family="Times,serif" font-size="14.00">390</text>
</g>
<!-- 22&#45;&gt;32 -->
<g id="edge21" class="edge">
<title>22&#45;&gt;32</title>
<path fill="none" stroke="black" d="M1432.71,-243.68C1511.61,-231.27 1707.98,-200.38 1797.77,-186.26"/>
<polygon fill="black" stroke="black" points="1798.33,-189.71 1807.67,-184.7 1797.25,-182.8 1798.33,-189.71"/>
</g>
<!-- 35 -->
<g id="node20" class="node">
<title>35</title>
<polygon fill="darkseagreen" stroke="black" points="1336.9,-196 1264.9,-196 1264.9,-160 1336.9,-160 1336.9,-196"/>
<text text-anchor="middle" x="1300.9" y="-174.3" font-family="Times,serif" font-size="14.00">398</text>
</g>
<!-- 22&#45;&gt;35 -->
<g id="edge26" class="edge">
<title>22&#45;&gt;35</title>
<path fill="none" stroke="black" d="M1379.07,-234.83C1365.85,-225.4 1348.19,-212.78 1333,-201.93"/>
<polygon fill="black" stroke="black" points="1335.03,-199.08 1324.86,-196.11 1330.96,-204.77 1335.03,-199.08"/>
</g>
<!-- 30 -->
<g id="node15" class="node">
<title>30</title>
<polygon fill="darkseagreen" stroke="black" points="1130.9,-196 1104.9,-196 1104.9,-160 1130.9,-160 1130.9,-196"/>
<text text-anchor="middle" x="1117.9" y="-174.3" font-family="Times,serif" font-size="14.00">1</text>
</g>
<!-- 23&#45;&gt;30 -->
<g id="edge18" class="edge">
<title>23&#45;&gt;30</title>
<path fill="none" stroke="black" d="M1133.06,-232.05C1130.83,-224.26 1128.13,-214.82 1125.64,-206.08"/>
<polygon fill="black" stroke="black" points="1128.95,-204.93 1122.83,-196.28 1122.22,-206.85 1128.95,-204.93"/>
</g>
<!-- 23&#45;&gt;31 -->
<g id="edge20" class="edge">
<title>23&#45;&gt;31</title>
<path fill="none" stroke="black" d="M1112.29,-237.28C1089.92,-227.05 1056.92,-211.95 1030.11,-199.68"/>
<polygon fill="black" stroke="black" points="1031.46,-196.46 1020.91,-195.48 1028.55,-202.82 1031.46,-196.46"/>
</g>
<!-- 23&#45;&gt;35 -->
<g id="edge27" class="edge">
<title>23&#45;&gt;35</title>
<path fill="none" stroke="black" d="M1164.45,-237.6C1189.03,-227.04 1226.1,-211.12 1255.4,-198.54"/>
<polygon fill="black" stroke="black" points="1256.81,-201.74 1264.61,-194.58 1254.04,-195.31 1256.81,-201.74"/>
</g>
<!-- 24&#45;&gt;32 -->
<g id="edge22" class="edge">
<title>24&#45;&gt;32</title>
<path fill="none" stroke="black" d="M1335.68,-237.61C1341.59,-235.46 1347.89,-233.43 1353.9,-232 1500.87,-197.02 1541.72,-212.4 1691.9,-196 1727.32,-192.13 1767.37,-187.65 1797.46,-184.26"/>
<polygon fill="black" stroke="black" points="1798.12,-187.71 1807.66,-183.11 1797.34,-180.75 1798.12,-187.71"/>
</g>
<!-- 33 -->
<g id="node18" class="node">
<title>33</title>
<polygon fill="darkseagreen" stroke="black" points="1682.9,-196 1610.9,-196 1610.9,-160 1682.9,-160 1682.9,-196"/>
<text text-anchor="middle" x="1646.9" y="-174.3" font-family="Times,serif" font-size="14.00">411</text>
</g>
<!-- 24&#45;&gt;33 -->
<g id="edge23" class="edge">
<title>24&#45;&gt;33</title>
<path fill="none" stroke="black" d="M1335.76,-237.94C1341.67,-235.76 1347.94,-233.65 1353.9,-232 1439.67,-208.25 1542.59,-192.48 1600.81,-184.69"/>
<polygon fill="black" stroke="black" points="1601.34,-188.15 1610.79,-183.37 1600.42,-181.21 1601.34,-188.15"/>
</g>
<!-- legend_3 -->
<g id="node21" class="node">
<title>legend_3</title>
<polygon fill="darkseagreen" stroke="black" points="2747.4,-196 2526.4,-196 2526.4,-160 2747.4,-160 2747.4,-196"/>
<text text-anchor="middle" x="2636.9" y="-174.3" font-family="Times,serif" font-size="14.00">DT=4 ST=1 Similarity=0.68</text>
</g>
<!-- legend_2&#45;&gt;legend_3 -->
<g id="edge28" class="edge">
<title>legend_2&#45;&gt;legend_3</title>
<path fill="none" stroke="black" d="M2636.9,-231.7C2636.9,-223.98 2636.9,-214.71 2636.9,-206.11"/>
<polygon fill="black" stroke="black" points="2640.4,-206.1 2636.9,-196.1 2633.4,-206.1 2640.4,-206.1"/>
</g>
<!-- 40 -->
<g id="node22" class="node">
<title>40</title>
<ellipse fill="#b9d3ee" stroke="black" cx="834.9" cy="-106" rx="16.8" ry="18"/>
<text text-anchor="middle" x="834.9" y="-102.3" font-family="Times,serif" font-size="14.00">1</text>
</g>
<!-- 30&#45;&gt;40 -->
<g id="edge29" class="edge">
<title>30&#45;&gt;40</title>
<path fill="none" stroke="black" d="M1104.63,-173.72C1060.8,-162.88 920.15,-128.09 861.24,-113.52"/>
<polygon fill="black" stroke="black" points="861.78,-110.04 851.23,-111.04 860.1,-116.84 861.78,-110.04"/>
</g>
<!-- 41 -->
<g id="node23" class="node">
<title>41</title>
<ellipse fill="#b9d3ee" stroke="black" cx="991.9" cy="-106" rx="28.7" ry="18"/>
<text text-anchor="middle" x="991.9" y="-102.3" font-family="Times,serif" font-size="14.00">137</text>
</g>
<!-- 31&#45;&gt;41 -->
<g id="edge30" class="edge">
<title>31&#45;&gt;41</title>
<path fill="none" stroke="black" d="M986.63,-159.7C987.4,-151.98 988.33,-142.71 989.19,-134.11"/>
<polygon fill="black" stroke="black" points="992.68,-134.4 990.19,-124.1 985.71,-133.71 992.68,-134.4"/>
</g>
<!-- 44 -->
<g id="node26" class="node">
<title>44</title>
<ellipse fill="#b9d3ee" stroke="black" cx="572.9" cy="-106" rx="36" ry="18"/>
<text text-anchor="middle" x="572.9" y="-102.3" font-family="Times,serif" font-size="14.00">405</text>
</g>
<!-- 31&#45;&gt;44 -->
<g id="edge36" class="edge">
<title>31&#45;&gt;44</title>
<path fill="none" stroke="black" d="M948.7,-170.85C873,-157.99 698.24,-128.3 616.51,-114.41"/>
<polygon fill="black" stroke="black" points="617,-110.94 606.55,-112.72 615.83,-117.84 617,-110.94"/>
</g>
<!-- 43 -->
<g id="node25" class="node">
<title>43</title>
<ellipse fill="#b9d3ee" stroke="black" cx="1646.9" cy="-106" rx="36" ry="18"/>
<text text-anchor="middle" x="1646.9" y="-102.3" font-family="Times,serif" font-size="14.00">412</text>
</g>
<!-- 32&#45;&gt;43 -->
<g id="edge33" class="edge">
<title>32&#45;&gt;43</title>
<path fill="none" stroke="black" d="M1807.77,-164.16C1772.94,-151.79 1720.44,-133.13 1684.98,-120.53"/>
<polygon fill="black" stroke="black" points="1686.05,-117.2 1675.46,-117.15 1683.71,-123.79 1686.05,-117.2"/>
</g>
<!-- 45 -->
<g id="node27" class="node">
<title>45</title>
<ellipse fill="#b9d3ee" stroke="black" cx="2095.9" cy="-106" rx="16.8" ry="18"/>
<text text-anchor="middle" x="2095.9" y="-102.3" font-family="Times,serif" font-size="14.00">9</text>
</g>
<!-- 32&#45;&gt;45 -->
<g id="edge38" class="edge">
<title>32&#45;&gt;45</title>
<path fill="none" stroke="black" d="M1880,-166.97C1931.52,-152.66 2024.86,-126.73 2070.03,-114.19"/>
<polygon fill="black" stroke="black" points="2070.97,-117.56 2079.67,-111.51 2069.1,-110.81 2070.97,-117.56"/>
</g>
<!-- 46 -->
<g id="node28" class="node">
<title>46</title>
<ellipse fill="#b9d3ee" stroke="black" cx="1979.9" cy="-106" rx="23" ry="18"/>
<text text-anchor="middle" x="1979.9" y="-102.3" font-family="Times,serif" font-size="14.00">51</text>
</g>
<!-- 32&#45;&gt;46 -->
<g id="edge40" class="edge">
<title>32&#45;&gt;46</title>
<path fill="none" stroke="black" d="M1877.17,-159.88C1900.18,-148.03 1930.46,-132.45 1952.17,-121.27"/>
<polygon fill="black" stroke="black" points="1953.9,-124.32 1961.19,-116.63 1950.7,-118.09 1953.9,-124.32"/>
</g>
<!-- 47 -->
<g id="node29" class="node">
<title>47</title>
<ellipse fill="#b9d3ee" stroke="black" cx="2343.9" cy="-106" rx="36" ry="18"/>
<text text-anchor="middle" x="2343.9" y="-102.3" font-family="Times,serif" font-size="14.00">355</text>
</g>
<!-- 32&#45;&gt;47 -->
<g id="edge42" class="edge">
<title>32&#45;&gt;47</title>
<path fill="none" stroke="black" d="M1880.26,-171.91C1970.02,-159.34 2201.92,-126.88 2299.55,-113.21"/>
<polygon fill="black" stroke="black" points="2300.25,-116.64 2309.67,-111.79 2299.28,-109.71 2300.25,-116.64"/>
</g>
<!-- 33&#45;&gt;43 -->
<g id="edge34" class="edge">
<title>33&#45;&gt;43</title>
<path fill="none" stroke="black" d="M1646.9,-159.7C1646.9,-151.98 1646.9,-142.71 1646.9,-134.11"/>
<polygon fill="black" stroke="black" points="1650.4,-134.1 1646.9,-124.1 1643.4,-134.1 1650.4,-134.1"/>
</g>
<!-- 33&#45;&gt;45 -->
<g id="edge39" class="edge">
<title>33&#45;&gt;45</title>
<path fill="none" stroke="black" d="M1683.01,-172.43C1748.66,-163.98 1891.87,-144.84 2011.9,-124 2031.26,-120.64 2053,-116.22 2069.51,-112.73"/>
<polygon fill="black" stroke="black" points="2070.48,-116.1 2079.53,-110.59 2069.02,-109.26 2070.48,-116.1"/>
</g>
<!-- 42 -->
<g id="node24" class="node">
<title>42</title>
<ellipse fill="#b9d3ee" stroke="black" cx="68.9" cy="-106" rx="16.8" ry="18"/>
<text text-anchor="middle" x="68.9" y="-102.3" font-family="Times,serif" font-size="14.00">2</text>
</g>
<!-- 34&#45;&gt;42 -->
<g id="edge32" class="edge">
<title>34&#45;&gt;42</title>
<path fill="none" stroke="black" d="M699.7,-173.22C616.65,-164.54 406.02,-142.52 229.9,-124 182.89,-119.06 128.16,-113.27 96.15,-109.88"/>
<polygon fill="black" stroke="black" points="96.13,-106.36 85.82,-108.79 95.4,-113.32 96.13,-106.36"/>
</g>
<!-- 34&#45;&gt;43 -->
<g id="edge35" class="edge">
<title>34&#45;&gt;43</title>
<path fill="none" stroke="black" d="M772,-173.9C812.77,-170.42 881.09,-164.65 939.9,-160 1189.52,-140.24 1488.89,-118.42 1601.29,-110.29"/>
<polygon fill="black" stroke="black" points="1601.86,-113.76 1611.58,-109.54 1601.35,-106.77 1601.86,-113.76"/>
</g>
<!-- 34&#45;&gt;44 -->
<g id="edge37" class="edge">
<title>34&#45;&gt;44</title>
<path fill="none" stroke="black" d="M699.72,-161.46C672.66,-149.84 635.82,-134.02 608.81,-122.42"/>
<polygon fill="black" stroke="black" points="609.92,-119.09 599.35,-118.36 607.16,-125.52 609.92,-119.09"/>
</g>
<!-- 48 -->
<g id="node30" class="node">
<title>48</title>
<ellipse fill="#b9d3ee" stroke="black" cx="274.9" cy="-106" rx="36" ry="18"/>
<text text-anchor="middle" x="274.9" y="-102.3" font-family="Times,serif" font-size="14.00">385</text>
</g>
<!-- 34&#45;&gt;48 -->
<g id="edge43" class="edge">
<title>34&#45;&gt;48</title>
<path fill="none" stroke="black" d="M699.72,-171.51C616.13,-158.81 409.79,-127.48 318.99,-113.69"/>
<polygon fill="black" stroke="black" points="319.43,-110.22 309.02,-112.18 318.38,-117.14 319.43,-110.22"/>
</g>
<!-- 35&#45;&gt;41 -->
<g id="edge31" class="edge">
<title>35&#45;&gt;41</title>
<path fill="none" stroke="black" d="M1264.85,-168.83C1205.53,-155.39 1087.98,-128.77 1028.38,-115.26"/>
<polygon fill="black" stroke="black" points="1028.82,-111.78 1018.29,-112.98 1027.27,-118.6 1028.82,-111.78"/>
</g>
<!-- 35&#45;&gt;46 -->
<g id="edge41" class="edge">
<title>35&#45;&gt;46</title>
<path fill="none" stroke="black" d="M1336.93,-173.29C1455.65,-161.05 1833.48,-122.09 1947.2,-110.37"/>
<polygon fill="black" stroke="black" points="1947.78,-113.83 1957.37,-109.32 1947.06,-106.87 1947.78,-113.83"/>
</g>
<!-- 49 -->
<g id="node31" class="node">
<title>49</title>
<ellipse fill="#b9d3ee" stroke="black" cx="1300.9" cy="-106" rx="36" ry="18"/>
<text text-anchor="middle" x="1300.9" y="-102.3" font-family="Times,serif" font-size="14.00">243</text>
</g>
<!-- 35&#45;&gt;49 -->
<g id="edge44" class="edge">
<title>35&#45;&gt;49</title>
<path fill="none" stroke="black" d="M1300.9,-159.7C1300.9,-151.98 1300.9,-142.71 1300.9,-134.11"/>
<polygon fill="black" stroke="black" points="1304.4,-134.1 1300.9,-124.1 1297.4,-134.1 1304.4,-134.1"/>
</g>
<!-- legend_4 -->
<g id="node32" class="node">
<title>legend_4</title>
<polygon fill="#b9d3ee" stroke="black" points="2747.4,-124 2526.4,-124 2526.4,-88 2747.4,-88 2747.4,-124"/>
<text text-anchor="middle" x="2636.9" y="-102.3" font-family="Times,serif" font-size="14.00">DT=5 ST=1 Similarity=0.64</text>
</g>
<!-- legend_3&#45;&gt;legend_4 -->
<g id="edge45" class="edge">
<title>legend_3&#45;&gt;legend_4</title>
<path fill="none" stroke="black" d="M2636.9,-159.7C2636.9,-151.98 2636.9,-142.71 2636.9,-134.11"/>
<polygon fill="black" stroke="black" points="2640.4,-134.1 2636.9,-124.1 2633.4,-134.1 2640.4,-134.1"/>
</g>
<!-- 513 -->
<g id="node46" class="node">
<title>513</title>
<ellipse fill="#b9d3ee" stroke="black" cx="740.9" cy="-34" rx="16.8" ry="18"/>
<text text-anchor="middle" x="740.9" y="-30.3" font-family="Times,serif" font-size="14.00">1</text>
</g>
<!-- 40&#45;&gt;513 -->
<g id="edge59" class="edge">
<title>40&#45;&gt;513</title>
<path fill="none" stroke="black" d="M821.43,-94.97C806.07,-83.54 780.75,-64.68 762.6,-51.16"/>
<polygon fill="black" stroke="black" points="764.45,-48.18 754.34,-45.01 760.27,-53.79 764.45,-48.18"/>
</g>
<!-- 50 -->
<g id="node33" class="node">
<title>50</title>
<ellipse fill="#b9d3ee" stroke="black" cx="1138.9" cy="-34" rx="16.8" ry="18"/>
<text text-anchor="middle" x="1138.9" y="-30.3" font-family="Times,serif" font-size="14.00">1</text>
</g>
<!-- 41&#45;&gt;50 -->
<g id="edge46" class="edge">
<title>41&#45;&gt;50</title>
<path fill="none" stroke="black" d="M1015.91,-96.11C1040.98,-86.48 1081.13,-70.05 1113.9,-52 1114.72,-51.55 1115.55,-51.07 1116.39,-50.58"/>
<polygon fill="black" stroke="black" points="1118.61,-53.32 1125.17,-45.01 1114.86,-47.41 1118.61,-53.32"/>
</g>
<!-- 52 -->
<g id="node35" class="node">
<title>52</title>
<ellipse fill="#b9d3ee" stroke="black" cx="1190.9" cy="-34" rx="16.8" ry="18"/>
<text text-anchor="middle" x="1190.9" y="-30.3" font-family="Times,serif" font-size="14.00">1</text>
</g>
<!-- 41&#45;&gt;52 -->
<g id="edge48" class="edge">
<title>41&#45;&gt;52</title>
<path fill="none" stroke="black" d="M1018.54,-99.31C1053.27,-91.34 1115.4,-75.19 1164.9,-52 1166.08,-51.45 1167.27,-50.85 1168.46,-50.21"/>
<polygon fill="black" stroke="black" points="1170.5,-53.07 1177.29,-44.93 1166.91,-47.06 1170.5,-53.07"/>
</g>
<!-- 56 -->
<g id="node39" class="node">
<title>56</title>
<ellipse fill="#b9d3ee" stroke="black" cx="792.9" cy="-34" rx="16.8" ry="18"/>
<text text-anchor="middle" x="792.9" y="-30.3" font-family="Times,serif" font-size="14.00">1</text>
</g>
<!-- 41&#45;&gt;56 -->
<g id="edge52" class="edge">
<title>41&#45;&gt;56</title>
<path fill="none" stroke="black" d="M965.25,-99.31C930.53,-91.34 868.39,-75.19 818.9,-52 817.72,-51.45 816.53,-50.85 815.34,-50.21"/>
<polygon fill="black" stroke="black" points="816.89,-47.06 806.51,-44.93 813.3,-53.07 816.89,-47.06"/>
</g>
<!-- 57 -->
<g id="node40" class="node">
<title>57</title>
<ellipse fill="#b9d3ee" stroke="black" cx="844.9" cy="-34" rx="16.8" ry="18"/>
<text text-anchor="middle" x="844.9" y="-30.3" font-family="Times,serif" font-size="14.00">1</text>
</g>
<!-- 41&#45;&gt;57 -->
<g id="edge53" class="edge">
<title>41&#45;&gt;57</title>
<path fill="none" stroke="black" d="M968.15,-95.96C943.35,-86.21 903.57,-69.68 870.9,-52 869.75,-51.38 868.59,-50.72 867.42,-50.05"/>
<polygon fill="black" stroke="black" points="869.01,-46.91 858.67,-44.61 865.32,-52.86 869.01,-46.91"/>
</g>
<!-- 514 -->
<g id="node47" class="node">
<title>514</title>
<ellipse fill="#b9d3ee" stroke="black" cx="896.9" cy="-34" rx="16.8" ry="18"/>
<text text-anchor="middle" x="896.9" y="-30.3" font-family="Times,serif" font-size="14.00">2</text>
</g>
<!-- 41&#45;&gt;514 -->
<g id="edge60" class="edge">
<title>41&#45;&gt;514</title>
<path fill="none" stroke="black" d="M974.03,-91.83C958.28,-80.23 935.31,-63.3 918.53,-50.94"/>
<polygon fill="black" stroke="black" points="920.52,-48.06 910.39,-44.94 916.36,-53.69 920.52,-48.06"/>
</g>
<!-- 528 -->
<g id="node61" class="node">
<title>528</title>
<ellipse fill="#b9d3ee" stroke="black" cx="948.9" cy="-34" rx="16.8" ry="18"/>
<text text-anchor="middle" x="948.9" y="-30.3" font-family="Times,serif" font-size="14.00">9</text>
</g>
<!-- 41&#45;&gt;528 -->
<g id="edge74" class="edge">
<title>41&#45;&gt;528</title>
<path fill="none" stroke="black" d="M981.93,-88.76C976.38,-79.74 969.38,-68.34 963.25,-58.37"/>
<polygon fill="black" stroke="black" points="966.16,-56.41 957.94,-49.72 960.19,-60.07 966.16,-56.41"/>
</g>
<!-- 529 -->
<g id="node62" class="node">
<title>529</title>
<ellipse fill="#b9d3ee" stroke="black" cx="1006.9" cy="-34" rx="23" ry="18"/>
<text text-anchor="middle" x="1006.9" y="-30.3" font-family="Times,serif" font-size="14.00">10</text>
</g>
<!-- 41&#45;&gt;529 -->
<g id="edge75" class="edge">
<title>41&#45;&gt;529</title>
<path fill="none" stroke="black" d="M995.53,-88.05C997.22,-80.14 999.28,-70.54 1001.18,-61.69"/>
<polygon fill="black" stroke="black" points="1004.63,-62.3 1003.3,-51.79 997.78,-60.83 1004.63,-62.3"/>
</g>
<!-- 537 -->
<g id="node70" class="node">
<title>537</title>
<ellipse fill="#b9d3ee" stroke="black" cx="1075.9" cy="-34" rx="28.7" ry="18"/>
<text text-anchor="middle" x="1075.9" y="-30.3" font-family="Times,serif" font-size="14.00">112</text>
</g>
<!-- 41&#45;&gt;537 -->
<g id="edge83" class="edge">
<title>41&#45;&gt;537</title>
<path fill="none" stroke="black" d="M1008.49,-91.17C1020.8,-80.91 1037.78,-66.77 1051.61,-55.24"/>
<polygon fill="black" stroke="black" points="1053.9,-57.89 1059.34,-48.8 1049.41,-52.51 1053.9,-57.89"/>
</g>
<!-- 59 -->
<g id="node42" class="node">
<title>59</title>
<ellipse fill="#b9d3ee" stroke="black" cx="16.9" cy="-34" rx="16.8" ry="18"/>
<text text-anchor="middle" x="16.9" y="-30.3" font-family="Times,serif" font-size="14.00">1</text>
</g>
<!-- 42&#45;&gt;59 -->
<g id="edge55" class="edge">
<title>42&#45;&gt;59</title>
<path fill="none" stroke="black" d="M58.87,-91.5C51.63,-81.75 41.68,-68.37 33.29,-57.07"/>
<polygon fill="black" stroke="black" points="36.02,-54.87 27.25,-48.93 30.4,-59.05 36.02,-54.87"/>
</g>
<!-- 510 -->
<g id="node43" class="node">
<title>510</title>
<ellipse fill="#b9d3ee" stroke="black" cx="68.9" cy="-34" rx="16.8" ry="18"/>
<text text-anchor="middle" x="68.9" y="-30.3" font-family="Times,serif" font-size="14.00">1</text>
</g>
<!-- 42&#45;&gt;510 -->
<g id="edge56" class="edge">
<title>42&#45;&gt;510</title>
<path fill="none" stroke="black" d="M68.9,-87.7C68.9,-79.98 68.9,-70.71 68.9,-62.11"/>
<polygon fill="black" stroke="black" points="72.4,-62.1 68.9,-52.1 65.4,-62.1 72.4,-62.1"/>
</g>
<!-- 51 -->
<g id="node34" class="node">
<title>51</title>
<ellipse fill="#b9d3ee" stroke="black" cx="1794.9" cy="-34" rx="16.8" ry="18"/>
<text text-anchor="middle" x="1794.9" y="-30.3" font-family="Times,serif" font-size="14.00">1</text>
</g>
<!-- 43&#45;&gt;51 -->
<g id="edge47" class="edge">
<title>43&#45;&gt;51</title>
<path fill="none" stroke="black" d="M1674.66,-94.5C1699.8,-84.63 1737.59,-68.88 1768.9,-52 1770.05,-51.38 1771.21,-50.73 1772.38,-50.05"/>
<polygon fill="black" stroke="black" points="1774.48,-52.87 1781.13,-44.62 1770.79,-46.92 1774.48,-52.87"/>
</g>
<!-- 58 -->
<g id="node41" class="node">
<title>58</title>
<ellipse fill="#b9d3ee" stroke="black" cx="1846.9" cy="-34" rx="16.8" ry="18"/>
<text text-anchor="middle" x="1846.9" y="-30.3" font-family="Times,serif" font-size="14.00">1</text>
</g>
<!-- 43&#45;&gt;58 -->
<g id="edge54" class="edge">
<title>43&#45;&gt;58</title>
<path fill="none" stroke="black" d="M1679.33,-98.04C1715.06,-89.71 1773.7,-74.07 1820.9,-52 1822.08,-51.45 1823.27,-50.85 1824.46,-50.21"/>
<polygon fill="black" stroke="black" points="1826.5,-53.07 1833.29,-44.93 1822.91,-47.06 1826.5,-53.07"/>
</g>
<!-- 512 -->
<g id="node45" class="node">
<title>512</title>
<ellipse fill="#b9d3ee" stroke="black" cx="1898.9" cy="-34" rx="16.8" ry="18"/>
<text text-anchor="middle" x="1898.9" y="-30.3" font-family="Times,serif" font-size="14.00">1</text>
</g>
<!-- 43&#45;&gt;512 -->
<g id="edge58" class="edge">
<title>43&#45;&gt;512</title>
<path fill="none" stroke="black" d="M1681.38,-100.72C1726.73,-94.26 1808.26,-79.69 1872.9,-52 1874.1,-51.49 1875.3,-50.92 1876.5,-50.31"/>
<polygon fill="black" stroke="black" points="1878.51,-53.19 1885.37,-45.12 1874.97,-47.15 1878.51,-53.19"/>
</g>
<!-- 516 -->
<g id="node49" class="node">
<title>516</title>
<ellipse fill="#b9d3ee" stroke="black" cx="1432.9" cy="-34" rx="16.8" ry="18"/>
<text text-anchor="middle" x="1432.9" y="-30.3" font-family="Times,serif" font-size="14.00">3</text>
</g>
<!-- 43&#45;&gt;516 -->
<g id="edge62" class="edge">
<title>43&#45;&gt;516</title>
<path fill="none" stroke="black" d="M1613.57,-98.81C1575.13,-90.95 1510.6,-75.52 1458.9,-52 1457.71,-51.46 1456.52,-50.87 1455.33,-50.24"/>
<polygon fill="black" stroke="black" points="1456.87,-47.09 1446.48,-44.99 1453.29,-53.11 1456.87,-47.09"/>
</g>
<!-- 517 -->
<g id="node50" class="node">
<title>517</title>
<ellipse fill="#b9d3ee" stroke="black" cx="1484.9" cy="-34" rx="16.8" ry="18"/>
<text text-anchor="middle" x="1484.9" y="-30.3" font-family="Times,serif" font-size="14.00">3</text>
</g>
<!-- 43&#45;&gt;517 -->
<g id="edge63" class="edge">
<title>43&#45;&gt;517</title>
<path fill="none" stroke="black" d="M1617.48,-95.52C1589.41,-86.02 1546.27,-70.21 1510.9,-52 1509.74,-51.4 1508.57,-50.77 1507.39,-50.1"/>
<polygon fill="black" stroke="black" points="1508.97,-46.96 1498.61,-44.73 1505.31,-52.93 1508.97,-46.96"/>
</g>
<!-- 518 -->
<g id="node51" class="node">
<title>518</title>
<ellipse fill="#b9d3ee" stroke="black" cx="1536.9" cy="-34" rx="16.8" ry="18"/>
<text text-anchor="middle" x="1536.9" y="-30.3" font-family="Times,serif" font-size="14.00">3</text>
</g>
<!-- 43&#45;&gt;518 -->
<g id="edge64" class="edge">
<title>43&#45;&gt;518</title>
<path fill="none" stroke="black" d="M1625.08,-91.37C1608.09,-80.72 1583.94,-65.51 1562.9,-52 1561.8,-51.3 1560.68,-50.57 1559.55,-49.84"/>
<polygon fill="black" stroke="black" points="1561.2,-46.74 1550.9,-44.22 1557.38,-52.6 1561.2,-46.74"/>
</g>
<!-- 527 -->
<g id="node60" class="node">
<title>527</title>
<ellipse fill="#b9d3ee" stroke="black" cx="1588.9" cy="-34" rx="16.8" ry="18"/>
<text text-anchor="middle" x="1588.9" y="-30.3" font-family="Times,serif" font-size="14.00">8</text>
</g>
<!-- 43&#45;&gt;527 -->
<g id="edge73" class="edge">
<title>43&#45;&gt;527</title>
<path fill="none" stroke="black" d="M1633.74,-89.12C1625.61,-79.31 1615.1,-66.62 1606.3,-56"/>
<polygon fill="black" stroke="black" points="1608.75,-53.48 1599.68,-48.01 1603.36,-57.94 1608.75,-53.48"/>
</g>
<!-- 531 -->
<g id="node64" class="node">
<title>531</title>
<ellipse fill="#b9d3ee" stroke="black" cx="1646.9" cy="-34" rx="23" ry="18"/>
<text text-anchor="middle" x="1646.9" y="-30.3" font-family="Times,serif" font-size="14.00">21</text>
</g>
<!-- 43&#45;&gt;531 -->
<g id="edge77" class="edge">
<title>43&#45;&gt;531</title>
<path fill="none" stroke="black" d="M1646.9,-87.7C1646.9,-79.98 1646.9,-70.71 1646.9,-62.11"/>
<polygon fill="black" stroke="black" points="1650.4,-62.1 1646.9,-52.1 1643.4,-62.1 1650.4,-62.1"/>
</g>
<!-- 541 -->
<g id="node74" class="node">
<title>541</title>
<ellipse fill="#b9d3ee" stroke="black" cx="1723.9" cy="-34" rx="36" ry="18"/>
<text text-anchor="middle" x="1723.9" y="-30.3" font-family="Times,serif" font-size="14.00">371</text>
</g>
<!-- 43&#45;&gt;541 -->
<g id="edge87" class="edge">
<title>43&#45;&gt;541</title>
<path fill="none" stroke="black" d="M1663.61,-89.81C1674.1,-80.27 1687.81,-67.8 1699.51,-57.17"/>
<polygon fill="black" stroke="black" points="1702.18,-59.48 1707.22,-50.16 1697.47,-54.3 1702.18,-59.48"/>
</g>
<!-- 53 -->
<g id="node36" class="node">
<title>53</title>
<ellipse fill="#b9d3ee" stroke="black" cx="390.9" cy="-34" rx="16.8" ry="18"/>
<text text-anchor="middle" x="390.9" y="-30.3" font-family="Times,serif" font-size="14.00">1</text>
</g>
<!-- 44&#45;&gt;53 -->
<g id="edge49" class="edge">
<title>44&#45;&gt;53</title>
<path fill="none" stroke="black" d="M541.5,-96.85C509.33,-87.93 458.3,-72.17 416.9,-52 415.73,-51.43 414.54,-50.81 413.36,-50.17"/>
<polygon fill="black" stroke="black" points="414.92,-47.02 404.55,-44.85 411.3,-53.01 414.92,-47.02"/>
</g>
<!-- 515 -->
<g id="node48" class="node">
<title>515</title>
<ellipse fill="#b9d3ee" stroke="black" cx="442.9" cy="-34" rx="16.8" ry="18"/>
<text text-anchor="middle" x="442.9" y="-30.3" font-family="Times,serif" font-size="14.00">3</text>
</g>
<!-- 44&#45;&gt;515 -->
<g id="edge61" class="edge">
<title>44&#45;&gt;515</title>
<path fill="none" stroke="black" d="M547.7,-93.1C526.38,-82.82 495.2,-67.24 468.9,-52 467.77,-51.35 466.62,-50.66 465.47,-49.96"/>
<polygon fill="black" stroke="black" points="467.08,-46.84 456.76,-44.46 463.34,-52.76 467.08,-46.84"/>
</g>
<!-- 522 -->
<g id="node55" class="node">
<title>522</title>
<ellipse fill="#b9d3ee" stroke="black" cx="494.9" cy="-34" rx="16.8" ry="18"/>
<text text-anchor="middle" x="494.9" y="-30.3" font-family="Times,serif" font-size="14.00">5</text>
</g>
<!-- 44&#45;&gt;522 -->
<g id="edge68" class="edge">
<title>44&#45;&gt;522</title>
<path fill="none" stroke="black" d="M555.97,-89.81C544.07,-79.12 528.06,-64.76 515.42,-53.42"/>
<polygon fill="black" stroke="black" points="517.46,-50.55 507.68,-46.47 512.79,-55.76 517.46,-50.55"/>
</g>
<!-- 524 -->
<g id="node57" class="node">
<title>524</title>
<ellipse fill="#b9d3ee" stroke="black" cx="546.9" cy="-34" rx="16.8" ry="18"/>
<text text-anchor="middle" x="546.9" y="-30.3" font-family="Times,serif" font-size="14.00">6</text>
</g>
<!-- 44&#45;&gt;524 -->
<g id="edge70" class="edge">
<title>44&#45;&gt;524</title>
<path fill="none" stroke="black" d="M566.6,-88.05C563.56,-79.85 559.84,-69.83 556.45,-60.71"/>
<polygon fill="black" stroke="black" points="559.72,-59.46 552.96,-51.31 553.16,-61.9 559.72,-59.46"/>
</g>
<!-- 526 -->
<g id="node59" class="node">
<title>526</title>
<ellipse fill="#b9d3ee" stroke="black" cx="598.9" cy="-34" rx="16.8" ry="18"/>
<text text-anchor="middle" x="598.9" y="-30.3" font-family="Times,serif" font-size="14.00">8</text>
</g>
<!-- 44&#45;&gt;526 -->
<g id="edge72" class="edge">
<title>44&#45;&gt;526</title>
<path fill="none" stroke="black" d="M579.19,-88.05C582.24,-79.85 585.96,-69.83 589.35,-60.71"/>
<polygon fill="black" stroke="black" points="592.64,-61.9 592.84,-51.31 586.08,-59.46 592.64,-61.9"/>
</g>
<!-- 542 -->
<g id="node75" class="node">
<title>542</title>
<ellipse fill="#b9d3ee" stroke="black" cx="669.9" cy="-34" rx="36" ry="18"/>
<text text-anchor="middle" x="669.9" y="-30.3" font-family="Times,serif" font-size="14.00">382</text>
</g>
<!-- 44&#45;&gt;542 -->
<g id="edge88" class="edge">
<title>44&#45;&gt;542</title>
<path fill="none" stroke="black" d="M592.53,-90.83C606.73,-80.59 626.12,-66.59 641.93,-55.18"/>
<polygon fill="black" stroke="black" points="644.24,-57.83 650.3,-49.14 640.14,-52.16 644.24,-57.83"/>
</g>
<!-- 521 -->
<g id="node54" class="node">
<title>521</title>
<ellipse fill="#b9d3ee" stroke="black" cx="2233.9" cy="-34" rx="16.8" ry="18"/>
<text text-anchor="middle" x="2233.9" y="-30.3" font-family="Times,serif" font-size="14.00">4</text>
</g>
<!-- 45&#45;&gt;521 -->
<g id="edge67" class="edge">
<title>45&#45;&gt;521</title>
<path fill="none" stroke="black" d="M2111.45,-98.45C2133.39,-89.03 2174.49,-70.71 2207.9,-52 2209.04,-51.36 2210.19,-50.69 2211.35,-50.01"/>
<polygon fill="black" stroke="black" points="2213.47,-52.81 2220.08,-44.54 2209.75,-46.88 2213.47,-52.81"/>
</g>
<!-- 523 -->
<g id="node56" class="node">
<title>523</title>
<ellipse fill="#b9d3ee" stroke="black" cx="2181.9" cy="-34" rx="16.8" ry="18"/>
<text text-anchor="middle" x="2181.9" y="-30.3" font-family="Times,serif" font-size="14.00">5</text>
</g>
<!-- 45&#45;&gt;523 -->
<g id="edge69" class="edge">
<title>45&#45;&gt;523</title>
<path fill="none" stroke="black" d="M2108.96,-94.37C2122.72,-83.16 2144.62,-65.35 2160.83,-52.15"/>
<polygon fill="black" stroke="black" points="2163.17,-54.76 2168.71,-45.73 2158.75,-49.33 2163.17,-54.76"/>
</g>
<!-- 55 -->
<g id="node38" class="node">
<title>55</title>
<ellipse fill="#b9d3ee" stroke="black" cx="2129.9" cy="-34" rx="16.8" ry="18"/>
<text text-anchor="middle" x="2129.9" y="-30.3" font-family="Times,serif" font-size="14.00">1</text>
</g>
<!-- 46&#45;&gt;55 -->
<g id="edge51" class="edge">
<title>46&#45;&gt;55</title>
<path fill="none" stroke="black" d="M2000.16,-97.6C2025.13,-88.19 2068.6,-70.89 2103.9,-52 2105.05,-51.38 2106.21,-50.73 2107.38,-50.06"/>
<polygon fill="black" stroke="black" points="2109.48,-52.88 2116.14,-44.64 2105.79,-46.92 2109.48,-52.88"/>
</g>
<!-- 520 -->
<g id="node53" class="node">
<title>520</title>
<ellipse fill="#b9d3ee" stroke="black" cx="1950.9" cy="-34" rx="16.8" ry="18"/>
<text text-anchor="middle" x="1950.9" y="-30.3" font-family="Times,serif" font-size="14.00">4</text>
</g>
<!-- 46&#45;&gt;520 -->
<g id="edge66" class="edge">
<title>46&#45;&gt;520</title>
<path fill="none" stroke="black" d="M1973.17,-88.76C1969.65,-80.25 1965.25,-69.64 1961.29,-60.09"/>
<polygon fill="black" stroke="black" points="1964.45,-58.56 1957.39,-50.67 1957.98,-61.24 1964.45,-58.56"/>
</g>
<!-- 532 -->
<g id="node65" class="node">
<title>532</title>
<ellipse fill="#b9d3ee" stroke="black" cx="2008.9" cy="-34" rx="23" ry="18"/>
<text text-anchor="middle" x="2008.9" y="-30.3" font-family="Times,serif" font-size="14.00">23</text>
</g>
<!-- 46&#45;&gt;532 -->
<g id="edge78" class="edge">
<title>46&#45;&gt;532</title>
<path fill="none" stroke="black" d="M1986.62,-88.76C1990.05,-80.49 1994.3,-70.23 1998.17,-60.9"/>
<polygon fill="black" stroke="black" points="2001.41,-62.21 2002.01,-51.63 1994.95,-59.53 2001.41,-62.21"/>
</g>
<!-- 533 -->
<g id="node66" class="node">
<title>533</title>
<ellipse fill="#b9d3ee" stroke="black" cx="2071.9" cy="-34" rx="23" ry="18"/>
<text text-anchor="middle" x="2071.9" y="-30.3" font-family="Times,serif" font-size="14.00">23</text>
</g>
<!-- 46&#45;&gt;533 -->
<g id="edge79" class="edge">
<title>46&#45;&gt;533</title>
<path fill="none" stroke="black" d="M1995.92,-92.81C2010.3,-81.87 2031.6,-65.66 2048,-53.19"/>
<polygon fill="black" stroke="black" points="2050.22,-55.89 2056.06,-47.05 2045.98,-50.32 2050.22,-55.89"/>
</g>
<!-- 54 -->
<g id="node37" class="node">
<title>54</title>
<ellipse fill="#b9d3ee" stroke="black" cx="2491.9" cy="-34" rx="16.8" ry="18"/>
<text text-anchor="middle" x="2491.9" y="-30.3" font-family="Times,serif" font-size="14.00">1</text>
</g>
<!-- 47&#45;&gt;54 -->
<g id="edge50" class="edge">
<title>47&#45;&gt;54</title>
<path fill="none" stroke="black" d="M2371.66,-94.5C2396.8,-84.63 2434.59,-68.88 2465.9,-52 2467.05,-51.38 2468.21,-50.73 2469.38,-50.05"/>
<polygon fill="black" stroke="black" points="2471.48,-52.87 2478.13,-44.62 2467.79,-46.92 2471.48,-52.87"/>
</g>
<!-- 525 -->
<g id="node58" class="node">
<title>525</title>
<ellipse fill="#b9d3ee" stroke="black" cx="2285.9" cy="-34" rx="16.8" ry="18"/>
<text text-anchor="middle" x="2285.9" y="-30.3" font-family="Times,serif" font-size="14.00">7</text>
</g>
<!-- 47&#45;&gt;525 -->
<g id="edge71" class="edge">
<title>47&#45;&gt;525</title>
<path fill="none" stroke="black" d="M2330.74,-89.12C2322.61,-79.31 2312.1,-66.62 2303.3,-56"/>
<polygon fill="black" stroke="black" points="2305.75,-53.48 2296.68,-48.01 2300.36,-57.94 2305.75,-53.48"/>
</g>
<!-- 536 -->
<g id="node69" class="node">
<title>536</title>
<ellipse fill="#b9d3ee" stroke="black" cx="2343.9" cy="-34" rx="23" ry="18"/>
<text text-anchor="middle" x="2343.9" y="-30.3" font-family="Times,serif" font-size="14.00">81</text>
</g>
<!-- 47&#45;&gt;536 -->
<g id="edge82" class="edge">
<title>47&#45;&gt;536</title>
<path fill="none" stroke="black" d="M2343.9,-87.7C2343.9,-79.98 2343.9,-70.71 2343.9,-62.11"/>
<polygon fill="black" stroke="black" points="2347.4,-62.1 2343.9,-52.1 2340.4,-62.1 2347.4,-62.1"/>
</g>
<!-- 539 -->
<g id="node72" class="node">
<title>539</title>
<ellipse fill="#b9d3ee" stroke="black" cx="2420.9" cy="-34" rx="36" ry="18"/>
<text text-anchor="middle" x="2420.9" y="-30.3" font-family="Times,serif" font-size="14.00">266</text>
</g>
<!-- 47&#45;&gt;539 -->
<g id="edge85" class="edge">
<title>47&#45;&gt;539</title>
<path fill="none" stroke="black" d="M2360.61,-89.81C2371.1,-80.27 2384.81,-67.8 2396.51,-57.17"/>
<polygon fill="black" stroke="black" points="2399.18,-59.48 2404.22,-50.16 2394.47,-54.3 2399.18,-59.48"/>
</g>
<!-- 519 -->
<g id="node52" class="node">
<title>519</title>
<ellipse fill="#b9d3ee" stroke="black" cx="274.9" cy="-34" rx="16.8" ry="18"/>
<text text-anchor="middle" x="274.9" y="-30.3" font-family="Times,serif" font-size="14.00">4</text>
</g>
<!-- 48&#45;&gt;519 -->
<g id="edge65" class="edge">
<title>48&#45;&gt;519</title>
<path fill="none" stroke="black" d="M274.9,-87.7C274.9,-79.98 274.9,-70.71 274.9,-62.11"/>
<polygon fill="black" stroke="black" points="278.4,-62.1 274.9,-52.1 271.4,-62.1 278.4,-62.1"/>
</g>
<!-- 530 -->
<g id="node63" class="node">
<title>530</title>
<ellipse fill="#b9d3ee" stroke="black" cx="332.9" cy="-34" rx="23" ry="18"/>
<text text-anchor="middle" x="332.9" y="-30.3" font-family="Times,serif" font-size="14.00">19</text>
</g>
<!-- 48&#45;&gt;530 -->
<g id="edge76" class="edge">
<title>48&#45;&gt;530</title>
<path fill="none" stroke="black" d="M288.06,-89.12C295.87,-79.69 305.88,-67.61 314.47,-57.25"/>
<polygon fill="black" stroke="black" points="317.29,-59.33 320.97,-49.39 311.9,-54.86 317.29,-59.33"/>
</g>
<!-- 535 -->
<g id="node68" class="node">
<title>535</title>
<ellipse fill="#b9d3ee" stroke="black" cx="126.9" cy="-34" rx="23" ry="18"/>
<text text-anchor="middle" x="126.9" y="-30.3" font-family="Times,serif" font-size="14.00">68</text>
</g>
<!-- 48&#45;&gt;535 -->
<g id="edge81" class="edge">
<title>48&#45;&gt;535</title>
<path fill="none" stroke="black" d="M248.43,-93.45C224.78,-83 189.28,-66.99 158.9,-52 157.35,-51.23 155.76,-50.44 154.16,-49.62"/>
<polygon fill="black" stroke="black" points="155.56,-46.41 145.08,-44.9 152.33,-52.62 155.56,-46.41"/>
</g>
<!-- 540 -->
<g id="node73" class="node">
<title>540</title>
<ellipse fill="#b9d3ee" stroke="black" cx="203.9" cy="-34" rx="36" ry="18"/>
<text text-anchor="middle" x="203.9" y="-30.3" font-family="Times,serif" font-size="14.00">294</text>
</g>
<!-- 48&#45;&gt;540 -->
<g id="edge86" class="edge">
<title>48&#45;&gt;540</title>
<path fill="none" stroke="black" d="M259.14,-89.46C249.67,-80.13 237.46,-68.09 226.92,-57.7"/>
<polygon fill="black" stroke="black" points="229.19,-55.02 219.61,-50.49 224.28,-60 229.19,-55.02"/>
</g>
<!-- 511 -->
<g id="node44" class="node">
<title>511</title>
<ellipse fill="#b9d3ee" stroke="black" cx="1242.9" cy="-34" rx="16.8" ry="18"/>
<text text-anchor="middle" x="1242.9" y="-30.3" font-family="Times,serif" font-size="14.00">1</text>
</g>
<!-- 49&#45;&gt;511 -->
<g id="edge57" class="edge">
<title>49&#45;&gt;511</title>
<path fill="none" stroke="black" d="M1287.74,-89.12C1279.61,-79.31 1269.1,-66.62 1260.3,-56"/>
<polygon fill="black" stroke="black" points="1262.75,-53.48 1253.68,-48.01 1257.36,-57.94 1262.75,-53.48"/>
</g>
<!-- 534 -->
<g id="node67" class="node">
<title>534</title>
<ellipse fill="#b9d3ee" stroke="black" cx="1300.9" cy="-34" rx="23" ry="18"/>
<text text-anchor="middle" x="1300.9" y="-30.3" font-family="Times,serif" font-size="14.00">66</text>
</g>
<!-- 49&#45;&gt;534 -->
<g id="edge80" class="edge">
<title>49&#45;&gt;534</title>
<path fill="none" stroke="black" d="M1300.9,-87.7C1300.9,-79.98 1300.9,-70.71 1300.9,-62.11"/>
<polygon fill="black" stroke="black" points="1304.4,-62.1 1300.9,-52.1 1297.4,-62.1 1304.4,-62.1"/>
</g>
<!-- 538 -->
<g id="node71" class="node">
<title>538</title>
<ellipse fill="#b9d3ee" stroke="black" cx="1369.9" cy="-34" rx="28.7" ry="18"/>
<text text-anchor="middle" x="1369.9" y="-30.3" font-family="Times,serif" font-size="14.00">176</text>
</g>
<!-- 49&#45;&gt;538 -->
<g id="edge84" class="edge">
<title>49&#45;&gt;538</title>
<path fill="none" stroke="black" d="M1316.21,-89.46C1325.54,-80 1337.61,-67.75 1347.95,-57.27"/>
<polygon fill="black" stroke="black" points="1350.57,-59.59 1355.1,-50.01 1345.59,-54.68 1350.57,-59.59"/>
</g>
<!-- legend_5 -->
<g id="node76" class="node">
<title>legend_5</title>
<polygon fill="#b9d3ee" stroke="black" points="2747.4,-52 2526.4,-52 2526.4,-16 2747.4,-16 2747.4,-52"/>
<text text-anchor="middle" x="2636.9" y="-30.3" font-family="Times,serif" font-size="14.00">DT=6 ST=1 Similarity=0.52</text>
</g>
<!-- legend_4&#45;&gt;legend_5 -->
<g id="edge89" class="edge">
<title>legend_4&#45;&gt;legend_5</title>
<path fill="none" stroke="black" d="M2636.9,-87.7C2636.9,-79.98 2636.9,-70.71 2636.9,-62.11"/>
<polygon fill="black" stroke="black" points="2640.4,-62.1 2636.9,-52.1 2633.4,-62.1 2640.4,-62.1"/>
</g>
</g>
</svg>
