<?xml version="1.0" encoding="UTF-8" standalone="no"?>
<!DOCTYPE svg PUBLIC "-//W3C//DTD SVG 1.1//EN"
 "http://www.w3.org/Graphics/SVG/1.1/DTD/svg11.dtd">
<!-- Generated by graphviz version 2.43.0 (0)
 -->
<!-- Title: %3 Pages: 1 -->
<svg width="2772pt" height="497pt"
 viewBox="0.00 0.00 2771.90 497.00" xmlns="http://www.w3.org/2000/svg" xmlns:xlink="http://www.w3.org/1999/xlink">
<g id="graph0" class="graph" transform="scale(1 1) rotate(0) translate(4 493)">
<title>%3</title>
<polygon fill="white" stroke="transparent" points="-4,4 -4,-493 2767.9,-493 2767.9,4 -4,4"/>
<text text-anchor="middle" x="1381.95" y="-473.8" font-family="Times,serif" font-size="14.00">ConsTree</text>
<text text-anchor="middle" x="1381.95" y="-458.8" font-family="Times,serif" font-size="14.00">Tree Quality = 1</text>
<g id="clust1" class="cluster">
<title>cluster</title>
<polygon fill="none" stroke="black" points="2519.9,-8 2519.9,-443 2755.9,-443 2755.9,-8 2519.9,-8"/>
<text text-anchor="middle" x="2637.9" y="-427.8" font-family="Times,serif" font-size="14.00">Legend</text>
</g>
<!-- 00 -->
<g id="node1" class="node">
<title>00</title>
<ellipse fill="#b9d3ee" stroke="black" cx="919.9" cy="-394" rx="144" ry="18"/>
<text text-anchor="middle" x="919.9" y="-390.3" font-family="Times,serif" font-size="14.00">912</text>
</g>
<!-- 10 -->
<g id="node4" class="node">
<title>10</title>
<ellipse fill="#b9d3ee" stroke="black" cx="874.9" cy="-322" rx="36" ry="18"/>
<text text-anchor="middle" x="874.9" y="-318.3" font-family="Times,serif" font-size="14.00">395</text>
</g>
<!-- 00&#45;&gt;10 -->
<g id="edge1" class="edge">
<title>00&#45;&gt;10</title>
<path fill="none" stroke="black" d="M908.77,-375.7C903.47,-367.44 897.01,-357.39 891.16,-348.3"/>
<polygon fill="black" stroke="black" points="893.94,-346.14 885.58,-339.62 888.05,-349.93 893.94,-346.14"/>
</g>
<!-- 11 -->
<g id="node5" class="node">
<title>11</title>
<ellipse fill="#b9d3ee" stroke="black" cx="1036.9" cy="-322" rx="108" ry="18"/>
<text text-anchor="middle" x="1036.9" y="-318.3" font-family="Times,serif" font-size="14.00">822</text>
</g>
<!-- 00&#45;&gt;11 -->
<g id="edge3" class="edge">
<title>00&#45;&gt;11</title>
<path fill="none" stroke="black" d="M947.92,-376.23C963.55,-366.88 983.21,-355.12 1000.07,-345.04"/>
<polygon fill="black" stroke="black" points="1002.32,-347.77 1009.1,-339.63 998.72,-341.76 1002.32,-347.77"/>
</g>
<!-- 12 -->
<g id="node6" class="node">
<title>12</title>
<ellipse fill="#b9d3ee" stroke="black" cx="1270.9" cy="-322" rx="108" ry="18"/>
<text text-anchor="middle" x="1270.9" y="-318.3" font-family="Times,serif" font-size="14.00">783</text>
</g>
<!-- 00&#45;&gt;12 -->
<g id="edge5" class="edge">
<title>00&#45;&gt;12</title>
<path fill="none" stroke="black" d="M993.05,-378.41C1051.93,-366.67 1134.43,-350.22 1194.22,-338.29"/>
<polygon fill="black" stroke="black" points="1195.24,-341.66 1204.36,-336.27 1193.87,-334.79 1195.24,-341.66"/>
</g>
<!-- 01 -->
<g id="node2" class="node">
<title>01</title>
<ellipse fill="#b9d3ee" stroke="black" cx="1225.9" cy="-394" rx="144" ry="18"/>
<text text-anchor="middle" x="1225.9" y="-390.3" font-family="Times,serif" font-size="14.00">1088</text>
</g>
<!-- 01&#45;&gt;10 -->
<g id="edge2" class="edge">
<title>01&#45;&gt;10</title>
<path fill="none" stroke="black" d="M1127.7,-380.83C1067.17,-372.14 988.3,-358.66 919.9,-340 917.1,-339.24 914.24,-338.37 911.38,-337.44"/>
<polygon fill="black" stroke="black" points="912.35,-334.07 901.75,-334.09 910.05,-340.68 912.35,-334.07"/>
</g>
<!-- 01&#45;&gt;11 -->
<g id="edge4" class="edge">
<title>01&#45;&gt;11</title>
<path fill="none" stroke="black" d="M1182.06,-376.76C1154.24,-366.46 1118.09,-353.07 1088.83,-342.24"/>
<polygon fill="black" stroke="black" points="1089.79,-338.86 1079.2,-338.67 1087.36,-345.42 1089.79,-338.86"/>
</g>
<!-- 01&#45;&gt;12 -->
<g id="edge6" class="edge">
<title>01&#45;&gt;12</title>
<path fill="none" stroke="black" d="M1237.02,-375.7C1242.25,-367.56 1248.6,-357.69 1254.38,-348.7"/>
<polygon fill="black" stroke="black" points="1257.44,-350.41 1259.9,-340.1 1251.55,-346.62 1257.44,-350.41"/>
</g>
<!-- legend_0 -->
<g id="node3" class="node">
<title>legend_0</title>
<polygon fill="#b9d3ee" stroke="black" points="2748.4,-412 2527.4,-412 2527.4,-376 2748.4,-376 2748.4,-412"/>
<text text-anchor="middle" x="2637.9" y="-390.3" font-family="Times,serif" font-size="14.00">DT=1 ST=1 Similarity=0.49</text>
</g>
<!-- legend_1 -->
<g id="node7" class="node">
<title>legend_1</title>
<polygon fill="#b9d3ee" stroke="black" points="2748.4,-340 2527.4,-340 2527.4,-304 2748.4,-304 2748.4,-340"/>
<text text-anchor="middle" x="2637.9" y="-318.3" font-family="Times,serif" font-size="14.00">DT=2 ST=1 Similarity=0.54</text>
</g>
<!-- legend_0&#45;&gt;legend_1 -->
<g id="edge7" class="edge">
<title>legend_0&#45;&gt;legend_1</title>
<path fill="none" stroke="black" d="M2637.9,-375.7C2637.9,-367.98 2637.9,-358.71 2637.9,-350.11"/>
<polygon fill="black" stroke="black" points="2641.4,-350.1 2637.9,-340.1 2634.4,-350.1 2641.4,-350.1"/>
</g>
<!-- 20 -->
<g id="node8" class="node">
<title>20</title>
<ellipse fill="#b9d3ee" stroke="black" cx="874.9" cy="-250" rx="36" ry="18"/>
<text text-anchor="middle" x="874.9" y="-246.3" font-family="Times,serif" font-size="14.00">395</text>
</g>
<!-- 10&#45;&gt;20 -->
<g id="edge8" class="edge">
<title>10&#45;&gt;20</title>
<path fill="none" stroke="black" d="M874.9,-303.7C874.9,-295.98 874.9,-286.71 874.9,-278.11"/>
<polygon fill="black" stroke="black" points="878.4,-278.1 874.9,-268.1 871.4,-278.1 878.4,-278.1"/>
</g>
<!-- 23 -->
<g id="node11" class="node">
<title>23</title>
<ellipse fill="#b9d3ee" stroke="black" cx="1073.9" cy="-250" rx="36" ry="18"/>
<text text-anchor="middle" x="1073.9" y="-246.3" font-family="Times,serif" font-size="14.00">419</text>
</g>
<!-- 10&#45;&gt;23 -->
<g id="edge13" class="edge">
<title>10&#45;&gt;23</title>
<path fill="none" stroke="black" d="M902.94,-310.26C908.54,-308.15 914.4,-305.98 919.9,-304 959.02,-289.88 1004.02,-274.49 1035.23,-263.95"/>
<polygon fill="black" stroke="black" points="1036.5,-267.22 1044.86,-260.71 1034.26,-260.59 1036.5,-267.22"/>
</g>
<!-- 11&#45;&gt;20 -->
<g id="edge9" class="edge">
<title>11&#45;&gt;20</title>
<path fill="none" stroke="black" d="M999.73,-304.94C972.94,-293.36 937,-277.83 910.56,-266.41"/>
<polygon fill="black" stroke="black" points="911.85,-263.16 901.29,-262.4 909.08,-269.58 911.85,-263.16"/>
</g>
<!-- 21 -->
<g id="node9" class="node">
<title>21</title>
<ellipse fill="#b9d3ee" stroke="black" cx="1181.9" cy="-250" rx="36" ry="18"/>
<text text-anchor="middle" x="1181.9" y="-246.3" font-family="Times,serif" font-size="14.00">393</text>
</g>
<!-- 11&#45;&gt;21 -->
<g id="edge10" class="edge">
<title>11&#45;&gt;21</title>
<path fill="none" stroke="black" d="M1070.53,-304.76C1093.62,-293.62 1124.17,-278.87 1147.44,-267.64"/>
<polygon fill="black" stroke="black" points="1149.12,-270.71 1156.6,-263.21 1146.07,-264.41 1149.12,-270.71"/>
</g>
<!-- 22 -->
<g id="node10" class="node">
<title>22</title>
<ellipse fill="#b9d3ee" stroke="black" cx="964.9" cy="-250" rx="36" ry="18"/>
<text text-anchor="middle" x="964.9" y="-246.3" font-family="Times,serif" font-size="14.00">405</text>
</g>
<!-- 11&#45;&gt;22 -->
<g id="edge12" class="edge">
<title>11&#45;&gt;22</title>
<path fill="none" stroke="black" d="M1019.47,-304.05C1010.05,-294.9 998.3,-283.47 988.11,-273.57"/>
<polygon fill="black" stroke="black" points="990.3,-270.82 980.69,-266.36 985.42,-275.84 990.3,-270.82"/>
</g>
<!-- 11&#45;&gt;23 -->
<g id="edge14" class="edge">
<title>11&#45;&gt;23</title>
<path fill="none" stroke="black" d="M1045.86,-304.05C1050.17,-295.89 1055.45,-285.91 1060.25,-276.82"/>
<polygon fill="black" stroke="black" points="1063.45,-278.27 1065.02,-267.79 1057.26,-274.99 1063.45,-278.27"/>
</g>
<!-- 12&#45;&gt;21 -->
<g id="edge11" class="edge">
<title>12&#45;&gt;21</title>
<path fill="none" stroke="black" d="M1249.35,-304.05C1237.12,-294.43 1221.69,-282.29 1208.68,-272.06"/>
<polygon fill="black" stroke="black" points="1210.56,-269.09 1200.53,-265.66 1206.23,-274.59 1210.56,-269.09"/>
</g>
<!-- 12&#45;&gt;23 -->
<g id="edge15" class="edge">
<title>12&#45;&gt;23</title>
<path fill="none" stroke="black" d="M1227.18,-305.46C1192.66,-293.2 1144.99,-276.26 1112.01,-264.54"/>
<polygon fill="black" stroke="black" points="1112.88,-261.14 1102.28,-261.09 1110.53,-267.73 1112.88,-261.14"/>
</g>
<!-- 24 -->
<g id="node12" class="node">
<title>24</title>
<ellipse fill="#b9d3ee" stroke="black" cx="1271.9" cy="-250" rx="36" ry="18"/>
<text text-anchor="middle" x="1271.9" y="-246.3" font-family="Times,serif" font-size="14.00">388</text>
</g>
<!-- 12&#45;&gt;24 -->
<g id="edge16" class="edge">
<title>12&#45;&gt;24</title>
<path fill="none" stroke="black" d="M1271.15,-303.7C1271.26,-295.98 1271.39,-286.71 1271.51,-278.11"/>
<polygon fill="black" stroke="black" points="1275.01,-278.15 1271.65,-268.1 1268.01,-278.05 1275.01,-278.15"/>
</g>
<!-- legend_2 -->
<g id="node13" class="node">
<title>legend_2</title>
<polygon fill="#b9d3ee" stroke="black" points="2748.4,-268 2527.4,-268 2527.4,-232 2748.4,-232 2748.4,-268"/>
<text text-anchor="middle" x="2637.9" y="-246.3" font-family="Times,serif" font-size="14.00">DT=3 ST=1 Similarity=0.67</text>
</g>
<!-- legend_1&#45;&gt;legend_2 -->
<g id="edge17" class="edge">
<title>legend_1&#45;&gt;legend_2</title>
<path fill="none" stroke="black" d="M2637.9,-303.7C2637.9,-295.98 2637.9,-286.71 2637.9,-278.11"/>
<polygon fill="black" stroke="black" points="2641.4,-278.1 2637.9,-268.1 2634.4,-278.1 2641.4,-278.1"/>
</g>
<!-- 30 -->
<g id="node14" class="node">
<title>30</title>
<polygon fill="darkseagreen" stroke="black" points="481.9,-196 455.9,-196 455.9,-160 481.9,-160 481.9,-196"/>
<text text-anchor="middle" x="468.9" y="-174.3" font-family="Times,serif" font-size="14.00">1</text>
</g>
<!-- 20&#45;&gt;30 -->
<g id="edge18" class="edge">
<title>20&#45;&gt;30</title>
<path fill="none" stroke="black" d="M841.33,-243.21C761.24,-229.4 560.58,-194.81 492.17,-183.01"/>
<polygon fill="black" stroke="black" points="492.47,-179.51 482.02,-181.26 491.28,-186.41 492.47,-179.51"/>
</g>
<!-- 33 -->
<g id="node17" class="node">
<title>33</title>
<polygon fill="darkseagreen" stroke="black" points="910.9,-196 838.9,-196 838.9,-160 910.9,-160 910.9,-196"/>
<text text-anchor="middle" x="874.9" y="-174.3" font-family="Times,serif" font-size="14.00">425</text>
</g>
<!-- 20&#45;&gt;33 -->
<g id="edge22" class="edge">
<title>20&#45;&gt;33</title>
<path fill="none" stroke="black" d="M874.9,-231.7C874.9,-223.98 874.9,-214.71 874.9,-206.11"/>
<polygon fill="black" stroke="black" points="878.4,-206.1 874.9,-196.1 871.4,-206.1 878.4,-206.1"/>
</g>
<!-- 35 -->
<g id="node19" class="node">
<title>35</title>
<polygon fill="darkseagreen" stroke="black" points="1218.9,-196 1146.9,-196 1146.9,-160 1218.9,-160 1218.9,-196"/>
<text text-anchor="middle" x="1182.9" y="-174.3" font-family="Times,serif" font-size="14.00">398</text>
</g>
<!-- 20&#45;&gt;35 -->
<g id="edge26" class="edge">
<title>20&#45;&gt;35</title>
<path fill="none" stroke="black" d="M901.74,-237.87C907.65,-235.7 913.93,-233.6 919.9,-232 1011.68,-207.34 1041.17,-220.55 1136.96,-195.94"/>
<polygon fill="black" stroke="black" points="1137.98,-199.3 1146.75,-193.36 1136.19,-192.53 1137.98,-199.3"/>
</g>
<!-- 32 -->
<g id="node16" class="node">
<title>32</title>
<polygon fill="darkseagreen" stroke="black" points="1606.9,-196 1534.9,-196 1534.9,-160 1606.9,-160 1606.9,-196"/>
<text text-anchor="middle" x="1570.9" y="-174.3" font-family="Times,serif" font-size="14.00">397</text>
</g>
<!-- 21&#45;&gt;32 -->
<g id="edge20" class="edge">
<title>21&#45;&gt;32</title>
<path fill="none" stroke="black" d="M1208.73,-237.82C1214.64,-235.65 1220.92,-233.57 1226.9,-232 1331.47,-204.51 1457.91,-189.56 1524.57,-183.05"/>
<polygon fill="black" stroke="black" points="1525.12,-186.51 1534.74,-182.07 1524.45,-179.54 1525.12,-186.51"/>
</g>
<!-- 34 -->
<g id="node18" class="node">
<title>34</title>
<polygon fill="darkseagreen" stroke="black" points="1128.9,-196 1056.9,-196 1056.9,-160 1128.9,-160 1128.9,-196"/>
<text text-anchor="middle" x="1092.9" y="-174.3" font-family="Times,serif" font-size="14.00">420</text>
</g>
<!-- 21&#45;&gt;34 -->
<g id="edge24" class="edge">
<title>21&#45;&gt;34</title>
<path fill="none" stroke="black" d="M1163.46,-234.5C1151.74,-225.28 1136.29,-213.13 1122.84,-202.55"/>
<polygon fill="black" stroke="black" points="1124.8,-199.63 1114.77,-196.2 1120.47,-205.14 1124.8,-199.63"/>
</g>
<!-- 21&#45;&gt;35 -->
<g id="edge27" class="edge">
<title>21&#45;&gt;35</title>
<path fill="none" stroke="black" d="M1182.15,-231.7C1182.26,-223.98 1182.39,-214.71 1182.51,-206.11"/>
<polygon fill="black" stroke="black" points="1186.01,-206.15 1182.65,-196.1 1179.01,-206.05 1186.01,-206.15"/>
</g>
<!-- 31 -->
<g id="node15" class="node">
<title>31</title>
<polygon fill="darkseagreen" stroke="black" points="1000.9,-196 928.9,-196 928.9,-160 1000.9,-160 1000.9,-196"/>
<text text-anchor="middle" x="964.9" y="-174.3" font-family="Times,serif" font-size="14.00">359</text>
</g>
<!-- 22&#45;&gt;31 -->
<g id="edge19" class="edge">
<title>22&#45;&gt;31</title>
<path fill="none" stroke="black" d="M964.9,-231.7C964.9,-223.98 964.9,-214.71 964.9,-206.11"/>
<polygon fill="black" stroke="black" points="968.4,-206.1 964.9,-196.1 961.4,-206.1 968.4,-206.1"/>
</g>
<!-- 22&#45;&gt;33 -->
<g id="edge23" class="edge">
<title>22&#45;&gt;33</title>
<path fill="none" stroke="black" d="M946.25,-234.5C934.4,-225.28 918.78,-213.13 905.17,-202.55"/>
<polygon fill="black" stroke="black" points="907.06,-199.58 897.02,-196.2 902.76,-205.11 907.06,-199.58"/>
</g>
<!-- 23&#45;&gt;34 -->
<g id="edge25" class="edge">
<title>23&#45;&gt;34</title>
<path fill="none" stroke="black" d="M1078.5,-232.05C1080.61,-224.26 1083.18,-214.82 1085.55,-206.08"/>
<polygon fill="black" stroke="black" points="1088.97,-206.84 1088.21,-196.28 1082.21,-205.01 1088.97,-206.84"/>
</g>
<!-- 24&#45;&gt;32 -->
<g id="edge21" class="edge">
<title>24&#45;&gt;32</title>
<path fill="none" stroke="black" d="M1303.9,-241.51C1356.98,-229.08 1463.47,-204.15 1524.71,-189.81"/>
<polygon fill="black" stroke="black" points="1525.56,-193.21 1534.5,-187.52 1523.96,-186.39 1525.56,-193.21"/>
</g>
<!-- 24&#45;&gt;35 -->
<g id="edge28" class="edge">
<title>24&#45;&gt;35</title>
<path fill="none" stroke="black" d="M1253.46,-234.5C1241.74,-225.28 1226.29,-213.13 1212.84,-202.55"/>
<polygon fill="black" stroke="black" points="1214.8,-199.63 1204.77,-196.2 1210.47,-205.14 1214.8,-199.63"/>
</g>
<!-- legend_3 -->
<g id="node20" class="node">
<title>legend_3</title>
<polygon fill="darkseagreen" stroke="black" points="2748.4,-196 2527.4,-196 2527.4,-160 2748.4,-160 2748.4,-196"/>
<text text-anchor="middle" x="2637.9" y="-174.3" font-family="Times,serif" font-size="14.00">DT=4 ST=1 Similarity=0.68</text>
</g>
<!-- legend_2&#45;&gt;legend_3 -->
<g id="edge29" class="edge">
<title>legend_2&#45;&gt;legend_3</title>
<path fill="none" stroke="black" d="M2637.9,-231.7C2637.9,-223.98 2637.9,-214.71 2637.9,-206.11"/>
<polygon fill="black" stroke="black" points="2641.4,-206.1 2637.9,-196.1 2634.4,-206.1 2641.4,-206.1"/>
</g>
<!-- 40 -->
<g id="node21" class="node">
<title>40</title>
<ellipse fill="#b9d3ee" stroke="black" cx="45.9" cy="-106" rx="16.8" ry="18"/>
<text text-anchor="middle" x="45.9" y="-102.3" font-family="Times,serif" font-size="14.00">1</text>
</g>
<!-- 30&#45;&gt;40 -->
<g id="edge30" class="edge">
<title>30&#45;&gt;40</title>
<path fill="none" stroke="black" d="M455.85,-175.21C410.45,-168.94 255.23,-147.08 127.9,-124 109.42,-120.65 88.71,-116.35 72.72,-112.92"/>
<polygon fill="black" stroke="black" points="73.01,-109.4 62.5,-110.7 71.53,-116.24 73.01,-109.4"/>
</g>
<!-- 43 -->
<g id="node24" class="node">
<title>43</title>
<ellipse fill="#b9d3ee" stroke="black" cx="408.9" cy="-106" rx="23" ry="18"/>
<text text-anchor="middle" x="408.9" y="-102.3" font-family="Times,serif" font-size="14.00">51</text>
</g>
<!-- 31&#45;&gt;43 -->
<g id="edge33" class="edge">
<title>31&#45;&gt;43</title>
<path fill="none" stroke="black" d="M928.81,-162.42C925.82,-161.5 922.83,-160.68 919.9,-160 755.07,-121.76 709.05,-142.81 540.9,-124 506.84,-120.19 467.94,-115.09 441.24,-111.47"/>
<polygon fill="black" stroke="black" points="441.67,-108 431.29,-110.12 440.73,-114.93 441.67,-108"/>
</g>
<!-- 46 -->
<g id="node27" class="node">
<title>46</title>
<ellipse fill="#b9d3ee" stroke="black" cx="585.9" cy="-106" rx="36" ry="18"/>
<text text-anchor="middle" x="585.9" y="-102.3" font-family="Times,serif" font-size="14.00">354</text>
</g>
<!-- 31&#45;&gt;46 -->
<g id="edge38" class="edge">
<title>31&#45;&gt;46</title>
<path fill="none" stroke="black" d="M928.76,-162.62C925.78,-161.66 922.8,-160.77 919.9,-160 818.57,-133.12 696.1,-117.95 631.28,-111.24"/>
<polygon fill="black" stroke="black" points="631.31,-107.72 621,-110.19 630.6,-114.69 631.31,-107.72"/>
</g>
<!-- 48 -->
<g id="node29" class="node">
<title>48</title>
<ellipse fill="#b9d3ee" stroke="black" cx="1354.9" cy="-106" rx="36" ry="18"/>
<text text-anchor="middle" x="1354.9" y="-102.3" font-family="Times,serif" font-size="14.00">413</text>
</g>
<!-- 31&#45;&gt;48 -->
<g id="edge40" class="edge">
<title>31&#45;&gt;48</title>
<path fill="none" stroke="black" d="M1001.21,-169.31C1015.71,-166.3 1032.58,-162.89 1047.9,-160 1141.41,-142.36 1251.39,-123.93 1311.04,-114.13"/>
<polygon fill="black" stroke="black" points="1311.92,-117.53 1321.22,-112.46 1310.79,-110.63 1311.92,-117.53"/>
</g>
<!-- 41 -->
<g id="node22" class="node">
<title>41</title>
<ellipse fill="#b9d3ee" stroke="black" cx="2118.9" cy="-106" rx="16.8" ry="18"/>
<text text-anchor="middle" x="2118.9" y="-102.3" font-family="Times,serif" font-size="14.00">2</text>
</g>
<!-- 32&#45;&gt;41 -->
<g id="edge31" class="edge">
<title>32&#45;&gt;41</title>
<path fill="none" stroke="black" d="M1607.28,-172.35C1710.19,-159.21 2001.75,-121.96 2091.96,-110.44"/>
<polygon fill="black" stroke="black" points="2092.46,-113.91 2101.93,-109.17 2091.57,-106.96 2092.46,-113.91"/>
</g>
<!-- 47 -->
<g id="node28" class="node">
<title>47</title>
<ellipse fill="#b9d3ee" stroke="black" cx="2303.9" cy="-106" rx="36" ry="18"/>
<text text-anchor="middle" x="2303.9" y="-102.3" font-family="Times,serif" font-size="14.00">388</text>
</g>
<!-- 32&#45;&gt;47 -->
<g id="edge39" class="edge">
<title>32&#45;&gt;47</title>
<path fill="none" stroke="black" d="M1607.18,-173.83C1697.87,-165.88 1941.75,-144.24 2144.9,-124 2183.37,-120.17 2227.03,-115.47 2258.86,-111.99"/>
<polygon fill="black" stroke="black" points="2259.62,-115.43 2269.17,-110.86 2258.85,-108.47 2259.62,-115.43"/>
</g>
<!-- 32&#45;&gt;48 -->
<g id="edge41" class="edge">
<title>32&#45;&gt;48</title>
<path fill="none" stroke="black" d="M1534.74,-165.28C1495.77,-152.65 1433.96,-132.62 1393.91,-119.64"/>
<polygon fill="black" stroke="black" points="1394.82,-116.26 1384.23,-116.5 1392.66,-122.92 1394.82,-116.26"/>
</g>
<!-- 49 -->
<g id="node30" class="node">
<title>49</title>
<ellipse fill="#b9d3ee" stroke="black" cx="1822.9" cy="-106" rx="36" ry="18"/>
<text text-anchor="middle" x="1822.9" y="-102.3" font-family="Times,serif" font-size="14.00">404</text>
</g>
<!-- 32&#45;&gt;49 -->
<g id="edge43" class="edge">
<title>32&#45;&gt;49</title>
<path fill="none" stroke="black" d="M1607,-166.97C1653.38,-154.09 1733.66,-131.79 1782.17,-118.31"/>
<polygon fill="black" stroke="black" points="1783.31,-121.63 1792.01,-115.58 1781.44,-114.88 1783.31,-121.63"/>
</g>
<!-- 33&#45;&gt;43 -->
<g id="edge34" class="edge">
<title>33&#45;&gt;43</title>
<path fill="none" stroke="black" d="M838.72,-171.57C750.44,-158.3 525.07,-124.45 441.08,-111.83"/>
<polygon fill="black" stroke="black" points="441.52,-108.36 431.11,-110.34 440.48,-115.28 441.52,-108.36"/>
</g>
<!-- 44 -->
<g id="node25" class="node">
<title>44</title>
<ellipse fill="#b9d3ee" stroke="black" cx="874.9" cy="-106" rx="28.7" ry="18"/>
<text text-anchor="middle" x="874.9" y="-102.3" font-family="Times,serif" font-size="14.00">135</text>
</g>
<!-- 33&#45;&gt;44 -->
<g id="edge35" class="edge">
<title>33&#45;&gt;44</title>
<path fill="none" stroke="black" d="M874.9,-159.7C874.9,-151.98 874.9,-142.71 874.9,-134.11"/>
<polygon fill="black" stroke="black" points="878.4,-134.1 874.9,-124.1 871.4,-134.1 878.4,-134.1"/>
</g>
<!-- 45 -->
<g id="node26" class="node">
<title>45</title>
<ellipse fill="#b9d3ee" stroke="black" cx="172.9" cy="-106" rx="36" ry="18"/>
<text text-anchor="middle" x="172.9" y="-102.3" font-family="Times,serif" font-size="14.00">243</text>
</g>
<!-- 33&#45;&gt;45 -->
<g id="edge37" class="edge">
<title>33&#45;&gt;45</title>
<path fill="none" stroke="black" d="M838.63,-173.38C720.68,-161.62 348.06,-124.47 218.12,-111.51"/>
<polygon fill="black" stroke="black" points="218.41,-108.02 208.11,-110.51 217.71,-114.99 218.41,-108.02"/>
</g>
<!-- 33&#45;&gt;49 -->
<g id="edge44" class="edge">
<title>33&#45;&gt;49</title>
<path fill="none" stroke="black" d="M910.96,-162.3C913.95,-161.41 916.96,-160.63 919.9,-160 1003.96,-142.09 1604.59,-116.05 1776.84,-108.89"/>
<polygon fill="black" stroke="black" points="1777.24,-112.37 1787.08,-108.46 1776.95,-105.38 1777.24,-112.37"/>
</g>
<!-- 42 -->
<g id="node23" class="node">
<title>42</title>
<ellipse fill="#b9d3ee" stroke="black" cx="1092.9" cy="-106" rx="16.8" ry="18"/>
<text text-anchor="middle" x="1092.9" y="-102.3" font-family="Times,serif" font-size="14.00">9</text>
</g>
<!-- 34&#45;&gt;42 -->
<g id="edge32" class="edge">
<title>34&#45;&gt;42</title>
<path fill="none" stroke="black" d="M1092.9,-159.7C1092.9,-151.98 1092.9,-142.71 1092.9,-134.11"/>
<polygon fill="black" stroke="black" points="1096.4,-134.1 1092.9,-124.1 1089.4,-134.1 1096.4,-134.1"/>
</g>
<!-- 34&#45;&gt;48 -->
<g id="edge42" class="edge">
<title>34&#45;&gt;48</title>
<path fill="none" stroke="black" d="M1129.12,-162.88C1132.07,-161.87 1135.03,-160.89 1137.9,-160 1197.7,-141.48 1268.37,-125.24 1312.42,-115.77"/>
<polygon fill="black" stroke="black" points="1313.16,-119.19 1322.21,-113.68 1311.7,-112.35 1313.16,-119.19"/>
</g>
<!-- 35&#45;&gt;44 -->
<g id="edge36" class="edge">
<title>35&#45;&gt;44</title>
<path fill="none" stroke="black" d="M1146.72,-162.76C1143.75,-161.76 1140.79,-160.83 1137.9,-160 1058.96,-137.3 963.97,-120.72 912.51,-112.61"/>
<polygon fill="black" stroke="black" points="912.93,-109.13 902.51,-111.05 911.85,-116.05 912.93,-109.13"/>
</g>
<!-- 35&#45;&gt;49 -->
<g id="edge45" class="edge">
<title>35&#45;&gt;49</title>
<path fill="none" stroke="black" d="M1219.14,-173.04C1328.86,-161.04 1657.24,-125.12 1777.83,-111.93"/>
<polygon fill="black" stroke="black" points="1778.28,-115.4 1787.84,-110.83 1777.52,-108.44 1778.28,-115.4"/>
</g>
<!-- legend_4 -->
<g id="node31" class="node">
<title>legend_4</title>
<polygon fill="#b9d3ee" stroke="black" points="2748.4,-124 2527.4,-124 2527.4,-88 2748.4,-88 2748.4,-124"/>
<text text-anchor="middle" x="2637.9" y="-102.3" font-family="Times,serif" font-size="14.00">DT=5 ST=1 Similarity=0.64</text>
</g>
<!-- legend_3&#45;&gt;legend_4 -->
<g id="edge46" class="edge">
<title>legend_3&#45;&gt;legend_4</title>
<path fill="none" stroke="black" d="M2637.9,-159.7C2637.9,-151.98 2637.9,-142.71 2637.9,-134.11"/>
<polygon fill="black" stroke="black" points="2641.4,-134.1 2637.9,-124.1 2634.4,-134.1 2641.4,-134.1"/>
</g>
<!-- 513 -->
<g id="node45" class="node">
<title>513</title>
<ellipse fill="#b9d3ee" stroke="black" cx="16.9" cy="-34" rx="16.8" ry="18"/>
<text text-anchor="middle" x="16.9" y="-30.3" font-family="Times,serif" font-size="14.00">1</text>
</g>
<!-- 40&#45;&gt;513 -->
<g id="edge60" class="edge">
<title>40&#45;&gt;513</title>
<path fill="none" stroke="black" d="M39.32,-89.12C35.8,-80.61 31.37,-69.94 27.39,-60.32"/>
<polygon fill="black" stroke="black" points="30.51,-58.72 23.45,-50.82 24.05,-61.4 30.51,-58.72"/>
</g>
<!-- 59 -->
<g id="node41" class="node">
<title>59</title>
<ellipse fill="#b9d3ee" stroke="black" cx="2118.9" cy="-34" rx="16.8" ry="18"/>
<text text-anchor="middle" x="2118.9" y="-30.3" font-family="Times,serif" font-size="14.00">1</text>
</g>
<!-- 41&#45;&gt;59 -->
<g id="edge56" class="edge">
<title>41&#45;&gt;59</title>
<path fill="none" stroke="black" d="M2118.9,-87.7C2118.9,-79.98 2118.9,-70.71 2118.9,-62.11"/>
<polygon fill="black" stroke="black" points="2122.4,-62.1 2118.9,-52.1 2115.4,-62.1 2122.4,-62.1"/>
</g>
<!-- 510 -->
<g id="node42" class="node">
<title>510</title>
<ellipse fill="#b9d3ee" stroke="black" cx="2170.9" cy="-34" rx="16.8" ry="18"/>
<text text-anchor="middle" x="2170.9" y="-30.3" font-family="Times,serif" font-size="14.00">1</text>
</g>
<!-- 41&#45;&gt;510 -->
<g id="edge57" class="edge">
<title>41&#45;&gt;510</title>
<path fill="none" stroke="black" d="M2128.92,-91.5C2136.17,-81.75 2146.11,-68.37 2154.5,-57.07"/>
<polygon fill="black" stroke="black" points="2157.39,-59.05 2160.55,-48.93 2151.77,-54.87 2157.39,-59.05"/>
</g>
<!-- 521 -->
<g id="node53" class="node">
<title>521</title>
<ellipse fill="#b9d3ee" stroke="black" cx="1094.9" cy="-34" rx="16.8" ry="18"/>
<text text-anchor="middle" x="1094.9" y="-30.3" font-family="Times,serif" font-size="14.00">4</text>
</g>
<!-- 42&#45;&gt;521 -->
<g id="edge68" class="edge">
<title>42&#45;&gt;521</title>
<path fill="none" stroke="black" d="M1093.39,-87.7C1093.61,-79.98 1093.88,-70.71 1094.12,-62.11"/>
<polygon fill="black" stroke="black" points="1097.62,-62.2 1094.41,-52.1 1090.63,-62 1097.62,-62.2"/>
</g>
<!-- 523 -->
<g id="node55" class="node">
<title>523</title>
<ellipse fill="#b9d3ee" stroke="black" cx="1042.9" cy="-34" rx="16.8" ry="18"/>
<text text-anchor="middle" x="1042.9" y="-30.3" font-family="Times,serif" font-size="14.00">5</text>
</g>
<!-- 42&#45;&gt;523 -->
<g id="edge70" class="edge">
<title>42&#45;&gt;523</title>
<path fill="none" stroke="black" d="M1083.02,-91.17C1076.1,-81.49 1066.71,-68.34 1058.76,-57.2"/>
<polygon fill="black" stroke="black" points="1061.42,-54.9 1052.76,-48.8 1055.72,-58.97 1061.42,-54.9"/>
</g>
<!-- 55 -->
<g id="node37" class="node">
<title>55</title>
<ellipse fill="#b9d3ee" stroke="black" cx="437.9" cy="-34" rx="16.8" ry="18"/>
<text text-anchor="middle" x="437.9" y="-30.3" font-family="Times,serif" font-size="14.00">1</text>
</g>
<!-- 43&#45;&gt;55 -->
<g id="edge52" class="edge">
<title>43&#45;&gt;55</title>
<path fill="none" stroke="black" d="M415.62,-88.76C419.15,-80.25 423.55,-69.64 427.5,-60.09"/>
<polygon fill="black" stroke="black" points="430.81,-61.24 431.41,-50.67 424.35,-58.56 430.81,-61.24"/>
</g>
<!-- 520 -->
<g id="node52" class="node">
<title>520</title>
<ellipse fill="#b9d3ee" stroke="black" cx="258.9" cy="-34" rx="16.8" ry="18"/>
<text text-anchor="middle" x="258.9" y="-30.3" font-family="Times,serif" font-size="14.00">4</text>
</g>
<!-- 43&#45;&gt;520 -->
<g id="edge67" class="edge">
<title>43&#45;&gt;520</title>
<path fill="none" stroke="black" d="M388.64,-97.6C363.66,-88.19 320.19,-70.89 284.9,-52 283.75,-51.38 282.58,-50.73 281.42,-50.06"/>
<polygon fill="black" stroke="black" points="283,-46.92 272.66,-44.64 279.32,-52.88 283,-46.92"/>
</g>
<!-- 532 -->
<g id="node64" class="node">
<title>532</title>
<ellipse fill="#b9d3ee" stroke="black" cx="316.9" cy="-34" rx="23" ry="18"/>
<text text-anchor="middle" x="316.9" y="-30.3" font-family="Times,serif" font-size="14.00">23</text>
</g>
<!-- 43&#45;&gt;532 -->
<g id="edge79" class="edge">
<title>43&#45;&gt;532</title>
<path fill="none" stroke="black" d="M392.87,-92.81C378.49,-81.87 357.19,-65.66 340.8,-53.19"/>
<polygon fill="black" stroke="black" points="342.82,-50.32 332.74,-47.05 338.58,-55.89 342.82,-50.32"/>
</g>
<!-- 533 -->
<g id="node65" class="node">
<title>533</title>
<ellipse fill="#b9d3ee" stroke="black" cx="379.9" cy="-34" rx="23" ry="18"/>
<text text-anchor="middle" x="379.9" y="-30.3" font-family="Times,serif" font-size="14.00">23</text>
</g>
<!-- 43&#45;&gt;533 -->
<g id="edge80" class="edge">
<title>43&#45;&gt;533</title>
<path fill="none" stroke="black" d="M402.17,-88.76C398.74,-80.49 394.49,-70.23 390.63,-60.9"/>
<polygon fill="black" stroke="black" points="393.85,-59.53 386.79,-51.63 387.38,-62.21 393.85,-59.53"/>
</g>
<!-- 50 -->
<g id="node32" class="node">
<title>50</title>
<ellipse fill="#b9d3ee" stroke="black" cx="770.9" cy="-34" rx="16.8" ry="18"/>
<text text-anchor="middle" x="770.9" y="-30.3" font-family="Times,serif" font-size="14.00">1</text>
</g>
<!-- 44&#45;&gt;50 -->
<g id="edge47" class="edge">
<title>44&#45;&gt;50</title>
<path fill="none" stroke="black" d="M855.82,-92.16C838.19,-80.29 811.96,-62.64 793.33,-50.1"/>
<polygon fill="black" stroke="black" points="795.11,-47.08 784.86,-44.4 791.2,-52.88 795.11,-47.08"/>
</g>
<!-- 52 -->
<g id="node34" class="node">
<title>52</title>
<ellipse fill="#b9d3ee" stroke="black" cx="822.9" cy="-34" rx="16.8" ry="18"/>
<text text-anchor="middle" x="822.9" y="-30.3" font-family="Times,serif" font-size="14.00">1</text>
</g>
<!-- 44&#45;&gt;52 -->
<g id="edge49" class="edge">
<title>44&#45;&gt;52</title>
<path fill="none" stroke="black" d="M863.36,-89.46C856.25,-79.9 847.03,-67.49 839.19,-56.93"/>
<polygon fill="black" stroke="black" points="841.77,-54.54 833,-48.6 836.16,-58.72 841.77,-54.54"/>
</g>
<!-- 514 -->
<g id="node46" class="node">
<title>514</title>
<ellipse fill="#b9d3ee" stroke="black" cx="874.9" cy="-34" rx="16.8" ry="18"/>
<text text-anchor="middle" x="874.9" y="-30.3" font-family="Times,serif" font-size="14.00">2</text>
</g>
<!-- 44&#45;&gt;514 -->
<g id="edge61" class="edge">
<title>44&#45;&gt;514</title>
<path fill="none" stroke="black" d="M874.9,-87.7C874.9,-79.98 874.9,-70.71 874.9,-62.11"/>
<polygon fill="black" stroke="black" points="878.4,-62.1 874.9,-52.1 871.4,-62.1 878.4,-62.1"/>
</g>
<!-- 528 -->
<g id="node60" class="node">
<title>528</title>
<ellipse fill="#b9d3ee" stroke="black" cx="926.9" cy="-34" rx="16.8" ry="18"/>
<text text-anchor="middle" x="926.9" y="-30.3" font-family="Times,serif" font-size="14.00">9</text>
</g>
<!-- 44&#45;&gt;528 -->
<g id="edge75" class="edge">
<title>44&#45;&gt;528</title>
<path fill="none" stroke="black" d="M886.44,-89.46C893.55,-79.9 902.76,-67.49 910.61,-56.93"/>
<polygon fill="black" stroke="black" points="913.64,-58.72 916.8,-48.6 908.02,-54.54 913.64,-58.72"/>
</g>
<!-- 529 -->
<g id="node61" class="node">
<title>529</title>
<ellipse fill="#b9d3ee" stroke="black" cx="984.9" cy="-34" rx="23" ry="18"/>
<text text-anchor="middle" x="984.9" y="-30.3" font-family="Times,serif" font-size="14.00">10</text>
</g>
<!-- 44&#45;&gt;529 -->
<g id="edge76" class="edge">
<title>44&#45;&gt;529</title>
<path fill="none" stroke="black" d="M894.31,-92.65C912.28,-81.21 939.14,-64.12 958.94,-51.52"/>
<polygon fill="black" stroke="black" points="960.93,-54.4 967.49,-46.08 957.18,-48.49 960.93,-54.4"/>
</g>
<!-- 537 -->
<g id="node69" class="node">
<title>537</title>
<ellipse fill="#b9d3ee" stroke="black" cx="707.9" cy="-34" rx="28.7" ry="18"/>
<text text-anchor="middle" x="707.9" y="-30.3" font-family="Times,serif" font-size="14.00">112</text>
</g>
<!-- 44&#45;&gt;537 -->
<g id="edge84" class="edge">
<title>44&#45;&gt;537</title>
<path fill="none" stroke="black" d="M851.28,-95.73C825.14,-85.39 781.8,-67.99 744.9,-52 743.1,-51.22 741.25,-50.41 739.4,-49.58"/>
<polygon fill="black" stroke="black" points="740.69,-46.33 730.13,-45.41 737.81,-52.71 740.69,-46.33"/>
</g>
<!-- 511 -->
<g id="node43" class="node">
<title>511</title>
<ellipse fill="#b9d3ee" stroke="black" cx="142.9" cy="-34" rx="16.8" ry="18"/>
<text text-anchor="middle" x="142.9" y="-30.3" font-family="Times,serif" font-size="14.00">1</text>
</g>
<!-- 45&#45;&gt;511 -->
<g id="edge58" class="edge">
<title>45&#45;&gt;511</title>
<path fill="none" stroke="black" d="M165.64,-88.05C162.03,-79.65 157.61,-69.32 153.62,-60.02"/>
<polygon fill="black" stroke="black" points="156.84,-58.64 149.68,-50.83 150.4,-61.4 156.84,-58.64"/>
</g>
<!-- 534 -->
<g id="node66" class="node">
<title>534</title>
<ellipse fill="#b9d3ee" stroke="black" cx="200.9" cy="-34" rx="23" ry="18"/>
<text text-anchor="middle" x="200.9" y="-30.3" font-family="Times,serif" font-size="14.00">66</text>
</g>
<!-- 45&#45;&gt;534 -->
<g id="edge81" class="edge">
<title>45&#45;&gt;534</title>
<path fill="none" stroke="black" d="M179.68,-88.05C182.96,-79.85 186.97,-69.83 190.61,-60.71"/>
<polygon fill="black" stroke="black" points="193.91,-61.89 194.38,-51.31 187.41,-59.29 193.91,-61.89"/>
</g>
<!-- 538 -->
<g id="node70" class="node">
<title>538</title>
<ellipse fill="#b9d3ee" stroke="black" cx="79.9" cy="-34" rx="28.7" ry="18"/>
<text text-anchor="middle" x="79.9" y="-30.3" font-family="Times,serif" font-size="14.00">176</text>
</g>
<!-- 45&#45;&gt;538 -->
<g id="edge85" class="edge">
<title>45&#45;&gt;538</title>
<path fill="none" stroke="black" d="M153.63,-90.5C139.71,-80.02 120.77,-65.77 105.57,-54.33"/>
<polygon fill="black" stroke="black" points="107.67,-51.52 97.57,-48.3 103.46,-57.11 107.67,-51.52"/>
</g>
<!-- 525 -->
<g id="node57" class="node">
<title>525</title>
<ellipse fill="#b9d3ee" stroke="black" cx="489.9" cy="-34" rx="16.8" ry="18"/>
<text text-anchor="middle" x="489.9" y="-30.3" font-family="Times,serif" font-size="14.00">7</text>
</g>
<!-- 46&#45;&gt;525 -->
<g id="edge72" class="edge">
<title>46&#45;&gt;525</title>
<path fill="none" stroke="black" d="M566.47,-90.83C550.66,-79.31 528.35,-63.04 511.89,-51.03"/>
<polygon fill="black" stroke="black" points="513.56,-47.92 503.42,-44.86 509.44,-53.58 513.56,-47.92"/>
</g>
<!-- 536 -->
<g id="node68" class="node">
<title>536</title>
<ellipse fill="#b9d3ee" stroke="black" cx="547.9" cy="-34" rx="23" ry="18"/>
<text text-anchor="middle" x="547.9" y="-30.3" font-family="Times,serif" font-size="14.00">81</text>
</g>
<!-- 46&#45;&gt;536 -->
<g id="edge83" class="edge">
<title>46&#45;&gt;536</title>
<path fill="none" stroke="black" d="M576.89,-88.41C572.28,-79.92 566.58,-69.41 561.45,-59.96"/>
<polygon fill="black" stroke="black" points="564.42,-58.11 556.58,-50.99 558.27,-61.45 564.42,-58.11"/>
</g>
<!-- 539 -->
<g id="node71" class="node">
<title>539</title>
<ellipse fill="#b9d3ee" stroke="black" cx="624.9" cy="-34" rx="36" ry="18"/>
<text text-anchor="middle" x="624.9" y="-30.3" font-family="Times,serif" font-size="14.00">266</text>
</g>
<!-- 46&#45;&gt;539 -->
<g id="edge86" class="edge">
<title>46&#45;&gt;539</title>
<path fill="none" stroke="black" d="M595.14,-88.41C599.8,-80.04 605.56,-69.71 610.76,-60.37"/>
<polygon fill="black" stroke="black" points="613.91,-61.91 615.72,-51.47 607.8,-58.5 613.91,-61.91"/>
</g>
<!-- 515 -->
<g id="node47" class="node">
<title>515</title>
<ellipse fill="#b9d3ee" stroke="black" cx="2222.9" cy="-34" rx="16.8" ry="18"/>
<text text-anchor="middle" x="2222.9" y="-30.3" font-family="Times,serif" font-size="14.00">3</text>
</g>
<!-- 47&#45;&gt;515 -->
<g id="edge62" class="edge">
<title>47&#45;&gt;515</title>
<path fill="none" stroke="black" d="M2286.72,-90.15C2274.11,-79.25 2256.91,-64.4 2243.55,-52.85"/>
<polygon fill="black" stroke="black" points="2245.66,-50.04 2235.8,-46.15 2241.08,-55.34 2245.66,-50.04"/>
</g>
<!-- 519 -->
<g id="node51" class="node">
<title>519</title>
<ellipse fill="#b9d3ee" stroke="black" cx="2274.9" cy="-34" rx="16.8" ry="18"/>
<text text-anchor="middle" x="2274.9" y="-30.3" font-family="Times,serif" font-size="14.00">4</text>
</g>
<!-- 47&#45;&gt;519 -->
<g id="edge66" class="edge">
<title>47&#45;&gt;519</title>
<path fill="none" stroke="black" d="M2296.88,-88.05C2293.43,-79.73 2289.21,-69.54 2285.39,-60.32"/>
<polygon fill="black" stroke="black" points="2288.52,-58.73 2281.46,-50.83 2282.05,-61.41 2288.52,-58.73"/>
</g>
<!-- 530 -->
<g id="node62" class="node">
<title>530</title>
<ellipse fill="#b9d3ee" stroke="black" cx="2332.9" cy="-34" rx="23" ry="18"/>
<text text-anchor="middle" x="2332.9" y="-30.3" font-family="Times,serif" font-size="14.00">19</text>
</g>
<!-- 47&#45;&gt;530 -->
<g id="edge77" class="edge">
<title>47&#45;&gt;530</title>
<path fill="none" stroke="black" d="M2310.92,-88.05C2314.32,-79.85 2318.47,-69.83 2322.25,-60.71"/>
<polygon fill="black" stroke="black" points="2325.55,-61.89 2326.14,-51.31 2319.08,-59.21 2325.55,-61.89"/>
</g>
<!-- 535 -->
<g id="node67" class="node">
<title>535</title>
<ellipse fill="#b9d3ee" stroke="black" cx="2395.9" cy="-34" rx="23" ry="18"/>
<text text-anchor="middle" x="2395.9" y="-30.3" font-family="Times,serif" font-size="14.00">68</text>
</g>
<!-- 47&#45;&gt;535 -->
<g id="edge82" class="edge">
<title>47&#45;&gt;535</title>
<path fill="none" stroke="black" d="M2322.96,-90.5C2337.17,-79.68 2356.68,-64.84 2371.94,-53.23"/>
<polygon fill="black" stroke="black" points="2374.09,-55.99 2379.93,-47.15 2369.85,-50.42 2374.09,-55.99"/>
</g>
<!-- 540 -->
<g id="node72" class="node">
<title>540</title>
<ellipse fill="#b9d3ee" stroke="black" cx="2472.9" cy="-34" rx="36" ry="18"/>
<text text-anchor="middle" x="2472.9" y="-30.3" font-family="Times,serif" font-size="14.00">294</text>
</g>
<!-- 47&#45;&gt;540 -->
<g id="edge87" class="edge">
<title>47&#45;&gt;540</title>
<path fill="none" stroke="black" d="M2330.68,-93.91C2359.27,-82.06 2404.76,-63.22 2436.57,-50.05"/>
<polygon fill="black" stroke="black" points="2438.07,-53.22 2445.97,-46.16 2435.39,-46.75 2438.07,-53.22"/>
</g>
<!-- 51 -->
<g id="node33" class="node">
<title>51</title>
<ellipse fill="#b9d3ee" stroke="black" cx="1560.9" cy="-34" rx="16.8" ry="18"/>
<text text-anchor="middle" x="1560.9" y="-30.3" font-family="Times,serif" font-size="14.00">1</text>
</g>
<!-- 48&#45;&gt;51 -->
<g id="edge48" class="edge">
<title>48&#45;&gt;51</title>
<path fill="none" stroke="black" d="M1387.79,-98.36C1424.7,-90.23 1485.81,-74.68 1534.9,-52 1536.08,-51.45 1537.28,-50.86 1538.46,-50.23"/>
<polygon fill="black" stroke="black" points="1540.5,-53.09 1547.3,-44.96 1536.92,-47.07 1540.5,-53.09"/>
</g>
<!-- 54 -->
<g id="node36" class="node">
<title>54</title>
<ellipse fill="#b9d3ee" stroke="black" cx="1612.9" cy="-34" rx="16.8" ry="18"/>
<text text-anchor="middle" x="1612.9" y="-30.3" font-family="Times,serif" font-size="14.00">1</text>
</g>
<!-- 48&#45;&gt;54 -->
<g id="edge51" class="edge">
<title>48&#45;&gt;54</title>
<path fill="none" stroke="black" d="M1389.5,-100.99C1435.9,-94.74 1520.17,-80.36 1586.9,-52 1588.1,-51.49 1589.3,-50.92 1590.5,-50.32"/>
<polygon fill="black" stroke="black" points="1592.51,-53.2 1599.38,-45.13 1588.98,-47.16 1592.51,-53.2"/>
</g>
<!-- 58 -->
<g id="node40" class="node">
<title>58</title>
<ellipse fill="#b9d3ee" stroke="black" cx="1664.9" cy="-34" rx="16.8" ry="18"/>
<text text-anchor="middle" x="1664.9" y="-30.3" font-family="Times,serif" font-size="14.00">1</text>
</g>
<!-- 48&#45;&gt;58 -->
<g id="edge55" class="edge">
<title>48&#45;&gt;58</title>
<path fill="none" stroke="black" d="M1390.68,-102.84C1445.79,-98.52 1553.95,-86.1 1638.9,-52 1640.11,-51.51 1641.32,-50.97 1642.53,-50.38"/>
<polygon fill="black" stroke="black" points="1644.51,-53.28 1651.42,-45.25 1641.01,-47.21 1644.51,-53.28"/>
</g>
<!-- 512 -->
<g id="node44" class="node">
<title>512</title>
<ellipse fill="#b9d3ee" stroke="black" cx="1146.9" cy="-34" rx="16.8" ry="18"/>
<text text-anchor="middle" x="1146.9" y="-30.3" font-family="Times,serif" font-size="14.00">1</text>
</g>
<!-- 48&#45;&gt;512 -->
<g id="edge59" class="edge">
<title>48&#45;&gt;512</title>
<path fill="none" stroke="black" d="M1321.97,-98.49C1284.69,-90.43 1222.68,-74.9 1172.9,-52 1171.71,-51.45 1170.52,-50.86 1169.33,-50.23"/>
<polygon fill="black" stroke="black" points="1170.88,-47.08 1160.49,-44.97 1167.29,-53.09 1170.88,-47.08"/>
</g>
<!-- 516 -->
<g id="node48" class="node">
<title>516</title>
<ellipse fill="#b9d3ee" stroke="black" cx="1198.9" cy="-34" rx="16.8" ry="18"/>
<text text-anchor="middle" x="1198.9" y="-30.3" font-family="Times,serif" font-size="14.00">3</text>
</g>
<!-- 48&#45;&gt;516 -->
<g id="edge63" class="edge">
<title>48&#45;&gt;516</title>
<path fill="none" stroke="black" d="M1326.04,-95.05C1299.22,-85.38 1258.46,-69.61 1224.9,-52 1223.74,-51.39 1222.57,-50.75 1221.4,-50.08"/>
<polygon fill="black" stroke="black" points="1222.98,-46.95 1212.63,-44.68 1219.31,-52.91 1222.98,-46.95"/>
</g>
<!-- 517 -->
<g id="node49" class="node">
<title>517</title>
<ellipse fill="#b9d3ee" stroke="black" cx="1250.9" cy="-34" rx="16.8" ry="18"/>
<text text-anchor="middle" x="1250.9" y="-30.3" font-family="Times,serif" font-size="14.00">3</text>
</g>
<!-- 48&#45;&gt;517 -->
<g id="edge64" class="edge">
<title>48&#45;&gt;517</title>
<path fill="none" stroke="black" d="M1334.35,-91.17C1316.81,-79.36 1291.62,-62.41 1273.51,-50.22"/>
<polygon fill="black" stroke="black" points="1275.01,-47.01 1264.76,-44.33 1271.1,-52.82 1275.01,-47.01"/>
</g>
<!-- 518 -->
<g id="node50" class="node">
<title>518</title>
<ellipse fill="#b9d3ee" stroke="black" cx="1302.9" cy="-34" rx="16.8" ry="18"/>
<text text-anchor="middle" x="1302.9" y="-30.3" font-family="Times,serif" font-size="14.00">3</text>
</g>
<!-- 48&#45;&gt;518 -->
<g id="edge65" class="edge">
<title>48&#45;&gt;518</title>
<path fill="none" stroke="black" d="M1342.84,-88.76C1335.81,-79.3 1326.84,-67.23 1319.19,-56.93"/>
<polygon fill="black" stroke="black" points="1321.91,-54.73 1313.14,-48.79 1316.29,-58.9 1321.91,-54.73"/>
</g>
<!-- 527 -->
<g id="node59" class="node">
<title>527</title>
<ellipse fill="#b9d3ee" stroke="black" cx="1354.9" cy="-34" rx="16.8" ry="18"/>
<text text-anchor="middle" x="1354.9" y="-30.3" font-family="Times,serif" font-size="14.00">8</text>
</g>
<!-- 48&#45;&gt;527 -->
<g id="edge74" class="edge">
<title>48&#45;&gt;527</title>
<path fill="none" stroke="black" d="M1354.9,-87.7C1354.9,-79.98 1354.9,-70.71 1354.9,-62.11"/>
<polygon fill="black" stroke="black" points="1358.4,-62.1 1354.9,-52.1 1351.4,-62.1 1358.4,-62.1"/>
</g>
<!-- 531 -->
<g id="node63" class="node">
<title>531</title>
<ellipse fill="#b9d3ee" stroke="black" cx="1412.9" cy="-34" rx="23" ry="18"/>
<text text-anchor="middle" x="1412.9" y="-30.3" font-family="Times,serif" font-size="14.00">21</text>
</g>
<!-- 48&#45;&gt;531 -->
<g id="edge78" class="edge">
<title>48&#45;&gt;531</title>
<path fill="none" stroke="black" d="M1368.06,-89.12C1375.87,-79.69 1385.88,-67.61 1394.47,-57.25"/>
<polygon fill="black" stroke="black" points="1397.29,-59.33 1400.97,-49.39 1391.9,-54.86 1397.29,-59.33"/>
</g>
<!-- 541 -->
<g id="node73" class="node">
<title>541</title>
<ellipse fill="#b9d3ee" stroke="black" cx="1489.9" cy="-34" rx="36" ry="18"/>
<text text-anchor="middle" x="1489.9" y="-30.3" font-family="Times,serif" font-size="14.00">371</text>
</g>
<!-- 48&#45;&gt;541 -->
<g id="edge88" class="edge">
<title>48&#45;&gt;541</title>
<path fill="none" stroke="black" d="M1379.03,-92.49C1400.59,-81.31 1432.39,-64.82 1456.41,-52.37"/>
<polygon fill="black" stroke="black" points="1458.25,-55.35 1465.52,-47.64 1455.03,-49.14 1458.25,-55.35"/>
</g>
<!-- 53 -->
<g id="node35" class="node">
<title>53</title>
<ellipse fill="#b9d3ee" stroke="black" cx="1858.9" cy="-34" rx="16.8" ry="18"/>
<text text-anchor="middle" x="1858.9" y="-30.3" font-family="Times,serif" font-size="14.00">1</text>
</g>
<!-- 49&#45;&gt;53 -->
<g id="edge50" class="edge">
<title>49&#45;&gt;53</title>
<path fill="none" stroke="black" d="M1831.43,-88.41C1835.92,-79.68 1841.51,-68.81 1846.47,-59.16"/>
<polygon fill="black" stroke="black" points="1849.7,-60.53 1851.16,-50.04 1843.48,-57.33 1849.7,-60.53"/>
</g>
<!-- 56 -->
<g id="node38" class="node">
<title>56</title>
<ellipse fill="#b9d3ee" stroke="black" cx="1910.9" cy="-34" rx="16.8" ry="18"/>
<text text-anchor="middle" x="1910.9" y="-30.3" font-family="Times,serif" font-size="14.00">1</text>
</g>
<!-- 49&#45;&gt;56 -->
<g id="edge53" class="edge">
<title>49&#45;&gt;56</title>
<path fill="none" stroke="black" d="M1841.56,-90.15C1855.65,-78.95 1874.99,-63.56 1889.67,-51.89"/>
<polygon fill="black" stroke="black" points="1892.05,-54.47 1897.69,-45.5 1887.69,-48.99 1892.05,-54.47"/>
</g>
<!-- 57 -->
<g id="node39" class="node">
<title>57</title>
<ellipse fill="#b9d3ee" stroke="black" cx="1962.9" cy="-34" rx="16.8" ry="18"/>
<text text-anchor="middle" x="1962.9" y="-30.3" font-family="Times,serif" font-size="14.00">1</text>
</g>
<!-- 49&#45;&gt;57 -->
<g id="edge54" class="edge">
<title>49&#45;&gt;57</title>
<path fill="none" stroke="black" d="M1849.7,-93.84C1873.15,-83.78 1907.9,-68.11 1936.9,-52 1938.04,-51.37 1939.2,-50.7 1940.36,-50.01"/>
<polygon fill="black" stroke="black" points="1942.47,-52.82 1949.09,-44.55 1938.76,-46.89 1942.47,-52.82"/>
</g>
<!-- 522 -->
<g id="node54" class="node">
<title>522</title>
<ellipse fill="#b9d3ee" stroke="black" cx="2014.9" cy="-34" rx="16.8" ry="18"/>
<text text-anchor="middle" x="2014.9" y="-30.3" font-family="Times,serif" font-size="14.00">5</text>
</g>
<!-- 49&#45;&gt;522 -->
<g id="edge69" class="edge">
<title>49&#45;&gt;522</title>
<path fill="none" stroke="black" d="M1854.76,-97.56C1888.91,-88.98 1944.23,-73.25 1988.9,-52 1990.08,-51.44 1991.26,-50.83 1992.45,-50.19"/>
<polygon fill="black" stroke="black" points="1994.5,-53.05 2001.27,-44.9 1990.9,-47.04 1994.5,-53.05"/>
</g>
<!-- 524 -->
<g id="node56" class="node">
<title>524</title>
<ellipse fill="#b9d3ee" stroke="black" cx="2066.9" cy="-34" rx="16.8" ry="18"/>
<text text-anchor="middle" x="2066.9" y="-30.3" font-family="Times,serif" font-size="14.00">6</text>
</g>
<!-- 49&#45;&gt;524 -->
<g id="edge71" class="edge">
<title>49&#45;&gt;524</title>
<path fill="none" stroke="black" d="M1857.29,-100.35C1901.25,-93.57 1979.07,-78.78 2040.9,-52 2042.1,-51.48 2043.3,-50.91 2044.5,-50.3"/>
<polygon fill="black" stroke="black" points="2046.51,-53.18 2053.36,-45.09 2042.96,-47.14 2046.51,-53.18"/>
</g>
<!-- 526 -->
<g id="node58" class="node">
<title>526</title>
<ellipse fill="#b9d3ee" stroke="black" cx="1716.9" cy="-34" rx="16.8" ry="18"/>
<text text-anchor="middle" x="1716.9" y="-30.3" font-family="Times,serif" font-size="14.00">8</text>
</g>
<!-- 49&#45;&gt;526 -->
<g id="edge73" class="edge">
<title>49&#45;&gt;526</title>
<path fill="none" stroke="black" d="M1801.96,-91.17C1783.91,-79.25 1757.93,-62.09 1739.43,-49.88"/>
<polygon fill="black" stroke="black" points="1741.3,-46.92 1731.03,-44.33 1737.44,-52.76 1741.3,-46.92"/>
</g>
<!-- 542 -->
<g id="node74" class="node">
<title>542</title>
<ellipse fill="#b9d3ee" stroke="black" cx="1787.9" cy="-34" rx="36" ry="18"/>
<text text-anchor="middle" x="1787.9" y="-30.3" font-family="Times,serif" font-size="14.00">382</text>
</g>
<!-- 49&#45;&gt;542 -->
<g id="edge89" class="edge">
<title>49&#45;&gt;542</title>
<path fill="none" stroke="black" d="M1814.6,-88.41C1810.52,-80.25 1805.51,-70.22 1800.93,-61.07"/>
<polygon fill="black" stroke="black" points="1803.98,-59.34 1796.38,-51.96 1797.72,-62.47 1803.98,-59.34"/>
</g>
<!-- legend_5 -->
<g id="node75" class="node">
<title>legend_5</title>
<polygon fill="#b9d3ee" stroke="black" points="2748.4,-52 2527.4,-52 2527.4,-16 2748.4,-16 2748.4,-52"/>
<text text-anchor="middle" x="2637.9" y="-30.3" font-family="Times,serif" font-size="14.00">DT=6 ST=1 Similarity=0.52</text>
</g>
<!-- legend_4&#45;&gt;legend_5 -->
<g id="edge90" class="edge">
<title>legend_4&#45;&gt;legend_5</title>
<path fill="none" stroke="black" d="M2637.9,-87.7C2637.9,-79.98 2637.9,-70.71 2637.9,-62.11"/>
<polygon fill="black" stroke="black" points="2641.4,-62.1 2637.9,-52.1 2634.4,-62.1 2641.4,-62.1"/>
</g>
</g>
</svg>
