<?xml version="1.0" encoding="UTF-8" standalone="no"?>
<!DOCTYPE svg PUBLIC "-//W3C//DTD SVG 1.1//EN"
 "http://www.w3.org/Graphics/SVG/1.1/DTD/svg11.dtd">
<!-- Generated by graphviz version 2.43.0 (0)
 -->
<!-- Title: %3 Pages: 1 -->
<svg width="2827pt" height="497pt"
 viewBox="0.00 0.00 2827.00 497.00" xmlns="http://www.w3.org/2000/svg" xmlns:xlink="http://www.w3.org/1999/xlink">
<g id="graph0" class="graph" transform="scale(1 1) rotate(0) translate(4 493)">
<title>%3</title>
<polygon fill="white" stroke="transparent" points="-4,4 -4,-493 2823,-493 2823,4 -4,4"/>
<text text-anchor="middle" x="1409.5" y="-473.8" font-family="Times,serif" font-size="14.00">ConsTree</text>
<text text-anchor="middle" x="1409.5" y="-458.8" font-family="Times,serif" font-size="14.00">Tree Quality = 1</text>
<g id="clust1" class="cluster">
<title>cluster</title>
<polygon fill="none" stroke="black" points="2575,-8 2575,-443 2811,-443 2811,-8 2575,-8"/>
<text text-anchor="middle" x="2693" y="-427.8" font-family="Times,serif" font-size="14.00">Legend</text>
</g>
<!-- 00 -->
<g id="node1" class="node">
<title>00</title>
<ellipse fill="#b9d3ee" stroke="black" cx="1189" cy="-394" rx="144" ry="18"/>
<text text-anchor="middle" x="1189" y="-390.3" font-family="Times,serif" font-size="14.00">908</text>
</g>
<!-- 10 -->
<g id="node4" class="node">
<title>10</title>
<ellipse fill="#b9d3ee" stroke="black" cx="1322" cy="-322" rx="36" ry="18"/>
<text text-anchor="middle" x="1322" y="-318.3" font-family="Times,serif" font-size="14.00">413</text>
</g>
<!-- 00&#45;&gt;10 -->
<g id="edge1" class="edge">
<title>00&#45;&gt;10</title>
<path fill="none" stroke="black" d="M1220.52,-376.41C1241.26,-365.49 1268.35,-351.23 1289.33,-340.2"/>
<polygon fill="black" stroke="black" points="1290.98,-343.28 1298.2,-335.53 1287.72,-337.09 1290.98,-343.28"/>
</g>
<!-- 11 -->
<g id="node5" class="node">
<title>11</title>
<ellipse fill="#b9d3ee" stroke="black" cx="1135" cy="-322" rx="36" ry="18"/>
<text text-anchor="middle" x="1135" y="-318.3" font-family="Times,serif" font-size="14.00">412</text>
</g>
<!-- 00&#45;&gt;11 -->
<g id="edge3" class="edge">
<title>00&#45;&gt;11</title>
<path fill="none" stroke="black" d="M1175.93,-376.05C1169.26,-367.42 1161.04,-356.76 1153.72,-347.27"/>
<polygon fill="black" stroke="black" points="1156.46,-345.09 1147.58,-339.31 1150.92,-349.36 1156.46,-345.09"/>
</g>
<!-- 12 -->
<g id="node6" class="node">
<title>12</title>
<ellipse fill="#b9d3ee" stroke="black" cx="1225" cy="-322" rx="36" ry="18"/>
<text text-anchor="middle" x="1225" y="-318.3" font-family="Times,serif" font-size="14.00">428</text>
</g>
<!-- 00&#45;&gt;12 -->
<g id="edge4" class="edge">
<title>00&#45;&gt;12</title>
<path fill="none" stroke="black" d="M1197.9,-375.7C1202.1,-367.52 1207.2,-357.6 1211.84,-348.58"/>
<polygon fill="black" stroke="black" points="1214.99,-350.12 1216.45,-339.62 1208.77,-346.91 1214.99,-350.12"/>
</g>
<!-- 01 -->
<g id="node2" class="node">
<title>01</title>
<ellipse fill="#b9d3ee" stroke="black" cx="1495" cy="-394" rx="144" ry="18"/>
<text text-anchor="middle" x="1495" y="-390.3" font-family="Times,serif" font-size="14.00">1092</text>
</g>
<!-- 01&#45;&gt;10 -->
<g id="edge2" class="edge">
<title>01&#45;&gt;10</title>
<path fill="none" stroke="black" d="M1454.44,-376.59C1425.4,-364.84 1386.64,-349.16 1358.56,-337.79"/>
<polygon fill="black" stroke="black" points="1359.69,-334.47 1349.11,-333.97 1357.06,-340.96 1359.69,-334.47"/>
</g>
<!-- 13 -->
<g id="node7" class="node">
<title>13</title>
<ellipse fill="#b9d3ee" stroke="black" cx="1495" cy="-322" rx="108" ry="18"/>
<text text-anchor="middle" x="1495" y="-318.3" font-family="Times,serif" font-size="14.00">747</text>
</g>
<!-- 01&#45;&gt;13 -->
<g id="edge5" class="edge">
<title>01&#45;&gt;13</title>
<path fill="none" stroke="black" d="M1495,-375.7C1495,-367.98 1495,-358.71 1495,-350.11"/>
<polygon fill="black" stroke="black" points="1498.5,-350.1 1495,-340.1 1491.5,-350.1 1498.5,-350.1"/>
</g>
<!-- legend_0 -->
<g id="node3" class="node">
<title>legend_0</title>
<polygon fill="#b9d3ee" stroke="black" points="2799,-412 2587,-412 2587,-376 2799,-376 2799,-412"/>
<text text-anchor="middle" x="2693" y="-390.3" font-family="Times,serif" font-size="14.00">DT=1 ST=1 Similarity=0.5</text>
</g>
<!-- legend_1 -->
<g id="node8" class="node">
<title>legend_1</title>
<polygon fill="#b9d3ee" stroke="black" points="2803.5,-340 2582.5,-340 2582.5,-304 2803.5,-304 2803.5,-340"/>
<text text-anchor="middle" x="2693" y="-318.3" font-family="Times,serif" font-size="14.00">DT=2 ST=1 Similarity=0.67</text>
</g>
<!-- legend_0&#45;&gt;legend_1 -->
<g id="edge6" class="edge">
<title>legend_0&#45;&gt;legend_1</title>
<path fill="none" stroke="black" d="M2693,-375.7C2693,-367.98 2693,-358.71 2693,-350.11"/>
<polygon fill="black" stroke="black" points="2696.5,-350.1 2693,-340.1 2689.5,-350.1 2696.5,-350.1"/>
</g>
<!-- 20 -->
<g id="node9" class="node">
<title>20</title>
<ellipse fill="#b9d3ee" stroke="black" cx="1135" cy="-250" rx="36" ry="18"/>
<text text-anchor="middle" x="1135" y="-246.3" font-family="Times,serif" font-size="14.00">401</text>
</g>
<!-- 10&#45;&gt;20 -->
<g id="edge7" class="edge">
<title>10&#45;&gt;20</title>
<path fill="none" stroke="black" d="M1293.97,-310.57C1265.32,-299.91 1219.54,-282.85 1180,-268 1177.61,-267.1 1175.14,-266.17 1172.65,-265.24"/>
<polygon fill="black" stroke="black" points="1173.67,-261.88 1163.08,-261.63 1171.2,-268.43 1173.67,-261.88"/>
</g>
<!-- 23 -->
<g id="node12" class="node">
<title>23</title>
<ellipse fill="#b9d3ee" stroke="black" cx="1495" cy="-250" rx="108" ry="18"/>
<text text-anchor="middle" x="1495" y="-246.3" font-family="Times,serif" font-size="14.00">798</text>
</g>
<!-- 10&#45;&gt;23 -->
<g id="edge11" class="edge">
<title>10&#45;&gt;23</title>
<path fill="none" stroke="black" d="M1349.03,-310.06C1375.04,-299.54 1414.95,-283.39 1446.47,-270.64"/>
<polygon fill="black" stroke="black" points="1448,-273.79 1455.96,-266.8 1445.38,-267.3 1448,-273.79"/>
</g>
<!-- 11&#45;&gt;20 -->
<g id="edge8" class="edge">
<title>11&#45;&gt;20</title>
<path fill="none" stroke="black" d="M1135,-303.7C1135,-295.98 1135,-286.71 1135,-278.11"/>
<polygon fill="black" stroke="black" points="1138.5,-278.1 1135,-268.1 1131.5,-278.1 1138.5,-278.1"/>
</g>
<!-- 21 -->
<g id="node10" class="node">
<title>21</title>
<ellipse fill="#b9d3ee" stroke="black" cx="1045" cy="-250" rx="36" ry="18"/>
<text text-anchor="middle" x="1045" y="-246.3" font-family="Times,serif" font-size="14.00">402</text>
</g>
<!-- 11&#45;&gt;21 -->
<g id="edge9" class="edge">
<title>11&#45;&gt;21</title>
<path fill="none" stroke="black" d="M1116.35,-306.5C1103.44,-296.45 1086.06,-282.93 1071.68,-271.75"/>
<polygon fill="black" stroke="black" points="1073.67,-268.86 1063.62,-265.49 1069.37,-274.39 1073.67,-268.86"/>
</g>
<!-- 22 -->
<g id="node11" class="node">
<title>22</title>
<ellipse fill="#b9d3ee" stroke="black" cx="1225" cy="-250" rx="36" ry="18"/>
<text text-anchor="middle" x="1225" y="-246.3" font-family="Times,serif" font-size="14.00">399</text>
</g>
<!-- 12&#45;&gt;22 -->
<g id="edge10" class="edge">
<title>12&#45;&gt;22</title>
<path fill="none" stroke="black" d="M1225,-303.7C1225,-295.98 1225,-286.71 1225,-278.11"/>
<polygon fill="black" stroke="black" points="1228.5,-278.1 1225,-268.1 1221.5,-278.1 1228.5,-278.1"/>
</g>
<!-- 12&#45;&gt;23 -->
<g id="edge12" class="edge">
<title>12&#45;&gt;23</title>
<path fill="none" stroke="black" d="M1253.76,-311.16C1261.29,-308.7 1269.42,-306.16 1277,-304 1325.21,-290.28 1380.03,-276.96 1422.64,-267.11"/>
<polygon fill="black" stroke="black" points="1423.69,-270.46 1432.65,-264.81 1422.12,-263.64 1423.69,-270.46"/>
</g>
<!-- 13&#45;&gt;23 -->
<g id="edge13" class="edge">
<title>13&#45;&gt;23</title>
<path fill="none" stroke="black" d="M1495,-303.7C1495,-295.98 1495,-286.71 1495,-278.11"/>
<polygon fill="black" stroke="black" points="1498.5,-278.1 1495,-268.1 1491.5,-278.1 1498.5,-278.1"/>
</g>
<!-- legend_2 -->
<g id="node13" class="node">
<title>legend_2</title>
<polygon fill="#b9d3ee" stroke="black" points="2803.5,-268 2582.5,-268 2582.5,-232 2803.5,-232 2803.5,-268"/>
<text text-anchor="middle" x="2693" y="-246.3" font-family="Times,serif" font-size="14.00">DT=3 ST=1 Similarity=0.67</text>
</g>
<!-- legend_1&#45;&gt;legend_2 -->
<g id="edge14" class="edge">
<title>legend_1&#45;&gt;legend_2</title>
<path fill="none" stroke="black" d="M2693,-303.7C2693,-295.98 2693,-286.71 2693,-278.11"/>
<polygon fill="black" stroke="black" points="2696.5,-278.1 2693,-268.1 2689.5,-278.1 2696.5,-278.1"/>
</g>
<!-- 31 -->
<g id="node15" class="node">
<title>31</title>
<ellipse fill="#b9d3ee" stroke="black" cx="1077" cy="-178" rx="36" ry="18"/>
<text text-anchor="middle" x="1077" y="-174.3" font-family="Times,serif" font-size="14.00">402</text>
</g>
<!-- 20&#45;&gt;31 -->
<g id="edge17" class="edge">
<title>20&#45;&gt;31</title>
<path fill="none" stroke="black" d="M1121.84,-233.12C1114.42,-224.17 1105.01,-212.81 1096.73,-202.81"/>
<polygon fill="black" stroke="black" points="1099.18,-200.29 1090.11,-194.82 1093.79,-204.75 1099.18,-200.29"/>
</g>
<!-- 21&#45;&gt;31 -->
<g id="edge18" class="edge">
<title>21&#45;&gt;31</title>
<path fill="none" stroke="black" d="M1052.75,-232.05C1056.44,-223.97 1060.94,-214.12 1065.06,-205.11"/>
<polygon fill="black" stroke="black" points="1068.35,-206.34 1069.33,-195.79 1061.98,-203.43 1068.35,-206.34"/>
</g>
<!-- 34 -->
<g id="node18" class="node">
<title>34</title>
<ellipse fill="#b9d3ee" stroke="black" cx="843" cy="-178" rx="36" ry="18"/>
<text text-anchor="middle" x="843" y="-174.3" font-family="Times,serif" font-size="14.00">404</text>
</g>
<!-- 21&#45;&gt;34 -->
<g id="edge21" class="edge">
<title>21&#45;&gt;34</title>
<path fill="none" stroke="black" d="M1016.06,-238.97C980.66,-226.7 920.61,-205.9 881.39,-192.3"/>
<polygon fill="black" stroke="black" points="882.48,-188.98 871.89,-189.01 880.19,-195.59 882.48,-188.98"/>
</g>
<!-- 30 -->
<g id="node14" class="node">
<title>30</title>
<ellipse fill="#b9d3ee" stroke="black" cx="1495" cy="-178" rx="23" ry="18"/>
<text text-anchor="middle" x="1495" y="-174.3" font-family="Times,serif" font-size="14.00">46</text>
</g>
<!-- 22&#45;&gt;30 -->
<g id="edge15" class="edge">
<title>22&#45;&gt;30</title>
<path fill="none" stroke="black" d="M1256.24,-240.9C1308.18,-227.43 1411.74,-200.58 1463.72,-187.11"/>
<polygon fill="black" stroke="black" points="1464.89,-190.42 1473.69,-184.52 1463.14,-183.65 1464.89,-190.42"/>
</g>
<!-- 22&#45;&gt;34 -->
<g id="edge22" class="edge">
<title>22&#45;&gt;34</title>
<path fill="none" stroke="black" d="M1198.17,-237.84C1192.26,-235.67 1185.97,-233.58 1180,-232 1077.55,-204.9 953.68,-189.79 888.39,-183.15"/>
<polygon fill="black" stroke="black" points="888.72,-179.67 878.42,-182.16 888.03,-186.63 888.72,-179.67"/>
</g>
<!-- 35 -->
<g id="node19" class="node">
<title>35</title>
<ellipse fill="#b9d3ee" stroke="black" cx="1212" cy="-178" rx="36" ry="18"/>
<text text-anchor="middle" x="1212" y="-174.3" font-family="Times,serif" font-size="14.00">389</text>
</g>
<!-- 22&#45;&gt;35 -->
<g id="edge23" class="edge">
<title>22&#45;&gt;35</title>
<path fill="none" stroke="black" d="M1221.85,-232.05C1220.42,-224.35 1218.69,-215.03 1217.08,-206.36"/>
<polygon fill="black" stroke="black" points="1220.48,-205.47 1215.21,-196.28 1213.59,-206.75 1220.48,-205.47"/>
</g>
<!-- 23&#45;&gt;30 -->
<g id="edge16" class="edge">
<title>23&#45;&gt;30</title>
<path fill="none" stroke="black" d="M1495,-231.7C1495,-223.98 1495,-214.71 1495,-206.11"/>
<polygon fill="black" stroke="black" points="1498.5,-206.1 1495,-196.1 1491.5,-206.1 1498.5,-206.1"/>
</g>
<!-- 32 -->
<g id="node16" class="node">
<title>32</title>
<ellipse fill="#b9d3ee" stroke="black" cx="1767" cy="-178" rx="36" ry="18"/>
<text text-anchor="middle" x="1767" y="-174.3" font-family="Times,serif" font-size="14.00">365</text>
</g>
<!-- 23&#45;&gt;32 -->
<g id="edge19" class="edge">
<title>23&#45;&gt;32</title>
<path fill="none" stroke="black" d="M1551.03,-234.58C1603.04,-221.19 1679.26,-201.58 1725.87,-189.59"/>
<polygon fill="black" stroke="black" points="1726.81,-192.96 1735.63,-187.07 1725.07,-186.18 1726.81,-192.96"/>
</g>
<!-- 33 -->
<g id="node17" class="node">
<title>33</title>
<ellipse fill="#b9d3ee" stroke="black" cx="2051" cy="-178" rx="36" ry="18"/>
<text text-anchor="middle" x="2051" y="-174.3" font-family="Times,serif" font-size="14.00">394</text>
</g>
<!-- 23&#45;&gt;33 -->
<g id="edge20" class="edge">
<title>23&#45;&gt;33</title>
<path fill="none" stroke="black" d="M1578.24,-238.52C1697.66,-223.48 1913.46,-196.32 2006.42,-184.61"/>
<polygon fill="black" stroke="black" points="2006.86,-188.09 2016.34,-183.36 2005.98,-181.14 2006.86,-188.09"/>
</g>
<!-- legend_3 -->
<g id="node20" class="node">
<title>legend_3</title>
<polygon fill="#b9d3ee" stroke="black" points="2803.5,-196 2582.5,-196 2582.5,-160 2803.5,-160 2803.5,-196"/>
<text text-anchor="middle" x="2693" y="-174.3" font-family="Times,serif" font-size="14.00">DT=4 ST=1 Similarity=0.69</text>
</g>
<!-- legend_2&#45;&gt;legend_3 -->
<g id="edge24" class="edge">
<title>legend_2&#45;&gt;legend_3</title>
<path fill="none" stroke="black" d="M2693,-231.7C2693,-223.98 2693,-214.71 2693,-206.11"/>
<polygon fill="black" stroke="black" points="2696.5,-206.1 2693,-196.1 2689.5,-206.1 2696.5,-206.1"/>
</g>
<!-- 41 -->
<g id="node22" class="node">
<title>41</title>
<polygon fill="darkseagreen" stroke="black" points="1535.5,-124 1500.5,-124 1500.5,-88 1535.5,-88 1535.5,-124"/>
<text text-anchor="middle" x="1518" y="-102.3" font-family="Times,serif" font-size="14.00">24</text>
</g>
<!-- 30&#45;&gt;41 -->
<g id="edge26" class="edge">
<title>30&#45;&gt;41</title>
<path fill="none" stroke="black" d="M1500.45,-160.41C1503.04,-152.54 1506.19,-142.93 1509.11,-134.04"/>
<polygon fill="black" stroke="black" points="1512.47,-135.04 1512.27,-124.45 1505.82,-132.85 1512.47,-135.04"/>
</g>
<!-- 43 -->
<g id="node24" class="node">
<title>43</title>
<polygon fill="darkseagreen" stroke="black" points="1803,-124 1731,-124 1731,-88 1803,-88 1803,-124"/>
<text text-anchor="middle" x="1767" y="-102.3" font-family="Times,serif" font-size="14.00">365</text>
</g>
<!-- 30&#45;&gt;43 -->
<g id="edge29" class="edge">
<title>30&#45;&gt;43</title>
<path fill="none" stroke="black" d="M1516.34,-171.51C1560.15,-160.23 1661.08,-134.26 1720.64,-118.93"/>
<polygon fill="black" stroke="black" points="1721.73,-122.26 1730.55,-116.38 1719.99,-115.48 1721.73,-122.26"/>
</g>
<!-- 46 -->
<g id="node27" class="node">
<title>46</title>
<polygon fill="darkseagreen" stroke="black" points="1241,-124 1169,-124 1169,-88 1241,-88 1241,-124"/>
<text text-anchor="middle" x="1205" y="-102.3" font-family="Times,serif" font-size="14.00">402</text>
</g>
<!-- 30&#45;&gt;46 -->
<g id="edge35" class="edge">
<title>30&#45;&gt;46</title>
<path fill="none" stroke="black" d="M1473.2,-171.74C1426.19,-160.39 1314.39,-133.41 1250.98,-118.1"/>
<polygon fill="black" stroke="black" points="1251.78,-114.69 1241.23,-115.75 1250.13,-121.49 1251.78,-114.69"/>
</g>
<!-- 42 -->
<g id="node23" class="node">
<title>42</title>
<polygon fill="darkseagreen" stroke="black" points="788,-124 716,-124 716,-88 788,-88 788,-124"/>
<text text-anchor="middle" x="752" y="-102.3" font-family="Times,serif" font-size="14.00">399</text>
</g>
<!-- 31&#45;&gt;42 -->
<g id="edge27" class="edge">
<title>31&#45;&gt;42</title>
<path fill="none" stroke="black" d="M1044.65,-170.03C986.62,-157.53 864.67,-131.27 797.98,-116.9"/>
<polygon fill="black" stroke="black" points="798.67,-113.47 788.16,-114.79 797.2,-120.32 798.67,-113.47"/>
</g>
<!-- 44 -->
<g id="node25" class="node">
<title>44</title>
<polygon fill="darkseagreen" stroke="black" points="2288,-124 2216,-124 2216,-88 2288,-88 2288,-124"/>
<text text-anchor="middle" x="2252" y="-102.3" font-family="Times,serif" font-size="14.00">410</text>
</g>
<!-- 31&#45;&gt;44 -->
<g id="edge31" class="edge">
<title>31&#45;&gt;44</title>
<path fill="none" stroke="black" d="M1109.33,-169.78C1126.39,-166.25 1147.73,-162.28 1167,-160 1271.02,-147.69 2011.63,-116.83 2205.6,-108.89"/>
<polygon fill="black" stroke="black" points="2205.89,-112.38 2215.74,-108.47 2205.6,-105.38 2205.89,-112.38"/>
</g>
<!-- 32&#45;&gt;43 -->
<g id="edge30" class="edge">
<title>32&#45;&gt;43</title>
<path fill="none" stroke="black" d="M1767,-159.7C1767,-151.98 1767,-142.71 1767,-134.11"/>
<polygon fill="black" stroke="black" points="1770.5,-134.1 1767,-124.1 1763.5,-134.1 1770.5,-134.1"/>
</g>
<!-- 32&#45;&gt;44 -->
<g id="edge32" class="edge">
<title>32&#45;&gt;44</title>
<path fill="none" stroke="black" d="M1801.1,-172.08C1886.4,-159.77 2109.06,-127.63 2205.9,-113.65"/>
<polygon fill="black" stroke="black" points="2206.57,-117.09 2215.97,-112.2 2205.57,-110.16 2206.57,-117.09"/>
</g>
<!-- 33&#45;&gt;44 -->
<g id="edge33" class="edge">
<title>33&#45;&gt;44</title>
<path fill="none" stroke="black" d="M2079.8,-166.97C2112.82,-155.47 2167.4,-136.46 2206.25,-122.93"/>
<polygon fill="black" stroke="black" points="2207.48,-126.21 2215.77,-119.62 2205.18,-119.6 2207.48,-126.21"/>
</g>
<!-- 40 -->
<g id="node21" class="node">
<title>40</title>
<polygon fill="darkseagreen" stroke="black" points="448.5,-124 413.5,-124 413.5,-88 448.5,-88 448.5,-124"/>
<text text-anchor="middle" x="431" y="-102.3" font-family="Times,serif" font-size="14.00">19</text>
</g>
<!-- 34&#45;&gt;40 -->
<g id="edge25" class="edge">
<title>34&#45;&gt;40</title>
<path fill="none" stroke="black" d="M809.28,-171.27C729.95,-157.79 532.63,-124.27 459.16,-111.78"/>
<polygon fill="black" stroke="black" points="459.3,-108.26 448.86,-110.03 458.13,-115.16 459.3,-108.26"/>
</g>
<!-- 34&#45;&gt;42 -->
<g id="edge28" class="edge">
<title>34&#45;&gt;42</title>
<path fill="none" stroke="black" d="M824.14,-162.5C812.16,-153.28 796.37,-141.13 782.61,-130.55"/>
<polygon fill="black" stroke="black" points="784.43,-127.53 774.36,-124.2 780.16,-133.08 784.43,-127.53"/>
</g>
<!-- 45 -->
<g id="node26" class="node">
<title>45</title>
<polygon fill="darkseagreen" stroke="black" points="247,-124 175,-124 175,-88 247,-88 247,-124"/>
<text text-anchor="middle" x="211" y="-102.3" font-family="Times,serif" font-size="14.00">381</text>
</g>
<!-- 34&#45;&gt;45 -->
<g id="edge34" class="edge">
<title>34&#45;&gt;45</title>
<path fill="none" stroke="black" d="M808.12,-173.14C701.26,-161.3 378.32,-125.53 257.39,-112.14"/>
<polygon fill="black" stroke="black" points="257.66,-108.65 247.34,-111.02 256.89,-115.6 257.66,-108.65"/>
</g>
<!-- 34&#45;&gt;46 -->
<g id="edge36" class="edge">
<title>34&#45;&gt;46</title>
<path fill="none" stroke="black" d="M876.08,-170.6C940.93,-158.06 1084.86,-130.23 1158.95,-115.9"/>
<polygon fill="black" stroke="black" points="1159.77,-119.31 1168.93,-113.98 1158.45,-112.44 1159.77,-119.31"/>
</g>
<!-- 35&#45;&gt;46 -->
<g id="edge37" class="edge">
<title>35&#45;&gt;46</title>
<path fill="none" stroke="black" d="M1210.27,-159.7C1209.5,-151.98 1208.57,-142.71 1207.71,-134.11"/>
<polygon fill="black" stroke="black" points="1211.19,-133.71 1206.71,-124.1 1204.22,-134.4 1211.19,-133.71"/>
</g>
<!-- legend_4 -->
<g id="node28" class="node">
<title>legend_4</title>
<polygon fill="darkseagreen" stroke="black" points="2803.5,-124 2582.5,-124 2582.5,-88 2803.5,-88 2803.5,-124"/>
<text text-anchor="middle" x="2693" y="-102.3" font-family="Times,serif" font-size="14.00">DT=5 ST=1 Similarity=0.69</text>
</g>
<!-- legend_3&#45;&gt;legend_4 -->
<g id="edge38" class="edge">
<title>legend_3&#45;&gt;legend_4</title>
<path fill="none" stroke="black" d="M2693,-159.7C2693,-151.98 2693,-142.71 2693,-134.11"/>
<polygon fill="black" stroke="black" points="2696.5,-134.1 2693,-124.1 2689.5,-134.1 2696.5,-134.1"/>
</g>
<!-- 523 -->
<g id="node52" class="node">
<title>523</title>
<ellipse fill="#b9d3ee" stroke="black" cx="431" cy="-34" rx="16.8" ry="18"/>
<text text-anchor="middle" x="431" y="-30.3" font-family="Times,serif" font-size="14.00">4</text>
</g>
<!-- 40&#45;&gt;523 -->
<g id="edge62" class="edge">
<title>40&#45;&gt;523</title>
<path fill="none" stroke="black" d="M431,-87.7C431,-79.98 431,-70.71 431,-62.11"/>
<polygon fill="black" stroke="black" points="434.5,-62.1 431,-52.1 427.5,-62.1 434.5,-62.1"/>
</g>
<!-- 533 -->
<g id="node62" class="node">
<title>533</title>
<ellipse fill="#b9d3ee" stroke="black" cx="373" cy="-34" rx="23" ry="18"/>
<text text-anchor="middle" x="373" y="-30.3" font-family="Times,serif" font-size="14.00">15</text>
</g>
<!-- 40&#45;&gt;533 -->
<g id="edge72" class="edge">
<title>40&#45;&gt;533</title>
<path fill="none" stroke="black" d="M416.66,-87.7C409.12,-78.59 399.77,-67.31 391.66,-57.52"/>
<polygon fill="black" stroke="black" points="394.29,-55.21 385.21,-49.74 388.9,-59.67 394.29,-55.21"/>
</g>
<!-- 59 -->
<g id="node38" class="node">
<title>59</title>
<ellipse fill="#b9d3ee" stroke="black" cx="1518" cy="-34" rx="16.8" ry="18"/>
<text text-anchor="middle" x="1518" y="-30.3" font-family="Times,serif" font-size="14.00">1</text>
</g>
<!-- 41&#45;&gt;59 -->
<g id="edge48" class="edge">
<title>41&#45;&gt;59</title>
<path fill="none" stroke="black" d="M1518,-87.7C1518,-79.98 1518,-70.71 1518,-62.11"/>
<polygon fill="black" stroke="black" points="1521.5,-62.1 1518,-52.1 1514.5,-62.1 1521.5,-62.1"/>
</g>
<!-- 534 -->
<g id="node63" class="node">
<title>534</title>
<ellipse fill="#b9d3ee" stroke="black" cx="1576" cy="-34" rx="23" ry="18"/>
<text text-anchor="middle" x="1576" y="-30.3" font-family="Times,serif" font-size="14.00">23</text>
</g>
<!-- 41&#45;&gt;534 -->
<g id="edge73" class="edge">
<title>41&#45;&gt;534</title>
<path fill="none" stroke="black" d="M1532.34,-87.7C1539.88,-78.59 1549.23,-67.31 1557.34,-57.52"/>
<polygon fill="black" stroke="black" points="1560.1,-59.67 1563.79,-49.74 1554.71,-55.21 1560.1,-59.67"/>
</g>
<!-- 53 -->
<g id="node32" class="node">
<title>53</title>
<ellipse fill="#b9d3ee" stroke="black" cx="752" cy="-34" rx="16.8" ry="18"/>
<text text-anchor="middle" x="752" y="-30.3" font-family="Times,serif" font-size="14.00">1</text>
</g>
<!-- 42&#45;&gt;53 -->
<g id="edge42" class="edge">
<title>42&#45;&gt;53</title>
<path fill="none" stroke="black" d="M752,-87.7C752,-79.98 752,-70.71 752,-62.11"/>
<polygon fill="black" stroke="black" points="755.5,-62.1 752,-52.1 748.5,-62.1 755.5,-62.1"/>
</g>
<!-- 57 -->
<g id="node36" class="node">
<title>57</title>
<ellipse fill="#b9d3ee" stroke="black" cx="804" cy="-34" rx="16.8" ry="18"/>
<text text-anchor="middle" x="804" y="-30.3" font-family="Times,serif" font-size="14.00">1</text>
</g>
<!-- 42&#45;&gt;57 -->
<g id="edge46" class="edge">
<title>42&#45;&gt;57</title>
<path fill="none" stroke="black" d="M764.85,-87.7C771.74,-78.43 780.29,-66.91 787.65,-57.01"/>
<polygon fill="black" stroke="black" points="790.58,-58.94 793.73,-48.82 784.96,-54.76 790.58,-58.94"/>
</g>
<!-- 519 -->
<g id="node48" class="node">
<title>519</title>
<ellipse fill="#b9d3ee" stroke="black" cx="856" cy="-34" rx="16.8" ry="18"/>
<text text-anchor="middle" x="856" y="-30.3" font-family="Times,serif" font-size="14.00">3</text>
</g>
<!-- 42&#45;&gt;519 -->
<g id="edge58" class="edge">
<title>42&#45;&gt;519</title>
<path fill="none" stroke="black" d="M777.44,-87.88C794.59,-76.33 817.01,-61.24 833.51,-50.14"/>
<polygon fill="black" stroke="black" points="835.65,-52.92 841.99,-44.43 831.74,-47.11 835.65,-52.92"/>
</g>
<!-- 528 -->
<g id="node57" class="node">
<title>528</title>
<ellipse fill="#b9d3ee" stroke="black" cx="483" cy="-34" rx="16.8" ry="18"/>
<text text-anchor="middle" x="483" y="-30.3" font-family="Times,serif" font-size="14.00">7</text>
</g>
<!-- 42&#45;&gt;528 -->
<g id="edge67" class="edge">
<title>42&#45;&gt;528</title>
<path fill="none" stroke="black" d="M715.76,-101.26C667.16,-95.33 578.89,-81.29 509,-52 507.8,-51.5 506.59,-50.93 505.39,-50.33"/>
<polygon fill="black" stroke="black" points="506.91,-47.17 496.51,-45.16 503.39,-53.22 506.91,-47.17"/>
</g>
<!-- 536 -->
<g id="node65" class="node">
<title>536</title>
<ellipse fill="#b9d3ee" stroke="black" cx="541" cy="-34" rx="23" ry="18"/>
<text text-anchor="middle" x="541" y="-30.3" font-family="Times,serif" font-size="14.00">48</text>
</g>
<!-- 42&#45;&gt;536 -->
<g id="edge75" class="edge">
<title>42&#45;&gt;536</title>
<path fill="none" stroke="black" d="M715.7,-96.76C678.77,-87.81 620.28,-72.07 572,-52 570.62,-51.43 569.22,-50.81 567.82,-50.16"/>
<polygon fill="black" stroke="black" points="569.21,-46.94 558.71,-45.56 566.06,-53.19 569.21,-46.94"/>
</g>
<!-- 537 -->
<g id="node66" class="node">
<title>537</title>
<ellipse fill="#b9d3ee" stroke="black" cx="604" cy="-34" rx="23" ry="18"/>
<text text-anchor="middle" x="604" y="-30.3" font-family="Times,serif" font-size="14.00">68</text>
</g>
<!-- 42&#45;&gt;537 -->
<g id="edge76" class="edge">
<title>42&#45;&gt;537</title>
<path fill="none" stroke="black" d="M715.94,-89.19C692.91,-78.93 662.51,-65.08 636,-52 634.45,-51.23 632.86,-50.44 631.26,-49.62"/>
<polygon fill="black" stroke="black" points="632.67,-46.41 622.18,-44.9 629.44,-52.62 632.67,-46.41"/>
</g>
<!-- 540 -->
<g id="node69" class="node">
<title>540</title>
<ellipse fill="#b9d3ee" stroke="black" cx="681" cy="-34" rx="36" ry="18"/>
<text text-anchor="middle" x="681" y="-30.3" font-family="Times,serif" font-size="14.00">271</text>
</g>
<!-- 42&#45;&gt;540 -->
<g id="edge79" class="edge">
<title>42&#45;&gt;540</title>
<path fill="none" stroke="black" d="M734.45,-87.7C725.29,-78.66 713.96,-67.5 704.09,-57.77"/>
<polygon fill="black" stroke="black" points="706.47,-55.2 696.9,-50.67 701.56,-60.18 706.47,-55.2"/>
</g>
<!-- 510 -->
<g id="node39" class="node">
<title>510</title>
<ellipse fill="#b9d3ee" stroke="black" cx="2007" cy="-34" rx="16.8" ry="18"/>
<text text-anchor="middle" x="2007" y="-30.3" font-family="Times,serif" font-size="14.00">1</text>
</g>
<!-- 43&#45;&gt;510 -->
<g id="edge49" class="edge">
<title>43&#45;&gt;510</title>
<path fill="none" stroke="black" d="M1803.03,-99.87C1846.55,-92.84 1921.35,-77.99 1981,-52 1982.2,-51.48 1983.4,-50.9 1984.59,-50.29"/>
<polygon fill="black" stroke="black" points="1986.61,-53.17 1993.46,-45.08 1983.06,-47.13 1986.61,-53.17"/>
</g>
<!-- 514 -->
<g id="node43" class="node">
<title>514</title>
<ellipse fill="#b9d3ee" stroke="black" cx="1634" cy="-34" rx="16.8" ry="18"/>
<text text-anchor="middle" x="1634" y="-30.3" font-family="Times,serif" font-size="14.00">2</text>
</g>
<!-- 43&#45;&gt;514 -->
<g id="edge53" class="edge">
<title>43&#45;&gt;514</title>
<path fill="none" stroke="black" d="M1730.78,-88.38C1709.78,-78.42 1683.03,-65.17 1660,-52 1658.87,-51.35 1657.72,-50.68 1656.56,-49.98"/>
<polygon fill="black" stroke="black" points="1658.17,-46.86 1647.84,-44.49 1654.44,-52.78 1658.17,-46.86"/>
</g>
<!-- 517 -->
<g id="node46" class="node">
<title>517</title>
<ellipse fill="#b9d3ee" stroke="black" cx="1686" cy="-34" rx="16.8" ry="18"/>
<text text-anchor="middle" x="1686" y="-30.3" font-family="Times,serif" font-size="14.00">2</text>
</g>
<!-- 43&#45;&gt;517 -->
<g id="edge56" class="edge">
<title>43&#45;&gt;517</title>
<path fill="none" stroke="black" d="M1746.98,-87.7C1734.68,-77.07 1718.96,-63.49 1706.57,-52.77"/>
<polygon fill="black" stroke="black" points="1708.82,-50.1 1698.97,-46.21 1704.25,-55.39 1708.82,-50.1"/>
</g>
<!-- 518 -->
<g id="node47" class="node">
<title>518</title>
<ellipse fill="#b9d3ee" stroke="black" cx="1738" cy="-34" rx="16.8" ry="18"/>
<text text-anchor="middle" x="1738" y="-30.3" font-family="Times,serif" font-size="14.00">2</text>
</g>
<!-- 43&#45;&gt;518 -->
<g id="edge57" class="edge">
<title>43&#45;&gt;518</title>
<path fill="none" stroke="black" d="M1759.83,-87.7C1756.38,-79.37 1752.18,-69.23 1748.39,-60.08"/>
<polygon fill="black" stroke="black" points="1751.55,-58.57 1744.49,-50.67 1745.09,-61.25 1751.55,-58.57"/>
</g>
<!-- 531 -->
<g id="node60" class="node">
<title>531</title>
<ellipse fill="#b9d3ee" stroke="black" cx="1796" cy="-34" rx="23" ry="18"/>
<text text-anchor="middle" x="1796" y="-30.3" font-family="Times,serif" font-size="14.00">10</text>
</g>
<!-- 43&#45;&gt;531 -->
<g id="edge70" class="edge">
<title>43&#45;&gt;531</title>
<path fill="none" stroke="black" d="M1774.17,-87.7C1777.52,-79.61 1781.58,-69.81 1785.28,-60.87"/>
<polygon fill="black" stroke="black" points="1788.52,-62.2 1789.11,-51.62 1782.05,-59.52 1788.52,-62.2"/>
</g>
<!-- 535 -->
<g id="node64" class="node">
<title>535</title>
<ellipse fill="#b9d3ee" stroke="black" cx="1859" cy="-34" rx="23" ry="18"/>
<text text-anchor="middle" x="1859" y="-30.3" font-family="Times,serif" font-size="14.00">26</text>
</g>
<!-- 43&#45;&gt;535 -->
<g id="edge74" class="edge">
<title>43&#45;&gt;535</title>
<path fill="none" stroke="black" d="M1789.74,-87.7C1803.49,-77.24 1821,-63.91 1834.97,-53.28"/>
<polygon fill="black" stroke="black" points="1837.31,-55.9 1843.15,-47.06 1833.07,-50.33 1837.31,-55.9"/>
</g>
<!-- 541 -->
<g id="node70" class="node">
<title>541</title>
<ellipse fill="#b9d3ee" stroke="black" cx="1936" cy="-34" rx="36" ry="18"/>
<text text-anchor="middle" x="1936" y="-30.3" font-family="Times,serif" font-size="14.00">322</text>
</g>
<!-- 43&#45;&gt;541 -->
<g id="edge80" class="edge">
<title>43&#45;&gt;541</title>
<path fill="none" stroke="black" d="M1803.25,-89.98C1831.71,-78.2 1871.15,-61.86 1899.63,-50.06"/>
<polygon fill="black" stroke="black" points="1901.32,-53.15 1909.22,-46.09 1898.64,-46.69 1901.32,-53.15"/>
</g>
<!-- 54 -->
<g id="node33" class="node">
<title>54</title>
<ellipse fill="#b9d3ee" stroke="black" cx="2288" cy="-34" rx="16.8" ry="18"/>
<text text-anchor="middle" x="2288" y="-30.3" font-family="Times,serif" font-size="14.00">1</text>
</g>
<!-- 44&#45;&gt;54 -->
<g id="edge43" class="edge">
<title>44&#45;&gt;54</title>
<path fill="none" stroke="black" d="M2260.9,-87.7C2265.33,-79.07 2270.77,-68.5 2275.6,-59.1"/>
<polygon fill="black" stroke="black" points="2278.72,-60.7 2280.18,-50.2 2272.5,-57.49 2278.72,-60.7"/>
</g>
<!-- 515 -->
<g id="node44" class="node">
<title>515</title>
<ellipse fill="#b9d3ee" stroke="black" cx="2340" cy="-34" rx="16.8" ry="18"/>
<text text-anchor="middle" x="2340" y="-30.3" font-family="Times,serif" font-size="14.00">2</text>
</g>
<!-- 44&#45;&gt;515 -->
<g id="edge54" class="edge">
<title>44&#45;&gt;515</title>
<path fill="none" stroke="black" d="M2273.75,-87.7C2287.49,-76.77 2305.16,-62.71 2318.8,-51.87"/>
<polygon fill="black" stroke="black" points="2321.05,-54.55 2326.69,-45.59 2316.69,-49.07 2321.05,-54.55"/>
</g>
<!-- 522 -->
<g id="node51" class="node">
<title>522</title>
<ellipse fill="#b9d3ee" stroke="black" cx="2392" cy="-34" rx="16.8" ry="18"/>
<text text-anchor="middle" x="2392" y="-30.3" font-family="Times,serif" font-size="14.00">4</text>
</g>
<!-- 44&#45;&gt;522 -->
<g id="edge61" class="edge">
<title>44&#45;&gt;522</title>
<path fill="none" stroke="black" d="M2288.09,-89.82C2310.85,-79.85 2340.62,-66.1 2366,-52 2367.14,-51.37 2368.3,-50.7 2369.46,-50.01"/>
<polygon fill="black" stroke="black" points="2371.57,-52.82 2378.19,-44.55 2367.86,-46.89 2371.57,-52.82"/>
</g>
<!-- 524 -->
<g id="node53" class="node">
<title>524</title>
<ellipse fill="#b9d3ee" stroke="black" cx="2444" cy="-34" rx="16.8" ry="18"/>
<text text-anchor="middle" x="2444" y="-30.3" font-family="Times,serif" font-size="14.00">4</text>
</g>
<!-- 44&#45;&gt;524 -->
<g id="edge63" class="edge">
<title>44&#45;&gt;524</title>
<path fill="none" stroke="black" d="M2288.03,-96.51C2322.39,-87.72 2375.11,-72.41 2418,-52 2419.18,-51.44 2420.37,-50.83 2421.55,-50.19"/>
<polygon fill="black" stroke="black" points="2423.6,-53.05 2430.37,-44.9 2420,-47.04 2423.6,-53.05"/>
</g>
<!-- 527 -->
<g id="node56" class="node">
<title>527</title>
<ellipse fill="#b9d3ee" stroke="black" cx="2496" cy="-34" rx="16.8" ry="18"/>
<text text-anchor="middle" x="2496" y="-30.3" font-family="Times,serif" font-size="14.00">5</text>
</g>
<!-- 44&#45;&gt;527 -->
<g id="edge66" class="edge">
<title>44&#45;&gt;527</title>
<path fill="none" stroke="black" d="M2288.32,-100.05C2332.6,-93.14 2409.06,-78.4 2470,-52 2471.2,-51.48 2472.4,-50.91 2473.6,-50.3"/>
<polygon fill="black" stroke="black" points="2475.61,-53.18 2482.46,-45.09 2472.07,-47.14 2475.61,-53.18"/>
</g>
<!-- 530 -->
<g id="node59" class="node">
<title>530</title>
<ellipse fill="#b9d3ee" stroke="black" cx="2548" cy="-34" rx="16.8" ry="18"/>
<text text-anchor="middle" x="2548" y="-30.3" font-family="Times,serif" font-size="14.00">9</text>
</g>
<!-- 44&#45;&gt;530 -->
<g id="edge69" class="edge">
<title>44&#45;&gt;530</title>
<path fill="none" stroke="black" d="M2288.2,-102.33C2341.23,-97.44 2442.36,-84.41 2522,-52 2523.21,-51.51 2524.42,-50.96 2525.62,-50.36"/>
<polygon fill="black" stroke="black" points="2527.61,-53.26 2534.51,-45.22 2524.11,-47.2 2527.61,-53.26"/>
</g>
<!-- 532 -->
<g id="node61" class="node">
<title>532</title>
<ellipse fill="#b9d3ee" stroke="black" cx="2065" cy="-34" rx="23" ry="18"/>
<text text-anchor="middle" x="2065" y="-30.3" font-family="Times,serif" font-size="14.00">13</text>
</g>
<!-- 44&#45;&gt;532 -->
<g id="edge71" class="edge">
<title>44&#45;&gt;532</title>
<path fill="none" stroke="black" d="M2215.7,-94.63C2183.64,-85.01 2135.93,-69.57 2096,-52 2094.63,-51.4 2093.24,-50.76 2091.85,-50.09"/>
<polygon fill="black" stroke="black" points="2093.26,-46.88 2082.76,-45.43 2090.07,-53.11 2093.26,-46.88"/>
</g>
<!-- 538 -->
<g id="node67" class="node">
<title>538</title>
<ellipse fill="#b9d3ee" stroke="black" cx="2134" cy="-34" rx="28.7" ry="18"/>
<text text-anchor="middle" x="2134" y="-30.3" font-family="Times,serif" font-size="14.00">104</text>
</g>
<!-- 44&#45;&gt;538 -->
<g id="edge77" class="edge">
<title>44&#45;&gt;538</title>
<path fill="none" stroke="black" d="M2223.13,-87.88C2204.81,-77 2181.18,-62.99 2162.85,-52.11"/>
<polygon fill="black" stroke="black" points="2164.45,-49 2154.07,-46.9 2160.88,-55.02 2164.45,-49"/>
</g>
<!-- 539 -->
<g id="node68" class="node">
<title>539</title>
<ellipse fill="#b9d3ee" stroke="black" cx="2217" cy="-34" rx="36" ry="18"/>
<text text-anchor="middle" x="2217" y="-30.3" font-family="Times,serif" font-size="14.00">268</text>
</g>
<!-- 44&#45;&gt;539 -->
<g id="edge78" class="edge">
<title>44&#45;&gt;539</title>
<path fill="none" stroke="black" d="M2243.35,-87.7C2239.26,-79.52 2234.3,-69.6 2229.79,-60.58"/>
<polygon fill="black" stroke="black" points="2232.91,-59 2225.31,-51.62 2226.65,-62.13 2232.91,-59"/>
</g>
<!-- 51 -->
<g id="node30" class="node">
<title>51</title>
<ellipse fill="#b9d3ee" stroke="black" cx="107" cy="-34" rx="16.8" ry="18"/>
<text text-anchor="middle" x="107" y="-30.3" font-family="Times,serif" font-size="14.00">1</text>
</g>
<!-- 45&#45;&gt;51 -->
<g id="edge40" class="edge">
<title>45&#45;&gt;51</title>
<path fill="none" stroke="black" d="M185.56,-87.88C168.41,-76.33 145.99,-61.24 129.49,-50.14"/>
<polygon fill="black" stroke="black" points="131.26,-47.11 121.01,-44.43 127.35,-52.92 131.26,-47.11"/>
</g>
<!-- 52 -->
<g id="node31" class="node">
<title>52</title>
<ellipse fill="#b9d3ee" stroke="black" cx="159" cy="-34" rx="16.8" ry="18"/>
<text text-anchor="middle" x="159" y="-30.3" font-family="Times,serif" font-size="14.00">1</text>
</g>
<!-- 45&#45;&gt;52 -->
<g id="edge41" class="edge">
<title>45&#45;&gt;52</title>
<path fill="none" stroke="black" d="M198.15,-87.7C191.26,-78.43 182.71,-66.91 175.35,-57.01"/>
<polygon fill="black" stroke="black" points="178.04,-54.76 169.27,-48.82 172.42,-58.94 178.04,-54.76"/>
</g>
<!-- 511 -->
<g id="node40" class="node">
<title>511</title>
<ellipse fill="#b9d3ee" stroke="black" cx="211" cy="-34" rx="16.8" ry="18"/>
<text text-anchor="middle" x="211" y="-30.3" font-family="Times,serif" font-size="14.00">1</text>
</g>
<!-- 45&#45;&gt;511 -->
<g id="edge50" class="edge">
<title>45&#45;&gt;511</title>
<path fill="none" stroke="black" d="M211,-87.7C211,-79.98 211,-70.71 211,-62.11"/>
<polygon fill="black" stroke="black" points="214.5,-62.1 211,-52.1 207.5,-62.1 214.5,-62.1"/>
</g>
<!-- 516 -->
<g id="node45" class="node">
<title>516</title>
<ellipse fill="#b9d3ee" stroke="black" cx="263" cy="-34" rx="16.8" ry="18"/>
<text text-anchor="middle" x="263" y="-30.3" font-family="Times,serif" font-size="14.00">2</text>
</g>
<!-- 45&#45;&gt;516 -->
<g id="edge55" class="edge">
<title>45&#45;&gt;516</title>
<path fill="none" stroke="black" d="M223.85,-87.7C230.74,-78.43 239.29,-66.91 246.65,-57.01"/>
<polygon fill="black" stroke="black" points="249.58,-58.94 252.73,-48.82 243.96,-54.76 249.58,-58.94"/>
</g>
<!-- 525 -->
<g id="node54" class="node">
<title>525</title>
<ellipse fill="#b9d3ee" stroke="black" cx="315" cy="-34" rx="16.8" ry="18"/>
<text text-anchor="middle" x="315" y="-30.3" font-family="Times,serif" font-size="14.00">4</text>
</g>
<!-- 45&#45;&gt;525 -->
<g id="edge64" class="edge">
<title>45&#45;&gt;525</title>
<path fill="none" stroke="black" d="M236.44,-87.88C253.59,-76.33 276.01,-61.24 292.51,-50.14"/>
<polygon fill="black" stroke="black" points="294.65,-52.92 300.99,-44.43 290.74,-47.11 294.65,-52.92"/>
</g>
<!-- 542 -->
<g id="node71" class="node">
<title>542</title>
<ellipse fill="#b9d3ee" stroke="black" cx="36" cy="-34" rx="36" ry="18"/>
<text text-anchor="middle" x="36" y="-30.3" font-family="Times,serif" font-size="14.00">372</text>
</g>
<!-- 45&#45;&gt;542 -->
<g id="edge81" class="edge">
<title>45&#45;&gt;542</title>
<path fill="none" stroke="black" d="M174.74,-90.5C144.97,-78.59 102.98,-61.79 73,-49.8"/>
<polygon fill="black" stroke="black" points="73.92,-46.4 63.33,-45.93 71.32,-52.9 73.92,-46.4"/>
</g>
<!-- 50 -->
<g id="node29" class="node">
<title>50</title>
<ellipse fill="#b9d3ee" stroke="black" cx="1466" cy="-34" rx="16.8" ry="18"/>
<text text-anchor="middle" x="1466" y="-30.3" font-family="Times,serif" font-size="14.00">1</text>
</g>
<!-- 46&#45;&gt;50 -->
<g id="edge39" class="edge">
<title>46&#45;&gt;50</title>
<path fill="none" stroke="black" d="M1241.26,-100.9C1288.5,-94.66 1372.98,-80.37 1440,-52 1441.2,-51.49 1442.41,-50.93 1443.61,-50.32"/>
<polygon fill="black" stroke="black" points="1445.61,-53.21 1452.48,-45.14 1442.08,-47.16 1445.61,-53.21"/>
</g>
<!-- 55 -->
<g id="node34" class="node">
<title>55</title>
<ellipse fill="#b9d3ee" stroke="black" cx="908" cy="-34" rx="16.8" ry="18"/>
<text text-anchor="middle" x="908" y="-30.3" font-family="Times,serif" font-size="14.00">1</text>
</g>
<!-- 46&#45;&gt;55 -->
<g id="edge44" class="edge">
<title>46&#45;&gt;55</title>
<path fill="none" stroke="black" d="M1168.66,-102.35C1115.44,-97.5 1013.94,-84.5 934,-52 932.79,-51.51 931.58,-50.96 930.37,-50.37"/>
<polygon fill="black" stroke="black" points="931.89,-47.2 921.48,-45.22 928.39,-53.26 931.89,-47.2"/>
</g>
<!-- 56 -->
<g id="node35" class="node">
<title>56</title>
<ellipse fill="#b9d3ee" stroke="black" cx="960" cy="-34" rx="16.8" ry="18"/>
<text text-anchor="middle" x="960" y="-30.3" font-family="Times,serif" font-size="14.00">1</text>
</g>
<!-- 46&#45;&gt;56 -->
<g id="edge45" class="edge">
<title>46&#45;&gt;56</title>
<path fill="none" stroke="black" d="M1168.91,-100.13C1124.48,-93.28 1047.39,-78.56 986,-52 984.8,-51.48 983.6,-50.91 982.4,-50.3"/>
<polygon fill="black" stroke="black" points="983.93,-47.14 973.54,-45.1 980.39,-53.18 983.93,-47.14"/>
</g>
<!-- 58 -->
<g id="node37" class="node">
<title>58</title>
<ellipse fill="#b9d3ee" stroke="black" cx="1012" cy="-34" rx="16.8" ry="18"/>
<text text-anchor="middle" x="1012" y="-30.3" font-family="Times,serif" font-size="14.00">1</text>
</g>
<!-- 46&#45;&gt;58 -->
<g id="edge47" class="edge">
<title>46&#45;&gt;58</title>
<path fill="none" stroke="black" d="M1168.75,-96.54C1134.18,-87.77 1081.14,-72.48 1038,-52 1036.82,-51.44 1035.63,-50.84 1034.45,-50.2"/>
<polygon fill="black" stroke="black" points="1036,-47.05 1025.63,-44.9 1032.4,-53.05 1036,-47.05"/>
</g>
<!-- 512 -->
<g id="node41" class="node">
<title>512</title>
<ellipse fill="#b9d3ee" stroke="black" cx="1064" cy="-34" rx="16.8" ry="18"/>
<text text-anchor="middle" x="1064" y="-30.3" font-family="Times,serif" font-size="14.00">2</text>
</g>
<!-- 46&#45;&gt;512 -->
<g id="edge51" class="edge">
<title>46&#45;&gt;512</title>
<path fill="none" stroke="black" d="M1168.84,-89.97C1145.85,-80.01 1115.68,-66.21 1090,-52 1088.86,-51.37 1087.7,-50.7 1086.54,-50.02"/>
<polygon fill="black" stroke="black" points="1088.14,-46.89 1077.8,-44.56 1084.43,-52.83 1088.14,-46.89"/>
</g>
<!-- 513 -->
<g id="node42" class="node">
<title>513</title>
<ellipse fill="#b9d3ee" stroke="black" cx="1116" cy="-34" rx="16.8" ry="18"/>
<text text-anchor="middle" x="1116" y="-30.3" font-family="Times,serif" font-size="14.00">2</text>
</g>
<!-- 46&#45;&gt;513 -->
<g id="edge52" class="edge">
<title>46&#45;&gt;513</title>
<path fill="none" stroke="black" d="M1183,-87.7C1169.02,-76.7 1151.01,-62.54 1137.19,-51.67"/>
<polygon fill="black" stroke="black" points="1139.22,-48.81 1129.2,-45.38 1134.89,-54.31 1139.22,-48.81"/>
</g>
<!-- 520 -->
<g id="node49" class="node">
<title>520</title>
<ellipse fill="#b9d3ee" stroke="black" cx="1168" cy="-34" rx="16.8" ry="18"/>
<text text-anchor="middle" x="1168" y="-30.3" font-family="Times,serif" font-size="14.00">3</text>
</g>
<!-- 46&#45;&gt;520 -->
<g id="edge59" class="edge">
<title>46&#45;&gt;520</title>
<path fill="none" stroke="black" d="M1195.85,-87.7C1191.3,-79.07 1185.71,-68.5 1180.74,-59.1"/>
<polygon fill="black" stroke="black" points="1183.8,-57.41 1176.04,-50.2 1177.61,-60.68 1183.8,-57.41"/>
</g>
<!-- 521 -->
<g id="node50" class="node">
<title>521</title>
<ellipse fill="#b9d3ee" stroke="black" cx="1220" cy="-34" rx="16.8" ry="18"/>
<text text-anchor="middle" x="1220" y="-30.3" font-family="Times,serif" font-size="14.00">3</text>
</g>
<!-- 46&#45;&gt;521 -->
<g id="edge60" class="edge">
<title>46&#45;&gt;521</title>
<path fill="none" stroke="black" d="M1208.71,-87.7C1210.4,-79.78 1212.45,-70.23 1214.33,-61.44"/>
<polygon fill="black" stroke="black" points="1217.77,-62.13 1216.44,-51.62 1210.92,-60.67 1217.77,-62.13"/>
</g>
<!-- 526 -->
<g id="node55" class="node">
<title>526</title>
<ellipse fill="#b9d3ee" stroke="black" cx="1272" cy="-34" rx="16.8" ry="18"/>
<text text-anchor="middle" x="1272" y="-30.3" font-family="Times,serif" font-size="14.00">5</text>
</g>
<!-- 46&#45;&gt;526 -->
<g id="edge65" class="edge">
<title>46&#45;&gt;526</title>
<path fill="none" stroke="black" d="M1221.56,-87.7C1231.07,-77.76 1243.06,-65.24 1252.96,-54.9"/>
<polygon fill="black" stroke="black" points="1255.66,-57.14 1260.04,-47.49 1250.6,-52.3 1255.66,-57.14"/>
</g>
<!-- 529 -->
<g id="node58" class="node">
<title>529</title>
<ellipse fill="#b9d3ee" stroke="black" cx="1324" cy="-34" rx="16.8" ry="18"/>
<text text-anchor="middle" x="1324" y="-30.3" font-family="Times,serif" font-size="14.00">9</text>
</g>
<!-- 46&#45;&gt;529 -->
<g id="edge68" class="edge">
<title>46&#45;&gt;529</title>
<path fill="none" stroke="black" d="M1236.28,-87.8C1254.45,-77.65 1277.7,-64.4 1298,-52 1299.11,-51.32 1300.25,-50.62 1301.39,-49.9"/>
<polygon fill="black" stroke="black" points="1303.54,-52.68 1310.07,-44.33 1299.76,-46.79 1303.54,-52.68"/>
</g>
<!-- 543 -->
<g id="node72" class="node">
<title>543</title>
<ellipse fill="#b9d3ee" stroke="black" cx="1395" cy="-34" rx="36" ry="18"/>
<text text-anchor="middle" x="1395" y="-30.3" font-family="Times,serif" font-size="14.00">374</text>
</g>
<!-- 46&#45;&gt;543 -->
<g id="edge82" class="edge">
<title>46&#45;&gt;543</title>
<path fill="none" stroke="black" d="M1241.09,-91.93C1270.45,-81.27 1312.94,-65.77 1350,-52 1352.4,-51.11 1354.87,-50.19 1357.35,-49.26"/>
<polygon fill="black" stroke="black" points="1358.8,-52.45 1366.93,-45.66 1356.34,-45.9 1358.8,-52.45"/>
</g>
<!-- legend_5 -->
<g id="node73" class="node">
<title>legend_5</title>
<polygon fill="#b9d3ee" stroke="black" points="2803.5,-52 2582.5,-52 2582.5,-16 2803.5,-16 2803.5,-52"/>
<text text-anchor="middle" x="2693" y="-30.3" font-family="Times,serif" font-size="14.00">DT=6 ST=1 Similarity=0.55</text>
</g>
<!-- legend_4&#45;&gt;legend_5 -->
<g id="edge83" class="edge">
<title>legend_4&#45;&gt;legend_5</title>
<path fill="none" stroke="black" d="M2693,-87.7C2693,-79.98 2693,-70.71 2693,-62.11"/>
<polygon fill="black" stroke="black" points="2696.5,-62.1 2693,-52.1 2689.5,-62.1 2696.5,-62.1"/>
</g>
</g>
</svg>
