<?xml version="1.0" encoding="UTF-8" standalone="no"?>
<!DOCTYPE svg PUBLIC "-//W3C//DTD SVG 1.1//EN"
 "http://www.w3.org/Graphics/SVG/1.1/DTD/svg11.dtd">
<!-- Generated by graphviz version 2.43.0 (0)
 -->
<!-- Title: %3 Pages: 1 -->
<svg width="2964pt" height="497pt"
 viewBox="0.00 0.00 2963.90 497.00" xmlns="http://www.w3.org/2000/svg" xmlns:xlink="http://www.w3.org/1999/xlink">
<g id="graph0" class="graph" transform="scale(1 1) rotate(0) translate(4 493)">
<title>%3</title>
<polygon fill="white" stroke="transparent" points="-4,4 -4,-493 2959.9,-493 2959.9,4 -4,4"/>
<text text-anchor="middle" x="1477.95" y="-473.8" font-family="Times,serif" font-size="14.00">ConsTree</text>
<text text-anchor="middle" x="1477.95" y="-458.8" font-family="Times,serif" font-size="14.00">Tree Quality = 1</text>
<g id="clust1" class="cluster">
<title>cluster</title>
<polygon fill="none" stroke="black" points="2711.9,-8 2711.9,-443 2947.9,-443 2947.9,-8 2711.9,-8"/>
<text text-anchor="middle" x="2829.9" y="-427.8" font-family="Times,serif" font-size="14.00">Legend</text>
</g>
<!-- 00 -->
<g id="node1" class="node">
<title>00</title>
<ellipse fill="#b9d3ee" stroke="black" cx="1252.9" cy="-394" rx="108" ry="18"/>
<text text-anchor="middle" x="1252.9" y="-390.3" font-family="Times,serif" font-size="14.00">770</text>
</g>
<!-- 10 -->
<g id="node4" class="node">
<title>10</title>
<ellipse fill="#b9d3ee" stroke="black" cx="1099.9" cy="-322" rx="72" ry="18"/>
<text text-anchor="middle" x="1099.9" y="-318.3" font-family="Times,serif" font-size="14.00">445</text>
</g>
<!-- 00&#45;&gt;10 -->
<g id="edge1" class="edge">
<title>00&#45;&gt;10</title>
<path fill="none" stroke="black" d="M1217.8,-376.94C1195.21,-366.61 1165.73,-353.12 1141.9,-342.22"/>
<polygon fill="black" stroke="black" points="1143.29,-339 1132.74,-338.03 1140.38,-345.37 1143.29,-339"/>
</g>
<!-- 11 -->
<g id="node5" class="node">
<title>11</title>
<ellipse fill="#b9d3ee" stroke="black" cx="901.9" cy="-322" rx="108" ry="18"/>
<text text-anchor="middle" x="901.9" y="-318.3" font-family="Times,serif" font-size="14.00">739</text>
</g>
<!-- 00&#45;&gt;11 -->
<g id="edge3" class="edge">
<title>00&#45;&gt;11</title>
<path fill="none" stroke="black" d="M1186.47,-379.75C1127.26,-367.94 1040.61,-350.66 978.49,-338.28"/>
<polygon fill="black" stroke="black" points="978.85,-334.78 968.36,-336.25 977.48,-341.64 978.85,-334.78"/>
</g>
<!-- 12 -->
<g id="node6" class="node">
<title>12</title>
<ellipse fill="#b9d3ee" stroke="black" cx="1297.9" cy="-322" rx="108" ry="18"/>
<text text-anchor="middle" x="1297.9" y="-318.3" font-family="Times,serif" font-size="14.00">816</text>
</g>
<!-- 00&#45;&gt;12 -->
<g id="edge5" class="edge">
<title>00&#45;&gt;12</title>
<path fill="none" stroke="black" d="M1263.79,-376.05C1269.02,-367.92 1275.4,-358 1281.22,-348.94"/>
<polygon fill="black" stroke="black" points="1284.33,-350.58 1286.79,-340.28 1278.44,-346.79 1284.33,-350.58"/>
</g>
<!-- 01 -->
<g id="node2" class="node">
<title>01</title>
<ellipse fill="#b9d3ee" stroke="black" cx="946.9" cy="-394" rx="180" ry="18"/>
<text text-anchor="middle" x="946.9" y="-390.3" font-family="Times,serif" font-size="14.00">1230</text>
</g>
<!-- 01&#45;&gt;10 -->
<g id="edge2" class="edge">
<title>01&#45;&gt;10</title>
<path fill="none" stroke="black" d="M983.55,-376.23C1005.85,-366.03 1034.41,-352.96 1057.66,-342.32"/>
<polygon fill="black" stroke="black" points="1059.3,-345.42 1066.94,-338.08 1056.39,-339.06 1059.3,-345.42"/>
</g>
<!-- 01&#45;&gt;11 -->
<g id="edge4" class="edge">
<title>01&#45;&gt;11</title>
<path fill="none" stroke="black" d="M935.77,-375.7C930.54,-367.56 924.2,-357.69 918.42,-348.7"/>
<polygon fill="black" stroke="black" points="921.25,-346.62 912.89,-340.1 915.36,-350.41 921.25,-346.62"/>
</g>
<!-- 01&#45;&gt;12 -->
<g id="edge6" class="edge">
<title>01&#45;&gt;12</title>
<path fill="none" stroke="black" d="M1023.93,-377.64C1082.59,-365.94 1162.95,-349.91 1221.46,-338.24"/>
<polygon fill="black" stroke="black" points="1222.27,-341.65 1231.39,-336.26 1220.9,-334.79 1222.27,-341.65"/>
</g>
<!-- legend_0 -->
<g id="node3" class="node">
<title>legend_0</title>
<polygon fill="#b9d3ee" stroke="black" points="2940.4,-412 2719.4,-412 2719.4,-376 2940.4,-376 2940.4,-412"/>
<text text-anchor="middle" x="2829.9" y="-390.3" font-family="Times,serif" font-size="14.00">DT=1 ST=1 Similarity=0.49</text>
</g>
<!-- legend_1 -->
<g id="node7" class="node">
<title>legend_1</title>
<polygon fill="#b9d3ee" stroke="black" points="2940.4,-340 2719.4,-340 2719.4,-304 2940.4,-304 2940.4,-340"/>
<text text-anchor="middle" x="2829.9" y="-318.3" font-family="Times,serif" font-size="14.00">DT=2 ST=1 Similarity=0.63</text>
</g>
<!-- legend_0&#45;&gt;legend_1 -->
<g id="edge7" class="edge">
<title>legend_0&#45;&gt;legend_1</title>
<path fill="none" stroke="black" d="M2829.9,-375.7C2829.9,-367.98 2829.9,-358.71 2829.9,-350.11"/>
<polygon fill="black" stroke="black" points="2833.4,-350.1 2829.9,-340.1 2826.4,-350.1 2833.4,-350.1"/>
</g>
<!-- 21 -->
<g id="node9" class="node">
<title>21</title>
<ellipse fill="#b9d3ee" stroke="black" cx="1153.9" cy="-250" rx="36" ry="18"/>
<text text-anchor="middle" x="1153.9" y="-246.3" font-family="Times,serif" font-size="14.00">407</text>
</g>
<!-- 10&#45;&gt;21 -->
<g id="edge9" class="edge">
<title>10&#45;&gt;21</title>
<path fill="none" stroke="black" d="M1112.97,-304.05C1119.63,-295.42 1127.86,-284.76 1135.18,-275.27"/>
<polygon fill="black" stroke="black" points="1137.98,-277.36 1141.32,-267.31 1132.44,-273.09 1137.98,-277.36"/>
</g>
<!-- 23 -->
<g id="node11" class="node">
<title>23</title>
<ellipse fill="#b9d3ee" stroke="black" cx="919.9" cy="-250" rx="108" ry="18"/>
<text text-anchor="middle" x="919.9" y="-246.3" font-family="Times,serif" font-size="14.00">790</text>
</g>
<!-- 10&#45;&gt;23 -->
<g id="edge12" class="edge">
<title>10&#45;&gt;23</title>
<path fill="none" stroke="black" d="M1062.6,-306.5C1035.77,-296.06 999.29,-281.88 969.94,-270.46"/>
<polygon fill="black" stroke="black" points="970.87,-267.07 960.28,-266.7 968.33,-273.59 970.87,-267.07"/>
</g>
<!-- 11&#45;&gt;23 -->
<g id="edge13" class="edge">
<title>11&#45;&gt;23</title>
<path fill="none" stroke="black" d="M906.35,-303.7C908.35,-295.9 910.77,-286.51 913,-277.83"/>
<polygon fill="black" stroke="black" points="916.4,-278.66 915.5,-268.1 909.62,-276.92 916.4,-278.66"/>
</g>
<!-- 20 -->
<g id="node8" class="node">
<title>20</title>
<ellipse fill="#b9d3ee" stroke="black" cx="1742.9" cy="-250" rx="36" ry="18"/>
<text text-anchor="middle" x="1742.9" y="-246.3" font-family="Times,serif" font-size="14.00">400</text>
</g>
<!-- 12&#45;&gt;20 -->
<g id="edge8" class="edge">
<title>12&#45;&gt;20</title>
<path fill="none" stroke="black" d="M1373.39,-309.13C1466.93,-294.41 1623.24,-269.82 1699.03,-257.9"/>
<polygon fill="black" stroke="black" points="1699.84,-261.32 1709.17,-256.3 1698.75,-254.4 1699.84,-261.32"/>
</g>
<!-- 12&#45;&gt;21 -->
<g id="edge10" class="edge">
<title>12&#45;&gt;21</title>
<path fill="none" stroke="black" d="M1264.5,-304.76C1241.57,-293.62 1211.23,-278.87 1188.12,-267.64"/>
<polygon fill="black" stroke="black" points="1189.55,-264.44 1179.02,-263.21 1186.49,-270.73 1189.55,-264.44"/>
</g>
<!-- 22 -->
<g id="node10" class="node">
<title>22</title>
<ellipse fill="#b9d3ee" stroke="black" cx="1297.9" cy="-250" rx="36" ry="18"/>
<text text-anchor="middle" x="1297.9" y="-246.3" font-family="Times,serif" font-size="14.00">403</text>
</g>
<!-- 12&#45;&gt;22 -->
<g id="edge11" class="edge">
<title>12&#45;&gt;22</title>
<path fill="none" stroke="black" d="M1297.9,-303.7C1297.9,-295.98 1297.9,-286.71 1297.9,-278.11"/>
<polygon fill="black" stroke="black" points="1301.4,-278.1 1297.9,-268.1 1294.4,-278.1 1301.4,-278.1"/>
</g>
<!-- 12&#45;&gt;23 -->
<g id="edge14" class="edge">
<title>12&#45;&gt;23</title>
<path fill="none" stroke="black" d="M1228.57,-308.16C1163.9,-296.18 1067.47,-278.33 999.64,-265.77"/>
<polygon fill="black" stroke="black" points="999.9,-262.26 989.43,-263.88 998.62,-269.14 999.9,-262.26"/>
</g>
<!-- legend_2 -->
<g id="node12" class="node">
<title>legend_2</title>
<polygon fill="#b9d3ee" stroke="black" points="2940.4,-268 2719.4,-268 2719.4,-232 2940.4,-232 2940.4,-268"/>
<text text-anchor="middle" x="2829.9" y="-246.3" font-family="Times,serif" font-size="14.00">DT=3 ST=1 Similarity=0.66</text>
</g>
<!-- legend_1&#45;&gt;legend_2 -->
<g id="edge15" class="edge">
<title>legend_1&#45;&gt;legend_2</title>
<path fill="none" stroke="black" d="M2829.9,-303.7C2829.9,-295.98 2829.9,-286.71 2829.9,-278.11"/>
<polygon fill="black" stroke="black" points="2833.4,-278.1 2829.9,-268.1 2826.4,-278.1 2833.4,-278.1"/>
</g>
<!-- 30 -->
<g id="node13" class="node">
<title>30</title>
<polygon fill="darkseagreen" stroke="black" points="1946.9,-196 1874.9,-196 1874.9,-160 1946.9,-160 1946.9,-196"/>
<text text-anchor="middle" x="1910.9" y="-174.3" font-family="Times,serif" font-size="14.00">394</text>
</g>
<!-- 20&#45;&gt;30 -->
<g id="edge16" class="edge">
<title>20&#45;&gt;30</title>
<path fill="none" stroke="black" d="M1769.89,-237.75C1795.59,-227.05 1834.75,-210.73 1865.29,-198"/>
<polygon fill="black" stroke="black" points="1866.99,-201.09 1874.88,-194.01 1864.3,-194.62 1866.99,-201.09"/>
</g>
<!-- 34 -->
<g id="node17" class="node">
<title>34</title>
<polygon fill="darkseagreen" stroke="black" points="1778.9,-196 1706.9,-196 1706.9,-160 1778.9,-160 1778.9,-196"/>
<text text-anchor="middle" x="1742.9" y="-174.3" font-family="Times,serif" font-size="14.00">406</text>
</g>
<!-- 20&#45;&gt;34 -->
<g id="edge22" class="edge">
<title>20&#45;&gt;34</title>
<path fill="none" stroke="black" d="M1742.9,-231.7C1742.9,-223.98 1742.9,-214.71 1742.9,-206.11"/>
<polygon fill="black" stroke="black" points="1746.4,-206.1 1742.9,-196.1 1739.4,-206.1 1746.4,-206.1"/>
</g>
<!-- 31 -->
<g id="node14" class="node">
<title>31</title>
<polygon fill="darkseagreen" stroke="black" points="1225.9,-196 1081.9,-196 1081.9,-160 1225.9,-160 1225.9,-196"/>
<text text-anchor="middle" x="1153.9" y="-174.3" font-family="Times,serif" font-size="14.00">449</text>
</g>
<!-- 21&#45;&gt;31 -->
<g id="edge17" class="edge">
<title>21&#45;&gt;31</title>
<path fill="none" stroke="black" d="M1153.9,-231.7C1153.9,-223.98 1153.9,-214.71 1153.9,-206.11"/>
<polygon fill="black" stroke="black" points="1157.4,-206.1 1153.9,-196.1 1150.4,-206.1 1157.4,-206.1"/>
</g>
<!-- 22&#45;&gt;31 -->
<g id="edge18" class="edge">
<title>22&#45;&gt;31</title>
<path fill="none" stroke="black" d="M1272.82,-236.81C1252.24,-226.8 1222.6,-212.4 1198.07,-200.47"/>
<polygon fill="black" stroke="black" points="1199.46,-197.26 1188.94,-196.03 1196.4,-203.55 1199.46,-197.26"/>
</g>
<!-- 22&#45;&gt;34 -->
<g id="edge23" class="edge">
<title>22&#45;&gt;34</title>
<path fill="none" stroke="black" d="M1331.71,-243.68C1410.61,-231.27 1606.98,-200.38 1696.77,-186.26"/>
<polygon fill="black" stroke="black" points="1697.33,-189.71 1706.67,-184.7 1696.25,-182.8 1697.33,-189.71"/>
</g>
<!-- 23&#45;&gt;31 -->
<g id="edge19" class="edge">
<title>23&#45;&gt;31</title>
<path fill="none" stroke="black" d="M970.1,-233.98C1004.24,-223.77 1049.81,-210.14 1087.03,-199"/>
<polygon fill="black" stroke="black" points="1088.21,-202.3 1096.79,-196.08 1086.21,-195.6 1088.21,-202.3"/>
</g>
<!-- 32 -->
<g id="node15" class="node">
<title>32</title>
<polygon fill="darkseagreen" stroke="black" points="888.9,-196 816.9,-196 816.9,-160 888.9,-160 888.9,-196"/>
<text text-anchor="middle" x="852.9" y="-174.3" font-family="Times,serif" font-size="14.00">343</text>
</g>
<!-- 23&#45;&gt;32 -->
<g id="edge20" class="edge">
<title>23&#45;&gt;32</title>
<path fill="none" stroke="black" d="M903.68,-232.05C895.49,-223.5 885.4,-212.96 876.38,-203.54"/>
<polygon fill="black" stroke="black" points="878.88,-201.08 869.43,-196.28 873.82,-205.92 878.88,-201.08"/>
</g>
<!-- 33 -->
<g id="node16" class="node">
<title>33</title>
<polygon fill="darkseagreen" stroke="black" points="741.9,-196 669.9,-196 669.9,-160 741.9,-160 741.9,-196"/>
<text text-anchor="middle" x="705.9" y="-174.3" font-family="Times,serif" font-size="14.00">408</text>
</g>
<!-- 23&#45;&gt;33 -->
<g id="edge21" class="edge">
<title>23&#45;&gt;33</title>
<path fill="none" stroke="black" d="M873.2,-233.72C837.23,-221.96 787.75,-205.78 751.95,-194.06"/>
<polygon fill="black" stroke="black" points="752.82,-190.67 742.23,-190.88 750.65,-197.32 752.82,-190.67"/>
</g>
<!-- legend_3 -->
<g id="node18" class="node">
<title>legend_3</title>
<polygon fill="darkseagreen" stroke="black" points="2940.4,-196 2719.4,-196 2719.4,-160 2940.4,-160 2940.4,-196"/>
<text text-anchor="middle" x="2829.9" y="-174.3" font-family="Times,serif" font-size="14.00">DT=4 ST=1 Similarity=0.67</text>
</g>
<!-- legend_2&#45;&gt;legend_3 -->
<g id="edge24" class="edge">
<title>legend_2&#45;&gt;legend_3</title>
<path fill="none" stroke="black" d="M2829.9,-231.7C2829.9,-223.98 2829.9,-214.71 2829.9,-206.11"/>
<polygon fill="black" stroke="black" points="2833.4,-206.1 2829.9,-196.1 2826.4,-206.1 2833.4,-206.1"/>
</g>
<!-- 41 -->
<g id="node20" class="node">
<title>41</title>
<ellipse fill="#b9d3ee" stroke="black" cx="1522.9" cy="-106" rx="23" ry="18"/>
<text text-anchor="middle" x="1522.9" y="-102.3" font-family="Times,serif" font-size="14.00">24</text>
</g>
<!-- 30&#45;&gt;41 -->
<g id="edge27" class="edge">
<title>30&#45;&gt;41</title>
<path fill="none" stroke="black" d="M1874.74,-170.48C1799.41,-156.89 1626.69,-125.73 1555,-112.79"/>
<polygon fill="black" stroke="black" points="1555.25,-109.28 1544.79,-110.95 1554.01,-116.17 1555.25,-109.28"/>
</g>
<!-- 45 -->
<g id="node24" class="node">
<title>45</title>
<ellipse fill="#b9d3ee" stroke="black" cx="2400.9" cy="-106" rx="36" ry="18"/>
<text text-anchor="middle" x="2400.9" y="-102.3" font-family="Times,serif" font-size="14.00">382</text>
</g>
<!-- 30&#45;&gt;45 -->
<g id="edge33" class="edge">
<title>30&#45;&gt;45</title>
<path fill="none" stroke="black" d="M1946.93,-171.85C2035,-159.27 2260.96,-126.99 2356.83,-113.3"/>
<polygon fill="black" stroke="black" points="2357.38,-116.75 2366.78,-111.87 2356.39,-109.82 2357.38,-116.75"/>
</g>
<!-- 48 -->
<g id="node27" class="node">
<title>48</title>
<ellipse fill="#b9d3ee" stroke="black" cx="1988.9" cy="-106" rx="36" ry="18"/>
<text text-anchor="middle" x="1988.9" y="-102.3" font-family="Times,serif" font-size="14.00">409</text>
</g>
<!-- 30&#45;&gt;48 -->
<g id="edge37" class="edge">
<title>30&#45;&gt;48</title>
<path fill="none" stroke="black" d="M1930.18,-159.7C1940.56,-150.38 1953.47,-138.79 1964.54,-128.86"/>
<polygon fill="black" stroke="black" points="1967.11,-131.25 1972.22,-121.97 1962.44,-126.04 1967.11,-131.25"/>
</g>
<!-- 40 -->
<g id="node19" class="node">
<title>40</title>
<ellipse fill="#b9d3ee" stroke="black" cx="1742.9" cy="-106" rx="16.8" ry="18"/>
<text text-anchor="middle" x="1742.9" y="-102.3" font-family="Times,serif" font-size="14.00">7</text>
</g>
<!-- 31&#45;&gt;40 -->
<g id="edge25" class="edge">
<title>31&#45;&gt;40</title>
<path fill="none" stroke="black" d="M1226.12,-168.42C1357.51,-152.8 1630.01,-120.42 1716.17,-110.18"/>
<polygon fill="black" stroke="black" points="1716.66,-113.64 1726.18,-108.99 1715.84,-106.69 1716.66,-113.64"/>
</g>
<!-- 42 -->
<g id="node21" class="node">
<title>42</title>
<ellipse fill="#b9d3ee" stroke="black" cx="852.9" cy="-106" rx="23" ry="18"/>
<text text-anchor="middle" x="852.9" y="-102.3" font-family="Times,serif" font-size="14.00">40</text>
</g>
<!-- 31&#45;&gt;42 -->
<g id="edge29" class="edge">
<title>31&#45;&gt;42</title>
<path fill="none" stroke="black" d="M1081.8,-160.23C1018.9,-145.61 930.66,-125.08 884.25,-114.29"/>
<polygon fill="black" stroke="black" points="885,-110.87 874.47,-112.02 883.42,-117.69 885,-110.87"/>
</g>
<!-- 46 -->
<g id="node25" class="node">
<title>46</title>
<ellipse fill="#b9d3ee" stroke="black" cx="1153.9" cy="-106" rx="36" ry="18"/>
<text text-anchor="middle" x="1153.9" y="-102.3" font-family="Times,serif" font-size="14.00">405</text>
</g>
<!-- 31&#45;&gt;46 -->
<g id="edge34" class="edge">
<title>31&#45;&gt;46</title>
<path fill="none" stroke="black" d="M1153.9,-159.7C1153.9,-151.98 1153.9,-142.71 1153.9,-134.11"/>
<polygon fill="black" stroke="black" points="1157.4,-134.1 1153.9,-124.1 1150.4,-134.1 1157.4,-134.1"/>
</g>
<!-- 32&#45;&gt;42 -->
<g id="edge30" class="edge">
<title>32&#45;&gt;42</title>
<path fill="none" stroke="black" d="M852.9,-159.7C852.9,-151.98 852.9,-142.71 852.9,-134.11"/>
<polygon fill="black" stroke="black" points="856.4,-134.1 852.9,-124.1 849.4,-134.1 856.4,-134.1"/>
</g>
<!-- 47 -->
<g id="node26" class="node">
<title>47</title>
<ellipse fill="#b9d3ee" stroke="black" cx="705.9" cy="-106" rx="36" ry="18"/>
<text text-anchor="middle" x="705.9" y="-102.3" font-family="Times,serif" font-size="14.00">358</text>
</g>
<!-- 32&#45;&gt;47 -->
<g id="edge35" class="edge">
<title>32&#45;&gt;47</title>
<path fill="none" stroke="black" d="M816.94,-159.88C793.63,-148.78 763.44,-134.4 740.42,-123.44"/>
<polygon fill="black" stroke="black" points="741.89,-120.26 731.35,-119.12 738.88,-126.58 741.89,-120.26"/>
</g>
<!-- 33&#45;&gt;41 -->
<g id="edge28" class="edge">
<title>33&#45;&gt;41</title>
<path fill="none" stroke="black" d="M742.13,-170.14C761.57,-166.66 785.97,-162.63 807.9,-160 1069.63,-128.56 1387.65,-112.86 1489.7,-108.38"/>
<polygon fill="black" stroke="black" points="1490.14,-111.87 1499.98,-107.94 1489.84,-104.87 1490.14,-111.87"/>
</g>
<!-- 43 -->
<g id="node22" class="node">
<title>43</title>
<ellipse fill="#b9d3ee" stroke="black" cx="210.9" cy="-106" rx="23" ry="18"/>
<text text-anchor="middle" x="210.9" y="-102.3" font-family="Times,serif" font-size="14.00">98</text>
</g>
<!-- 33&#45;&gt;43 -->
<g id="edge31" class="edge">
<title>33&#45;&gt;43</title>
<path fill="none" stroke="black" d="M669.5,-171.85C576.49,-158.7 331.25,-124.02 243.06,-111.55"/>
<polygon fill="black" stroke="black" points="243.5,-108.08 233.11,-110.14 242.52,-115.01 243.5,-108.08"/>
</g>
<!-- 44 -->
<g id="node23" class="node">
<title>44</title>
<ellipse fill="#b9d3ee" stroke="black" cx="500.9" cy="-106" rx="36" ry="18"/>
<text text-anchor="middle" x="500.9" y="-102.3" font-family="Times,serif" font-size="14.00">277</text>
</g>
<!-- 33&#45;&gt;44 -->
<g id="edge32" class="edge">
<title>33&#45;&gt;44</title>
<path fill="none" stroke="black" d="M669.72,-164.65C633.11,-152.14 576.71,-132.89 539.31,-120.12"/>
<polygon fill="black" stroke="black" points="540.36,-116.78 529.77,-116.86 538.1,-123.4 540.36,-116.78"/>
</g>
<!-- 33&#45;&gt;47 -->
<g id="edge36" class="edge">
<title>33&#45;&gt;47</title>
<path fill="none" stroke="black" d="M705.9,-159.7C705.9,-151.98 705.9,-142.71 705.9,-134.11"/>
<polygon fill="black" stroke="black" points="709.4,-134.1 705.9,-124.1 702.4,-134.1 709.4,-134.1"/>
</g>
<!-- 34&#45;&gt;40 -->
<g id="edge26" class="edge">
<title>34&#45;&gt;40</title>
<path fill="none" stroke="black" d="M1742.9,-159.7C1742.9,-151.98 1742.9,-142.71 1742.9,-134.11"/>
<polygon fill="black" stroke="black" points="1746.4,-134.1 1742.9,-124.1 1739.4,-134.1 1746.4,-134.1"/>
</g>
<!-- 34&#45;&gt;48 -->
<g id="edge38" class="edge">
<title>34&#45;&gt;48</title>
<path fill="none" stroke="black" d="M1778.93,-166.75C1824.06,-153.9 1901.18,-131.96 1948.34,-118.54"/>
<polygon fill="black" stroke="black" points="1949.55,-121.84 1958.21,-115.73 1947.63,-115.1 1949.55,-121.84"/>
</g>
<!-- legend_4 -->
<g id="node28" class="node">
<title>legend_4</title>
<polygon fill="#b9d3ee" stroke="black" points="2940.4,-124 2719.4,-124 2719.4,-88 2940.4,-88 2940.4,-124"/>
<text text-anchor="middle" x="2829.9" y="-102.3" font-family="Times,serif" font-size="14.00">DT=5 ST=1 Similarity=0.66</text>
</g>
<!-- legend_3&#45;&gt;legend_4 -->
<g id="edge39" class="edge">
<title>legend_3&#45;&gt;legend_4</title>
<path fill="none" stroke="black" d="M2829.9,-159.7C2829.9,-151.98 2829.9,-142.71 2829.9,-134.11"/>
<polygon fill="black" stroke="black" points="2833.4,-134.1 2829.9,-124.1 2826.4,-134.1 2833.4,-134.1"/>
</g>
<!-- 51 -->
<g id="node30" class="node">
<title>51</title>
<ellipse fill="#b9d3ee" stroke="black" cx="1846.9" cy="-34" rx="16.8" ry="18"/>
<text text-anchor="middle" x="1846.9" y="-30.3" font-family="Times,serif" font-size="14.00">1</text>
</g>
<!-- 40&#45;&gt;51 -->
<g id="edge41" class="edge">
<title>40&#45;&gt;51</title>
<path fill="none" stroke="black" d="M1756.92,-95.56C1774.21,-83.92 1803.82,-63.99 1824.33,-50.19"/>
<polygon fill="black" stroke="black" points="1826.42,-53 1832.76,-44.51 1822.51,-47.19 1826.42,-53"/>
</g>
<!-- 53 -->
<g id="node32" class="node">
<title>53</title>
<ellipse fill="#b9d3ee" stroke="black" cx="1690.9" cy="-34" rx="16.8" ry="18"/>
<text text-anchor="middle" x="1690.9" y="-30.3" font-family="Times,serif" font-size="14.00">1</text>
</g>
<!-- 40&#45;&gt;53 -->
<g id="edge43" class="edge">
<title>40&#45;&gt;53</title>
<path fill="none" stroke="black" d="M1732.87,-91.5C1725.63,-81.75 1715.68,-68.37 1707.29,-57.07"/>
<polygon fill="black" stroke="black" points="1710.02,-54.87 1701.25,-48.93 1704.4,-59.05 1710.02,-54.87"/>
</g>
<!-- 515 -->
<g id="node44" class="node">
<title>515</title>
<ellipse fill="#b9d3ee" stroke="black" cx="1742.9" cy="-34" rx="16.8" ry="18"/>
<text text-anchor="middle" x="1742.9" y="-30.3" font-family="Times,serif" font-size="14.00">2</text>
</g>
<!-- 40&#45;&gt;515 -->
<g id="edge55" class="edge">
<title>40&#45;&gt;515</title>
<path fill="none" stroke="black" d="M1742.9,-87.7C1742.9,-79.98 1742.9,-70.71 1742.9,-62.11"/>
<polygon fill="black" stroke="black" points="1746.4,-62.1 1742.9,-52.1 1739.4,-62.1 1746.4,-62.1"/>
</g>
<!-- 519 -->
<g id="node48" class="node">
<title>519</title>
<ellipse fill="#b9d3ee" stroke="black" cx="1794.9" cy="-34" rx="16.8" ry="18"/>
<text text-anchor="middle" x="1794.9" y="-30.3" font-family="Times,serif" font-size="14.00">3</text>
</g>
<!-- 40&#45;&gt;519 -->
<g id="edge59" class="edge">
<title>40&#45;&gt;519</title>
<path fill="none" stroke="black" d="M1752.92,-91.5C1760.17,-81.75 1770.11,-68.37 1778.5,-57.07"/>
<polygon fill="black" stroke="black" points="1781.39,-59.05 1784.55,-48.93 1775.77,-54.87 1781.39,-59.05"/>
</g>
<!-- 55 -->
<g id="node34" class="node">
<title>55</title>
<ellipse fill="#b9d3ee" stroke="black" cx="1418.9" cy="-34" rx="16.8" ry="18"/>
<text text-anchor="middle" x="1418.9" y="-30.3" font-family="Times,serif" font-size="14.00">1</text>
</g>
<!-- 41&#45;&gt;55 -->
<g id="edge45" class="edge">
<title>41&#45;&gt;55</title>
<path fill="none" stroke="black" d="M1506.19,-93.75C1488.56,-81.89 1460.69,-63.13 1441.2,-50.01"/>
<polygon fill="black" stroke="black" points="1443.15,-47.1 1432.9,-44.42 1439.24,-52.91 1443.15,-47.1"/>
</g>
<!-- 57 -->
<g id="node36" class="node">
<title>57</title>
<ellipse fill="#b9d3ee" stroke="black" cx="1470.9" cy="-34" rx="16.8" ry="18"/>
<text text-anchor="middle" x="1470.9" y="-30.3" font-family="Times,serif" font-size="14.00">1</text>
</g>
<!-- 41&#45;&gt;57 -->
<g id="edge47" class="edge">
<title>41&#45;&gt;57</title>
<path fill="none" stroke="black" d="M1511.87,-90.15C1504.72,-80.53 1495.28,-67.82 1487.26,-57.02"/>
<polygon fill="black" stroke="black" points="1489.98,-54.81 1481.2,-48.87 1484.36,-58.99 1489.98,-54.81"/>
</g>
<!-- 522 -->
<g id="node51" class="node">
<title>522</title>
<ellipse fill="#b9d3ee" stroke="black" cx="1522.9" cy="-34" rx="16.8" ry="18"/>
<text text-anchor="middle" x="1522.9" y="-30.3" font-family="Times,serif" font-size="14.00">5</text>
</g>
<!-- 41&#45;&gt;522 -->
<g id="edge62" class="edge">
<title>41&#45;&gt;522</title>
<path fill="none" stroke="black" d="M1522.9,-87.7C1522.9,-79.98 1522.9,-70.71 1522.9,-62.11"/>
<polygon fill="black" stroke="black" points="1526.4,-62.1 1522.9,-52.1 1519.4,-62.1 1526.4,-62.1"/>
</g>
<!-- 527 -->
<g id="node56" class="node">
<title>527</title>
<ellipse fill="#b9d3ee" stroke="black" cx="1574.9" cy="-34" rx="16.8" ry="18"/>
<text text-anchor="middle" x="1574.9" y="-30.3" font-family="Times,serif" font-size="14.00">7</text>
</g>
<!-- 41&#45;&gt;527 -->
<g id="edge67" class="edge">
<title>41&#45;&gt;527</title>
<path fill="none" stroke="black" d="M1533.93,-90.15C1541.08,-80.53 1550.52,-67.82 1558.54,-57.02"/>
<polygon fill="black" stroke="black" points="1561.44,-58.99 1564.59,-48.87 1555.82,-54.81 1561.44,-58.99"/>
</g>
<!-- 530 -->
<g id="node59" class="node">
<title>530</title>
<ellipse fill="#b9d3ee" stroke="black" cx="1632.9" cy="-34" rx="23" ry="18"/>
<text text-anchor="middle" x="1632.9" y="-30.3" font-family="Times,serif" font-size="14.00">10</text>
</g>
<!-- 41&#45;&gt;530 -->
<g id="edge70" class="edge">
<title>41&#45;&gt;530</title>
<path fill="none" stroke="black" d="M1540.09,-94.06C1557.98,-82.67 1586.23,-64.7 1606.87,-51.57"/>
<polygon fill="black" stroke="black" points="1608.91,-54.41 1615.47,-46.09 1605.15,-48.51 1608.91,-54.41"/>
</g>
<!-- 52 -->
<g id="node31" class="node">
<title>52</title>
<ellipse fill="#b9d3ee" stroke="black" cx="826.9" cy="-34" rx="16.8" ry="18"/>
<text text-anchor="middle" x="826.9" y="-30.3" font-family="Times,serif" font-size="14.00">1</text>
</g>
<!-- 42&#45;&gt;52 -->
<g id="edge42" class="edge">
<title>42&#45;&gt;52</title>
<path fill="none" stroke="black" d="M846.74,-88.41C843.65,-80.1 839.84,-69.85 836.39,-60.56"/>
<polygon fill="black" stroke="black" points="839.6,-59.14 832.84,-50.99 833.04,-61.58 839.6,-59.14"/>
</g>
<!-- 525 -->
<g id="node54" class="node">
<title>525</title>
<ellipse fill="#b9d3ee" stroke="black" cx="878.9" cy="-34" rx="16.8" ry="18"/>
<text text-anchor="middle" x="878.9" y="-30.3" font-family="Times,serif" font-size="14.00">6</text>
</g>
<!-- 42&#45;&gt;525 -->
<g id="edge65" class="edge">
<title>42&#45;&gt;525</title>
<path fill="none" stroke="black" d="M859.06,-88.41C862.15,-80.1 865.96,-69.85 869.41,-60.56"/>
<polygon fill="black" stroke="black" points="872.76,-61.58 872.96,-50.99 866.2,-59.14 872.76,-61.58"/>
</g>
<!-- 537 -->
<g id="node66" class="node">
<title>537</title>
<ellipse fill="#b9d3ee" stroke="black" cx="768.9" cy="-34" rx="23" ry="18"/>
<text text-anchor="middle" x="768.9" y="-30.3" font-family="Times,serif" font-size="14.00">33</text>
</g>
<!-- 42&#45;&gt;537 -->
<g id="edge77" class="edge">
<title>42&#45;&gt;537</title>
<path fill="none" stroke="black" d="M837.49,-92.16C824.74,-81.54 806.44,-66.28 791.95,-54.21"/>
<polygon fill="black" stroke="black" points="793.85,-51.24 783.93,-47.52 789.37,-56.61 793.85,-51.24"/>
</g>
<!-- 54 -->
<g id="node33" class="node">
<title>54</title>
<ellipse fill="#b9d3ee" stroke="black" cx="299.9" cy="-34" rx="16.8" ry="18"/>
<text text-anchor="middle" x="299.9" y="-30.3" font-family="Times,serif" font-size="14.00">1</text>
</g>
<!-- 43&#45;&gt;54 -->
<g id="edge44" class="edge">
<title>43&#45;&gt;54</title>
<path fill="none" stroke="black" d="M226.4,-92.81C240.77,-81.5 262.29,-64.58 278.33,-51.96"/>
<polygon fill="black" stroke="black" points="280.91,-54.39 286.6,-45.46 276.58,-48.89 280.91,-54.39"/>
</g>
<!-- 511 -->
<g id="node40" class="node">
<title>511</title>
<ellipse fill="#b9d3ee" stroke="black" cx="351.9" cy="-34" rx="16.8" ry="18"/>
<text text-anchor="middle" x="351.9" y="-30.3" font-family="Times,serif" font-size="14.00">1</text>
</g>
<!-- 43&#45;&gt;511 -->
<g id="edge51" class="edge">
<title>43&#45;&gt;511</title>
<path fill="none" stroke="black" d="M230.87,-96.86C254.16,-87.12 293.58,-69.88 325.9,-52 327.04,-51.37 328.2,-50.7 329.36,-50.02"/>
<polygon fill="black" stroke="black" points="331.47,-52.83 338.1,-44.56 327.76,-46.89 331.47,-52.83"/>
</g>
<!-- 516 -->
<g id="node45" class="node">
<title>516</title>
<ellipse fill="#b9d3ee" stroke="black" cx="16.9" cy="-34" rx="16.8" ry="18"/>
<text text-anchor="middle" x="16.9" y="-30.3" font-family="Times,serif" font-size="14.00">2</text>
</g>
<!-- 43&#45;&gt;516 -->
<g id="edge56" class="edge">
<title>43&#45;&gt;516</title>
<path fill="none" stroke="black" d="M189.24,-100.18C156.54,-92.47 93.07,-75.76 42.9,-52 41.72,-51.44 40.53,-50.84 39.35,-50.2"/>
<polygon fill="black" stroke="black" points="40.9,-47.05 30.52,-44.91 37.3,-53.05 40.9,-47.05"/>
</g>
<!-- 517 -->
<g id="node46" class="node">
<title>517</title>
<ellipse fill="#b9d3ee" stroke="black" cx="68.9" cy="-34" rx="16.8" ry="18"/>
<text text-anchor="middle" x="68.9" y="-30.3" font-family="Times,serif" font-size="14.00">2</text>
</g>
<!-- 43&#45;&gt;517 -->
<g id="edge57" class="edge">
<title>43&#45;&gt;517</title>
<path fill="none" stroke="black" d="M190.75,-96.88C167.25,-87.17 127.47,-69.96 94.9,-52 93.76,-51.37 92.6,-50.71 91.44,-50.02"/>
<polygon fill="black" stroke="black" points="93.03,-46.89 82.69,-44.57 89.33,-52.83 93.03,-46.89"/>
</g>
<!-- 528 -->
<g id="node57" class="node">
<title>528</title>
<ellipse fill="#b9d3ee" stroke="black" cx="120.9" cy="-34" rx="16.8" ry="18"/>
<text text-anchor="middle" x="120.9" y="-30.3" font-family="Times,serif" font-size="14.00">9</text>
</g>
<!-- 43&#45;&gt;528 -->
<g id="edge68" class="edge">
<title>43&#45;&gt;528</title>
<path fill="none" stroke="black" d="M195.22,-92.81C180.55,-81.4 158.53,-64.27 142.26,-51.61"/>
<polygon fill="black" stroke="black" points="144.38,-48.83 134.34,-45.46 140.09,-54.36 144.38,-48.83"/>
</g>
<!-- 535 -->
<g id="node64" class="node">
<title>535</title>
<ellipse fill="#b9d3ee" stroke="black" cx="178.9" cy="-34" rx="23" ry="18"/>
<text text-anchor="middle" x="178.9" y="-30.3" font-family="Times,serif" font-size="14.00">17</text>
</g>
<!-- 43&#45;&gt;535 -->
<g id="edge75" class="edge">
<title>43&#45;&gt;535</title>
<path fill="none" stroke="black" d="M203.48,-88.76C199.64,-80.37 194.87,-69.93 190.55,-60.5"/>
<polygon fill="black" stroke="black" points="193.62,-58.79 186.28,-51.15 187.25,-61.7 193.62,-58.79"/>
</g>
<!-- 540 -->
<g id="node69" class="node">
<title>540</title>
<ellipse fill="#b9d3ee" stroke="black" cx="241.9" cy="-34" rx="23" ry="18"/>
<text text-anchor="middle" x="241.9" y="-30.3" font-family="Times,serif" font-size="14.00">66</text>
</g>
<!-- 43&#45;&gt;540 -->
<g id="edge80" class="edge">
<title>43&#45;&gt;540</title>
<path fill="none" stroke="black" d="M218.09,-88.76C221.81,-80.37 226.43,-69.93 230.61,-60.5"/>
<polygon fill="black" stroke="black" points="233.9,-61.71 234.75,-51.15 227.5,-58.87 233.9,-61.71"/>
</g>
<!-- 520 -->
<g id="node49" class="node">
<title>520</title>
<ellipse fill="#b9d3ee" stroke="black" cx="403.9" cy="-34" rx="16.8" ry="18"/>
<text text-anchor="middle" x="403.9" y="-30.3" font-family="Times,serif" font-size="14.00">4</text>
</g>
<!-- 44&#45;&gt;520 -->
<g id="edge60" class="edge">
<title>44&#45;&gt;520</title>
<path fill="none" stroke="black" d="M481.27,-90.83C465.29,-79.31 442.75,-63.04 426.12,-51.03"/>
<polygon fill="black" stroke="black" points="427.72,-47.87 417.56,-44.86 423.62,-53.55 427.72,-47.87"/>
</g>
<!-- 532 -->
<g id="node61" class="node">
<title>532</title>
<ellipse fill="#b9d3ee" stroke="black" cx="461.9" cy="-34" rx="23" ry="18"/>
<text text-anchor="middle" x="461.9" y="-30.3" font-family="Times,serif" font-size="14.00">12</text>
</g>
<!-- 44&#45;&gt;532 -->
<g id="edge72" class="edge">
<title>44&#45;&gt;532</title>
<path fill="none" stroke="black" d="M491.66,-88.41C486.93,-79.92 481.07,-69.41 475.81,-59.96"/>
<polygon fill="black" stroke="black" points="478.73,-58.02 470.81,-50.99 472.62,-61.43 478.73,-58.02"/>
</g>
<!-- 541 -->
<g id="node70" class="node">
<title>541</title>
<ellipse fill="#b9d3ee" stroke="black" cx="538.9" cy="-34" rx="36" ry="18"/>
<text text-anchor="middle" x="538.9" y="-30.3" font-family="Times,serif" font-size="14.00">261</text>
</g>
<!-- 44&#45;&gt;541 -->
<g id="edge81" class="edge">
<title>44&#45;&gt;541</title>
<path fill="none" stroke="black" d="M509.9,-88.41C514.45,-80.04 520.06,-69.71 525.13,-60.37"/>
<polygon fill="black" stroke="black" points="528.26,-61.93 529.96,-51.47 522.11,-58.59 528.26,-61.93"/>
</g>
<!-- 56 -->
<g id="node35" class="node">
<title>56</title>
<ellipse fill="#b9d3ee" stroke="black" cx="2580.9" cy="-34" rx="16.8" ry="18"/>
<text text-anchor="middle" x="2580.9" y="-30.3" font-family="Times,serif" font-size="14.00">1</text>
</g>
<!-- 45&#45;&gt;56 -->
<g id="edge46" class="edge">
<title>45&#45;&gt;56</title>
<path fill="none" stroke="black" d="M2431.89,-96.79C2463.64,-87.82 2514.01,-72.02 2554.9,-52 2556.07,-51.43 2557.25,-50.81 2558.43,-50.16"/>
<polygon fill="black" stroke="black" points="2560.5,-53.01 2567.24,-44.84 2556.87,-47.02 2560.5,-53.01"/>
</g>
<!-- 510 -->
<g id="node39" class="node">
<title>510</title>
<ellipse fill="#b9d3ee" stroke="black" cx="2632.9" cy="-34" rx="16.8" ry="18"/>
<text text-anchor="middle" x="2632.9" y="-30.3" font-family="Times,serif" font-size="14.00">1</text>
</g>
<!-- 45&#45;&gt;510 -->
<g id="edge50" class="edge">
<title>45&#45;&gt;510</title>
<path fill="none" stroke="black" d="M2434.84,-99.78C2476.62,-92.57 2549.12,-77.49 2606.9,-52 2608.09,-51.47 2609.29,-50.89 2610.49,-50.28"/>
<polygon fill="black" stroke="black" points="2612.51,-53.15 2619.34,-45.06 2608.95,-47.12 2612.51,-53.15"/>
</g>
<!-- 512 -->
<g id="node41" class="node">
<title>512</title>
<ellipse fill="#b9d3ee" stroke="black" cx="2684.9" cy="-34" rx="16.8" ry="18"/>
<text text-anchor="middle" x="2684.9" y="-30.3" font-family="Times,serif" font-size="14.00">1</text>
</g>
<!-- 45&#45;&gt;512 -->
<g id="edge52" class="edge">
<title>45&#45;&gt;512</title>
<path fill="none" stroke="black" d="M2436.34,-101.96C2487.23,-96.67 2583.22,-83.18 2658.9,-52 2660.1,-51.5 2661.31,-50.95 2662.52,-50.35"/>
<polygon fill="black" stroke="black" points="2664.51,-53.24 2671.4,-45.2 2661,-47.19 2664.51,-53.24"/>
</g>
<!-- 524 -->
<g id="node53" class="node">
<title>524</title>
<ellipse fill="#b9d3ee" stroke="black" cx="2196.9" cy="-34" rx="16.8" ry="18"/>
<text text-anchor="middle" x="2196.9" y="-30.3" font-family="Times,serif" font-size="14.00">6</text>
</g>
<!-- 45&#45;&gt;524 -->
<g id="edge64" class="edge">
<title>45&#45;&gt;524</title>
<path fill="none" stroke="black" d="M2368.04,-98.23C2331.52,-90.02 2271.31,-74.45 2222.9,-52 2221.72,-51.45 2220.52,-50.85 2219.34,-50.22"/>
<polygon fill="black" stroke="black" points="2220.88,-47.07 2210.5,-44.95 2217.29,-53.08 2220.88,-47.07"/>
</g>
<!-- 526 -->
<g id="node55" class="node">
<title>526</title>
<ellipse fill="#b9d3ee" stroke="black" cx="2248.9" cy="-34" rx="16.8" ry="18"/>
<text text-anchor="middle" x="2248.9" y="-30.3" font-family="Times,serif" font-size="14.00">6</text>
</g>
<!-- 45&#45;&gt;526 -->
<g id="edge66" class="edge">
<title>45&#45;&gt;526</title>
<path fill="none" stroke="black" d="M2372.45,-94.73C2346.46,-84.95 2307.27,-69.21 2274.9,-52 2273.75,-51.39 2272.58,-50.74 2271.41,-50.07"/>
<polygon fill="black" stroke="black" points="2273,-46.93 2262.65,-44.65 2269.32,-52.89 2273,-46.93"/>
</g>
<!-- 529 -->
<g id="node58" class="node">
<title>529</title>
<ellipse fill="#b9d3ee" stroke="black" cx="2306.9" cy="-34" rx="23" ry="18"/>
<text text-anchor="middle" x="2306.9" y="-30.3" font-family="Times,serif" font-size="14.00">10</text>
</g>
<!-- 45&#45;&gt;529 -->
<g id="edge69" class="edge">
<title>45&#45;&gt;529</title>
<path fill="none" stroke="black" d="M2381.42,-90.5C2366.81,-79.62 2346.72,-64.66 2331.08,-53.01"/>
<polygon fill="black" stroke="black" points="2333.03,-50.09 2322.92,-46.93 2328.85,-55.71 2333.03,-50.09"/>
</g>
<!-- 534 -->
<g id="node63" class="node">
<title>534</title>
<ellipse fill="#b9d3ee" stroke="black" cx="2369.9" cy="-34" rx="23" ry="18"/>
<text text-anchor="middle" x="2369.9" y="-30.3" font-family="Times,serif" font-size="14.00">16</text>
</g>
<!-- 45&#45;&gt;534 -->
<g id="edge74" class="edge">
<title>45&#45;&gt;534</title>
<path fill="none" stroke="black" d="M2393.39,-88.05C2389.76,-79.85 2385.32,-69.83 2381.29,-60.71"/>
<polygon fill="black" stroke="black" points="2384.37,-59.03 2377.12,-51.31 2377.97,-61.87 2384.37,-59.03"/>
</g>
<!-- 536 -->
<g id="node65" class="node">
<title>536</title>
<ellipse fill="#b9d3ee" stroke="black" cx="2432.9" cy="-34" rx="23" ry="18"/>
<text text-anchor="middle" x="2432.9" y="-30.3" font-family="Times,serif" font-size="14.00">26</text>
</g>
<!-- 45&#45;&gt;536 -->
<g id="edge76" class="edge">
<title>45&#45;&gt;536</title>
<path fill="none" stroke="black" d="M2408.64,-88.05C2412.43,-79.77 2417.07,-69.62 2421.28,-60.42"/>
<polygon fill="black" stroke="black" points="2424.47,-61.86 2425.44,-51.31 2418.1,-58.95 2424.47,-61.86"/>
</g>
<!-- 543 -->
<g id="node72" class="node">
<title>543</title>
<ellipse fill="#b9d3ee" stroke="black" cx="2509.9" cy="-34" rx="36" ry="18"/>
<text text-anchor="middle" x="2509.9" y="-30.3" font-family="Times,serif" font-size="14.00">315</text>
</g>
<!-- 45&#45;&gt;543 -->
<g id="edge83" class="edge">
<title>45&#45;&gt;543</title>
<path fill="none" stroke="black" d="M2422.17,-91.34C2438.68,-80.74 2461.76,-65.92 2480.1,-54.14"/>
<polygon fill="black" stroke="black" points="2482.15,-56.98 2488.68,-48.63 2478.37,-51.09 2482.15,-56.98"/>
</g>
<!-- 58 -->
<g id="node37" class="node">
<title>58</title>
<ellipse fill="#b9d3ee" stroke="black" cx="1262.9" cy="-34" rx="16.8" ry="18"/>
<text text-anchor="middle" x="1262.9" y="-30.3" font-family="Times,serif" font-size="14.00">1</text>
</g>
<!-- 46&#45;&gt;58 -->
<g id="edge48" class="edge">
<title>46&#45;&gt;58</title>
<path fill="none" stroke="black" d="M1175.44,-91.34C1192.21,-80.67 1216.08,-65.45 1236.9,-52 1237.99,-51.29 1239.11,-50.57 1240.25,-49.83"/>
<polygon fill="black" stroke="black" points="1242.42,-52.6 1248.88,-44.2 1238.59,-46.73 1242.42,-52.6"/>
</g>
<!-- 59 -->
<g id="node38" class="node">
<title>59</title>
<ellipse fill="#b9d3ee" stroke="black" cx="1314.9" cy="-34" rx="16.8" ry="18"/>
<text text-anchor="middle" x="1314.9" y="-30.3" font-family="Times,serif" font-size="14.00">1</text>
</g>
<!-- 46&#45;&gt;59 -->
<g id="edge49" class="edge">
<title>46&#45;&gt;59</title>
<path fill="none" stroke="black" d="M1183.36,-95.4C1211.23,-85.86 1253.88,-70.08 1288.9,-52 1290.06,-51.4 1291.23,-50.76 1292.4,-50.1"/>
<polygon fill="black" stroke="black" points="1294.49,-52.93 1301.18,-44.72 1290.83,-46.96 1294.49,-52.93"/>
</g>
<!-- 513 -->
<g id="node42" class="node">
<title>513</title>
<ellipse fill="#b9d3ee" stroke="black" cx="1366.9" cy="-34" rx="16.8" ry="18"/>
<text text-anchor="middle" x="1366.9" y="-30.3" font-family="Times,serif" font-size="14.00">1</text>
</g>
<!-- 46&#45;&gt;513 -->
<g id="edge53" class="edge">
<title>46&#45;&gt;513</title>
<path fill="none" stroke="black" d="M1187.05,-98.78C1225.28,-90.9 1289.47,-75.44 1340.9,-52 1342.09,-51.46 1343.28,-50.87 1344.47,-50.24"/>
<polygon fill="black" stroke="black" points="1346.5,-53.11 1353.31,-44.99 1342.93,-47.09 1346.5,-53.11"/>
</g>
<!-- 514 -->
<g id="node43" class="node">
<title>514</title>
<ellipse fill="#b9d3ee" stroke="black" cx="930.9" cy="-34" rx="16.8" ry="18"/>
<text text-anchor="middle" x="930.9" y="-30.3" font-family="Times,serif" font-size="14.00">1</text>
</g>
<!-- 46&#45;&gt;514 -->
<g id="edge54" class="edge">
<title>46&#45;&gt;514</title>
<path fill="none" stroke="black" d="M1120.39,-99.34C1080.29,-91.81 1011.69,-76.53 956.9,-52 955.71,-51.47 954.51,-50.88 953.32,-50.26"/>
<polygon fill="black" stroke="black" points="954.86,-47.11 944.47,-45.03 951.29,-53.13 954.86,-47.11"/>
</g>
<!-- 531 -->
<g id="node60" class="node">
<title>531</title>
<ellipse fill="#b9d3ee" stroke="black" cx="988.9" cy="-34" rx="23" ry="18"/>
<text text-anchor="middle" x="988.9" y="-30.3" font-family="Times,serif" font-size="14.00">11</text>
</g>
<!-- 46&#45;&gt;531 -->
<g id="edge71" class="edge">
<title>46&#45;&gt;531</title>
<path fill="none" stroke="black" d="M1125.49,-94.94C1098.06,-84.95 1055.56,-68.75 1019.9,-52 1018.54,-51.36 1017.17,-50.69 1015.78,-50"/>
<polygon fill="black" stroke="black" points="1017.22,-46.81 1006.73,-45.27 1013.97,-53.01 1017.22,-46.81"/>
</g>
<!-- 538 -->
<g id="node67" class="node">
<title>538</title>
<ellipse fill="#b9d3ee" stroke="black" cx="1051.9" cy="-34" rx="23" ry="18"/>
<text text-anchor="middle" x="1051.9" y="-30.3" font-family="Times,serif" font-size="14.00">39</text>
</g>
<!-- 46&#45;&gt;538 -->
<g id="edge78" class="edge">
<title>46&#45;&gt;538</title>
<path fill="none" stroke="black" d="M1133.26,-90.83C1117,-79.68 1094.27,-64.08 1076.96,-52.2"/>
<polygon fill="black" stroke="black" points="1078.7,-49.15 1068.47,-46.37 1074.74,-54.92 1078.7,-49.15"/>
</g>
<!-- 539 -->
<g id="node68" class="node">
<title>539</title>
<ellipse fill="#b9d3ee" stroke="black" cx="1114.9" cy="-34" rx="23" ry="18"/>
<text text-anchor="middle" x="1114.9" y="-30.3" font-family="Times,serif" font-size="14.00">44</text>
</g>
<!-- 46&#45;&gt;539 -->
<g id="edge79" class="edge">
<title>46&#45;&gt;539</title>
<path fill="none" stroke="black" d="M1144.66,-88.41C1139.93,-79.92 1134.07,-69.41 1128.81,-59.96"/>
<polygon fill="black" stroke="black" points="1131.73,-58.02 1123.81,-50.99 1125.62,-61.43 1131.73,-58.02"/>
</g>
<!-- 542 -->
<g id="node71" class="node">
<title>542</title>
<ellipse fill="#b9d3ee" stroke="black" cx="1191.9" cy="-34" rx="36" ry="18"/>
<text text-anchor="middle" x="1191.9" y="-30.3" font-family="Times,serif" font-size="14.00">307</text>
</g>
<!-- 46&#45;&gt;542 -->
<g id="edge82" class="edge">
<title>46&#45;&gt;542</title>
<path fill="none" stroke="black" d="M1162.9,-88.41C1167.45,-80.04 1173.06,-69.71 1178.13,-60.37"/>
<polygon fill="black" stroke="black" points="1181.26,-61.93 1182.96,-51.47 1175.11,-58.59 1181.26,-61.93"/>
</g>
<!-- 533 -->
<g id="node62" class="node">
<title>533</title>
<ellipse fill="#b9d3ee" stroke="black" cx="705.9" cy="-34" rx="23" ry="18"/>
<text text-anchor="middle" x="705.9" y="-30.3" font-family="Times,serif" font-size="14.00">16</text>
</g>
<!-- 47&#45;&gt;533 -->
<g id="edge73" class="edge">
<title>47&#45;&gt;533</title>
<path fill="none" stroke="black" d="M705.9,-87.7C705.9,-79.98 705.9,-70.71 705.9,-62.11"/>
<polygon fill="black" stroke="black" points="709.4,-62.1 705.9,-52.1 702.4,-62.1 709.4,-62.1"/>
</g>
<!-- 544 -->
<g id="node73" class="node">
<title>544</title>
<ellipse fill="#b9d3ee" stroke="black" cx="628.9" cy="-34" rx="36" ry="18"/>
<text text-anchor="middle" x="628.9" y="-30.3" font-family="Times,serif" font-size="14.00">342</text>
</g>
<!-- 47&#45;&gt;544 -->
<g id="edge84" class="edge">
<title>47&#45;&gt;544</title>
<path fill="none" stroke="black" d="M689.19,-89.81C678.7,-80.27 664.98,-67.8 653.29,-57.17"/>
<polygon fill="black" stroke="black" points="655.33,-54.3 645.57,-50.16 650.62,-59.48 655.33,-54.3"/>
</g>
<!-- 50 -->
<g id="node29" class="node">
<title>50</title>
<ellipse fill="#b9d3ee" stroke="black" cx="1988.9" cy="-34" rx="16.8" ry="18"/>
<text text-anchor="middle" x="1988.9" y="-30.3" font-family="Times,serif" font-size="14.00">1</text>
</g>
<!-- 48&#45;&gt;50 -->
<g id="edge40" class="edge">
<title>48&#45;&gt;50</title>
<path fill="none" stroke="black" d="M1988.9,-87.7C1988.9,-79.98 1988.9,-70.71 1988.9,-62.11"/>
<polygon fill="black" stroke="black" points="1992.4,-62.1 1988.9,-52.1 1985.4,-62.1 1992.4,-62.1"/>
</g>
<!-- 518 -->
<g id="node47" class="node">
<title>518</title>
<ellipse fill="#b9d3ee" stroke="black" cx="2040.9" cy="-34" rx="16.8" ry="18"/>
<text text-anchor="middle" x="2040.9" y="-30.3" font-family="Times,serif" font-size="14.00">2</text>
</g>
<!-- 48&#45;&gt;518 -->
<g id="edge58" class="edge">
<title>48&#45;&gt;518</title>
<path fill="none" stroke="black" d="M2000.96,-88.76C2007.99,-79.3 2016.95,-67.23 2024.61,-56.93"/>
<polygon fill="black" stroke="black" points="2027.5,-58.9 2030.66,-48.79 2021.88,-54.73 2027.5,-58.9"/>
</g>
<!-- 521 -->
<g id="node50" class="node">
<title>521</title>
<ellipse fill="#b9d3ee" stroke="black" cx="2092.9" cy="-34" rx="16.8" ry="18"/>
<text text-anchor="middle" x="2092.9" y="-30.3" font-family="Times,serif" font-size="14.00">5</text>
</g>
<!-- 48&#45;&gt;521 -->
<g id="edge61" class="edge">
<title>48&#45;&gt;521</title>
<path fill="none" stroke="black" d="M2009.45,-91.17C2026.99,-79.36 2052.18,-62.41 2070.29,-50.22"/>
<polygon fill="black" stroke="black" points="2072.7,-52.82 2079.04,-44.33 2068.79,-47.01 2072.7,-52.82"/>
</g>
<!-- 523 -->
<g id="node52" class="node">
<title>523</title>
<ellipse fill="#b9d3ee" stroke="black" cx="2144.9" cy="-34" rx="16.8" ry="18"/>
<text text-anchor="middle" x="2144.9" y="-30.3" font-family="Times,serif" font-size="14.00">6</text>
</g>
<!-- 48&#45;&gt;523 -->
<g id="edge63" class="edge">
<title>48&#45;&gt;523</title>
<path fill="none" stroke="black" d="M2017.76,-95.05C2044.58,-85.38 2085.34,-69.61 2118.9,-52 2120.05,-51.39 2121.22,-50.75 2122.39,-50.08"/>
<polygon fill="black" stroke="black" points="2124.48,-52.91 2131.16,-44.68 2120.81,-46.95 2124.48,-52.91"/>
</g>
<!-- 545 -->
<g id="node74" class="node">
<title>545</title>
<ellipse fill="#b9d3ee" stroke="black" cx="1917.9" cy="-34" rx="36" ry="18"/>
<text text-anchor="middle" x="1917.9" y="-30.3" font-family="Times,serif" font-size="14.00">395</text>
</g>
<!-- 48&#45;&gt;545 -->
<g id="edge85" class="edge">
<title>48&#45;&gt;545</title>
<path fill="none" stroke="black" d="M1973.14,-89.46C1963.67,-80.13 1951.46,-68.09 1940.92,-57.7"/>
<polygon fill="black" stroke="black" points="1943.19,-55.02 1933.61,-50.49 1938.28,-60 1943.19,-55.02"/>
</g>
<!-- legend_5 -->
<g id="node75" class="node">
<title>legend_5</title>
<polygon fill="#b9d3ee" stroke="black" points="2940.4,-52 2719.4,-52 2719.4,-16 2940.4,-16 2940.4,-52"/>
<text text-anchor="middle" x="2829.9" y="-30.3" font-family="Times,serif" font-size="14.00">DT=6 ST=1 Similarity=0.57</text>
</g>
<!-- legend_4&#45;&gt;legend_5 -->
<g id="edge86" class="edge">
<title>legend_4&#45;&gt;legend_5</title>
<path fill="none" stroke="black" d="M2829.9,-87.7C2829.9,-79.98 2829.9,-70.71 2829.9,-62.11"/>
<polygon fill="black" stroke="black" points="2833.4,-62.1 2829.9,-52.1 2826.4,-62.1 2833.4,-62.1"/>
</g>
</g>
</svg>
