<?xml version="1.0" encoding="UTF-8" standalone="no"?>
<!DOCTYPE svg PUBLIC "-//W3C//DTD SVG 1.1//EN"
 "http://www.w3.org/Graphics/SVG/1.1/DTD/svg11.dtd">
<!-- Generated by graphviz version 2.43.0 (0)
 -->
<!-- Title: %3 Pages: 1 -->
<svg width="2616pt" height="497pt"
 viewBox="0.00 0.00 2615.90 497.00" xmlns="http://www.w3.org/2000/svg" xmlns:xlink="http://www.w3.org/1999/xlink">
<g id="graph0" class="graph" transform="scale(1 1) rotate(0) translate(4 493)">
<title>%3</title>
<polygon fill="white" stroke="transparent" points="-4,4 -4,-493 2611.9,-493 2611.9,4 -4,4"/>
<text text-anchor="middle" x="1303.95" y="-473.8" font-family="Times,serif" font-size="14.00">ConsTree</text>
<text text-anchor="middle" x="1303.95" y="-458.8" font-family="Times,serif" font-size="14.00">Tree Quality = 1.0</text>
<g id="clust1" class="cluster">
<title>cluster</title>
<polygon fill="none" stroke="black" points="2363.9,-8 2363.9,-443 2599.9,-443 2599.9,-8 2363.9,-8"/>
<text text-anchor="middle" x="2481.9" y="-427.8" font-family="Times,serif" font-size="14.00">Legend</text>
</g>
<!-- 00 -->
<g id="node1" class="node">
<title>00</title>
<ellipse fill="#b9d3ee" stroke="black" cx="1347.9" cy="-394" rx="324" ry="18"/>
<text text-anchor="middle" x="1347.9" y="-390.3" font-family="Times,serif" font-size="14.00">2000</text>
</g>
<!-- 10 -->
<g id="node3" class="node">
<title>10</title>
<ellipse fill="#b9d3ee" stroke="black" cx="1500.9" cy="-322" rx="180" ry="18"/>
<text text-anchor="middle" x="1500.9" y="-318.3" font-family="Times,serif" font-size="14.00">1173</text>
</g>
<!-- 00&#45;&gt;10 -->
<g id="edge1" class="edge">
<title>00&#45;&gt;10</title>
<path fill="none" stroke="black" d="M1384.94,-376.05C1406.06,-366.39 1432.72,-354.19 1455.14,-343.93"/>
<polygon fill="black" stroke="black" points="1456.83,-347.01 1464.47,-339.67 1453.92,-340.65 1456.83,-347.01"/>
</g>
<!-- 11 -->
<g id="node4" class="node">
<title>11</title>
<ellipse fill="#b9d3ee" stroke="black" cx="1194.9" cy="-322" rx="108" ry="18"/>
<text text-anchor="middle" x="1194.9" y="-318.3" font-family="Times,serif" font-size="14.00">827</text>
</g>
<!-- 00&#45;&gt;11 -->
<g id="edge2" class="edge">
<title>00&#45;&gt;11</title>
<path fill="none" stroke="black" d="M1310.86,-376.05C1289.25,-366.17 1261.86,-353.64 1239.12,-343.23"/>
<polygon fill="black" stroke="black" points="1240.57,-340.05 1230.02,-339.07 1237.66,-346.41 1240.57,-340.05"/>
</g>
<!-- legend_0 -->
<g id="node2" class="node">
<title>legend_0</title>
<polygon fill="#b9d3ee" stroke="black" points="2592.4,-412 2371.4,-412 2371.4,-376 2592.4,-376 2592.4,-412"/>
<text text-anchor="middle" x="2481.9" y="-390.3" font-family="Times,serif" font-size="14.00">DT=1 ST=1 Similarity=0.28</text>
</g>
<!-- legend_1 -->
<g id="node5" class="node">
<title>legend_1</title>
<polygon fill="#b9d3ee" stroke="black" points="2592.4,-340 2371.4,-340 2371.4,-304 2592.4,-304 2592.4,-340"/>
<text text-anchor="middle" x="2481.9" y="-318.3" font-family="Times,serif" font-size="14.00">DT=2 ST=1 Similarity=0.52</text>
</g>
<!-- legend_0&#45;&gt;legend_1 -->
<g id="edge3" class="edge">
<title>legend_0&#45;&gt;legend_1</title>
<path fill="none" stroke="black" d="M2481.9,-375.7C2481.9,-367.98 2481.9,-358.71 2481.9,-350.11"/>
<polygon fill="black" stroke="black" points="2485.4,-350.1 2481.9,-340.1 2478.4,-350.1 2485.4,-350.1"/>
</g>
<!-- 21 -->
<g id="node7" class="node">
<title>21</title>
<ellipse fill="#b9d3ee" stroke="black" cx="1482.9" cy="-250" rx="180" ry="18"/>
<text text-anchor="middle" x="1482.9" y="-246.3" font-family="Times,serif" font-size="14.00">1177</text>
</g>
<!-- 10&#45;&gt;21 -->
<g id="edge5" class="edge">
<title>10&#45;&gt;21</title>
<path fill="none" stroke="black" d="M1496.45,-303.7C1494.44,-295.9 1492.03,-286.51 1489.8,-277.83"/>
<polygon fill="black" stroke="black" points="1493.18,-276.92 1487.3,-268.1 1486.4,-278.66 1493.18,-276.92"/>
</g>
<!-- 20 -->
<g id="node6" class="node">
<title>20</title>
<ellipse fill="#b9d3ee" stroke="black" cx="1212.9" cy="-250" rx="36" ry="18"/>
<text text-anchor="middle" x="1212.9" y="-246.3" font-family="Times,serif" font-size="14.00">416</text>
</g>
<!-- 11&#45;&gt;20 -->
<g id="edge4" class="edge">
<title>11&#45;&gt;20</title>
<path fill="none" stroke="black" d="M1199.35,-303.7C1201.35,-295.9 1203.77,-286.51 1206,-277.83"/>
<polygon fill="black" stroke="black" points="1209.4,-278.66 1208.5,-268.1 1202.62,-276.92 1209.4,-278.66"/>
</g>
<!-- 11&#45;&gt;21 -->
<g id="edge6" class="edge">
<title>11&#45;&gt;21</title>
<path fill="none" stroke="black" d="M1253.18,-306.83C1297.85,-295.98 1359.82,-280.91 1408.14,-269.17"/>
<polygon fill="black" stroke="black" points="1409.04,-272.55 1417.93,-266.79 1407.38,-265.75 1409.04,-272.55"/>
</g>
<!-- 22 -->
<g id="node8" class="node">
<title>22</title>
<ellipse fill="#b9d3ee" stroke="black" cx="1122.9" cy="-250" rx="36" ry="18"/>
<text text-anchor="middle" x="1122.9" y="-246.3" font-family="Times,serif" font-size="14.00">407</text>
</g>
<!-- 11&#45;&gt;22 -->
<g id="edge7" class="edge">
<title>11&#45;&gt;22</title>
<path fill="none" stroke="black" d="M1177.47,-304.05C1168.05,-294.9 1156.3,-283.47 1146.11,-273.57"/>
<polygon fill="black" stroke="black" points="1148.3,-270.82 1138.69,-266.36 1143.42,-275.84 1148.3,-270.82"/>
</g>
<!-- legend_2 -->
<g id="node9" class="node">
<title>legend_2</title>
<polygon fill="#b9d3ee" stroke="black" points="2592.4,-268 2371.4,-268 2371.4,-232 2592.4,-232 2592.4,-268"/>
<text text-anchor="middle" x="2481.9" y="-246.3" font-family="Times,serif" font-size="14.00">DT=3 ST=1 Similarity=0.51</text>
</g>
<!-- legend_1&#45;&gt;legend_2 -->
<g id="edge8" class="edge">
<title>legend_1&#45;&gt;legend_2</title>
<path fill="none" stroke="black" d="M2481.9,-303.7C2481.9,-295.98 2481.9,-286.71 2481.9,-278.11"/>
<polygon fill="black" stroke="black" points="2485.4,-278.1 2481.9,-268.1 2478.4,-278.1 2485.4,-278.1"/>
</g>
<!-- 30 -->
<g id="node10" class="node">
<title>30</title>
<ellipse fill="#b9d3ee" stroke="black" cx="1482.9" cy="-178" rx="36" ry="18"/>
<text text-anchor="middle" x="1482.9" y="-174.3" font-family="Times,serif" font-size="14.00">399</text>
</g>
<!-- 20&#45;&gt;30 -->
<g id="edge9" class="edge">
<title>20&#45;&gt;30</title>
<path fill="none" stroke="black" d="M1244.13,-240.9C1292.91,-228.26 1387.18,-203.82 1441.54,-189.72"/>
<polygon fill="black" stroke="black" points="1442.73,-193.03 1451.53,-187.13 1440.97,-186.26 1442.73,-193.03"/>
</g>
<!-- 31 -->
<g id="node11" class="node">
<title>31</title>
<ellipse fill="#b9d3ee" stroke="black" cx="1167.9" cy="-178" rx="108" ry="18"/>
<text text-anchor="middle" x="1167.9" y="-174.3" font-family="Times,serif" font-size="14.00">797</text>
</g>
<!-- 20&#45;&gt;31 -->
<g id="edge11" class="edge">
<title>20&#45;&gt;31</title>
<path fill="none" stroke="black" d="M1202.46,-232.76C1197.11,-224.44 1190.47,-214.1 1184.44,-204.73"/>
<polygon fill="black" stroke="black" points="1187.26,-202.64 1178.91,-196.12 1181.37,-206.43 1187.26,-202.64"/>
</g>
<!-- 33 -->
<g id="node13" class="node">
<title>33</title>
<ellipse fill="#b9d3ee" stroke="black" cx="638.9" cy="-178" rx="36" ry="18"/>
<text text-anchor="middle" x="638.9" y="-174.3" font-family="Times,serif" font-size="14.00">402</text>
</g>
<!-- 20&#45;&gt;33 -->
<g id="edge15" class="edge">
<title>20&#45;&gt;33</title>
<path fill="none" stroke="black" d="M1186.13,-237.58C1180.21,-235.43 1173.92,-233.41 1167.9,-232 992.9,-190.93 778.02,-181.67 685.21,-179.6"/>
<polygon fill="black" stroke="black" points="685.1,-176.09 675.03,-179.39 684.96,-183.09 685.1,-176.09"/>
</g>
<!-- 21&#45;&gt;30 -->
<g id="edge10" class="edge">
<title>21&#45;&gt;30</title>
<path fill="none" stroke="black" d="M1482.9,-231.7C1482.9,-223.98 1482.9,-214.71 1482.9,-206.11"/>
<polygon fill="black" stroke="black" points="1486.4,-206.1 1482.9,-196.1 1479.4,-206.1 1486.4,-206.1"/>
</g>
<!-- 21&#45;&gt;31 -->
<g id="edge12" class="edge">
<title>21&#45;&gt;31</title>
<path fill="none" stroke="black" d="M1412.6,-233.38C1361.15,-221.95 1291.59,-206.49 1239.78,-194.97"/>
<polygon fill="black" stroke="black" points="1240.51,-191.55 1229.99,-192.8 1238.99,-198.38 1240.51,-191.55"/>
</g>
<!-- 32 -->
<g id="node12" class="node">
<title>32</title>
<ellipse fill="#b9d3ee" stroke="black" cx="1942.9" cy="-178" rx="36" ry="18"/>
<text text-anchor="middle" x="1942.9" y="-174.3" font-family="Times,serif" font-size="14.00">402</text>
</g>
<!-- 21&#45;&gt;32 -->
<g id="edge14" class="edge">
<title>21&#45;&gt;32</title>
<path fill="none" stroke="black" d="M1577.37,-234.62C1675.61,-219.67 1825.12,-196.92 1898.76,-185.72"/>
<polygon fill="black" stroke="black" points="1899.7,-189.11 1909.06,-184.15 1898.65,-182.19 1899.7,-189.11"/>
</g>
<!-- 22&#45;&gt;31 -->
<g id="edge13" class="edge">
<title>22&#45;&gt;31</title>
<path fill="none" stroke="black" d="M1133.34,-232.76C1138.69,-224.44 1145.33,-214.1 1151.36,-204.73"/>
<polygon fill="black" stroke="black" points="1154.43,-206.43 1156.89,-196.12 1148.54,-202.64 1154.43,-206.43"/>
</g>
<!-- legend_3 -->
<g id="node14" class="node">
<title>legend_3</title>
<polygon fill="#b9d3ee" stroke="black" points="2592.4,-196 2371.4,-196 2371.4,-160 2592.4,-160 2592.4,-196"/>
<text text-anchor="middle" x="2481.9" y="-174.3" font-family="Times,serif" font-size="14.00">DT=4 ST=1 Similarity=0.55</text>
</g>
<!-- legend_2&#45;&gt;legend_3 -->
<g id="edge16" class="edge">
<title>legend_2&#45;&gt;legend_3</title>
<path fill="none" stroke="black" d="M2481.9,-231.7C2481.9,-223.98 2481.9,-214.71 2481.9,-206.11"/>
<polygon fill="black" stroke="black" points="2485.4,-206.1 2481.9,-196.1 2478.4,-206.1 2485.4,-206.1"/>
</g>
<!-- 42 -->
<g id="node17" class="node">
<title>42</title>
<polygon fill="darkseagreen" stroke="black" points="1634.9,-124 1562.9,-124 1562.9,-88 1634.9,-88 1634.9,-124"/>
<text text-anchor="middle" x="1598.9" y="-102.3" font-family="Times,serif" font-size="14.00">399</text>
</g>
<!-- 30&#45;&gt;42 -->
<g id="edge19" class="edge">
<title>30&#45;&gt;42</title>
<path fill="none" stroke="black" d="M1504.99,-163.67C1521.11,-153.94 1543.32,-140.54 1562.1,-129.21"/>
<polygon fill="black" stroke="black" points="1563.97,-132.17 1570.72,-124 1560.35,-126.17 1563.97,-132.17"/>
</g>
<!-- 45 -->
<g id="node20" class="node">
<title>45</title>
<polygon fill="darkseagreen" stroke="black" points="1203.9,-124 1131.9,-124 1131.9,-88 1203.9,-88 1203.9,-124"/>
<text text-anchor="middle" x="1167.9" y="-102.3" font-family="Times,serif" font-size="14.00">383</text>
</g>
<!-- 31&#45;&gt;45 -->
<g id="edge22" class="edge">
<title>31&#45;&gt;45</title>
<path fill="none" stroke="black" d="M1167.9,-159.7C1167.9,-151.98 1167.9,-142.71 1167.9,-134.11"/>
<polygon fill="black" stroke="black" points="1171.4,-134.1 1167.9,-124.1 1164.4,-134.1 1171.4,-134.1"/>
</g>
<!-- 46 -->
<g id="node21" class="node">
<title>46</title>
<polygon fill="darkseagreen" stroke="black" points="778.9,-124 706.9,-124 706.9,-88 778.9,-88 778.9,-124"/>
<text text-anchor="middle" x="742.9" y="-102.3" font-family="Times,serif" font-size="14.00">417</text>
</g>
<!-- 31&#45;&gt;46 -->
<g id="edge23" class="edge">
<title>31&#45;&gt;46</title>
<path fill="none" stroke="black" d="M1093.87,-164.81C1006.15,-150.36 862.66,-126.73 789.29,-114.64"/>
<polygon fill="black" stroke="black" points="789.42,-111.12 778.98,-112.94 788.28,-118.02 789.42,-111.12"/>
</g>
<!-- 41 -->
<g id="node16" class="node">
<title>41</title>
<polygon fill="darkseagreen" stroke="black" points="1960.4,-124 1925.4,-124 1925.4,-88 1960.4,-88 1960.4,-124"/>
<text text-anchor="middle" x="1942.9" y="-102.3" font-family="Times,serif" font-size="14.00">23</text>
</g>
<!-- 32&#45;&gt;41 -->
<g id="edge18" class="edge">
<title>32&#45;&gt;41</title>
<path fill="none" stroke="black" d="M1942.9,-159.7C1942.9,-151.98 1942.9,-142.71 1942.9,-134.11"/>
<polygon fill="black" stroke="black" points="1946.4,-134.1 1942.9,-124.1 1939.4,-134.1 1946.4,-134.1"/>
</g>
<!-- 44 -->
<g id="node19" class="node">
<title>44</title>
<polygon fill="darkseagreen" stroke="black" points="2218.9,-124 2146.9,-124 2146.9,-88 2218.9,-88 2218.9,-124"/>
<text text-anchor="middle" x="2182.9" y="-102.3" font-family="Times,serif" font-size="14.00">379</text>
</g>
<!-- 32&#45;&gt;44 -->
<g id="edge21" class="edge">
<title>32&#45;&gt;44</title>
<path fill="none" stroke="black" d="M1973.29,-168.13C2014.63,-156.08 2088.91,-134.41 2137.04,-120.38"/>
<polygon fill="black" stroke="black" points="2138.27,-123.66 2146.89,-117.5 2136.31,-116.94 2138.27,-123.66"/>
</g>
<!-- 40 -->
<g id="node15" class="node">
<title>40</title>
<polygon fill="darkseagreen" stroke="black" points="552.4,-124 517.4,-124 517.4,-88 552.4,-88 552.4,-124"/>
<text text-anchor="middle" x="534.9" y="-102.3" font-family="Times,serif" font-size="14.00">12</text>
</g>
<!-- 33&#45;&gt;40 -->
<g id="edge17" class="edge">
<title>33&#45;&gt;40</title>
<path fill="none" stroke="black" d="M618.35,-163.17C602.02,-152.18 579.05,-136.72 561.35,-124.8"/>
<polygon fill="black" stroke="black" points="562.88,-121.62 552.63,-118.94 558.97,-127.42 562.88,-121.62"/>
</g>
<!-- 43 -->
<g id="node18" class="node">
<title>43</title>
<polygon fill="darkseagreen" stroke="black" points="266.9,-124 194.9,-124 194.9,-88 266.9,-88 266.9,-124"/>
<text text-anchor="middle" x="230.9" y="-102.3" font-family="Times,serif" font-size="14.00">387</text>
</g>
<!-- 33&#45;&gt;43 -->
<g id="edge20" class="edge">
<title>33&#45;&gt;43</title>
<path fill="none" stroke="black" d="M605.16,-171.21C532.22,-158.7 359.73,-129.1 276.88,-114.89"/>
<polygon fill="black" stroke="black" points="277.45,-111.44 267,-113.19 276.26,-118.33 277.45,-111.44"/>
</g>
<!-- 33&#45;&gt;46 -->
<g id="edge24" class="edge">
<title>33&#45;&gt;46</title>
<path fill="none" stroke="black" d="M659.45,-163.17C673.53,-153.69 692.55,-140.89 708.87,-129.9"/>
<polygon fill="black" stroke="black" points="711.27,-132.51 717.61,-124.02 707.36,-126.7 711.27,-132.51"/>
</g>
<!-- legend_4 -->
<g id="node22" class="node">
<title>legend_4</title>
<polygon fill="darkseagreen" stroke="black" points="2592.4,-124 2371.4,-124 2371.4,-88 2592.4,-88 2592.4,-124"/>
<text text-anchor="middle" x="2481.9" y="-102.3" font-family="Times,serif" font-size="14.00">DT=5 ST=1 Similarity=0.71</text>
</g>
<!-- legend_3&#45;&gt;legend_4 -->
<g id="edge25" class="edge">
<title>legend_3&#45;&gt;legend_4</title>
<path fill="none" stroke="black" d="M2481.9,-159.7C2481.9,-151.98 2481.9,-142.71 2481.9,-134.11"/>
<polygon fill="black" stroke="black" points="2485.4,-134.1 2481.9,-124.1 2478.4,-134.1 2485.4,-134.1"/>
</g>
<!-- 521 -->
<g id="node44" class="node">
<title>521</title>
<ellipse fill="#b9d3ee" stroke="black" cx="482.9" cy="-34" rx="16.8" ry="18"/>
<text text-anchor="middle" x="482.9" y="-30.3" font-family="Times,serif" font-size="14.00">5</text>
</g>
<!-- 40&#45;&gt;521 -->
<g id="edge47" class="edge">
<title>40&#45;&gt;521</title>
<path fill="none" stroke="black" d="M522.04,-87.7C515.16,-78.43 506.6,-66.91 499.25,-57.01"/>
<polygon fill="black" stroke="black" points="501.94,-54.76 493.17,-48.82 496.32,-58.94 501.94,-54.76"/>
</g>
<!-- 525 -->
<g id="node48" class="node">
<title>525</title>
<ellipse fill="#b9d3ee" stroke="black" cx="534.9" cy="-34" rx="16.8" ry="18"/>
<text text-anchor="middle" x="534.9" y="-30.3" font-family="Times,serif" font-size="14.00">7</text>
</g>
<!-- 40&#45;&gt;525 -->
<g id="edge51" class="edge">
<title>40&#45;&gt;525</title>
<path fill="none" stroke="black" d="M534.9,-87.7C534.9,-79.98 534.9,-70.71 534.9,-62.11"/>
<polygon fill="black" stroke="black" points="538.4,-62.1 534.9,-52.1 531.4,-62.1 538.4,-62.1"/>
</g>
<!-- 520 -->
<g id="node43" class="node">
<title>520</title>
<ellipse fill="#b9d3ee" stroke="black" cx="1913.9" cy="-34" rx="16.8" ry="18"/>
<text text-anchor="middle" x="1913.9" y="-30.3" font-family="Times,serif" font-size="14.00">5</text>
</g>
<!-- 41&#45;&gt;520 -->
<g id="edge46" class="edge">
<title>41&#45;&gt;520</title>
<path fill="none" stroke="black" d="M1935.73,-87.7C1932.28,-79.37 1928.08,-69.23 1924.29,-60.08"/>
<polygon fill="black" stroke="black" points="1927.45,-58.57 1920.39,-50.67 1920.98,-61.25 1927.45,-58.57"/>
</g>
<!-- 530 -->
<g id="node53" class="node">
<title>530</title>
<ellipse fill="#b9d3ee" stroke="black" cx="1971.9" cy="-34" rx="23" ry="18"/>
<text text-anchor="middle" x="1971.9" y="-30.3" font-family="Times,serif" font-size="14.00">18</text>
</g>
<!-- 41&#45;&gt;530 -->
<g id="edge56" class="edge">
<title>41&#45;&gt;530</title>
<path fill="none" stroke="black" d="M1950.07,-87.7C1953.42,-79.61 1957.48,-69.81 1961.18,-60.87"/>
<polygon fill="black" stroke="black" points="1964.42,-62.2 1965.01,-51.62 1957.95,-59.52 1964.42,-62.2"/>
</g>
<!-- 50 -->
<g id="node23" class="node">
<title>50</title>
<ellipse fill="#b9d3ee" stroke="black" cx="1809.9" cy="-34" rx="16.8" ry="18"/>
<text text-anchor="middle" x="1809.9" y="-30.3" font-family="Times,serif" font-size="14.00">1</text>
</g>
<!-- 42&#45;&gt;50 -->
<g id="edge26" class="edge">
<title>42&#45;&gt;50</title>
<path fill="none" stroke="black" d="M1635.15,-97.99C1673.29,-89.85 1734.53,-74.59 1783.9,-52 1785.08,-51.46 1786.28,-50.87 1787.47,-50.24"/>
<polygon fill="black" stroke="black" points="1789.5,-53.1 1796.31,-44.98 1785.93,-47.08 1789.5,-53.1"/>
</g>
<!-- 55 -->
<g id="node28" class="node">
<title>55</title>
<ellipse fill="#b9d3ee" stroke="black" cx="1861.9" cy="-34" rx="16.8" ry="18"/>
<text text-anchor="middle" x="1861.9" y="-30.3" font-family="Times,serif" font-size="14.00">1</text>
</g>
<!-- 42&#45;&gt;55 -->
<g id="edge31" class="edge">
<title>42&#45;&gt;55</title>
<path fill="none" stroke="black" d="M1635.06,-101.01C1682.62,-94.85 1768.12,-80.62 1835.9,-52 1837.1,-51.49 1838.31,-50.93 1839.51,-50.33"/>
<polygon fill="black" stroke="black" points="1841.51,-53.21 1848.38,-45.15 1837.98,-47.16 1841.51,-53.21"/>
</g>
<!-- 512 -->
<g id="node35" class="node">
<title>512</title>
<ellipse fill="#b9d3ee" stroke="black" cx="1425.9" cy="-34" rx="16.8" ry="18"/>
<text text-anchor="middle" x="1425.9" y="-30.3" font-family="Times,serif" font-size="14.00">2</text>
</g>
<!-- 42&#45;&gt;512 -->
<g id="edge38" class="edge">
<title>42&#45;&gt;512</title>
<path fill="none" stroke="black" d="M1562.89,-94.6C1532.52,-85.23 1488.32,-70.16 1451.9,-52 1450.73,-51.42 1449.55,-50.79 1448.37,-50.14"/>
<polygon fill="black" stroke="black" points="1449.94,-47 1439.58,-44.8 1446.3,-52.98 1449.94,-47"/>
</g>
<!-- 516 -->
<g id="node39" class="node">
<title>516</title>
<ellipse fill="#b9d3ee" stroke="black" cx="1477.9" cy="-34" rx="16.8" ry="18"/>
<text text-anchor="middle" x="1477.9" y="-30.3" font-family="Times,serif" font-size="14.00">3</text>
</g>
<!-- 42&#45;&gt;516 -->
<g id="edge42" class="edge">
<title>42&#45;&gt;516</title>
<path fill="none" stroke="black" d="M1566.91,-87.88C1548.33,-77.76 1524.58,-64.51 1503.9,-52 1502.78,-51.32 1501.64,-50.63 1500.5,-49.91"/>
<polygon fill="black" stroke="black" points="1502.13,-46.8 1491.82,-44.36 1498.35,-52.7 1502.13,-46.8"/>
</g>
<!-- 528 -->
<g id="node51" class="node">
<title>528</title>
<ellipse fill="#b9d3ee" stroke="black" cx="1535.9" cy="-34" rx="23" ry="18"/>
<text text-anchor="middle" x="1535.9" y="-30.3" font-family="Times,serif" font-size="14.00">14</text>
</g>
<!-- 42&#45;&gt;528 -->
<g id="edge54" class="edge">
<title>42&#45;&gt;528</title>
<path fill="none" stroke="black" d="M1583.33,-87.7C1574.93,-78.37 1564.49,-66.76 1555.54,-56.82"/>
<polygon fill="black" stroke="black" points="1558.04,-54.37 1548.75,-49.28 1552.84,-59.05 1558.04,-54.37"/>
</g>
<!-- 531 -->
<g id="node54" class="node">
<title>531</title>
<ellipse fill="#b9d3ee" stroke="black" cx="1598.9" cy="-34" rx="23" ry="18"/>
<text text-anchor="middle" x="1598.9" y="-30.3" font-family="Times,serif" font-size="14.00">19</text>
</g>
<!-- 42&#45;&gt;531 -->
<g id="edge57" class="edge">
<title>42&#45;&gt;531</title>
<path fill="none" stroke="black" d="M1598.9,-87.7C1598.9,-79.98 1598.9,-70.71 1598.9,-62.11"/>
<polygon fill="black" stroke="black" points="1602.4,-62.1 1598.9,-52.1 1595.4,-62.1 1602.4,-62.1"/>
</g>
<!-- 534 -->
<g id="node57" class="node">
<title>534</title>
<ellipse fill="#b9d3ee" stroke="black" cx="1661.9" cy="-34" rx="23" ry="18"/>
<text text-anchor="middle" x="1661.9" y="-30.3" font-family="Times,serif" font-size="14.00">62</text>
</g>
<!-- 42&#45;&gt;534 -->
<g id="edge60" class="edge">
<title>42&#45;&gt;534</title>
<path fill="none" stroke="black" d="M1614.47,-87.7C1622.87,-78.37 1633.31,-66.76 1642.26,-56.82"/>
<polygon fill="black" stroke="black" points="1644.96,-59.05 1649.05,-49.28 1639.76,-54.37 1644.96,-59.05"/>
</g>
<!-- 535 -->
<g id="node58" class="node">
<title>535</title>
<ellipse fill="#b9d3ee" stroke="black" cx="1738.9" cy="-34" rx="36" ry="18"/>
<text text-anchor="middle" x="1738.9" y="-30.3" font-family="Times,serif" font-size="14.00">297</text>
</g>
<!-- 42&#45;&gt;535 -->
<g id="edge61" class="edge">
<title>42&#45;&gt;535</title>
<path fill="none" stroke="black" d="M1633.15,-87.88C1655.01,-76.95 1683.22,-62.84 1705.01,-51.94"/>
<polygon fill="black" stroke="black" points="1706.84,-54.94 1714.22,-47.34 1703.71,-48.68 1706.84,-54.94"/>
</g>
<!-- 51 -->
<g id="node24" class="node">
<title>51</title>
<ellipse fill="#b9d3ee" stroke="black" cx="378.9" cy="-34" rx="16.8" ry="18"/>
<text text-anchor="middle" x="378.9" y="-30.3" font-family="Times,serif" font-size="14.00">1</text>
</g>
<!-- 43&#45;&gt;51 -->
<g id="edge27" class="edge">
<title>43&#45;&gt;51</title>
<path fill="none" stroke="black" d="M267.15,-91.13C291.83,-81.24 324.95,-67.07 352.9,-52 354.05,-51.38 355.21,-50.73 356.38,-50.05"/>
<polygon fill="black" stroke="black" points="358.48,-52.87 365.13,-44.62 354.79,-46.92 358.48,-52.87"/>
</g>
<!-- 58 -->
<g id="node31" class="node">
<title>58</title>
<ellipse fill="#b9d3ee" stroke="black" cx="430.9" cy="-34" rx="16.8" ry="18"/>
<text text-anchor="middle" x="430.9" y="-30.3" font-family="Times,serif" font-size="14.00">2</text>
</g>
<!-- 43&#45;&gt;58 -->
<g id="edge34" class="edge">
<title>43&#45;&gt;58</title>
<path fill="none" stroke="black" d="M266.98,-97.18C302.96,-88.66 359.27,-73.33 404.9,-52 406.08,-51.45 407.27,-50.85 408.46,-50.21"/>
<polygon fill="black" stroke="black" points="410.5,-53.07 417.29,-44.93 406.91,-47.06 410.5,-53.07"/>
</g>
<!-- 513 -->
<g id="node36" class="node">
<title>513</title>
<ellipse fill="#b9d3ee" stroke="black" cx="16.9" cy="-34" rx="16.8" ry="18"/>
<text text-anchor="middle" x="16.9" y="-30.3" font-family="Times,serif" font-size="14.00">2</text>
</g>
<!-- 43&#45;&gt;513 -->
<g id="edge39" class="edge">
<title>43&#45;&gt;513</title>
<path fill="none" stroke="black" d="M194.77,-98.23C156.06,-90.21 93.37,-74.96 42.9,-52 41.71,-51.46 40.52,-50.87 39.33,-50.24"/>
<polygon fill="black" stroke="black" points="40.87,-47.09 30.48,-44.99 37.29,-53.11 40.87,-47.09"/>
</g>
<!-- 515 -->
<g id="node38" class="node">
<title>515</title>
<ellipse fill="#b9d3ee" stroke="black" cx="68.9" cy="-34" rx="16.8" ry="18"/>
<text text-anchor="middle" x="68.9" y="-30.3" font-family="Times,serif" font-size="14.00">3</text>
</g>
<!-- 43&#45;&gt;515 -->
<g id="edge41" class="edge">
<title>43&#45;&gt;515</title>
<path fill="none" stroke="black" d="M194.79,-93.23C166.86,-83.59 127.57,-68.82 94.9,-52 93.74,-51.4 92.57,-50.77 91.39,-50.1"/>
<polygon fill="black" stroke="black" points="92.97,-46.96 82.61,-44.73 89.31,-52.93 92.97,-46.96"/>
</g>
<!-- 519 -->
<g id="node42" class="node">
<title>519</title>
<ellipse fill="#b9d3ee" stroke="black" cx="120.9" cy="-34" rx="16.8" ry="18"/>
<text text-anchor="middle" x="120.9" y="-30.3" font-family="Times,serif" font-size="14.00">4</text>
</g>
<!-- 43&#45;&gt;519 -->
<g id="edge45" class="edge">
<title>43&#45;&gt;519</title>
<path fill="none" stroke="black" d="M203.59,-87.93C187.13,-77.59 165.76,-64.12 146.9,-52 145.8,-51.3 144.68,-50.57 143.55,-49.84"/>
<polygon fill="black" stroke="black" points="145.2,-46.74 134.9,-44.22 141.38,-52.6 145.2,-46.74"/>
</g>
<!-- 522 -->
<g id="node45" class="node">
<title>522</title>
<ellipse fill="#b9d3ee" stroke="black" cx="172.9" cy="-34" rx="16.8" ry="18"/>
<text text-anchor="middle" x="172.9" y="-30.3" font-family="Times,serif" font-size="14.00">7</text>
</g>
<!-- 43&#45;&gt;522 -->
<g id="edge48" class="edge">
<title>43&#45;&gt;522</title>
<path fill="none" stroke="black" d="M216.56,-87.7C208.59,-78.08 198.62,-66.05 190.22,-55.91"/>
<polygon fill="black" stroke="black" points="192.69,-53.4 183.61,-47.93 187.3,-57.86 192.69,-53.4"/>
</g>
<!-- 527 -->
<g id="node50" class="node">
<title>527</title>
<ellipse fill="#b9d3ee" stroke="black" cx="230.9" cy="-34" rx="23" ry="18"/>
<text text-anchor="middle" x="230.9" y="-30.3" font-family="Times,serif" font-size="14.00">13</text>
</g>
<!-- 43&#45;&gt;527 -->
<g id="edge53" class="edge">
<title>43&#45;&gt;527</title>
<path fill="none" stroke="black" d="M230.9,-87.7C230.9,-79.98 230.9,-70.71 230.9,-62.11"/>
<polygon fill="black" stroke="black" points="234.4,-62.1 230.9,-52.1 227.4,-62.1 234.4,-62.1"/>
</g>
<!-- 537 -->
<g id="node60" class="node">
<title>537</title>
<ellipse fill="#b9d3ee" stroke="black" cx="307.9" cy="-34" rx="36" ry="18"/>
<text text-anchor="middle" x="307.9" y="-30.3" font-family="Times,serif" font-size="14.00">355</text>
</g>
<!-- 43&#45;&gt;537 -->
<g id="edge63" class="edge">
<title>43&#45;&gt;537</title>
<path fill="none" stroke="black" d="M249.93,-87.7C260.11,-78.44 272.75,-66.95 283.63,-57.06"/>
<polygon fill="black" stroke="black" points="286.13,-59.52 291.18,-50.2 281.42,-54.34 286.13,-59.52"/>
</g>
<!-- 52 -->
<g id="node25" class="node">
<title>52</title>
<ellipse fill="#b9d3ee" stroke="black" cx="2182.9" cy="-34" rx="16.8" ry="18"/>
<text text-anchor="middle" x="2182.9" y="-30.3" font-family="Times,serif" font-size="14.00">1</text>
</g>
<!-- 44&#45;&gt;52 -->
<g id="edge28" class="edge">
<title>44&#45;&gt;52</title>
<path fill="none" stroke="black" d="M2182.9,-87.7C2182.9,-79.98 2182.9,-70.71 2182.9,-62.11"/>
<polygon fill="black" stroke="black" points="2186.4,-62.1 2182.9,-52.1 2179.4,-62.1 2186.4,-62.1"/>
</g>
<!-- 53 -->
<g id="node26" class="node">
<title>53</title>
<ellipse fill="#b9d3ee" stroke="black" cx="2234.9" cy="-34" rx="16.8" ry="18"/>
<text text-anchor="middle" x="2234.9" y="-30.3" font-family="Times,serif" font-size="14.00">1</text>
</g>
<!-- 44&#45;&gt;53 -->
<g id="edge29" class="edge">
<title>44&#45;&gt;53</title>
<path fill="none" stroke="black" d="M2195.75,-87.7C2202.64,-78.43 2211.19,-66.91 2218.55,-57.01"/>
<polygon fill="black" stroke="black" points="2221.48,-58.94 2224.63,-48.82 2215.86,-54.76 2221.48,-58.94"/>
</g>
<!-- 59 -->
<g id="node32" class="node">
<title>59</title>
<ellipse fill="#b9d3ee" stroke="black" cx="2286.9" cy="-34" rx="16.8" ry="18"/>
<text text-anchor="middle" x="2286.9" y="-30.3" font-family="Times,serif" font-size="14.00">2</text>
</g>
<!-- 44&#45;&gt;59 -->
<g id="edge35" class="edge">
<title>44&#45;&gt;59</title>
<path fill="none" stroke="black" d="M2208.34,-87.88C2225.49,-76.33 2247.91,-61.24 2264.4,-50.14"/>
<polygon fill="black" stroke="black" points="2266.55,-52.92 2272.89,-44.43 2262.64,-47.11 2266.55,-52.92"/>
</g>
<!-- 510 -->
<g id="node33" class="node">
<title>510</title>
<ellipse fill="#b9d3ee" stroke="black" cx="2338.9" cy="-34" rx="16.8" ry="18"/>
<text text-anchor="middle" x="2338.9" y="-30.3" font-family="Times,serif" font-size="14.00">2</text>
</g>
<!-- 44&#45;&gt;510 -->
<g id="edge36" class="edge">
<title>44&#45;&gt;510</title>
<path fill="none" stroke="black" d="M2219.04,-92.39C2245.6,-82.63 2282.25,-68.08 2312.9,-52 2314.05,-51.39 2315.22,-50.75 2316.39,-50.08"/>
<polygon fill="black" stroke="black" points="2318.48,-52.91 2325.16,-44.68 2314.81,-46.95 2318.48,-52.91"/>
</g>
<!-- 533 -->
<g id="node56" class="node">
<title>533</title>
<ellipse fill="#b9d3ee" stroke="black" cx="2034.9" cy="-34" rx="23" ry="18"/>
<text text-anchor="middle" x="2034.9" y="-30.3" font-family="Times,serif" font-size="14.00">33</text>
</g>
<!-- 44&#45;&gt;533 -->
<g id="edge59" class="edge">
<title>44&#45;&gt;533</title>
<path fill="none" stroke="black" d="M2146.84,-89.19C2123.81,-78.93 2093.4,-65.08 2066.9,-52 2065.35,-51.23 2063.76,-50.44 2062.16,-49.62"/>
<polygon fill="black" stroke="black" points="2063.56,-46.41 2053.08,-44.9 2060.33,-52.62 2063.56,-46.41"/>
</g>
<!-- 536 -->
<g id="node59" class="node">
<title>536</title>
<ellipse fill="#b9d3ee" stroke="black" cx="2111.9" cy="-34" rx="36" ry="18"/>
<text text-anchor="middle" x="2111.9" y="-30.3" font-family="Times,serif" font-size="14.00">340</text>
</g>
<!-- 44&#45;&gt;536 -->
<g id="edge62" class="edge">
<title>44&#45;&gt;536</title>
<path fill="none" stroke="black" d="M2165.35,-87.7C2156.19,-78.66 2144.86,-67.5 2134.99,-57.77"/>
<polygon fill="black" stroke="black" points="2137.37,-55.2 2127.79,-50.67 2132.46,-60.18 2137.37,-55.2"/>
</g>
<!-- 56 -->
<g id="node29" class="node">
<title>56</title>
<ellipse fill="#b9d3ee" stroke="black" cx="1011.9" cy="-34" rx="16.8" ry="18"/>
<text text-anchor="middle" x="1011.9" y="-30.3" font-family="Times,serif" font-size="14.00">1</text>
</g>
<!-- 45&#45;&gt;56 -->
<g id="edge32" class="edge">
<title>45&#45;&gt;56</title>
<path fill="none" stroke="black" d="M1131.75,-92.39C1105.19,-82.63 1068.55,-68.08 1037.9,-52 1036.74,-51.39 1035.57,-50.75 1034.4,-50.08"/>
<polygon fill="black" stroke="black" points="1035.98,-46.95 1025.63,-44.68 1032.31,-52.91 1035.98,-46.95"/>
</g>
<!-- 57 -->
<g id="node30" class="node">
<title>57</title>
<ellipse fill="#b9d3ee" stroke="black" cx="1063.9" cy="-34" rx="16.8" ry="18"/>
<text text-anchor="middle" x="1063.9" y="-30.3" font-family="Times,serif" font-size="14.00">1</text>
</g>
<!-- 45&#45;&gt;57 -->
<g id="edge33" class="edge">
<title>45&#45;&gt;57</title>
<path fill="none" stroke="black" d="M1142.46,-87.88C1125.31,-76.33 1102.89,-61.24 1086.39,-50.14"/>
<polygon fill="black" stroke="black" points="1088.16,-47.11 1077.91,-44.43 1084.25,-52.92 1088.16,-47.11"/>
</g>
<!-- 511 -->
<g id="node34" class="node">
<title>511</title>
<ellipse fill="#b9d3ee" stroke="black" cx="1115.9" cy="-34" rx="16.8" ry="18"/>
<text text-anchor="middle" x="1115.9" y="-30.3" font-family="Times,serif" font-size="14.00">2</text>
</g>
<!-- 45&#45;&gt;511 -->
<g id="edge37" class="edge">
<title>45&#45;&gt;511</title>
<path fill="none" stroke="black" d="M1155.04,-87.7C1148.16,-78.43 1139.6,-66.91 1132.25,-57.01"/>
<polygon fill="black" stroke="black" points="1134.94,-54.76 1126.17,-48.82 1129.32,-58.94 1134.94,-54.76"/>
</g>
<!-- 514 -->
<g id="node37" class="node">
<title>514</title>
<ellipse fill="#b9d3ee" stroke="black" cx="1167.9" cy="-34" rx="16.8" ry="18"/>
<text text-anchor="middle" x="1167.9" y="-30.3" font-family="Times,serif" font-size="14.00">2</text>
</g>
<!-- 45&#45;&gt;514 -->
<g id="edge40" class="edge">
<title>45&#45;&gt;514</title>
<path fill="none" stroke="black" d="M1167.9,-87.7C1167.9,-79.98 1167.9,-70.71 1167.9,-62.11"/>
<polygon fill="black" stroke="black" points="1171.4,-62.1 1167.9,-52.1 1164.4,-62.1 1171.4,-62.1"/>
</g>
<!-- 518 -->
<g id="node41" class="node">
<title>518</title>
<ellipse fill="#b9d3ee" stroke="black" cx="1219.9" cy="-34" rx="16.8" ry="18"/>
<text text-anchor="middle" x="1219.9" y="-30.3" font-family="Times,serif" font-size="14.00">3</text>
</g>
<!-- 45&#45;&gt;518 -->
<g id="edge44" class="edge">
<title>45&#45;&gt;518</title>
<path fill="none" stroke="black" d="M1180.75,-87.7C1187.64,-78.43 1196.19,-66.91 1203.55,-57.01"/>
<polygon fill="black" stroke="black" points="1206.48,-58.94 1209.63,-48.82 1200.86,-54.76 1206.48,-58.94"/>
</g>
<!-- 529 -->
<g id="node52" class="node">
<title>529</title>
<ellipse fill="#b9d3ee" stroke="black" cx="1277.9" cy="-34" rx="23" ry="18"/>
<text text-anchor="middle" x="1277.9" y="-30.3" font-family="Times,serif" font-size="14.00">15</text>
</g>
<!-- 45&#45;&gt;529 -->
<g id="edge55" class="edge">
<title>45&#45;&gt;529</title>
<path fill="none" stroke="black" d="M1194.81,-87.88C1212.25,-76.78 1234.84,-62.4 1252.06,-51.44"/>
<polygon fill="black" stroke="black" points="1253.97,-54.38 1260.52,-46.06 1250.21,-48.47 1253.97,-54.38"/>
</g>
<!-- 538 -->
<g id="node61" class="node">
<title>538</title>
<ellipse fill="#b9d3ee" stroke="black" cx="1354.9" cy="-34" rx="36" ry="18"/>
<text text-anchor="middle" x="1354.9" y="-30.3" font-family="Times,serif" font-size="14.00">359</text>
</g>
<!-- 45&#45;&gt;538 -->
<g id="edge64" class="edge">
<title>45&#45;&gt;538</title>
<path fill="none" stroke="black" d="M1204.1,-91.53C1232.8,-80.84 1273.93,-65.51 1309.9,-52 1312.29,-51.1 1314.76,-50.17 1317.24,-49.24"/>
<polygon fill="black" stroke="black" points="1318.7,-52.43 1326.82,-45.63 1316.23,-45.88 1318.7,-52.43"/>
</g>
<!-- 54 -->
<g id="node27" class="node">
<title>54</title>
<ellipse fill="#b9d3ee" stroke="black" cx="586.9" cy="-34" rx="16.8" ry="18"/>
<text text-anchor="middle" x="586.9" y="-30.3" font-family="Times,serif" font-size="14.00">1</text>
</g>
<!-- 46&#45;&gt;54 -->
<g id="edge30" class="edge">
<title>46&#45;&gt;54</title>
<path fill="none" stroke="black" d="M706.75,-92.39C680.19,-82.63 643.55,-68.08 612.9,-52 611.74,-51.39 610.57,-50.75 609.4,-50.08"/>
<polygon fill="black" stroke="black" points="610.98,-46.95 600.63,-44.68 607.31,-52.91 610.98,-46.95"/>
</g>
<!-- 517 -->
<g id="node40" class="node">
<title>517</title>
<ellipse fill="#b9d3ee" stroke="black" cx="638.9" cy="-34" rx="16.8" ry="18"/>
<text text-anchor="middle" x="638.9" y="-30.3" font-family="Times,serif" font-size="14.00">3</text>
</g>
<!-- 46&#45;&gt;517 -->
<g id="edge43" class="edge">
<title>46&#45;&gt;517</title>
<path fill="none" stroke="black" d="M717.46,-87.88C700.31,-76.33 677.89,-61.24 661.39,-50.14"/>
<polygon fill="black" stroke="black" points="663.16,-47.11 652.91,-44.43 659.25,-52.92 663.16,-47.11"/>
</g>
<!-- 523 -->
<g id="node46" class="node">
<title>523</title>
<ellipse fill="#b9d3ee" stroke="black" cx="690.9" cy="-34" rx="16.8" ry="18"/>
<text text-anchor="middle" x="690.9" y="-30.3" font-family="Times,serif" font-size="14.00">7</text>
</g>
<!-- 46&#45;&gt;523 -->
<g id="edge49" class="edge">
<title>46&#45;&gt;523</title>
<path fill="none" stroke="black" d="M730.04,-87.7C723.16,-78.43 714.6,-66.91 707.25,-57.01"/>
<polygon fill="black" stroke="black" points="709.94,-54.76 701.17,-48.82 704.32,-58.94 709.94,-54.76"/>
</g>
<!-- 524 -->
<g id="node47" class="node">
<title>524</title>
<ellipse fill="#b9d3ee" stroke="black" cx="742.9" cy="-34" rx="16.8" ry="18"/>
<text text-anchor="middle" x="742.9" y="-30.3" font-family="Times,serif" font-size="14.00">7</text>
</g>
<!-- 46&#45;&gt;524 -->
<g id="edge50" class="edge">
<title>46&#45;&gt;524</title>
<path fill="none" stroke="black" d="M742.9,-87.7C742.9,-79.98 742.9,-70.71 742.9,-62.11"/>
<polygon fill="black" stroke="black" points="746.4,-62.1 742.9,-52.1 739.4,-62.1 746.4,-62.1"/>
</g>
<!-- 526 -->
<g id="node49" class="node">
<title>526</title>
<ellipse fill="#b9d3ee" stroke="black" cx="800.9" cy="-34" rx="23" ry="18"/>
<text text-anchor="middle" x="800.9" y="-30.3" font-family="Times,serif" font-size="14.00">11</text>
</g>
<!-- 46&#45;&gt;526 -->
<g id="edge52" class="edge">
<title>46&#45;&gt;526</title>
<path fill="none" stroke="black" d="M757.24,-87.7C764.78,-78.59 774.13,-67.31 782.24,-57.52"/>
<polygon fill="black" stroke="black" points="785,-59.67 788.69,-49.74 779.61,-55.21 785,-59.67"/>
</g>
<!-- 532 -->
<g id="node55" class="node">
<title>532</title>
<ellipse fill="#b9d3ee" stroke="black" cx="863.9" cy="-34" rx="23" ry="18"/>
<text text-anchor="middle" x="863.9" y="-30.3" font-family="Times,serif" font-size="14.00">27</text>
</g>
<!-- 46&#45;&gt;532 -->
<g id="edge58" class="edge">
<title>46&#45;&gt;532</title>
<path fill="none" stroke="black" d="M772.5,-87.88C792.22,-76.47 817.93,-61.59 837.06,-50.53"/>
<polygon fill="black" stroke="black" points="838.96,-53.47 845.86,-45.43 835.45,-47.41 838.96,-53.47"/>
</g>
<!-- 539 -->
<g id="node62" class="node">
<title>539</title>
<ellipse fill="#b9d3ee" stroke="black" cx="940.9" cy="-34" rx="36" ry="18"/>
<text text-anchor="middle" x="940.9" y="-30.3" font-family="Times,serif" font-size="14.00">361</text>
</g>
<!-- 46&#45;&gt;539 -->
<g id="edge65" class="edge">
<title>46&#45;&gt;539</title>
<path fill="none" stroke="black" d="M779.17,-92.75C810.23,-82.19 856.12,-66.4 895.9,-52 898.3,-51.13 900.78,-50.22 903.27,-49.3"/>
<polygon fill="black" stroke="black" points="904.71,-52.5 912.86,-45.73 902.26,-45.94 904.71,-52.5"/>
</g>
<!-- legend_5 -->
<g id="node63" class="node">
<title>legend_5</title>
<polygon fill="#b9d3ee" stroke="black" points="2587.9,-52 2375.9,-52 2375.9,-16 2587.9,-16 2587.9,-52"/>
<text text-anchor="middle" x="2481.9" y="-30.3" font-family="Times,serif" font-size="14.00">DT=6 ST=1 Similarity=0.6</text>
</g>
<!-- legend_4&#45;&gt;legend_5 -->
<g id="edge66" class="edge">
<title>legend_4&#45;&gt;legend_5</title>
<path fill="none" stroke="black" d="M2481.9,-87.7C2481.9,-79.98 2481.9,-70.71 2481.9,-62.11"/>
<polygon fill="black" stroke="black" points="2485.4,-62.1 2481.9,-52.1 2478.4,-62.1 2485.4,-62.1"/>
</g>
</g>
</svg>
