<?xml version="1.0" encoding="UTF-8" standalone="no"?>
<!DOCTYPE svg PUBLIC "-//W3C//DTD SVG 1.1//EN"
 "http://www.w3.org/Graphics/SVG/1.1/DTD/svg11.dtd">
<!-- Generated by graphviz version 2.43.0 (0)
 -->
<!-- Title: %3 Pages: 1 -->
<svg width="2864pt" height="425pt"
 viewBox="0.00 0.00 2863.75 425.00" xmlns="http://www.w3.org/2000/svg" xmlns:xlink="http://www.w3.org/1999/xlink">
<g id="graph0" class="graph" transform="scale(1 1) rotate(0) translate(4 421)">
<title>%3</title>
<polygon fill="white" stroke="transparent" points="-4,4 -4,-421 2859.75,-421 2859.75,4 -4,4"/>
<text text-anchor="middle" x="1427.87" y="-401.8" font-family="Times,serif" font-size="14.00">ConsTree</text>
<text text-anchor="middle" x="1427.87" y="-386.8" font-family="Times,serif" font-size="14.00">Tree Quality = 0.8333333333333334</text>
<g id="clust1" class="cluster">
<title>cluster</title>
<polygon fill="none" stroke="black" points="2611.75,-8 2611.75,-371 2847.75,-371 2847.75,-8 2611.75,-8"/>
<text text-anchor="middle" x="2729.75" y="-355.8" font-family="Times,serif" font-size="14.00">Legend</text>
</g>
<!-- 00 -->
<g id="node1" class="node">
<title>00</title>
<ellipse fill="#b9d3ee" stroke="black" cx="1249.75" cy="-322" rx="324" ry="18"/>
<text text-anchor="middle" x="1249.75" y="-318.3" font-family="Times,serif" font-size="14.00">2000</text>
</g>
<!-- 10 -->
<g id="node3" class="node">
<title>10</title>
<ellipse fill="#b9d3ee" stroke="black" cx="1115.75" cy="-250" rx="36" ry="18"/>
<text text-anchor="middle" x="1115.75" y="-246.3" font-family="Times,serif" font-size="14.00">415</text>
</g>
<!-- 00&#45;&gt;10 -->
<g id="edge1" class="edge">
<title>00&#45;&gt;10</title>
<path fill="none" stroke="black" d="M1217.31,-304.05C1196.62,-293.25 1169.88,-279.28 1149.03,-268.39"/>
<polygon fill="black" stroke="black" points="1150.39,-265.15 1139.91,-263.62 1147.15,-271.35 1150.39,-265.15"/>
</g>
<!-- 11 -->
<g id="node4" class="node">
<title>11</title>
<ellipse fill="#b9d3ee" stroke="black" cx="1483.75" cy="-250" rx="180" ry="18"/>
<text text-anchor="middle" x="1483.75" y="-246.3" font-family="Times,serif" font-size="14.00">1190</text>
</g>
<!-- 00&#45;&gt;11 -->
<g id="edge2" class="edge">
<title>00&#45;&gt;11</title>
<path fill="none" stroke="black" d="M1305.8,-304.23C1340.03,-293.99 1383.92,-280.86 1419.55,-270.2"/>
<polygon fill="black" stroke="black" points="1420.79,-273.49 1429.37,-267.27 1418.78,-266.78 1420.79,-273.49"/>
</g>
<!-- 12 -->
<g id="node5" class="node">
<title>12</title>
<ellipse fill="#b9d3ee" stroke="black" cx="1249.75" cy="-250" rx="36" ry="18"/>
<text text-anchor="middle" x="1249.75" y="-246.3" font-family="Times,serif" font-size="14.00">395</text>
</g>
<!-- 00&#45;&gt;12 -->
<g id="edge3" class="edge">
<title>00&#45;&gt;12</title>
<path fill="none" stroke="black" d="M1249.75,-303.7C1249.75,-295.98 1249.75,-286.71 1249.75,-278.11"/>
<polygon fill="black" stroke="black" points="1253.25,-278.1 1249.75,-268.1 1246.25,-278.1 1253.25,-278.1"/>
</g>
<!-- legend_0 -->
<g id="node2" class="node">
<title>legend_0</title>
<polygon fill="#b9d3ee" stroke="black" points="2840.25,-340 2619.25,-340 2619.25,-304 2840.25,-304 2840.25,-340"/>
<text text-anchor="middle" x="2729.75" y="-318.3" font-family="Times,serif" font-size="14.00">DT=2 ST=2 Similarity=0.28</text>
</g>
<!-- legend_1 -->
<g id="node6" class="node">
<title>legend_1</title>
<polygon fill="#b9d3ee" stroke="black" points="2840.25,-268 2619.25,-268 2619.25,-232 2840.25,-232 2840.25,-268"/>
<text text-anchor="middle" x="2729.75" y="-246.3" font-family="Times,serif" font-size="14.00">DT=3 ST=1 Similarity=0.39</text>
</g>
<!-- legend_0&#45;&gt;legend_1 -->
<g id="edge4" class="edge">
<title>legend_0&#45;&gt;legend_1</title>
<path fill="none" stroke="black" d="M2729.75,-303.7C2729.75,-295.98 2729.75,-286.71 2729.75,-278.11"/>
<polygon fill="black" stroke="black" points="2733.25,-278.1 2729.75,-268.1 2726.25,-278.1 2733.25,-278.1"/>
</g>
<!-- 20 -->
<g id="node7" class="node">
<title>20</title>
<ellipse fill="#b9d3ee" stroke="black" cx="1027.75" cy="-178" rx="36" ry="18"/>
<text text-anchor="middle" x="1027.75" y="-174.3" font-family="Times,serif" font-size="14.00">415</text>
</g>
<!-- 10&#45;&gt;20 -->
<g id="edge5" class="edge">
<title>10&#45;&gt;20</title>
<path fill="none" stroke="black" d="M1097.09,-234.15C1084.63,-224.25 1068.08,-211.08 1054.27,-200.09"/>
<polygon fill="black" stroke="black" points="1056.09,-197.07 1046.08,-193.58 1051.73,-202.55 1056.09,-197.07"/>
</g>
<!-- 21 -->
<g id="node8" class="node">
<title>21</title>
<ellipse fill="#b9d3ee" stroke="black" cx="1319.75" cy="-178" rx="108" ry="18"/>
<text text-anchor="middle" x="1319.75" y="-174.3" font-family="Times,serif" font-size="14.00">785</text>
</g>
<!-- 11&#45;&gt;21 -->
<g id="edge6" class="edge">
<title>11&#45;&gt;21</title>
<path fill="none" stroke="black" d="M1444.88,-232.41C1421.36,-222.37 1391.23,-209.51 1366.43,-198.92"/>
<polygon fill="black" stroke="black" points="1367.78,-195.69 1357.21,-194.99 1365.03,-202.13 1367.78,-195.69"/>
</g>
<!-- 22 -->
<g id="node9" class="node">
<title>22</title>
<ellipse fill="#b9d3ee" stroke="black" cx="1895.75" cy="-178" rx="108" ry="18"/>
<text text-anchor="middle" x="1895.75" y="-174.3" font-family="Times,serif" font-size="14.00">800</text>
</g>
<!-- 11&#45;&gt;22 -->
<g id="edge8" class="edge">
<title>11&#45;&gt;22</title>
<path fill="none" stroke="black" d="M1570.87,-234.2C1642.22,-222.08 1742.5,-205.04 1812.71,-193.11"/>
<polygon fill="black" stroke="black" points="1813.57,-196.51 1822.85,-191.39 1812.4,-189.61 1813.57,-196.51"/>
</g>
<!-- 12&#45;&gt;21 -->
<g id="edge7" class="edge">
<title>12&#45;&gt;21</title>
<path fill="none" stroke="black" d="M1265.28,-233.46C1274.14,-224.61 1285.44,-213.31 1295.45,-203.3"/>
<polygon fill="black" stroke="black" points="1298.19,-205.51 1302.79,-195.96 1293.24,-200.56 1298.19,-205.51"/>
</g>
<!-- legend_2 -->
<g id="node10" class="node">
<title>legend_2</title>
<polygon fill="#b9d3ee" stroke="black" points="2840.25,-196 2619.25,-196 2619.25,-160 2840.25,-160 2840.25,-196"/>
<text text-anchor="middle" x="2729.75" y="-174.3" font-family="Times,serif" font-size="14.00">DT=4 ST=1 Similarity=0.57</text>
</g>
<!-- legend_1&#45;&gt;legend_2 -->
<g id="edge9" class="edge">
<title>legend_1&#45;&gt;legend_2</title>
<path fill="none" stroke="black" d="M2729.75,-231.7C2729.75,-223.98 2729.75,-214.71 2729.75,-206.11"/>
<polygon fill="black" stroke="black" points="2733.25,-206.1 2729.75,-196.1 2726.25,-206.1 2733.25,-206.1"/>
</g>
<!-- 33 -->
<g id="node14" class="node">
<title>33</title>
<polygon fill="darkseagreen" stroke="black" points="525.75,-124 453.75,-124 453.75,-88 525.75,-88 525.75,-124"/>
<text text-anchor="middle" x="489.75" y="-102.3" font-family="Times,serif" font-size="14.00">413</text>
</g>
<!-- 20&#45;&gt;33 -->
<g id="edge14" class="edge">
<title>20&#45;&gt;33</title>
<path fill="none" stroke="black" d="M993.28,-172.51C899.91,-160.37 642.05,-126.82 536.11,-113.03"/>
<polygon fill="black" stroke="black" points="536.41,-109.54 526.04,-111.72 535.51,-116.48 536.41,-109.54"/>
</g>
<!-- 36 -->
<g id="node17" class="node">
<title>36</title>
<polygon fill="darkseagreen" stroke="black" points="1045.25,-124 1010.25,-124 1010.25,-88 1045.25,-88 1045.25,-124"/>
<text text-anchor="middle" x="1027.75" y="-102.3" font-family="Times,serif" font-size="14.00">18</text>
</g>
<!-- 20&#45;&gt;36 -->
<g id="edge17" class="edge">
<title>20&#45;&gt;36</title>
<path fill="none" stroke="black" d="M1027.75,-159.7C1027.75,-151.98 1027.75,-142.71 1027.75,-134.11"/>
<polygon fill="black" stroke="black" points="1031.25,-134.1 1027.75,-124.1 1024.25,-134.1 1031.25,-134.1"/>
</g>
<!-- 30 -->
<g id="node11" class="node">
<title>30</title>
<polygon fill="darkseagreen" stroke="black" points="1737.25,-124 1702.25,-124 1702.25,-88 1737.25,-88 1737.25,-124"/>
<text text-anchor="middle" x="1719.75" y="-102.3" font-family="Times,serif" font-size="14.00">25</text>
</g>
<!-- 21&#45;&gt;30 -->
<g id="edge10" class="edge">
<title>21&#45;&gt;30</title>
<path fill="none" stroke="black" d="M1391.26,-164.49C1480.93,-148.79 1630.36,-122.64 1691.93,-111.87"/>
<polygon fill="black" stroke="black" points="1692.79,-115.27 1702.04,-110.1 1691.58,-108.38 1692.79,-115.27"/>
</g>
<!-- 35 -->
<g id="node16" class="node">
<title>35</title>
<polygon fill="darkseagreen" stroke="black" points="1427.75,-124 1211.75,-124 1211.75,-88 1427.75,-88 1427.75,-124"/>
<text text-anchor="middle" x="1319.75" y="-102.3" font-family="Times,serif" font-size="14.00">766</text>
</g>
<!-- 21&#45;&gt;35 -->
<g id="edge16" class="edge">
<title>21&#45;&gt;35</title>
<path fill="none" stroke="black" d="M1319.75,-159.7C1319.75,-151.98 1319.75,-142.71 1319.75,-134.11"/>
<polygon fill="black" stroke="black" points="1323.25,-134.1 1319.75,-124.1 1316.25,-134.1 1323.25,-134.1"/>
</g>
<!-- 21&#45;&gt;36 -->
<g id="edge18" class="edge">
<title>21&#45;&gt;36</title>
<path fill="none" stroke="black" d="M1260.66,-162.83C1198.07,-147.83 1101.97,-124.79 1055.21,-113.58"/>
<polygon fill="black" stroke="black" points="1056.02,-110.18 1045.48,-111.25 1054.39,-116.99 1056.02,-110.18"/>
</g>
<!-- 22&#45;&gt;30 -->
<g id="edge11" class="edge">
<title>22&#45;&gt;30</title>
<path fill="none" stroke="black" d="M1855.81,-161.12C1822.61,-147.91 1776.23,-129.46 1747.11,-117.88"/>
<polygon fill="black" stroke="black" points="1748.16,-114.53 1737.57,-114.09 1745.57,-121.04 1748.16,-114.53"/>
</g>
<!-- 31 -->
<g id="node12" class="node">
<title>31</title>
<polygon fill="darkseagreen" stroke="black" points="2512.25,-124 2477.25,-124 2477.25,-88 2512.25,-88 2512.25,-124"/>
<text text-anchor="middle" x="2494.75" y="-102.3" font-family="Times,serif" font-size="14.00">62</text>
</g>
<!-- 22&#45;&gt;31 -->
<g id="edge12" class="edge">
<title>22&#45;&gt;31</title>
<path fill="none" stroke="black" d="M1981.57,-166.97C2119,-150.91 2381.68,-120.21 2467.14,-110.23"/>
<polygon fill="black" stroke="black" points="2467.58,-113.7 2477.11,-109.06 2466.77,-106.75 2467.58,-113.7"/>
</g>
<!-- 32 -->
<g id="node13" class="node">
<title>32</title>
<polygon fill="darkseagreen" stroke="black" points="1931.75,-124 1859.75,-124 1859.75,-88 1931.75,-88 1931.75,-124"/>
<text text-anchor="middle" x="1895.75" y="-102.3" font-family="Times,serif" font-size="14.00">333</text>
</g>
<!-- 22&#45;&gt;32 -->
<g id="edge13" class="edge">
<title>22&#45;&gt;32</title>
<path fill="none" stroke="black" d="M1895.75,-159.7C1895.75,-151.98 1895.75,-142.71 1895.75,-134.11"/>
<polygon fill="black" stroke="black" points="1899.25,-134.1 1895.75,-124.1 1892.25,-134.1 1899.25,-134.1"/>
</g>
<!-- 34 -->
<g id="node15" class="node">
<title>34</title>
<polygon fill="darkseagreen" stroke="black" points="2194.75,-124 2122.75,-124 2122.75,-88 2194.75,-88 2194.75,-124"/>
<text text-anchor="middle" x="2158.75" y="-102.3" font-family="Times,serif" font-size="14.00">383</text>
</g>
<!-- 22&#45;&gt;34 -->
<g id="edge15" class="edge">
<title>22&#45;&gt;34</title>
<path fill="none" stroke="black" d="M1950.56,-162.41C1998.57,-149.63 2067.53,-131.28 2112.73,-119.25"/>
<polygon fill="black" stroke="black" points="2113.79,-122.59 2122.55,-116.63 2111.99,-115.82 2113.79,-122.59"/>
</g>
<!-- legend_3 -->
<g id="node18" class="node">
<title>legend_3</title>
<polygon fill="darkseagreen" stroke="black" points="2840.25,-124 2619.25,-124 2619.25,-88 2840.25,-88 2840.25,-124"/>
<text text-anchor="middle" x="2729.75" y="-102.3" font-family="Times,serif" font-size="14.00">DT=5 ST=1 Similarity=0.65</text>
</g>
<!-- legend_2&#45;&gt;legend_3 -->
<g id="edge19" class="edge">
<title>legend_2&#45;&gt;legend_3</title>
<path fill="none" stroke="black" d="M2729.75,-159.7C2729.75,-151.98 2729.75,-142.71 2729.75,-134.11"/>
<polygon fill="black" stroke="black" points="2733.25,-134.1 2729.75,-124.1 2726.25,-134.1 2733.25,-134.1"/>
</g>
<!-- 46 -->
<g id="node25" class="node">
<title>46</title>
<ellipse fill="#b9d3ee" stroke="black" cx="1808.75" cy="-34" rx="16.8" ry="18"/>
<text text-anchor="middle" x="1808.75" y="-30.3" font-family="Times,serif" font-size="14.00">1</text>
</g>
<!-- 30&#45;&gt;46 -->
<g id="edge26" class="edge">
<title>30&#45;&gt;46</title>
<path fill="none" stroke="black" d="M1737.33,-91.17C1751.78,-79.81 1772.29,-63.68 1787.63,-51.61"/>
<polygon fill="black" stroke="black" points="1789.85,-54.32 1795.54,-45.39 1785.52,-48.82 1789.85,-54.32"/>
</g>
<!-- 421 -->
<g id="node40" class="node">
<title>421</title>
<ellipse fill="#b9d3ee" stroke="black" cx="1629.75" cy="-34" rx="16.8" ry="18"/>
<text text-anchor="middle" x="1629.75" y="-30.3" font-family="Times,serif" font-size="14.00">3</text>
</g>
<!-- 30&#45;&gt;421 -->
<g id="edge41" class="edge">
<title>30&#45;&gt;421</title>
<path fill="none" stroke="black" d="M1701.97,-91.17C1687.36,-79.81 1666.62,-63.68 1651.11,-51.61"/>
<polygon fill="black" stroke="black" points="1653.14,-48.76 1643.1,-45.39 1648.85,-54.29 1653.14,-48.76"/>
</g>
<!-- 432 -->
<g id="node51" class="node">
<title>432</title>
<ellipse fill="#b9d3ee" stroke="black" cx="1687.75" cy="-34" rx="23" ry="18"/>
<text text-anchor="middle" x="1687.75" y="-30.3" font-family="Times,serif" font-size="14.00">10</text>
</g>
<!-- 30&#45;&gt;432 -->
<g id="edge52" class="edge">
<title>30&#45;&gt;432</title>
<path fill="none" stroke="black" d="M1711.84,-87.7C1708.09,-79.49 1703.53,-69.52 1699.39,-60.48"/>
<polygon fill="black" stroke="black" points="1702.47,-58.78 1695.13,-51.14 1696.1,-61.69 1702.47,-58.78"/>
</g>
<!-- 433 -->
<g id="node52" class="node">
<title>433</title>
<ellipse fill="#b9d3ee" stroke="black" cx="1750.75" cy="-34" rx="23" ry="18"/>
<text text-anchor="middle" x="1750.75" y="-30.3" font-family="Times,serif" font-size="14.00">11</text>
</g>
<!-- 30&#45;&gt;433 -->
<g id="edge53" class="edge">
<title>30&#45;&gt;433</title>
<path fill="none" stroke="black" d="M1727.41,-87.7C1731.05,-79.49 1735.46,-69.52 1739.47,-60.48"/>
<polygon fill="black" stroke="black" points="1742.75,-61.71 1743.6,-51.14 1736.35,-58.87 1742.75,-61.71"/>
</g>
<!-- 414 -->
<g id="node33" class="node">
<title>414</title>
<ellipse fill="#b9d3ee" stroke="black" cx="2468.75" cy="-34" rx="16.8" ry="18"/>
<text text-anchor="middle" x="2468.75" y="-30.3" font-family="Times,serif" font-size="14.00">2</text>
</g>
<!-- 31&#45;&gt;414 -->
<g id="edge34" class="edge">
<title>31&#45;&gt;414</title>
<path fill="none" stroke="black" d="M2488.32,-87.7C2485.31,-79.58 2481.65,-69.74 2478.32,-60.76"/>
<polygon fill="black" stroke="black" points="2481.51,-59.3 2474.74,-51.14 2474.95,-61.74 2481.51,-59.3"/>
</g>
<!-- 431 -->
<g id="node50" class="node">
<title>431</title>
<ellipse fill="#b9d3ee" stroke="black" cx="2520.75" cy="-34" rx="16.8" ry="18"/>
<text text-anchor="middle" x="2520.75" y="-30.3" font-family="Times,serif" font-size="14.00">9</text>
</g>
<!-- 31&#45;&gt;431 -->
<g id="edge51" class="edge">
<title>31&#45;&gt;431</title>
<path fill="none" stroke="black" d="M2501.17,-87.7C2504.19,-79.58 2507.85,-69.74 2511.18,-60.76"/>
<polygon fill="black" stroke="black" points="2514.55,-61.74 2514.75,-51.14 2507.99,-59.3 2514.55,-61.74"/>
</g>
<!-- 437 -->
<g id="node56" class="node">
<title>437</title>
<ellipse fill="#b9d3ee" stroke="black" cx="2578.75" cy="-34" rx="23" ry="18"/>
<text text-anchor="middle" x="2578.75" y="-30.3" font-family="Times,serif" font-size="14.00">51</text>
</g>
<!-- 31&#45;&gt;437 -->
<g id="edge57" class="edge">
<title>31&#45;&gt;437</title>
<path fill="none" stroke="black" d="M2512.56,-90.15C2525.09,-79.72 2541.96,-65.66 2555.54,-54.34"/>
<polygon fill="black" stroke="black" points="2558.05,-56.8 2563.49,-47.71 2553.57,-51.43 2558.05,-56.8"/>
</g>
<!-- 43 -->
<g id="node22" class="node">
<title>43</title>
<ellipse fill="#b9d3ee" stroke="black" cx="1860.75" cy="-34" rx="16.8" ry="18"/>
<text text-anchor="middle" x="1860.75" y="-30.3" font-family="Times,serif" font-size="14.00">1</text>
</g>
<!-- 32&#45;&gt;43 -->
<g id="edge23" class="edge">
<title>32&#45;&gt;43</title>
<path fill="none" stroke="black" d="M1887.1,-87.7C1882.83,-79.16 1877.61,-68.72 1872.95,-59.4"/>
<polygon fill="black" stroke="black" points="1875.95,-57.58 1868.35,-50.2 1869.69,-60.71 1875.95,-57.58"/>
</g>
<!-- 442 -->
<g id="node61" class="node">
<title>442</title>
<ellipse fill="#b9d3ee" stroke="black" cx="1931.75" cy="-34" rx="36" ry="18"/>
<text text-anchor="middle" x="1931.75" y="-30.3" font-family="Times,serif" font-size="14.00">332</text>
</g>
<!-- 32&#45;&gt;442 -->
<g id="edge62" class="edge">
<title>32&#45;&gt;442</title>
<path fill="none" stroke="black" d="M1904.65,-87.7C1908.85,-79.52 1913.95,-69.6 1918.59,-60.58"/>
<polygon fill="black" stroke="black" points="1921.74,-62.12 1923.2,-51.62 1915.51,-58.91 1921.74,-62.12"/>
</g>
<!-- 44 -->
<g id="node23" class="node">
<title>44</title>
<ellipse fill="#b9d3ee" stroke="black" cx="229.75" cy="-34" rx="16.8" ry="18"/>
<text text-anchor="middle" x="229.75" y="-30.3" font-family="Times,serif" font-size="14.00">1</text>
</g>
<!-- 33&#45;&gt;44 -->
<g id="edge24" class="edge">
<title>33&#45;&gt;44</title>
<path fill="none" stroke="black" d="M453.64,-100.88C406.6,-94.6 322.48,-80.28 255.75,-52 254.55,-51.49 253.34,-50.93 252.14,-50.32"/>
<polygon fill="black" stroke="black" points="253.67,-47.16 243.27,-45.14 250.14,-53.2 253.67,-47.16"/>
</g>
<!-- 45 -->
<g id="node24" class="node">
<title>45</title>
<ellipse fill="#b9d3ee" stroke="black" cx="281.75" cy="-34" rx="16.8" ry="18"/>
<text text-anchor="middle" x="281.75" y="-30.3" font-family="Times,serif" font-size="14.00">1</text>
</g>
<!-- 33&#45;&gt;45 -->
<g id="edge25" class="edge">
<title>33&#45;&gt;45</title>
<path fill="none" stroke="black" d="M453.74,-97.82C416.2,-89.59 356.18,-74.28 307.75,-52 306.56,-51.45 305.37,-50.86 304.18,-50.23"/>
<polygon fill="black" stroke="black" points="305.73,-47.08 295.34,-44.97 302.14,-53.09 305.73,-47.08"/>
</g>
<!-- 48 -->
<g id="node27" class="node">
<title>48</title>
<ellipse fill="#b9d3ee" stroke="black" cx="333.75" cy="-34" rx="16.8" ry="18"/>
<text text-anchor="middle" x="333.75" y="-30.3" font-family="Times,serif" font-size="14.00">1</text>
</g>
<!-- 33&#45;&gt;48 -->
<g id="edge28" class="edge">
<title>33&#45;&gt;48</title>
<path fill="none" stroke="black" d="M453.6,-92.39C427.04,-82.63 390.4,-68.08 359.75,-52 358.59,-51.39 357.42,-50.75 356.25,-50.08"/>
<polygon fill="black" stroke="black" points="357.83,-46.95 347.48,-44.68 354.16,-52.91 357.83,-46.95"/>
</g>
<!-- 49 -->
<g id="node28" class="node">
<title>49</title>
<ellipse fill="#b9d3ee" stroke="black" cx="385.75" cy="-34" rx="16.8" ry="18"/>
<text text-anchor="middle" x="385.75" y="-30.3" font-family="Times,serif" font-size="14.00">1</text>
</g>
<!-- 33&#45;&gt;49 -->
<g id="edge29" class="edge">
<title>33&#45;&gt;49</title>
<path fill="none" stroke="black" d="M464.31,-87.88C447.16,-76.33 424.74,-61.24 408.24,-50.14"/>
<polygon fill="black" stroke="black" points="410.01,-47.11 399.76,-44.43 406.1,-52.92 410.01,-47.11"/>
</g>
<!-- 410 -->
<g id="node29" class="node">
<title>410</title>
<ellipse fill="#b9d3ee" stroke="black" cx="437.75" cy="-34" rx="16.8" ry="18"/>
<text text-anchor="middle" x="437.75" y="-30.3" font-family="Times,serif" font-size="14.00">1</text>
</g>
<!-- 33&#45;&gt;410 -->
<g id="edge30" class="edge">
<title>33&#45;&gt;410</title>
<path fill="none" stroke="black" d="M476.89,-87.7C470.01,-78.43 461.45,-66.91 454.1,-57.01"/>
<polygon fill="black" stroke="black" points="456.79,-54.76 448.02,-48.82 451.17,-58.94 456.79,-54.76"/>
</g>
<!-- 411 -->
<g id="node30" class="node">
<title>411</title>
<ellipse fill="#b9d3ee" stroke="black" cx="489.75" cy="-34" rx="16.8" ry="18"/>
<text text-anchor="middle" x="489.75" y="-30.3" font-family="Times,serif" font-size="14.00">1</text>
</g>
<!-- 33&#45;&gt;411 -->
<g id="edge31" class="edge">
<title>33&#45;&gt;411</title>
<path fill="none" stroke="black" d="M489.75,-87.7C489.75,-79.98 489.75,-70.71 489.75,-62.11"/>
<polygon fill="black" stroke="black" points="493.25,-62.1 489.75,-52.1 486.25,-62.1 493.25,-62.1"/>
</g>
<!-- 412 -->
<g id="node31" class="node">
<title>412</title>
<ellipse fill="#b9d3ee" stroke="black" cx="541.75" cy="-34" rx="16.8" ry="18"/>
<text text-anchor="middle" x="541.75" y="-30.3" font-family="Times,serif" font-size="14.00">1</text>
</g>
<!-- 33&#45;&gt;412 -->
<g id="edge32" class="edge">
<title>33&#45;&gt;412</title>
<path fill="none" stroke="black" d="M502.6,-87.7C509.49,-78.43 518.04,-66.91 525.4,-57.01"/>
<polygon fill="black" stroke="black" points="528.32,-58.94 531.48,-48.82 522.71,-54.76 528.32,-58.94"/>
</g>
<!-- 417 -->
<g id="node36" class="node">
<title>417</title>
<ellipse fill="#b9d3ee" stroke="black" cx="593.75" cy="-34" rx="16.8" ry="18"/>
<text text-anchor="middle" x="593.75" y="-30.3" font-family="Times,serif" font-size="14.00">2</text>
</g>
<!-- 33&#45;&gt;417 -->
<g id="edge37" class="edge">
<title>33&#45;&gt;417</title>
<path fill="none" stroke="black" d="M515.19,-87.88C532.34,-76.33 554.76,-61.24 571.25,-50.14"/>
<polygon fill="black" stroke="black" points="573.4,-52.92 579.74,-44.43 569.49,-47.11 573.4,-52.92"/>
</g>
<!-- 418 -->
<g id="node37" class="node">
<title>418</title>
<ellipse fill="#b9d3ee" stroke="black" cx="645.75" cy="-34" rx="16.8" ry="18"/>
<text text-anchor="middle" x="645.75" y="-30.3" font-family="Times,serif" font-size="14.00">2</text>
</g>
<!-- 33&#45;&gt;418 -->
<g id="edge38" class="edge">
<title>33&#45;&gt;418</title>
<path fill="none" stroke="black" d="M525.89,-92.39C552.45,-82.63 589.1,-68.08 619.75,-52 620.9,-51.39 622.07,-50.75 623.24,-50.08"/>
<polygon fill="black" stroke="black" points="625.33,-52.91 632.01,-44.68 621.66,-46.95 625.33,-52.91"/>
</g>
<!-- 426 -->
<g id="node45" class="node">
<title>426</title>
<ellipse fill="#b9d3ee" stroke="black" cx="697.75" cy="-34" rx="16.8" ry="18"/>
<text text-anchor="middle" x="697.75" y="-30.3" font-family="Times,serif" font-size="14.00">6</text>
</g>
<!-- 33&#45;&gt;426 -->
<g id="edge46" class="edge">
<title>33&#45;&gt;426</title>
<path fill="none" stroke="black" d="M525.75,-97.82C563.3,-89.59 623.31,-74.28 671.75,-52 672.93,-51.45 674.13,-50.86 675.32,-50.23"/>
<polygon fill="black" stroke="black" points="677.35,-53.09 684.15,-44.97 673.77,-47.08 677.35,-53.09"/>
</g>
<!-- 427 -->
<g id="node46" class="node">
<title>427</title>
<ellipse fill="#b9d3ee" stroke="black" cx="749.75" cy="-34" rx="16.8" ry="18"/>
<text text-anchor="middle" x="749.75" y="-30.3" font-family="Times,serif" font-size="14.00">7</text>
</g>
<!-- 33&#45;&gt;427 -->
<g id="edge47" class="edge">
<title>33&#45;&gt;427</title>
<path fill="none" stroke="black" d="M525.85,-100.88C572.9,-94.6 657.02,-80.28 723.75,-52 724.95,-51.49 726.16,-50.93 727.35,-50.32"/>
<polygon fill="black" stroke="black" points="729.36,-53.2 736.23,-45.14 725.83,-47.16 729.36,-53.2"/>
</g>
<!-- 428 -->
<g id="node47" class="node">
<title>428</title>
<ellipse fill="#b9d3ee" stroke="black" cx="801.75" cy="-34" rx="16.8" ry="18"/>
<text text-anchor="middle" x="801.75" y="-30.3" font-family="Times,serif" font-size="14.00">7</text>
</g>
<!-- 33&#45;&gt;428 -->
<g id="edge48" class="edge">
<title>33&#45;&gt;428</title>
<path fill="none" stroke="black" d="M525.78,-102.88C581.28,-98.62 690.2,-86.28 775.75,-52 776.96,-51.51 778.17,-50.97 779.38,-50.38"/>
<polygon fill="black" stroke="black" points="781.36,-53.28 788.27,-45.25 777.86,-47.21 781.36,-53.28"/>
</g>
<!-- 435 -->
<g id="node54" class="node">
<title>435</title>
<ellipse fill="#b9d3ee" stroke="black" cx="859.75" cy="-34" rx="23" ry="18"/>
<text text-anchor="middle" x="859.75" y="-30.3" font-family="Times,serif" font-size="14.00">19</text>
</g>
<!-- 33&#45;&gt;435 -->
<g id="edge55" class="edge">
<title>33&#45;&gt;435</title>
<path fill="none" stroke="black" d="M526.2,-103.25C589.19,-99.35 721.82,-87.33 827.75,-52 829.43,-51.44 831.13,-50.8 832.82,-50.09"/>
<polygon fill="black" stroke="black" points="834.73,-53.06 842.28,-45.62 831.74,-46.73 834.73,-53.06"/>
</g>
<!-- 436 -->
<g id="node55" class="node">
<title>436</title>
<ellipse fill="#b9d3ee" stroke="black" cx="22.75" cy="-34" rx="23" ry="18"/>
<text text-anchor="middle" x="22.75" y="-30.3" font-family="Times,serif" font-size="14.00">20</text>
</g>
<!-- 33&#45;&gt;436 -->
<g id="edge56" class="edge">
<title>33&#45;&gt;436</title>
<path fill="none" stroke="black" d="M453.73,-105.18C377.85,-104.59 196.74,-98.01 53.75,-52 52.29,-51.53 50.82,-50.99 49.35,-50.4"/>
<polygon fill="black" stroke="black" points="50.46,-47.05 39.93,-45.92 47.46,-53.38 50.46,-47.05"/>
</g>
<!-- 439 -->
<g id="node58" class="node">
<title>439</title>
<ellipse fill="#b9d3ee" stroke="black" cx="91.75" cy="-34" rx="28.7" ry="18"/>
<text text-anchor="middle" x="91.75" y="-30.3" font-family="Times,serif" font-size="14.00">162</text>
</g>
<!-- 33&#45;&gt;439 -->
<g id="edge59" class="edge">
<title>33&#45;&gt;439</title>
<path fill="none" stroke="black" d="M453.67,-103.1C387.85,-98.9 244.44,-86.3 128.75,-52 126.82,-51.43 124.86,-50.77 122.9,-50.06"/>
<polygon fill="black" stroke="black" points="123.84,-46.66 113.26,-46.13 121.2,-53.15 123.84,-46.66"/>
</g>
<!-- 440 -->
<g id="node59" class="node">
<title>440</title>
<ellipse fill="#b9d3ee" stroke="black" cx="166.75" cy="-34" rx="28.7" ry="18"/>
<text text-anchor="middle" x="166.75" y="-30.3" font-family="Times,serif" font-size="14.00">181</text>
</g>
<!-- 33&#45;&gt;440 -->
<g id="edge60" class="edge">
<title>33&#45;&gt;440</title>
<path fill="none" stroke="black" d="M453.38,-101.18C398.36,-94.76 291.12,-79.69 203.75,-52 201.83,-51.39 199.88,-50.71 197.92,-49.97"/>
<polygon fill="black" stroke="black" points="198.88,-46.58 188.31,-45.99 196.2,-53.05 198.88,-46.58"/>
</g>
<!-- 47 -->
<g id="node26" class="node">
<title>47</title>
<ellipse fill="#b9d3ee" stroke="black" cx="2364.75" cy="-34" rx="16.8" ry="18"/>
<text text-anchor="middle" x="2364.75" y="-30.3" font-family="Times,serif" font-size="14.00">1</text>
</g>
<!-- 34&#45;&gt;47 -->
<g id="edge27" class="edge">
<title>34&#45;&gt;47</title>
<path fill="none" stroke="black" d="M2195.04,-97.61C2232.22,-89.29 2291.13,-73.99 2338.75,-52 2339.93,-51.45 2341.12,-50.86 2342.31,-50.23"/>
<polygon fill="black" stroke="black" points="2344.35,-53.09 2351.15,-44.96 2340.77,-47.07 2344.35,-53.09"/>
</g>
<!-- 415 -->
<g id="node34" class="node">
<title>415</title>
<ellipse fill="#b9d3ee" stroke="black" cx="2416.75" cy="-34" rx="16.8" ry="18"/>
<text text-anchor="middle" x="2416.75" y="-30.3" font-family="Times,serif" font-size="14.00">2</text>
</g>
<!-- 34&#45;&gt;415 -->
<g id="edge35" class="edge">
<title>34&#45;&gt;415</title>
<path fill="none" stroke="black" d="M2194.95,-100.77C2241.66,-94.41 2324.78,-80.04 2390.75,-52 2391.95,-51.49 2393.15,-50.92 2394.35,-50.32"/>
<polygon fill="black" stroke="black" points="2396.36,-53.2 2403.23,-45.13 2392.83,-47.16 2396.36,-53.2"/>
</g>
<!-- 422 -->
<g id="node41" class="node">
<title>422</title>
<ellipse fill="#b9d3ee" stroke="black" cx="2002.75" cy="-34" rx="16.8" ry="18"/>
<text text-anchor="middle" x="2002.75" y="-30.3" font-family="Times,serif" font-size="14.00">4</text>
</g>
<!-- 34&#45;&gt;422 -->
<g id="edge42" class="edge">
<title>34&#45;&gt;422</title>
<path fill="none" stroke="black" d="M2122.6,-92.39C2096.04,-82.63 2059.4,-68.08 2028.75,-52 2027.59,-51.39 2026.42,-50.75 2025.25,-50.08"/>
<polygon fill="black" stroke="black" points="2026.83,-46.95 2016.48,-44.68 2023.16,-52.91 2026.83,-46.95"/>
</g>
<!-- 423 -->
<g id="node42" class="node">
<title>423</title>
<ellipse fill="#b9d3ee" stroke="black" cx="2054.75" cy="-34" rx="16.8" ry="18"/>
<text text-anchor="middle" x="2054.75" y="-30.3" font-family="Times,serif" font-size="14.00">4</text>
</g>
<!-- 34&#45;&gt;423 -->
<g id="edge43" class="edge">
<title>34&#45;&gt;423</title>
<path fill="none" stroke="black" d="M2133.31,-87.88C2116.16,-76.33 2093.74,-61.24 2077.24,-50.14"/>
<polygon fill="black" stroke="black" points="2079.01,-47.11 2068.76,-44.43 2075.1,-52.92 2079.01,-47.11"/>
</g>
<!-- 425 -->
<g id="node44" class="node">
<title>425</title>
<ellipse fill="#b9d3ee" stroke="black" cx="2106.75" cy="-34" rx="16.8" ry="18"/>
<text text-anchor="middle" x="2106.75" y="-30.3" font-family="Times,serif" font-size="14.00">6</text>
</g>
<!-- 34&#45;&gt;425 -->
<g id="edge45" class="edge">
<title>34&#45;&gt;425</title>
<path fill="none" stroke="black" d="M2145.89,-87.7C2139.01,-78.43 2130.45,-66.91 2123.1,-57.01"/>
<polygon fill="black" stroke="black" points="2125.79,-54.76 2117.02,-48.82 2120.17,-58.94 2125.79,-54.76"/>
</g>
<!-- 430 -->
<g id="node49" class="node">
<title>430</title>
<ellipse fill="#b9d3ee" stroke="black" cx="2158.75" cy="-34" rx="16.8" ry="18"/>
<text text-anchor="middle" x="2158.75" y="-30.3" font-family="Times,serif" font-size="14.00">8</text>
</g>
<!-- 34&#45;&gt;430 -->
<g id="edge50" class="edge">
<title>34&#45;&gt;430</title>
<path fill="none" stroke="black" d="M2158.75,-87.7C2158.75,-79.98 2158.75,-70.71 2158.75,-62.11"/>
<polygon fill="black" stroke="black" points="2162.25,-62.1 2158.75,-52.1 2155.25,-62.1 2162.25,-62.1"/>
</g>
<!-- 438 -->
<g id="node57" class="node">
<title>438</title>
<ellipse fill="#b9d3ee" stroke="black" cx="2216.75" cy="-34" rx="23" ry="18"/>
<text text-anchor="middle" x="2216.75" y="-30.3" font-family="Times,serif" font-size="14.00">62</text>
</g>
<!-- 34&#45;&gt;438 -->
<g id="edge58" class="edge">
<title>34&#45;&gt;438</title>
<path fill="none" stroke="black" d="M2173.09,-87.7C2180.63,-78.59 2189.98,-67.31 2198.09,-57.52"/>
<polygon fill="black" stroke="black" points="2200.85,-59.67 2204.54,-49.74 2195.46,-55.21 2200.85,-59.67"/>
</g>
<!-- 441 -->
<g id="node60" class="node">
<title>441</title>
<ellipse fill="#b9d3ee" stroke="black" cx="2293.75" cy="-34" rx="36" ry="18"/>
<text text-anchor="middle" x="2293.75" y="-30.3" font-family="Times,serif" font-size="14.00">296</text>
</g>
<!-- 34&#45;&gt;441 -->
<g id="edge61" class="edge">
<title>34&#45;&gt;441</title>
<path fill="none" stroke="black" d="M2191.77,-87.88C2212.62,-77.07 2239.47,-63.14 2260.38,-52.3"/>
<polygon fill="black" stroke="black" points="2262.27,-55.27 2269.53,-47.56 2259.04,-49.05 2262.27,-55.27"/>
</g>
<!-- 40 -->
<g id="node19" class="node">
<title>40</title>
<ellipse fill="#b9d3ee" stroke="black" cx="1577.75" cy="-34" rx="16.8" ry="18"/>
<text text-anchor="middle" x="1577.75" y="-30.3" font-family="Times,serif" font-size="14.00">1</text>
</g>
<!-- 35&#45;&gt;40 -->
<g id="edge20" class="edge">
<title>35&#45;&gt;40</title>
<path fill="none" stroke="black" d="M1427.92,-88.55C1467.82,-80.36 1512.77,-68.56 1551.75,-52 1552.95,-51.49 1554.15,-50.92 1555.35,-50.32"/>
<polygon fill="black" stroke="black" points="1557.36,-53.2 1564.23,-45.13 1553.83,-47.16 1557.36,-53.2"/>
</g>
<!-- 41 -->
<g id="node20" class="node">
<title>41</title>
<ellipse fill="#b9d3ee" stroke="black" cx="1137.75" cy="-34" rx="16.8" ry="18"/>
<text text-anchor="middle" x="1137.75" y="-30.3" font-family="Times,serif" font-size="14.00">1</text>
</g>
<!-- 35&#45;&gt;41 -->
<g id="edge21" class="edge">
<title>35&#45;&gt;41</title>
<path fill="none" stroke="black" d="M1257.95,-87.94C1228.7,-78.88 1193.71,-66.59 1163.75,-52 1162.58,-51.43 1161.39,-50.81 1160.21,-50.17"/>
<polygon fill="black" stroke="black" points="1161.77,-47.02 1151.4,-44.85 1158.15,-53.01 1161.77,-47.02"/>
</g>
<!-- 42 -->
<g id="node21" class="node">
<title>42</title>
<ellipse fill="#b9d3ee" stroke="black" cx="1189.75" cy="-34" rx="16.8" ry="18"/>
<text text-anchor="middle" x="1189.75" y="-30.3" font-family="Times,serif" font-size="14.00">1</text>
</g>
<!-- 35&#45;&gt;42 -->
<g id="edge22" class="edge">
<title>35&#45;&gt;42</title>
<path fill="none" stroke="black" d="M1283.62,-87.78C1263.38,-77.84 1237.84,-64.8 1215.75,-52 1214.62,-51.35 1213.47,-50.66 1212.32,-49.96"/>
<polygon fill="black" stroke="black" points="1213.93,-46.84 1203.61,-44.46 1210.19,-52.76 1213.93,-46.84"/>
</g>
<!-- 420 -->
<g id="node39" class="node">
<title>420</title>
<ellipse fill="#b9d3ee" stroke="black" cx="1241.75" cy="-34" rx="16.8" ry="18"/>
<text text-anchor="middle" x="1241.75" y="-30.3" font-family="Times,serif" font-size="14.00">3</text>
</g>
<!-- 35&#45;&gt;420 -->
<g id="edge40" class="edge">
<title>35&#45;&gt;420</title>
<path fill="none" stroke="black" d="M1300.47,-87.7C1288.74,-77.17 1273.78,-63.75 1261.9,-53.08"/>
<polygon fill="black" stroke="black" points="1264.02,-50.28 1254.24,-46.21 1259.34,-55.49 1264.02,-50.28"/>
</g>
<!-- 424 -->
<g id="node43" class="node">
<title>424</title>
<ellipse fill="#b9d3ee" stroke="black" cx="1293.75" cy="-34" rx="16.8" ry="18"/>
<text text-anchor="middle" x="1293.75" y="-30.3" font-family="Times,serif" font-size="14.00">5</text>
</g>
<!-- 35&#45;&gt;424 -->
<g id="edge44" class="edge">
<title>35&#45;&gt;424</title>
<path fill="none" stroke="black" d="M1313.32,-87.7C1310.31,-79.58 1306.65,-69.74 1303.32,-60.76"/>
<polygon fill="black" stroke="black" points="1306.51,-59.3 1299.74,-51.14 1299.95,-61.74 1306.51,-59.3"/>
</g>
<!-- 429 -->
<g id="node48" class="node">
<title>429</title>
<ellipse fill="#b9d3ee" stroke="black" cx="1345.75" cy="-34" rx="16.8" ry="18"/>
<text text-anchor="middle" x="1345.75" y="-30.3" font-family="Times,serif" font-size="14.00">7</text>
</g>
<!-- 35&#45;&gt;429 -->
<g id="edge49" class="edge">
<title>35&#45;&gt;429</title>
<path fill="none" stroke="black" d="M1326.17,-87.7C1329.19,-79.58 1332.85,-69.74 1336.18,-60.76"/>
<polygon fill="black" stroke="black" points="1339.55,-61.74 1339.75,-51.14 1332.99,-59.3 1339.55,-61.74"/>
</g>
<!-- 443 -->
<g id="node62" class="node">
<title>443</title>
<ellipse fill="#b9d3ee" stroke="black" cx="1416.75" cy="-34" rx="36" ry="18"/>
<text text-anchor="middle" x="1416.75" y="-30.3" font-family="Times,serif" font-size="14.00">374</text>
</g>
<!-- 35&#45;&gt;443 -->
<g id="edge63" class="edge">
<title>35&#45;&gt;443</title>
<path fill="none" stroke="black" d="M1343.73,-87.7C1357.29,-77.91 1374.33,-65.61 1388.54,-55.36"/>
<polygon fill="black" stroke="black" points="1390.9,-57.97 1396.96,-49.28 1386.8,-52.29 1390.9,-57.97"/>
</g>
<!-- 444 -->
<g id="node63" class="node">
<title>444</title>
<ellipse fill="#b9d3ee" stroke="black" cx="1506.75" cy="-34" rx="36" ry="18"/>
<text text-anchor="middle" x="1506.75" y="-30.3" font-family="Times,serif" font-size="14.00">374</text>
</g>
<!-- 35&#45;&gt;444 -->
<g id="edge64" class="edge">
<title>35&#45;&gt;444</title>
<path fill="none" stroke="black" d="M1365.49,-87.98C1393.33,-77.61 1429.6,-64.07 1461.75,-52 1464.14,-51.1 1466.61,-50.17 1469.09,-49.24"/>
<polygon fill="black" stroke="black" points="1470.55,-52.43 1478.67,-45.63 1468.08,-45.88 1470.55,-52.43"/>
</g>
<!-- 413 -->
<g id="node32" class="node">
<title>413</title>
<ellipse fill="#b9d3ee" stroke="black" cx="1085.75" cy="-34" rx="16.8" ry="18"/>
<text text-anchor="middle" x="1085.75" y="-30.3" font-family="Times,serif" font-size="14.00">2</text>
</g>
<!-- 36&#45;&gt;413 -->
<g id="edge33" class="edge">
<title>36&#45;&gt;413</title>
<path fill="none" stroke="black" d="M1042.09,-87.7C1050.05,-78.08 1060.02,-66.05 1068.42,-55.91"/>
<polygon fill="black" stroke="black" points="1071.35,-57.86 1075.03,-47.93 1065.96,-53.4 1071.35,-57.86"/>
</g>
<!-- 416 -->
<g id="node35" class="node">
<title>416</title>
<ellipse fill="#b9d3ee" stroke="black" cx="917.75" cy="-34" rx="16.8" ry="18"/>
<text text-anchor="middle" x="917.75" y="-30.3" font-family="Times,serif" font-size="14.00">2</text>
</g>
<!-- 36&#45;&gt;416 -->
<g id="edge36" class="edge">
<title>36&#45;&gt;416</title>
<path fill="none" stroke="black" d="M1010,-93.92C992.96,-83.25 966.53,-66.63 943.75,-52 942.65,-51.3 941.53,-50.57 940.4,-49.84"/>
<polygon fill="black" stroke="black" points="942.05,-46.74 931.75,-44.22 938.23,-52.6 942.05,-46.74"/>
</g>
<!-- 419 -->
<g id="node38" class="node">
<title>419</title>
<ellipse fill="#b9d3ee" stroke="black" cx="969.75" cy="-34" rx="16.8" ry="18"/>
<text text-anchor="middle" x="969.75" y="-30.3" font-family="Times,serif" font-size="14.00">2</text>
</g>
<!-- 36&#45;&gt;419 -->
<g id="edge39" class="edge">
<title>36&#45;&gt;419</title>
<path fill="none" stroke="black" d="M1013.41,-87.7C1005.44,-78.08 995.47,-66.05 987.07,-55.91"/>
<polygon fill="black" stroke="black" points="989.54,-53.4 980.46,-47.93 984.15,-57.86 989.54,-53.4"/>
</g>
<!-- 434 -->
<g id="node53" class="node">
<title>434</title>
<ellipse fill="#b9d3ee" stroke="black" cx="1027.75" cy="-34" rx="23" ry="18"/>
<text text-anchor="middle" x="1027.75" y="-30.3" font-family="Times,serif" font-size="14.00">12</text>
</g>
<!-- 36&#45;&gt;434 -->
<g id="edge54" class="edge">
<title>36&#45;&gt;434</title>
<path fill="none" stroke="black" d="M1027.75,-87.7C1027.75,-79.98 1027.75,-70.71 1027.75,-62.11"/>
<polygon fill="black" stroke="black" points="1031.25,-62.1 1027.75,-52.1 1024.25,-62.1 1031.25,-62.1"/>
</g>
<!-- legend_4 -->
<g id="node64" class="node">
<title>legend_4</title>
<polygon fill="#b9d3ee" stroke="black" points="2840.25,-52 2619.25,-52 2619.25,-16 2840.25,-16 2840.25,-52"/>
<text text-anchor="middle" x="2729.75" y="-30.3" font-family="Times,serif" font-size="14.00">DT=6 ST=1 Similarity=0.56</text>
</g>
<!-- legend_3&#45;&gt;legend_4 -->
<g id="edge65" class="edge">
<title>legend_3&#45;&gt;legend_4</title>
<path fill="none" stroke="black" d="M2729.75,-87.7C2729.75,-79.98 2729.75,-70.71 2729.75,-62.11"/>
<polygon fill="black" stroke="black" points="2733.25,-62.1 2729.75,-52.1 2726.25,-62.1 2733.25,-62.1"/>
</g>
</g>
</svg>
