<?xml version="1.0" encoding="UTF-8" standalone="no"?>
<!DOCTYPE svg PUBLIC "-//W3C//DTD SVG 1.1//EN"
 "http://www.w3.org/Graphics/SVG/1.1/DTD/svg11.dtd">
<!-- Generated by graphviz version 2.43.0 (0)
 -->
<!-- Title: %3 Pages: 1 -->
<svg width="3115pt" height="497pt"
 viewBox="0.00 0.00 3114.90 497.00" xmlns="http://www.w3.org/2000/svg" xmlns:xlink="http://www.w3.org/1999/xlink">
<g id="graph0" class="graph" transform="scale(1 1) rotate(0) translate(4 493)">
<title>%3</title>
<polygon fill="white" stroke="transparent" points="-4,4 -4,-493 3110.9,-493 3110.9,4 -4,4"/>
<text text-anchor="middle" x="1553.45" y="-473.8" font-family="Times,serif" font-size="14.00">ConsTree</text>
<text text-anchor="middle" x="1553.45" y="-458.8" font-family="Times,serif" font-size="14.00">Tree Quality = 1</text>
<g id="clust1" class="cluster">
<title>cluster</title>
<polygon fill="none" stroke="black" points="2862.9,-8 2862.9,-443 3098.9,-443 3098.9,-8 2862.9,-8"/>
<text text-anchor="middle" x="2980.9" y="-427.8" font-family="Times,serif" font-size="14.00">Legend</text>
</g>
<!-- 00 -->
<g id="node1" class="node">
<title>00</title>
<ellipse fill="#b9d3ee" stroke="black" cx="1101.9" cy="-394" rx="108" ry="18"/>
<text text-anchor="middle" x="1101.9" y="-390.3" font-family="Times,serif" font-size="14.00">780</text>
</g>
<!-- 11 -->
<g id="node5" class="node">
<title>11</title>
<ellipse fill="#b9d3ee" stroke="black" cx="1101.9" cy="-322" rx="108" ry="18"/>
<text text-anchor="middle" x="1101.9" y="-318.3" font-family="Times,serif" font-size="14.00">800</text>
</g>
<!-- 00&#45;&gt;11 -->
<g id="edge2" class="edge">
<title>00&#45;&gt;11</title>
<path fill="none" stroke="black" d="M1101.9,-375.7C1101.9,-367.98 1101.9,-358.71 1101.9,-350.11"/>
<polygon fill="black" stroke="black" points="1105.4,-350.1 1101.9,-340.1 1098.4,-350.1 1105.4,-350.1"/>
</g>
<!-- 12 -->
<g id="node6" class="node">
<title>12</title>
<ellipse fill="#b9d3ee" stroke="black" cx="1335.9" cy="-322" rx="108" ry="18"/>
<text text-anchor="middle" x="1335.9" y="-318.3" font-family="Times,serif" font-size="14.00">764</text>
</g>
<!-- 00&#45;&gt;12 -->
<g id="edge4" class="edge">
<title>00&#45;&gt;12</title>
<path fill="none" stroke="black" d="M1152.1,-377.98C1188.34,-367.14 1237.44,-352.45 1275.78,-340.98"/>
<polygon fill="black" stroke="black" points="1277.21,-344.21 1285.78,-337.99 1275.2,-337.5 1277.21,-344.21"/>
</g>
<!-- 01 -->
<g id="node2" class="node">
<title>01</title>
<ellipse fill="#b9d3ee" stroke="black" cx="1407.9" cy="-394" rx="180" ry="18"/>
<text text-anchor="middle" x="1407.9" y="-390.3" font-family="Times,serif" font-size="14.00">1220</text>
</g>
<!-- 10 -->
<g id="node4" class="node">
<title>10</title>
<ellipse fill="#b9d3ee" stroke="black" cx="1497.9" cy="-322" rx="36" ry="18"/>
<text text-anchor="middle" x="1497.9" y="-318.3" font-family="Times,serif" font-size="14.00">436</text>
</g>
<!-- 01&#45;&gt;10 -->
<g id="edge1" class="edge">
<title>01&#45;&gt;10</title>
<path fill="none" stroke="black" d="M1429.68,-376.05C1442.06,-366.43 1457.66,-354.29 1470.82,-344.06"/>
<polygon fill="black" stroke="black" points="1473.31,-346.56 1479.06,-337.66 1469.01,-341.03 1473.31,-346.56"/>
</g>
<!-- 01&#45;&gt;11 -->
<g id="edge3" class="edge">
<title>01&#45;&gt;11</title>
<path fill="none" stroke="black" d="M1339.23,-377.29C1289.58,-365.93 1222.72,-350.64 1172.61,-339.18"/>
<polygon fill="black" stroke="black" points="1173.36,-335.76 1162.83,-336.94 1171.79,-342.58 1173.36,-335.76"/>
</g>
<!-- 01&#45;&gt;12 -->
<g id="edge5" class="edge">
<title>01&#45;&gt;12</title>
<path fill="none" stroke="black" d="M1390.47,-376.05C1381.45,-367.28 1370.29,-356.43 1360.41,-346.83"/>
<polygon fill="black" stroke="black" points="1362.78,-344.25 1353.17,-339.79 1357.9,-349.27 1362.78,-344.25"/>
</g>
<!-- legend_0 -->
<g id="node3" class="node">
<title>legend_0</title>
<polygon fill="#b9d3ee" stroke="black" points="3091.4,-412 2870.4,-412 2870.4,-376 3091.4,-376 3091.4,-412"/>
<text text-anchor="middle" x="2980.9" y="-390.3" font-family="Times,serif" font-size="14.00">DT=1 ST=1 Similarity=0.48</text>
</g>
<!-- legend_1 -->
<g id="node7" class="node">
<title>legend_1</title>
<polygon fill="#b9d3ee" stroke="black" points="3091.4,-340 2870.4,-340 2870.4,-304 3091.4,-304 3091.4,-340"/>
<text text-anchor="middle" x="2980.9" y="-318.3" font-family="Times,serif" font-size="14.00">DT=2 ST=1 Similarity=0.63</text>
</g>
<!-- legend_0&#45;&gt;legend_1 -->
<g id="edge6" class="edge">
<title>legend_0&#45;&gt;legend_1</title>
<path fill="none" stroke="black" d="M2980.9,-375.7C2980.9,-367.98 2980.9,-358.71 2980.9,-350.11"/>
<polygon fill="black" stroke="black" points="2984.4,-350.1 2980.9,-340.1 2977.4,-350.1 2984.4,-350.1"/>
</g>
<!-- 20 -->
<g id="node8" class="node">
<title>20</title>
<ellipse fill="#b9d3ee" stroke="black" cx="1493.9" cy="-250" rx="36" ry="18"/>
<text text-anchor="middle" x="1493.9" y="-246.3" font-family="Times,serif" font-size="14.00">419</text>
</g>
<!-- 10&#45;&gt;20 -->
<g id="edge7" class="edge">
<title>10&#45;&gt;20</title>
<path fill="none" stroke="black" d="M1496.91,-303.7C1496.47,-295.98 1495.94,-286.71 1495.45,-278.11"/>
<polygon fill="black" stroke="black" points="1498.94,-277.89 1494.88,-268.1 1491.95,-278.29 1498.94,-277.89"/>
</g>
<!-- 23 -->
<g id="node11" class="node">
<title>23</title>
<ellipse fill="#b9d3ee" stroke="black" cx="1839.9" cy="-250" rx="108" ry="18"/>
<text text-anchor="middle" x="1839.9" y="-246.3" font-family="Times,serif" font-size="14.00">781</text>
</g>
<!-- 10&#45;&gt;23 -->
<g id="edge12" class="edge">
<title>10&#45;&gt;23</title>
<path fill="none" stroke="black" d="M1530.69,-314.29C1584.18,-303.34 1691.57,-281.36 1764.6,-266.41"/>
<polygon fill="black" stroke="black" points="1765.57,-269.79 1774.67,-264.35 1764.17,-262.93 1765.57,-269.79"/>
</g>
<!-- 11&#45;&gt;20 -->
<g id="edge8" class="edge">
<title>11&#45;&gt;20</title>
<path fill="none" stroke="black" d="M1172.89,-308.32C1253.73,-293.89 1383.26,-270.76 1450.39,-258.77"/>
<polygon fill="black" stroke="black" points="1451.39,-262.15 1460.62,-256.94 1450.16,-255.26 1451.39,-262.15"/>
</g>
<!-- 21 -->
<g id="node9" class="node">
<title>21</title>
<ellipse fill="#b9d3ee" stroke="black" cx="1101.9" cy="-250" rx="36" ry="18"/>
<text text-anchor="middle" x="1101.9" y="-246.3" font-family="Times,serif" font-size="14.00">401</text>
</g>
<!-- 11&#45;&gt;21 -->
<g id="edge9" class="edge">
<title>11&#45;&gt;21</title>
<path fill="none" stroke="black" d="M1101.9,-303.7C1101.9,-295.98 1101.9,-286.71 1101.9,-278.11"/>
<polygon fill="black" stroke="black" points="1105.4,-278.1 1101.9,-268.1 1098.4,-278.1 1105.4,-278.1"/>
</g>
<!-- 22 -->
<g id="node10" class="node">
<title>22</title>
<ellipse fill="#b9d3ee" stroke="black" cx="918.9" cy="-250" rx="36" ry="18"/>
<text text-anchor="middle" x="918.9" y="-246.3" font-family="Times,serif" font-size="14.00">399</text>
</g>
<!-- 11&#45;&gt;22 -->
<g id="edge11" class="edge">
<title>11&#45;&gt;22</title>
<path fill="none" stroke="black" d="M1060.83,-305.29C1029.45,-293.29 986.56,-276.88 956.17,-265.26"/>
<polygon fill="black" stroke="black" points="957.36,-261.96 946.77,-261.66 954.86,-268.5 957.36,-261.96"/>
</g>
<!-- 12&#45;&gt;21 -->
<g id="edge10" class="edge">
<title>12&#45;&gt;21</title>
<path fill="none" stroke="black" d="M1285.7,-305.98C1242.62,-293.1 1181.36,-274.77 1141.62,-262.88"/>
<polygon fill="black" stroke="black" points="1142.59,-259.52 1132.01,-260.01 1140.58,-266.23 1142.59,-259.52"/>
</g>
<!-- 12&#45;&gt;23 -->
<g id="edge13" class="edge">
<title>12&#45;&gt;23</title>
<path fill="none" stroke="black" d="M1414.24,-309.53C1427.15,-307.66 1440.4,-305.76 1452.9,-304 1553.95,-289.74 1669.94,-273.93 1748.37,-263.32"/>
<polygon fill="black" stroke="black" points="1749.27,-266.73 1758.71,-261.92 1748.33,-259.79 1749.27,-266.73"/>
</g>
<!-- legend_2 -->
<g id="node12" class="node">
<title>legend_2</title>
<polygon fill="#b9d3ee" stroke="black" points="3091.4,-268 2870.4,-268 2870.4,-232 3091.4,-232 3091.4,-268"/>
<text text-anchor="middle" x="2980.9" y="-246.3" font-family="Times,serif" font-size="14.00">DT=3 ST=1 Similarity=0.67</text>
</g>
<!-- legend_1&#45;&gt;legend_2 -->
<g id="edge14" class="edge">
<title>legend_1&#45;&gt;legend_2</title>
<path fill="none" stroke="black" d="M2980.9,-303.7C2980.9,-295.98 2980.9,-286.71 2980.9,-278.11"/>
<polygon fill="black" stroke="black" points="2984.4,-278.1 2980.9,-268.1 2977.4,-278.1 2984.4,-278.1"/>
</g>
<!-- 31 -->
<g id="node14" class="node">
<title>31</title>
<polygon fill="darkseagreen" stroke="black" points="1529.9,-196 1457.9,-196 1457.9,-160 1529.9,-160 1529.9,-196"/>
<text text-anchor="middle" x="1493.9" y="-174.3" font-family="Times,serif" font-size="14.00">413</text>
</g>
<!-- 20&#45;&gt;31 -->
<g id="edge16" class="edge">
<title>20&#45;&gt;31</title>
<path fill="none" stroke="black" d="M1493.9,-231.7C1493.9,-223.98 1493.9,-214.71 1493.9,-206.11"/>
<polygon fill="black" stroke="black" points="1497.4,-206.1 1493.9,-196.1 1490.4,-206.1 1497.4,-206.1"/>
</g>
<!-- 32 -->
<g id="node15" class="node">
<title>32</title>
<polygon fill="darkseagreen" stroke="black" points="2058.9,-196 1986.9,-196 1986.9,-160 2058.9,-160 2058.9,-196"/>
<text text-anchor="middle" x="2022.9" y="-174.3" font-family="Times,serif" font-size="14.00">386</text>
</g>
<!-- 20&#45;&gt;32 -->
<g id="edge17" class="edge">
<title>20&#45;&gt;32</title>
<path fill="none" stroke="black" d="M1528.2,-244.46C1620.15,-232.29 1872.25,-198.94 1976.66,-185.12"/>
<polygon fill="black" stroke="black" points="1977.14,-188.59 1986.59,-183.8 1976.22,-181.65 1977.14,-188.59"/>
</g>
<!-- 34 -->
<g id="node17" class="node">
<title>34</title>
<polygon fill="darkseagreen" stroke="black" points="830.9,-196 758.9,-196 758.9,-160 830.9,-160 830.9,-196"/>
<text text-anchor="middle" x="794.9" y="-174.3" font-family="Times,serif" font-size="14.00">401</text>
</g>
<!-- 20&#45;&gt;34 -->
<g id="edge20" class="edge">
<title>20&#45;&gt;34</title>
<path fill="none" stroke="black" d="M1458.76,-245.48C1342.72,-233.86 971.76,-196.71 841.03,-183.62"/>
<polygon fill="black" stroke="black" points="841.25,-180.12 830.95,-182.61 840.55,-187.09 841.25,-180.12"/>
</g>
<!-- 30 -->
<g id="node13" class="node">
<title>30</title>
<polygon fill="darkseagreen" stroke="black" points="1137.9,-196 1065.9,-196 1065.9,-160 1137.9,-160 1137.9,-196"/>
<text text-anchor="middle" x="1101.9" y="-174.3" font-family="Times,serif" font-size="14.00">400</text>
</g>
<!-- 21&#45;&gt;30 -->
<g id="edge15" class="edge">
<title>21&#45;&gt;30</title>
<path fill="none" stroke="black" d="M1101.9,-231.7C1101.9,-223.98 1101.9,-214.71 1101.9,-206.11"/>
<polygon fill="black" stroke="black" points="1105.4,-206.1 1101.9,-196.1 1098.4,-206.1 1105.4,-206.1"/>
</g>
<!-- 21&#45;&gt;34 -->
<g id="edge21" class="edge">
<title>21&#45;&gt;34</title>
<path fill="none" stroke="black" d="M1069.91,-241.71C1015.36,-229.27 904.12,-203.9 841.12,-189.54"/>
<polygon fill="black" stroke="black" points="841.59,-186.06 831.06,-187.25 840.03,-192.88 841.59,-186.06"/>
</g>
<!-- 22&#45;&gt;34 -->
<g id="edge22" class="edge">
<title>22&#45;&gt;34</title>
<path fill="none" stroke="black" d="M895.87,-236C878.54,-226.22 854.38,-212.58 834.04,-201.1"/>
<polygon fill="black" stroke="black" points="835.73,-198.03 825.3,-196.16 832.29,-204.13 835.73,-198.03"/>
</g>
<!-- 23&#45;&gt;32 -->
<g id="edge18" class="edge">
<title>23&#45;&gt;32</title>
<path fill="none" stroke="black" d="M1880.97,-233.29C1909.47,-222.39 1947.45,-207.86 1976.96,-196.57"/>
<polygon fill="black" stroke="black" points="1978.52,-199.72 1986.61,-192.88 1976.02,-193.18 1978.52,-199.72"/>
</g>
<!-- 33 -->
<g id="node16" class="node">
<title>33</title>
<polygon fill="darkseagreen" stroke="black" points="2392.9,-196 2320.9,-196 2320.9,-160 2392.9,-160 2392.9,-196"/>
<text text-anchor="middle" x="2356.9" y="-174.3" font-family="Times,serif" font-size="14.00">400</text>
</g>
<!-- 23&#45;&gt;33 -->
<g id="edge19" class="edge">
<title>23&#45;&gt;33</title>
<path fill="none" stroke="black" d="M1920.96,-238.02C2030.72,-223.16 2222.94,-197.14 2310.76,-185.25"/>
<polygon fill="black" stroke="black" points="2311.25,-188.71 2320.69,-183.9 2310.31,-181.78 2311.25,-188.71"/>
</g>
<!-- legend_3 -->
<g id="node18" class="node">
<title>legend_3</title>
<polygon fill="darkseagreen" stroke="black" points="3091.4,-196 2870.4,-196 2870.4,-160 3091.4,-160 3091.4,-196"/>
<text text-anchor="middle" x="2980.9" y="-174.3" font-family="Times,serif" font-size="14.00">DT=4 ST=1 Similarity=0.69</text>
</g>
<!-- legend_2&#45;&gt;legend_3 -->
<g id="edge23" class="edge">
<title>legend_2&#45;&gt;legend_3</title>
<path fill="none" stroke="black" d="M2980.9,-231.7C2980.9,-223.98 2980.9,-214.71 2980.9,-206.11"/>
<polygon fill="black" stroke="black" points="2984.4,-206.1 2980.9,-196.1 2977.4,-206.1 2984.4,-206.1"/>
</g>
<!-- 40 -->
<g id="node19" class="node">
<title>40</title>
<ellipse fill="#b9d3ee" stroke="black" cx="981.9" cy="-106" rx="16.8" ry="18"/>
<text text-anchor="middle" x="981.9" y="-102.3" font-family="Times,serif" font-size="14.00">3</text>
</g>
<!-- 30&#45;&gt;40 -->
<g id="edge24" class="edge">
<title>30&#45;&gt;40</title>
<path fill="none" stroke="black" d="M1072.54,-159.88C1051.79,-147.77 1024.36,-131.77 1005.13,-120.55"/>
<polygon fill="black" stroke="black" points="1006.81,-117.48 996.41,-115.46 1003.28,-123.53 1006.81,-117.48"/>
</g>
<!-- 48 -->
<g id="node27" class="node">
<title>48</title>
<ellipse fill="#b9d3ee" stroke="black" cx="1135.9" cy="-106" rx="36" ry="18"/>
<text text-anchor="middle" x="1135.9" y="-102.3" font-family="Times,serif" font-size="14.00">397</text>
</g>
<!-- 30&#45;&gt;48 -->
<g id="edge32" class="edge">
<title>30&#45;&gt;48</title>
<path fill="none" stroke="black" d="M1110.3,-159.7C1114.23,-151.61 1118.99,-141.81 1123.33,-132.87"/>
<polygon fill="black" stroke="black" points="1126.6,-134.15 1127.82,-123.62 1120.31,-131.09 1126.6,-134.15"/>
</g>
<!-- 45 -->
<g id="node24" class="node">
<title>45</title>
<ellipse fill="#b9d3ee" stroke="black" cx="1476.9" cy="-106" rx="23" ry="18"/>
<text text-anchor="middle" x="1476.9" y="-102.3" font-family="Times,serif" font-size="14.00">66</text>
</g>
<!-- 31&#45;&gt;45 -->
<g id="edge29" class="edge">
<title>31&#45;&gt;45</title>
<path fill="none" stroke="black" d="M1489.7,-159.7C1487.8,-151.9 1485.52,-142.51 1483.41,-133.83"/>
<polygon fill="black" stroke="black" points="1486.81,-133 1481.05,-124.1 1480.01,-134.65 1486.81,-133"/>
</g>
<!-- 46 -->
<g id="node25" class="node">
<title>46</title>
<ellipse fill="#b9d3ee" stroke="black" cx="1690.9" cy="-106" rx="36" ry="18"/>
<text text-anchor="middle" x="1690.9" y="-102.3" font-family="Times,serif" font-size="14.00">347</text>
</g>
<!-- 31&#45;&gt;46 -->
<g id="edge30" class="edge">
<title>31&#45;&gt;46</title>
<path fill="none" stroke="black" d="M1530.03,-164.16C1564.86,-151.79 1617.35,-133.13 1652.82,-120.53"/>
<polygon fill="black" stroke="black" points="1654.09,-123.79 1662.34,-117.15 1651.75,-117.2 1654.09,-123.79"/>
</g>
<!-- 44 -->
<g id="node23" class="node">
<title>44</title>
<ellipse fill="#b9d3ee" stroke="black" cx="2022.9" cy="-106" rx="23" ry="18"/>
<text text-anchor="middle" x="2022.9" y="-102.3" font-family="Times,serif" font-size="14.00">29</text>
</g>
<!-- 32&#45;&gt;44 -->
<g id="edge28" class="edge">
<title>32&#45;&gt;44</title>
<path fill="none" stroke="black" d="M2022.9,-159.7C2022.9,-151.98 2022.9,-142.71 2022.9,-134.11"/>
<polygon fill="black" stroke="black" points="2026.4,-134.1 2022.9,-124.1 2019.4,-134.1 2026.4,-134.1"/>
</g>
<!-- 47 -->
<g id="node26" class="node">
<title>47</title>
<ellipse fill="#b9d3ee" stroke="black" cx="2221.9" cy="-106" rx="36" ry="18"/>
<text text-anchor="middle" x="2221.9" y="-102.3" font-family="Times,serif" font-size="14.00">342</text>
</g>
<!-- 32&#45;&gt;47 -->
<g id="edge31" class="edge">
<title>32&#45;&gt;47</title>
<path fill="none" stroke="black" d="M2058.94,-164.32C2094.15,-151.94 2147.58,-133.14 2183.56,-120.48"/>
<polygon fill="black" stroke="black" points="2184.95,-123.71 2193.22,-117.09 2182.63,-117.1 2184.95,-123.71"/>
</g>
<!-- 410 -->
<g id="node29" class="node">
<title>410</title>
<ellipse fill="#b9d3ee" stroke="black" cx="2575.9" cy="-106" rx="36" ry="18"/>
<text text-anchor="middle" x="2575.9" y="-102.3" font-family="Times,serif" font-size="14.00">415</text>
</g>
<!-- 32&#45;&gt;410 -->
<g id="edge34" class="edge">
<title>32&#45;&gt;410</title>
<path fill="none" stroke="black" d="M2059.18,-172.41C2156.73,-160.06 2424.46,-126.17 2531.16,-112.66"/>
<polygon fill="black" stroke="black" points="2531.79,-116.11 2541.27,-111.38 2530.91,-109.17 2531.79,-116.11"/>
</g>
<!-- 33&#45;&gt;410 -->
<g id="edge35" class="edge">
<title>33&#45;&gt;410</title>
<path fill="none" stroke="black" d="M2393.06,-165.44C2432.68,-152.78 2496,-132.54 2536.76,-119.51"/>
<polygon fill="black" stroke="black" points="2537.9,-122.82 2546.36,-116.44 2535.77,-116.15 2537.9,-122.82"/>
</g>
<!-- 41 -->
<g id="node20" class="node">
<title>41</title>
<ellipse fill="#b9d3ee" stroke="black" cx="794.9" cy="-106" rx="16.8" ry="18"/>
<text text-anchor="middle" x="794.9" y="-102.3" font-family="Times,serif" font-size="14.00">3</text>
</g>
<!-- 34&#45;&gt;41 -->
<g id="edge25" class="edge">
<title>34&#45;&gt;41</title>
<path fill="none" stroke="black" d="M794.9,-159.7C794.9,-151.98 794.9,-142.71 794.9,-134.11"/>
<polygon fill="black" stroke="black" points="798.4,-134.1 794.9,-124.1 791.4,-134.1 798.4,-134.1"/>
</g>
<!-- 42 -->
<g id="node21" class="node">
<title>42</title>
<ellipse fill="#b9d3ee" stroke="black" cx="120.9" cy="-106" rx="16.8" ry="18"/>
<text text-anchor="middle" x="120.9" y="-102.3" font-family="Times,serif" font-size="14.00">5</text>
</g>
<!-- 34&#45;&gt;42 -->
<g id="edge26" class="edge">
<title>34&#45;&gt;42</title>
<path fill="none" stroke="black" d="M758.66,-173.24C638.24,-160.73 253.1,-120.73 147.75,-109.79"/>
<polygon fill="black" stroke="black" points="147.95,-106.29 137.64,-108.74 147.23,-113.25 147.95,-106.29"/>
</g>
<!-- 43 -->
<g id="node22" class="node">
<title>43</title>
<ellipse fill="#b9d3ee" stroke="black" cx="380.9" cy="-106" rx="23" ry="18"/>
<text text-anchor="middle" x="380.9" y="-102.3" font-family="Times,serif" font-size="14.00">20</text>
</g>
<!-- 34&#45;&gt;43 -->
<g id="edge27" class="edge">
<title>34&#45;&gt;43</title>
<path fill="none" stroke="black" d="M758.88,-170.91C679.22,-157.44 489.12,-125.3 413.11,-112.45"/>
<polygon fill="black" stroke="black" points="413.61,-108.98 403.17,-110.77 412.44,-115.88 413.61,-108.98"/>
</g>
<!-- 49 -->
<g id="node28" class="node">
<title>49</title>
<ellipse fill="#b9d3ee" stroke="black" cx="635.9" cy="-106" rx="36" ry="18"/>
<text text-anchor="middle" x="635.9" y="-102.3" font-family="Times,serif" font-size="14.00">373</text>
</g>
<!-- 34&#45;&gt;49 -->
<g id="edge33" class="edge">
<title>34&#45;&gt;49</title>
<path fill="none" stroke="black" d="M758.82,-161.12C732.66,-149.6 697.45,-134.1 671.42,-122.64"/>
<polygon fill="black" stroke="black" points="672.49,-119.29 661.93,-118.46 669.67,-125.69 672.49,-119.29"/>
</g>
<!-- legend_4 -->
<g id="node30" class="node">
<title>legend_4</title>
<polygon fill="#b9d3ee" stroke="black" points="3091.4,-124 2870.4,-124 2870.4,-88 3091.4,-88 3091.4,-124"/>
<text text-anchor="middle" x="2980.9" y="-102.3" font-family="Times,serif" font-size="14.00">DT=5 ST=1 Similarity=0.65</text>
</g>
<!-- legend_3&#45;&gt;legend_4 -->
<g id="edge36" class="edge">
<title>legend_3&#45;&gt;legend_4</title>
<path fill="none" stroke="black" d="M2980.9,-159.7C2980.9,-151.98 2980.9,-142.71 2980.9,-134.11"/>
<polygon fill="black" stroke="black" points="2984.4,-134.1 2980.9,-124.1 2977.4,-134.1 2984.4,-134.1"/>
</g>
<!-- 523 -->
<g id="node54" class="node">
<title>523</title>
<ellipse fill="#b9d3ee" stroke="black" cx="898.9" cy="-34" rx="16.8" ry="18"/>
<text text-anchor="middle" x="898.9" y="-30.3" font-family="Times,serif" font-size="14.00">3</text>
</g>
<!-- 40&#45;&gt;523 -->
<g id="edge60" class="edge">
<title>40&#45;&gt;523</title>
<path fill="none" stroke="black" d="M968.93,-94.06C955.77,-82.97 935.2,-65.62 919.75,-52.59"/>
<polygon fill="black" stroke="black" points="921.68,-49.63 911.78,-45.86 917.16,-54.98 921.68,-49.63"/>
</g>
<!-- 51 -->
<g id="node32" class="node">
<title>51</title>
<ellipse fill="#b9d3ee" stroke="black" cx="846.9" cy="-34" rx="16.8" ry="18"/>
<text text-anchor="middle" x="846.9" y="-30.3" font-family="Times,serif" font-size="14.00">1</text>
</g>
<!-- 41&#45;&gt;51 -->
<g id="edge38" class="edge">
<title>41&#45;&gt;51</title>
<path fill="none" stroke="black" d="M804.92,-91.5C812.17,-81.75 822.11,-68.37 830.5,-57.07"/>
<polygon fill="black" stroke="black" points="833.39,-59.05 836.55,-48.93 827.77,-54.87 833.39,-59.05"/>
</g>
<!-- 53 -->
<g id="node34" class="node">
<title>53</title>
<ellipse fill="#b9d3ee" stroke="black" cx="742.9" cy="-34" rx="16.8" ry="18"/>
<text text-anchor="middle" x="742.9" y="-30.3" font-family="Times,serif" font-size="14.00">1</text>
</g>
<!-- 41&#45;&gt;53 -->
<g id="edge40" class="edge">
<title>41&#45;&gt;53</title>
<path fill="none" stroke="black" d="M784.87,-91.5C777.63,-81.75 767.68,-68.37 759.29,-57.07"/>
<polygon fill="black" stroke="black" points="762.02,-54.87 753.25,-48.93 756.4,-59.05 762.02,-54.87"/>
</g>
<!-- 54 -->
<g id="node35" class="node">
<title>54</title>
<ellipse fill="#b9d3ee" stroke="black" cx="794.9" cy="-34" rx="16.8" ry="18"/>
<text text-anchor="middle" x="794.9" y="-30.3" font-family="Times,serif" font-size="14.00">1</text>
</g>
<!-- 41&#45;&gt;54 -->
<g id="edge41" class="edge">
<title>41&#45;&gt;54</title>
<path fill="none" stroke="black" d="M794.9,-87.7C794.9,-79.98 794.9,-70.71 794.9,-62.11"/>
<polygon fill="black" stroke="black" points="798.4,-62.1 794.9,-52.1 791.4,-62.1 798.4,-62.1"/>
</g>
<!-- 50 -->
<g id="node31" class="node">
<title>50</title>
<ellipse fill="#b9d3ee" stroke="black" cx="120.9" cy="-34" rx="16.8" ry="18"/>
<text text-anchor="middle" x="120.9" y="-30.3" font-family="Times,serif" font-size="14.00">1</text>
</g>
<!-- 42&#45;&gt;50 -->
<g id="edge37" class="edge">
<title>42&#45;&gt;50</title>
<path fill="none" stroke="black" d="M120.9,-87.7C120.9,-79.98 120.9,-70.71 120.9,-62.11"/>
<polygon fill="black" stroke="black" points="124.4,-62.1 120.9,-52.1 117.4,-62.1 124.4,-62.1"/>
</g>
<!-- 510 -->
<g id="node41" class="node">
<title>510</title>
<ellipse fill="#b9d3ee" stroke="black" cx="172.9" cy="-34" rx="16.8" ry="18"/>
<text text-anchor="middle" x="172.9" y="-30.3" font-family="Times,serif" font-size="14.00">1</text>
</g>
<!-- 42&#45;&gt;510 -->
<g id="edge47" class="edge">
<title>42&#45;&gt;510</title>
<path fill="none" stroke="black" d="M130.92,-91.5C138.17,-81.75 148.11,-68.37 156.5,-57.07"/>
<polygon fill="black" stroke="black" points="159.39,-59.05 162.55,-48.93 153.77,-54.87 159.39,-59.05"/>
</g>
<!-- 511 -->
<g id="node42" class="node">
<title>511</title>
<ellipse fill="#b9d3ee" stroke="black" cx="16.9" cy="-34" rx="16.8" ry="18"/>
<text text-anchor="middle" x="16.9" y="-30.3" font-family="Times,serif" font-size="14.00">1</text>
</g>
<!-- 42&#45;&gt;511 -->
<g id="edge48" class="edge">
<title>42&#45;&gt;511</title>
<path fill="none" stroke="black" d="M106.87,-95.56C89.58,-83.92 59.98,-63.99 39.47,-50.19"/>
<polygon fill="black" stroke="black" points="41.28,-47.19 31.03,-44.51 37.38,-53 41.28,-47.19"/>
</g>
<!-- 518 -->
<g id="node49" class="node">
<title>518</title>
<ellipse fill="#b9d3ee" stroke="black" cx="68.9" cy="-34" rx="16.8" ry="18"/>
<text text-anchor="middle" x="68.9" y="-30.3" font-family="Times,serif" font-size="14.00">2</text>
</g>
<!-- 42&#45;&gt;518 -->
<g id="edge55" class="edge">
<title>42&#45;&gt;518</title>
<path fill="none" stroke="black" d="M110.87,-91.5C103.63,-81.75 93.68,-68.37 85.29,-57.07"/>
<polygon fill="black" stroke="black" points="88.02,-54.87 79.25,-48.93 82.4,-59.05 88.02,-54.87"/>
</g>
<!-- 52 -->
<g id="node33" class="node">
<title>52</title>
<ellipse fill="#b9d3ee" stroke="black" cx="224.9" cy="-34" rx="16.8" ry="18"/>
<text text-anchor="middle" x="224.9" y="-30.3" font-family="Times,serif" font-size="14.00">1</text>
</g>
<!-- 43&#45;&gt;52 -->
<g id="edge39" class="edge">
<title>43&#45;&gt;52</title>
<path fill="none" stroke="black" d="M360.09,-97.92C333.95,-88.7 288.02,-71.47 250.9,-52 249.74,-51.39 248.57,-50.75 247.4,-50.08"/>
<polygon fill="black" stroke="black" points="248.98,-46.95 238.63,-44.68 245.31,-52.91 248.98,-46.95"/>
</g>
<!-- 515 -->
<g id="node46" class="node">
<title>515</title>
<ellipse fill="#b9d3ee" stroke="black" cx="276.9" cy="-34" rx="16.8" ry="18"/>
<text text-anchor="middle" x="276.9" y="-30.3" font-family="Times,serif" font-size="14.00">1</text>
</g>
<!-- 43&#45;&gt;515 -->
<g id="edge52" class="edge">
<title>43&#45;&gt;515</title>
<path fill="none" stroke="black" d="M364.19,-93.75C346.56,-81.89 318.69,-63.13 299.2,-50.01"/>
<polygon fill="black" stroke="black" points="301.15,-47.1 290.9,-44.42 297.24,-52.91 301.15,-47.1"/>
</g>
<!-- 516 -->
<g id="node47" class="node">
<title>516</title>
<ellipse fill="#b9d3ee" stroke="black" cx="328.9" cy="-34" rx="16.8" ry="18"/>
<text text-anchor="middle" x="328.9" y="-30.3" font-family="Times,serif" font-size="14.00">1</text>
</g>
<!-- 43&#45;&gt;516 -->
<g id="edge53" class="edge">
<title>43&#45;&gt;516</title>
<path fill="none" stroke="black" d="M369.87,-90.15C362.72,-80.53 353.28,-67.82 345.26,-57.02"/>
<polygon fill="black" stroke="black" points="347.98,-54.81 339.2,-48.87 342.36,-58.99 347.98,-54.81"/>
</g>
<!-- 520 -->
<g id="node51" class="node">
<title>520</title>
<ellipse fill="#b9d3ee" stroke="black" cx="380.9" cy="-34" rx="16.8" ry="18"/>
<text text-anchor="middle" x="380.9" y="-30.3" font-family="Times,serif" font-size="14.00">2</text>
</g>
<!-- 43&#45;&gt;520 -->
<g id="edge57" class="edge">
<title>43&#45;&gt;520</title>
<path fill="none" stroke="black" d="M380.9,-87.7C380.9,-79.98 380.9,-70.71 380.9,-62.11"/>
<polygon fill="black" stroke="black" points="384.4,-62.1 380.9,-52.1 377.4,-62.1 384.4,-62.1"/>
</g>
<!-- 521 -->
<g id="node52" class="node">
<title>521</title>
<ellipse fill="#b9d3ee" stroke="black" cx="432.9" cy="-34" rx="16.8" ry="18"/>
<text text-anchor="middle" x="432.9" y="-30.3" font-family="Times,serif" font-size="14.00">2</text>
</g>
<!-- 43&#45;&gt;521 -->
<g id="edge58" class="edge">
<title>43&#45;&gt;521</title>
<path fill="none" stroke="black" d="M391.93,-90.15C399.08,-80.53 408.52,-67.82 416.54,-57.02"/>
<polygon fill="black" stroke="black" points="419.44,-58.99 422.59,-48.87 413.82,-54.81 419.44,-58.99"/>
</g>
<!-- 533 -->
<g id="node64" class="node">
<title>533</title>
<ellipse fill="#b9d3ee" stroke="black" cx="490.9" cy="-34" rx="23" ry="18"/>
<text text-anchor="middle" x="490.9" y="-30.3" font-family="Times,serif" font-size="14.00">13</text>
</g>
<!-- 43&#45;&gt;533 -->
<g id="edge70" class="edge">
<title>43&#45;&gt;533</title>
<path fill="none" stroke="black" d="M398.09,-94.06C415.98,-82.67 444.23,-64.7 464.87,-51.57"/>
<polygon fill="black" stroke="black" points="466.91,-54.41 473.47,-46.09 463.15,-48.51 466.91,-54.41"/>
</g>
<!-- 55 -->
<g id="node36" class="node">
<title>55</title>
<ellipse fill="#b9d3ee" stroke="black" cx="1892.9" cy="-34" rx="16.8" ry="18"/>
<text text-anchor="middle" x="1892.9" y="-30.3" font-family="Times,serif" font-size="14.00">1</text>
</g>
<!-- 44&#45;&gt;55 -->
<g id="edge42" class="edge">
<title>44&#45;&gt;55</title>
<path fill="none" stroke="black" d="M2003.78,-96.03C1982.67,-85.94 1947.83,-68.76 1918.9,-52 1917.77,-51.35 1916.62,-50.66 1915.47,-49.96"/>
<polygon fill="black" stroke="black" points="1917.08,-46.84 1906.76,-44.46 1913.34,-52.76 1917.08,-46.84"/>
</g>
<!-- 56 -->
<g id="node37" class="node">
<title>56</title>
<ellipse fill="#b9d3ee" stroke="black" cx="1944.9" cy="-34" rx="16.8" ry="18"/>
<text text-anchor="middle" x="1944.9" y="-30.3" font-family="Times,serif" font-size="14.00">1</text>
</g>
<!-- 44&#45;&gt;56 -->
<g id="edge43" class="edge">
<title>44&#45;&gt;56</title>
<path fill="none" stroke="black" d="M2008.23,-91.83C1996.09,-80.94 1978.73,-65.36 1965.25,-53.27"/>
<polygon fill="black" stroke="black" points="1967.22,-50.33 1957.44,-46.26 1962.55,-55.54 1967.22,-50.33"/>
</g>
<!-- 513 -->
<g id="node44" class="node">
<title>513</title>
<ellipse fill="#b9d3ee" stroke="black" cx="1996.9" cy="-34" rx="16.8" ry="18"/>
<text text-anchor="middle" x="1996.9" y="-30.3" font-family="Times,serif" font-size="14.00">1</text>
</g>
<!-- 44&#45;&gt;513 -->
<g id="edge50" class="edge">
<title>44&#45;&gt;513</title>
<path fill="none" stroke="black" d="M2016.74,-88.41C2013.65,-80.1 2009.84,-69.85 2006.39,-60.56"/>
<polygon fill="black" stroke="black" points="2009.6,-59.14 2002.84,-50.99 2003.04,-61.58 2009.6,-59.14"/>
</g>
<!-- 524 -->
<g id="node55" class="node">
<title>524</title>
<ellipse fill="#b9d3ee" stroke="black" cx="2048.9" cy="-34" rx="16.8" ry="18"/>
<text text-anchor="middle" x="2048.9" y="-30.3" font-family="Times,serif" font-size="14.00">4</text>
</g>
<!-- 44&#45;&gt;524 -->
<g id="edge61" class="edge">
<title>44&#45;&gt;524</title>
<path fill="none" stroke="black" d="M2029.06,-88.41C2032.15,-80.1 2035.96,-69.85 2039.41,-60.56"/>
<polygon fill="black" stroke="black" points="2042.76,-61.58 2042.96,-50.99 2036.2,-59.14 2042.76,-61.58"/>
</g>
<!-- 528 -->
<g id="node59" class="node">
<title>528</title>
<ellipse fill="#b9d3ee" stroke="black" cx="2100.9" cy="-34" rx="16.8" ry="18"/>
<text text-anchor="middle" x="2100.9" y="-30.3" font-family="Times,serif" font-size="14.00">7</text>
</g>
<!-- 44&#45;&gt;528 -->
<g id="edge65" class="edge">
<title>44&#45;&gt;528</title>
<path fill="none" stroke="black" d="M2037.57,-91.83C2049.7,-80.94 2067.07,-65.36 2080.54,-53.27"/>
<polygon fill="black" stroke="black" points="2083.25,-55.54 2088.35,-46.26 2078.57,-50.33 2083.25,-55.54"/>
</g>
<!-- 535 -->
<g id="node66" class="node">
<title>535</title>
<ellipse fill="#b9d3ee" stroke="black" cx="2158.9" cy="-34" rx="23" ry="18"/>
<text text-anchor="middle" x="2158.9" y="-30.3" font-family="Times,serif" font-size="14.00">15</text>
</g>
<!-- 44&#45;&gt;535 -->
<g id="edge72" class="edge">
<title>44&#45;&gt;535</title>
<path fill="none" stroke="black" d="M2041.74,-95.52C2062.61,-84.99 2097.24,-67.44 2126.9,-52 2128.43,-51.2 2130.01,-50.38 2131.59,-49.54"/>
<polygon fill="black" stroke="black" points="2133.44,-52.53 2140.65,-44.76 2130.17,-46.34 2133.44,-52.53"/>
</g>
<!-- 536 -->
<g id="node67" class="node">
<title>536</title>
<ellipse fill="#b9d3ee" stroke="black" cx="1404.9" cy="-34" rx="23" ry="18"/>
<text text-anchor="middle" x="1404.9" y="-30.3" font-family="Times,serif" font-size="14.00">17</text>
</g>
<!-- 45&#45;&gt;536 -->
<g id="edge73" class="edge">
<title>45&#45;&gt;536</title>
<path fill="none" stroke="black" d="M1463.02,-91.5C1452.56,-81.34 1438.03,-67.21 1426.12,-55.63"/>
<polygon fill="black" stroke="black" points="1428.35,-52.92 1418.74,-48.46 1423.47,-57.94 1428.35,-52.92"/>
</g>
<!-- 537 -->
<g id="node68" class="node">
<title>537</title>
<ellipse fill="#b9d3ee" stroke="black" cx="1467.9" cy="-34" rx="23" ry="18"/>
<text text-anchor="middle" x="1467.9" y="-30.3" font-family="Times,serif" font-size="14.00">23</text>
</g>
<!-- 45&#45;&gt;537 -->
<g id="edge74" class="edge">
<title>45&#45;&gt;537</title>
<path fill="none" stroke="black" d="M1474.72,-88.05C1473.73,-80.35 1472.53,-71.03 1471.42,-62.36"/>
<polygon fill="black" stroke="black" points="1474.87,-61.75 1470.12,-52.28 1467.92,-62.64 1474.87,-61.75"/>
</g>
<!-- 539 -->
<g id="node70" class="node">
<title>539</title>
<ellipse fill="#b9d3ee" stroke="black" cx="1530.9" cy="-34" rx="23" ry="18"/>
<text text-anchor="middle" x="1530.9" y="-30.3" font-family="Times,serif" font-size="14.00">26</text>
</g>
<!-- 45&#45;&gt;539 -->
<g id="edge76" class="edge">
<title>45&#45;&gt;539</title>
<path fill="none" stroke="black" d="M1488.35,-90.15C1495.58,-80.78 1505.07,-68.48 1513.25,-57.88"/>
<polygon fill="black" stroke="black" points="1516.13,-59.88 1519.46,-49.82 1510.58,-55.6 1516.13,-59.88"/>
</g>
<!-- 512 -->
<g id="node43" class="node">
<title>512</title>
<ellipse fill="#b9d3ee" stroke="black" cx="1788.9" cy="-34" rx="16.8" ry="18"/>
<text text-anchor="middle" x="1788.9" y="-30.3" font-family="Times,serif" font-size="14.00">1</text>
</g>
<!-- 46&#45;&gt;512 -->
<g id="edge49" class="edge">
<title>46&#45;&gt;512</title>
<path fill="none" stroke="black" d="M1710.73,-90.83C1727.02,-79.2 1750.07,-62.74 1766.92,-50.7"/>
<polygon fill="black" stroke="black" points="1768.99,-53.52 1775.09,-44.86 1764.92,-47.82 1768.99,-53.52"/>
</g>
<!-- 530 -->
<g id="node61" class="node">
<title>530</title>
<ellipse fill="#b9d3ee" stroke="black" cx="1840.9" cy="-34" rx="16.8" ry="18"/>
<text text-anchor="middle" x="1840.9" y="-30.3" font-family="Times,serif" font-size="14.00">8</text>
</g>
<!-- 46&#45;&gt;530 -->
<g id="edge67" class="edge">
<title>46&#45;&gt;530</title>
<path fill="none" stroke="black" d="M1719.13,-94.57C1744.7,-84.74 1783.11,-69.02 1814.9,-52 1816.05,-51.38 1817.21,-50.73 1818.38,-50.06"/>
<polygon fill="black" stroke="black" points="1820.48,-52.88 1827.14,-44.64 1816.79,-46.92 1820.48,-52.88"/>
</g>
<!-- 541 -->
<g id="node72" class="node">
<title>541</title>
<ellipse fill="#b9d3ee" stroke="black" cx="1593.9" cy="-34" rx="23" ry="18"/>
<text text-anchor="middle" x="1593.9" y="-30.3" font-family="Times,serif" font-size="14.00">61</text>
</g>
<!-- 46&#45;&gt;541 -->
<g id="edge78" class="edge">
<title>46&#45;&gt;541</title>
<path fill="none" stroke="black" d="M1671.27,-90.83C1656.14,-79.91 1635.11,-64.74 1618.79,-52.96"/>
<polygon fill="black" stroke="black" points="1620.43,-49.83 1610.28,-46.82 1616.34,-55.51 1620.43,-49.83"/>
</g>
<!-- 542 -->
<g id="node73" class="node">
<title>542</title>
<ellipse fill="#b9d3ee" stroke="black" cx="1656.9" cy="-34" rx="23" ry="18"/>
<text text-anchor="middle" x="1656.9" y="-30.3" font-family="Times,serif" font-size="14.00">62</text>
</g>
<!-- 46&#45;&gt;542 -->
<g id="edge79" class="edge">
<title>46&#45;&gt;542</title>
<path fill="none" stroke="black" d="M1682.84,-88.41C1678.76,-80.01 1673.72,-69.63 1669.17,-60.26"/>
<polygon fill="black" stroke="black" points="1672.18,-58.45 1664.66,-50.99 1665.88,-61.51 1672.18,-58.45"/>
</g>
<!-- 544 -->
<g id="node75" class="node">
<title>544</title>
<ellipse fill="#b9d3ee" stroke="black" cx="1725.9" cy="-34" rx="28.7" ry="18"/>
<text text-anchor="middle" x="1725.9" y="-30.3" font-family="Times,serif" font-size="14.00">215</text>
</g>
<!-- 46&#45;&gt;544 -->
<g id="edge81" class="edge">
<title>46&#45;&gt;544</title>
<path fill="none" stroke="black" d="M1699.19,-88.41C1703.33,-80.13 1708.44,-69.92 1713.07,-60.66"/>
<polygon fill="black" stroke="black" points="1716.32,-61.98 1717.66,-51.47 1710.06,-58.85 1716.32,-61.98"/>
</g>
<!-- 540 -->
<g id="node71" class="node">
<title>540</title>
<ellipse fill="#b9d3ee" stroke="black" cx="2221.9" cy="-34" rx="23" ry="18"/>
<text text-anchor="middle" x="2221.9" y="-30.3" font-family="Times,serif" font-size="14.00">31</text>
</g>
<!-- 47&#45;&gt;540 -->
<g id="edge77" class="edge">
<title>47&#45;&gt;540</title>
<path fill="none" stroke="black" d="M2221.9,-87.7C2221.9,-79.98 2221.9,-70.71 2221.9,-62.11"/>
<polygon fill="black" stroke="black" points="2225.4,-62.1 2221.9,-52.1 2218.4,-62.1 2225.4,-62.1"/>
</g>
<!-- 546 -->
<g id="node77" class="node">
<title>546</title>
<ellipse fill="#b9d3ee" stroke="black" cx="2298.9" cy="-34" rx="36" ry="18"/>
<text text-anchor="middle" x="2298.9" y="-30.3" font-family="Times,serif" font-size="14.00">311</text>
</g>
<!-- 47&#45;&gt;546 -->
<g id="edge83" class="edge">
<title>47&#45;&gt;546</title>
<path fill="none" stroke="black" d="M2238.61,-89.81C2249.1,-80.27 2262.81,-67.8 2274.51,-57.17"/>
<polygon fill="black" stroke="black" points="2277.18,-59.48 2282.22,-50.16 2272.47,-54.3 2277.18,-59.48"/>
</g>
<!-- 57 -->
<g id="node38" class="node">
<title>57</title>
<ellipse fill="#b9d3ee" stroke="black" cx="1294.9" cy="-34" rx="16.8" ry="18"/>
<text text-anchor="middle" x="1294.9" y="-30.3" font-family="Times,serif" font-size="14.00">1</text>
</g>
<!-- 48&#45;&gt;57 -->
<g id="edge44" class="edge">
<title>48&#45;&gt;57</title>
<path fill="none" stroke="black" d="M1164.91,-95.33C1192.36,-85.75 1234.38,-69.93 1268.9,-52 1270.06,-51.4 1271.23,-50.76 1272.4,-50.09"/>
<polygon fill="black" stroke="black" points="1274.48,-52.92 1281.17,-44.7 1270.82,-46.96 1274.48,-52.92"/>
</g>
<!-- 58 -->
<g id="node39" class="node">
<title>58</title>
<ellipse fill="#b9d3ee" stroke="black" cx="1346.9" cy="-34" rx="16.8" ry="18"/>
<text text-anchor="middle" x="1346.9" y="-30.3" font-family="Times,serif" font-size="14.00">1</text>
</g>
<!-- 48&#45;&gt;58 -->
<g id="edge45" class="edge">
<title>48&#45;&gt;58</title>
<path fill="none" stroke="black" d="M1169.03,-98.65C1206.89,-90.69 1270.16,-75.21 1320.9,-52 1322.08,-51.46 1323.28,-50.87 1324.47,-50.24"/>
<polygon fill="black" stroke="black" points="1326.5,-53.1 1333.31,-44.98 1322.93,-47.08 1326.5,-53.1"/>
</g>
<!-- 527 -->
<g id="node58" class="node">
<title>527</title>
<ellipse fill="#b9d3ee" stroke="black" cx="950.9" cy="-34" rx="16.8" ry="18"/>
<text text-anchor="middle" x="950.9" y="-30.3" font-family="Times,serif" font-size="14.00">6</text>
</g>
<!-- 48&#45;&gt;527 -->
<g id="edge64" class="edge">
<title>48&#45;&gt;527</title>
<path fill="none" stroke="black" d="M1104.49,-97.11C1071.73,-88.29 1019.34,-72.52 976.9,-52 975.72,-51.43 974.54,-50.82 973.36,-50.18"/>
<polygon fill="black" stroke="black" points="974.91,-47.03 964.54,-44.86 971.3,-53.02 974.91,-47.03"/>
</g>
<!-- 532 -->
<g id="node63" class="node">
<title>532</title>
<ellipse fill="#b9d3ee" stroke="black" cx="1008.9" cy="-34" rx="23" ry="18"/>
<text text-anchor="middle" x="1008.9" y="-30.3" font-family="Times,serif" font-size="14.00">11</text>
</g>
<!-- 48&#45;&gt;532 -->
<g id="edge69" class="edge">
<title>48&#45;&gt;532</title>
<path fill="none" stroke="black" d="M1112.6,-92.16C1090.95,-80.23 1058.71,-62.46 1035.93,-49.9"/>
<polygon fill="black" stroke="black" points="1037.56,-46.8 1027.11,-45.04 1034.18,-52.93 1037.56,-46.8"/>
</g>
<!-- 538 -->
<g id="node69" class="node">
<title>538</title>
<ellipse fill="#b9d3ee" stroke="black" cx="1071.9" cy="-34" rx="23" ry="18"/>
<text text-anchor="middle" x="1071.9" y="-30.3" font-family="Times,serif" font-size="14.00">25</text>
</g>
<!-- 48&#45;&gt;538 -->
<g id="edge75" class="edge">
<title>48&#45;&gt;538</title>
<path fill="none" stroke="black" d="M1121.38,-89.12C1112.56,-79.47 1101.19,-67.04 1091.57,-56.52"/>
<polygon fill="black" stroke="black" points="1093.96,-53.95 1084.63,-48.93 1088.8,-58.67 1093.96,-53.95"/>
</g>
<!-- 543 -->
<g id="node74" class="node">
<title>543</title>
<ellipse fill="#b9d3ee" stroke="black" cx="1140.9" cy="-34" rx="28.7" ry="18"/>
<text text-anchor="middle" x="1140.9" y="-30.3" font-family="Times,serif" font-size="14.00">120</text>
</g>
<!-- 48&#45;&gt;543 -->
<g id="edge80" class="edge">
<title>48&#45;&gt;543</title>
<path fill="none" stroke="black" d="M1137.13,-87.7C1137.69,-79.98 1138.35,-70.71 1138.96,-62.11"/>
<polygon fill="black" stroke="black" points="1142.46,-62.33 1139.68,-52.1 1135.47,-61.83 1142.46,-62.33"/>
</g>
<!-- 545 -->
<g id="node76" class="node">
<title>545</title>
<ellipse fill="#b9d3ee" stroke="black" cx="1223.9" cy="-34" rx="36" ry="18"/>
<text text-anchor="middle" x="1223.9" y="-30.3" font-family="Times,serif" font-size="14.00">233</text>
</g>
<!-- 48&#45;&gt;545 -->
<g id="edge82" class="edge">
<title>48&#45;&gt;545</title>
<path fill="none" stroke="black" d="M1154.56,-90.15C1167.01,-80.25 1183.57,-67.08 1197.38,-56.09"/>
<polygon fill="black" stroke="black" points="1199.92,-58.55 1205.56,-49.58 1195.56,-53.07 1199.92,-58.55"/>
</g>
<!-- 517 -->
<g id="node48" class="node">
<title>517</title>
<ellipse fill="#b9d3ee" stroke="black" cx="548.9" cy="-34" rx="16.8" ry="18"/>
<text text-anchor="middle" x="548.9" y="-30.3" font-family="Times,serif" font-size="14.00">2</text>
</g>
<!-- 49&#45;&gt;517 -->
<g id="edge54" class="edge">
<title>49&#45;&gt;517</title>
<path fill="none" stroke="black" d="M617.45,-90.15C603.52,-78.95 584.4,-63.56 569.89,-51.89"/>
<polygon fill="black" stroke="black" points="571.94,-49.05 561.95,-45.5 567.55,-54.5 571.94,-49.05"/>
</g>
<!-- 529 -->
<g id="node60" class="node">
<title>529</title>
<ellipse fill="#b9d3ee" stroke="black" cx="600.9" cy="-34" rx="16.8" ry="18"/>
<text text-anchor="middle" x="600.9" y="-30.3" font-family="Times,serif" font-size="14.00">7</text>
</g>
<!-- 49&#45;&gt;529 -->
<g id="edge66" class="edge">
<title>49&#45;&gt;529</title>
<path fill="none" stroke="black" d="M627.6,-88.41C623.3,-79.8 617.95,-69.11 613.18,-59.56"/>
<polygon fill="black" stroke="black" points="616.26,-57.89 608.65,-50.51 610,-61.02 616.26,-57.89"/>
</g>
<!-- 547 -->
<g id="node78" class="node">
<title>547</title>
<ellipse fill="#b9d3ee" stroke="black" cx="671.9" cy="-34" rx="36" ry="18"/>
<text text-anchor="middle" x="671.9" y="-30.3" font-family="Times,serif" font-size="14.00">364</text>
</g>
<!-- 49&#45;&gt;547 -->
<g id="edge84" class="edge">
<title>49&#45;&gt;547</title>
<path fill="none" stroke="black" d="M644.43,-88.41C648.63,-80.25 653.79,-70.22 658.49,-61.07"/>
<polygon fill="black" stroke="black" points="661.72,-62.45 663.18,-51.96 655.49,-59.25 661.72,-62.45"/>
</g>
<!-- 59 -->
<g id="node40" class="node">
<title>59</title>
<ellipse fill="#b9d3ee" stroke="black" cx="2575.9" cy="-34" rx="16.8" ry="18"/>
<text text-anchor="middle" x="2575.9" y="-30.3" font-family="Times,serif" font-size="14.00">1</text>
</g>
<!-- 410&#45;&gt;59 -->
<g id="edge46" class="edge">
<title>410&#45;&gt;59</title>
<path fill="none" stroke="black" d="M2575.9,-87.7C2575.9,-79.98 2575.9,-70.71 2575.9,-62.11"/>
<polygon fill="black" stroke="black" points="2579.4,-62.1 2575.9,-52.1 2572.4,-62.1 2579.4,-62.1"/>
</g>
<!-- 514 -->
<g id="node45" class="node">
<title>514</title>
<ellipse fill="#b9d3ee" stroke="black" cx="2627.9" cy="-34" rx="16.8" ry="18"/>
<text text-anchor="middle" x="2627.9" y="-30.3" font-family="Times,serif" font-size="14.00">1</text>
</g>
<!-- 410&#45;&gt;514 -->
<g id="edge51" class="edge">
<title>410&#45;&gt;514</title>
<path fill="none" stroke="black" d="M2587.96,-88.76C2594.99,-79.3 2603.95,-67.23 2611.61,-56.93"/>
<polygon fill="black" stroke="black" points="2614.5,-58.9 2617.66,-48.79 2608.88,-54.73 2614.5,-58.9"/>
</g>
<!-- 519 -->
<g id="node50" class="node">
<title>519</title>
<ellipse fill="#b9d3ee" stroke="black" cx="2679.9" cy="-34" rx="16.8" ry="18"/>
<text text-anchor="middle" x="2679.9" y="-30.3" font-family="Times,serif" font-size="14.00">2</text>
</g>
<!-- 410&#45;&gt;519 -->
<g id="edge56" class="edge">
<title>410&#45;&gt;519</title>
<path fill="none" stroke="black" d="M2596.45,-91.17C2613.99,-79.36 2639.18,-62.41 2657.29,-50.22"/>
<polygon fill="black" stroke="black" points="2659.7,-52.82 2666.04,-44.33 2655.79,-47.01 2659.7,-52.82"/>
</g>
<!-- 522 -->
<g id="node53" class="node">
<title>522</title>
<ellipse fill="#b9d3ee" stroke="black" cx="2731.9" cy="-34" rx="16.8" ry="18"/>
<text text-anchor="middle" x="2731.9" y="-30.3" font-family="Times,serif" font-size="14.00">3</text>
</g>
<!-- 410&#45;&gt;522 -->
<g id="edge59" class="edge">
<title>410&#45;&gt;522</title>
<path fill="none" stroke="black" d="M2604.76,-95.05C2631.58,-85.38 2672.34,-69.61 2705.9,-52 2707.05,-51.39 2708.22,-50.75 2709.39,-50.08"/>
<polygon fill="black" stroke="black" points="2711.48,-52.91 2718.16,-44.68 2707.81,-46.95 2711.48,-52.91"/>
</g>
<!-- 525 -->
<g id="node56" class="node">
<title>525</title>
<ellipse fill="#b9d3ee" stroke="black" cx="2783.9" cy="-34" rx="16.8" ry="18"/>
<text text-anchor="middle" x="2783.9" y="-30.3" font-family="Times,serif" font-size="14.00">5</text>
</g>
<!-- 410&#45;&gt;525 -->
<g id="edge62" class="edge">
<title>410&#45;&gt;525</title>
<path fill="none" stroke="black" d="M2608.83,-98.49C2646.1,-90.43 2708.12,-74.9 2757.9,-52 2759.08,-51.45 2760.28,-50.86 2761.47,-50.23"/>
<polygon fill="black" stroke="black" points="2763.5,-53.09 2770.3,-44.97 2759.92,-47.08 2763.5,-53.09"/>
</g>
<!-- 526 -->
<g id="node57" class="node">
<title>526</title>
<ellipse fill="#b9d3ee" stroke="black" cx="2835.9" cy="-34" rx="16.8" ry="18"/>
<text text-anchor="middle" x="2835.9" y="-30.3" font-family="Times,serif" font-size="14.00">5</text>
</g>
<!-- 410&#45;&gt;526 -->
<g id="edge63" class="edge">
<title>410&#45;&gt;526</title>
<path fill="none" stroke="black" d="M2610.8,-101.04C2657.6,-94.85 2742.59,-80.53 2809.9,-52 2811.1,-51.49 2812.31,-50.93 2813.51,-50.32"/>
<polygon fill="black" stroke="black" points="2815.51,-53.2 2822.38,-45.14 2811.98,-47.16 2815.51,-53.2"/>
</g>
<!-- 531 -->
<g id="node62" class="node">
<title>531</title>
<ellipse fill="#b9d3ee" stroke="black" cx="2369.9" cy="-34" rx="16.8" ry="18"/>
<text text-anchor="middle" x="2369.9" y="-30.3" font-family="Times,serif" font-size="14.00">9</text>
</g>
<!-- 410&#45;&gt;531 -->
<g id="edge68" class="edge">
<title>410&#45;&gt;531</title>
<path fill="none" stroke="black" d="M2543,-98.36C2506.1,-90.23 2444.99,-74.68 2395.9,-52 2394.71,-51.45 2393.52,-50.86 2392.33,-50.23"/>
<polygon fill="black" stroke="black" points="2393.88,-47.07 2383.5,-44.96 2390.29,-53.09 2393.88,-47.07"/>
</g>
<!-- 534 -->
<g id="node65" class="node">
<title>534</title>
<ellipse fill="#b9d3ee" stroke="black" cx="2427.9" cy="-34" rx="23" ry="18"/>
<text text-anchor="middle" x="2427.9" y="-30.3" font-family="Times,serif" font-size="14.00">14</text>
</g>
<!-- 410&#45;&gt;534 -->
<g id="edge71" class="edge">
<title>410&#45;&gt;534</title>
<path fill="none" stroke="black" d="M2549.43,-93.45C2525.78,-83 2490.28,-66.99 2459.9,-52 2458.35,-51.23 2456.76,-50.44 2455.16,-49.62"/>
<polygon fill="black" stroke="black" points="2456.56,-46.41 2446.08,-44.9 2453.33,-52.62 2456.56,-46.41"/>
</g>
<!-- 548 -->
<g id="node79" class="node">
<title>548</title>
<ellipse fill="#b9d3ee" stroke="black" cx="2504.9" cy="-34" rx="36" ry="18"/>
<text text-anchor="middle" x="2504.9" y="-30.3" font-family="Times,serif" font-size="14.00">375</text>
</g>
<!-- 410&#45;&gt;548 -->
<g id="edge85" class="edge">
<title>410&#45;&gt;548</title>
<path fill="none" stroke="black" d="M2560.14,-89.46C2550.67,-80.13 2538.46,-68.09 2527.92,-57.7"/>
<polygon fill="black" stroke="black" points="2530.19,-55.02 2520.61,-50.49 2525.28,-60 2530.19,-55.02"/>
</g>
<!-- legend_5 -->
<g id="node80" class="node">
<title>legend_5</title>
<polygon fill="#b9d3ee" stroke="black" points="3091.4,-52 2870.4,-52 2870.4,-16 3091.4,-16 3091.4,-52"/>
<text text-anchor="middle" x="2980.9" y="-30.3" font-family="Times,serif" font-size="14.00">DT=6 ST=1 Similarity=0.53</text>
</g>
<!-- legend_4&#45;&gt;legend_5 -->
<g id="edge86" class="edge">
<title>legend_4&#45;&gt;legend_5</title>
<path fill="none" stroke="black" d="M2980.9,-87.7C2980.9,-79.98 2980.9,-70.71 2980.9,-62.11"/>
<polygon fill="black" stroke="black" points="2984.4,-62.1 2980.9,-52.1 2977.4,-62.1 2984.4,-62.1"/>
</g>
</g>
</svg>
