<?xml version="1.0" encoding="UTF-8" standalone="no"?>
<!DOCTYPE svg PUBLIC "-//W3C//DTD SVG 1.1//EN"
 "http://www.w3.org/Graphics/SVG/1.1/DTD/svg11.dtd">
<!-- Generated by graphviz version 2.43.0 (0)
 -->
<!-- Title: %3 Pages: 1 -->
<svg width="2722pt" height="281pt"
 viewBox="0.00 0.00 2722.00 281.00" xmlns="http://www.w3.org/2000/svg" xmlns:xlink="http://www.w3.org/1999/xlink">
<g id="graph0" class="graph" transform="scale(1 1) rotate(0) translate(4 277)">
<title>%3</title>
<polygon fill="white" stroke="transparent" points="-4,4 -4,-277 2718,-277 2718,4 -4,4"/>
<text text-anchor="middle" x="1357" y="-257.8" font-family="Times,serif" font-size="14.00">ConsTree</text>
<text text-anchor="middle" x="1357" y="-242.8" font-family="Times,serif" font-size="14.00">Tree Quality = 0.5</text>
<g id="clust1" class="cluster">
<title>cluster</title>
<polygon fill="none" stroke="black" points="2470,-8 2470,-227 2706,-227 2706,-8 2470,-8"/>
<text text-anchor="middle" x="2588" y="-211.8" font-family="Times,serif" font-size="14.00">Legend</text>
</g>
<!-- 00 -->
<g id="node1" class="node">
<title>00</title>
<ellipse fill="#b9d3ee" stroke="black" cx="717" cy="-178" rx="324" ry="18"/>
<text text-anchor="middle" x="717" y="-174.3" font-family="Times,serif" font-size="14.00">2000</text>
</g>
<!-- 10 -->
<g id="node3" class="node">
<title>10</title>
<ellipse fill="#b9d3ee" stroke="black" cx="258" cy="-106" rx="16.8" ry="18"/>
<text text-anchor="middle" x="258" y="-102.3" font-family="Times,serif" font-size="14.00">3</text>
</g>
<!-- 00&#45;&gt;10 -->
<g id="edge1" class="edge">
<title>00&#45;&gt;10</title>
<path fill="none" stroke="black" d="M611.7,-160.94C505.08,-144.68 347.3,-120.62 284.85,-111.09"/>
<polygon fill="black" stroke="black" points="285.08,-107.59 274.66,-109.54 284.02,-114.51 285.08,-107.59"/>
</g>
<!-- 11 -->
<g id="node4" class="node">
<title>11</title>
<ellipse fill="#b9d3ee" stroke="black" cx="717" cy="-106" rx="180" ry="18"/>
<text text-anchor="middle" x="717" y="-102.3" font-family="Times,serif" font-size="14.00">1211</text>
</g>
<!-- 00&#45;&gt;11 -->
<g id="edge2" class="edge">
<title>00&#45;&gt;11</title>
<path fill="none" stroke="black" d="M717,-159.7C717,-151.98 717,-142.71 717,-134.11"/>
<polygon fill="black" stroke="black" points="720.5,-134.1 717,-124.1 713.5,-134.1 720.5,-134.1"/>
</g>
<!-- 12 -->
<g id="node5" class="node">
<title>12</title>
<ellipse fill="#b9d3ee" stroke="black" cx="1952" cy="-106" rx="108" ry="18"/>
<text text-anchor="middle" x="1952" y="-102.3" font-family="Times,serif" font-size="14.00">786</text>
</g>
<!-- 00&#45;&gt;12 -->
<g id="edge3" class="edge">
<title>00&#45;&gt;12</title>
<path fill="none" stroke="black" d="M934.95,-164.65C1200.19,-149.61 1637.79,-124.81 1841.41,-113.27"/>
<polygon fill="black" stroke="black" points="1841.73,-116.76 1851.52,-112.7 1841.34,-109.77 1841.73,-116.76"/>
</g>
<!-- legend_0 -->
<g id="node2" class="node">
<title>legend_0</title>
<polygon fill="#b9d3ee" stroke="black" points="2698.5,-196 2477.5,-196 2477.5,-160 2698.5,-160 2698.5,-196"/>
<text text-anchor="middle" x="2588" y="-174.3" font-family="Times,serif" font-size="14.00">DT=4 ST=4 Similarity=0.28</text>
</g>
<!-- legend_1 -->
<g id="node6" class="node">
<title>legend_1</title>
<polygon fill="#b9d3ee" stroke="black" points="2694,-124 2482,-124 2482,-88 2694,-88 2694,-124"/>
<text text-anchor="middle" x="2588" y="-102.3" font-family="Times,serif" font-size="14.00">DT=5 ST=1 Similarity=0.5</text>
</g>
<!-- legend_0&#45;&gt;legend_1 -->
<g id="edge4" class="edge">
<title>legend_0&#45;&gt;legend_1</title>
<path fill="none" stroke="black" d="M2588,-159.7C2588,-151.98 2588,-142.71 2588,-134.11"/>
<polygon fill="black" stroke="black" points="2591.5,-134.1 2588,-124.1 2584.5,-134.1 2591.5,-134.1"/>
</g>
<!-- 223 -->
<g id="node30" class="node">
<title>223</title>
<polygon fill="darkseagreen" stroke="black" points="26,-52 0,-52 0,-16 26,-16 26,-52"/>
<text text-anchor="middle" x="13" y="-30.3" font-family="Times,serif" font-size="14.00">3</text>
</g>
<!-- 10&#45;&gt;223 -->
<g id="edge28" class="edge">
<title>10&#45;&gt;223</title>
<path fill="none" stroke="black" d="M241.25,-103.46C203.01,-99.42 106.99,-86.39 35,-52 34.91,-51.96 34.81,-51.91 34.72,-51.87"/>
<polygon fill="black" stroke="black" points="36.73,-48.99 26.38,-46.75 33.07,-54.96 36.73,-48.99"/>
</g>
<!-- 20 -->
<g id="node7" class="node">
<title>20</title>
<polygon fill="darkseagreen" stroke="black" points="70,-52 44,-52 44,-16 70,-16 70,-52"/>
<text text-anchor="middle" x="57" y="-30.3" font-family="Times,serif" font-size="14.00">1</text>
</g>
<!-- 11&#45;&gt;20 -->
<g id="edge5" class="edge">
<title>11&#45;&gt;20</title>
<path fill="none" stroke="black" d="M542.18,-101.56C382.93,-96.42 160.53,-83.66 79,-52 78.9,-51.96 78.81,-51.93 78.71,-51.89"/>
<polygon fill="black" stroke="black" points="80.65,-48.96 70.22,-47.12 77.22,-55.06 80.65,-48.96"/>
</g>
<!-- 21 -->
<g id="node8" class="node">
<title>21</title>
<polygon fill="darkseagreen" stroke="black" points="114,-52 88,-52 88,-16 114,-16 114,-52"/>
<text text-anchor="middle" x="101" y="-30.3" font-family="Times,serif" font-size="14.00">1</text>
</g>
<!-- 11&#45;&gt;21 -->
<g id="edge6" class="edge">
<title>11&#45;&gt;21</title>
<path fill="none" stroke="black" d="M545.68,-100.36C398.08,-94.42 197.41,-81.15 123,-52 122.9,-51.96 122.81,-51.92 122.71,-51.89"/>
<polygon fill="black" stroke="black" points="124.65,-48.96 114.22,-47.1 121.22,-55.06 124.65,-48.96"/>
</g>
<!-- 22 -->
<g id="node9" class="node">
<title>22</title>
<polygon fill="darkseagreen" stroke="black" points="158,-52 132,-52 132,-16 158,-16 158,-52"/>
<text text-anchor="middle" x="145" y="-30.3" font-family="Times,serif" font-size="14.00">1</text>
</g>
<!-- 11&#45;&gt;22 -->
<g id="edge7" class="edge">
<title>11&#45;&gt;22</title>
<path fill="none" stroke="black" d="M550.66,-99.09C414.78,-92.4 234.56,-78.75 167,-52 166.9,-51.96 166.81,-51.92 166.71,-51.89"/>
<polygon fill="black" stroke="black" points="168.66,-48.96 158.23,-47.08 165.21,-55.06 168.66,-48.96"/>
</g>
<!-- 23 -->
<g id="node10" class="node">
<title>23</title>
<polygon fill="darkseagreen" stroke="black" points="202,-52 176,-52 176,-16 202,-16 202,-52"/>
<text text-anchor="middle" x="189" y="-30.3" font-family="Times,serif" font-size="14.00">1</text>
</g>
<!-- 11&#45;&gt;23 -->
<g id="edge8" class="edge">
<title>11&#45;&gt;23</title>
<path fill="none" stroke="black" d="M556.78,-97.74C432.66,-90.35 271.93,-76.42 211,-52 210.9,-51.96 210.81,-51.92 210.71,-51.88"/>
<polygon fill="black" stroke="black" points="212.66,-48.96 202.24,-47.06 209.2,-55.05 212.66,-48.96"/>
</g>
<!-- 24 -->
<g id="node11" class="node">
<title>24</title>
<polygon fill="darkseagreen" stroke="black" points="246,-52 220,-52 220,-16 246,-16 246,-52"/>
<text text-anchor="middle" x="233" y="-30.3" font-family="Times,serif" font-size="14.00">1</text>
</g>
<!-- 11&#45;&gt;24 -->
<g id="edge9" class="edge">
<title>11&#45;&gt;24</title>
<path fill="none" stroke="black" d="M564.94,-96.37C452.43,-88.33 309.65,-74.21 255,-52 254.9,-51.96 254.81,-51.92 254.72,-51.88"/>
<polygon fill="black" stroke="black" points="256.67,-48.97 246.25,-47.04 253.19,-55.04 256.67,-48.97"/>
</g>
<!-- 27 -->
<g id="node14" class="node">
<title>27</title>
<polygon fill="darkseagreen" stroke="black" points="290,-52 264,-52 264,-16 290,-16 290,-52"/>
<text text-anchor="middle" x="277" y="-30.3" font-family="Times,serif" font-size="14.00">1</text>
</g>
<!-- 11&#45;&gt;27 -->
<g id="edge12" class="edge">
<title>11&#45;&gt;27</title>
<path fill="none" stroke="black" d="M574.67,-94.97C473.63,-86.35 347.63,-72.1 299,-52 298.91,-51.96 298.81,-51.92 298.72,-51.88"/>
<polygon fill="black" stroke="black" points="300.67,-48.97 290.26,-47.01 297.18,-55.03 300.67,-48.97"/>
</g>
<!-- 28 -->
<g id="node15" class="node">
<title>28</title>
<polygon fill="darkseagreen" stroke="black" points="334,-52 308,-52 308,-16 334,-16 334,-52"/>
<text text-anchor="middle" x="321" y="-30.3" font-family="Times,serif" font-size="14.00">1</text>
</g>
<!-- 11&#45;&gt;28 -->
<g id="edge13" class="edge">
<title>11&#45;&gt;28</title>
<path fill="none" stroke="black" d="M548.23,-99.57C482.17,-92.76 407.04,-79.03 343,-52 342.91,-51.96 342.81,-51.92 342.72,-51.88"/>
<polygon fill="black" stroke="black" points="344.68,-48.97 334.28,-46.97 341.16,-55.02 344.68,-48.97"/>
</g>
<!-- 210 -->
<g id="node17" class="node">
<title>210</title>
<polygon fill="darkseagreen" stroke="black" points="378,-52 352,-52 352,-16 378,-16 378,-52"/>
<text text-anchor="middle" x="365" y="-30.3" font-family="Times,serif" font-size="14.00">1</text>
</g>
<!-- 11&#45;&gt;210 -->
<g id="edge15" class="edge">
<title>11&#45;&gt;210</title>
<path fill="none" stroke="black" d="M564.29,-96.44C506.91,-89.15 442.25,-75.92 387,-52 386.91,-51.96 386.81,-51.92 386.72,-51.88"/>
<polygon fill="black" stroke="black" points="388.69,-48.98 378.29,-46.93 385.14,-55.01 388.69,-48.98"/>
</g>
<!-- 211 -->
<g id="node18" class="node">
<title>211</title>
<polygon fill="darkseagreen" stroke="black" points="422,-52 396,-52 396,-16 422,-16 422,-52"/>
<text text-anchor="middle" x="409" y="-30.3" font-family="Times,serif" font-size="14.00">1</text>
</g>
<!-- 11&#45;&gt;211 -->
<g id="edge16" class="edge">
<title>11&#45;&gt;211</title>
<path fill="none" stroke="black" d="M584.6,-93.76C534.86,-86.15 478.83,-73.39 431,-52 430.91,-51.96 430.81,-51.92 430.72,-51.87"/>
<polygon fill="black" stroke="black" points="432.7,-48.98 422.32,-46.87 429.12,-54.99 432.7,-48.98"/>
</g>
<!-- 212 -->
<g id="node19" class="node">
<title>212</title>
<polygon fill="darkseagreen" stroke="black" points="466,-52 440,-52 440,-16 466,-16 466,-52"/>
<text text-anchor="middle" x="453" y="-30.3" font-family="Times,serif" font-size="14.00">1</text>
</g>
<!-- 11&#45;&gt;212 -->
<g id="edge17" class="edge">
<title>11&#45;&gt;212</title>
<path fill="none" stroke="black" d="M607.96,-91.65C565.13,-83.74 516.41,-71.33 475,-52 474.91,-51.96 474.81,-51.91 474.72,-51.87"/>
<polygon fill="black" stroke="black" points="476.72,-48.99 466.36,-46.79 473.09,-54.97 476.72,-48.99"/>
</g>
<!-- 215 -->
<g id="node22" class="node">
<title>215</title>
<polygon fill="darkseagreen" stroke="black" points="510,-52 484,-52 484,-16 510,-16 510,-52"/>
<text text-anchor="middle" x="497" y="-30.3" font-family="Times,serif" font-size="14.00">1</text>
</g>
<!-- 11&#45;&gt;215 -->
<g id="edge20" class="edge">
<title>11&#45;&gt;215</title>
<path fill="none" stroke="black" d="M631.97,-90.01C595.95,-81.71 554.24,-69.45 519,-52 518.91,-51.95 518.82,-51.91 518.72,-51.86"/>
<polygon fill="black" stroke="black" points="520.75,-49 510.41,-46.68 517.05,-54.94 520.75,-49"/>
</g>
<!-- 216 -->
<g id="node23" class="node">
<title>216</title>
<polygon fill="darkseagreen" stroke="black" points="554,-52 528,-52 528,-16 554,-16 554,-52"/>
<text text-anchor="middle" x="541" y="-30.3" font-family="Times,serif" font-size="14.00">1</text>
</g>
<!-- 11&#45;&gt;216 -->
<g id="edge21" class="edge">
<title>11&#45;&gt;216</title>
<path fill="none" stroke="black" d="M655.85,-88.98C626.79,-80.13 592.12,-67.71 563,-52 562.81,-51.9 562.62,-51.79 562.43,-51.69"/>
<polygon fill="black" stroke="black" points="564.3,-48.73 554.02,-46.17 560.46,-54.58 564.3,-48.73"/>
</g>
<!-- 217 -->
<g id="node24" class="node">
<title>217</title>
<polygon fill="darkseagreen" stroke="black" points="598,-52 572,-52 572,-16 598,-16 598,-52"/>
<text text-anchor="middle" x="585" y="-30.3" font-family="Times,serif" font-size="14.00">2</text>
</g>
<!-- 11&#45;&gt;217 -->
<g id="edge22" class="edge">
<title>11&#45;&gt;217</title>
<path fill="none" stroke="black" d="M677.52,-88.39C656.08,-78.79 629.45,-65.87 607,-52 606.82,-51.89 606.63,-51.77 606.44,-51.65"/>
<polygon fill="black" stroke="black" points="608.38,-48.74 598.18,-45.89 604.38,-54.48 608.38,-48.74"/>
</g>
<!-- 218 -->
<g id="node25" class="node">
<title>218</title>
<polygon fill="darkseagreen" stroke="black" points="642,-52 616,-52 616,-16 642,-16 642,-52"/>
<text text-anchor="middle" x="629" y="-30.3" font-family="Times,serif" font-size="14.00">2</text>
</g>
<!-- 11&#45;&gt;218 -->
<g id="edge23" class="edge">
<title>11&#45;&gt;218</title>
<path fill="none" stroke="black" d="M695.7,-88.05C681.88,-77.06 663.95,-62.8 650.16,-51.83"/>
<polygon fill="black" stroke="black" points="652.19,-48.98 642.19,-45.49 647.83,-54.45 652.19,-48.98"/>
</g>
<!-- 220 -->
<g id="node27" class="node">
<title>220</title>
<polygon fill="darkseagreen" stroke="black" points="686,-52 660,-52 660,-16 686,-16 686,-52"/>
<text text-anchor="middle" x="673" y="-30.3" font-family="Times,serif" font-size="14.00">2</text>
</g>
<!-- 11&#45;&gt;220 -->
<g id="edge25" class="edge">
<title>11&#45;&gt;220</title>
<path fill="none" stroke="black" d="M706.12,-87.7C701.01,-79.56 694.8,-69.69 689.16,-60.7"/>
<polygon fill="black" stroke="black" points="692.04,-58.71 683.75,-52.1 686.11,-62.43 692.04,-58.71"/>
</g>
<!-- 221 -->
<g id="node28" class="node">
<title>221</title>
<polygon fill="darkseagreen" stroke="black" points="730,-52 704,-52 704,-16 730,-16 730,-52"/>
<text text-anchor="middle" x="717" y="-30.3" font-family="Times,serif" font-size="14.00">2</text>
</g>
<!-- 11&#45;&gt;221 -->
<g id="edge26" class="edge">
<title>11&#45;&gt;221</title>
<path fill="none" stroke="black" d="M717,-87.7C717,-79.98 717,-70.71 717,-62.11"/>
<polygon fill="black" stroke="black" points="720.5,-62.1 717,-52.1 713.5,-62.1 720.5,-62.1"/>
</g>
<!-- 227 -->
<g id="node34" class="node">
<title>227</title>
<polygon fill="darkseagreen" stroke="black" points="774,-52 748,-52 748,-16 774,-16 774,-52"/>
<text text-anchor="middle" x="761" y="-30.3" font-family="Times,serif" font-size="14.00">6</text>
</g>
<!-- 11&#45;&gt;227 -->
<g id="edge32" class="edge">
<title>11&#45;&gt;227</title>
<path fill="none" stroke="black" d="M727.88,-87.7C732.99,-79.56 739.2,-69.69 744.84,-60.7"/>
<polygon fill="black" stroke="black" points="747.89,-62.43 750.25,-52.1 741.96,-58.71 747.89,-62.43"/>
</g>
<!-- 229 -->
<g id="node36" class="node">
<title>229</title>
<polygon fill="darkseagreen" stroke="black" points="818,-52 792,-52 792,-16 818,-16 818,-52"/>
<text text-anchor="middle" x="805" y="-30.3" font-family="Times,serif" font-size="14.00">7</text>
</g>
<!-- 11&#45;&gt;229 -->
<g id="edge34" class="edge">
<title>11&#45;&gt;229</title>
<path fill="none" stroke="black" d="M738.3,-88.05C752.12,-77.06 770.05,-62.8 783.84,-51.83"/>
<polygon fill="black" stroke="black" points="786.17,-54.45 791.81,-45.49 781.81,-48.98 786.17,-54.45"/>
</g>
<!-- 230 -->
<g id="node37" class="node">
<title>230</title>
<polygon fill="darkseagreen" stroke="black" points="862,-52 836,-52 836,-16 862,-16 862,-52"/>
<text text-anchor="middle" x="849" y="-30.3" font-family="Times,serif" font-size="14.00">8</text>
</g>
<!-- 11&#45;&gt;230 -->
<g id="edge35" class="edge">
<title>11&#45;&gt;230</title>
<path fill="none" stroke="black" d="M756.48,-88.39C777.92,-78.79 804.55,-65.87 827,-52 827.18,-51.89 827.37,-51.77 827.56,-51.65"/>
<polygon fill="black" stroke="black" points="829.62,-54.48 835.82,-45.89 825.62,-48.74 829.62,-54.48"/>
</g>
<!-- 232 -->
<g id="node39" class="node">
<title>232</title>
<polygon fill="darkseagreen" stroke="black" points="915.5,-52 880.5,-52 880.5,-16 915.5,-16 915.5,-52"/>
<text text-anchor="middle" x="898" y="-30.3" font-family="Times,serif" font-size="14.00">11</text>
</g>
<!-- 11&#45;&gt;232 -->
<g id="edge37" class="edge">
<title>11&#45;&gt;232</title>
<path fill="none" stroke="black" d="M773.84,-88.89C803.46,-79.64 839.89,-66.9 871,-52 871.1,-51.95 871.19,-51.91 871.29,-51.86"/>
<polygon fill="black" stroke="black" points="873.22,-54.8 880.32,-46.94 869.87,-48.65 873.22,-54.8"/>
</g>
<!-- 233 -->
<g id="node40" class="node">
<title>233</title>
<polygon fill="darkseagreen" stroke="black" points="968.5,-52 933.5,-52 933.5,-16 968.5,-16 968.5,-52"/>
<text text-anchor="middle" x="951" y="-30.3" font-family="Times,serif" font-size="14.00">13</text>
</g>
<!-- 11&#45;&gt;233 -->
<g id="edge38" class="edge">
<title>11&#45;&gt;233</title>
<path fill="none" stroke="black" d="M799.8,-89.99C838.46,-81.43 884.56,-68.97 924,-52 924.1,-51.96 924.2,-51.91 924.3,-51.87"/>
<polygon fill="black" stroke="black" points="926.14,-54.86 933.42,-47.15 922.93,-48.64 926.14,-54.86"/>
</g>
<!-- 236 -->
<g id="node43" class="node">
<title>236</title>
<polygon fill="darkseagreen" stroke="black" points="1021.5,-52 986.5,-52 986.5,-16 1021.5,-16 1021.5,-52"/>
<text text-anchor="middle" x="1004" y="-30.3" font-family="Times,serif" font-size="14.00">17</text>
</g>
<!-- 11&#45;&gt;236 -->
<g id="edge41" class="edge">
<title>11&#45;&gt;236</title>
<path fill="none" stroke="black" d="M826.43,-91.68C873.86,-83.64 929.33,-71.12 977,-52 977.1,-51.96 977.2,-51.92 977.3,-51.88"/>
<polygon fill="black" stroke="black" points="979.1,-54.89 986.48,-47.29 975.97,-48.63 979.1,-54.89"/>
</g>
<!-- 237 -->
<g id="node44" class="node">
<title>237</title>
<polygon fill="darkseagreen" stroke="black" points="1074.5,-52 1039.5,-52 1039.5,-16 1074.5,-16 1074.5,-52"/>
<text text-anchor="middle" x="1057" y="-30.3" font-family="Times,serif" font-size="14.00">23</text>
</g>
<!-- 11&#45;&gt;237 -->
<g id="edge42" class="edge">
<title>11&#45;&gt;237</title>
<path fill="none" stroke="black" d="M851.42,-94C907.91,-86.4 973.49,-73.58 1030,-52 1030.1,-51.96 1030.19,-51.93 1030.29,-51.89"/>
<polygon fill="black" stroke="black" points="1031.75,-55.07 1039.21,-47.55 1028.69,-48.77 1031.75,-55.07"/>
</g>
<!-- 238 -->
<g id="node45" class="node">
<title>238</title>
<polygon fill="darkseagreen" stroke="black" points="1127.5,-52 1092.5,-52 1092.5,-16 1127.5,-16 1127.5,-52"/>
<text text-anchor="middle" x="1110" y="-30.3" font-family="Times,serif" font-size="14.00">25</text>
</g>
<!-- 11&#45;&gt;238 -->
<g id="edge43" class="edge">
<title>11&#45;&gt;238</title>
<path fill="none" stroke="black" d="M872.78,-96.86C939.13,-89.74 1016.43,-76.52 1083,-52 1083.1,-51.96 1083.19,-51.93 1083.29,-51.89"/>
<polygon fill="black" stroke="black" points="1084.72,-55.09 1092.24,-47.62 1081.71,-48.77 1084.72,-55.09"/>
</g>
<!-- 239 -->
<g id="node46" class="node">
<title>239</title>
<polygon fill="darkseagreen" stroke="black" points="1180.5,-52 1145.5,-52 1145.5,-16 1180.5,-16 1180.5,-52"/>
<text text-anchor="middle" x="1163" y="-30.3" font-family="Times,serif" font-size="14.00">26</text>
</g>
<!-- 11&#45;&gt;239 -->
<g id="edge44" class="edge">
<title>11&#45;&gt;239</title>
<path fill="none" stroke="black" d="M887.59,-100.22C965.21,-93.83 1057.13,-80.24 1136,-52 1136.1,-51.96 1136.2,-51.93 1136.29,-51.89"/>
<polygon fill="black" stroke="black" points="1137.71,-55.1 1145.26,-47.67 1134.72,-48.77 1137.71,-55.1"/>
</g>
<!-- 241 -->
<g id="node48" class="node">
<title>241</title>
<polygon fill="darkseagreen" stroke="black" points="1233.5,-52 1198.5,-52 1198.5,-16 1233.5,-16 1233.5,-52"/>
<text text-anchor="middle" x="1216" y="-30.3" font-family="Times,serif" font-size="14.00">61</text>
</g>
<!-- 11&#45;&gt;241 -->
<g id="edge46" class="edge">
<title>11&#45;&gt;241</title>
<path fill="none" stroke="black" d="M864.47,-95.65C980.13,-86.98 1130.92,-72.34 1189,-52 1189.1,-51.97 1189.2,-51.93 1189.29,-51.9"/>
<polygon fill="black" stroke="black" points="1190.69,-55.11 1198.27,-47.7 1187.73,-48.76 1190.69,-55.11"/>
</g>
<!-- 242 -->
<g id="node49" class="node">
<title>242</title>
<polygon fill="darkseagreen" stroke="black" points="1286.5,-52 1251.5,-52 1251.5,-16 1286.5,-16 1286.5,-52"/>
<text text-anchor="middle" x="1269" y="-30.3" font-family="Times,serif" font-size="14.00">62</text>
</g>
<!-- 11&#45;&gt;242 -->
<g id="edge47" class="edge">
<title>11&#45;&gt;242</title>
<path fill="none" stroke="black" d="M873.62,-97.1C1003.14,-89.11 1176.11,-74.66 1242,-52 1242.1,-51.97 1242.2,-51.93 1242.29,-51.9"/>
<polygon fill="black" stroke="black" points="1243.68,-55.11 1251.28,-47.74 1240.74,-48.76 1243.68,-55.11"/>
</g>
<!-- 243 -->
<g id="node50" class="node">
<title>243</title>
<polygon fill="darkseagreen" stroke="black" points="1349,-52 1305,-52 1305,-16 1349,-16 1349,-52"/>
<text text-anchor="middle" x="1327" y="-30.3" font-family="Times,serif" font-size="14.00">120</text>
</g>
<!-- 11&#45;&gt;243 -->
<g id="edge48" class="edge">
<title>11&#45;&gt;243</title>
<path fill="none" stroke="black" d="M875.8,-97.48C1019.3,-89.4 1219.26,-74.59 1295,-52 1295.1,-51.97 1295.2,-51.94 1295.31,-51.91"/>
<polygon fill="black" stroke="black" points="1296.7,-55.12 1304.75,-48.24 1294.16,-48.6 1296.7,-55.12"/>
</g>
<!-- 244 -->
<g id="node51" class="node">
<title>244</title>
<polygon fill="darkseagreen" stroke="black" points="1411,-52 1367,-52 1367,-16 1411,-16 1411,-52"/>
<text text-anchor="middle" x="1389" y="-30.3" font-family="Times,serif" font-size="14.00">215</text>
</g>
<!-- 11&#45;&gt;244 -->
<g id="edge49" class="edge">
<title>11&#45;&gt;244</title>
<path fill="none" stroke="black" d="M883.35,-99.1C1037.79,-92.25 1257.23,-78.68 1356.95,-51.45"/>
<polygon fill="black" stroke="black" points="1358.17,-54.74 1366.8,-48.59 1356.22,-48.02 1358.17,-54.74"/>
</g>
<!-- 245 -->
<g id="node52" class="node">
<title>245</title>
<polygon fill="darkseagreen" stroke="black" points="1501,-52 1429,-52 1429,-16 1501,-16 1501,-52"/>
<text text-anchor="middle" x="1465" y="-30.3" font-family="Times,serif" font-size="14.00">233</text>
</g>
<!-- 11&#45;&gt;245 -->
<g id="edge50" class="edge">
<title>11&#45;&gt;245</title>
<path fill="none" stroke="black" d="M879.01,-98.15C1048.75,-90.04 1305.12,-74.94 1419.01,-51.76"/>
<polygon fill="black" stroke="black" points="1419.88,-55.16 1428.92,-49.64 1418.41,-48.31 1419.88,-55.16"/>
</g>
<!-- 247 -->
<g id="node54" class="node">
<title>247</title>
<polygon fill="darkseagreen" stroke="black" points="1591,-52 1519,-52 1519,-16 1591,-16 1591,-52"/>
<text text-anchor="middle" x="1555" y="-30.3" font-family="Times,serif" font-size="14.00">364</text>
</g>
<!-- 11&#45;&gt;247 -->
<g id="edge52" class="edge">
<title>11&#45;&gt;247</title>
<path fill="none" stroke="black" d="M885.25,-99.56C1076.93,-92.36 1379.31,-77.73 1509.14,-51.73"/>
<polygon fill="black" stroke="black" points="1509.86,-55.15 1518.93,-49.67 1508.42,-48.3 1509.86,-55.15"/>
</g>
<!-- 25 -->
<g id="node12" class="node">
<title>25</title>
<polygon fill="darkseagreen" stroke="black" points="1635,-52 1609,-52 1609,-16 1635,-16 1635,-52"/>
<text text-anchor="middle" x="1622" y="-30.3" font-family="Times,serif" font-size="14.00">1</text>
</g>
<!-- 12&#45;&gt;25 -->
<g id="edge10" class="edge">
<title>12&#45;&gt;25</title>
<path fill="none" stroke="black" d="M1850.31,-99.92C1788.5,-93.86 1709.19,-80.66 1644,-52 1643.91,-51.96 1643.81,-51.92 1643.72,-51.87"/>
<polygon fill="black" stroke="black" points="1645.7,-48.98 1635.31,-46.9 1642.13,-55 1645.7,-48.98"/>
</g>
<!-- 26 -->
<g id="node13" class="node">
<title>26</title>
<polygon fill="darkseagreen" stroke="black" points="1679,-52 1653,-52 1653,-16 1679,-16 1679,-52"/>
<text text-anchor="middle" x="1666" y="-30.3" font-family="Times,serif" font-size="14.00">1</text>
</g>
<!-- 12&#45;&gt;26 -->
<g id="edge11" class="edge">
<title>12&#45;&gt;26</title>
<path fill="none" stroke="black" d="M1858.67,-96.83C1806.64,-89.72 1741.7,-76.5 1688,-52 1687.91,-51.96 1687.81,-51.91 1687.72,-51.87"/>
<polygon fill="black" stroke="black" points="1689.71,-48.98 1679.34,-46.83 1686.11,-54.98 1689.71,-48.98"/>
</g>
<!-- 29 -->
<g id="node16" class="node">
<title>29</title>
<polygon fill="darkseagreen" stroke="black" points="1723,-52 1697,-52 1697,-16 1723,-16 1723,-52"/>
<text text-anchor="middle" x="1710" y="-30.3" font-family="Times,serif" font-size="14.00">1</text>
</g>
<!-- 12&#45;&gt;29 -->
<g id="edge14" class="edge">
<title>12&#45;&gt;29</title>
<path fill="none" stroke="black" d="M1871.36,-93.96C1828.49,-86.05 1775.75,-72.98 1732,-52 1731.91,-51.96 1731.82,-51.91 1731.72,-51.87"/>
<polygon fill="black" stroke="black" points="1733.73,-48.99 1723.38,-46.74 1730.07,-54.96 1733.73,-48.99"/>
</g>
<!-- 213 -->
<g id="node20" class="node">
<title>213</title>
<polygon fill="darkseagreen" stroke="black" points="1767,-52 1741,-52 1741,-16 1767,-16 1767,-52"/>
<text text-anchor="middle" x="1754" y="-30.3" font-family="Times,serif" font-size="14.00">1</text>
</g>
<!-- 12&#45;&gt;213 -->
<g id="edge18" class="edge">
<title>12&#45;&gt;213</title>
<path fill="none" stroke="black" d="M1887.11,-91.49C1852.89,-82.89 1810.9,-69.96 1776,-52 1775.91,-51.95 1775.82,-51.91 1775.73,-51.86"/>
<polygon fill="black" stroke="black" points="1777.77,-49.01 1767.45,-46.61 1774.02,-54.92 1777.77,-49.01"/>
</g>
<!-- 214 -->
<g id="node21" class="node">
<title>214</title>
<polygon fill="darkseagreen" stroke="black" points="1811,-52 1785,-52 1785,-16 1811,-16 1811,-52"/>
<text text-anchor="middle" x="1798" y="-30.3" font-family="Times,serif" font-size="14.00">1</text>
</g>
<!-- 12&#45;&gt;214 -->
<g id="edge19" class="edge">
<title>12&#45;&gt;214</title>
<path fill="none" stroke="black" d="M1905.04,-89.73C1879.15,-80.43 1846.9,-67.4 1820,-52 1819.81,-51.89 1819.62,-51.78 1819.43,-51.67"/>
<polygon fill="black" stroke="black" points="1821.33,-48.73 1811.08,-46.05 1817.42,-54.54 1821.33,-48.73"/>
</g>
<!-- 219 -->
<g id="node26" class="node">
<title>219</title>
<polygon fill="darkseagreen" stroke="black" points="1855,-52 1829,-52 1829,-16 1855,-16 1855,-52"/>
<text text-anchor="middle" x="1842" y="-30.3" font-family="Times,serif" font-size="14.00">2</text>
</g>
<!-- 12&#45;&gt;219 -->
<g id="edge24" class="edge">
<title>12&#45;&gt;219</title>
<path fill="none" stroke="black" d="M1922.94,-88.63C1905.53,-78.55 1883.14,-65.09 1864,-52 1863.82,-51.88 1863.64,-51.75 1863.46,-51.63"/>
<polygon fill="black" stroke="black" points="1865.45,-48.75 1855.31,-45.68 1861.33,-54.4 1865.45,-48.75"/>
</g>
<!-- 222 -->
<g id="node29" class="node">
<title>222</title>
<polygon fill="darkseagreen" stroke="black" points="1899,-52 1873,-52 1873,-16 1899,-16 1899,-52"/>
<text text-anchor="middle" x="1886" y="-30.3" font-family="Times,serif" font-size="14.00">3</text>
</g>
<!-- 12&#45;&gt;222 -->
<g id="edge27" class="edge">
<title>12&#45;&gt;222</title>
<path fill="none" stroke="black" d="M1936.02,-88.05C1927.02,-78.51 1915.7,-66.5 1906.1,-56.32"/>
<polygon fill="black" stroke="black" points="1908.57,-53.84 1899.17,-48.97 1903.48,-58.64 1908.57,-53.84"/>
</g>
<!-- 224 -->
<g id="node31" class="node">
<title>224</title>
<polygon fill="darkseagreen" stroke="black" points="1943,-52 1917,-52 1917,-16 1943,-16 1943,-52"/>
<text text-anchor="middle" x="1930" y="-30.3" font-family="Times,serif" font-size="14.00">4</text>
</g>
<!-- 12&#45;&gt;224 -->
<g id="edge29" class="edge">
<title>12&#45;&gt;224</title>
<path fill="none" stroke="black" d="M1946.56,-87.7C1944.11,-79.9 1941.16,-70.51 1938.43,-61.83"/>
<polygon fill="black" stroke="black" points="1941.71,-60.59 1935.38,-52.1 1935.04,-62.69 1941.71,-60.59"/>
</g>
<!-- 225 -->
<g id="node32" class="node">
<title>225</title>
<polygon fill="darkseagreen" stroke="black" points="1987,-52 1961,-52 1961,-16 1987,-16 1987,-52"/>
<text text-anchor="middle" x="1974" y="-30.3" font-family="Times,serif" font-size="14.00">5</text>
</g>
<!-- 12&#45;&gt;225 -->
<g id="edge30" class="edge">
<title>12&#45;&gt;225</title>
<path fill="none" stroke="black" d="M1957.44,-87.7C1959.89,-79.9 1962.84,-70.51 1965.57,-61.83"/>
<polygon fill="black" stroke="black" points="1968.96,-62.69 1968.62,-52.1 1962.29,-60.59 1968.96,-62.69"/>
</g>
<!-- 226 -->
<g id="node33" class="node">
<title>226</title>
<polygon fill="darkseagreen" stroke="black" points="2031,-52 2005,-52 2005,-16 2031,-16 2031,-52"/>
<text text-anchor="middle" x="2018" y="-30.3" font-family="Times,serif" font-size="14.00">5</text>
</g>
<!-- 12&#45;&gt;226 -->
<g id="edge31" class="edge">
<title>12&#45;&gt;226</title>
<path fill="none" stroke="black" d="M1967.98,-88.05C1976.98,-78.51 1988.3,-66.5 1997.9,-56.32"/>
<polygon fill="black" stroke="black" points="2000.52,-58.64 2004.83,-48.97 1995.43,-53.84 2000.52,-58.64"/>
</g>
<!-- 228 -->
<g id="node35" class="node">
<title>228</title>
<polygon fill="darkseagreen" stroke="black" points="2075,-52 2049,-52 2049,-16 2075,-16 2075,-52"/>
<text text-anchor="middle" x="2062" y="-30.3" font-family="Times,serif" font-size="14.00">7</text>
</g>
<!-- 12&#45;&gt;228 -->
<g id="edge33" class="edge">
<title>12&#45;&gt;228</title>
<path fill="none" stroke="black" d="M1981.06,-88.63C1998.47,-78.55 2020.86,-65.09 2040,-52 2040.18,-51.88 2040.36,-51.75 2040.54,-51.63"/>
<polygon fill="black" stroke="black" points="2042.67,-54.4 2048.69,-45.68 2038.55,-48.75 2042.67,-54.4"/>
</g>
<!-- 231 -->
<g id="node38" class="node">
<title>231</title>
<polygon fill="darkseagreen" stroke="black" points="2119,-52 2093,-52 2093,-16 2119,-16 2119,-52"/>
<text text-anchor="middle" x="2106" y="-30.3" font-family="Times,serif" font-size="14.00">9</text>
</g>
<!-- 12&#45;&gt;231 -->
<g id="edge36" class="edge">
<title>12&#45;&gt;231</title>
<path fill="none" stroke="black" d="M1998.96,-89.73C2024.85,-80.43 2057.1,-67.4 2084,-52 2084.19,-51.89 2084.38,-51.78 2084.57,-51.67"/>
<polygon fill="black" stroke="black" points="2086.58,-54.54 2092.92,-46.05 2082.67,-48.73 2086.58,-54.54"/>
</g>
<!-- 234 -->
<g id="node41" class="node">
<title>234</title>
<polygon fill="darkseagreen" stroke="black" points="2172.5,-52 2137.5,-52 2137.5,-16 2172.5,-16 2172.5,-52"/>
<text text-anchor="middle" x="2155" y="-30.3" font-family="Times,serif" font-size="14.00">14</text>
</g>
<!-- 12&#45;&gt;234 -->
<g id="edge39" class="edge">
<title>12&#45;&gt;234</title>
<path fill="none" stroke="black" d="M2012.53,-91.09C2047.17,-82.07 2090.97,-68.86 2128,-52 2128.1,-51.96 2128.2,-51.91 2128.29,-51.87"/>
<polygon fill="black" stroke="black" points="2130.18,-54.83 2137.37,-47.04 2126.9,-48.64 2130.18,-54.83"/>
</g>
<!-- 235 -->
<g id="node42" class="node">
<title>235</title>
<polygon fill="darkseagreen" stroke="black" points="2225.5,-52 2190.5,-52 2190.5,-16 2225.5,-16 2225.5,-52"/>
<text text-anchor="middle" x="2208" y="-30.3" font-family="Times,serif" font-size="14.00">15</text>
</g>
<!-- 12&#45;&gt;235 -->
<g id="edge40" class="edge">
<title>12&#45;&gt;235</title>
<path fill="none" stroke="black" d="M2030.34,-93.56C2075.53,-85.33 2132.78,-72.08 2181,-52 2181.1,-51.96 2181.2,-51.92 2181.3,-51.88"/>
<polygon fill="black" stroke="black" points="2183.12,-54.87 2190.45,-47.22 2179.95,-48.64 2183.12,-54.87"/>
</g>
<!-- 240 -->
<g id="node47" class="node">
<title>240</title>
<polygon fill="darkseagreen" stroke="black" points="2278.5,-52 2243.5,-52 2243.5,-16 2278.5,-16 2278.5,-52"/>
<text text-anchor="middle" x="2261" y="-30.3" font-family="Times,serif" font-size="14.00">31</text>
</g>
<!-- 12&#45;&gt;240 -->
<g id="edge45" class="edge">
<title>12&#45;&gt;240</title>
<path fill="none" stroke="black" d="M2044.27,-96.52C2100.55,-89.2 2173.13,-75.88 2234,-52 2234.1,-51.96 2234.2,-51.92 2234.3,-51.88"/>
<polygon fill="black" stroke="black" points="2236.08,-54.9 2243.49,-47.33 2232.98,-48.63 2236.08,-54.9"/>
</g>
<!-- 246 -->
<g id="node53" class="node">
<title>246</title>
<polygon fill="darkseagreen" stroke="black" points="2369,-52 2297,-52 2297,-16 2369,-16 2369,-52"/>
<text text-anchor="middle" x="2333" y="-30.3" font-family="Times,serif" font-size="14.00">311</text>
</g>
<!-- 12&#45;&gt;246 -->
<g id="edge51" class="edge">
<title>12&#45;&gt;246</title>
<path fill="none" stroke="black" d="M2041.15,-95.75C2109.22,-87.52 2204.96,-73.43 2287,-52 2287.1,-51.97 2287.2,-51.95 2287.3,-51.92"/>
<polygon fill="black" stroke="black" points="2288.2,-55.31 2296.8,-49.13 2286.22,-48.59 2288.2,-55.31"/>
</g>
<!-- 248 -->
<g id="node55" class="node">
<title>248</title>
<polygon fill="darkseagreen" stroke="black" points="2459,-52 2387,-52 2387,-16 2459,-16 2459,-52"/>
<text text-anchor="middle" x="2423" y="-30.3" font-family="Times,serif" font-size="14.00">375</text>
</g>
<!-- 12&#45;&gt;248 -->
<g id="edge53" class="edge">
<title>12&#45;&gt;248</title>
<path fill="none" stroke="black" d="M2052.21,-99.27C2136.94,-92.88 2261.37,-79.85 2377.14,-51.88"/>
<polygon fill="black" stroke="black" points="2378.01,-55.27 2386.89,-49.49 2376.34,-48.47 2378.01,-55.27"/>
</g>
<!-- legend_2 -->
<g id="node56" class="node">
<title>legend_2</title>
<polygon fill="darkseagreen" stroke="black" points="2698.5,-52 2477.5,-52 2477.5,-16 2698.5,-16 2698.5,-52"/>
<text text-anchor="middle" x="2588" y="-30.3" font-family="Times,serif" font-size="14.00">DT=6 ST=1 Similarity=0.53</text>
</g>
<!-- legend_1&#45;&gt;legend_2 -->
<g id="edge54" class="edge">
<title>legend_1&#45;&gt;legend_2</title>
<path fill="none" stroke="black" d="M2588,-87.7C2588,-79.98 2588,-70.71 2588,-62.11"/>
<polygon fill="black" stroke="black" points="2591.5,-62.1 2588,-52.1 2584.5,-62.1 2591.5,-62.1"/>
</g>
</g>
</svg>
