<?xml version="1.0" encoding="UTF-8" standalone="no"?>
<!DOCTYPE svg PUBLIC "-//W3C//DTD SVG 1.1//EN"
 "http://www.w3.org/Graphics/SVG/1.1/DTD/svg11.dtd">
<!-- Generated by graphviz version 2.43.0 (0)
 -->
<!-- Title: %3 Pages: 1 -->
<svg width="2608pt" height="209pt"
 viewBox="0.00 0.00 2608.00 209.00" xmlns="http://www.w3.org/2000/svg" xmlns:xlink="http://www.w3.org/1999/xlink">
<g id="graph0" class="graph" transform="scale(1 1) rotate(0) translate(4 205)">
<title>%3</title>
<polygon fill="white" stroke="transparent" points="-4,4 -4,-205 2604,-205 2604,4 -4,4"/>
<text text-anchor="middle" x="1300" y="-185.8" font-family="Times,serif" font-size="14.00">ConsTree</text>
<text text-anchor="middle" x="1300" y="-170.8" font-family="Times,serif" font-size="14.00">Tree Quality = 0.33333333333333337</text>
<g id="clust1" class="cluster">
<title>cluster</title>
<polygon fill="none" stroke="black" points="2356,-8 2356,-155 2592,-155 2592,-8 2356,-8"/>
<text text-anchor="middle" x="2474" y="-139.8" font-family="Times,serif" font-size="14.00">Legend</text>
</g>
<!-- 00 -->
<g id="node1" class="node">
<title>00</title>
<ellipse fill="#b9d3ee" stroke="black" cx="1003" cy="-106" rx="324" ry="18"/>
<text text-anchor="middle" x="1003" y="-102.3" font-family="Times,serif" font-size="14.00">2000</text>
</g>
<!-- 10 -->
<g id="node3" class="node">
<title>10</title>
<polygon fill="darkseagreen" stroke="black" points="26,-52 0,-52 0,-16 26,-16 26,-52"/>
<text text-anchor="middle" x="13" y="-30.3" font-family="Times,serif" font-size="14.00">1</text>
</g>
<!-- 00&#45;&gt;10 -->
<g id="edge1" class="edge">
<title>00&#45;&gt;10</title>
<path fill="none" stroke="black" d="M713.74,-97.85C451.71,-89.95 97.33,-75.2 35,-52 34.9,-51.96 34.81,-51.93 34.71,-51.89"/>
<polygon fill="black" stroke="black" points="36.64,-48.96 26.19,-47.19 33.25,-55.08 36.64,-48.96"/>
</g>
<!-- 11 -->
<g id="node4" class="node">
<title>11</title>
<polygon fill="darkseagreen" stroke="black" points="70,-52 44,-52 44,-16 70,-16 70,-52"/>
<text text-anchor="middle" x="57" y="-30.3" font-family="Times,serif" font-size="14.00">1</text>
</g>
<!-- 00&#45;&gt;11 -->
<g id="edge2" class="edge">
<title>00&#45;&gt;11</title>
<path fill="none" stroke="black" d="M720.04,-97.2C470.63,-88.94 137.94,-74.02 79,-52 78.9,-51.96 78.81,-51.93 78.71,-51.89"/>
<polygon fill="black" stroke="black" points="80.64,-48.96 70.19,-47.18 77.25,-55.08 80.64,-48.96"/>
</g>
<!-- 12 -->
<g id="node5" class="node">
<title>12</title>
<polygon fill="darkseagreen" stroke="black" points="114,-52 88,-52 88,-16 114,-16 114,-52"/>
<text text-anchor="middle" x="101" y="-30.3" font-family="Times,serif" font-size="14.00">1</text>
</g>
<!-- 00&#45;&gt;12 -->
<g id="edge3" class="edge">
<title>00&#45;&gt;12</title>
<path fill="none" stroke="black" d="M727.23,-96.53C490.42,-87.92 178.62,-72.87 123,-52 122.9,-51.96 122.81,-51.93 122.71,-51.89"/>
<polygon fill="black" stroke="black" points="124.64,-48.96 114.2,-47.17 121.25,-55.08 124.64,-48.96"/>
</g>
<!-- 13 -->
<g id="node6" class="node">
<title>13</title>
<polygon fill="darkseagreen" stroke="black" points="158,-52 132,-52 132,-16 158,-16 158,-52"/>
<text text-anchor="middle" x="145" y="-30.3" font-family="Times,serif" font-size="14.00">1</text>
</g>
<!-- 00&#45;&gt;13 -->
<g id="edge4" class="edge">
<title>00&#45;&gt;13</title>
<path fill="none" stroke="black" d="M681.09,-103.89C486.52,-99.49 258.89,-86.65 167,-52 166.9,-51.96 166.81,-51.93 166.71,-51.89"/>
<polygon fill="black" stroke="black" points="168.64,-48.96 158.2,-47.17 165.24,-55.08 168.64,-48.96"/>
</g>
<!-- 14 -->
<g id="node7" class="node">
<title>14</title>
<polygon fill="darkseagreen" stroke="black" points="202,-52 176,-52 176,-16 202,-16 202,-52"/>
<text text-anchor="middle" x="189" y="-30.3" font-family="Times,serif" font-size="14.00">1</text>
</g>
<!-- 00&#45;&gt;14 -->
<g id="edge5" class="edge">
<title>00&#45;&gt;14</title>
<path fill="none" stroke="black" d="M685.42,-102.43C503.96,-97.32 296.05,-84.24 211,-52 210.9,-51.96 210.81,-51.93 210.71,-51.89"/>
<polygon fill="black" stroke="black" points="212.64,-48.96 202.2,-47.16 209.24,-55.08 212.64,-48.96"/>
</g>
<!-- 15 -->
<g id="node8" class="node">
<title>15</title>
<polygon fill="darkseagreen" stroke="black" points="246,-52 220,-52 220,-16 246,-16 246,-52"/>
<text text-anchor="middle" x="233" y="-30.3" font-family="Times,serif" font-size="14.00">1</text>
</g>
<!-- 00&#45;&gt;15 -->
<g id="edge6" class="edge">
<title>00&#45;&gt;15</title>
<path fill="none" stroke="black" d="M691.8,-100.92C523.15,-95.17 333.54,-81.95 255,-52 254.9,-51.96 254.81,-51.93 254.71,-51.89"/>
<polygon fill="black" stroke="black" points="256.64,-48.96 246.21,-47.15 253.24,-55.07 256.64,-48.96"/>
</g>
<!-- 16 -->
<g id="node9" class="node">
<title>16</title>
<polygon fill="darkseagreen" stroke="black" points="290,-52 264,-52 264,-16 290,-16 290,-52"/>
<text text-anchor="middle" x="277" y="-30.3" font-family="Times,serif" font-size="14.00">1</text>
</g>
<!-- 00&#45;&gt;16 -->
<g id="edge7" class="edge">
<title>00&#45;&gt;16</title>
<path fill="none" stroke="black" d="M701.3,-99.4C544.81,-93.1 371.52,-79.84 299,-52 298.9,-51.96 298.81,-51.93 298.71,-51.89"/>
<polygon fill="black" stroke="black" points="300.65,-48.96 290.21,-47.14 297.23,-55.07 300.65,-48.96"/>
</g>
<!-- 17 -->
<g id="node10" class="node">
<title>17</title>
<polygon fill="darkseagreen" stroke="black" points="334,-52 308,-52 308,-16 334,-16 334,-52"/>
<text text-anchor="middle" x="321" y="-30.3" font-family="Times,serif" font-size="14.00">1</text>
</g>
<!-- 00&#45;&gt;17 -->
<g id="edge8" class="edge">
<title>00&#45;&gt;17</title>
<path fill="none" stroke="black" d="M713.61,-97.91C568.62,-91.13 409.94,-77.89 343,-52 342.9,-51.96 342.81,-51.93 342.71,-51.89"/>
<polygon fill="black" stroke="black" points="344.65,-48.96 334.21,-47.12 341.23,-55.07 344.65,-48.96"/>
</g>
<!-- 18 -->
<g id="node11" class="node">
<title>18</title>
<polygon fill="darkseagreen" stroke="black" points="378,-52 352,-52 352,-16 378,-16 378,-52"/>
<text text-anchor="middle" x="365" y="-30.3" font-family="Times,serif" font-size="14.00">1</text>
</g>
<!-- 00&#45;&gt;18 -->
<g id="edge9" class="edge">
<title>00&#45;&gt;18</title>
<path fill="none" stroke="black" d="M727.98,-96.44C593.99,-89.24 448.69,-76.06 387,-52 386.9,-51.96 386.81,-51.92 386.71,-51.89"/>
<polygon fill="black" stroke="black" points="388.65,-48.96 378.22,-47.11 385.22,-55.06 388.65,-48.96"/>
</g>
<!-- 19 -->
<g id="node12" class="node">
<title>19</title>
<polygon fill="darkseagreen" stroke="black" points="422,-52 396,-52 396,-16 422,-16 422,-52"/>
<text text-anchor="middle" x="409" y="-30.3" font-family="Times,serif" font-size="14.00">1</text>
</g>
<!-- 00&#45;&gt;19 -->
<g id="edge10" class="edge">
<title>00&#45;&gt;19</title>
<path fill="none" stroke="black" d="M745.33,-95.08C621.53,-87.51 487.9,-74.4 431,-52 430.9,-51.96 430.81,-51.92 430.71,-51.89"/>
<polygon fill="black" stroke="black" points="432.66,-48.96 422.23,-47.09 429.21,-55.06 432.66,-48.96"/>
</g>
<!-- 110 -->
<g id="node13" class="node">
<title>110</title>
<polygon fill="darkseagreen" stroke="black" points="466,-52 440,-52 440,-16 466,-16 466,-52"/>
<text text-anchor="middle" x="453" y="-30.3" font-family="Times,serif" font-size="14.00">1</text>
</g>
<!-- 00&#45;&gt;110 -->
<g id="edge11" class="edge">
<title>00&#45;&gt;110</title>
<path fill="none" stroke="black" d="M764.41,-93.8C650.33,-85.88 527.37,-72.85 475,-52 474.9,-51.96 474.81,-51.92 474.71,-51.88"/>
<polygon fill="black" stroke="black" points="476.66,-48.96 466.23,-47.07 473.21,-55.05 476.66,-48.96"/>
</g>
<!-- 111 -->
<g id="node14" class="node">
<title>111</title>
<polygon fill="darkseagreen" stroke="black" points="510,-52 484,-52 484,-16 510,-16 510,-52"/>
<text text-anchor="middle" x="497" y="-30.3" font-family="Times,serif" font-size="14.00">1</text>
</g>
<!-- 00&#45;&gt;111 -->
<g id="edge12" class="edge">
<title>00&#45;&gt;111</title>
<path fill="none" stroke="black" d="M785.22,-92.65C680.36,-84.39 567.11,-71.41 519,-52 518.9,-51.96 518.81,-51.92 518.71,-51.88"/>
<polygon fill="black" stroke="black" points="520.66,-48.97 510.24,-47.05 517.2,-55.05 520.66,-48.97"/>
</g>
<!-- 112 -->
<g id="node15" class="node">
<title>112</title>
<polygon fill="darkseagreen" stroke="black" points="554,-52 528,-52 528,-16 554,-16 554,-52"/>
<text text-anchor="middle" x="541" y="-30.3" font-family="Times,serif" font-size="14.00">1</text>
</g>
<!-- 00&#45;&gt;112 -->
<g id="edge13" class="edge">
<title>00&#45;&gt;112</title>
<path fill="none" stroke="black" d="M807.32,-91.63C711.33,-83.03 607.05,-70.05 563,-52 562.91,-51.96 562.81,-51.92 562.72,-51.88"/>
<polygon fill="black" stroke="black" points="564.67,-48.97 554.25,-47.03 561.18,-55.04 564.67,-48.97"/>
</g>
<!-- 113 -->
<g id="node16" class="node">
<title>113</title>
<polygon fill="darkseagreen" stroke="black" points="598,-52 572,-52 572,-16 598,-16 598,-52"/>
<text text-anchor="middle" x="585" y="-30.3" font-family="Times,serif" font-size="14.00">1</text>
</g>
<!-- 00&#45;&gt;113 -->
<g id="edge14" class="edge">
<title>00&#45;&gt;113</title>
<path fill="none" stroke="black" d="M830.25,-90.77C742.93,-81.81 647.13,-68.75 607,-52 606.91,-51.96 606.81,-51.92 606.72,-51.88"/>
<polygon fill="black" stroke="black" points="608.68,-48.97 598.27,-46.99 605.17,-55.03 608.68,-48.97"/>
</g>
<!-- 114 -->
<g id="node17" class="node">
<title>114</title>
<polygon fill="darkseagreen" stroke="black" points="642,-52 616,-52 616,-16 642,-16 642,-52"/>
<text text-anchor="middle" x="629" y="-30.3" font-family="Times,serif" font-size="14.00">1</text>
</g>
<!-- 00&#45;&gt;114 -->
<g id="edge15" class="edge">
<title>00&#45;&gt;114</title>
<path fill="none" stroke="black" d="M798.03,-91.98C748.53,-84.03 696.75,-71.54 651,-52 650.91,-51.96 650.81,-51.92 650.72,-51.88"/>
<polygon fill="black" stroke="black" points="652.68,-48.97 642.28,-46.95 649.15,-55.02 652.68,-48.97"/>
</g>
<!-- 115 -->
<g id="node18" class="node">
<title>115</title>
<polygon fill="darkseagreen" stroke="black" points="686,-52 660,-52 660,-16 686,-16 686,-52"/>
<text text-anchor="middle" x="673" y="-30.3" font-family="Times,serif" font-size="14.00">2</text>
</g>
<!-- 00&#45;&gt;115 -->
<g id="edge16" class="edge">
<title>00&#45;&gt;115</title>
<path fill="none" stroke="black" d="M832.03,-90.7C786.21,-82.85 737.59,-70.72 695,-52 694.91,-51.96 694.81,-51.92 694.72,-51.87"/>
<polygon fill="black" stroke="black" points="696.7,-48.98 686.31,-46.9 693.13,-55 696.7,-48.98"/>
</g>
<!-- 116 -->
<g id="node19" class="node">
<title>116</title>
<polygon fill="darkseagreen" stroke="black" points="730,-52 704,-52 704,-16 730,-16 730,-52"/>
<text text-anchor="middle" x="717" y="-30.3" font-family="Times,serif" font-size="14.00">2</text>
</g>
<!-- 00&#45;&gt;116 -->
<g id="edge17" class="edge">
<title>00&#45;&gt;116</title>
<path fill="none" stroke="black" d="M865.3,-89.66C823.47,-81.78 778.23,-69.9 739,-52 738.91,-51.96 738.81,-51.91 738.72,-51.87"/>
<polygon fill="black" stroke="black" points="740.71,-48.98 730.34,-46.83 737.11,-54.98 740.71,-48.98"/>
</g>
<!-- 117 -->
<g id="node20" class="node">
<title>117</title>
<polygon fill="darkseagreen" stroke="black" points="774,-52 748,-52 748,-16 774,-16 774,-52"/>
<text text-anchor="middle" x="761" y="-30.3" font-family="Times,serif" font-size="14.00">2</text>
</g>
<!-- 00&#45;&gt;117 -->
<g id="edge18" class="edge">
<title>00&#45;&gt;117</title>
<path fill="none" stroke="black" d="M897.22,-88.93C859.95,-80.85 818.51,-69.03 783,-52 782.91,-51.96 782.82,-51.91 782.72,-51.87"/>
<polygon fill="black" stroke="black" points="784.73,-48.99 774.38,-46.74 781.07,-54.96 784.73,-48.99"/>
</g>
<!-- 118 -->
<g id="node21" class="node">
<title>118</title>
<polygon fill="darkseagreen" stroke="black" points="818,-52 792,-52 792,-16 818,-16 818,-52"/>
<text text-anchor="middle" x="805" y="-30.3" font-family="Times,serif" font-size="14.00">2</text>
</g>
<!-- 00&#45;&gt;118 -->
<g id="edge19" class="edge">
<title>00&#45;&gt;118</title>
<path fill="none" stroke="black" d="M926.58,-88.5C894.76,-79.99 858.07,-67.99 827,-52 826.91,-51.95 826.82,-51.91 826.73,-51.86"/>
<polygon fill="black" stroke="black" points="828.77,-49.01 818.45,-46.61 825.02,-54.92 828.77,-49.01"/>
</g>
<!-- 119 -->
<g id="node22" class="node">
<title>119</title>
<polygon fill="darkseagreen" stroke="black" points="862,-52 836,-52 836,-16 862,-16 862,-52"/>
<text text-anchor="middle" x="849" y="-30.3" font-family="Times,serif" font-size="14.00">3</text>
</g>
<!-- 00&#45;&gt;119 -->
<g id="edge20" class="edge">
<title>00&#45;&gt;119</title>
<path fill="none" stroke="black" d="M951.65,-88.14C926.57,-78.97 896.4,-66.54 871,-52 870.81,-51.89 870.62,-51.78 870.43,-51.67"/>
<polygon fill="black" stroke="black" points="872.33,-48.73 862.08,-46.05 868.42,-54.54 872.33,-48.73"/>
</g>
<!-- 120 -->
<g id="node23" class="node">
<title>120</title>
<polygon fill="darkseagreen" stroke="black" points="906,-52 880,-52 880,-16 906,-16 906,-52"/>
<text text-anchor="middle" x="893" y="-30.3" font-family="Times,serif" font-size="14.00">4</text>
</g>
<!-- 00&#45;&gt;120 -->
<g id="edge21" class="edge">
<title>00&#45;&gt;120</title>
<path fill="none" stroke="black" d="M972.72,-87.93C955.5,-77.93 933.69,-64.79 915,-52 914.82,-51.88 914.64,-51.75 914.46,-51.63"/>
<polygon fill="black" stroke="black" points="916.45,-48.75 906.31,-45.68 912.33,-54.4 916.45,-48.75"/>
</g>
<!-- 121 -->
<g id="node24" class="node">
<title>121</title>
<polygon fill="darkseagreen" stroke="black" points="950,-52 924,-52 924,-16 950,-16 950,-52"/>
<text text-anchor="middle" x="937" y="-30.3" font-family="Times,serif" font-size="14.00">5</text>
</g>
<!-- 00&#45;&gt;121 -->
<g id="edge22" class="edge">
<title>00&#45;&gt;121</title>
<path fill="none" stroke="black" d="M986.69,-87.7C977.68,-78.15 966.43,-66.21 956.91,-56.12"/>
<polygon fill="black" stroke="black" points="959.44,-53.7 950.03,-48.82 954.35,-58.5 959.44,-53.7"/>
</g>
<!-- 122 -->
<g id="node25" class="node">
<title>122</title>
<polygon fill="darkseagreen" stroke="black" points="994,-52 968,-52 968,-16 994,-16 994,-52"/>
<text text-anchor="middle" x="981" y="-30.3" font-family="Times,serif" font-size="14.00">5</text>
</g>
<!-- 00&#45;&gt;122 -->
<g id="edge23" class="edge">
<title>00&#45;&gt;122</title>
<path fill="none" stroke="black" d="M997.56,-87.7C995.11,-79.9 992.16,-70.51 989.43,-61.83"/>
<polygon fill="black" stroke="black" points="992.71,-60.59 986.38,-52.1 986.04,-62.69 992.71,-60.59"/>
</g>
<!-- 123 -->
<g id="node26" class="node">
<title>123</title>
<polygon fill="darkseagreen" stroke="black" points="1038,-52 1012,-52 1012,-16 1038,-16 1038,-52"/>
<text text-anchor="middle" x="1025" y="-30.3" font-family="Times,serif" font-size="14.00">6</text>
</g>
<!-- 00&#45;&gt;123 -->
<g id="edge24" class="edge">
<title>00&#45;&gt;123</title>
<path fill="none" stroke="black" d="M1008.44,-87.7C1010.89,-79.9 1013.84,-70.51 1016.57,-61.83"/>
<polygon fill="black" stroke="black" points="1019.96,-62.69 1019.62,-52.1 1013.29,-60.59 1019.96,-62.69"/>
</g>
<!-- 124 -->
<g id="node27" class="node">
<title>124</title>
<polygon fill="darkseagreen" stroke="black" points="1082,-52 1056,-52 1056,-16 1082,-16 1082,-52"/>
<text text-anchor="middle" x="1069" y="-30.3" font-family="Times,serif" font-size="14.00">6</text>
</g>
<!-- 00&#45;&gt;124 -->
<g id="edge25" class="edge">
<title>00&#45;&gt;124</title>
<path fill="none" stroke="black" d="M1019.31,-87.7C1028.32,-78.15 1039.57,-66.21 1049.09,-56.12"/>
<polygon fill="black" stroke="black" points="1051.65,-58.5 1055.97,-48.82 1046.56,-53.7 1051.65,-58.5"/>
</g>
<!-- 125 -->
<g id="node28" class="node">
<title>125</title>
<polygon fill="darkseagreen" stroke="black" points="1126,-52 1100,-52 1100,-16 1126,-16 1126,-52"/>
<text text-anchor="middle" x="1113" y="-30.3" font-family="Times,serif" font-size="14.00">6</text>
</g>
<!-- 00&#45;&gt;125 -->
<g id="edge26" class="edge">
<title>00&#45;&gt;125</title>
<path fill="none" stroke="black" d="M1033.28,-87.93C1050.5,-77.93 1072.31,-64.79 1091,-52 1091.18,-51.88 1091.36,-51.75 1091.54,-51.63"/>
<polygon fill="black" stroke="black" points="1093.67,-54.4 1099.69,-45.68 1089.55,-48.75 1093.67,-54.4"/>
</g>
<!-- 126 -->
<g id="node29" class="node">
<title>126</title>
<polygon fill="darkseagreen" stroke="black" points="1170,-52 1144,-52 1144,-16 1170,-16 1170,-52"/>
<text text-anchor="middle" x="1157" y="-30.3" font-family="Times,serif" font-size="14.00">6</text>
</g>
<!-- 00&#45;&gt;126 -->
<g id="edge27" class="edge">
<title>00&#45;&gt;126</title>
<path fill="none" stroke="black" d="M1054.35,-88.14C1079.43,-78.97 1109.6,-66.54 1135,-52 1135.19,-51.89 1135.38,-51.78 1135.57,-51.67"/>
<polygon fill="black" stroke="black" points="1137.58,-54.54 1143.92,-46.05 1133.67,-48.73 1137.58,-54.54"/>
</g>
<!-- 127 -->
<g id="node30" class="node">
<title>127</title>
<polygon fill="darkseagreen" stroke="black" points="1214,-52 1188,-52 1188,-16 1214,-16 1214,-52"/>
<text text-anchor="middle" x="1201" y="-30.3" font-family="Times,serif" font-size="14.00">7</text>
</g>
<!-- 00&#45;&gt;127 -->
<g id="edge28" class="edge">
<title>00&#45;&gt;127</title>
<path fill="none" stroke="black" d="M1079.42,-88.5C1111.24,-79.99 1147.93,-67.99 1179,-52 1179.09,-51.95 1179.18,-51.91 1179.27,-51.86"/>
<polygon fill="black" stroke="black" points="1180.98,-54.92 1187.55,-46.61 1177.23,-49.01 1180.98,-54.92"/>
</g>
<!-- 128 -->
<g id="node31" class="node">
<title>128</title>
<polygon fill="darkseagreen" stroke="black" points="1258,-52 1232,-52 1232,-16 1258,-16 1258,-52"/>
<text text-anchor="middle" x="1245" y="-30.3" font-family="Times,serif" font-size="14.00">9</text>
</g>
<!-- 00&#45;&gt;128 -->
<g id="edge29" class="edge">
<title>00&#45;&gt;128</title>
<path fill="none" stroke="black" d="M1108.78,-88.93C1146.05,-80.85 1187.49,-69.03 1223,-52 1223.09,-51.96 1223.18,-51.91 1223.28,-51.87"/>
<polygon fill="black" stroke="black" points="1224.93,-54.96 1231.62,-46.74 1221.27,-48.99 1224.93,-54.96"/>
</g>
<!-- 129 -->
<g id="node32" class="node">
<title>129</title>
<polygon fill="darkseagreen" stroke="black" points="1311.5,-52 1276.5,-52 1276.5,-16 1311.5,-16 1311.5,-52"/>
<text text-anchor="middle" x="1294" y="-30.3" font-family="Times,serif" font-size="14.00">10</text>
</g>
<!-- 00&#45;&gt;129 -->
<g id="edge30" class="edge">
<title>00&#45;&gt;129</title>
<path fill="none" stroke="black" d="M1128.59,-89.38C1173.31,-81.34 1223.37,-69.43 1267,-52 1267.1,-51.96 1267.2,-51.92 1267.3,-51.88"/>
<polygon fill="black" stroke="black" points="1269.09,-54.89 1276.48,-47.3 1265.97,-48.63 1269.09,-54.89"/>
</g>
<!-- 130 -->
<g id="node33" class="node">
<title>130</title>
<polygon fill="darkseagreen" stroke="black" points="1364.5,-52 1329.5,-52 1329.5,-16 1364.5,-16 1364.5,-52"/>
<text text-anchor="middle" x="1347" y="-30.3" font-family="Times,serif" font-size="14.00">10</text>
</g>
<!-- 00&#45;&gt;130 -->
<g id="edge31" class="edge">
<title>00&#45;&gt;130</title>
<path fill="none" stroke="black" d="M1165.5,-90.42C1216.11,-82.57 1271.37,-70.51 1320,-52 1320.1,-51.96 1320.19,-51.93 1320.29,-51.89"/>
<polygon fill="black" stroke="black" points="1321.75,-55.07 1329.22,-47.56 1318.69,-48.77 1321.75,-55.07"/>
</g>
<!-- 131 -->
<g id="node34" class="node">
<title>131</title>
<polygon fill="darkseagreen" stroke="black" points="1417.5,-52 1382.5,-52 1382.5,-16 1417.5,-16 1417.5,-52"/>
<text text-anchor="middle" x="1400" y="-30.3" font-family="Times,serif" font-size="14.00">11</text>
</g>
<!-- 00&#45;&gt;131 -->
<g id="edge32" class="edge">
<title>00&#45;&gt;131</title>
<path fill="none" stroke="black" d="M1203.6,-91.79C1259.61,-83.97 1319.7,-71.58 1373,-52 1373.1,-51.96 1373.19,-51.93 1373.29,-51.89"/>
<polygon fill="black" stroke="black" points="1374.72,-55.09 1382.24,-47.62 1371.71,-48.77 1374.72,-55.09"/>
</g>
<!-- 132 -->
<g id="node35" class="node">
<title>132</title>
<polygon fill="darkseagreen" stroke="black" points="1470.5,-52 1435.5,-52 1435.5,-16 1470.5,-16 1470.5,-52"/>
<text text-anchor="middle" x="1453" y="-30.3" font-family="Times,serif" font-size="14.00">12</text>
</g>
<!-- 00&#45;&gt;132 -->
<g id="edge33" class="edge">
<title>00&#45;&gt;132</title>
<path fill="none" stroke="black" d="M1239.98,-93.71C1301.79,-85.82 1367.46,-72.93 1426,-52 1426.1,-51.97 1426.2,-51.93 1426.29,-51.89"/>
<polygon fill="black" stroke="black" points="1427.7,-55.1 1435.26,-47.67 1424.72,-48.77 1427.7,-55.1"/>
</g>
<!-- 133 -->
<g id="node36" class="node">
<title>133</title>
<polygon fill="darkseagreen" stroke="black" points="1523.5,-52 1488.5,-52 1488.5,-16 1523.5,-16 1523.5,-52"/>
<text text-anchor="middle" x="1506" y="-30.3" font-family="Times,serif" font-size="14.00">16</text>
</g>
<!-- 00&#45;&gt;133 -->
<g id="edge34" class="edge">
<title>00&#45;&gt;133</title>
<path fill="none" stroke="black" d="M1202.08,-91.78C1308.84,-82.92 1428.57,-69.63 1479,-52 1479.1,-51.97 1479.2,-51.93 1479.29,-51.9"/>
<polygon fill="black" stroke="black" points="1480.69,-55.11 1488.27,-47.71 1477.73,-48.76 1480.69,-55.11"/>
</g>
<!-- 134 -->
<g id="node37" class="node">
<title>134</title>
<polygon fill="darkseagreen" stroke="black" points="1576.5,-52 1541.5,-52 1541.5,-16 1576.5,-16 1576.5,-52"/>
<text text-anchor="middle" x="1559" y="-30.3" font-family="Times,serif" font-size="14.00">16</text>
</g>
<!-- 00&#45;&gt;134 -->
<g id="edge35" class="edge">
<title>00&#45;&gt;134</title>
<path fill="none" stroke="black" d="M1225.6,-92.89C1343.88,-84.44 1476.13,-71.19 1532,-52 1532.1,-51.97 1532.2,-51.93 1532.29,-51.9"/>
<polygon fill="black" stroke="black" points="1533.68,-55.11 1541.28,-47.74 1530.74,-48.76 1533.68,-55.11"/>
</g>
<!-- 135 -->
<g id="node38" class="node">
<title>135</title>
<polygon fill="darkseagreen" stroke="black" points="1629.5,-52 1594.5,-52 1594.5,-16 1629.5,-16 1629.5,-52"/>
<text text-anchor="middle" x="1612" y="-30.3" font-family="Times,serif" font-size="14.00">17</text>
</g>
<!-- 00&#45;&gt;135 -->
<g id="edge36" class="edge">
<title>00&#45;&gt;135</title>
<path fill="none" stroke="black" d="M1247.11,-94.16C1377.42,-86.12 1523.37,-72.86 1585,-52 1585.1,-51.97 1585.2,-51.93 1585.3,-51.9"/>
<polygon fill="black" stroke="black" points="1586.67,-55.12 1594.29,-47.76 1583.74,-48.76 1586.67,-55.12"/>
</g>
<!-- 136 -->
<g id="node39" class="node">
<title>136</title>
<polygon fill="darkseagreen" stroke="black" points="1682.5,-52 1647.5,-52 1647.5,-16 1682.5,-16 1682.5,-52"/>
<text text-anchor="middle" x="1665" y="-30.3" font-family="Times,serif" font-size="14.00">26</text>
</g>
<!-- 00&#45;&gt;136 -->
<g id="edge37" class="edge">
<title>00&#45;&gt;136</title>
<path fill="none" stroke="black" d="M1266.81,-95.51C1409.62,-87.9 1570.33,-74.62 1638,-52 1638.1,-51.97 1638.2,-51.93 1638.3,-51.9"/>
<polygon fill="black" stroke="black" points="1639.66,-55.13 1647.3,-47.78 1636.75,-48.76 1639.66,-55.13"/>
</g>
<!-- 137 -->
<g id="node40" class="node">
<title>137</title>
<polygon fill="darkseagreen" stroke="black" points="1735.5,-52 1700.5,-52 1700.5,-16 1735.5,-16 1735.5,-52"/>
<text text-anchor="middle" x="1718" y="-30.3" font-family="Times,serif" font-size="14.00">33</text>
</g>
<!-- 00&#45;&gt;137 -->
<g id="edge38" class="edge">
<title>00&#45;&gt;137</title>
<path fill="none" stroke="black" d="M1283.42,-96.97C1439.45,-89.84 1616.79,-76.54 1691,-52 1691.1,-51.97 1691.2,-51.93 1691.3,-51.9"/>
<polygon fill="black" stroke="black" points="1692.65,-55.13 1700.3,-47.8 1689.75,-48.76 1692.65,-55.13"/>
</g>
<!-- 138 -->
<g id="node41" class="node">
<title>138</title>
<polygon fill="darkseagreen" stroke="black" points="1788.5,-52 1753.5,-52 1753.5,-16 1788.5,-16 1788.5,-52"/>
<text text-anchor="middle" x="1771" y="-30.3" font-family="Times,serif" font-size="14.00">39</text>
</g>
<!-- 00&#45;&gt;138 -->
<g id="edge39" class="edge">
<title>00&#45;&gt;138</title>
<path fill="none" stroke="black" d="M1297.76,-98.46C1467.52,-91.85 1662.88,-78.58 1744,-52 1744.1,-51.97 1744.2,-51.93 1744.3,-51.9"/>
<polygon fill="black" stroke="black" points="1745.65,-55.13 1753.31,-47.82 1742.76,-48.76 1745.65,-55.13"/>
</g>
<!-- 139 -->
<g id="node42" class="node">
<title>139</title>
<polygon fill="darkseagreen" stroke="black" points="1841.5,-52 1806.5,-52 1806.5,-16 1841.5,-16 1841.5,-52"/>
<text text-anchor="middle" x="1824" y="-30.3" font-family="Times,serif" font-size="14.00">44</text>
</g>
<!-- 00&#45;&gt;139 -->
<g id="edge40" class="edge">
<title>00&#45;&gt;139</title>
<path fill="none" stroke="black" d="M1308.54,-99.98C1492.76,-93.97 1708.4,-80.8 1797,-52 1797.1,-51.97 1797.2,-51.94 1797.3,-51.9"/>
<polygon fill="black" stroke="black" points="1798.64,-55.14 1806.31,-47.83 1795.76,-48.76 1798.64,-55.14"/>
</g>
<!-- 140 -->
<g id="node43" class="node">
<title>140</title>
<polygon fill="darkseagreen" stroke="black" points="1894.5,-52 1859.5,-52 1859.5,-16 1894.5,-16 1894.5,-52"/>
<text text-anchor="middle" x="1877" y="-30.3" font-family="Times,serif" font-size="14.00">66</text>
</g>
<!-- 00&#45;&gt;140 -->
<g id="edge41" class="edge">
<title>00&#45;&gt;140</title>
<path fill="none" stroke="black" d="M1316.66,-101.47C1515.76,-96.13 1753.47,-83.16 1850,-52 1850.1,-51.97 1850.2,-51.94 1850.3,-51.9"/>
<polygon fill="black" stroke="black" points="1851.64,-55.14 1859.32,-47.84 1848.76,-48.76 1851.64,-55.14"/>
</g>
<!-- 141 -->
<g id="node44" class="node">
<title>141</title>
<polygon fill="darkseagreen" stroke="black" points="1985,-52 1913,-52 1913,-16 1985,-16 1985,-52"/>
<text text-anchor="middle" x="1949" y="-30.3" font-family="Times,serif" font-size="14.00">261</text>
</g>
<!-- 00&#45;&gt;141 -->
<g id="edge42" class="edge">
<title>00&#45;&gt;141</title>
<path fill="none" stroke="black" d="M1287.31,-97.35C1506.06,-89.77 1789.54,-75.76 1903,-52 1903.1,-51.98 1903.2,-51.96 1903.3,-51.94"/>
<polygon fill="black" stroke="black" points="1904.07,-55.35 1912.88,-49.47 1902.33,-48.57 1904.07,-55.35"/>
</g>
<!-- 142 -->
<g id="node45" class="node">
<title>142</title>
<polygon fill="darkseagreen" stroke="black" points="2075,-52 2003,-52 2003,-16 2075,-16 2075,-52"/>
<text text-anchor="middle" x="2039" y="-30.3" font-family="Times,serif" font-size="14.00">307</text>
</g>
<!-- 00&#45;&gt;142 -->
<g id="edge43" class="edge">
<title>00&#45;&gt;142</title>
<path fill="none" stroke="black" d="M1302.14,-99.08C1539.11,-92.56 1851.66,-79.41 1993.06,-51.73"/>
<polygon fill="black" stroke="black" points="1993.84,-55.15 2002.94,-49.71 1992.44,-48.29 1993.84,-55.15"/>
</g>
<!-- 143 -->
<g id="node46" class="node">
<title>143</title>
<polygon fill="darkseagreen" stroke="black" points="2165,-52 2093,-52 2093,-16 2165,-16 2165,-52"/>
<text text-anchor="middle" x="2129" y="-30.3" font-family="Times,serif" font-size="14.00">315</text>
</g>
<!-- 00&#45;&gt;143 -->
<g id="edge44" class="edge">
<title>00&#45;&gt;143</title>
<path fill="none" stroke="black" d="M1312,-100.53C1572.74,-94.84 1926.48,-82.09 2082.92,-51.75"/>
<polygon fill="black" stroke="black" points="2083.83,-55.14 2092.94,-49.73 2082.45,-48.28 2083.83,-55.14"/>
</g>
<!-- 144 -->
<g id="node47" class="node">
<title>144</title>
<polygon fill="darkseagreen" stroke="black" points="2255,-52 2183,-52 2183,-16 2255,-16 2255,-52"/>
<text text-anchor="middle" x="2219" y="-30.3" font-family="Times,serif" font-size="14.00">342</text>
</g>
<!-- 00&#45;&gt;144 -->
<g id="edge45" class="edge">
<title>00&#45;&gt;144</title>
<path fill="none" stroke="black" d="M1318.58,-101.89C1603.01,-97.09 2000.89,-84.88 2172.93,-51.75"/>
<polygon fill="black" stroke="black" points="2173.83,-55.14 2182.94,-49.74 2172.45,-48.27 2173.83,-55.14"/>
</g>
<!-- 145 -->
<g id="node48" class="node">
<title>145</title>
<polygon fill="darkseagreen" stroke="black" points="2345,-52 2273,-52 2273,-16 2345,-16 2345,-52"/>
<text text-anchor="middle" x="2309" y="-30.3" font-family="Times,serif" font-size="14.00">395</text>
</g>
<!-- 00&#45;&gt;145 -->
<g id="edge46" class="edge">
<title>00&#45;&gt;145</title>
<path fill="none" stroke="black" d="M1322.95,-103.12C1630.77,-99.26 2075.1,-87.76 2263.1,-51.71"/>
<polygon fill="black" stroke="black" points="2263.82,-55.14 2272.95,-49.75 2262.45,-48.27 2263.82,-55.14"/>
</g>
<!-- legend_0 -->
<g id="node2" class="node">
<title>legend_0</title>
<polygon fill="#b9d3ee" stroke="black" points="2584.5,-124 2363.5,-124 2363.5,-88 2584.5,-88 2584.5,-124"/>
<text text-anchor="middle" x="2474" y="-102.3" font-family="Times,serif" font-size="14.00">DT=5 ST=5 Similarity=0.28</text>
</g>
<!-- legend_1 -->
<g id="node49" class="node">
<title>legend_1</title>
<polygon fill="darkseagreen" stroke="black" points="2584.5,-52 2363.5,-52 2363.5,-16 2584.5,-16 2584.5,-52"/>
<text text-anchor="middle" x="2474" y="-30.3" font-family="Times,serif" font-size="14.00">DT=6 ST=1 Similarity=0.57</text>
</g>
<!-- legend_0&#45;&gt;legend_1 -->
<g id="edge47" class="edge">
<title>legend_0&#45;&gt;legend_1</title>
<path fill="none" stroke="black" d="M2474,-87.7C2474,-79.98 2474,-70.71 2474,-62.11"/>
<polygon fill="black" stroke="black" points="2477.5,-62.1 2474,-52.1 2470.5,-62.1 2477.5,-62.1"/>
</g>
</g>
</svg>
