<?xml version="1.0" encoding="UTF-8" standalone="no"?>
<!DOCTYPE svg PUBLIC "-//W3C//DTD SVG 1.1//EN"
 "http://www.w3.org/Graphics/SVG/1.1/DTD/svg11.dtd">
<!-- Generated by graphviz version 2.43.0 (0)
 -->
<!-- Title: %3 Pages: 1 -->
<svg width="2237pt" height="209pt"
 viewBox="0.00 0.00 2237.00 209.00" xmlns="http://www.w3.org/2000/svg" xmlns:xlink="http://www.w3.org/1999/xlink">
<g id="graph0" class="graph" transform="scale(1 1) rotate(0) translate(4 205)">
<title>%3</title>
<polygon fill="white" stroke="transparent" points="-4,4 -4,-205 2233,-205 2233,4 -4,4"/>
<text text-anchor="middle" x="1114.5" y="-185.8" font-family="Times,serif" font-size="14.00">ConsTree</text>
<text text-anchor="middle" x="1114.5" y="-170.8" font-family="Times,serif" font-size="14.00">Tree Quality = 0.33333333333333337</text>
<g id="clust1" class="cluster">
<title>cluster</title>
<polygon fill="none" stroke="black" points="1985,-8 1985,-155 2221,-155 2221,-8 1985,-8"/>
<text text-anchor="middle" x="2103" y="-139.8" font-family="Times,serif" font-size="14.00">Legend</text>
</g>
<!-- 00 -->
<g id="node1" class="node">
<title>00</title>
<ellipse fill="#b9d3ee" stroke="black" cx="827" cy="-106" rx="324" ry="18"/>
<text text-anchor="middle" x="827" y="-102.3" font-family="Times,serif" font-size="14.00">2000</text>
</g>
<!-- 10 -->
<g id="node3" class="node">
<title>10</title>
<polygon fill="darkseagreen" stroke="black" points="26,-52 0,-52 0,-16 26,-16 26,-52"/>
<text text-anchor="middle" x="13" y="-30.3" font-family="Times,serif" font-size="14.00">1</text>
</g>
<!-- 00&#45;&gt;10 -->
<g id="edge1" class="edge">
<title>00&#45;&gt;10</title>
<path fill="none" stroke="black" d="M509.42,-102.43C327.96,-97.32 120.05,-84.24 35,-52 34.9,-51.96 34.81,-51.93 34.71,-51.89"/>
<polygon fill="black" stroke="black" points="36.64,-48.96 26.2,-47.16 33.24,-55.08 36.64,-48.96"/>
</g>
<!-- 11 -->
<g id="node4" class="node">
<title>11</title>
<polygon fill="darkseagreen" stroke="black" points="70,-52 44,-52 44,-16 70,-16 70,-52"/>
<text text-anchor="middle" x="57" y="-30.3" font-family="Times,serif" font-size="14.00">1</text>
</g>
<!-- 00&#45;&gt;11 -->
<g id="edge2" class="edge">
<title>00&#45;&gt;11</title>
<path fill="none" stroke="black" d="M515.8,-100.92C347.15,-95.17 157.54,-81.95 79,-52 78.9,-51.96 78.81,-51.93 78.71,-51.89"/>
<polygon fill="black" stroke="black" points="80.64,-48.96 70.21,-47.15 77.24,-55.07 80.64,-48.96"/>
</g>
<!-- 12 -->
<g id="node5" class="node">
<title>12</title>
<polygon fill="darkseagreen" stroke="black" points="114,-52 88,-52 88,-16 114,-16 114,-52"/>
<text text-anchor="middle" x="101" y="-30.3" font-family="Times,serif" font-size="14.00">1</text>
</g>
<!-- 00&#45;&gt;12 -->
<g id="edge3" class="edge">
<title>00&#45;&gt;12</title>
<path fill="none" stroke="black" d="M525.3,-99.4C368.81,-93.1 195.52,-79.84 123,-52 122.9,-51.96 122.81,-51.93 122.71,-51.89"/>
<polygon fill="black" stroke="black" points="124.65,-48.96 114.21,-47.14 121.23,-55.07 124.65,-48.96"/>
</g>
<!-- 13 -->
<g id="node6" class="node">
<title>13</title>
<polygon fill="darkseagreen" stroke="black" points="158,-52 132,-52 132,-16 158,-16 158,-52"/>
<text text-anchor="middle" x="145" y="-30.3" font-family="Times,serif" font-size="14.00">1</text>
</g>
<!-- 00&#45;&gt;13 -->
<g id="edge4" class="edge">
<title>00&#45;&gt;13</title>
<path fill="none" stroke="black" d="M537.61,-97.91C392.62,-91.13 233.94,-77.89 167,-52 166.9,-51.96 166.81,-51.93 166.71,-51.89"/>
<polygon fill="black" stroke="black" points="168.65,-48.96 158.21,-47.12 165.23,-55.07 168.65,-48.96"/>
</g>
<!-- 14 -->
<g id="node7" class="node">
<title>14</title>
<polygon fill="darkseagreen" stroke="black" points="202,-52 176,-52 176,-16 202,-16 202,-52"/>
<text text-anchor="middle" x="189" y="-30.3" font-family="Times,serif" font-size="14.00">1</text>
</g>
<!-- 00&#45;&gt;14 -->
<g id="edge5" class="edge">
<title>00&#45;&gt;14</title>
<path fill="none" stroke="black" d="M551.98,-96.44C417.99,-89.24 272.69,-76.06 211,-52 210.9,-51.96 210.81,-51.92 210.71,-51.89"/>
<polygon fill="black" stroke="black" points="212.65,-48.96 202.22,-47.11 209.22,-55.06 212.65,-48.96"/>
</g>
<!-- 15 -->
<g id="node8" class="node">
<title>15</title>
<polygon fill="darkseagreen" stroke="black" points="246,-52 220,-52 220,-16 246,-16 246,-52"/>
<text text-anchor="middle" x="233" y="-30.3" font-family="Times,serif" font-size="14.00">1</text>
</g>
<!-- 00&#45;&gt;15 -->
<g id="edge6" class="edge">
<title>00&#45;&gt;15</title>
<path fill="none" stroke="black" d="M569.33,-95.08C445.53,-87.51 311.9,-74.4 255,-52 254.9,-51.96 254.81,-51.92 254.71,-51.89"/>
<polygon fill="black" stroke="black" points="256.66,-48.96 246.23,-47.09 253.21,-55.06 256.66,-48.96"/>
</g>
<!-- 16 -->
<g id="node9" class="node">
<title>16</title>
<polygon fill="darkseagreen" stroke="black" points="290,-52 264,-52 264,-16 290,-16 290,-52"/>
<text text-anchor="middle" x="277" y="-30.3" font-family="Times,serif" font-size="14.00">1</text>
</g>
<!-- 00&#45;&gt;16 -->
<g id="edge7" class="edge">
<title>00&#45;&gt;16</title>
<path fill="none" stroke="black" d="M588.41,-93.8C474.33,-85.88 351.37,-72.85 299,-52 298.9,-51.96 298.81,-51.92 298.71,-51.88"/>
<polygon fill="black" stroke="black" points="300.66,-48.96 290.23,-47.07 297.21,-55.05 300.66,-48.96"/>
</g>
<!-- 17 -->
<g id="node10" class="node">
<title>17</title>
<polygon fill="darkseagreen" stroke="black" points="334,-52 308,-52 308,-16 334,-16 334,-52"/>
<text text-anchor="middle" x="321" y="-30.3" font-family="Times,serif" font-size="14.00">2</text>
</g>
<!-- 00&#45;&gt;17 -->
<g id="edge8" class="edge">
<title>00&#45;&gt;17</title>
<path fill="none" stroke="black" d="M609.22,-92.65C504.36,-84.39 391.11,-71.41 343,-52 342.9,-51.96 342.81,-51.92 342.71,-51.88"/>
<polygon fill="black" stroke="black" points="344.66,-48.97 334.24,-47.05 341.2,-55.05 344.66,-48.97"/>
</g>
<!-- 18 -->
<g id="node11" class="node">
<title>18</title>
<polygon fill="darkseagreen" stroke="black" points="378,-52 352,-52 352,-16 378,-16 378,-52"/>
<text text-anchor="middle" x="365" y="-30.3" font-family="Times,serif" font-size="14.00">2</text>
</g>
<!-- 00&#45;&gt;18 -->
<g id="edge9" class="edge">
<title>00&#45;&gt;18</title>
<path fill="none" stroke="black" d="M631.32,-91.63C535.33,-83.03 431.05,-70.05 387,-52 386.91,-51.96 386.81,-51.92 386.72,-51.88"/>
<polygon fill="black" stroke="black" points="388.67,-48.97 378.25,-47.03 385.18,-55.04 388.67,-48.97"/>
</g>
<!-- 19 -->
<g id="node12" class="node">
<title>19</title>
<polygon fill="darkseagreen" stroke="black" points="422,-52 396,-52 396,-16 422,-16 422,-52"/>
<text text-anchor="middle" x="409" y="-30.3" font-family="Times,serif" font-size="14.00">2</text>
</g>
<!-- 00&#45;&gt;19 -->
<g id="edge10" class="edge">
<title>00&#45;&gt;19</title>
<path fill="none" stroke="black" d="M654.25,-90.77C566.93,-81.81 471.13,-68.75 431,-52 430.91,-51.96 430.81,-51.92 430.72,-51.88"/>
<polygon fill="black" stroke="black" points="432.68,-48.97 422.27,-46.99 429.17,-55.03 432.68,-48.97"/>
</g>
<!-- 110 -->
<g id="node13" class="node">
<title>110</title>
<polygon fill="darkseagreen" stroke="black" points="466,-52 440,-52 440,-16 466,-16 466,-52"/>
<text text-anchor="middle" x="453" y="-30.3" font-family="Times,serif" font-size="14.00">2</text>
</g>
<!-- 00&#45;&gt;110 -->
<g id="edge11" class="edge">
<title>00&#45;&gt;110</title>
<path fill="none" stroke="black" d="M622.03,-91.98C572.53,-84.03 520.75,-71.54 475,-52 474.91,-51.96 474.81,-51.92 474.72,-51.88"/>
<polygon fill="black" stroke="black" points="476.68,-48.97 466.28,-46.95 473.15,-55.02 476.68,-48.97"/>
</g>
<!-- 111 -->
<g id="node14" class="node">
<title>111</title>
<polygon fill="darkseagreen" stroke="black" points="510,-52 484,-52 484,-16 510,-16 510,-52"/>
<text text-anchor="middle" x="497" y="-30.3" font-family="Times,serif" font-size="14.00">2</text>
</g>
<!-- 00&#45;&gt;111 -->
<g id="edge12" class="edge">
<title>00&#45;&gt;111</title>
<path fill="none" stroke="black" d="M656.03,-90.7C610.21,-82.85 561.59,-70.72 519,-52 518.91,-51.96 518.81,-51.92 518.72,-51.87"/>
<polygon fill="black" stroke="black" points="520.7,-48.98 510.31,-46.9 517.13,-55 520.7,-48.98"/>
</g>
<!-- 112 -->
<g id="node15" class="node">
<title>112</title>
<polygon fill="darkseagreen" stroke="black" points="554,-52 528,-52 528,-16 554,-16 554,-52"/>
<text text-anchor="middle" x="541" y="-30.3" font-family="Times,serif" font-size="14.00">2</text>
</g>
<!-- 00&#45;&gt;112 -->
<g id="edge13" class="edge">
<title>00&#45;&gt;112</title>
<path fill="none" stroke="black" d="M689.3,-89.66C647.47,-81.78 602.23,-69.9 563,-52 562.91,-51.96 562.81,-51.91 562.72,-51.87"/>
<polygon fill="black" stroke="black" points="564.71,-48.98 554.34,-46.83 561.11,-54.98 564.71,-48.98"/>
</g>
<!-- 113 -->
<g id="node16" class="node">
<title>113</title>
<polygon fill="darkseagreen" stroke="black" points="598,-52 572,-52 572,-16 598,-16 598,-52"/>
<text text-anchor="middle" x="585" y="-30.3" font-family="Times,serif" font-size="14.00">2</text>
</g>
<!-- 00&#45;&gt;113 -->
<g id="edge14" class="edge">
<title>00&#45;&gt;113</title>
<path fill="none" stroke="black" d="M721.22,-88.93C683.95,-80.85 642.51,-69.03 607,-52 606.91,-51.96 606.82,-51.91 606.72,-51.87"/>
<polygon fill="black" stroke="black" points="608.73,-48.99 598.38,-46.74 605.07,-54.96 608.73,-48.99"/>
</g>
<!-- 114 -->
<g id="node17" class="node">
<title>114</title>
<polygon fill="darkseagreen" stroke="black" points="642,-52 616,-52 616,-16 642,-16 642,-52"/>
<text text-anchor="middle" x="629" y="-30.3" font-family="Times,serif" font-size="14.00">2</text>
</g>
<!-- 00&#45;&gt;114 -->
<g id="edge15" class="edge">
<title>00&#45;&gt;114</title>
<path fill="none" stroke="black" d="M750.58,-88.5C718.76,-79.99 682.07,-67.99 651,-52 650.91,-51.95 650.82,-51.91 650.73,-51.86"/>
<polygon fill="black" stroke="black" points="652.77,-49.01 642.45,-46.61 649.02,-54.92 652.77,-49.01"/>
</g>
<!-- 115 -->
<g id="node18" class="node">
<title>115</title>
<polygon fill="darkseagreen" stroke="black" points="686,-52 660,-52 660,-16 686,-16 686,-52"/>
<text text-anchor="middle" x="673" y="-30.3" font-family="Times,serif" font-size="14.00">3</text>
</g>
<!-- 00&#45;&gt;115 -->
<g id="edge16" class="edge">
<title>00&#45;&gt;115</title>
<path fill="none" stroke="black" d="M775.65,-88.14C750.57,-78.97 720.4,-66.54 695,-52 694.81,-51.89 694.62,-51.78 694.43,-51.67"/>
<polygon fill="black" stroke="black" points="696.33,-48.73 686.08,-46.05 692.42,-54.54 696.33,-48.73"/>
</g>
<!-- 116 -->
<g id="node19" class="node">
<title>116</title>
<polygon fill="darkseagreen" stroke="black" points="730,-52 704,-52 704,-16 730,-16 730,-52"/>
<text text-anchor="middle" x="717" y="-30.3" font-family="Times,serif" font-size="14.00">3</text>
</g>
<!-- 00&#45;&gt;116 -->
<g id="edge17" class="edge">
<title>00&#45;&gt;116</title>
<path fill="none" stroke="black" d="M796.72,-87.93C779.5,-77.93 757.69,-64.79 739,-52 738.82,-51.88 738.64,-51.75 738.46,-51.63"/>
<polygon fill="black" stroke="black" points="740.45,-48.75 730.31,-45.68 736.33,-54.4 740.45,-48.75"/>
</g>
<!-- 117 -->
<g id="node20" class="node">
<title>117</title>
<polygon fill="darkseagreen" stroke="black" points="774,-52 748,-52 748,-16 774,-16 774,-52"/>
<text text-anchor="middle" x="761" y="-30.3" font-family="Times,serif" font-size="14.00">4</text>
</g>
<!-- 00&#45;&gt;117 -->
<g id="edge18" class="edge">
<title>00&#45;&gt;117</title>
<path fill="none" stroke="black" d="M810.69,-87.7C801.68,-78.15 790.43,-66.21 780.91,-56.12"/>
<polygon fill="black" stroke="black" points="783.44,-53.7 774.03,-48.82 778.35,-58.5 783.44,-53.7"/>
</g>
<!-- 118 -->
<g id="node21" class="node">
<title>118</title>
<polygon fill="darkseagreen" stroke="black" points="818,-52 792,-52 792,-16 818,-16 818,-52"/>
<text text-anchor="middle" x="805" y="-30.3" font-family="Times,serif" font-size="14.00">4</text>
</g>
<!-- 00&#45;&gt;118 -->
<g id="edge19" class="edge">
<title>00&#45;&gt;118</title>
<path fill="none" stroke="black" d="M821.56,-87.7C819.11,-79.9 816.16,-70.51 813.43,-61.83"/>
<polygon fill="black" stroke="black" points="816.71,-60.59 810.38,-52.1 810.04,-62.69 816.71,-60.59"/>
</g>
<!-- 119 -->
<g id="node22" class="node">
<title>119</title>
<polygon fill="darkseagreen" stroke="black" points="862,-52 836,-52 836,-16 862,-16 862,-52"/>
<text text-anchor="middle" x="849" y="-30.3" font-family="Times,serif" font-size="14.00">7</text>
</g>
<!-- 00&#45;&gt;119 -->
<g id="edge20" class="edge">
<title>00&#45;&gt;119</title>
<path fill="none" stroke="black" d="M832.44,-87.7C834.89,-79.9 837.84,-70.51 840.57,-61.83"/>
<polygon fill="black" stroke="black" points="843.96,-62.69 843.62,-52.1 837.29,-60.59 843.96,-62.69"/>
</g>
<!-- 120 -->
<g id="node23" class="node">
<title>120</title>
<polygon fill="darkseagreen" stroke="black" points="906,-52 880,-52 880,-16 906,-16 906,-52"/>
<text text-anchor="middle" x="893" y="-30.3" font-family="Times,serif" font-size="14.00">9</text>
</g>
<!-- 00&#45;&gt;120 -->
<g id="edge21" class="edge">
<title>00&#45;&gt;120</title>
<path fill="none" stroke="black" d="M843.31,-87.7C852.32,-78.15 863.57,-66.21 873.09,-56.12"/>
<polygon fill="black" stroke="black" points="875.65,-58.5 879.97,-48.82 870.56,-53.7 875.65,-58.5"/>
</g>
<!-- 121 -->
<g id="node24" class="node">
<title>121</title>
<polygon fill="darkseagreen" stroke="black" points="959.5,-52 924.5,-52 924.5,-16 959.5,-16 959.5,-52"/>
<text text-anchor="middle" x="942" y="-30.3" font-family="Times,serif" font-size="14.00">10</text>
</g>
<!-- 00&#45;&gt;121 -->
<g id="edge22" class="edge">
<title>00&#45;&gt;121</title>
<path fill="none" stroke="black" d="M855.62,-87.96C872.87,-77.64 895.26,-64.16 915,-52 915.19,-51.88 915.38,-51.77 915.57,-51.65"/>
<polygon fill="black" stroke="black" points="917.67,-54.46 924.31,-46.21 913.97,-48.52 917.67,-54.46"/>
</g>
<!-- 122 -->
<g id="node25" class="node">
<title>122</title>
<polygon fill="darkseagreen" stroke="black" points="1012.5,-52 977.5,-52 977.5,-16 1012.5,-16 1012.5,-52"/>
<text text-anchor="middle" x="995" y="-30.3" font-family="Times,serif" font-size="14.00">11</text>
</g>
<!-- 00&#45;&gt;122 -->
<g id="edge23" class="edge">
<title>00&#45;&gt;122</title>
<path fill="none" stroke="black" d="M879.3,-88.18C906.33,-78.78 939.54,-66.13 968,-52 968.1,-51.95 968.19,-51.9 968.29,-51.86"/>
<polygon fill="black" stroke="black" points="970.24,-54.78 977.28,-46.86 966.84,-48.66 970.24,-54.78"/>
</g>
<!-- 123 -->
<g id="node26" class="node">
<title>123</title>
<polygon fill="darkseagreen" stroke="black" points="1065.5,-52 1030.5,-52 1030.5,-16 1065.5,-16 1065.5,-52"/>
<text text-anchor="middle" x="1048" y="-30.3" font-family="Times,serif" font-size="14.00">18</text>
</g>
<!-- 00&#45;&gt;123 -->
<g id="edge24" class="edge">
<title>00&#45;&gt;123</title>
<path fill="none" stroke="black" d="M908.11,-88.5C943.6,-79.85 985.2,-67.74 1021,-52 1021.1,-51.96 1021.2,-51.91 1021.29,-51.87"/>
<polygon fill="black" stroke="black" points="1023.16,-54.84 1030.4,-47.11 1019.92,-48.64 1023.16,-54.84"/>
</g>
<!-- 124 -->
<g id="node27" class="node">
<title>124</title>
<polygon fill="darkseagreen" stroke="black" points="1118.5,-52 1083.5,-52 1083.5,-16 1118.5,-16 1118.5,-52"/>
<text text-anchor="middle" x="1101" y="-30.3" font-family="Times,serif" font-size="14.00">27</text>
</g>
<!-- 00&#45;&gt;124 -->
<g id="edge25" class="edge">
<title>00&#45;&gt;124</title>
<path fill="none" stroke="black" d="M941.08,-89.15C983.77,-81 1032.06,-69.08 1074,-52 1074.1,-51.96 1074.2,-51.92 1074.3,-51.88"/>
<polygon fill="black" stroke="black" points="1076.11,-54.89 1083.46,-47.26 1072.96,-48.63 1076.11,-54.89"/>
</g>
<!-- 125 -->
<g id="node28" class="node">
<title>125</title>
<polygon fill="darkseagreen" stroke="black" points="1171.5,-52 1136.5,-52 1136.5,-16 1171.5,-16 1171.5,-52"/>
<text text-anchor="middle" x="1154" y="-30.3" font-family="Times,serif" font-size="14.00">27</text>
</g>
<!-- 00&#45;&gt;125 -->
<g id="edge26" class="edge">
<title>00&#45;&gt;125</title>
<path fill="none" stroke="black" d="M977.72,-90.01C1026.45,-82.12 1080,-70.14 1127,-52 1127.1,-51.96 1127.19,-51.92 1127.29,-51.89"/>
<polygon fill="black" stroke="black" points="1128.76,-55.07 1136.21,-47.53 1125.69,-48.78 1128.76,-55.07"/>
</g>
<!-- 126 -->
<g id="node29" class="node">
<title>126</title>
<polygon fill="darkseagreen" stroke="black" points="1224.5,-52 1189.5,-52 1189.5,-16 1224.5,-16 1224.5,-52"/>
<text text-anchor="middle" x="1207" y="-30.3" font-family="Times,serif" font-size="14.00">29</text>
</g>
<!-- 00&#45;&gt;126 -->
<g id="edge27" class="edge">
<title>00&#45;&gt;126</title>
<path fill="none" stroke="black" d="M1015.2,-91.34C1069.55,-83.52 1128.15,-71.25 1180,-52 1180.1,-51.96 1180.19,-51.93 1180.29,-51.89"/>
<polygon fill="black" stroke="black" points="1181.73,-55.08 1189.23,-47.6 1178.7,-48.77 1181.73,-55.08"/>
</g>
<!-- 127 -->
<g id="node30" class="node">
<title>127</title>
<polygon fill="darkseagreen" stroke="black" points="1277.5,-52 1242.5,-52 1242.5,-16 1277.5,-16 1277.5,-52"/>
<text text-anchor="middle" x="1260" y="-30.3" font-family="Times,serif" font-size="14.00">29</text>
</g>
<!-- 00&#45;&gt;127 -->
<g id="edge28" class="edge">
<title>00&#45;&gt;127</title>
<path fill="none" stroke="black" d="M1052.36,-93.07C1112.3,-85.21 1176.16,-72.48 1233,-52 1233.1,-51.96 1233.2,-51.93 1233.29,-51.89"/>
<polygon fill="black" stroke="black" points="1234.71,-55.09 1242.25,-47.65 1231.72,-48.77 1234.71,-55.09"/>
</g>
<!-- 128 -->
<g id="node31" class="node">
<title>128</title>
<polygon fill="darkseagreen" stroke="black" points="1330.5,-52 1295.5,-52 1295.5,-16 1330.5,-16 1330.5,-52"/>
<text text-anchor="middle" x="1313" y="-30.3" font-family="Times,serif" font-size="14.00">35</text>
</g>
<!-- 00&#45;&gt;128 -->
<g id="edge29" class="edge">
<title>00&#45;&gt;128</title>
<path fill="none" stroke="black" d="M1018.38,-91.44C1121.48,-82.45 1237.29,-69.15 1286,-52 1286.1,-51.97 1286.2,-51.93 1286.29,-51.9"/>
<polygon fill="black" stroke="black" points="1287.69,-55.1 1295.27,-47.7 1284.73,-48.76 1287.69,-55.1"/>
</g>
<!-- 129 -->
<g id="node32" class="node">
<title>129</title>
<polygon fill="darkseagreen" stroke="black" points="1383.5,-52 1348.5,-52 1348.5,-16 1383.5,-16 1383.5,-52"/>
<text text-anchor="middle" x="1366" y="-30.3" font-family="Times,serif" font-size="14.00">56</text>
</g>
<!-- 00&#45;&gt;129 -->
<g id="edge30" class="edge">
<title>00&#45;&gt;129</title>
<path fill="none" stroke="black" d="M1042.12,-92.53C1156.69,-83.95 1284.89,-70.69 1339,-52 1339.1,-51.97 1339.2,-51.93 1339.29,-51.9"/>
<polygon fill="black" stroke="black" points="1340.68,-55.11 1348.28,-47.73 1337.73,-48.76 1340.68,-55.11"/>
</g>
<!-- 130 -->
<g id="node33" class="node">
<title>130</title>
<polygon fill="darkseagreen" stroke="black" points="1436.5,-52 1401.5,-52 1401.5,-16 1436.5,-16 1436.5,-52"/>
<text text-anchor="middle" x="1419" y="-30.3" font-family="Times,serif" font-size="14.00">56</text>
</g>
<!-- 00&#45;&gt;130 -->
<g id="edge31" class="edge">
<title>00&#45;&gt;130</title>
<path fill="none" stroke="black" d="M1064.36,-93.75C1190.78,-85.57 1332.24,-72.32 1392,-52 1392.1,-51.97 1392.2,-51.93 1392.3,-51.9"/>
<polygon fill="black" stroke="black" points="1393.67,-55.12 1401.29,-47.75 1390.74,-48.76 1393.67,-55.12"/>
</g>
<!-- 131 -->
<g id="node34" class="node">
<title>131</title>
<polygon fill="darkseagreen" stroke="black" points="1489.5,-52 1454.5,-52 1454.5,-16 1489.5,-16 1489.5,-52"/>
<text text-anchor="middle" x="1472" y="-30.3" font-family="Times,serif" font-size="14.00">70</text>
</g>
<!-- 00&#45;&gt;131 -->
<g id="edge32" class="edge">
<title>00&#45;&gt;131</title>
<path fill="none" stroke="black" d="M1084.57,-95.08C1223.35,-87.33 1379.28,-74.05 1445,-52 1445.1,-51.97 1445.2,-51.93 1445.3,-51.9"/>
<polygon fill="black" stroke="black" points="1446.66,-55.12 1454.3,-47.78 1443.75,-48.76 1446.66,-55.12"/>
</g>
<!-- 132 -->
<g id="node35" class="node">
<title>132</title>
<polygon fill="darkseagreen" stroke="black" points="1552,-52 1508,-52 1508,-16 1552,-16 1552,-52"/>
<text text-anchor="middle" x="1530" y="-30.3" font-family="Times,serif" font-size="14.00">140</text>
</g>
<!-- 00&#45;&gt;132 -->
<g id="edge33" class="edge">
<title>00&#45;&gt;132</title>
<path fill="none" stroke="black" d="M1087.71,-95.29C1242.51,-87.4 1422.83,-73.91 1498,-52 1498.1,-51.97 1498.2,-51.94 1498.31,-51.91"/>
<polygon fill="black" stroke="black" points="1499.68,-55.13 1507.76,-48.27 1497.17,-48.6 1499.68,-55.13"/>
</g>
<!-- 133 -->
<g id="node36" class="node">
<title>133</title>
<polygon fill="darkseagreen" stroke="black" points="1614,-52 1570,-52 1570,-16 1614,-16 1614,-52"/>
<text text-anchor="middle" x="1592" y="-30.3" font-family="Times,serif" font-size="14.00">155</text>
</g>
<!-- 00&#45;&gt;133 -->
<g id="edge34" class="edge">
<title>00&#45;&gt;133</title>
<path fill="none" stroke="black" d="M1108.49,-97.02C1272.87,-90.05 1464.67,-77.31 1560.05,-51.42"/>
<polygon fill="black" stroke="black" points="1561.16,-54.74 1569.8,-48.62 1559.23,-48.01 1561.16,-54.74"/>
</g>
<!-- 134 -->
<g id="node37" class="node">
<title>134</title>
<polygon fill="darkseagreen" stroke="black" points="1704,-52 1632,-52 1632,-16 1704,-16 1704,-52"/>
<text text-anchor="middle" x="1668" y="-30.3" font-family="Times,serif" font-size="14.00">274</text>
</g>
<!-- 00&#45;&gt;134 -->
<g id="edge35" class="edge">
<title>00&#45;&gt;134</title>
<path fill="none" stroke="black" d="M1092.82,-95.68C1278.41,-87.64 1510.67,-74.09 1621.87,-51.79"/>
<polygon fill="black" stroke="black" points="1622.86,-55.16 1631.93,-49.67 1621.42,-48.3 1622.86,-55.16"/>
</g>
<!-- 135 -->
<g id="node38" class="node">
<title>135</title>
<polygon fill="darkseagreen" stroke="black" points="1794,-52 1722,-52 1722,-16 1794,-16 1794,-52"/>
<text text-anchor="middle" x="1758" y="-30.3" font-family="Times,serif" font-size="14.00">293</text>
</g>
<!-- 00&#45;&gt;135 -->
<g id="edge36" class="edge">
<title>00&#45;&gt;135</title>
<path fill="none" stroke="black" d="M1110.48,-97.27C1319.7,-89.89 1587.46,-76.45 1712.12,-51.73"/>
<polygon fill="black" stroke="black" points="1712.85,-55.15 1721.93,-49.69 1711.43,-48.3 1712.85,-55.15"/>
</g>
<!-- 136 -->
<g id="node39" class="node">
<title>136</title>
<polygon fill="darkseagreen" stroke="black" points="1884,-52 1812,-52 1812,-16 1884,-16 1884,-52"/>
<text text-anchor="middle" x="1848" y="-30.3" font-family="Times,serif" font-size="14.00">321</text>
</g>
<!-- 00&#45;&gt;136 -->
<g id="edge37" class="edge">
<title>00&#45;&gt;136</title>
<path fill="none" stroke="black" d="M1124.29,-98.82C1357.13,-92.18 1662.76,-78.99 1801.81,-51.78"/>
<polygon fill="black" stroke="black" points="1802.84,-55.14 1811.94,-49.71 1801.44,-48.29 1802.84,-55.14"/>
</g>
<!-- 137 -->
<g id="node40" class="node">
<title>137</title>
<polygon fill="darkseagreen" stroke="black" points="1974,-52 1902,-52 1902,-16 1974,-16 1974,-52"/>
<text text-anchor="middle" x="1938" y="-30.3" font-family="Times,serif" font-size="14.00">396</text>
</g>
<!-- 00&#45;&gt;137 -->
<g id="edge38" class="edge">
<title>00&#45;&gt;137</title>
<path fill="none" stroke="black" d="M1134.59,-100.3C1391.45,-94.46 1738.27,-81.63 1892.09,-51.72"/>
<polygon fill="black" stroke="black" points="1892.83,-55.14 1901.94,-49.73 1891.44,-48.28 1892.83,-55.14"/>
</g>
<!-- legend_0 -->
<g id="node2" class="node">
<title>legend_0</title>
<polygon fill="#b9d3ee" stroke="black" points="2213.5,-124 1992.5,-124 1992.5,-88 2213.5,-88 2213.5,-124"/>
<text text-anchor="middle" x="2103" y="-102.3" font-family="Times,serif" font-size="14.00">DT=5 ST=5 Similarity=0.28</text>
</g>
<!-- legend_1 -->
<g id="node41" class="node">
<title>legend_1</title>
<polygon fill="darkseagreen" stroke="black" points="2213.5,-52 1992.5,-52 1992.5,-16 2213.5,-16 2213.5,-52"/>
<text text-anchor="middle" x="2103" y="-30.3" font-family="Times,serif" font-size="14.00">DT=6 ST=1 Similarity=0.49</text>
</g>
<!-- legend_0&#45;&gt;legend_1 -->
<g id="edge39" class="edge">
<title>legend_0&#45;&gt;legend_1</title>
<path fill="none" stroke="black" d="M2103,-87.7C2103,-79.98 2103,-70.71 2103,-62.11"/>
<polygon fill="black" stroke="black" points="2106.5,-62.1 2103,-52.1 2099.5,-62.1 2106.5,-62.1"/>
</g>
</g>
</svg>
