<?xml version="1.0" encoding="UTF-8" standalone="no"?>
<!DOCTYPE svg PUBLIC "-//W3C//DTD SVG 1.1//EN"
 "http://www.w3.org/Graphics/SVG/1.1/DTD/svg11.dtd">
<!-- Generated by graphviz version 2.43.0 (0)
 -->
<!-- Title: %3 Pages: 1 -->
<svg width="2617pt" height="497pt"
 viewBox="0.00 0.00 2616.90 497.00" xmlns="http://www.w3.org/2000/svg" xmlns:xlink="http://www.w3.org/1999/xlink">
<g id="graph0" class="graph" transform="scale(1 1) rotate(0) translate(4 493)">
<title>%3</title>
<polygon fill="white" stroke="transparent" points="-4,4 -4,-493 2612.9,-493 2612.9,4 -4,4"/>
<text text-anchor="middle" x="1304.45" y="-473.8" font-family="Times,serif" font-size="14.00">ConsTree</text>
<text text-anchor="middle" x="1304.45" y="-458.8" font-family="Times,serif" font-size="14.00">Tree Quality = 1</text>
<g id="clust1" class="cluster">
<title>cluster</title>
<polygon fill="none" stroke="black" points="2364.9,-8 2364.9,-443 2600.9,-443 2600.9,-8 2364.9,-8"/>
<text text-anchor="middle" x="2482.9" y="-427.8" font-family="Times,serif" font-size="14.00">Legend</text>
</g>
<!-- 00 -->
<g id="node1" class="node">
<title>00</title>
<ellipse fill="#b9d3ee" stroke="black" cx="926.9" cy="-394" rx="108" ry="18"/>
<text text-anchor="middle" x="926.9" y="-390.3" font-family="Times,serif" font-size="14.00">789</text>
</g>
<!-- 12 -->
<g id="node6" class="node">
<title>12</title>
<ellipse fill="#b9d3ee" stroke="black" cx="962.9" cy="-322" rx="108" ry="18"/>
<text text-anchor="middle" x="962.9" y="-318.3" font-family="Times,serif" font-size="14.00">820</text>
</g>
<!-- 00&#45;&gt;12 -->
<g id="edge3" class="edge">
<title>00&#45;&gt;12</title>
<path fill="none" stroke="black" d="M935.61,-376.05C939.75,-368.01 944.79,-358.2 949.41,-349.23"/>
<polygon fill="black" stroke="black" points="952.55,-350.77 954.01,-340.28 946.33,-347.57 952.55,-350.77"/>
</g>
<!-- 01 -->
<g id="node2" class="node">
<title>01</title>
<ellipse fill="#b9d3ee" stroke="black" cx="1232.9" cy="-394" rx="180" ry="18"/>
<text text-anchor="middle" x="1232.9" y="-390.3" font-family="Times,serif" font-size="14.00">1211</text>
</g>
<!-- 10 -->
<g id="node4" class="node">
<title>10</title>
<ellipse fill="#b9d3ee" stroke="black" cx="1376.9" cy="-322" rx="36" ry="18"/>
<text text-anchor="middle" x="1376.9" y="-318.3" font-family="Times,serif" font-size="14.00">417</text>
</g>
<!-- 01&#45;&gt;10 -->
<g id="edge1" class="edge">
<title>01&#45;&gt;10</title>
<path fill="none" stroke="black" d="M1267.39,-376.23C1290.11,-365.19 1319.73,-350.79 1342.44,-339.75"/>
<polygon fill="black" stroke="black" points="1344.24,-342.77 1351.71,-335.25 1341.18,-336.47 1344.24,-342.77"/>
</g>
<!-- 11 -->
<g id="node5" class="node">
<title>11</title>
<ellipse fill="#b9d3ee" stroke="black" cx="1214.9" cy="-322" rx="108" ry="18"/>
<text text-anchor="middle" x="1214.9" y="-318.3" font-family="Times,serif" font-size="14.00">763</text>
</g>
<!-- 01&#45;&gt;11 -->
<g id="edge2" class="edge">
<title>01&#45;&gt;11</title>
<path fill="none" stroke="black" d="M1228.45,-375.7C1226.44,-367.9 1224.03,-358.51 1221.8,-349.83"/>
<polygon fill="black" stroke="black" points="1225.18,-348.92 1219.3,-340.1 1218.4,-350.66 1225.18,-348.92"/>
</g>
<!-- 01&#45;&gt;12 -->
<g id="edge4" class="edge">
<title>01&#45;&gt;12</title>
<path fill="none" stroke="black" d="M1171.29,-377.03C1128.7,-365.98 1072.1,-351.31 1028.63,-340.04"/>
<polygon fill="black" stroke="black" points="1029.29,-336.6 1018.73,-337.47 1027.53,-343.37 1029.29,-336.6"/>
</g>
<!-- legend_0 -->
<g id="node3" class="node">
<title>legend_0</title>
<polygon fill="#b9d3ee" stroke="black" points="2588.9,-412 2376.9,-412 2376.9,-376 2588.9,-376 2588.9,-412"/>
<text text-anchor="middle" x="2482.9" y="-390.3" font-family="Times,serif" font-size="14.00">DT=1 ST=1 Similarity=0.5</text>
</g>
<!-- legend_1 -->
<g id="node7" class="node">
<title>legend_1</title>
<polygon fill="#b9d3ee" stroke="black" points="2593.4,-340 2372.4,-340 2372.4,-304 2593.4,-304 2593.4,-340"/>
<text text-anchor="middle" x="2482.9" y="-318.3" font-family="Times,serif" font-size="14.00">DT=2 ST=1 Similarity=0.65</text>
</g>
<!-- legend_0&#45;&gt;legend_1 -->
<g id="edge5" class="edge">
<title>legend_0&#45;&gt;legend_1</title>
<path fill="none" stroke="black" d="M2482.9,-375.7C2482.9,-367.98 2482.9,-358.71 2482.9,-350.11"/>
<polygon fill="black" stroke="black" points="2486.4,-350.1 2482.9,-340.1 2479.4,-350.1 2486.4,-350.1"/>
</g>
<!-- 21 -->
<g id="node9" class="node">
<title>21</title>
<ellipse fill="#b9d3ee" stroke="black" cx="1639.9" cy="-250" rx="36" ry="18"/>
<text text-anchor="middle" x="1639.9" y="-246.3" font-family="Times,serif" font-size="14.00">399</text>
</g>
<!-- 10&#45;&gt;21 -->
<g id="edge7" class="edge">
<title>10&#45;&gt;21</title>
<path fill="none" stroke="black" d="M1407.84,-312.76C1455.29,-300.13 1546.08,-275.97 1598.94,-261.9"/>
<polygon fill="black" stroke="black" points="1599.9,-265.27 1608.67,-259.31 1598.1,-258.5 1599.9,-265.27"/>
</g>
<!-- 23 -->
<g id="node11" class="node">
<title>23</title>
<ellipse fill="#b9d3ee" stroke="black" cx="1214.9" cy="-250" rx="108" ry="18"/>
<text text-anchor="middle" x="1214.9" y="-246.3" font-family="Times,serif" font-size="14.00">800</text>
</g>
<!-- 10&#45;&gt;23 -->
<g id="edge9" class="edge">
<title>10&#45;&gt;23</title>
<path fill="none" stroke="black" d="M1350.51,-309.6C1326.42,-299.19 1290.28,-283.57 1261.36,-271.08"/>
<polygon fill="black" stroke="black" points="1262.43,-267.73 1251.86,-266.97 1259.65,-274.15 1262.43,-267.73"/>
</g>
<!-- 11&#45;&gt;23 -->
<g id="edge10" class="edge">
<title>11&#45;&gt;23</title>
<path fill="none" stroke="black" d="M1214.9,-303.7C1214.9,-295.98 1214.9,-286.71 1214.9,-278.11"/>
<polygon fill="black" stroke="black" points="1218.4,-278.1 1214.9,-268.1 1211.4,-278.1 1218.4,-278.1"/>
</g>
<!-- 20 -->
<g id="node8" class="node">
<title>20</title>
<ellipse fill="#b9d3ee" stroke="black" cx="656.9" cy="-250" rx="36" ry="18"/>
<text text-anchor="middle" x="656.9" y="-246.3" font-family="Times,serif" font-size="14.00">399</text>
</g>
<!-- 12&#45;&gt;20 -->
<g id="edge6" class="edge">
<title>12&#45;&gt;20</title>
<path fill="none" stroke="black" d="M902.08,-307.09C841.95,-293.33 751.53,-272.65 698.94,-260.62"/>
<polygon fill="black" stroke="black" points="699.48,-257.15 688.95,-258.33 697.92,-263.97 699.48,-257.15"/>
</g>
<!-- 22 -->
<g id="node10" class="node">
<title>22</title>
<ellipse fill="#b9d3ee" stroke="black" cx="962.9" cy="-250" rx="36" ry="18"/>
<text text-anchor="middle" x="962.9" y="-246.3" font-family="Times,serif" font-size="14.00">402</text>
</g>
<!-- 12&#45;&gt;22 -->
<g id="edge8" class="edge">
<title>12&#45;&gt;22</title>
<path fill="none" stroke="black" d="M962.9,-303.7C962.9,-295.98 962.9,-286.71 962.9,-278.11"/>
<polygon fill="black" stroke="black" points="966.4,-278.1 962.9,-268.1 959.4,-278.1 966.4,-278.1"/>
</g>
<!-- 12&#45;&gt;23 -->
<g id="edge11" class="edge">
<title>12&#45;&gt;23</title>
<path fill="none" stroke="black" d="M1016.03,-306.24C1055.74,-295.21 1110.15,-280.1 1152.02,-268.47"/>
<polygon fill="black" stroke="black" points="1153.14,-271.79 1161.84,-265.74 1151.26,-265.04 1153.14,-271.79"/>
</g>
<!-- legend_2 -->
<g id="node12" class="node">
<title>legend_2</title>
<polygon fill="#b9d3ee" stroke="black" points="2593.4,-268 2372.4,-268 2372.4,-232 2593.4,-232 2593.4,-268"/>
<text text-anchor="middle" x="2482.9" y="-246.3" font-family="Times,serif" font-size="14.00">DT=3 ST=1 Similarity=0.68</text>
</g>
<!-- legend_1&#45;&gt;legend_2 -->
<g id="edge12" class="edge">
<title>legend_1&#45;&gt;legend_2</title>
<path fill="none" stroke="black" d="M2482.9,-303.7C2482.9,-295.98 2482.9,-286.71 2482.9,-278.11"/>
<polygon fill="black" stroke="black" points="2486.4,-278.1 2482.9,-268.1 2479.4,-278.1 2486.4,-278.1"/>
</g>
<!-- 32 -->
<g id="node15" class="node">
<title>32</title>
<polygon fill="darkseagreen" stroke="black" points="470.9,-196 398.9,-196 398.9,-160 470.9,-160 470.9,-196"/>
<text text-anchor="middle" x="434.9" y="-174.3" font-family="Times,serif" font-size="14.00">399</text>
</g>
<!-- 20&#45;&gt;32 -->
<g id="edge16" class="edge">
<title>20&#45;&gt;32</title>
<path fill="none" stroke="black" d="M626.96,-239.56C589.33,-227.69 524.37,-207.21 480.53,-193.39"/>
<polygon fill="black" stroke="black" points="481.56,-190.04 470.97,-190.37 479.46,-196.72 481.56,-190.04"/>
</g>
<!-- 30 -->
<g id="node13" class="node">
<title>30</title>
<polygon fill="darkseagreen" stroke="black" points="1675.9,-196 1603.9,-196 1603.9,-160 1675.9,-160 1675.9,-196"/>
<text text-anchor="middle" x="1639.9" y="-174.3" font-family="Times,serif" font-size="14.00">397</text>
</g>
<!-- 21&#45;&gt;30 -->
<g id="edge13" class="edge">
<title>21&#45;&gt;30</title>
<path fill="none" stroke="black" d="M1639.9,-231.7C1639.9,-223.98 1639.9,-214.71 1639.9,-206.11"/>
<polygon fill="black" stroke="black" points="1643.4,-206.1 1639.9,-196.1 1636.4,-206.1 1643.4,-206.1"/>
</g>
<!-- 33 -->
<g id="node16" class="node">
<title>33</title>
<polygon fill="darkseagreen" stroke="black" points="1959.9,-196 1887.9,-196 1887.9,-160 1959.9,-160 1959.9,-196"/>
<text text-anchor="middle" x="1923.9" y="-174.3" font-family="Times,serif" font-size="14.00">398</text>
</g>
<!-- 21&#45;&gt;33 -->
<g id="edge17" class="edge">
<title>21&#45;&gt;33</title>
<path fill="none" stroke="black" d="M1671.38,-241.24C1721.51,-228.88 1819.75,-204.67 1877.82,-190.36"/>
<polygon fill="black" stroke="black" points="1878.95,-193.68 1887.82,-187.89 1877.27,-186.89 1878.95,-193.68"/>
</g>
<!-- 34 -->
<g id="node17" class="node">
<title>34</title>
<polygon fill="darkseagreen" stroke="black" points="998.9,-196 926.9,-196 926.9,-160 998.9,-160 998.9,-196"/>
<text text-anchor="middle" x="962.9" y="-174.3" font-family="Times,serif" font-size="14.00">416</text>
</g>
<!-- 22&#45;&gt;34 -->
<g id="edge18" class="edge">
<title>22&#45;&gt;34</title>
<path fill="none" stroke="black" d="M962.9,-231.7C962.9,-223.98 962.9,-214.71 962.9,-206.11"/>
<polygon fill="black" stroke="black" points="966.4,-206.1 962.9,-196.1 959.4,-206.1 966.4,-206.1"/>
</g>
<!-- 23&#45;&gt;30 -->
<g id="edge14" class="edge">
<title>23&#45;&gt;30</title>
<path fill="none" stroke="black" d="M1288.93,-236.81C1376.65,-222.36 1520.14,-198.73 1593.51,-186.64"/>
<polygon fill="black" stroke="black" points="1594.51,-190.02 1603.81,-184.94 1593.38,-183.12 1594.51,-190.02"/>
</g>
<!-- 31 -->
<g id="node14" class="node">
<title>31</title>
<polygon fill="darkseagreen" stroke="black" points="1250.9,-196 1178.9,-196 1178.9,-160 1250.9,-160 1250.9,-196"/>
<text text-anchor="middle" x="1214.9" y="-174.3" font-family="Times,serif" font-size="14.00">390</text>
</g>
<!-- 23&#45;&gt;31 -->
<g id="edge15" class="edge">
<title>23&#45;&gt;31</title>
<path fill="none" stroke="black" d="M1214.9,-231.7C1214.9,-223.98 1214.9,-214.71 1214.9,-206.11"/>
<polygon fill="black" stroke="black" points="1218.4,-206.1 1214.9,-196.1 1211.4,-206.1 1218.4,-206.1"/>
</g>
<!-- 23&#45;&gt;34 -->
<g id="edge19" class="edge">
<title>23&#45;&gt;34</title>
<path fill="none" stroke="black" d="M1161.76,-234.24C1116.35,-221.63 1051.69,-203.66 1008.57,-191.69"/>
<polygon fill="black" stroke="black" points="1009.47,-188.31 998.9,-189 1007.6,-195.05 1009.47,-188.31"/>
</g>
<!-- legend_3 -->
<g id="node18" class="node">
<title>legend_3</title>
<polygon fill="darkseagreen" stroke="black" points="2593.4,-196 2372.4,-196 2372.4,-160 2593.4,-160 2593.4,-196"/>
<text text-anchor="middle" x="2482.9" y="-174.3" font-family="Times,serif" font-size="14.00">DT=4 ST=1 Similarity=0.72</text>
</g>
<!-- legend_2&#45;&gt;legend_3 -->
<g id="edge20" class="edge">
<title>legend_2&#45;&gt;legend_3</title>
<path fill="none" stroke="black" d="M2482.9,-231.7C2482.9,-223.98 2482.9,-214.71 2482.9,-206.11"/>
<polygon fill="black" stroke="black" points="2486.4,-206.1 2482.9,-196.1 2479.4,-206.1 2486.4,-206.1"/>
</g>
<!-- 42 -->
<g id="node21" class="node">
<title>42</title>
<ellipse fill="#b9d3ee" stroke="black" cx="1787.9" cy="-106" rx="23" ry="18"/>
<text text-anchor="middle" x="1787.9" y="-102.3" font-family="Times,serif" font-size="14.00">23</text>
</g>
<!-- 30&#45;&gt;42 -->
<g id="edge23" class="edge">
<title>30&#45;&gt;42</title>
<path fill="none" stroke="black" d="M1676.1,-159.88C1701.83,-147.71 1735.88,-131.6 1759.61,-120.38"/>
<polygon fill="black" stroke="black" points="1761.24,-123.48 1768.79,-116.04 1758.25,-117.15 1761.24,-123.48"/>
</g>
<!-- 43 -->
<g id="node22" class="node">
<title>43</title>
<ellipse fill="#b9d3ee" stroke="black" cx="2033.9" cy="-106" rx="36" ry="18"/>
<text text-anchor="middle" x="2033.9" y="-102.3" font-family="Times,serif" font-size="14.00">399</text>
</g>
<!-- 30&#45;&gt;43 -->
<g id="edge24" class="edge">
<title>30&#45;&gt;43</title>
<path fill="none" stroke="black" d="M1675.91,-170.6C1748.54,-157.7 1912.32,-128.6 1990.62,-114.69"/>
<polygon fill="black" stroke="black" points="1991.4,-118.11 2000.63,-112.91 1990.18,-111.21 1991.4,-118.11"/>
</g>
<!-- 45 -->
<g id="node24" class="node">
<title>45</title>
<ellipse fill="#b9d3ee" stroke="black" cx="1555.9" cy="-106" rx="36" ry="18"/>
<text text-anchor="middle" x="1555.9" y="-102.3" font-family="Times,serif" font-size="14.00">379</text>
</g>
<!-- 30&#45;&gt;45 -->
<g id="edge27" class="edge">
<title>30&#45;&gt;45</title>
<path fill="none" stroke="black" d="M1619.13,-159.7C1607.77,-150.22 1593.58,-138.4 1581.53,-128.36"/>
<polygon fill="black" stroke="black" points="1583.51,-125.45 1573.58,-121.74 1579.03,-130.83 1583.51,-125.45"/>
</g>
<!-- 40 -->
<g id="node19" class="node">
<title>40</title>
<ellipse fill="#b9d3ee" stroke="black" cx="1269.9" cy="-106" rx="16.8" ry="18"/>
<text text-anchor="middle" x="1269.9" y="-102.3" font-family="Times,serif" font-size="14.00">7</text>
</g>
<!-- 31&#45;&gt;40 -->
<g id="edge21" class="edge">
<title>31&#45;&gt;40</title>
<path fill="none" stroke="black" d="M1228.49,-159.7C1235.95,-150.21 1245.26,-138.36 1253.16,-128.31"/>
<polygon fill="black" stroke="black" points="1255.96,-130.4 1259.39,-120.38 1250.46,-126.08 1255.96,-130.4"/>
</g>
<!-- 31&#45;&gt;45 -->
<g id="edge28" class="edge">
<title>31&#45;&gt;45</title>
<path fill="none" stroke="black" d="M1251.07,-169.58C1314.49,-156.56 1445.44,-129.67 1513.2,-115.77"/>
<polygon fill="black" stroke="black" points="1514.03,-119.17 1523.12,-113.73 1512.62,-112.31 1514.03,-119.17"/>
</g>
<!-- 46 -->
<g id="node25" class="node">
<title>46</title>
<ellipse fill="#b9d3ee" stroke="black" cx="1130.9" cy="-106" rx="36" ry="18"/>
<text text-anchor="middle" x="1130.9" y="-102.3" font-family="Times,serif" font-size="14.00">376</text>
</g>
<!-- 31&#45;&gt;46 -->
<g id="edge29" class="edge">
<title>31&#45;&gt;46</title>
<path fill="none" stroke="black" d="M1194.13,-159.7C1182.77,-150.22 1168.58,-138.4 1156.53,-128.36"/>
<polygon fill="black" stroke="black" points="1158.51,-125.45 1148.58,-121.74 1154.03,-130.83 1158.51,-125.45"/>
</g>
<!-- 47 -->
<g id="node26" class="node">
<title>47</title>
<ellipse fill="#b9d3ee" stroke="black" cx="768.9" cy="-106" rx="36" ry="18"/>
<text text-anchor="middle" x="768.9" y="-102.3" font-family="Times,serif" font-size="14.00">420</text>
</g>
<!-- 31&#45;&gt;47 -->
<g id="edge30" class="edge">
<title>31&#45;&gt;47</title>
<path fill="none" stroke="black" d="M1178.78,-171.33C1097.59,-158.59 900.91,-127.72 812.83,-113.9"/>
<polygon fill="black" stroke="black" points="813.32,-110.43 802.89,-112.34 812.23,-117.34 813.32,-110.43"/>
</g>
<!-- 41 -->
<g id="node20" class="node">
<title>41</title>
<ellipse fill="#b9d3ee" stroke="black" cx="68.9" cy="-106" rx="23" ry="18"/>
<text text-anchor="middle" x="68.9" y="-102.3" font-family="Times,serif" font-size="14.00">12</text>
</g>
<!-- 32&#45;&gt;41 -->
<g id="edge22" class="edge">
<title>32&#45;&gt;41</title>
<path fill="none" stroke="black" d="M398.8,-170.1C327.42,-156.44 169.23,-126.19 101.12,-113.16"/>
<polygon fill="black" stroke="black" points="101.47,-109.67 90.99,-111.23 100.15,-116.54 101.47,-109.67"/>
</g>
<!-- 44 -->
<g id="node23" class="node">
<title>44</title>
<ellipse fill="#b9d3ee" stroke="black" cx="326.9" cy="-106" rx="36" ry="18"/>
<text text-anchor="middle" x="326.9" y="-102.3" font-family="Times,serif" font-size="14.00">384</text>
</g>
<!-- 32&#45;&gt;44 -->
<g id="edge26" class="edge">
<title>32&#45;&gt;44</title>
<path fill="none" stroke="black" d="M408.48,-159.88C392.78,-149.7 372.82,-136.77 356.58,-126.24"/>
<polygon fill="black" stroke="black" points="358.28,-123.17 347.99,-120.67 354.48,-129.04 358.28,-123.17"/>
</g>
<!-- 32&#45;&gt;47 -->
<g id="edge31" class="edge">
<title>32&#45;&gt;47</title>
<path fill="none" stroke="black" d="M470.96,-169.44C533.08,-156.42 660,-129.82 726.34,-115.92"/>
<polygon fill="black" stroke="black" points="727.38,-119.28 736.45,-113.8 725.95,-112.43 727.38,-119.28"/>
</g>
<!-- 33&#45;&gt;43 -->
<g id="edge25" class="edge">
<title>33&#45;&gt;43</title>
<path fill="none" stroke="black" d="M1950.81,-159.88C1966.8,-149.7 1987.12,-136.77 2003.67,-126.24"/>
<polygon fill="black" stroke="black" points="2005.86,-128.99 2012.42,-120.67 2002.1,-123.08 2005.86,-128.99"/>
</g>
<!-- 34&#45;&gt;47 -->
<g id="edge32" class="edge">
<title>34&#45;&gt;47</title>
<path fill="none" stroke="black" d="M926.86,-164C892.75,-151.69 841.73,-133.28 806.97,-120.74"/>
<polygon fill="black" stroke="black" points="807.78,-117.31 797.18,-117.21 805.4,-123.89 807.78,-117.31"/>
</g>
<!-- legend_4 -->
<g id="node27" class="node">
<title>legend_4</title>
<polygon fill="#b9d3ee" stroke="black" points="2593.4,-124 2372.4,-124 2372.4,-88 2593.4,-88 2593.4,-124"/>
<text text-anchor="middle" x="2482.9" y="-102.3" font-family="Times,serif" font-size="14.00">DT=5 ST=1 Similarity=0.71</text>
</g>
<!-- legend_3&#45;&gt;legend_4 -->
<g id="edge33" class="edge">
<title>legend_3&#45;&gt;legend_4</title>
<path fill="none" stroke="black" d="M2482.9,-159.7C2482.9,-151.98 2482.9,-142.71 2482.9,-134.11"/>
<polygon fill="black" stroke="black" points="2486.4,-134.1 2482.9,-124.1 2479.4,-134.1 2486.4,-134.1"/>
</g>
<!-- 56 -->
<g id="node34" class="node">
<title>56</title>
<ellipse fill="#b9d3ee" stroke="black" cx="1217.9" cy="-34" rx="16.8" ry="18"/>
<text text-anchor="middle" x="1217.9" y="-30.3" font-family="Times,serif" font-size="14.00">1</text>
</g>
<!-- 40&#45;&gt;56 -->
<g id="edge40" class="edge">
<title>40&#45;&gt;56</title>
<path fill="none" stroke="black" d="M1259.87,-91.5C1252.63,-81.75 1242.68,-68.37 1234.29,-57.07"/>
<polygon fill="black" stroke="black" points="1237.02,-54.87 1228.25,-48.93 1231.4,-59.05 1237.02,-54.87"/>
</g>
<!-- 57 -->
<g id="node35" class="node">
<title>57</title>
<ellipse fill="#b9d3ee" stroke="black" cx="1269.9" cy="-34" rx="16.8" ry="18"/>
<text text-anchor="middle" x="1269.9" y="-30.3" font-family="Times,serif" font-size="14.00">1</text>
</g>
<!-- 40&#45;&gt;57 -->
<g id="edge41" class="edge">
<title>40&#45;&gt;57</title>
<path fill="none" stroke="black" d="M1269.9,-87.7C1269.9,-79.98 1269.9,-70.71 1269.9,-62.11"/>
<polygon fill="black" stroke="black" points="1273.4,-62.1 1269.9,-52.1 1266.4,-62.1 1273.4,-62.1"/>
</g>
<!-- 514 -->
<g id="node42" class="node">
<title>514</title>
<ellipse fill="#b9d3ee" stroke="black" cx="1321.9" cy="-34" rx="16.8" ry="18"/>
<text text-anchor="middle" x="1321.9" y="-30.3" font-family="Times,serif" font-size="14.00">2</text>
</g>
<!-- 40&#45;&gt;514 -->
<g id="edge48" class="edge">
<title>40&#45;&gt;514</title>
<path fill="none" stroke="black" d="M1279.92,-91.5C1287.17,-81.75 1297.11,-68.37 1305.5,-57.07"/>
<polygon fill="black" stroke="black" points="1308.39,-59.05 1311.55,-48.93 1302.77,-54.87 1308.39,-59.05"/>
</g>
<!-- 518 -->
<g id="node46" class="node">
<title>518</title>
<ellipse fill="#b9d3ee" stroke="black" cx="1373.9" cy="-34" rx="16.8" ry="18"/>
<text text-anchor="middle" x="1373.9" y="-30.3" font-family="Times,serif" font-size="14.00">3</text>
</g>
<!-- 40&#45;&gt;518 -->
<g id="edge52" class="edge">
<title>40&#45;&gt;518</title>
<path fill="none" stroke="black" d="M1283.92,-95.56C1301.21,-83.92 1330.82,-63.99 1351.33,-50.19"/>
<polygon fill="black" stroke="black" points="1353.42,-53 1359.76,-44.51 1349.51,-47.19 1353.42,-53"/>
</g>
<!-- 521 -->
<g id="node49" class="node">
<title>521</title>
<ellipse fill="#b9d3ee" stroke="black" cx="16.9" cy="-34" rx="16.8" ry="18"/>
<text text-anchor="middle" x="16.9" y="-30.3" font-family="Times,serif" font-size="14.00">5</text>
</g>
<!-- 41&#45;&gt;521 -->
<g id="edge55" class="edge">
<title>41&#45;&gt;521</title>
<path fill="none" stroke="black" d="M57.87,-90.15C50.72,-80.53 41.28,-67.82 33.26,-57.02"/>
<polygon fill="black" stroke="black" points="35.98,-54.81 27.2,-48.87 30.36,-58.99 35.98,-54.81"/>
</g>
<!-- 525 -->
<g id="node53" class="node">
<title>525</title>
<ellipse fill="#b9d3ee" stroke="black" cx="68.9" cy="-34" rx="16.8" ry="18"/>
<text text-anchor="middle" x="68.9" y="-30.3" font-family="Times,serif" font-size="14.00">7</text>
</g>
<!-- 41&#45;&gt;525 -->
<g id="edge59" class="edge">
<title>41&#45;&gt;525</title>
<path fill="none" stroke="black" d="M68.9,-87.7C68.9,-79.98 68.9,-70.71 68.9,-62.11"/>
<polygon fill="black" stroke="black" points="72.4,-62.1 68.9,-52.1 65.4,-62.1 72.4,-62.1"/>
</g>
<!-- 520 -->
<g id="node48" class="node">
<title>520</title>
<ellipse fill="#b9d3ee" stroke="black" cx="1787.9" cy="-34" rx="16.8" ry="18"/>
<text text-anchor="middle" x="1787.9" y="-30.3" font-family="Times,serif" font-size="14.00">5</text>
</g>
<!-- 42&#45;&gt;520 -->
<g id="edge54" class="edge">
<title>42&#45;&gt;520</title>
<path fill="none" stroke="black" d="M1787.9,-87.7C1787.9,-79.98 1787.9,-70.71 1787.9,-62.11"/>
<polygon fill="black" stroke="black" points="1791.4,-62.1 1787.9,-52.1 1784.4,-62.1 1791.4,-62.1"/>
</g>
<!-- 530 -->
<g id="node58" class="node">
<title>530</title>
<ellipse fill="#b9d3ee" stroke="black" cx="1845.9" cy="-34" rx="23" ry="18"/>
<text text-anchor="middle" x="1845.9" y="-30.3" font-family="Times,serif" font-size="14.00">18</text>
</g>
<!-- 42&#45;&gt;530 -->
<g id="edge64" class="edge">
<title>42&#45;&gt;530</title>
<path fill="none" stroke="black" d="M1799.92,-90.5C1807.85,-80.92 1818.4,-68.19 1827.39,-57.34"/>
<polygon fill="black" stroke="black" points="1830.21,-59.42 1833.9,-49.49 1824.82,-54.95 1830.21,-59.42"/>
</g>
<!-- 50 -->
<g id="node28" class="node">
<title>50</title>
<ellipse fill="#b9d3ee" stroke="black" cx="1903.9" cy="-34" rx="16.8" ry="18"/>
<text text-anchor="middle" x="1903.9" y="-30.3" font-family="Times,serif" font-size="14.00">1</text>
</g>
<!-- 43&#45;&gt;50 -->
<g id="edge34" class="edge">
<title>43&#45;&gt;50</title>
<path fill="none" stroke="black" d="M2008.7,-93.1C1987.38,-82.82 1956.2,-67.24 1929.9,-52 1928.77,-51.35 1927.62,-50.66 1926.47,-49.96"/>
<polygon fill="black" stroke="black" points="1928.08,-46.84 1917.76,-44.46 1924.34,-52.76 1928.08,-46.84"/>
</g>
<!-- 55 -->
<g id="node33" class="node">
<title>55</title>
<ellipse fill="#b9d3ee" stroke="black" cx="1955.9" cy="-34" rx="16.8" ry="18"/>
<text text-anchor="middle" x="1955.9" y="-30.3" font-family="Times,serif" font-size="14.00">1</text>
</g>
<!-- 43&#45;&gt;55 -->
<g id="edge39" class="edge">
<title>43&#45;&gt;55</title>
<path fill="none" stroke="black" d="M2016.97,-89.81C2005.07,-79.12 1989.06,-64.76 1976.42,-53.42"/>
<polygon fill="black" stroke="black" points="1978.46,-50.55 1968.68,-46.47 1973.79,-55.76 1978.46,-50.55"/>
</g>
<!-- 512 -->
<g id="node40" class="node">
<title>512</title>
<ellipse fill="#b9d3ee" stroke="black" cx="2007.9" cy="-34" rx="16.8" ry="18"/>
<text text-anchor="middle" x="2007.9" y="-30.3" font-family="Times,serif" font-size="14.00">2</text>
</g>
<!-- 43&#45;&gt;512 -->
<g id="edge46" class="edge">
<title>43&#45;&gt;512</title>
<path fill="none" stroke="black" d="M2027.6,-88.05C2024.56,-79.85 2020.84,-69.83 2017.45,-60.71"/>
<polygon fill="black" stroke="black" points="2020.72,-59.46 2013.96,-51.31 2014.16,-61.9 2020.72,-59.46"/>
</g>
<!-- 516 -->
<g id="node44" class="node">
<title>516</title>
<ellipse fill="#b9d3ee" stroke="black" cx="2059.9" cy="-34" rx="16.8" ry="18"/>
<text text-anchor="middle" x="2059.9" y="-30.3" font-family="Times,serif" font-size="14.00">3</text>
</g>
<!-- 43&#45;&gt;516 -->
<g id="edge50" class="edge">
<title>43&#45;&gt;516</title>
<path fill="none" stroke="black" d="M2040.19,-88.05C2043.24,-79.85 2046.96,-69.83 2050.35,-60.71"/>
<polygon fill="black" stroke="black" points="2053.64,-61.9 2053.84,-51.31 2047.08,-59.46 2053.64,-61.9"/>
</g>
<!-- 528 -->
<g id="node56" class="node">
<title>528</title>
<ellipse fill="#b9d3ee" stroke="black" cx="2117.9" cy="-34" rx="23" ry="18"/>
<text text-anchor="middle" x="2117.9" y="-30.3" font-family="Times,serif" font-size="14.00">14</text>
</g>
<!-- 43&#45;&gt;528 -->
<g id="edge62" class="edge">
<title>43&#45;&gt;528</title>
<path fill="none" stroke="black" d="M2051.71,-90.15C2064.24,-79.72 2081.11,-65.66 2094.69,-54.34"/>
<polygon fill="black" stroke="black" points="2097.2,-56.8 2102.64,-47.71 2092.72,-51.43 2097.2,-56.8"/>
</g>
<!-- 531 -->
<g id="node59" class="node">
<title>531</title>
<ellipse fill="#b9d3ee" stroke="black" cx="2180.9" cy="-34" rx="23" ry="18"/>
<text text-anchor="middle" x="2180.9" y="-30.3" font-family="Times,serif" font-size="14.00">19</text>
</g>
<!-- 43&#45;&gt;531 -->
<g id="edge65" class="edge">
<title>43&#45;&gt;531</title>
<path fill="none" stroke="black" d="M2060.42,-93.54C2084.1,-83.16 2119.62,-67.19 2149.9,-52 2151.24,-51.33 2152.6,-50.63 2153.97,-49.92"/>
<polygon fill="black" stroke="black" points="2155.81,-52.91 2162.98,-45.11 2152.51,-46.73 2155.81,-52.91"/>
</g>
<!-- 534 -->
<g id="node62" class="node">
<title>534</title>
<ellipse fill="#b9d3ee" stroke="black" cx="2243.9" cy="-34" rx="23" ry="18"/>
<text text-anchor="middle" x="2243.9" y="-30.3" font-family="Times,serif" font-size="14.00">62</text>
</g>
<!-- 43&#45;&gt;534 -->
<g id="edge68" class="edge">
<title>43&#45;&gt;534</title>
<path fill="none" stroke="black" d="M2065.97,-97.7C2102.35,-88.93 2163.09,-72.75 2212.9,-52 2214.28,-51.42 2215.68,-50.8 2217.08,-50.15"/>
<polygon fill="black" stroke="black" points="2218.84,-53.19 2226.19,-45.56 2215.68,-46.94 2218.84,-53.19"/>
</g>
<!-- 535 -->
<g id="node63" class="node">
<title>535</title>
<ellipse fill="#b9d3ee" stroke="black" cx="2320.9" cy="-34" rx="36" ry="18"/>
<text text-anchor="middle" x="2320.9" y="-30.3" font-family="Times,serif" font-size="14.00">297</text>
</g>
<!-- 43&#45;&gt;535 -->
<g id="edge69" class="edge">
<title>43&#45;&gt;535</title>
<path fill="none" stroke="black" d="M2067.56,-99.23C2114.67,-90.8 2202.71,-73.71 2275.9,-52 2278.51,-51.23 2281.19,-50.37 2283.87,-49.47"/>
<polygon fill="black" stroke="black" points="2285.24,-52.7 2293.51,-46.07 2282.91,-46.1 2285.24,-52.7"/>
</g>
<!-- 513 -->
<g id="node41" class="node">
<title>513</title>
<ellipse fill="#b9d3ee" stroke="black" cx="274.9" cy="-34" rx="16.8" ry="18"/>
<text text-anchor="middle" x="274.9" y="-30.3" font-family="Times,serif" font-size="14.00">2</text>
</g>
<!-- 44&#45;&gt;513 -->
<g id="edge47" class="edge">
<title>44&#45;&gt;513</title>
<path fill="none" stroke="black" d="M314.84,-88.76C307.81,-79.3 298.84,-67.23 291.19,-56.93"/>
<polygon fill="black" stroke="black" points="293.91,-54.73 285.14,-48.79 288.29,-58.9 293.91,-54.73"/>
</g>
<!-- 515 -->
<g id="node43" class="node">
<title>515</title>
<ellipse fill="#b9d3ee" stroke="black" cx="326.9" cy="-34" rx="16.8" ry="18"/>
<text text-anchor="middle" x="326.9" y="-30.3" font-family="Times,serif" font-size="14.00">3</text>
</g>
<!-- 44&#45;&gt;515 -->
<g id="edge49" class="edge">
<title>44&#45;&gt;515</title>
<path fill="none" stroke="black" d="M326.9,-87.7C326.9,-79.98 326.9,-70.71 326.9,-62.11"/>
<polygon fill="black" stroke="black" points="330.4,-62.1 326.9,-52.1 323.4,-62.1 330.4,-62.1"/>
</g>
<!-- 519 -->
<g id="node47" class="node">
<title>519</title>
<ellipse fill="#b9d3ee" stroke="black" cx="378.9" cy="-34" rx="16.8" ry="18"/>
<text text-anchor="middle" x="378.9" y="-30.3" font-family="Times,serif" font-size="14.00">4</text>
</g>
<!-- 44&#45;&gt;519 -->
<g id="edge53" class="edge">
<title>44&#45;&gt;519</title>
<path fill="none" stroke="black" d="M338.96,-88.76C345.99,-79.3 354.95,-67.23 362.61,-56.93"/>
<polygon fill="black" stroke="black" points="365.5,-58.9 368.66,-48.79 359.88,-54.73 365.5,-58.9"/>
</g>
<!-- 522 -->
<g id="node50" class="node">
<title>522</title>
<ellipse fill="#b9d3ee" stroke="black" cx="430.9" cy="-34" rx="16.8" ry="18"/>
<text text-anchor="middle" x="430.9" y="-30.3" font-family="Times,serif" font-size="14.00">7</text>
</g>
<!-- 44&#45;&gt;522 -->
<g id="edge56" class="edge">
<title>44&#45;&gt;522</title>
<path fill="none" stroke="black" d="M347.45,-91.17C364.99,-79.36 390.18,-62.41 408.29,-50.22"/>
<polygon fill="black" stroke="black" points="410.7,-52.82 417.04,-44.33 406.79,-47.01 410.7,-52.82"/>
</g>
<!-- 527 -->
<g id="node55" class="node">
<title>527</title>
<ellipse fill="#b9d3ee" stroke="black" cx="126.9" cy="-34" rx="23" ry="18"/>
<text text-anchor="middle" x="126.9" y="-30.3" font-family="Times,serif" font-size="14.00">13</text>
</g>
<!-- 44&#45;&gt;527 -->
<g id="edge61" class="edge">
<title>44&#45;&gt;527</title>
<path fill="none" stroke="black" d="M295.64,-96.98C261.43,-87.79 205.3,-71.45 158.9,-52 157.3,-51.33 155.68,-50.61 154.06,-49.86"/>
<polygon fill="black" stroke="black" points="155.41,-46.62 144.9,-45.3 152.29,-52.89 155.41,-46.62"/>
</g>
<!-- 537 -->
<g id="node65" class="node">
<title>537</title>
<ellipse fill="#b9d3ee" stroke="black" cx="203.9" cy="-34" rx="36" ry="18"/>
<text text-anchor="middle" x="203.9" y="-30.3" font-family="Times,serif" font-size="14.00">355</text>
</g>
<!-- 44&#45;&gt;537 -->
<g id="edge71" class="edge">
<title>44&#45;&gt;537</title>
<path fill="none" stroke="black" d="M304.05,-92C284.84,-81.07 257.17,-65.32 235.78,-53.14"/>
<polygon fill="black" stroke="black" points="237.46,-50.07 227.04,-48.17 234,-56.16 237.46,-50.07"/>
</g>
<!-- 52 -->
<g id="node30" class="node">
<title>52</title>
<ellipse fill="#b9d3ee" stroke="black" cx="1425.9" cy="-34" rx="16.8" ry="18"/>
<text text-anchor="middle" x="1425.9" y="-30.3" font-family="Times,serif" font-size="14.00">1</text>
</g>
<!-- 45&#45;&gt;52 -->
<g id="edge36" class="edge">
<title>45&#45;&gt;52</title>
<path fill="none" stroke="black" d="M1530.7,-93.1C1509.38,-82.82 1478.2,-67.24 1451.9,-52 1450.77,-51.35 1449.62,-50.66 1448.47,-49.96"/>
<polygon fill="black" stroke="black" points="1450.08,-46.84 1439.76,-44.46 1446.34,-52.76 1450.08,-46.84"/>
</g>
<!-- 53 -->
<g id="node31" class="node">
<title>53</title>
<ellipse fill="#b9d3ee" stroke="black" cx="1477.9" cy="-34" rx="16.8" ry="18"/>
<text text-anchor="middle" x="1477.9" y="-30.3" font-family="Times,serif" font-size="14.00">1</text>
</g>
<!-- 45&#45;&gt;53 -->
<g id="edge37" class="edge">
<title>45&#45;&gt;53</title>
<path fill="none" stroke="black" d="M1538.97,-89.81C1527.07,-79.12 1511.06,-64.76 1498.42,-53.42"/>
<polygon fill="black" stroke="black" points="1500.46,-50.55 1490.68,-46.47 1495.79,-55.76 1500.46,-50.55"/>
</g>
<!-- 59 -->
<g id="node37" class="node">
<title>59</title>
<ellipse fill="#b9d3ee" stroke="black" cx="1529.9" cy="-34" rx="16.8" ry="18"/>
<text text-anchor="middle" x="1529.9" y="-30.3" font-family="Times,serif" font-size="14.00">2</text>
</g>
<!-- 45&#45;&gt;59 -->
<g id="edge43" class="edge">
<title>45&#45;&gt;59</title>
<path fill="none" stroke="black" d="M1549.6,-88.05C1546.56,-79.85 1542.84,-69.83 1539.45,-60.71"/>
<polygon fill="black" stroke="black" points="1542.72,-59.46 1535.96,-51.31 1536.16,-61.9 1542.72,-59.46"/>
</g>
<!-- 510 -->
<g id="node38" class="node">
<title>510</title>
<ellipse fill="#b9d3ee" stroke="black" cx="1581.9" cy="-34" rx="16.8" ry="18"/>
<text text-anchor="middle" x="1581.9" y="-30.3" font-family="Times,serif" font-size="14.00">2</text>
</g>
<!-- 45&#45;&gt;510 -->
<g id="edge44" class="edge">
<title>45&#45;&gt;510</title>
<path fill="none" stroke="black" d="M1562.19,-88.05C1565.24,-79.85 1568.96,-69.83 1572.35,-60.71"/>
<polygon fill="black" stroke="black" points="1575.64,-61.9 1575.84,-51.31 1569.08,-59.46 1575.64,-61.9"/>
</g>
<!-- 533 -->
<g id="node61" class="node">
<title>533</title>
<ellipse fill="#b9d3ee" stroke="black" cx="1639.9" cy="-34" rx="23" ry="18"/>
<text text-anchor="middle" x="1639.9" y="-30.3" font-family="Times,serif" font-size="14.00">33</text>
</g>
<!-- 45&#45;&gt;533 -->
<g id="edge67" class="edge">
<title>45&#45;&gt;533</title>
<path fill="none" stroke="black" d="M1573.71,-90.15C1586.24,-79.72 1603.11,-65.66 1616.69,-54.34"/>
<polygon fill="black" stroke="black" points="1619.2,-56.8 1624.64,-47.71 1614.72,-51.43 1619.2,-56.8"/>
</g>
<!-- 536 -->
<g id="node64" class="node">
<title>536</title>
<ellipse fill="#b9d3ee" stroke="black" cx="1716.9" cy="-34" rx="36" ry="18"/>
<text text-anchor="middle" x="1716.9" y="-30.3" font-family="Times,serif" font-size="14.00">340</text>
</g>
<!-- 45&#45;&gt;536 -->
<g id="edge70" class="edge">
<title>45&#45;&gt;536</title>
<path fill="none" stroke="black" d="M1582.12,-93.6C1609.14,-81.85 1651.42,-63.47 1681.41,-50.43"/>
<polygon fill="black" stroke="black" points="1682.91,-53.59 1690.68,-46.4 1680.12,-47.18 1682.91,-53.59"/>
</g>
<!-- 511 -->
<g id="node39" class="node">
<title>511</title>
<ellipse fill="#b9d3ee" stroke="black" cx="1101.9" cy="-34" rx="16.8" ry="18"/>
<text text-anchor="middle" x="1101.9" y="-30.3" font-family="Times,serif" font-size="14.00">2</text>
</g>
<!-- 46&#45;&gt;511 -->
<g id="edge45" class="edge">
<title>46&#45;&gt;511</title>
<path fill="none" stroke="black" d="M1123.88,-88.05C1120.43,-79.73 1116.21,-69.54 1112.39,-60.32"/>
<polygon fill="black" stroke="black" points="1115.52,-58.73 1108.46,-50.83 1109.05,-61.41 1115.52,-58.73"/>
</g>
<!-- 529 -->
<g id="node57" class="node">
<title>529</title>
<ellipse fill="#b9d3ee" stroke="black" cx="1159.9" cy="-34" rx="23" ry="18"/>
<text text-anchor="middle" x="1159.9" y="-30.3" font-family="Times,serif" font-size="14.00">15</text>
</g>
<!-- 46&#45;&gt;529 -->
<g id="edge63" class="edge">
<title>46&#45;&gt;529</title>
<path fill="none" stroke="black" d="M1137.92,-88.05C1141.32,-79.85 1145.47,-69.83 1149.25,-60.71"/>
<polygon fill="black" stroke="black" points="1152.55,-61.89 1153.14,-51.31 1146.08,-59.21 1152.55,-61.89"/>
</g>
<!-- 538 -->
<g id="node66" class="node">
<title>538</title>
<ellipse fill="#b9d3ee" stroke="black" cx="1030.9" cy="-34" rx="36" ry="18"/>
<text text-anchor="middle" x="1030.9" y="-30.3" font-family="Times,serif" font-size="14.00">359</text>
</g>
<!-- 46&#45;&gt;538 -->
<g id="edge72" class="edge">
<title>46&#45;&gt;538</title>
<path fill="none" stroke="black" d="M1110.66,-90.83C1096.02,-80.59 1076.03,-66.59 1059.73,-55.18"/>
<polygon fill="black" stroke="black" points="1061.3,-52.01 1051.1,-49.14 1057.29,-57.75 1061.3,-52.01"/>
</g>
<!-- 51 -->
<g id="node29" class="node">
<title>51</title>
<ellipse fill="#b9d3ee" stroke="black" cx="803.9" cy="-34" rx="16.8" ry="18"/>
<text text-anchor="middle" x="803.9" y="-30.3" font-family="Times,serif" font-size="14.00">1</text>
</g>
<!-- 47&#45;&gt;51 -->
<g id="edge35" class="edge">
<title>47&#45;&gt;51</title>
<path fill="none" stroke="black" d="M777.19,-88.41C781.5,-79.8 786.84,-69.11 791.62,-59.56"/>
<polygon fill="black" stroke="black" points="794.8,-61.02 796.14,-50.51 788.54,-57.89 794.8,-61.02"/>
</g>
<!-- 54 -->
<g id="node32" class="node">
<title>54</title>
<ellipse fill="#b9d3ee" stroke="black" cx="855.9" cy="-34" rx="16.8" ry="18"/>
<text text-anchor="middle" x="855.9" y="-30.3" font-family="Times,serif" font-size="14.00">1</text>
</g>
<!-- 47&#45;&gt;54 -->
<g id="edge38" class="edge">
<title>47&#45;&gt;54</title>
<path fill="none" stroke="black" d="M787.35,-90.15C801.28,-78.95 820.4,-63.56 834.91,-51.89"/>
<polygon fill="black" stroke="black" points="837.25,-54.5 842.84,-45.5 832.86,-49.05 837.25,-54.5"/>
</g>
<!-- 58 -->
<g id="node36" class="node">
<title>58</title>
<ellipse fill="#b9d3ee" stroke="black" cx="907.9" cy="-34" rx="16.8" ry="18"/>
<text text-anchor="middle" x="907.9" y="-30.3" font-family="Times,serif" font-size="14.00">2</text>
</g>
<!-- 47&#45;&gt;58 -->
<g id="edge42" class="edge">
<title>47&#45;&gt;58</title>
<path fill="none" stroke="black" d="M795.45,-93.81C818.69,-83.72 853.13,-68.04 881.9,-52 883.04,-51.36 884.19,-50.7 885.35,-50.01"/>
<polygon fill="black" stroke="black" points="887.47,-52.82 894.09,-44.54 883.75,-46.88 887.47,-52.82"/>
</g>
<!-- 517 -->
<g id="node45" class="node">
<title>517</title>
<ellipse fill="#b9d3ee" stroke="black" cx="959.9" cy="-34" rx="16.8" ry="18"/>
<text text-anchor="middle" x="959.9" y="-30.3" font-family="Times,serif" font-size="14.00">3</text>
</g>
<!-- 47&#45;&gt;517 -->
<g id="edge51" class="edge">
<title>47&#45;&gt;517</title>
<path fill="none" stroke="black" d="M800.88,-97.46C834.84,-88.82 889.63,-73.11 933.9,-52 935.08,-51.44 936.26,-50.83 937.45,-50.19"/>
<polygon fill="black" stroke="black" points="939.5,-53.04 946.27,-44.89 935.89,-47.04 939.5,-53.04"/>
</g>
<!-- 523 -->
<g id="node51" class="node">
<title>523</title>
<ellipse fill="#b9d3ee" stroke="black" cx="482.9" cy="-34" rx="16.8" ry="18"/>
<text text-anchor="middle" x="482.9" y="-30.3" font-family="Times,serif" font-size="14.00">7</text>
</g>
<!-- 47&#45;&gt;523 -->
<g id="edge57" class="edge">
<title>47&#45;&gt;523</title>
<path fill="none" stroke="black" d="M733.61,-102.05C682.43,-96.85 585.38,-83.44 508.9,-52 507.69,-51.5 506.48,-50.95 505.28,-50.35"/>
<polygon fill="black" stroke="black" points="506.8,-47.19 496.39,-45.2 503.29,-53.24 506.8,-47.19"/>
</g>
<!-- 524 -->
<g id="node52" class="node">
<title>524</title>
<ellipse fill="#b9d3ee" stroke="black" cx="534.9" cy="-34" rx="16.8" ry="18"/>
<text text-anchor="middle" x="534.9" y="-30.3" font-family="Times,serif" font-size="14.00">7</text>
</g>
<!-- 47&#45;&gt;524 -->
<g id="edge58" class="edge">
<title>47&#45;&gt;524</title>
<path fill="none" stroke="black" d="M735,-99.9C692.87,-92.77 619.4,-77.73 560.9,-52 559.7,-51.47 558.5,-50.9 557.31,-50.28"/>
<polygon fill="black" stroke="black" points="558.84,-47.12 548.45,-45.06 555.29,-53.15 558.84,-47.12"/>
</g>
<!-- 526 -->
<g id="node54" class="node">
<title>526</title>
<ellipse fill="#b9d3ee" stroke="black" cx="592.9" cy="-34" rx="23" ry="18"/>
<text text-anchor="middle" x="592.9" y="-30.3" font-family="Times,serif" font-size="14.00">11</text>
</g>
<!-- 47&#45;&gt;526 -->
<g id="edge60" class="edge">
<title>47&#45;&gt;526</title>
<path fill="none" stroke="black" d="M739.22,-95.62C709.53,-85.89 662.83,-69.67 623.9,-52 622.54,-51.38 621.15,-50.73 619.76,-50.05"/>
<polygon fill="black" stroke="black" points="621.19,-46.84 610.7,-45.36 617.97,-53.06 621.19,-46.84"/>
</g>
<!-- 532 -->
<g id="node60" class="node">
<title>532</title>
<ellipse fill="#b9d3ee" stroke="black" cx="655.9" cy="-34" rx="23" ry="18"/>
<text text-anchor="middle" x="655.9" y="-30.3" font-family="Times,serif" font-size="14.00">27</text>
</g>
<!-- 47&#45;&gt;532 -->
<g id="edge66" class="edge">
<title>47&#45;&gt;532</title>
<path fill="none" stroke="black" d="M747.11,-91.5C728.42,-79.93 701.47,-63.23 681.7,-50.98"/>
<polygon fill="black" stroke="black" points="683.53,-48 673.18,-45.71 679.84,-53.95 683.53,-48"/>
</g>
<!-- 539 -->
<g id="node67" class="node">
<title>539</title>
<ellipse fill="#b9d3ee" stroke="black" cx="732.9" cy="-34" rx="36" ry="18"/>
<text text-anchor="middle" x="732.9" y="-30.3" font-family="Times,serif" font-size="14.00">361</text>
</g>
<!-- 47&#45;&gt;539 -->
<g id="edge73" class="edge">
<title>47&#45;&gt;539</title>
<path fill="none" stroke="black" d="M760.37,-88.41C756.17,-80.25 751.01,-70.22 746.3,-61.07"/>
<polygon fill="black" stroke="black" points="749.3,-59.25 741.62,-51.96 743.08,-62.45 749.3,-59.25"/>
</g>
<!-- legend_5 -->
<g id="node68" class="node">
<title>legend_5</title>
<polygon fill="#b9d3ee" stroke="black" points="2588.9,-52 2376.9,-52 2376.9,-16 2588.9,-16 2588.9,-52"/>
<text text-anchor="middle" x="2482.9" y="-30.3" font-family="Times,serif" font-size="14.00">DT=6 ST=1 Similarity=0.6</text>
</g>
<!-- legend_4&#45;&gt;legend_5 -->
<g id="edge74" class="edge">
<title>legend_4&#45;&gt;legend_5</title>
<path fill="none" stroke="black" d="M2482.9,-87.7C2482.9,-79.98 2482.9,-70.71 2482.9,-62.11"/>
<polygon fill="black" stroke="black" points="2486.4,-62.1 2482.9,-52.1 2479.4,-62.1 2486.4,-62.1"/>
</g>
</g>
</svg>
