<?xml version="1.0" encoding="UTF-8" standalone="no"?>
<!DOCTYPE svg PUBLIC "-//W3C//DTD SVG 1.1//EN"
 "http://www.w3.org/Graphics/SVG/1.1/DTD/svg11.dtd">
<!-- Generated by graphviz version 2.43.0 (0)
 -->
<!-- Title: %3 Pages: 1 -->
<svg width="2509pt" height="209pt"
 viewBox="0.00 0.00 2509.00 209.00" xmlns="http://www.w3.org/2000/svg" xmlns:xlink="http://www.w3.org/1999/xlink">
<g id="graph0" class="graph" transform="scale(1 1) rotate(0) translate(4 205)">
<title>%3</title>
<polygon fill="white" stroke="transparent" points="-4,4 -4,-205 2505,-205 2505,4 -4,4"/>
<text text-anchor="middle" x="1250.5" y="-185.8" font-family="Times,serif" font-size="14.00">ConsTree</text>
<text text-anchor="middle" x="1250.5" y="-170.8" font-family="Times,serif" font-size="14.00">Tree Quality = 0.33333333333333337</text>
<g id="clust1" class="cluster">
<title>cluster</title>
<polygon fill="none" stroke="black" points="2257,-8 2257,-155 2493,-155 2493,-8 2257,-8"/>
<text text-anchor="middle" x="2375" y="-139.8" font-family="Times,serif" font-size="14.00">Legend</text>
</g>
<!-- 00 -->
<g id="node1" class="node">
<title>00</title>
<ellipse fill="#b9d3ee" stroke="black" cx="981" cy="-106" rx="324" ry="18"/>
<text text-anchor="middle" x="981" y="-102.3" font-family="Times,serif" font-size="14.00">2000</text>
</g>
<!-- 10 -->
<g id="node3" class="node">
<title>10</title>
<polygon fill="darkseagreen" stroke="black" points="26,-52 0,-52 0,-16 26,-16 26,-52"/>
<text text-anchor="middle" x="13" y="-30.3" font-family="Times,serif" font-size="14.00">1</text>
</g>
<!-- 00&#45;&gt;10 -->
<g id="edge1" class="edge">
<title>00&#45;&gt;10</title>
<path fill="none" stroke="black" d="M694.97,-97.53C439.23,-89.45 95.64,-74.61 35,-52 34.9,-51.96 34.81,-51.93 34.71,-51.89"/>
<polygon fill="black" stroke="black" points="36.64,-48.96 26.19,-47.18 33.25,-55.08 36.64,-48.96"/>
</g>
<!-- 11 -->
<g id="node4" class="node">
<title>11</title>
<polygon fill="darkseagreen" stroke="black" points="70,-52 44,-52 44,-16 70,-16 70,-52"/>
<text text-anchor="middle" x="57" y="-30.3" font-family="Times,serif" font-size="14.00">1</text>
</g>
<!-- 00&#45;&gt;11 -->
<g id="edge2" class="edge">
<title>00&#45;&gt;11</title>
<path fill="none" stroke="black" d="M701.56,-96.87C458.45,-88.43 136.27,-73.44 79,-52 78.9,-51.96 78.81,-51.93 78.71,-51.89"/>
<polygon fill="black" stroke="black" points="80.64,-48.96 70.19,-47.18 77.25,-55.08 80.64,-48.96"/>
</g>
<!-- 12 -->
<g id="node5" class="node">
<title>12</title>
<polygon fill="darkseagreen" stroke="black" points="114,-52 88,-52 88,-16 114,-16 114,-52"/>
<text text-anchor="middle" x="101" y="-30.3" font-family="Times,serif" font-size="14.00">1</text>
</g>
<!-- 00&#45;&gt;12 -->
<g id="edge3" class="edge">
<title>00&#45;&gt;12</title>
<path fill="none" stroke="black" d="M709.05,-96.19C478.54,-87.41 176.98,-72.3 123,-52 122.9,-51.96 122.81,-51.93 122.71,-51.89"/>
<polygon fill="black" stroke="black" points="124.64,-48.96 114.2,-47.17 121.25,-55.08 124.64,-48.96"/>
</g>
<!-- 13 -->
<g id="node6" class="node">
<title>13</title>
<polygon fill="darkseagreen" stroke="black" points="158,-52 132,-52 132,-16 158,-16 158,-52"/>
<text text-anchor="middle" x="145" y="-30.3" font-family="Times,serif" font-size="14.00">1</text>
</g>
<!-- 00&#45;&gt;13 -->
<g id="edge4" class="edge">
<title>00&#45;&gt;13</title>
<path fill="none" stroke="black" d="M660.96,-103.17C472.99,-98.41 255.42,-85.43 167,-52 166.9,-51.96 166.81,-51.93 166.71,-51.89"/>
<polygon fill="black" stroke="black" points="168.64,-48.96 158.2,-47.16 165.24,-55.08 168.64,-48.96"/>
</g>
<!-- 14 -->
<g id="node7" class="node">
<title>14</title>
<polygon fill="darkseagreen" stroke="black" points="202,-52 176,-52 176,-16 202,-16 202,-52"/>
<text text-anchor="middle" x="189" y="-30.3" font-family="Times,serif" font-size="14.00">1</text>
</g>
<!-- 00&#45;&gt;14 -->
<g id="edge5" class="edge">
<title>00&#45;&gt;14</title>
<path fill="none" stroke="black" d="M666.2,-101.68C491.22,-96.24 292.73,-83.07 211,-52 210.9,-51.96 210.81,-51.93 210.71,-51.89"/>
<polygon fill="black" stroke="black" points="212.64,-48.96 202.2,-47.15 209.24,-55.07 212.64,-48.96"/>
</g>
<!-- 15 -->
<g id="node8" class="node">
<title>15</title>
<polygon fill="darkseagreen" stroke="black" points="246,-52 220,-52 220,-16 246,-16 246,-52"/>
<text text-anchor="middle" x="233" y="-30.3" font-family="Times,serif" font-size="14.00">1</text>
</g>
<!-- 00&#45;&gt;15 -->
<g id="edge6" class="edge">
<title>00&#45;&gt;15</title>
<path fill="none" stroke="black" d="M674.18,-100.16C511.69,-94.12 330.47,-80.87 255,-52 254.9,-51.96 254.81,-51.93 254.71,-51.89"/>
<polygon fill="black" stroke="black" points="256.65,-48.96 246.21,-47.14 253.23,-55.07 256.65,-48.96"/>
</g>
<!-- 16 -->
<g id="node9" class="node">
<title>16</title>
<polygon fill="darkseagreen" stroke="black" points="290,-52 264,-52 264,-16 290,-16 290,-52"/>
<text text-anchor="middle" x="277" y="-30.3" font-family="Times,serif" font-size="14.00">1</text>
</g>
<!-- 00&#45;&gt;16 -->
<g id="edge7" class="edge">
<title>00&#45;&gt;16</title>
<path fill="none" stroke="black" d="M685.12,-98.65C534.46,-92.1 368.68,-78.84 299,-52 298.9,-51.96 298.81,-51.93 298.71,-51.89"/>
<polygon fill="black" stroke="black" points="300.65,-48.96 290.21,-47.13 297.23,-55.07 300.65,-48.96"/>
</g>
<!-- 17 -->
<g id="node10" class="node">
<title>17</title>
<polygon fill="darkseagreen" stroke="black" points="334,-52 308,-52 308,-16 334,-16 334,-52"/>
<text text-anchor="middle" x="321" y="-30.3" font-family="Times,serif" font-size="14.00">1</text>
</g>
<!-- 00&#45;&gt;17 -->
<g id="edge8" class="edge">
<title>00&#45;&gt;17</title>
<path fill="none" stroke="black" d="M698.29,-97.15C558.93,-90.16 407.24,-76.94 343,-52 342.9,-51.96 342.81,-51.93 342.71,-51.89"/>
<polygon fill="black" stroke="black" points="344.65,-48.96 334.22,-47.12 341.22,-55.06 344.65,-48.96"/>
</g>
<!-- 18 -->
<g id="node11" class="node">
<title>18</title>
<polygon fill="darkseagreen" stroke="black" points="378,-52 352,-52 352,-16 378,-16 378,-52"/>
<text text-anchor="middle" x="365" y="-30.3" font-family="Times,serif" font-size="14.00">1</text>
</g>
<!-- 00&#45;&gt;18 -->
<g id="edge9" class="edge">
<title>00&#45;&gt;18</title>
<path fill="none" stroke="black" d="M714.22,-95.74C585.44,-88.35 446.23,-75.21 387,-52 386.9,-51.96 386.81,-51.92 386.71,-51.89"/>
<polygon fill="black" stroke="black" points="388.65,-48.96 378.22,-47.1 385.22,-55.06 388.65,-48.96"/>
</g>
<!-- 19 -->
<g id="node12" class="node">
<title>19</title>
<polygon fill="darkseagreen" stroke="black" points="422,-52 396,-52 396,-16 422,-16 422,-52"/>
<text text-anchor="middle" x="409" y="-30.3" font-family="Times,serif" font-size="14.00">1</text>
</g>
<!-- 00&#45;&gt;19 -->
<g id="edge10" class="edge">
<title>00&#45;&gt;19</title>
<path fill="none" stroke="black" d="M732.49,-94.41C613.65,-86.67 485.57,-73.61 431,-52 430.9,-51.96 430.81,-51.92 430.71,-51.89"/>
<polygon fill="black" stroke="black" points="432.66,-48.96 422.23,-47.08 429.21,-55.06 432.66,-48.96"/>
</g>
<!-- 110 -->
<g id="node13" class="node">
<title>110</title>
<polygon fill="darkseagreen" stroke="black" points="466,-52 440,-52 440,-16 466,-16 466,-52"/>
<text text-anchor="middle" x="453" y="-30.3" font-family="Times,serif" font-size="14.00">1</text>
</g>
<!-- 00&#45;&gt;110 -->
<g id="edge11" class="edge">
<title>00&#45;&gt;110</title>
<path fill="none" stroke="black" d="M752.67,-93.21C643.24,-85.12 525.22,-72.12 475,-52 474.9,-51.96 474.81,-51.92 474.71,-51.88"/>
<polygon fill="black" stroke="black" points="476.66,-48.96 466.24,-47.06 473.2,-55.05 476.66,-48.96"/>
</g>
<!-- 111 -->
<g id="node14" class="node">
<title>111</title>
<polygon fill="darkseagreen" stroke="black" points="510,-52 484,-52 484,-16 510,-16 510,-52"/>
<text text-anchor="middle" x="497" y="-30.3" font-family="Times,serif" font-size="14.00">1</text>
</g>
<!-- 00&#45;&gt;111 -->
<g id="edge12" class="edge">
<title>00&#45;&gt;111</title>
<path fill="none" stroke="black" d="M774.02,-92.11C673.67,-83.69 565.04,-70.71 519,-52 518.9,-51.96 518.81,-51.92 518.72,-51.88"/>
<polygon fill="black" stroke="black" points="520.67,-48.97 510.25,-47.04 517.19,-55.04 520.67,-48.97"/>
</g>
<!-- 112 -->
<g id="node15" class="node">
<title>112</title>
<polygon fill="darkseagreen" stroke="black" points="554,-52 528,-52 528,-16 554,-16 554,-52"/>
<text text-anchor="middle" x="541" y="-30.3" font-family="Times,serif" font-size="14.00">1</text>
</g>
<!-- 00&#45;&gt;112 -->
<g id="edge13" class="edge">
<title>00&#45;&gt;112</title>
<path fill="none" stroke="black" d="M796.74,-91.18C705.1,-82.41 605.08,-69.4 563,-52 562.91,-51.96 562.81,-51.92 562.72,-51.88"/>
<polygon fill="black" stroke="black" points="564.67,-48.97 554.26,-47.01 561.18,-55.03 564.67,-48.97"/>
</g>
<!-- 113 -->
<g id="node16" class="node">
<title>113</title>
<polygon fill="darkseagreen" stroke="black" points="598,-52 572,-52 572,-16 598,-16 598,-52"/>
<text text-anchor="middle" x="585" y="-30.3" font-family="Times,serif" font-size="14.00">2</text>
</g>
<!-- 00&#45;&gt;113 -->
<g id="edge14" class="edge">
<title>00&#45;&gt;113</title>
<path fill="none" stroke="black" d="M759.83,-92.84C708.28,-84.82 654.58,-72.08 607,-52 606.91,-51.96 606.81,-51.92 606.72,-51.88"/>
<polygon fill="black" stroke="black" points="608.68,-48.97 598.28,-46.97 605.16,-55.02 608.68,-48.97"/>
</g>
<!-- 114 -->
<g id="node17" class="node">
<title>114</title>
<polygon fill="darkseagreen" stroke="black" points="642,-52 616,-52 616,-16 642,-16 642,-52"/>
<text text-anchor="middle" x="629" y="-30.3" font-family="Times,serif" font-size="14.00">2</text>
</g>
<!-- 00&#45;&gt;114 -->
<g id="edge15" class="edge">
<title>00&#45;&gt;114</title>
<path fill="none" stroke="black" d="M793.13,-91.32C745.42,-83.43 695.2,-71.13 651,-52 650.91,-51.96 650.81,-51.92 650.72,-51.88"/>
<polygon fill="black" stroke="black" points="652.69,-48.98 642.29,-46.93 649.14,-55.01 652.69,-48.98"/>
</g>
<!-- 115 -->
<g id="node18" class="node">
<title>115</title>
<polygon fill="darkseagreen" stroke="black" points="686,-52 660,-52 660,-16 686,-16 686,-52"/>
<text text-anchor="middle" x="673" y="-30.3" font-family="Times,serif" font-size="14.00">2</text>
</g>
<!-- 00&#45;&gt;115 -->
<g id="edge16" class="edge">
<title>00&#45;&gt;115</title>
<path fill="none" stroke="black" d="M826.67,-90.12C782.83,-82.28 735.91,-70.3 695,-52 694.91,-51.96 694.81,-51.92 694.72,-51.87"/>
<polygon fill="black" stroke="black" points="696.7,-48.98 686.32,-46.87 693.12,-54.99 696.7,-48.98"/>
</g>
<!-- 116 -->
<g id="node19" class="node">
<title>116</title>
<polygon fill="darkseagreen" stroke="black" points="730,-52 704,-52 704,-16 730,-16 730,-52"/>
<text text-anchor="middle" x="717" y="-30.3" font-family="Times,serif" font-size="14.00">2</text>
</g>
<!-- 00&#45;&gt;116 -->
<g id="edge17" class="edge">
<title>00&#45;&gt;116</title>
<path fill="none" stroke="black" d="M859.72,-89.3C820.02,-81.35 776.51,-69.51 739,-52 738.91,-51.96 738.81,-51.91 738.72,-51.87"/>
<polygon fill="black" stroke="black" points="740.72,-48.99 730.36,-46.79 737.09,-54.97 740.72,-48.99"/>
</g>
<!-- 117 -->
<g id="node20" class="node">
<title>117</title>
<polygon fill="darkseagreen" stroke="black" points="774,-52 748,-52 748,-16 774,-16 774,-52"/>
<text text-anchor="middle" x="761" y="-30.3" font-family="Times,serif" font-size="14.00">2</text>
</g>
<!-- 00&#45;&gt;117 -->
<g id="edge18" class="edge">
<title>00&#45;&gt;117</title>
<path fill="none" stroke="black" d="M890.06,-88.62C855.44,-80.36 816.33,-68.5 783,-52 782.91,-51.95 782.82,-51.91 782.72,-51.86"/>
<polygon fill="black" stroke="black" points="784.75,-49 774.41,-46.68 781.05,-54.94 784.75,-49"/>
</g>
<!-- 118 -->
<g id="node21" class="node">
<title>118</title>
<polygon fill="darkseagreen" stroke="black" points="818,-52 792,-52 792,-16 818,-16 818,-52"/>
<text text-anchor="middle" x="805" y="-30.3" font-family="Times,serif" font-size="14.00">2</text>
</g>
<!-- 00&#45;&gt;118 -->
<g id="edge19" class="edge">
<title>00&#45;&gt;118</title>
<path fill="none" stroke="black" d="M917.6,-88.29C889.01,-79.49 855.37,-67.3 827,-52 826.81,-51.9 826.62,-51.79 826.43,-51.69"/>
<polygon fill="black" stroke="black" points="828.3,-48.73 818.02,-46.17 824.46,-54.58 828.3,-48.73"/>
</g>
<!-- 119 -->
<g id="node22" class="node">
<title>119</title>
<polygon fill="darkseagreen" stroke="black" points="862,-52 836,-52 836,-16 862,-16 862,-52"/>
<text text-anchor="middle" x="849" y="-30.3" font-family="Times,serif" font-size="14.00">2</text>
</g>
<!-- 00&#45;&gt;119 -->
<g id="edge20" class="edge">
<title>00&#45;&gt;119</title>
<path fill="none" stroke="black" d="M940.74,-88.05C919.44,-78.48 893.18,-65.7 871,-52 870.82,-51.89 870.63,-51.77 870.44,-51.65"/>
<polygon fill="black" stroke="black" points="872.38,-48.74 862.18,-45.89 868.38,-54.48 872.38,-48.74"/>
</g>
<!-- 120 -->
<g id="node23" class="node">
<title>120</title>
<polygon fill="darkseagreen" stroke="black" points="906,-52 880,-52 880,-16 906,-16 906,-52"/>
<text text-anchor="middle" x="893" y="-30.3" font-family="Times,serif" font-size="14.00">3</text>
</g>
<!-- 00&#45;&gt;120 -->
<g id="edge21" class="edge">
<title>00&#45;&gt;120</title>
<path fill="none" stroke="black" d="M959.25,-87.7C945.42,-76.7 927.62,-62.54 913.95,-51.67"/>
<polygon fill="black" stroke="black" points="916.05,-48.87 906.05,-45.38 911.7,-54.34 916.05,-48.87"/>
</g>
<!-- 121 -->
<g id="node24" class="node">
<title>121</title>
<polygon fill="darkseagreen" stroke="black" points="950,-52 924,-52 924,-16 950,-16 950,-52"/>
<text text-anchor="middle" x="937" y="-30.3" font-family="Times,serif" font-size="14.00">3</text>
</g>
<!-- 00&#45;&gt;121 -->
<g id="edge22" class="edge">
<title>00&#45;&gt;121</title>
<path fill="none" stroke="black" d="M970.12,-87.7C965.01,-79.56 958.8,-69.69 953.16,-60.7"/>
<polygon fill="black" stroke="black" points="956.04,-58.71 947.75,-52.1 950.11,-62.43 956.04,-58.71"/>
</g>
<!-- 122 -->
<g id="node25" class="node">
<title>122</title>
<polygon fill="darkseagreen" stroke="black" points="994,-52 968,-52 968,-16 994,-16 994,-52"/>
<text text-anchor="middle" x="981" y="-30.3" font-family="Times,serif" font-size="14.00">4</text>
</g>
<!-- 00&#45;&gt;122 -->
<g id="edge23" class="edge">
<title>00&#45;&gt;122</title>
<path fill="none" stroke="black" d="M981,-87.7C981,-79.98 981,-70.71 981,-62.11"/>
<polygon fill="black" stroke="black" points="984.5,-62.1 981,-52.1 977.5,-62.1 984.5,-62.1"/>
</g>
<!-- 123 -->
<g id="node26" class="node">
<title>123</title>
<polygon fill="darkseagreen" stroke="black" points="1038,-52 1012,-52 1012,-16 1038,-16 1038,-52"/>
<text text-anchor="middle" x="1025" y="-30.3" font-family="Times,serif" font-size="14.00">4</text>
</g>
<!-- 00&#45;&gt;123 -->
<g id="edge24" class="edge">
<title>00&#45;&gt;123</title>
<path fill="none" stroke="black" d="M991.88,-87.7C996.99,-79.56 1003.2,-69.69 1008.84,-60.7"/>
<polygon fill="black" stroke="black" points="1011.89,-62.43 1014.25,-52.1 1005.96,-58.71 1011.89,-62.43"/>
</g>
<!-- 124 -->
<g id="node27" class="node">
<title>124</title>
<polygon fill="darkseagreen" stroke="black" points="1082,-52 1056,-52 1056,-16 1082,-16 1082,-52"/>
<text text-anchor="middle" x="1069" y="-30.3" font-family="Times,serif" font-size="14.00">5</text>
</g>
<!-- 00&#45;&gt;124 -->
<g id="edge25" class="edge">
<title>00&#45;&gt;124</title>
<path fill="none" stroke="black" d="M1002.75,-87.7C1016.58,-76.7 1034.38,-62.54 1048.05,-51.67"/>
<polygon fill="black" stroke="black" points="1050.3,-54.34 1055.95,-45.38 1045.95,-48.87 1050.3,-54.34"/>
</g>
<!-- 125 -->
<g id="node28" class="node">
<title>125</title>
<polygon fill="darkseagreen" stroke="black" points="1126,-52 1100,-52 1100,-16 1126,-16 1126,-52"/>
<text text-anchor="middle" x="1113" y="-30.3" font-family="Times,serif" font-size="14.00">6</text>
</g>
<!-- 00&#45;&gt;125 -->
<g id="edge26" class="edge">
<title>00&#45;&gt;125</title>
<path fill="none" stroke="black" d="M1021.26,-88.05C1042.56,-78.48 1068.82,-65.7 1091,-52 1091.18,-51.89 1091.37,-51.77 1091.56,-51.65"/>
<polygon fill="black" stroke="black" points="1093.62,-54.48 1099.82,-45.89 1089.62,-48.74 1093.62,-54.48"/>
</g>
<!-- 126 -->
<g id="node29" class="node">
<title>126</title>
<polygon fill="darkseagreen" stroke="black" points="1170,-52 1144,-52 1144,-16 1170,-16 1170,-52"/>
<text text-anchor="middle" x="1157" y="-30.3" font-family="Times,serif" font-size="14.00">6</text>
</g>
<!-- 00&#45;&gt;126 -->
<g id="edge27" class="edge">
<title>00&#45;&gt;126</title>
<path fill="none" stroke="black" d="M1044.4,-88.29C1072.99,-79.49 1106.63,-67.3 1135,-52 1135.19,-51.9 1135.38,-51.79 1135.57,-51.69"/>
<polygon fill="black" stroke="black" points="1137.54,-54.58 1143.98,-46.17 1133.7,-48.73 1137.54,-54.58"/>
</g>
<!-- 127 -->
<g id="node30" class="node">
<title>127</title>
<polygon fill="darkseagreen" stroke="black" points="1214,-52 1188,-52 1188,-16 1214,-16 1214,-52"/>
<text text-anchor="middle" x="1201" y="-30.3" font-family="Times,serif" font-size="14.00">7</text>
</g>
<!-- 00&#45;&gt;127 -->
<g id="edge28" class="edge">
<title>00&#45;&gt;127</title>
<path fill="none" stroke="black" d="M1071.94,-88.62C1106.56,-80.36 1145.67,-68.5 1179,-52 1179.09,-51.95 1179.18,-51.91 1179.28,-51.86"/>
<polygon fill="black" stroke="black" points="1180.95,-54.94 1187.59,-46.68 1177.25,-49 1180.95,-54.94"/>
</g>
<!-- 128 -->
<g id="node31" class="node">
<title>128</title>
<polygon fill="darkseagreen" stroke="black" points="1258,-52 1232,-52 1232,-16 1258,-16 1258,-52"/>
<text text-anchor="middle" x="1245" y="-30.3" font-family="Times,serif" font-size="14.00">7</text>
</g>
<!-- 00&#45;&gt;128 -->
<g id="edge29" class="edge">
<title>00&#45;&gt;128</title>
<path fill="none" stroke="black" d="M1102.28,-89.3C1141.98,-81.35 1185.49,-69.51 1223,-52 1223.09,-51.96 1223.19,-51.91 1223.28,-51.87"/>
<polygon fill="black" stroke="black" points="1224.91,-54.97 1231.64,-46.79 1221.28,-48.99 1224.91,-54.97"/>
</g>
<!-- 129 -->
<g id="node32" class="node">
<title>129</title>
<polygon fill="darkseagreen" stroke="black" points="1302,-52 1276,-52 1276,-16 1302,-16 1302,-52"/>
<text text-anchor="middle" x="1289" y="-30.3" font-family="Times,serif" font-size="14.00">7</text>
</g>
<!-- 00&#45;&gt;129 -->
<g id="edge30" class="edge">
<title>00&#45;&gt;129</title>
<path fill="none" stroke="black" d="M1135.33,-90.12C1179.17,-82.28 1226.09,-70.3 1267,-52 1267.09,-51.96 1267.19,-51.92 1267.28,-51.87"/>
<polygon fill="black" stroke="black" points="1268.88,-54.99 1275.68,-46.87 1265.3,-48.98 1268.88,-54.99"/>
</g>
<!-- 130 -->
<g id="node33" class="node">
<title>130</title>
<polygon fill="darkseagreen" stroke="black" points="1346,-52 1320,-52 1320,-16 1346,-16 1346,-52"/>
<text text-anchor="middle" x="1333" y="-30.3" font-family="Times,serif" font-size="14.00">8</text>
</g>
<!-- 00&#45;&gt;130 -->
<g id="edge31" class="edge">
<title>00&#45;&gt;130</title>
<path fill="none" stroke="black" d="M1168.87,-91.32C1216.58,-83.43 1266.8,-71.13 1311,-52 1311.09,-51.96 1311.19,-51.92 1311.28,-51.88"/>
<polygon fill="black" stroke="black" points="1312.86,-55.01 1319.71,-46.93 1309.31,-48.98 1312.86,-55.01"/>
</g>
<!-- 131 -->
<g id="node34" class="node">
<title>131</title>
<polygon fill="darkseagreen" stroke="black" points="1390,-52 1364,-52 1364,-16 1390,-16 1390,-52"/>
<text text-anchor="middle" x="1377" y="-30.3" font-family="Times,serif" font-size="14.00">9</text>
</g>
<!-- 00&#45;&gt;131 -->
<g id="edge32" class="edge">
<title>00&#45;&gt;131</title>
<path fill="none" stroke="black" d="M1202.17,-92.84C1253.72,-84.82 1307.42,-72.08 1355,-52 1355.09,-51.96 1355.19,-51.92 1355.28,-51.88"/>
<polygon fill="black" stroke="black" points="1356.84,-55.02 1363.72,-46.97 1353.32,-48.97 1356.84,-55.02"/>
</g>
<!-- 132 -->
<g id="node35" class="node">
<title>132</title>
<polygon fill="darkseagreen" stroke="black" points="1443.5,-52 1408.5,-52 1408.5,-16 1443.5,-16 1443.5,-52"/>
<text text-anchor="middle" x="1426" y="-30.3" font-family="Times,serif" font-size="14.00">10</text>
</g>
<!-- 00&#45;&gt;132 -->
<g id="edge33" class="edge">
<title>00&#45;&gt;132</title>
<path fill="none" stroke="black" d="M1214.64,-93.51C1275.88,-85.63 1340.98,-72.79 1399,-52 1399.1,-51.96 1399.2,-51.93 1399.29,-51.89"/>
<polygon fill="black" stroke="black" points="1400.71,-55.1 1408.26,-47.66 1397.72,-48.77 1400.71,-55.1"/>
</g>
<!-- 133 -->
<g id="node36" class="node">
<title>133</title>
<polygon fill="darkseagreen" stroke="black" points="1496.5,-52 1461.5,-52 1461.5,-16 1496.5,-16 1496.5,-52"/>
<text text-anchor="middle" x="1479" y="-30.3" font-family="Times,serif" font-size="14.00">11</text>
</g>
<!-- 00&#45;&gt;133 -->
<g id="edge34" class="edge">
<title>00&#45;&gt;133</title>
<path fill="none" stroke="black" d="M1177.68,-91.69C1283.4,-82.79 1402.06,-69.5 1452,-52 1452.1,-51.97 1452.2,-51.93 1452.29,-51.9"/>
<polygon fill="black" stroke="black" points="1453.69,-55.11 1461.27,-47.7 1450.73,-48.76 1453.69,-55.11"/>
</g>
<!-- 134 -->
<g id="node37" class="node">
<title>134</title>
<polygon fill="darkseagreen" stroke="black" points="1549.5,-52 1514.5,-52 1514.5,-16 1549.5,-16 1549.5,-52"/>
<text text-anchor="middle" x="1532" y="-30.3" font-family="Times,serif" font-size="14.00">12</text>
</g>
<!-- 00&#45;&gt;134 -->
<g id="edge35" class="edge">
<title>00&#45;&gt;134</title>
<path fill="none" stroke="black" d="M1201.5,-92.78C1318.66,-84.29 1449.66,-71.04 1505,-52 1505.1,-51.97 1505.2,-51.93 1505.29,-51.9"/>
<polygon fill="black" stroke="black" points="1506.68,-55.11 1514.28,-47.73 1503.74,-48.76 1506.68,-55.11"/>
</g>
<!-- 135 -->
<g id="node38" class="node">
<title>135</title>
<polygon fill="darkseagreen" stroke="black" points="1602.5,-52 1567.5,-52 1567.5,-16 1602.5,-16 1602.5,-52"/>
<text text-anchor="middle" x="1585" y="-30.3" font-family="Times,serif" font-size="14.00">19</text>
</g>
<!-- 00&#45;&gt;135 -->
<g id="edge36" class="edge">
<title>00&#45;&gt;135</title>
<path fill="none" stroke="black" d="M1223.39,-94.02C1352.49,-85.94 1496.97,-72.68 1558,-52 1558.1,-51.97 1558.2,-51.93 1558.3,-51.9"/>
<polygon fill="black" stroke="black" points="1559.67,-55.12 1567.29,-47.76 1556.74,-48.76 1559.67,-55.12"/>
</g>
<!-- 136 -->
<g id="node39" class="node">
<title>136</title>
<polygon fill="darkseagreen" stroke="black" points="1655.5,-52 1620.5,-52 1620.5,-16 1655.5,-16 1655.5,-52"/>
<text text-anchor="middle" x="1638" y="-30.3" font-family="Times,serif" font-size="14.00">20</text>
</g>
<!-- 00&#45;&gt;136 -->
<g id="edge37" class="edge">
<title>00&#45;&gt;136</title>
<path fill="none" stroke="black" d="M1243.15,-95.38C1384.73,-87.72 1543.93,-74.44 1611,-52 1611.1,-51.97 1611.2,-51.93 1611.3,-51.9"/>
<polygon fill="black" stroke="black" points="1612.66,-55.12 1620.3,-47.78 1609.75,-48.76 1612.66,-55.12"/>
</g>
<!-- 137 -->
<g id="node40" class="node">
<title>137</title>
<polygon fill="darkseagreen" stroke="black" points="1708.5,-52 1673.5,-52 1673.5,-16 1708.5,-16 1708.5,-52"/>
<text text-anchor="middle" x="1691" y="-30.3" font-family="Times,serif" font-size="14.00">51</text>
</g>
<!-- 00&#45;&gt;137 -->
<g id="edge38" class="edge">
<title>00&#45;&gt;137</title>
<path fill="none" stroke="black" d="M1260.27,-96.82C1414.96,-89.63 1590.47,-76.34 1664,-52 1664.1,-51.97 1664.2,-51.93 1664.3,-51.9"/>
<polygon fill="black" stroke="black" points="1665.65,-55.13 1673.3,-47.8 1662.75,-48.76 1665.65,-55.13"/>
</g>
<!-- 138 -->
<g id="node41" class="node">
<title>138</title>
<polygon fill="darkseagreen" stroke="black" points="1761.5,-52 1726.5,-52 1726.5,-16 1761.5,-16 1761.5,-52"/>
<text text-anchor="middle" x="1744" y="-30.3" font-family="Times,serif" font-size="14.00">62</text>
</g>
<!-- 00&#45;&gt;138 -->
<g id="edge39" class="edge">
<title>00&#45;&gt;138</title>
<path fill="none" stroke="black" d="M1274.25,-98.33C1442.76,-91.67 1636.51,-78.4 1717,-52 1717.1,-51.97 1717.2,-51.93 1717.3,-51.9"/>
<polygon fill="black" stroke="black" points="1718.65,-55.13 1726.31,-47.81 1715.75,-48.76 1718.65,-55.13"/>
</g>
<!-- 139 -->
<g id="node42" class="node">
<title>139</title>
<polygon fill="darkseagreen" stroke="black" points="1824,-52 1780,-52 1780,-16 1824,-16 1824,-52"/>
<text text-anchor="middle" x="1802" y="-30.3" font-family="Times,serif" font-size="14.00">162</text>
</g>
<!-- 00&#45;&gt;139 -->
<g id="edge40" class="edge">
<title>00&#45;&gt;139</title>
<path fill="none" stroke="black" d="M1272.31,-98.11C1457.55,-91.29 1679.07,-77.92 1770,-52 1770.1,-51.97 1770.2,-51.94 1770.31,-51.91"/>
<polygon fill="black" stroke="black" points="1771.67,-55.14 1779.77,-48.31 1769.18,-48.59 1771.67,-55.14"/>
</g>
<!-- 140 -->
<g id="node43" class="node">
<title>140</title>
<polygon fill="darkseagreen" stroke="black" points="1886,-52 1842,-52 1842,-16 1886,-16 1886,-52"/>
<text text-anchor="middle" x="1864" y="-30.3" font-family="Times,serif" font-size="14.00">181</text>
</g>
<!-- 00&#45;&gt;140 -->
<g id="edge41" class="edge">
<title>00&#45;&gt;140</title>
<path fill="none" stroke="black" d="M1286.43,-99.97C1482.41,-94.15 1719.12,-81.59 1831.94,-51.43"/>
<polygon fill="black" stroke="black" points="1833.14,-54.73 1841.81,-48.65 1831.24,-47.99 1833.14,-54.73"/>
</g>
<!-- 141 -->
<g id="node44" class="node">
<title>141</title>
<polygon fill="darkseagreen" stroke="black" points="1976,-52 1904,-52 1904,-16 1976,-16 1976,-52"/>
<text text-anchor="middle" x="1940" y="-30.3" font-family="Times,serif" font-size="14.00">296</text>
</g>
<!-- 00&#45;&gt;141 -->
<g id="edge42" class="edge">
<title>00&#45;&gt;141</title>
<path fill="none" stroke="black" d="M1269.21,-97.76C1485.61,-90.6 1764.6,-77.24 1893.77,-51.79"/>
<polygon fill="black" stroke="black" points="1894.85,-55.15 1903.93,-49.7 1893.43,-48.29 1894.85,-55.15"/>
</g>
<!-- 142 -->
<g id="node45" class="node">
<title>142</title>
<polygon fill="darkseagreen" stroke="black" points="2066,-52 1994,-52 1994,-16 2066,-16 2066,-52"/>
<text text-anchor="middle" x="2030" y="-30.3" font-family="Times,serif" font-size="14.00">332</text>
</g>
<!-- 00&#45;&gt;142 -->
<g id="edge43" class="edge">
<title>00&#45;&gt;142</title>
<path fill="none" stroke="black" d="M1281.93,-99.29C1522.24,-92.89 1840.34,-79.79 1983.91,-51.76"/>
<polygon fill="black" stroke="black" points="1984.84,-55.14 1993.94,-49.72 1983.44,-48.28 1984.84,-55.14"/>
</g>
<!-- 143 -->
<g id="node46" class="node">
<title>143</title>
<polygon fill="darkseagreen" stroke="black" points="2156,-52 2084,-52 2084,-16 2156,-16 2156,-52"/>
<text text-anchor="middle" x="2120" y="-30.3" font-family="Times,serif" font-size="14.00">374</text>
</g>
<!-- 00&#45;&gt;143 -->
<g id="edge44" class="edge">
<title>00&#45;&gt;143</title>
<path fill="none" stroke="black" d="M1291.1,-100.74C1555.19,-95.17 1915.04,-82.5 2073.78,-51.78"/>
<polygon fill="black" stroke="black" points="2074.83,-55.14 2083.94,-49.73 2073.45,-48.28 2074.83,-55.14"/>
</g>
<!-- 144 -->
<g id="node47" class="node">
<title>144</title>
<polygon fill="darkseagreen" stroke="black" points="2246,-52 2174,-52 2174,-16 2246,-16 2246,-52"/>
<text text-anchor="middle" x="2210" y="-30.3" font-family="Times,serif" font-size="14.00">374</text>
</g>
<!-- 00&#45;&gt;144 -->
<g id="edge45" class="edge">
<title>00&#45;&gt;144</title>
<path fill="none" stroke="black" d="M1297.3,-102.07C1585.19,-97.41 1989.78,-85.29 2164.06,-51.72"/>
<polygon fill="black" stroke="black" points="2164.83,-55.14 2173.94,-49.74 2163.45,-48.27 2164.83,-55.14"/>
</g>
<!-- legend_0 -->
<g id="node2" class="node">
<title>legend_0</title>
<polygon fill="#b9d3ee" stroke="black" points="2485.5,-124 2264.5,-124 2264.5,-88 2485.5,-88 2485.5,-124"/>
<text text-anchor="middle" x="2375" y="-102.3" font-family="Times,serif" font-size="14.00">DT=5 ST=5 Similarity=0.28</text>
</g>
<!-- legend_1 -->
<g id="node48" class="node">
<title>legend_1</title>
<polygon fill="darkseagreen" stroke="black" points="2485.5,-52 2264.5,-52 2264.5,-16 2485.5,-16 2485.5,-52"/>
<text text-anchor="middle" x="2375" y="-30.3" font-family="Times,serif" font-size="14.00">DT=6 ST=1 Similarity=0.56</text>
</g>
<!-- legend_0&#45;&gt;legend_1 -->
<g id="edge46" class="edge">
<title>legend_0&#45;&gt;legend_1</title>
<path fill="none" stroke="black" d="M2375,-87.7C2375,-79.98 2375,-70.71 2375,-62.11"/>
<polygon fill="black" stroke="black" points="2378.5,-62.1 2375,-52.1 2371.5,-62.1 2378.5,-62.1"/>
</g>
</g>
</svg>
