<?xml version="1.0" encoding="UTF-8" standalone="no"?>
<!DOCTYPE svg PUBLIC "-//W3C//DTD SVG 1.1//EN"
 "http://www.w3.org/Graphics/SVG/1.1/DTD/svg11.dtd">
<!-- Generated by graphviz version 2.43.0 (0)
 -->
<!-- Title: %3 Pages: 1 -->
<svg width="2863pt" height="497pt"
 viewBox="0.00 0.00 2862.90 497.00" xmlns="http://www.w3.org/2000/svg" xmlns:xlink="http://www.w3.org/1999/xlink">
<g id="graph0" class="graph" transform="scale(1 1) rotate(0) translate(4 493)">
<title>%3</title>
<polygon fill="white" stroke="transparent" points="-4,4 -4,-493 2858.9,-493 2858.9,4 -4,4"/>
<text text-anchor="middle" x="1427.45" y="-473.8" font-family="Times,serif" font-size="14.00">ConsTree</text>
<text text-anchor="middle" x="1427.45" y="-458.8" font-family="Times,serif" font-size="14.00">Tree Quality = 1</text>
<g id="clust1" class="cluster">
<title>cluster</title>
<polygon fill="none" stroke="black" points="2610.9,-8 2610.9,-443 2846.9,-443 2846.9,-8 2610.9,-8"/>
<text text-anchor="middle" x="2728.9" y="-427.8" font-family="Times,serif" font-size="14.00">Legend</text>
</g>
<!-- 00 -->
<g id="node1" class="node">
<title>00</title>
<ellipse fill="#b9d3ee" stroke="black" cx="1721.9" cy="-394" rx="180" ry="18"/>
<text text-anchor="middle" x="1721.9" y="-390.3" font-family="Times,serif" font-size="14.00">1200</text>
</g>
<!-- 10 -->
<g id="node4" class="node">
<title>10</title>
<ellipse fill="#b9d3ee" stroke="black" cx="1555.9" cy="-322" rx="108" ry="18"/>
<text text-anchor="middle" x="1555.9" y="-318.3" font-family="Times,serif" font-size="14.00">765</text>
</g>
<!-- 00&#45;&gt;10 -->
<g id="edge1" class="edge">
<title>00&#45;&gt;10</title>
<path fill="none" stroke="black" d="M1682.56,-376.41C1658.75,-366.37 1628.25,-353.51 1603.15,-342.92"/>
<polygon fill="black" stroke="black" points="1604.39,-339.65 1593.81,-338.99 1601.67,-346.1 1604.39,-339.65"/>
</g>
<!-- 11 -->
<g id="node5" class="node">
<title>11</title>
<ellipse fill="#b9d3ee" stroke="black" cx="1753.9" cy="-322" rx="72" ry="18"/>
<text text-anchor="middle" x="1753.9" y="-318.3" font-family="Times,serif" font-size="14.00">457</text>
</g>
<!-- 00&#45;&gt;11 -->
<g id="edge3" class="edge">
<title>00&#45;&gt;11</title>
<path fill="none" stroke="black" d="M1729.81,-375.7C1733.45,-367.73 1737.85,-358.1 1741.89,-349.26"/>
<polygon fill="black" stroke="black" points="1745.1,-350.65 1746.08,-340.1 1738.74,-347.74 1745.1,-350.65"/>
</g>
<!-- 01 -->
<g id="node2" class="node">
<title>01</title>
<ellipse fill="#b9d3ee" stroke="black" cx="1384.9" cy="-394" rx="108" ry="18"/>
<text text-anchor="middle" x="1384.9" y="-390.3" font-family="Times,serif" font-size="14.00">800</text>
</g>
<!-- 01&#45;&gt;10 -->
<g id="edge2" class="edge">
<title>01&#45;&gt;10</title>
<path fill="none" stroke="black" d="M1423.7,-377.12C1448.63,-366.91 1481.19,-353.58 1507.76,-342.71"/>
<polygon fill="black" stroke="black" points="1509.32,-345.85 1517.25,-338.82 1506.67,-339.37 1509.32,-345.85"/>
</g>
<!-- 12 -->
<g id="node6" class="node">
<title>12</title>
<ellipse fill="#b9d3ee" stroke="black" cx="1321.9" cy="-322" rx="108" ry="18"/>
<text text-anchor="middle" x="1321.9" y="-318.3" font-family="Times,serif" font-size="14.00">778</text>
</g>
<!-- 01&#45;&gt;12 -->
<g id="edge4" class="edge">
<title>01&#45;&gt;12</title>
<path fill="none" stroke="black" d="M1369.65,-376.05C1362.02,-367.58 1352.65,-357.17 1344.23,-347.82"/>
<polygon fill="black" stroke="black" points="1346.74,-345.37 1337.45,-340.28 1341.53,-350.05 1346.74,-345.37"/>
</g>
<!-- legend_0 -->
<g id="node3" class="node">
<title>legend_0</title>
<polygon fill="#b9d3ee" stroke="black" points="2839.4,-412 2618.4,-412 2618.4,-376 2839.4,-376 2839.4,-412"/>
<text text-anchor="middle" x="2728.9" y="-390.3" font-family="Times,serif" font-size="14.00">DT=1 ST=1 Similarity=0.49</text>
</g>
<!-- legend_1 -->
<g id="node7" class="node">
<title>legend_1</title>
<polygon fill="#b9d3ee" stroke="black" points="2839.4,-340 2618.4,-340 2618.4,-304 2839.4,-304 2839.4,-340"/>
<text text-anchor="middle" x="2728.9" y="-318.3" font-family="Times,serif" font-size="14.00">DT=2 ST=1 Similarity=0.63</text>
</g>
<!-- legend_0&#45;&gt;legend_1 -->
<g id="edge5" class="edge">
<title>legend_0&#45;&gt;legend_1</title>
<path fill="none" stroke="black" d="M2728.9,-375.7C2728.9,-367.98 2728.9,-358.71 2728.9,-350.11"/>
<polygon fill="black" stroke="black" points="2732.4,-350.1 2728.9,-340.1 2725.4,-350.1 2732.4,-350.1"/>
</g>
<!-- 22 -->
<g id="node10" class="node">
<title>22</title>
<ellipse fill="#b9d3ee" stroke="black" cx="1321.9" cy="-250" rx="36" ry="18"/>
<text text-anchor="middle" x="1321.9" y="-246.3" font-family="Times,serif" font-size="14.00">415</text>
</g>
<!-- 10&#45;&gt;22 -->
<g id="edge8" class="edge">
<title>10&#45;&gt;22</title>
<path fill="none" stroke="black" d="M1499.69,-306.62C1461.89,-296.62 1411.09,-282.51 1366.9,-268 1364.31,-267.15 1361.65,-266.24 1358.98,-265.3"/>
<polygon fill="black" stroke="black" points="1359.96,-261.93 1349.37,-261.81 1357.58,-268.51 1359.96,-261.93"/>
</g>
<!-- 23 -->
<g id="node11" class="node">
<title>23</title>
<ellipse fill="#b9d3ee" stroke="black" cx="1645.9" cy="-250" rx="36" ry="18"/>
<text text-anchor="middle" x="1645.9" y="-246.3" font-family="Times,serif" font-size="14.00">384</text>
</g>
<!-- 10&#45;&gt;23 -->
<g id="edge10" class="edge">
<title>10&#45;&gt;23</title>
<path fill="none" stroke="black" d="M1577.68,-304.05C1590.06,-294.43 1605.66,-282.29 1618.82,-272.06"/>
<polygon fill="black" stroke="black" points="1621.31,-274.56 1627.06,-265.66 1617.01,-269.03 1621.31,-274.56"/>
</g>
<!-- 21 -->
<g id="node9" class="node">
<title>21</title>
<ellipse fill="#b9d3ee" stroke="black" cx="1753.9" cy="-250" rx="36" ry="18"/>
<text text-anchor="middle" x="1753.9" y="-246.3" font-family="Times,serif" font-size="14.00">431</text>
</g>
<!-- 11&#45;&gt;21 -->
<g id="edge7" class="edge">
<title>11&#45;&gt;21</title>
<path fill="none" stroke="black" d="M1753.9,-303.7C1753.9,-295.98 1753.9,-286.71 1753.9,-278.11"/>
<polygon fill="black" stroke="black" points="1757.4,-278.1 1753.9,-268.1 1750.4,-278.1 1757.4,-278.1"/>
</g>
<!-- 11&#45;&gt;23 -->
<g id="edge11" class="edge">
<title>11&#45;&gt;23</title>
<path fill="none" stroke="black" d="M1729.12,-304.94C1713.11,-294.56 1692.18,-281 1675.32,-270.07"/>
<polygon fill="black" stroke="black" points="1677.22,-267.13 1666.92,-264.63 1673.41,-273 1677.22,-267.13"/>
</g>
<!-- 20 -->
<g id="node8" class="node">
<title>20</title>
<ellipse fill="#b9d3ee" stroke="black" cx="1483.9" cy="-250" rx="108" ry="18"/>
<text text-anchor="middle" x="1483.9" y="-246.3" font-family="Times,serif" font-size="14.00">770</text>
</g>
<!-- 12&#45;&gt;20 -->
<g id="edge6" class="edge">
<title>12&#45;&gt;20</title>
<path fill="none" stroke="black" d="M1359.06,-304.94C1382.42,-294.85 1412.74,-281.75 1437.65,-270.98"/>
<polygon fill="black" stroke="black" points="1439.11,-274.16 1446.91,-266.98 1436.34,-267.74 1439.11,-274.16"/>
</g>
<!-- 12&#45;&gt;22 -->
<g id="edge9" class="edge">
<title>12&#45;&gt;22</title>
<path fill="none" stroke="black" d="M1321.9,-303.7C1321.9,-295.98 1321.9,-286.71 1321.9,-278.11"/>
<polygon fill="black" stroke="black" points="1325.4,-278.1 1321.9,-268.1 1318.4,-278.1 1325.4,-278.1"/>
</g>
<!-- legend_2 -->
<g id="node12" class="node">
<title>legend_2</title>
<polygon fill="#b9d3ee" stroke="black" points="2839.4,-268 2618.4,-268 2618.4,-232 2839.4,-232 2839.4,-268"/>
<text text-anchor="middle" x="2728.9" y="-246.3" font-family="Times,serif" font-size="14.00">DT=3 ST=1 Similarity=0.66</text>
</g>
<!-- legend_1&#45;&gt;legend_2 -->
<g id="edge12" class="edge">
<title>legend_1&#45;&gt;legend_2</title>
<path fill="none" stroke="black" d="M2728.9,-303.7C2728.9,-295.98 2728.9,-286.71 2728.9,-278.11"/>
<polygon fill="black" stroke="black" points="2732.4,-278.1 2728.9,-268.1 2725.4,-278.1 2732.4,-278.1"/>
</g>
<!-- 31 -->
<g id="node14" class="node">
<title>31</title>
<polygon fill="darkseagreen" stroke="black" points="1409.9,-196 1337.9,-196 1337.9,-160 1409.9,-160 1409.9,-196"/>
<text text-anchor="middle" x="1373.9" y="-174.3" font-family="Times,serif" font-size="14.00">393</text>
</g>
<!-- 20&#45;&gt;31 -->
<g id="edge14" class="edge">
<title>20&#45;&gt;31</title>
<path fill="none" stroke="black" d="M1457.83,-232.41C1443.36,-223.2 1425.15,-211.61 1409.39,-201.59"/>
<polygon fill="black" stroke="black" points="1411.24,-198.62 1400.93,-196.2 1407.49,-204.52 1411.24,-198.62"/>
</g>
<!-- 34 -->
<g id="node17" class="node">
<title>34</title>
<polygon fill="darkseagreen" stroke="black" points="1736.9,-196 1664.9,-196 1664.9,-160 1736.9,-160 1736.9,-196"/>
<text text-anchor="middle" x="1700.9" y="-174.3" font-family="Times,serif" font-size="14.00">385</text>
</g>
<!-- 20&#45;&gt;34 -->
<g id="edge19" class="edge">
<title>20&#45;&gt;34</title>
<path fill="none" stroke="black" d="M1531.25,-233.72C1567.96,-221.88 1618.52,-205.57 1654.88,-193.84"/>
<polygon fill="black" stroke="black" points="1656.3,-197.06 1664.74,-190.66 1654.15,-190.4 1656.3,-197.06"/>
</g>
<!-- 33 -->
<g id="node16" class="node">
<title>33</title>
<polygon fill="darkseagreen" stroke="black" points="2201.9,-196 2129.9,-196 2129.9,-160 2201.9,-160 2201.9,-196"/>
<text text-anchor="middle" x="2165.9" y="-174.3" font-family="Times,serif" font-size="14.00">426</text>
</g>
<!-- 21&#45;&gt;33 -->
<g id="edge18" class="edge">
<title>21&#45;&gt;33</title>
<path fill="none" stroke="black" d="M1787.61,-243.27C1861.13,-230.78 2035.97,-201.08 2119.68,-186.85"/>
<polygon fill="black" stroke="black" points="2120.39,-190.28 2129.66,-185.16 2119.22,-183.38 2120.39,-190.28"/>
</g>
<!-- 21&#45;&gt;34 -->
<g id="edge20" class="edge">
<title>21&#45;&gt;34</title>
<path fill="none" stroke="black" d="M1741.61,-232.76C1735.17,-224.27 1727.15,-213.68 1719.94,-204.15"/>
<polygon fill="black" stroke="black" points="1722.69,-201.98 1713.86,-196.12 1717.11,-206.21 1722.69,-201.98"/>
</g>
<!-- 30 -->
<g id="node13" class="node">
<title>30</title>
<polygon fill="darkseagreen" stroke="black" points="814.9,-196 742.9,-196 742.9,-160 814.9,-160 814.9,-196"/>
<text text-anchor="middle" x="778.9" y="-174.3" font-family="Times,serif" font-size="14.00">393</text>
</g>
<!-- 22&#45;&gt;30 -->
<g id="edge13" class="edge">
<title>22&#45;&gt;30</title>
<path fill="none" stroke="black" d="M1287.52,-244.57C1193.55,-232.45 932.3,-198.78 825.4,-185"/>
<polygon fill="black" stroke="black" points="825.61,-181.49 815.25,-183.69 824.72,-188.44 825.61,-181.49"/>
</g>
<!-- 22&#45;&gt;31 -->
<g id="edge15" class="edge">
<title>22&#45;&gt;31</title>
<path fill="none" stroke="black" d="M1333.96,-232.76C1340.21,-224.35 1347.98,-213.89 1355,-204.44"/>
<polygon fill="black" stroke="black" points="1358.02,-206.24 1361.18,-196.12 1352.4,-202.06 1358.02,-206.24"/>
</g>
<!-- 32 -->
<g id="node15" class="node">
<title>32</title>
<polygon fill="darkseagreen" stroke="black" points="1558.9,-196 1486.9,-196 1486.9,-160 1558.9,-160 1558.9,-196"/>
<text text-anchor="middle" x="1522.9" y="-174.3" font-family="Times,serif" font-size="14.00">403</text>
</g>
<!-- 22&#45;&gt;32 -->
<g id="edge16" class="edge">
<title>22&#45;&gt;32</title>
<path fill="none" stroke="black" d="M1349.93,-238.24C1355.54,-236.14 1361.4,-233.97 1366.9,-232 1403.83,-218.76 1445.96,-204.49 1477.13,-194.1"/>
<polygon fill="black" stroke="black" points="1478.46,-197.35 1486.84,-190.87 1476.25,-190.7 1478.46,-197.35"/>
</g>
<!-- 23&#45;&gt;32 -->
<g id="edge17" class="edge">
<title>23&#45;&gt;32</title>
<path fill="none" stroke="black" d="M1623.05,-236C1605.94,-226.26 1582.12,-212.7 1562,-201.25"/>
<polygon fill="black" stroke="black" points="1563.48,-198.07 1553.05,-196.16 1560.01,-204.15 1563.48,-198.07"/>
</g>
<!-- legend_3 -->
<g id="node18" class="node">
<title>legend_3</title>
<polygon fill="darkseagreen" stroke="black" points="2839.4,-196 2618.4,-196 2618.4,-160 2839.4,-160 2839.4,-196"/>
<text text-anchor="middle" x="2728.9" y="-174.3" font-family="Times,serif" font-size="14.00">DT=4 ST=1 Similarity=0.68</text>
</g>
<!-- legend_2&#45;&gt;legend_3 -->
<g id="edge21" class="edge">
<title>legend_2&#45;&gt;legend_3</title>
<path fill="none" stroke="black" d="M2728.9,-231.7C2728.9,-223.98 2728.9,-214.71 2728.9,-206.11"/>
<polygon fill="black" stroke="black" points="2732.4,-206.1 2728.9,-196.1 2725.4,-206.1 2732.4,-206.1"/>
</g>
<!-- 41 -->
<g id="node20" class="node">
<title>41</title>
<ellipse fill="#b9d3ee" stroke="black" cx="198.9" cy="-106" rx="16.8" ry="18"/>
<text text-anchor="middle" x="198.9" y="-102.3" font-family="Times,serif" font-size="14.00">7</text>
</g>
<!-- 30&#45;&gt;41 -->
<g id="edge24" class="edge">
<title>30&#45;&gt;41</title>
<path fill="none" stroke="black" d="M742.62,-172.62C635.15,-159.65 320.11,-121.63 225.84,-110.25"/>
<polygon fill="black" stroke="black" points="226.06,-106.75 215.71,-109.03 225.22,-113.7 226.06,-106.75"/>
</g>
<!-- 42 -->
<g id="node21" class="node">
<title>42</title>
<ellipse fill="#b9d3ee" stroke="black" cx="542.9" cy="-106" rx="36" ry="18"/>
<text text-anchor="middle" x="542.9" y="-102.3" font-family="Times,serif" font-size="14.00">380</text>
</g>
<!-- 30&#45;&gt;42 -->
<g id="edge26" class="edge">
<title>30&#45;&gt;42</title>
<path fill="none" stroke="black" d="M742.8,-166.29C699.58,-153.47 627.45,-132.08 582.67,-118.8"/>
<polygon fill="black" stroke="black" points="583.58,-115.42 573,-115.93 581.59,-122.13 583.58,-115.42"/>
</g>
<!-- 43 -->
<g id="node22" class="node">
<title>43</title>
<ellipse fill="#b9d3ee" stroke="black" cx="1015.9" cy="-106" rx="36" ry="18"/>
<text text-anchor="middle" x="1015.9" y="-102.3" font-family="Times,serif" font-size="14.00">403</text>
</g>
<!-- 30&#45;&gt;43 -->
<g id="edge27" class="edge">
<title>30&#45;&gt;43</title>
<path fill="none" stroke="black" d="M815.15,-166.29C858.55,-153.47 930.99,-132.08 975.96,-118.8"/>
<polygon fill="black" stroke="black" points="977.07,-122.12 985.67,-115.93 975.09,-115.4 977.07,-122.12"/>
</g>
<!-- 40 -->
<g id="node19" class="node">
<title>40</title>
<ellipse fill="#b9d3ee" stroke="black" cx="1536.9" cy="-106" rx="36" ry="18"/>
<text text-anchor="middle" x="1536.9" y="-102.3" font-family="Times,serif" font-size="14.00">396</text>
</g>
<!-- 31&#45;&gt;40 -->
<g id="edge22" class="edge">
<title>31&#45;&gt;40</title>
<path fill="none" stroke="black" d="M1410.07,-161.46C1437.14,-149.84 1473.98,-134.02 1500.98,-122.42"/>
<polygon fill="black" stroke="black" points="1502.64,-125.52 1510.45,-118.36 1499.88,-119.09 1502.64,-125.52"/>
</g>
<!-- 31&#45;&gt;41 -->
<g id="edge25" class="edge">
<title>31&#45;&gt;41</title>
<path fill="none" stroke="black" d="M1337.77,-174.85C1160.04,-164.26 380.9,-117.84 225.8,-108.6"/>
<polygon fill="black" stroke="black" points="225.92,-105.1 215.73,-108 225.51,-112.09 225.92,-105.1"/>
</g>
<!-- 32&#45;&gt;43 -->
<g id="edge28" class="edge">
<title>32&#45;&gt;43</title>
<path fill="none" stroke="black" d="M1486.84,-170.82C1466.85,-167.47 1441.52,-163.34 1418.9,-160 1288.88,-140.83 1134.75,-121.5 1060.4,-112.39"/>
<polygon fill="black" stroke="black" points="1060.8,-108.91 1050.45,-111.17 1059.95,-115.86 1060.8,-108.91"/>
</g>
<!-- 44 -->
<g id="node23" class="node">
<title>44</title>
<ellipse fill="#b9d3ee" stroke="black" cx="1744.9" cy="-106" rx="16.8" ry="18"/>
<text text-anchor="middle" x="1744.9" y="-102.3" font-family="Times,serif" font-size="14.00">7</text>
</g>
<!-- 32&#45;&gt;44 -->
<g id="edge29" class="edge">
<title>32&#45;&gt;44</title>
<path fill="none" stroke="black" d="M1559.06,-165.6C1604.06,-151.41 1679.78,-127.53 1719.24,-115.09"/>
<polygon fill="black" stroke="black" points="1720.42,-118.39 1728.9,-112.04 1718.31,-111.71 1720.42,-118.39"/>
</g>
<!-- 45 -->
<g id="node24" class="node">
<title>45</title>
<ellipse fill="#b9d3ee" stroke="black" cx="1952.9" cy="-106" rx="36" ry="18"/>
<text text-anchor="middle" x="1952.9" y="-102.3" font-family="Times,serif" font-size="14.00">388</text>
</g>
<!-- 33&#45;&gt;45 -->
<g id="edge30" class="edge">
<title>33&#45;&gt;45</title>
<path fill="none" stroke="black" d="M2129.77,-165.13C2091.47,-152.54 2031.2,-132.73 1991.86,-119.8"/>
<polygon fill="black" stroke="black" points="1992.93,-116.47 1982.34,-116.67 1990.74,-123.12 1992.93,-116.47"/>
</g>
<!-- 46 -->
<g id="node25" class="node">
<title>46</title>
<ellipse fill="#b9d3ee" stroke="black" cx="2294.9" cy="-106" rx="23" ry="18"/>
<text text-anchor="middle" x="2294.9" y="-102.3" font-family="Times,serif" font-size="14.00">25</text>
</g>
<!-- 33&#45;&gt;46 -->
<g id="edge32" class="edge">
<title>33&#45;&gt;46</title>
<path fill="none" stroke="black" d="M2197.46,-159.88C2218.93,-148.22 2247.07,-132.96 2267.58,-121.82"/>
<polygon fill="black" stroke="black" points="2269.3,-124.87 2276.42,-117.03 2265.96,-118.72 2269.3,-124.87"/>
</g>
<!-- 47 -->
<g id="node26" class="node">
<title>47</title>
<ellipse fill="#b9d3ee" stroke="black" cx="2496.9" cy="-106" rx="23" ry="18"/>
<text text-anchor="middle" x="2496.9" y="-102.3" font-family="Times,serif" font-size="14.00">62</text>
</g>
<!-- 33&#45;&gt;47 -->
<g id="edge33" class="edge">
<title>33&#45;&gt;47</title>
<path fill="none" stroke="black" d="M2201.95,-169.38C2267.05,-155.61 2403.19,-126.82 2465.07,-113.73"/>
<polygon fill="black" stroke="black" points="2465.97,-117.12 2475.03,-111.62 2464.53,-110.27 2465.97,-117.12"/>
</g>
<!-- 48 -->
<g id="node27" class="node">
<title>48</title>
<ellipse fill="#b9d3ee" stroke="black" cx="2165.9" cy="-106" rx="36" ry="18"/>
<text text-anchor="middle" x="2165.9" y="-102.3" font-family="Times,serif" font-size="14.00">332</text>
</g>
<!-- 33&#45;&gt;48 -->
<g id="edge34" class="edge">
<title>33&#45;&gt;48</title>
<path fill="none" stroke="black" d="M2165.9,-159.7C2165.9,-151.98 2165.9,-142.71 2165.9,-134.11"/>
<polygon fill="black" stroke="black" points="2169.4,-134.1 2165.9,-124.1 2162.4,-134.1 2169.4,-134.1"/>
</g>
<!-- 34&#45;&gt;40 -->
<g id="edge23" class="edge">
<title>34&#45;&gt;40</title>
<path fill="none" stroke="black" d="M1664.5,-161.46C1637.27,-149.84 1600.2,-134.02 1573.03,-122.42"/>
<polygon fill="black" stroke="black" points="1574.08,-119.07 1563.51,-118.36 1571.33,-125.5 1574.08,-119.07"/>
</g>
<!-- 34&#45;&gt;45 -->
<g id="edge31" class="edge">
<title>34&#45;&gt;45</title>
<path fill="none" stroke="black" d="M1737,-166.97C1783.38,-154.09 1863.66,-131.79 1912.17,-118.31"/>
<polygon fill="black" stroke="black" points="1913.31,-121.63 1922.01,-115.58 1911.44,-114.88 1913.31,-121.63"/>
</g>
<!-- legend_4 -->
<g id="node28" class="node">
<title>legend_4</title>
<polygon fill="#b9d3ee" stroke="black" points="2839.4,-124 2618.4,-124 2618.4,-88 2839.4,-88 2839.4,-124"/>
<text text-anchor="middle" x="2728.9" y="-102.3" font-family="Times,serif" font-size="14.00">DT=5 ST=1 Similarity=0.67</text>
</g>
<!-- legend_3&#45;&gt;legend_4 -->
<g id="edge35" class="edge">
<title>legend_3&#45;&gt;legend_4</title>
<path fill="none" stroke="black" d="M2728.9,-159.7C2728.9,-151.98 2728.9,-142.71 2728.9,-134.11"/>
<polygon fill="black" stroke="black" points="2732.4,-134.1 2728.9,-124.1 2725.4,-134.1 2732.4,-134.1"/>
</g>
<!-- 51 -->
<g id="node30" class="node">
<title>51</title>
<ellipse fill="#b9d3ee" stroke="black" cx="1536.9" cy="-34" rx="16.8" ry="18"/>
<text text-anchor="middle" x="1536.9" y="-30.3" font-family="Times,serif" font-size="14.00">1</text>
</g>
<!-- 40&#45;&gt;51 -->
<g id="edge37" class="edge">
<title>40&#45;&gt;51</title>
<path fill="none" stroke="black" d="M1536.9,-87.7C1536.9,-79.98 1536.9,-70.71 1536.9,-62.11"/>
<polygon fill="black" stroke="black" points="1540.4,-62.1 1536.9,-52.1 1533.4,-62.1 1540.4,-62.1"/>
</g>
<!-- 513 -->
<g id="node42" class="node">
<title>513</title>
<ellipse fill="#b9d3ee" stroke="black" cx="1588.9" cy="-34" rx="16.8" ry="18"/>
<text text-anchor="middle" x="1588.9" y="-30.3" font-family="Times,serif" font-size="14.00">2</text>
</g>
<!-- 40&#45;&gt;513 -->
<g id="edge49" class="edge">
<title>40&#45;&gt;513</title>
<path fill="none" stroke="black" d="M1548.96,-88.76C1555.99,-79.3 1564.95,-67.23 1572.61,-56.93"/>
<polygon fill="black" stroke="black" points="1575.5,-58.9 1578.66,-48.79 1569.88,-54.73 1575.5,-58.9"/>
</g>
<!-- 516 -->
<g id="node45" class="node">
<title>516</title>
<ellipse fill="#b9d3ee" stroke="black" cx="1640.9" cy="-34" rx="16.8" ry="18"/>
<text text-anchor="middle" x="1640.9" y="-30.3" font-family="Times,serif" font-size="14.00">2</text>
</g>
<!-- 40&#45;&gt;516 -->
<g id="edge52" class="edge">
<title>40&#45;&gt;516</title>
<path fill="none" stroke="black" d="M1557.45,-91.17C1574.99,-79.36 1600.18,-62.41 1618.29,-50.22"/>
<polygon fill="black" stroke="black" points="1620.7,-52.82 1627.04,-44.33 1616.79,-47.01 1620.7,-52.82"/>
</g>
<!-- 519 -->
<g id="node48" class="node">
<title>519</title>
<ellipse fill="#b9d3ee" stroke="black" cx="1692.9" cy="-34" rx="16.8" ry="18"/>
<text text-anchor="middle" x="1692.9" y="-30.3" font-family="Times,serif" font-size="14.00">2</text>
</g>
<!-- 40&#45;&gt;519 -->
<g id="edge55" class="edge">
<title>40&#45;&gt;519</title>
<path fill="none" stroke="black" d="M1565.76,-95.05C1592.58,-85.38 1633.34,-69.61 1666.9,-52 1668.05,-51.39 1669.22,-50.75 1670.39,-50.08"/>
<polygon fill="black" stroke="black" points="1672.48,-52.91 1679.16,-44.68 1668.81,-46.95 1672.48,-52.91"/>
</g>
<!-- 520 -->
<g id="node49" class="node">
<title>520</title>
<ellipse fill="#b9d3ee" stroke="black" cx="1330.9" cy="-34" rx="16.8" ry="18"/>
<text text-anchor="middle" x="1330.9" y="-30.3" font-family="Times,serif" font-size="14.00">3</text>
</g>
<!-- 40&#45;&gt;520 -->
<g id="edge56" class="edge">
<title>40&#45;&gt;520</title>
<path fill="none" stroke="black" d="M1504,-98.36C1467.1,-90.23 1405.99,-74.68 1356.9,-52 1355.71,-51.45 1354.52,-50.86 1353.33,-50.23"/>
<polygon fill="black" stroke="black" points="1354.88,-47.07 1344.5,-44.96 1351.29,-53.09 1354.88,-47.07"/>
</g>
<!-- 534 -->
<g id="node63" class="node">
<title>534</title>
<ellipse fill="#b9d3ee" stroke="black" cx="1388.9" cy="-34" rx="23" ry="18"/>
<text text-anchor="middle" x="1388.9" y="-30.3" font-family="Times,serif" font-size="14.00">12</text>
</g>
<!-- 40&#45;&gt;534 -->
<g id="edge70" class="edge">
<title>40&#45;&gt;534</title>
<path fill="none" stroke="black" d="M1510.43,-93.45C1486.78,-83 1451.28,-66.99 1420.9,-52 1419.35,-51.23 1417.76,-50.44 1416.16,-49.62"/>
<polygon fill="black" stroke="black" points="1417.56,-46.41 1407.08,-44.9 1414.33,-52.62 1417.56,-46.41"/>
</g>
<!-- 543 -->
<g id="node72" class="node">
<title>543</title>
<ellipse fill="#b9d3ee" stroke="black" cx="1465.9" cy="-34" rx="36" ry="18"/>
<text text-anchor="middle" x="1465.9" y="-30.3" font-family="Times,serif" font-size="14.00">374</text>
</g>
<!-- 40&#45;&gt;543 -->
<g id="edge79" class="edge">
<title>40&#45;&gt;543</title>
<path fill="none" stroke="black" d="M1521.14,-89.46C1511.67,-80.13 1499.46,-68.09 1488.92,-57.7"/>
<polygon fill="black" stroke="black" points="1491.19,-55.02 1481.61,-50.49 1486.28,-60 1491.19,-55.02"/>
</g>
<!-- 54 -->
<g id="node33" class="node">
<title>54</title>
<ellipse fill="#b9d3ee" stroke="black" cx="224.9" cy="-34" rx="16.8" ry="18"/>
<text text-anchor="middle" x="224.9" y="-30.3" font-family="Times,serif" font-size="14.00">1</text>
</g>
<!-- 41&#45;&gt;54 -->
<g id="edge40" class="edge">
<title>41&#45;&gt;54</title>
<path fill="none" stroke="black" d="M204.8,-89.12C207.91,-80.73 211.81,-70.24 215.34,-60.73"/>
<polygon fill="black" stroke="black" points="218.64,-61.9 218.84,-51.31 212.08,-59.46 218.64,-61.9"/>
</g>
<!-- 55 -->
<g id="node34" class="node">
<title>55</title>
<ellipse fill="#b9d3ee" stroke="black" cx="276.9" cy="-34" rx="16.8" ry="18"/>
<text text-anchor="middle" x="276.9" y="-30.3" font-family="Times,serif" font-size="14.00">1</text>
</g>
<!-- 41&#45;&gt;55 -->
<g id="edge41" class="edge">
<title>41&#45;&gt;55</title>
<path fill="none" stroke="black" d="M211.43,-93.75C223.6,-82.83 242.27,-66.07 256.57,-53.24"/>
<polygon fill="black" stroke="black" points="259.29,-55.5 264.4,-46.22 254.62,-50.29 259.29,-55.5"/>
</g>
<!-- 510 -->
<g id="node39" class="node">
<title>510</title>
<ellipse fill="#b9d3ee" stroke="black" cx="16.9" cy="-34" rx="16.8" ry="18"/>
<text text-anchor="middle" x="16.9" y="-30.3" font-family="Times,serif" font-size="14.00">1</text>
</g>
<!-- 41&#45;&gt;510 -->
<g id="edge46" class="edge">
<title>41&#45;&gt;510</title>
<path fill="none" stroke="black" d="M182.42,-100.87C153.37,-93.28 91.5,-75.67 42.9,-52 41.73,-51.43 40.54,-50.81 39.36,-50.17"/>
<polygon fill="black" stroke="black" points="40.92,-47.02 30.55,-44.85 37.3,-53.01 40.92,-47.02"/>
</g>
<!-- 511 -->
<g id="node40" class="node">
<title>511</title>
<ellipse fill="#b9d3ee" stroke="black" cx="68.9" cy="-34" rx="16.8" ry="18"/>
<text text-anchor="middle" x="68.9" y="-30.3" font-family="Times,serif" font-size="14.00">1</text>
</g>
<!-- 41&#45;&gt;511 -->
<g id="edge47" class="edge">
<title>41&#45;&gt;511</title>
<path fill="none" stroke="black" d="M183.47,-97.78C162.92,-88.02 125.58,-69.78 94.9,-52 93.77,-51.35 92.62,-50.66 91.47,-49.96"/>
<polygon fill="black" stroke="black" points="93.08,-46.84 82.76,-44.46 89.34,-52.76 93.08,-46.84"/>
</g>
<!-- 512 -->
<g id="node41" class="node">
<title>512</title>
<ellipse fill="#b9d3ee" stroke="black" cx="120.9" cy="-34" rx="16.8" ry="18"/>
<text text-anchor="middle" x="120.9" y="-30.3" font-family="Times,serif" font-size="14.00">1</text>
</g>
<!-- 41&#45;&gt;512 -->
<g id="edge48" class="edge">
<title>41&#45;&gt;512</title>
<path fill="none" stroke="black" d="M186.37,-93.75C174.2,-82.83 155.52,-66.07 141.23,-53.24"/>
<polygon fill="black" stroke="black" points="143.18,-50.29 133.4,-46.22 138.5,-55.5 143.18,-50.29"/>
</g>
<!-- 518 -->
<g id="node47" class="node">
<title>518</title>
<ellipse fill="#b9d3ee" stroke="black" cx="172.9" cy="-34" rx="16.8" ry="18"/>
<text text-anchor="middle" x="172.9" y="-30.3" font-family="Times,serif" font-size="14.00">2</text>
</g>
<!-- 41&#45;&gt;518 -->
<g id="edge54" class="edge">
<title>41&#45;&gt;518</title>
<path fill="none" stroke="black" d="M193,-89.12C189.89,-80.73 185.99,-70.24 182.46,-60.73"/>
<polygon fill="black" stroke="black" points="185.72,-59.46 178.96,-51.31 179.16,-61.9 185.72,-59.46"/>
</g>
<!-- 58 -->
<g id="node37" class="node">
<title>58</title>
<ellipse fill="#b9d3ee" stroke="black" cx="749.9" cy="-34" rx="16.8" ry="18"/>
<text text-anchor="middle" x="749.9" y="-30.3" font-family="Times,serif" font-size="14.00">1</text>
</g>
<!-- 42&#45;&gt;58 -->
<g id="edge44" class="edge">
<title>42&#45;&gt;58</title>
<path fill="none" stroke="black" d="M575.9,-98.66C613.25,-90.75 675.33,-75.35 724.9,-52 725.9,-51.53 726.9,-51.02 727.9,-50.49"/>
<polygon fill="black" stroke="black" points="729.9,-53.37 736.61,-45.17 726.25,-47.39 729.9,-53.37"/>
</g>
<!-- 59 -->
<g id="node38" class="node">
<title>59</title>
<ellipse fill="#b9d3ee" stroke="black" cx="328.9" cy="-34" rx="16.8" ry="18"/>
<text text-anchor="middle" x="328.9" y="-30.3" font-family="Times,serif" font-size="14.00">1</text>
</g>
<!-- 42&#45;&gt;59 -->
<g id="edge45" class="edge">
<title>42&#45;&gt;59</title>
<path fill="none" stroke="black" d="M509.57,-98.81C471.13,-90.95 406.6,-75.52 354.9,-52 353.71,-51.46 352.52,-50.87 351.33,-50.24"/>
<polygon fill="black" stroke="black" points="352.87,-47.09 342.48,-44.99 349.29,-53.11 352.87,-47.09"/>
</g>
<!-- 517 -->
<g id="node46" class="node">
<title>517</title>
<ellipse fill="#b9d3ee" stroke="black" cx="380.9" cy="-34" rx="16.8" ry="18"/>
<text text-anchor="middle" x="380.9" y="-30.3" font-family="Times,serif" font-size="14.00">2</text>
</g>
<!-- 42&#45;&gt;517 -->
<g id="edge53" class="edge">
<title>42&#45;&gt;517</title>
<path fill="none" stroke="black" d="M513.48,-95.52C485.41,-86.02 442.27,-70.21 406.9,-52 405.74,-51.4 404.57,-50.77 403.39,-50.1"/>
<polygon fill="black" stroke="black" points="404.97,-46.96 394.61,-44.73 401.31,-52.93 404.97,-46.96"/>
</g>
<!-- 526 -->
<g id="node55" class="node">
<title>526</title>
<ellipse fill="#b9d3ee" stroke="black" cx="432.9" cy="-34" rx="16.8" ry="18"/>
<text text-anchor="middle" x="432.9" y="-30.3" font-family="Times,serif" font-size="14.00">6</text>
</g>
<!-- 42&#45;&gt;526 -->
<g id="edge62" class="edge">
<title>42&#45;&gt;526</title>
<path fill="none" stroke="black" d="M521.08,-91.37C504.09,-80.72 479.94,-65.51 458.9,-52 457.8,-51.3 456.68,-50.57 455.55,-49.84"/>
<polygon fill="black" stroke="black" points="457.2,-46.74 446.9,-44.22 453.38,-52.6 457.2,-46.74"/>
</g>
<!-- 528 -->
<g id="node57" class="node">
<title>528</title>
<ellipse fill="#b9d3ee" stroke="black" cx="484.9" cy="-34" rx="16.8" ry="18"/>
<text text-anchor="middle" x="484.9" y="-30.3" font-family="Times,serif" font-size="14.00">7</text>
</g>
<!-- 42&#45;&gt;528 -->
<g id="edge64" class="edge">
<title>42&#45;&gt;528</title>
<path fill="none" stroke="black" d="M529.74,-89.12C521.61,-79.31 511.1,-66.62 502.3,-56"/>
<polygon fill="black" stroke="black" points="504.75,-53.48 495.68,-48.01 499.36,-57.94 504.75,-53.48"/>
</g>
<!-- 536 -->
<g id="node65" class="node">
<title>536</title>
<ellipse fill="#b9d3ee" stroke="black" cx="542.9" cy="-34" rx="23" ry="18"/>
<text text-anchor="middle" x="542.9" y="-30.3" font-family="Times,serif" font-size="14.00">20</text>
</g>
<!-- 42&#45;&gt;536 -->
<g id="edge72" class="edge">
<title>42&#45;&gt;536</title>
<path fill="none" stroke="black" d="M542.9,-87.7C542.9,-79.98 542.9,-70.71 542.9,-62.11"/>
<polygon fill="black" stroke="black" points="546.4,-62.1 542.9,-52.1 539.4,-62.1 546.4,-62.1"/>
</g>
<!-- 539 -->
<g id="node68" class="node">
<title>539</title>
<ellipse fill="#b9d3ee" stroke="black" cx="611.9" cy="-34" rx="28.7" ry="18"/>
<text text-anchor="middle" x="611.9" y="-30.3" font-family="Times,serif" font-size="14.00">162</text>
</g>
<!-- 42&#45;&gt;539 -->
<g id="edge75" class="edge">
<title>42&#45;&gt;539</title>
<path fill="none" stroke="black" d="M558.21,-89.46C567.54,-80 579.61,-67.75 589.95,-57.27"/>
<polygon fill="black" stroke="black" points="592.57,-59.59 597.1,-50.01 587.59,-54.68 592.57,-59.59"/>
</g>
<!-- 540 -->
<g id="node69" class="node">
<title>540</title>
<ellipse fill="#b9d3ee" stroke="black" cx="686.9" cy="-34" rx="28.7" ry="18"/>
<text text-anchor="middle" x="686.9" y="-30.3" font-family="Times,serif" font-size="14.00">181</text>
</g>
<!-- 42&#45;&gt;540 -->
<g id="edge76" class="edge">
<title>42&#45;&gt;540</title>
<path fill="none" stroke="black" d="M567.98,-92.81C592.38,-80.95 629.52,-62.89 655.79,-50.12"/>
<polygon fill="black" stroke="black" points="657.47,-53.2 664.93,-45.68 654.41,-46.9 657.47,-53.2"/>
</g>
<!-- 57 -->
<g id="node36" class="node">
<title>57</title>
<ellipse fill="#b9d3ee" stroke="black" cx="1226.9" cy="-34" rx="16.8" ry="18"/>
<text text-anchor="middle" x="1226.9" y="-30.3" font-family="Times,serif" font-size="14.00">1</text>
</g>
<!-- 43&#45;&gt;57 -->
<g id="edge43" class="edge">
<title>43&#45;&gt;57</title>
<path fill="none" stroke="black" d="M1049.03,-98.65C1086.89,-90.69 1150.16,-75.21 1200.9,-52 1202.08,-51.46 1203.28,-50.87 1204.47,-50.24"/>
<polygon fill="black" stroke="black" points="1206.5,-53.1 1213.31,-44.98 1202.93,-47.08 1206.5,-53.1"/>
</g>
<!-- 515 -->
<g id="node44" class="node">
<title>515</title>
<ellipse fill="#b9d3ee" stroke="black" cx="1278.9" cy="-34" rx="16.8" ry="18"/>
<text text-anchor="middle" x="1278.9" y="-30.3" font-family="Times,serif" font-size="14.00">2</text>
</g>
<!-- 43&#45;&gt;515 -->
<g id="edge51" class="edge">
<title>43&#45;&gt;515</title>
<path fill="none" stroke="black" d="M1050.84,-101.16C1098.15,-95.09 1184.54,-80.87 1252.9,-52 1254.1,-51.49 1255.31,-50.93 1256.51,-50.33"/>
<polygon fill="black" stroke="black" points="1258.51,-53.21 1265.38,-45.15 1254.98,-47.16 1258.51,-53.21"/>
</g>
<!-- 522 -->
<g id="node51" class="node">
<title>522</title>
<ellipse fill="#b9d3ee" stroke="black" cx="801.9" cy="-34" rx="16.8" ry="18"/>
<text text-anchor="middle" x="801.9" y="-30.3" font-family="Times,serif" font-size="14.00">4</text>
</g>
<!-- 43&#45;&gt;522 -->
<g id="edge58" class="edge">
<title>43&#45;&gt;522</title>
<path fill="none" stroke="black" d="M982.57,-98.81C944.13,-90.95 879.6,-75.52 827.9,-52 826.71,-51.46 825.52,-50.87 824.33,-50.24"/>
<polygon fill="black" stroke="black" points="825.87,-47.09 815.48,-44.99 822.29,-53.11 825.87,-47.09"/>
</g>
<!-- 523 -->
<g id="node52" class="node">
<title>523</title>
<ellipse fill="#b9d3ee" stroke="black" cx="853.9" cy="-34" rx="16.8" ry="18"/>
<text text-anchor="middle" x="853.9" y="-30.3" font-family="Times,serif" font-size="14.00">4</text>
</g>
<!-- 43&#45;&gt;523 -->
<g id="edge59" class="edge">
<title>43&#45;&gt;523</title>
<path fill="none" stroke="black" d="M986.48,-95.52C958.41,-86.02 915.27,-70.21 879.9,-52 878.74,-51.4 877.57,-50.77 876.39,-50.1"/>
<polygon fill="black" stroke="black" points="877.97,-46.96 867.61,-44.73 874.31,-52.93 877.97,-46.96"/>
</g>
<!-- 527 -->
<g id="node56" class="node">
<title>527</title>
<ellipse fill="#b9d3ee" stroke="black" cx="905.9" cy="-34" rx="16.8" ry="18"/>
<text text-anchor="middle" x="905.9" y="-30.3" font-family="Times,serif" font-size="14.00">7</text>
</g>
<!-- 43&#45;&gt;527 -->
<g id="edge63" class="edge">
<title>43&#45;&gt;527</title>
<path fill="none" stroke="black" d="M994.08,-91.37C977.09,-80.72 952.94,-65.51 931.9,-52 930.8,-51.3 929.68,-50.57 928.55,-49.84"/>
<polygon fill="black" stroke="black" points="930.2,-46.74 919.9,-44.22 926.38,-52.6 930.2,-46.74"/>
</g>
<!-- 530 -->
<g id="node59" class="node">
<title>530</title>
<ellipse fill="#b9d3ee" stroke="black" cx="957.9" cy="-34" rx="16.8" ry="18"/>
<text text-anchor="middle" x="957.9" y="-30.3" font-family="Times,serif" font-size="14.00">8</text>
</g>
<!-- 43&#45;&gt;530 -->
<g id="edge66" class="edge">
<title>43&#45;&gt;530</title>
<path fill="none" stroke="black" d="M1002.74,-89.12C994.61,-79.31 984.1,-66.62 975.3,-56"/>
<polygon fill="black" stroke="black" points="977.75,-53.48 968.68,-48.01 972.36,-57.94 977.75,-53.48"/>
</g>
<!-- 535 -->
<g id="node64" class="node">
<title>535</title>
<ellipse fill="#b9d3ee" stroke="black" cx="1015.9" cy="-34" rx="23" ry="18"/>
<text text-anchor="middle" x="1015.9" y="-30.3" font-family="Times,serif" font-size="14.00">19</text>
</g>
<!-- 43&#45;&gt;535 -->
<g id="edge71" class="edge">
<title>43&#45;&gt;535</title>
<path fill="none" stroke="black" d="M1015.9,-87.7C1015.9,-79.98 1015.9,-70.71 1015.9,-62.11"/>
<polygon fill="black" stroke="black" points="1019.4,-62.1 1015.9,-52.1 1012.4,-62.1 1019.4,-62.1"/>
</g>
<!-- 538 -->
<g id="node67" class="node">
<title>538</title>
<ellipse fill="#b9d3ee" stroke="black" cx="1078.9" cy="-34" rx="23" ry="18"/>
<text text-anchor="middle" x="1078.9" y="-30.3" font-family="Times,serif" font-size="14.00">62</text>
</g>
<!-- 43&#45;&gt;538 -->
<g id="edge74" class="edge">
<title>43&#45;&gt;538</title>
<path fill="none" stroke="black" d="M1030.19,-89.12C1038.76,-79.6 1049.77,-67.37 1059.15,-56.94"/>
<polygon fill="black" stroke="black" points="1061.86,-59.17 1065.95,-49.39 1056.65,-54.48 1061.86,-59.17"/>
</g>
<!-- 541 -->
<g id="node70" class="node">
<title>541</title>
<ellipse fill="#b9d3ee" stroke="black" cx="1155.9" cy="-34" rx="36" ry="18"/>
<text text-anchor="middle" x="1155.9" y="-30.3" font-family="Times,serif" font-size="14.00">296</text>
</g>
<!-- 43&#45;&gt;541 -->
<g id="edge77" class="edge">
<title>43&#45;&gt;541</title>
<path fill="none" stroke="black" d="M1040.61,-92.65C1063.3,-81.3 1097.12,-64.39 1122.27,-51.82"/>
<polygon fill="black" stroke="black" points="1124.06,-54.83 1131.44,-47.23 1120.93,-48.57 1124.06,-54.83"/>
</g>
<!-- 53 -->
<g id="node32" class="node">
<title>53</title>
<ellipse fill="#b9d3ee" stroke="black" cx="1744.9" cy="-34" rx="16.8" ry="18"/>
<text text-anchor="middle" x="1744.9" y="-30.3" font-family="Times,serif" font-size="14.00">1</text>
</g>
<!-- 44&#45;&gt;53 -->
<g id="edge39" class="edge">
<title>44&#45;&gt;53</title>
<path fill="none" stroke="black" d="M1744.9,-87.7C1744.9,-79.98 1744.9,-70.71 1744.9,-62.11"/>
<polygon fill="black" stroke="black" points="1748.4,-62.1 1744.9,-52.1 1741.4,-62.1 1748.4,-62.1"/>
</g>
<!-- 525 -->
<g id="node54" class="node">
<title>525</title>
<ellipse fill="#b9d3ee" stroke="black" cx="1796.9" cy="-34" rx="16.8" ry="18"/>
<text text-anchor="middle" x="1796.9" y="-30.3" font-family="Times,serif" font-size="14.00">6</text>
</g>
<!-- 44&#45;&gt;525 -->
<g id="edge61" class="edge">
<title>44&#45;&gt;525</title>
<path fill="none" stroke="black" d="M1754.92,-91.5C1762.17,-81.75 1772.11,-68.37 1780.5,-57.07"/>
<polygon fill="black" stroke="black" points="1783.39,-59.05 1786.55,-48.93 1777.77,-54.87 1783.39,-59.05"/>
</g>
<!-- 50 -->
<g id="node29" class="node">
<title>50</title>
<ellipse fill="#b9d3ee" stroke="black" cx="1848.9" cy="-34" rx="16.8" ry="18"/>
<text text-anchor="middle" x="1848.9" y="-30.3" font-family="Times,serif" font-size="14.00">1</text>
</g>
<!-- 45&#45;&gt;50 -->
<g id="edge36" class="edge">
<title>45&#45;&gt;50</title>
<path fill="none" stroke="black" d="M1932.35,-91.17C1914.81,-79.36 1889.62,-62.41 1871.51,-50.22"/>
<polygon fill="black" stroke="black" points="1873.01,-47.01 1862.76,-44.33 1869.1,-52.82 1873.01,-47.01"/>
</g>
<!-- 52 -->
<g id="node31" class="node">
<title>52</title>
<ellipse fill="#b9d3ee" stroke="black" cx="1900.9" cy="-34" rx="16.8" ry="18"/>
<text text-anchor="middle" x="1900.9" y="-30.3" font-family="Times,serif" font-size="14.00">1</text>
</g>
<!-- 45&#45;&gt;52 -->
<g id="edge38" class="edge">
<title>45&#45;&gt;52</title>
<path fill="none" stroke="black" d="M1940.84,-88.76C1933.81,-79.3 1924.84,-67.23 1917.19,-56.93"/>
<polygon fill="black" stroke="black" points="1919.91,-54.73 1911.14,-48.79 1914.29,-58.9 1919.91,-54.73"/>
</g>
<!-- 524 -->
<g id="node53" class="node">
<title>524</title>
<ellipse fill="#b9d3ee" stroke="black" cx="1952.9" cy="-34" rx="16.8" ry="18"/>
<text text-anchor="middle" x="1952.9" y="-30.3" font-family="Times,serif" font-size="14.00">5</text>
</g>
<!-- 45&#45;&gt;524 -->
<g id="edge60" class="edge">
<title>45&#45;&gt;524</title>
<path fill="none" stroke="black" d="M1952.9,-87.7C1952.9,-79.98 1952.9,-70.71 1952.9,-62.11"/>
<polygon fill="black" stroke="black" points="1956.4,-62.1 1952.9,-52.1 1949.4,-62.1 1956.4,-62.1"/>
</g>
<!-- 529 -->
<g id="node58" class="node">
<title>529</title>
<ellipse fill="#b9d3ee" stroke="black" cx="2004.9" cy="-34" rx="16.8" ry="18"/>
<text text-anchor="middle" x="2004.9" y="-30.3" font-family="Times,serif" font-size="14.00">7</text>
</g>
<!-- 45&#45;&gt;529 -->
<g id="edge65" class="edge">
<title>45&#45;&gt;529</title>
<path fill="none" stroke="black" d="M1964.96,-88.76C1971.99,-79.3 1980.95,-67.23 1988.61,-56.93"/>
<polygon fill="black" stroke="black" points="1991.5,-58.9 1994.66,-48.79 1985.88,-54.73 1991.5,-58.9"/>
</g>
<!-- 544 -->
<g id="node73" class="node">
<title>544</title>
<ellipse fill="#b9d3ee" stroke="black" cx="2075.9" cy="-34" rx="36" ry="18"/>
<text text-anchor="middle" x="2075.9" y="-30.3" font-family="Times,serif" font-size="14.00">374</text>
</g>
<!-- 45&#45;&gt;544 -->
<g id="edge80" class="edge">
<title>45&#45;&gt;544</title>
<path fill="none" stroke="black" d="M1975.75,-92C1994.96,-81.07 2022.63,-65.32 2044.02,-53.14"/>
<polygon fill="black" stroke="black" points="2045.8,-56.16 2052.76,-48.17 2042.33,-50.07 2045.8,-56.16"/>
</g>
<!-- 56 -->
<g id="node35" class="node">
<title>56</title>
<ellipse fill="#b9d3ee" stroke="black" cx="2415.9" cy="-34" rx="16.8" ry="18"/>
<text text-anchor="middle" x="2415.9" y="-30.3" font-family="Times,serif" font-size="14.00">1</text>
</g>
<!-- 46&#45;&gt;56 -->
<g id="edge42" class="edge">
<title>46&#45;&gt;56</title>
<path fill="none" stroke="black" d="M2313.33,-95.22C2332.63,-84.85 2363.72,-67.83 2389.9,-52 2391.01,-51.32 2392.15,-50.63 2393.3,-49.91"/>
<polygon fill="black" stroke="black" points="2395.44,-52.7 2401.98,-44.36 2391.67,-46.8 2395.44,-52.7"/>
</g>
<!-- 521 -->
<g id="node50" class="node">
<title>521</title>
<ellipse fill="#b9d3ee" stroke="black" cx="2236.9" cy="-34" rx="16.8" ry="18"/>
<text text-anchor="middle" x="2236.9" y="-30.3" font-family="Times,serif" font-size="14.00">3</text>
</g>
<!-- 46&#45;&gt;521 -->
<g id="edge57" class="edge">
<title>46&#45;&gt;521</title>
<path fill="none" stroke="black" d="M2282.88,-90.5C2274.63,-80.54 2263.55,-67.17 2254.33,-56.04"/>
<polygon fill="black" stroke="black" points="2256.8,-53.54 2247.73,-48.07 2251.41,-58 2256.8,-53.54"/>
</g>
<!-- 532 -->
<g id="node61" class="node">
<title>532</title>
<ellipse fill="#b9d3ee" stroke="black" cx="2294.9" cy="-34" rx="23" ry="18"/>
<text text-anchor="middle" x="2294.9" y="-30.3" font-family="Times,serif" font-size="14.00">10</text>
</g>
<!-- 46&#45;&gt;532 -->
<g id="edge68" class="edge">
<title>46&#45;&gt;532</title>
<path fill="none" stroke="black" d="M2294.9,-87.7C2294.9,-79.98 2294.9,-70.71 2294.9,-62.11"/>
<polygon fill="black" stroke="black" points="2298.4,-62.1 2294.9,-52.1 2291.4,-62.1 2298.4,-62.1"/>
</g>
<!-- 533 -->
<g id="node62" class="node">
<title>533</title>
<ellipse fill="#b9d3ee" stroke="black" cx="2357.9" cy="-34" rx="23" ry="18"/>
<text text-anchor="middle" x="2357.9" y="-30.3" font-family="Times,serif" font-size="14.00">11</text>
</g>
<!-- 46&#45;&gt;533 -->
<g id="edge69" class="edge">
<title>46&#45;&gt;533</title>
<path fill="none" stroke="black" d="M2307.65,-90.83C2316.44,-81.06 2328.3,-67.88 2338.3,-56.78"/>
<polygon fill="black" stroke="black" points="2341.08,-58.92 2345.17,-49.14 2335.88,-54.24 2341.08,-58.92"/>
</g>
<!-- 514 -->
<g id="node43" class="node">
<title>514</title>
<ellipse fill="#b9d3ee" stroke="black" cx="2583.9" cy="-34" rx="16.8" ry="18"/>
<text text-anchor="middle" x="2583.9" y="-30.3" font-family="Times,serif" font-size="14.00">2</text>
</g>
<!-- 47&#45;&gt;514 -->
<g id="edge50" class="edge">
<title>47&#45;&gt;514</title>
<path fill="none" stroke="black" d="M2512.45,-92.49C2526.47,-81.2 2547.21,-64.52 2562.74,-52.02"/>
<polygon fill="black" stroke="black" points="2565.16,-54.57 2570.75,-45.58 2560.77,-49.12 2565.16,-54.57"/>
</g>
<!-- 531 -->
<g id="node60" class="node">
<title>531</title>
<ellipse fill="#b9d3ee" stroke="black" cx="2467.9" cy="-34" rx="16.8" ry="18"/>
<text text-anchor="middle" x="2467.9" y="-30.3" font-family="Times,serif" font-size="14.00">9</text>
</g>
<!-- 47&#45;&gt;531 -->
<g id="edge67" class="edge">
<title>47&#45;&gt;531</title>
<path fill="none" stroke="black" d="M2490.17,-88.76C2486.65,-80.25 2482.25,-69.64 2478.29,-60.09"/>
<polygon fill="black" stroke="black" points="2481.45,-58.56 2474.39,-50.67 2474.98,-61.24 2481.45,-58.56"/>
</g>
<!-- 537 -->
<g id="node66" class="node">
<title>537</title>
<ellipse fill="#b9d3ee" stroke="black" cx="2525.9" cy="-34" rx="23" ry="18"/>
<text text-anchor="middle" x="2525.9" y="-30.3" font-family="Times,serif" font-size="14.00">51</text>
</g>
<!-- 47&#45;&gt;537 -->
<g id="edge73" class="edge">
<title>47&#45;&gt;537</title>
<path fill="none" stroke="black" d="M2503.62,-88.76C2507.05,-80.49 2511.3,-70.23 2515.17,-60.9"/>
<polygon fill="black" stroke="black" points="2518.41,-62.21 2519.01,-51.63 2511.95,-59.53 2518.41,-62.21"/>
</g>
<!-- 542 -->
<g id="node71" class="node">
<title>542</title>
<ellipse fill="#b9d3ee" stroke="black" cx="2165.9" cy="-34" rx="36" ry="18"/>
<text text-anchor="middle" x="2165.9" y="-30.3" font-family="Times,serif" font-size="14.00">332</text>
</g>
<!-- 48&#45;&gt;542 -->
<g id="edge78" class="edge">
<title>48&#45;&gt;542</title>
<path fill="none" stroke="black" d="M2165.9,-87.7C2165.9,-79.98 2165.9,-70.71 2165.9,-62.11"/>
<polygon fill="black" stroke="black" points="2169.4,-62.1 2165.9,-52.1 2162.4,-62.1 2169.4,-62.1"/>
</g>
<!-- legend_5 -->
<g id="node74" class="node">
<title>legend_5</title>
<polygon fill="#b9d3ee" stroke="black" points="2839.4,-52 2618.4,-52 2618.4,-16 2839.4,-16 2839.4,-52"/>
<text text-anchor="middle" x="2728.9" y="-30.3" font-family="Times,serif" font-size="14.00">DT=6 ST=1 Similarity=0.56</text>
</g>
<!-- legend_4&#45;&gt;legend_5 -->
<g id="edge81" class="edge">
<title>legend_4&#45;&gt;legend_5</title>
<path fill="none" stroke="black" d="M2728.9,-87.7C2728.9,-79.98 2728.9,-70.71 2728.9,-62.11"/>
<polygon fill="black" stroke="black" points="2732.4,-62.1 2728.9,-52.1 2725.4,-62.1 2732.4,-62.1"/>
</g>
</g>
</svg>
