<?xml version="1.0" encoding="UTF-8" standalone="no"?>
<!DOCTYPE svg PUBLIC "-//W3C//DTD SVG 1.1//EN"
 "http://www.w3.org/Graphics/SVG/1.1/DTD/svg11.dtd">
<!-- Generated by graphviz version 2.43.0 (0)
 -->
<!-- Title: %3 Pages: 1 -->
<svg width="2965pt" height="425pt"
 viewBox="0.00 0.00 2964.75 425.00" xmlns="http://www.w3.org/2000/svg" xmlns:xlink="http://www.w3.org/1999/xlink">
<g id="graph0" class="graph" transform="scale(1 1) rotate(0) translate(4 421)">
<title>%3</title>
<polygon fill="white" stroke="transparent" points="-4,4 -4,-421 2960.75,-421 2960.75,4 -4,4"/>
<text text-anchor="middle" x="1478.37" y="-401.8" font-family="Times,serif" font-size="14.00">ConsTree</text>
<text text-anchor="middle" x="1478.37" y="-386.8" font-family="Times,serif" font-size="14.00">Tree Quality = 0.8333333333333334</text>
<g id="clust1" class="cluster">
<title>cluster</title>
<polygon fill="none" stroke="black" points="2712.75,-8 2712.75,-371 2948.75,-371 2948.75,-8 2712.75,-8"/>
<text text-anchor="middle" x="2830.75" y="-355.8" font-family="Times,serif" font-size="14.00">Legend</text>
</g>
<!-- 00 -->
<g id="node1" class="node">
<title>00</title>
<ellipse fill="#b9d3ee" stroke="black" cx="1891.75" cy="-322" rx="324" ry="18"/>
<text text-anchor="middle" x="1891.75" y="-318.3" font-family="Times,serif" font-size="14.00">2000</text>
</g>
<!-- 10 -->
<g id="node3" class="node">
<title>10</title>
<ellipse fill="#b9d3ee" stroke="black" cx="1194.75" cy="-250" rx="108" ry="18"/>
<text text-anchor="middle" x="1194.75" y="-246.3" font-family="Times,serif" font-size="14.00">788</text>
</g>
<!-- 00&#45;&gt;10 -->
<g id="edge1" class="edge">
<title>00&#45;&gt;10</title>
<path fill="none" stroke="black" d="M1742.22,-305.98C1607.06,-292.41 1411.85,-272.8 1294.72,-261.04"/>
<polygon fill="black" stroke="black" points="1294.98,-257.55 1284.68,-260.03 1294.28,-264.51 1294.98,-257.55"/>
</g>
<!-- 11 -->
<g id="node4" class="node">
<title>11</title>
<ellipse fill="#b9d3ee" stroke="black" cx="2062.75" cy="-250" rx="36" ry="18"/>
<text text-anchor="middle" x="2062.75" y="-246.3" font-family="Times,serif" font-size="14.00">398</text>
</g>
<!-- 00&#45;&gt;11 -->
<g id="edge2" class="edge">
<title>00&#45;&gt;11</title>
<path fill="none" stroke="black" d="M1933.14,-304.05C1961.58,-292.42 1998.97,-277.11 2026.29,-265.93"/>
<polygon fill="black" stroke="black" points="2027.93,-269.04 2035.86,-262.01 2025.28,-262.56 2027.93,-269.04"/>
</g>
<!-- 12 -->
<g id="node5" class="node">
<title>12</title>
<ellipse fill="#b9d3ee" stroke="black" cx="1891.75" cy="-250" rx="108" ry="18"/>
<text text-anchor="middle" x="1891.75" y="-246.3" font-family="Times,serif" font-size="14.00">814</text>
</g>
<!-- 00&#45;&gt;12 -->
<g id="edge3" class="edge">
<title>00&#45;&gt;12</title>
<path fill="none" stroke="black" d="M1891.75,-303.7C1891.75,-295.98 1891.75,-286.71 1891.75,-278.11"/>
<polygon fill="black" stroke="black" points="1895.25,-278.1 1891.75,-268.1 1888.25,-278.1 1895.25,-278.1"/>
</g>
<!-- legend_0 -->
<g id="node2" class="node">
<title>legend_0</title>
<polygon fill="#b9d3ee" stroke="black" points="2941.25,-340 2720.25,-340 2720.25,-304 2941.25,-304 2941.25,-340"/>
<text text-anchor="middle" x="2830.75" y="-318.3" font-family="Times,serif" font-size="14.00">DT=2 ST=2 Similarity=0.28</text>
</g>
<!-- legend_1 -->
<g id="node6" class="node">
<title>legend_1</title>
<polygon fill="#b9d3ee" stroke="black" points="2941.25,-268 2720.25,-268 2720.25,-232 2941.25,-232 2941.25,-268"/>
<text text-anchor="middle" x="2830.75" y="-246.3" font-family="Times,serif" font-size="14.00">DT=3 ST=1 Similarity=0.45</text>
</g>
<!-- legend_0&#45;&gt;legend_1 -->
<g id="edge4" class="edge">
<title>legend_0&#45;&gt;legend_1</title>
<path fill="none" stroke="black" d="M2830.75,-303.7C2830.75,-295.98 2830.75,-286.71 2830.75,-278.11"/>
<polygon fill="black" stroke="black" points="2834.25,-278.1 2830.75,-268.1 2827.25,-278.1 2834.25,-278.1"/>
</g>
<!-- 20 -->
<g id="node7" class="node">
<title>20</title>
<polygon fill="darkseagreen" stroke="black" points="502.25,-196 467.25,-196 467.25,-160 502.25,-160 502.25,-196"/>
<text text-anchor="middle" x="484.75" y="-174.3" font-family="Times,serif" font-size="14.00">49</text>
</g>
<!-- 10&#45;&gt;20 -->
<g id="edge5" class="edge">
<title>10&#45;&gt;20</title>
<path fill="none" stroke="black" d="M1104.47,-240.1C942.47,-224.13 610.19,-191.37 512.4,-181.73"/>
<polygon fill="black" stroke="black" points="512.71,-178.24 502.42,-180.74 512.02,-185.21 512.71,-178.24"/>
</g>
<!-- 21 -->
<g id="node8" class="node">
<title>21</title>
<polygon fill="darkseagreen" stroke="black" points="1066.75,-196 994.75,-196 994.75,-160 1066.75,-160 1066.75,-196"/>
<text text-anchor="middle" x="1030.75" y="-174.3" font-family="Times,serif" font-size="14.00">387</text>
</g>
<!-- 10&#45;&gt;21 -->
<g id="edge6" class="edge">
<title>10&#45;&gt;21</title>
<path fill="none" stroke="black" d="M1157.12,-232.94C1133.06,-222.67 1101.69,-209.28 1076.23,-198.41"/>
<polygon fill="black" stroke="black" points="1077.36,-195.09 1066.79,-194.38 1074.61,-201.53 1077.36,-195.09"/>
</g>
<!-- 23 -->
<g id="node10" class="node">
<title>23</title>
<polygon fill="darkseagreen" stroke="black" points="1393.75,-196 1321.75,-196 1321.75,-160 1393.75,-160 1393.75,-196"/>
<text text-anchor="middle" x="1357.75" y="-174.3" font-family="Times,serif" font-size="14.00">372</text>
</g>
<!-- 10&#45;&gt;23 -->
<g id="edge8" class="edge">
<title>10&#45;&gt;23</title>
<path fill="none" stroke="black" d="M1232.14,-232.94C1255.98,-222.7 1287.02,-209.37 1312.28,-198.53"/>
<polygon fill="black" stroke="black" points="1313.84,-201.67 1321.65,-194.5 1311.08,-195.23 1313.84,-201.67"/>
</g>
<!-- 25 -->
<g id="node12" class="node">
<title>25</title>
<polygon fill="darkseagreen" stroke="black" points="2276.75,-196 2204.75,-196 2204.75,-160 2276.75,-160 2276.75,-196"/>
<text text-anchor="middle" x="2240.75" y="-174.3" font-family="Times,serif" font-size="14.00">400</text>
</g>
<!-- 11&#45;&gt;25 -->
<g id="edge11" class="edge">
<title>11&#45;&gt;25</title>
<path fill="none" stroke="black" d="M2090.17,-238.22C2118.13,-227.22 2161.99,-209.97 2195.18,-196.92"/>
<polygon fill="black" stroke="black" points="2196.64,-200.11 2204.67,-193.19 2194.08,-193.59 2196.64,-200.11"/>
</g>
<!-- 22 -->
<g id="node9" class="node">
<title>22</title>
<polygon fill="darkseagreen" stroke="black" points="1842.75,-196 1770.75,-196 1770.75,-160 1842.75,-160 1842.75,-196"/>
<text text-anchor="middle" x="1806.75" y="-174.3" font-family="Times,serif" font-size="14.00">349</text>
</g>
<!-- 12&#45;&gt;22 -->
<g id="edge7" class="edge">
<title>12&#45;&gt;22</title>
<path fill="none" stroke="black" d="M1871.17,-232.05C1860.39,-223.18 1847.02,-212.17 1835.26,-202.48"/>
<polygon fill="black" stroke="black" points="1837.37,-199.69 1827.43,-196.03 1832.92,-205.09 1837.37,-199.69"/>
</g>
<!-- 12&#45;&gt;23 -->
<g id="edge9" class="edge">
<title>12&#45;&gt;23</title>
<path fill="none" stroke="black" d="M1809.77,-238.25C1696.04,-223.35 1494.19,-196.89 1403.78,-185.03"/>
<polygon fill="black" stroke="black" points="1404.2,-181.56 1393.83,-183.73 1403.29,-188.5 1404.2,-181.56"/>
</g>
<!-- 24 -->
<g id="node11" class="node">
<title>24</title>
<polygon fill="darkseagreen" stroke="black" points="2012.75,-196 1940.75,-196 1940.75,-160 2012.75,-160 2012.75,-196"/>
<text text-anchor="middle" x="1976.75" y="-174.3" font-family="Times,serif" font-size="14.00">443</text>
</g>
<!-- 12&#45;&gt;24 -->
<g id="edge10" class="edge">
<title>12&#45;&gt;24</title>
<path fill="none" stroke="black" d="M1912.32,-232.05C1923.1,-223.18 1936.47,-212.17 1948.23,-202.48"/>
<polygon fill="black" stroke="black" points="1950.57,-205.09 1956.07,-196.03 1946.12,-199.69 1950.57,-205.09"/>
</g>
<!-- 12&#45;&gt;25 -->
<g id="edge12" class="edge">
<title>12&#45;&gt;25</title>
<path fill="none" stroke="black" d="M1957.8,-235.75C2026.92,-221.89 2133.65,-200.48 2194.34,-188.31"/>
<polygon fill="black" stroke="black" points="2195.28,-191.69 2204.4,-186.29 2193.91,-184.83 2195.28,-191.69"/>
</g>
<!-- legend_2 -->
<g id="node13" class="node">
<title>legend_2</title>
<polygon fill="darkseagreen" stroke="black" points="2941.25,-196 2720.25,-196 2720.25,-160 2941.25,-160 2941.25,-196"/>
<text text-anchor="middle" x="2830.75" y="-174.3" font-family="Times,serif" font-size="14.00">DT=4 ST=1 Similarity=0.66</text>
</g>
<!-- legend_1&#45;&gt;legend_2 -->
<g id="edge13" class="edge">
<title>legend_1&#45;&gt;legend_2</title>
<path fill="none" stroke="black" d="M2830.75,-231.7C2830.75,-223.98 2830.75,-214.71 2830.75,-206.11"/>
<polygon fill="black" stroke="black" points="2834.25,-206.1 2830.75,-196.1 2827.25,-206.1 2834.25,-206.1"/>
</g>
<!-- 31 -->
<g id="node15" class="node">
<title>31</title>
<ellipse fill="#b9d3ee" stroke="black" cx="247.75" cy="-106" rx="23" ry="18"/>
<text text-anchor="middle" x="247.75" y="-102.3" font-family="Times,serif" font-size="14.00">49</text>
</g>
<!-- 20&#45;&gt;31 -->
<g id="edge16" class="edge">
<title>20&#45;&gt;31</title>
<path fill="none" stroke="black" d="M466.93,-171.74C426.75,-159.87 328.65,-130.9 278.45,-116.07"/>
<polygon fill="black" stroke="black" points="279.37,-112.69 268.79,-113.21 277.39,-119.4 279.37,-112.69"/>
</g>
<!-- 35 -->
<g id="node19" class="node">
<title>35</title>
<ellipse fill="#b9d3ee" stroke="black" cx="787.75" cy="-106" rx="36" ry="18"/>
<text text-anchor="middle" x="787.75" y="-102.3" font-family="Times,serif" font-size="14.00">387</text>
</g>
<!-- 21&#45;&gt;35 -->
<g id="edge21" class="edge">
<title>21&#45;&gt;35</title>
<path fill="none" stroke="black" d="M994.63,-166.6C950.04,-153.75 874.43,-131.97 828.01,-118.6"/>
<polygon fill="black" stroke="black" points="828.87,-115.2 818.29,-115.8 826.93,-121.93 828.87,-115.2"/>
</g>
<!-- 32 -->
<g id="node16" class="node">
<title>32</title>
<ellipse fill="#b9d3ee" stroke="black" cx="1806.75" cy="-106" rx="23" ry="18"/>
<text text-anchor="middle" x="1806.75" y="-102.3" font-family="Times,serif" font-size="14.00">51</text>
</g>
<!-- 22&#45;&gt;32 -->
<g id="edge17" class="edge">
<title>22&#45;&gt;32</title>
<path fill="none" stroke="black" d="M1806.75,-159.7C1806.75,-151.98 1806.75,-142.71 1806.75,-134.11"/>
<polygon fill="black" stroke="black" points="1810.25,-134.1 1806.75,-124.1 1803.25,-134.1 1810.25,-134.1"/>
</g>
<!-- 37 -->
<g id="node21" class="node">
<title>37</title>
<ellipse fill="#b9d3ee" stroke="black" cx="1570.75" cy="-106" rx="36" ry="18"/>
<text text-anchor="middle" x="1570.75" y="-102.3" font-family="Times,serif" font-size="14.00">358</text>
</g>
<!-- 22&#45;&gt;37 -->
<g id="edge23" class="edge">
<title>22&#45;&gt;37</title>
<path fill="none" stroke="black" d="M1770.65,-166.29C1727.43,-153.47 1655.3,-132.08 1610.52,-118.8"/>
<polygon fill="black" stroke="black" points="1611.43,-115.42 1600.85,-115.93 1609.44,-122.13 1611.43,-115.42"/>
</g>
<!-- 33 -->
<g id="node17" class="node">
<title>33</title>
<ellipse fill="#b9d3ee" stroke="black" cx="1357.75" cy="-106" rx="23" ry="18"/>
<text text-anchor="middle" x="1357.75" y="-102.3" font-family="Times,serif" font-size="14.00">79</text>
</g>
<!-- 23&#45;&gt;33 -->
<g id="edge19" class="edge">
<title>23&#45;&gt;33</title>
<path fill="none" stroke="black" d="M1357.75,-159.7C1357.75,-151.98 1357.75,-142.71 1357.75,-134.11"/>
<polygon fill="black" stroke="black" points="1361.25,-134.1 1357.75,-124.1 1354.25,-134.1 1361.25,-134.1"/>
</g>
<!-- 34 -->
<g id="node18" class="node">
<title>34</title>
<ellipse fill="#b9d3ee" stroke="black" cx="1166.75" cy="-106" rx="36" ry="18"/>
<text text-anchor="middle" x="1166.75" y="-102.3" font-family="Times,serif" font-size="14.00">277</text>
</g>
<!-- 23&#45;&gt;34 -->
<g id="edge20" class="edge">
<title>23&#45;&gt;34</title>
<path fill="none" stroke="black" d="M1321.37,-163.67C1287.88,-151.39 1238.39,-133.26 1204.47,-120.83"/>
<polygon fill="black" stroke="black" points="1205.51,-117.48 1194.91,-117.32 1203.1,-124.05 1205.51,-117.48"/>
</g>
<!-- 23&#45;&gt;37 -->
<g id="edge24" class="edge">
<title>23&#45;&gt;37</title>
<path fill="none" stroke="black" d="M1393.88,-165.13C1432.18,-152.54 1492.45,-132.73 1531.79,-119.8"/>
<polygon fill="black" stroke="black" points="1532.9,-123.12 1541.31,-116.67 1530.72,-116.47 1532.9,-123.12"/>
</g>
<!-- 30 -->
<g id="node14" class="node">
<title>30</title>
<ellipse fill="#b9d3ee" stroke="black" cx="2361.75" cy="-106" rx="16.8" ry="18"/>
<text text-anchor="middle" x="2361.75" y="-102.3" font-family="Times,serif" font-size="14.00">7</text>
</g>
<!-- 24&#45;&gt;30 -->
<g id="edge14" class="edge">
<title>24&#45;&gt;30</title>
<path fill="none" stroke="black" d="M2012.97,-170.41C2089.75,-156.45 2267.35,-124.16 2334.96,-111.87"/>
<polygon fill="black" stroke="black" points="2335.98,-115.24 2345.19,-110.01 2334.72,-108.36 2335.98,-115.24"/>
</g>
<!-- 24&#45;&gt;32 -->
<g id="edge18" class="edge">
<title>24&#45;&gt;32</title>
<path fill="none" stroke="black" d="M1940.7,-162.15C1909.66,-149.37 1865.41,-131.16 1836.39,-119.21"/>
<polygon fill="black" stroke="black" points="1837.39,-115.83 1826.81,-115.26 1834.73,-122.31 1837.39,-115.83"/>
</g>
<!-- 36 -->
<g id="node20" class="node">
<title>36</title>
<ellipse fill="#b9d3ee" stroke="black" cx="2091.75" cy="-106" rx="36" ry="18"/>
<text text-anchor="middle" x="2091.75" y="-102.3" font-family="Times,serif" font-size="14.00">394</text>
</g>
<!-- 24&#45;&gt;36 -->
<g id="edge22" class="edge">
<title>24&#45;&gt;36</title>
<path fill="none" stroke="black" d="M2004.88,-159.88C2021.87,-149.54 2043.53,-136.35 2060.97,-125.73"/>
<polygon fill="black" stroke="black" points="2062.94,-128.63 2069.66,-120.44 2059.3,-122.65 2062.94,-128.63"/>
</g>
<!-- 25&#45;&gt;30 -->
<g id="edge15" class="edge">
<title>25&#45;&gt;30</title>
<path fill="none" stroke="black" d="M2270.35,-159.88C2291.27,-147.77 2318.94,-131.77 2338.33,-120.55"/>
<polygon fill="black" stroke="black" points="2340.21,-123.5 2347.12,-115.46 2336.71,-117.44 2340.21,-123.5"/>
</g>
<!-- 38 -->
<g id="node22" class="node">
<title>38</title>
<ellipse fill="#b9d3ee" stroke="black" cx="2578.75" cy="-106" rx="36" ry="18"/>
<text text-anchor="middle" x="2578.75" y="-102.3" font-family="Times,serif" font-size="14.00">398</text>
</g>
<!-- 25&#45;&gt;38 -->
<g id="edge25" class="edge">
<title>25&#45;&gt;38</title>
<path fill="none" stroke="black" d="M2276.92,-169.51C2339.77,-156.49 2468.83,-129.76 2536,-115.85"/>
<polygon fill="black" stroke="black" points="2536.76,-119.27 2545.84,-113.82 2535.34,-112.42 2536.76,-119.27"/>
</g>
<!-- legend_3 -->
<g id="node23" class="node">
<title>legend_3</title>
<polygon fill="#b9d3ee" stroke="black" points="2941.25,-124 2720.25,-124 2720.25,-88 2941.25,-88 2941.25,-124"/>
<text text-anchor="middle" x="2830.75" y="-102.3" font-family="Times,serif" font-size="14.00">DT=5 ST=1 Similarity=0.65</text>
</g>
<!-- legend_2&#45;&gt;legend_3 -->
<g id="edge26" class="edge">
<title>legend_2&#45;&gt;legend_3</title>
<path fill="none" stroke="black" d="M2830.75,-159.7C2830.75,-151.98 2830.75,-142.71 2830.75,-134.11"/>
<polygon fill="black" stroke="black" points="2834.25,-134.1 2830.75,-124.1 2827.25,-134.1 2834.25,-134.1"/>
</g>
<!-- 41 -->
<g id="node25" class="node">
<title>41</title>
<ellipse fill="#b9d3ee" stroke="black" cx="2439.75" cy="-34" rx="16.8" ry="18"/>
<text text-anchor="middle" x="2439.75" y="-30.3" font-family="Times,serif" font-size="14.00">1</text>
</g>
<!-- 30&#45;&gt;41 -->
<g id="edge28" class="edge">
<title>30&#45;&gt;41</title>
<path fill="none" stroke="black" d="M2374.28,-93.75C2386.45,-82.83 2405.12,-66.07 2419.42,-53.24"/>
<polygon fill="black" stroke="black" points="2422.14,-55.5 2427.25,-46.22 2417.47,-50.29 2422.14,-55.5"/>
</g>
<!-- 43 -->
<g id="node27" class="node">
<title>43</title>
<ellipse fill="#b9d3ee" stroke="black" cx="2491.75" cy="-34" rx="16.8" ry="18"/>
<text text-anchor="middle" x="2491.75" y="-30.3" font-family="Times,serif" font-size="14.00">1</text>
</g>
<!-- 30&#45;&gt;43 -->
<g id="edge30" class="edge">
<title>30&#45;&gt;43</title>
<path fill="none" stroke="black" d="M2377.18,-97.78C2397.73,-88.02 2435.06,-69.78 2465.75,-52 2466.88,-51.35 2468.02,-50.66 2469.18,-49.96"/>
<polygon fill="black" stroke="black" points="2471.31,-52.76 2477.89,-44.46 2467.57,-46.84 2471.31,-52.76"/>
</g>
<!-- 415 -->
<g id="node39" class="node">
<title>415</title>
<ellipse fill="#b9d3ee" stroke="black" cx="2335.75" cy="-34" rx="16.8" ry="18"/>
<text text-anchor="middle" x="2335.75" y="-30.3" font-family="Times,serif" font-size="14.00">2</text>
</g>
<!-- 30&#45;&gt;415 -->
<g id="edge42" class="edge">
<title>30&#45;&gt;415</title>
<path fill="none" stroke="black" d="M2355.85,-89.12C2352.73,-80.73 2348.84,-70.24 2345.31,-60.73"/>
<polygon fill="black" stroke="black" points="2348.57,-59.46 2341.8,-51.31 2342.01,-61.9 2348.57,-59.46"/>
</g>
<!-- 419 -->
<g id="node43" class="node">
<title>419</title>
<ellipse fill="#b9d3ee" stroke="black" cx="2387.75" cy="-34" rx="16.8" ry="18"/>
<text text-anchor="middle" x="2387.75" y="-30.3" font-family="Times,serif" font-size="14.00">3</text>
</g>
<!-- 30&#45;&gt;419 -->
<g id="edge46" class="edge">
<title>30&#45;&gt;419</title>
<path fill="none" stroke="black" d="M2367.65,-89.12C2370.76,-80.73 2374.66,-70.24 2378.19,-60.73"/>
<polygon fill="black" stroke="black" points="2381.49,-61.9 2381.69,-51.31 2374.93,-59.46 2381.49,-61.9"/>
</g>
<!-- 45 -->
<g id="node29" class="node">
<title>45</title>
<ellipse fill="#b9d3ee" stroke="black" cx="143.75" cy="-34" rx="16.8" ry="18"/>
<text text-anchor="middle" x="143.75" y="-30.3" font-family="Times,serif" font-size="14.00">1</text>
</g>
<!-- 31&#45;&gt;45 -->
<g id="edge32" class="edge">
<title>31&#45;&gt;45</title>
<path fill="none" stroke="black" d="M231.04,-93.75C213.41,-81.89 185.54,-63.13 166.05,-50.01"/>
<polygon fill="black" stroke="black" points="168,-47.1 157.75,-44.42 164.09,-52.91 168,-47.1"/>
</g>
<!-- 47 -->
<g id="node31" class="node">
<title>47</title>
<ellipse fill="#b9d3ee" stroke="black" cx="195.75" cy="-34" rx="16.8" ry="18"/>
<text text-anchor="middle" x="195.75" y="-30.3" font-family="Times,serif" font-size="14.00">1</text>
</g>
<!-- 31&#45;&gt;47 -->
<g id="edge34" class="edge">
<title>31&#45;&gt;47</title>
<path fill="none" stroke="black" d="M236.72,-90.15C229.57,-80.53 220.13,-67.82 212.11,-57.02"/>
<polygon fill="black" stroke="black" points="214.83,-54.81 206.05,-48.87 209.21,-58.99 214.83,-54.81"/>
</g>
<!-- 417 -->
<g id="node41" class="node">
<title>417</title>
<ellipse fill="#b9d3ee" stroke="black" cx="247.75" cy="-34" rx="16.8" ry="18"/>
<text text-anchor="middle" x="247.75" y="-30.3" font-family="Times,serif" font-size="14.00">2</text>
</g>
<!-- 31&#45;&gt;417 -->
<g id="edge44" class="edge">
<title>31&#45;&gt;417</title>
<path fill="none" stroke="black" d="M247.75,-87.7C247.75,-79.98 247.75,-70.71 247.75,-62.11"/>
<polygon fill="black" stroke="black" points="251.25,-62.1 247.75,-52.1 244.25,-62.1 251.25,-62.1"/>
</g>
<!-- 422 -->
<g id="node46" class="node">
<title>422</title>
<ellipse fill="#b9d3ee" stroke="black" cx="299.75" cy="-34" rx="16.8" ry="18"/>
<text text-anchor="middle" x="299.75" y="-30.3" font-family="Times,serif" font-size="14.00">5</text>
</g>
<!-- 31&#45;&gt;422 -->
<g id="edge49" class="edge">
<title>31&#45;&gt;422</title>
<path fill="none" stroke="black" d="M258.78,-90.15C265.93,-80.53 275.37,-67.82 283.39,-57.02"/>
<polygon fill="black" stroke="black" points="286.29,-58.99 289.44,-48.87 280.67,-54.81 286.29,-58.99"/>
</g>
<!-- 426 -->
<g id="node50" class="node">
<title>426</title>
<ellipse fill="#b9d3ee" stroke="black" cx="351.75" cy="-34" rx="16.8" ry="18"/>
<text text-anchor="middle" x="351.75" y="-30.3" font-family="Times,serif" font-size="14.00">6</text>
</g>
<!-- 31&#45;&gt;426 -->
<g id="edge53" class="edge">
<title>31&#45;&gt;426</title>
<path fill="none" stroke="black" d="M264.46,-93.75C282.08,-81.89 309.95,-63.13 329.45,-50.01"/>
<polygon fill="black" stroke="black" points="331.41,-52.91 337.75,-44.42 327.5,-47.1 331.41,-52.91"/>
</g>
<!-- 427 -->
<g id="node51" class="node">
<title>427</title>
<ellipse fill="#b9d3ee" stroke="black" cx="403.75" cy="-34" rx="16.8" ry="18"/>
<text text-anchor="middle" x="403.75" y="-30.3" font-family="Times,serif" font-size="14.00">7</text>
</g>
<!-- 31&#45;&gt;427 -->
<g id="edge54" class="edge">
<title>31&#45;&gt;427</title>
<path fill="none" stroke="black" d="M268.56,-97.92C294.7,-88.7 340.62,-71.47 377.75,-52 378.9,-51.39 380.07,-50.75 381.24,-50.08"/>
<polygon fill="black" stroke="black" points="383.33,-52.91 390.01,-44.68 379.66,-46.95 383.33,-52.91"/>
</g>
<!-- 430 -->
<g id="node54" class="node">
<title>430</title>
<ellipse fill="#b9d3ee" stroke="black" cx="22.75" cy="-34" rx="23" ry="18"/>
<text text-anchor="middle" x="22.75" y="-30.3" font-family="Times,serif" font-size="14.00">10</text>
</g>
<!-- 31&#45;&gt;430 -->
<g id="edge57" class="edge">
<title>31&#45;&gt;430</title>
<path fill="none" stroke="black" d="M225.96,-100.8C189.49,-93.38 114.12,-76.4 53.75,-52 52.36,-51.44 50.96,-50.83 49.55,-50.19"/>
<polygon fill="black" stroke="black" points="50.94,-46.97 40.43,-45.62 47.81,-53.23 50.94,-46.97"/>
</g>
<!-- 435 -->
<g id="node59" class="node">
<title>435</title>
<ellipse fill="#b9d3ee" stroke="black" cx="85.75" cy="-34" rx="23" ry="18"/>
<text text-anchor="middle" x="85.75" y="-30.3" font-family="Times,serif" font-size="14.00">17</text>
</g>
<!-- 31&#45;&gt;435 -->
<g id="edge62" class="edge">
<title>31&#45;&gt;435</title>
<path fill="none" stroke="black" d="M227.66,-97.54C201.88,-87.79 155.94,-69.87 117.75,-52 116.18,-51.27 114.58,-50.49 112.97,-49.7"/>
<polygon fill="black" stroke="black" points="114.36,-46.48 103.86,-45.03 111.17,-52.71 114.36,-46.48"/>
</g>
<!-- 42 -->
<g id="node26" class="node">
<title>42</title>
<ellipse fill="#b9d3ee" stroke="black" cx="1806.75" cy="-34" rx="16.8" ry="18"/>
<text text-anchor="middle" x="1806.75" y="-30.3" font-family="Times,serif" font-size="14.00">1</text>
</g>
<!-- 32&#45;&gt;42 -->
<g id="edge29" class="edge">
<title>32&#45;&gt;42</title>
<path fill="none" stroke="black" d="M1806.75,-87.7C1806.75,-79.98 1806.75,-70.71 1806.75,-62.11"/>
<polygon fill="black" stroke="black" points="1810.25,-62.1 1806.75,-52.1 1803.25,-62.1 1810.25,-62.1"/>
</g>
<!-- 425 -->
<g id="node49" class="node">
<title>425</title>
<ellipse fill="#b9d3ee" stroke="black" cx="1858.75" cy="-34" rx="16.8" ry="18"/>
<text text-anchor="middle" x="1858.75" y="-30.3" font-family="Times,serif" font-size="14.00">6</text>
</g>
<!-- 32&#45;&gt;425 -->
<g id="edge52" class="edge">
<title>32&#45;&gt;425</title>
<path fill="none" stroke="black" d="M1817.78,-90.15C1824.93,-80.53 1834.37,-67.82 1842.39,-57.02"/>
<polygon fill="black" stroke="black" points="1845.29,-58.99 1848.44,-48.87 1839.67,-54.81 1845.29,-58.99"/>
</g>
<!-- 431 -->
<g id="node55" class="node">
<title>431</title>
<ellipse fill="#b9d3ee" stroke="black" cx="1685.75" cy="-34" rx="23" ry="18"/>
<text text-anchor="middle" x="1685.75" y="-30.3" font-family="Times,serif" font-size="14.00">11</text>
</g>
<!-- 32&#45;&gt;431 -->
<g id="edge58" class="edge">
<title>32&#45;&gt;431</title>
<path fill="none" stroke="black" d="M1788.89,-94.67C1768.7,-82.99 1735.6,-63.84 1712.36,-50.39"/>
<polygon fill="black" stroke="black" points="1714.08,-47.35 1703.68,-45.37 1710.58,-53.41 1714.08,-47.35"/>
</g>
<!-- 437 -->
<g id="node61" class="node">
<title>437</title>
<ellipse fill="#b9d3ee" stroke="black" cx="1748.75" cy="-34" rx="23" ry="18"/>
<text text-anchor="middle" x="1748.75" y="-30.3" font-family="Times,serif" font-size="14.00">33</text>
</g>
<!-- 32&#45;&gt;437 -->
<g id="edge64" class="edge">
<title>32&#45;&gt;437</title>
<path fill="none" stroke="black" d="M1794.73,-90.5C1786.8,-80.92 1776.25,-68.19 1767.26,-57.34"/>
<polygon fill="black" stroke="black" points="1769.83,-54.95 1760.75,-49.49 1764.44,-59.42 1769.83,-54.95"/>
</g>
<!-- 44 -->
<g id="node28" class="node">
<title>44</title>
<ellipse fill="#b9d3ee" stroke="black" cx="1473.75" cy="-34" rx="16.8" ry="18"/>
<text text-anchor="middle" x="1473.75" y="-30.3" font-family="Times,serif" font-size="14.00">1</text>
</g>
<!-- 33&#45;&gt;44 -->
<g id="edge31" class="edge">
<title>33&#45;&gt;44</title>
<path fill="none" stroke="black" d="M1375.83,-94.69C1394.11,-84.18 1423.1,-67.3 1447.75,-52 1448.86,-51.31 1449.99,-50.6 1451.13,-49.88"/>
<polygon fill="black" stroke="black" points="1453.28,-52.66 1459.79,-44.3 1449.49,-46.77 1453.28,-52.66"/>
</g>
<!-- 411 -->
<g id="node35" class="node">
<title>411</title>
<ellipse fill="#b9d3ee" stroke="black" cx="1253.75" cy="-34" rx="16.8" ry="18"/>
<text text-anchor="middle" x="1253.75" y="-30.3" font-family="Times,serif" font-size="14.00">1</text>
</g>
<!-- 33&#45;&gt;411 -->
<g id="edge38" class="edge">
<title>33&#45;&gt;411</title>
<path fill="none" stroke="black" d="M1341.04,-93.75C1323.41,-81.89 1295.54,-63.13 1276.05,-50.01"/>
<polygon fill="black" stroke="black" points="1278,-47.1 1267.75,-44.42 1274.09,-52.91 1278,-47.1"/>
</g>
<!-- 416 -->
<g id="node40" class="node">
<title>416</title>
<ellipse fill="#b9d3ee" stroke="black" cx="1305.75" cy="-34" rx="16.8" ry="18"/>
<text text-anchor="middle" x="1305.75" y="-30.3" font-family="Times,serif" font-size="14.00">2</text>
</g>
<!-- 33&#45;&gt;416 -->
<g id="edge43" class="edge">
<title>33&#45;&gt;416</title>
<path fill="none" stroke="black" d="M1346.72,-90.15C1339.57,-80.53 1330.13,-67.82 1322.11,-57.02"/>
<polygon fill="black" stroke="black" points="1324.83,-54.81 1316.05,-48.87 1319.21,-58.99 1324.83,-54.81"/>
</g>
<!-- 428 -->
<g id="node52" class="node">
<title>428</title>
<ellipse fill="#b9d3ee" stroke="black" cx="1357.75" cy="-34" rx="16.8" ry="18"/>
<text text-anchor="middle" x="1357.75" y="-30.3" font-family="Times,serif" font-size="14.00">9</text>
</g>
<!-- 33&#45;&gt;428 -->
<g id="edge55" class="edge">
<title>33&#45;&gt;428</title>
<path fill="none" stroke="black" d="M1357.75,-87.7C1357.75,-79.98 1357.75,-70.71 1357.75,-62.11"/>
<polygon fill="black" stroke="black" points="1361.25,-62.1 1357.75,-52.1 1354.25,-62.1 1361.25,-62.1"/>
</g>
<!-- 440 -->
<g id="node64" class="node">
<title>440</title>
<ellipse fill="#b9d3ee" stroke="black" cx="1415.75" cy="-34" rx="23" ry="18"/>
<text text-anchor="middle" x="1415.75" y="-30.3" font-family="Times,serif" font-size="14.00">66</text>
</g>
<!-- 33&#45;&gt;440 -->
<g id="edge67" class="edge">
<title>33&#45;&gt;440</title>
<path fill="none" stroke="black" d="M1369.77,-90.5C1377.7,-80.92 1388.25,-68.19 1397.24,-57.34"/>
<polygon fill="black" stroke="black" points="1400.06,-59.42 1403.75,-49.49 1394.67,-54.95 1400.06,-59.42"/>
</g>
<!-- 420 -->
<g id="node44" class="node">
<title>420</title>
<ellipse fill="#b9d3ee" stroke="black" cx="1137.75" cy="-34" rx="16.8" ry="18"/>
<text text-anchor="middle" x="1137.75" y="-30.3" font-family="Times,serif" font-size="14.00">4</text>
</g>
<!-- 34&#45;&gt;420 -->
<g id="edge47" class="edge">
<title>34&#45;&gt;420</title>
<path fill="none" stroke="black" d="M1159.73,-88.05C1156.28,-79.73 1152.06,-69.54 1148.24,-60.32"/>
<polygon fill="black" stroke="black" points="1151.37,-58.73 1144.31,-50.83 1144.9,-61.41 1151.37,-58.73"/>
</g>
<!-- 432 -->
<g id="node56" class="node">
<title>432</title>
<ellipse fill="#b9d3ee" stroke="black" cx="1195.75" cy="-34" rx="23" ry="18"/>
<text text-anchor="middle" x="1195.75" y="-30.3" font-family="Times,serif" font-size="14.00">12</text>
</g>
<!-- 34&#45;&gt;432 -->
<g id="edge59" class="edge">
<title>34&#45;&gt;432</title>
<path fill="none" stroke="black" d="M1173.77,-88.05C1177.17,-79.85 1181.32,-69.83 1185.09,-60.71"/>
<polygon fill="black" stroke="black" points="1188.4,-61.89 1188.99,-51.31 1181.93,-59.21 1188.4,-61.89"/>
</g>
<!-- 441 -->
<g id="node65" class="node">
<title>441</title>
<ellipse fill="#b9d3ee" stroke="black" cx="1066.75" cy="-34" rx="36" ry="18"/>
<text text-anchor="middle" x="1066.75" y="-30.3" font-family="Times,serif" font-size="14.00">261</text>
</g>
<!-- 34&#45;&gt;441 -->
<g id="edge68" class="edge">
<title>34&#45;&gt;441</title>
<path fill="none" stroke="black" d="M1146.51,-90.83C1131.87,-80.59 1111.88,-66.59 1095.58,-55.18"/>
<polygon fill="black" stroke="black" points="1097.15,-52.01 1086.95,-49.14 1093.14,-57.75 1097.15,-52.01"/>
</g>
<!-- 46 -->
<g id="node30" class="node">
<title>46</title>
<ellipse fill="#b9d3ee" stroke="black" cx="735.75" cy="-34" rx="16.8" ry="18"/>
<text text-anchor="middle" x="735.75" y="-30.3" font-family="Times,serif" font-size="14.00">1</text>
</g>
<!-- 35&#45;&gt;46 -->
<g id="edge33" class="edge">
<title>35&#45;&gt;46</title>
<path fill="none" stroke="black" d="M775.69,-88.76C768.66,-79.3 759.69,-67.23 752.04,-56.93"/>
<polygon fill="black" stroke="black" points="754.76,-54.73 745.99,-48.79 749.14,-58.9 754.76,-54.73"/>
</g>
<!-- 410 -->
<g id="node34" class="node">
<title>410</title>
<ellipse fill="#b9d3ee" stroke="black" cx="787.75" cy="-34" rx="16.8" ry="18"/>
<text text-anchor="middle" x="787.75" y="-30.3" font-family="Times,serif" font-size="14.00">1</text>
</g>
<!-- 35&#45;&gt;410 -->
<g id="edge37" class="edge">
<title>35&#45;&gt;410</title>
<path fill="none" stroke="black" d="M787.75,-87.7C787.75,-79.98 787.75,-70.71 787.75,-62.11"/>
<polygon fill="black" stroke="black" points="791.25,-62.1 787.75,-52.1 784.25,-62.1 791.25,-62.1"/>
</g>
<!-- 412 -->
<g id="node36" class="node">
<title>412</title>
<ellipse fill="#b9d3ee" stroke="black" cx="839.75" cy="-34" rx="16.8" ry="18"/>
<text text-anchor="middle" x="839.75" y="-30.3" font-family="Times,serif" font-size="14.00">1</text>
</g>
<!-- 35&#45;&gt;412 -->
<g id="edge39" class="edge">
<title>35&#45;&gt;412</title>
<path fill="none" stroke="black" d="M799.81,-88.76C806.84,-79.3 815.8,-67.23 823.46,-56.93"/>
<polygon fill="black" stroke="black" points="826.35,-58.9 829.51,-48.79 820.73,-54.73 826.35,-58.9"/>
</g>
<!-- 421 -->
<g id="node45" class="node">
<title>421</title>
<ellipse fill="#b9d3ee" stroke="black" cx="891.75" cy="-34" rx="16.8" ry="18"/>
<text text-anchor="middle" x="891.75" y="-30.3" font-family="Times,serif" font-size="14.00">5</text>
</g>
<!-- 35&#45;&gt;421 -->
<g id="edge48" class="edge">
<title>35&#45;&gt;421</title>
<path fill="none" stroke="black" d="M808.3,-91.17C825.84,-79.36 851.03,-62.41 869.14,-50.22"/>
<polygon fill="black" stroke="black" points="871.55,-52.82 877.89,-44.33 867.64,-47.01 871.55,-52.82"/>
</g>
<!-- 423 -->
<g id="node47" class="node">
<title>423</title>
<ellipse fill="#b9d3ee" stroke="black" cx="943.75" cy="-34" rx="16.8" ry="18"/>
<text text-anchor="middle" x="943.75" y="-30.3" font-family="Times,serif" font-size="14.00">6</text>
</g>
<!-- 35&#45;&gt;423 -->
<g id="edge50" class="edge">
<title>35&#45;&gt;423</title>
<path fill="none" stroke="black" d="M816.61,-95.05C843.43,-85.38 884.19,-69.61 917.75,-52 918.9,-51.39 920.07,-50.75 921.24,-50.08"/>
<polygon fill="black" stroke="black" points="923.33,-52.91 930.01,-44.68 919.66,-46.95 923.33,-52.91"/>
</g>
<!-- 424 -->
<g id="node48" class="node">
<title>424</title>
<ellipse fill="#b9d3ee" stroke="black" cx="995.75" cy="-34" rx="16.8" ry="18"/>
<text text-anchor="middle" x="995.75" y="-30.3" font-family="Times,serif" font-size="14.00">6</text>
</g>
<!-- 35&#45;&gt;424 -->
<g id="edge51" class="edge">
<title>35&#45;&gt;424</title>
<path fill="none" stroke="black" d="M820.68,-98.49C857.95,-90.43 919.97,-74.9 969.75,-52 970.93,-51.45 972.13,-50.86 973.32,-50.23"/>
<polygon fill="black" stroke="black" points="975.35,-53.09 982.15,-44.97 971.77,-47.08 975.35,-53.09"/>
</g>
<!-- 429 -->
<g id="node53" class="node">
<title>429</title>
<ellipse fill="#b9d3ee" stroke="black" cx="461.75" cy="-34" rx="23" ry="18"/>
<text text-anchor="middle" x="461.75" y="-30.3" font-family="Times,serif" font-size="14.00">10</text>
</g>
<!-- 35&#45;&gt;429 -->
<g id="edge56" class="edge">
<title>35&#45;&gt;429</title>
<path fill="none" stroke="black" d="M752.29,-102.35C695.92,-97.32 583.02,-83.9 492.75,-52 491.34,-51.5 489.91,-50.94 488.49,-50.34"/>
<polygon fill="black" stroke="black" points="489.85,-47.11 479.32,-45.91 486.8,-53.41 489.85,-47.11"/>
</g>
<!-- 434 -->
<g id="node58" class="node">
<title>434</title>
<ellipse fill="#b9d3ee" stroke="black" cx="524.75" cy="-34" rx="23" ry="18"/>
<text text-anchor="middle" x="524.75" y="-30.3" font-family="Times,serif" font-size="14.00">16</text>
</g>
<!-- 35&#45;&gt;434 -->
<g id="edge61" class="edge">
<title>35&#45;&gt;434</title>
<path fill="none" stroke="black" d="M753.46,-100.21C707.41,-93.1 623.53,-77.75 555.75,-52 554.35,-51.47 552.94,-50.88 551.52,-50.26"/>
<polygon fill="black" stroke="black" points="552.89,-47.04 542.38,-45.76 549.8,-53.32 552.89,-47.04"/>
</g>
<!-- 436 -->
<g id="node60" class="node">
<title>436</title>
<ellipse fill="#b9d3ee" stroke="black" cx="587.75" cy="-34" rx="23" ry="18"/>
<text text-anchor="middle" x="587.75" y="-30.3" font-family="Times,serif" font-size="14.00">26</text>
</g>
<!-- 35&#45;&gt;436 -->
<g id="edge63" class="edge">
<title>35&#45;&gt;436</title>
<path fill="none" stroke="black" d="M756.49,-96.98C722.28,-87.79 666.15,-71.45 619.75,-52 618.15,-51.33 616.53,-50.61 614.91,-49.86"/>
<polygon fill="black" stroke="black" points="616.26,-46.62 605.74,-45.3 613.14,-52.89 616.26,-46.62"/>
</g>
<!-- 443 -->
<g id="node67" class="node">
<title>443</title>
<ellipse fill="#b9d3ee" stroke="black" cx="664.75" cy="-34" rx="36" ry="18"/>
<text text-anchor="middle" x="664.75" y="-30.3" font-family="Times,serif" font-size="14.00">315</text>
</g>
<!-- 35&#45;&gt;443 -->
<g id="edge70" class="edge">
<title>35&#45;&gt;443</title>
<path fill="none" stroke="black" d="M764.9,-92C745.69,-81.07 718.02,-65.32 696.63,-53.14"/>
<polygon fill="black" stroke="black" points="698.31,-50.07 687.89,-48.17 694.85,-56.16 698.31,-50.07"/>
</g>
<!-- 48 -->
<g id="node32" class="node">
<title>48</title>
<ellipse fill="#b9d3ee" stroke="black" cx="2127.75" cy="-34" rx="16.8" ry="18"/>
<text text-anchor="middle" x="2127.75" y="-30.3" font-family="Times,serif" font-size="14.00">1</text>
</g>
<!-- 36&#45;&gt;48 -->
<g id="edge35" class="edge">
<title>36&#45;&gt;48</title>
<path fill="none" stroke="black" d="M2100.28,-88.41C2104.77,-79.68 2110.36,-68.81 2115.32,-59.16"/>
<polygon fill="black" stroke="black" points="2118.55,-60.53 2120.01,-50.04 2112.33,-57.33 2118.55,-60.53"/>
</g>
<!-- 49 -->
<g id="node33" class="node">
<title>49</title>
<ellipse fill="#b9d3ee" stroke="black" cx="2179.75" cy="-34" rx="16.8" ry="18"/>
<text text-anchor="middle" x="2179.75" y="-30.3" font-family="Times,serif" font-size="14.00">1</text>
</g>
<!-- 36&#45;&gt;49 -->
<g id="edge36" class="edge">
<title>36&#45;&gt;49</title>
<path fill="none" stroke="black" d="M2110.41,-90.15C2124.5,-78.95 2143.84,-63.56 2158.52,-51.89"/>
<polygon fill="black" stroke="black" points="2160.9,-54.47 2166.54,-45.5 2156.54,-48.99 2160.9,-54.47"/>
</g>
<!-- 413 -->
<g id="node37" class="node">
<title>413</title>
<ellipse fill="#b9d3ee" stroke="black" cx="2231.75" cy="-34" rx="16.8" ry="18"/>
<text text-anchor="middle" x="2231.75" y="-30.3" font-family="Times,serif" font-size="14.00">1</text>
</g>
<!-- 36&#45;&gt;413 -->
<g id="edge40" class="edge">
<title>36&#45;&gt;413</title>
<path fill="none" stroke="black" d="M2118.55,-93.84C2142,-83.78 2176.75,-68.11 2205.75,-52 2206.89,-51.37 2208.05,-50.7 2209.21,-50.01"/>
<polygon fill="black" stroke="black" points="2211.32,-52.82 2217.94,-44.55 2207.61,-46.89 2211.32,-52.82"/>
</g>
<!-- 414 -->
<g id="node38" class="node">
<title>414</title>
<ellipse fill="#b9d3ee" stroke="black" cx="2283.75" cy="-34" rx="16.8" ry="18"/>
<text text-anchor="middle" x="2283.75" y="-30.3" font-family="Times,serif" font-size="14.00">1</text>
</g>
<!-- 36&#45;&gt;414 -->
<g id="edge41" class="edge">
<title>36&#45;&gt;414</title>
<path fill="none" stroke="black" d="M2123.61,-97.56C2157.76,-88.98 2213.08,-73.25 2257.75,-52 2258.93,-51.44 2260.11,-50.83 2261.3,-50.19"/>
<polygon fill="black" stroke="black" points="2263.35,-53.05 2270.12,-44.9 2259.75,-47.04 2263.35,-53.05"/>
</g>
<!-- 438 -->
<g id="node62" class="node">
<title>438</title>
<ellipse fill="#b9d3ee" stroke="black" cx="1916.75" cy="-34" rx="23" ry="18"/>
<text text-anchor="middle" x="1916.75" y="-30.3" font-family="Times,serif" font-size="14.00">39</text>
</g>
<!-- 36&#45;&gt;438 -->
<g id="edge65" class="edge">
<title>36&#45;&gt;438</title>
<path fill="none" stroke="black" d="M2062.27,-95.59C2032.8,-85.84 1986.42,-69.6 1947.75,-52 1946.39,-51.38 1945,-50.72 1943.61,-50.04"/>
<polygon fill="black" stroke="black" points="1945.04,-46.84 1934.55,-45.35 1941.82,-53.06 1945.04,-46.84"/>
</g>
<!-- 439 -->
<g id="node63" class="node">
<title>439</title>
<ellipse fill="#b9d3ee" stroke="black" cx="1979.75" cy="-34" rx="23" ry="18"/>
<text text-anchor="middle" x="1979.75" y="-30.3" font-family="Times,serif" font-size="14.00">44</text>
</g>
<!-- 36&#45;&gt;439 -->
<g id="edge66" class="edge">
<title>36&#45;&gt;439</title>
<path fill="none" stroke="black" d="M2070.15,-91.5C2051.82,-80.05 2025.47,-63.58 2005.94,-51.37"/>
<polygon fill="black" stroke="black" points="2007.57,-48.26 1997.23,-45.93 2003.86,-54.2 2007.57,-48.26"/>
</g>
<!-- 442 -->
<g id="node66" class="node">
<title>442</title>
<ellipse fill="#b9d3ee" stroke="black" cx="2056.75" cy="-34" rx="36" ry="18"/>
<text text-anchor="middle" x="2056.75" y="-30.3" font-family="Times,serif" font-size="14.00">307</text>
</g>
<!-- 36&#45;&gt;442 -->
<g id="edge69" class="edge">
<title>36&#45;&gt;442</title>
<path fill="none" stroke="black" d="M2083.45,-88.41C2079.37,-80.25 2074.36,-70.22 2069.78,-61.07"/>
<polygon fill="black" stroke="black" points="2072.83,-59.34 2065.23,-51.96 2066.57,-62.47 2072.83,-59.34"/>
</g>
<!-- 433 -->
<g id="node57" class="node">
<title>433</title>
<ellipse fill="#b9d3ee" stroke="black" cx="1531.75" cy="-34" rx="23" ry="18"/>
<text text-anchor="middle" x="1531.75" y="-30.3" font-family="Times,serif" font-size="14.00">16</text>
</g>
<!-- 37&#45;&gt;433 -->
<g id="edge60" class="edge">
<title>37&#45;&gt;433</title>
<path fill="none" stroke="black" d="M1561.51,-88.41C1556.78,-79.92 1550.92,-69.41 1545.66,-59.96"/>
<polygon fill="black" stroke="black" points="1548.58,-58.02 1540.66,-50.99 1542.47,-61.43 1548.58,-58.02"/>
</g>
<!-- 444 -->
<g id="node68" class="node">
<title>444</title>
<ellipse fill="#b9d3ee" stroke="black" cx="1608.75" cy="-34" rx="36" ry="18"/>
<text text-anchor="middle" x="1608.75" y="-30.3" font-family="Times,serif" font-size="14.00">342</text>
</g>
<!-- 37&#45;&gt;444 -->
<g id="edge71" class="edge">
<title>37&#45;&gt;444</title>
<path fill="none" stroke="black" d="M1579.75,-88.41C1584.3,-80.04 1589.91,-69.71 1594.98,-60.37"/>
<polygon fill="black" stroke="black" points="1598.11,-61.93 1599.81,-51.47 1591.96,-58.59 1598.11,-61.93"/>
</g>
<!-- 40 -->
<g id="node24" class="node">
<title>40</title>
<ellipse fill="#b9d3ee" stroke="black" cx="2685.75" cy="-34" rx="16.8" ry="18"/>
<text text-anchor="middle" x="2685.75" y="-30.3" font-family="Times,serif" font-size="14.00">1</text>
</g>
<!-- 38&#45;&gt;40 -->
<g id="edge27" class="edge">
<title>38&#45;&gt;40</title>
<path fill="none" stroke="black" d="M2599.63,-91.34C2617.93,-79.37 2644.45,-62.02 2663.21,-49.74"/>
<polygon fill="black" stroke="black" points="2665.28,-52.57 2671.73,-44.17 2661.45,-46.71 2665.28,-52.57"/>
</g>
<!-- 418 -->
<g id="node42" class="node">
<title>418</title>
<ellipse fill="#b9d3ee" stroke="black" cx="2543.75" cy="-34" rx="16.8" ry="18"/>
<text text-anchor="middle" x="2543.75" y="-30.3" font-family="Times,serif" font-size="14.00">2</text>
</g>
<!-- 38&#45;&gt;418 -->
<g id="edge45" class="edge">
<title>38&#45;&gt;418</title>
<path fill="none" stroke="black" d="M2570.45,-88.41C2566.15,-79.8 2560.8,-69.11 2556.03,-59.56"/>
<polygon fill="black" stroke="black" points="2559.11,-57.89 2551.5,-50.51 2552.85,-61.02 2559.11,-57.89"/>
</g>
<!-- 445 -->
<g id="node69" class="node">
<title>445</title>
<ellipse fill="#b9d3ee" stroke="black" cx="2614.75" cy="-34" rx="36" ry="18"/>
<text text-anchor="middle" x="2614.75" y="-30.3" font-family="Times,serif" font-size="14.00">395</text>
</g>
<!-- 38&#45;&gt;445 -->
<g id="edge72" class="edge">
<title>38&#45;&gt;445</title>
<path fill="none" stroke="black" d="M2587.28,-88.41C2591.48,-80.25 2596.63,-70.22 2601.34,-61.07"/>
<polygon fill="black" stroke="black" points="2604.57,-62.45 2606.03,-51.96 2598.34,-59.25 2604.57,-62.45"/>
</g>
<!-- legend_4 -->
<g id="node70" class="node">
<title>legend_4</title>
<polygon fill="#b9d3ee" stroke="black" points="2941.25,-52 2720.25,-52 2720.25,-16 2941.25,-16 2941.25,-52"/>
<text text-anchor="middle" x="2830.75" y="-30.3" font-family="Times,serif" font-size="14.00">DT=6 ST=1 Similarity=0.57</text>
</g>
<!-- legend_3&#45;&gt;legend_4 -->
<g id="edge73" class="edge">
<title>legend_3&#45;&gt;legend_4</title>
<path fill="none" stroke="black" d="M2830.75,-87.7C2830.75,-79.98 2830.75,-70.71 2830.75,-62.11"/>
<polygon fill="black" stroke="black" points="2834.25,-62.1 2830.75,-52.1 2827.25,-62.1 2834.25,-62.1"/>
</g>
</g>
</svg>
