<?xml version="1.0" encoding="UTF-8" standalone="no"?>
<!DOCTYPE svg PUBLIC "-//W3C//DTD SVG 1.1//EN"
 "http://www.w3.org/Graphics/SVG/1.1/DTD/svg11.dtd">
<!-- Generated by graphviz version 2.43.0 (0)
 -->
<!-- Title: %3 Pages: 1 -->
<svg width="3054pt" height="281pt"
 viewBox="0.00 0.00 3053.90 281.00" xmlns="http://www.w3.org/2000/svg" xmlns:xlink="http://www.w3.org/1999/xlink">
<g id="graph0" class="graph" transform="scale(1 1) rotate(0) translate(4 277)">
<title>%3</title>
<polygon fill="white" stroke="transparent" points="-4,4 -4,-277 3049.9,-277 3049.9,4 -4,4"/>
<text text-anchor="middle" x="1522.95" y="-257.8" font-family="Times,serif" font-size="14.00">ConsTree</text>
<text text-anchor="middle" x="1522.95" y="-242.8" font-family="Times,serif" font-size="14.00">Tree Quality = 0.5</text>
<g id="clust1" class="cluster">
<title>cluster</title>
<polygon fill="none" stroke="black" points="2801.9,-8 2801.9,-227 3037.9,-227 3037.9,-8 2801.9,-8"/>
<text text-anchor="middle" x="2919.9" y="-211.8" font-family="Times,serif" font-size="14.00">Legend</text>
</g>
<!-- 00 -->
<g id="node1" class="node">
<title>00</title>
<ellipse fill="#b9d3ee" stroke="black" cx="1550.9" cy="-178" rx="324" ry="18"/>
<text text-anchor="middle" x="1550.9" y="-174.3" font-family="Times,serif" font-size="14.00">2000</text>
</g>
<!-- 10 -->
<g id="node3" class="node">
<title>10</title>
<polygon fill="darkseagreen" stroke="black" points="216.4,-124 181.4,-124 181.4,-88 216.4,-88 216.4,-124"/>
<text text-anchor="middle" x="198.9" y="-102.3" font-family="Times,serif" font-size="14.00">67</text>
</g>
<!-- 00&#45;&gt;10 -->
<g id="edge1" class="edge">
<title>00&#45;&gt;10</title>
<path fill="none" stroke="black" d="M1322.7,-165.18C981.89,-147.54 365.1,-115.6 226.88,-108.45"/>
<polygon fill="black" stroke="black" points="226.89,-104.94 216.72,-107.92 226.53,-111.94 226.89,-104.94"/>
</g>
<!-- 11 -->
<g id="node4" class="node">
<title>11</title>
<polygon fill="darkseagreen" stroke="black" points="953.9,-124 737.9,-124 737.9,-88 953.9,-88 953.9,-124"/>
<text text-anchor="middle" x="845.9" y="-102.3" font-family="Times,serif" font-size="14.00">770</text>
</g>
<!-- 00&#45;&gt;11 -->
<g id="edge2" class="edge">
<title>00&#45;&gt;11</title>
<path fill="none" stroke="black" d="M1400.09,-162.03C1269.8,-149.09 1084.1,-130.65 964.28,-118.75"/>
<polygon fill="black" stroke="black" points="964.27,-115.24 953.97,-117.73 963.58,-122.2 964.27,-115.24"/>
</g>
<!-- 12 -->
<g id="node5" class="node">
<title>12</title>
<polygon fill="darkseagreen" stroke="black" points="1586.9,-124 1514.9,-124 1514.9,-88 1586.9,-88 1586.9,-124"/>
<text text-anchor="middle" x="1550.9" y="-102.3" font-family="Times,serif" font-size="14.00">358</text>
</g>
<!-- 00&#45;&gt;12 -->
<g id="edge3" class="edge">
<title>00&#45;&gt;12</title>
<path fill="none" stroke="black" d="M1550.9,-159.7C1550.9,-151.98 1550.9,-142.71 1550.9,-134.11"/>
<polygon fill="black" stroke="black" points="1554.4,-134.1 1550.9,-124.1 1547.4,-134.1 1554.4,-134.1"/>
</g>
<!-- 13 -->
<g id="node6" class="node">
<title>13</title>
<polygon fill="darkseagreen" stroke="black" points="1965.9,-124 1893.9,-124 1893.9,-88 1965.9,-88 1965.9,-124"/>
<text text-anchor="middle" x="1929.9" y="-102.3" font-family="Times,serif" font-size="14.00">399</text>
</g>
<!-- 00&#45;&gt;13 -->
<g id="edge4" class="edge">
<title>00&#45;&gt;13</title>
<path fill="none" stroke="black" d="M1639.28,-160.68C1715.58,-146.58 1822.81,-126.78 1883.41,-115.59"/>
<polygon fill="black" stroke="black" points="1884.24,-118.99 1893.44,-113.73 1882.97,-112.11 1884.24,-118.99"/>
</g>
<!-- 14 -->
<g id="node7" class="node">
<title>14</title>
<polygon fill="darkseagreen" stroke="black" points="2473.9,-124 2401.9,-124 2401.9,-88 2473.9,-88 2473.9,-124"/>
<text text-anchor="middle" x="2437.9" y="-102.3" font-family="Times,serif" font-size="14.00">406</text>
</g>
<!-- 00&#45;&gt;14 -->
<g id="edge5" class="edge">
<title>00&#45;&gt;14</title>
<path fill="none" stroke="black" d="M1729.06,-162.94C1937.7,-146.47 2270.22,-120.23 2391.61,-110.65"/>
<polygon fill="black" stroke="black" points="2391.99,-114.13 2401.68,-109.86 2391.44,-107.16 2391.99,-114.13"/>
</g>
<!-- legend_0 -->
<g id="node2" class="node">
<title>legend_0</title>
<polygon fill="#b9d3ee" stroke="black" points="3030.4,-196 2809.4,-196 2809.4,-160 3030.4,-160 3030.4,-196"/>
<text text-anchor="middle" x="2919.9" y="-174.3" font-family="Times,serif" font-size="14.00">DT=4 ST=4 Similarity=0.28</text>
</g>
<!-- legend_1 -->
<g id="node8" class="node">
<title>legend_1</title>
<polygon fill="darkseagreen" stroke="black" points="3030.4,-124 2809.4,-124 2809.4,-88 3030.4,-88 3030.4,-124"/>
<text text-anchor="middle" x="2919.9" y="-102.3" font-family="Times,serif" font-size="14.00">DT=5 ST=1 Similarity=0.54</text>
</g>
<!-- legend_0&#45;&gt;legend_1 -->
<g id="edge6" class="edge">
<title>legend_0&#45;&gt;legend_1</title>
<path fill="none" stroke="black" d="M2919.9,-159.7C2919.9,-151.98 2919.9,-142.71 2919.9,-134.11"/>
<polygon fill="black" stroke="black" points="2923.4,-134.1 2919.9,-124.1 2916.4,-134.1 2923.4,-134.1"/>
</g>
<!-- 20 -->
<g id="node9" class="node">
<title>20</title>
<ellipse fill="#b9d3ee" stroke="black" cx="16.9" cy="-34" rx="16.8" ry="18"/>
<text text-anchor="middle" x="16.9" y="-30.3" font-family="Times,serif" font-size="14.00">1</text>
</g>
<!-- 10&#45;&gt;20 -->
<g id="edge7" class="edge">
<title>10&#45;&gt;20</title>
<path fill="none" stroke="black" d="M181.01,-100.51C151.41,-92.72 90.73,-75.3 42.9,-52 41.73,-51.43 40.54,-50.81 39.36,-50.17"/>
<polygon fill="black" stroke="black" points="40.92,-47.02 30.55,-44.85 37.3,-53.01 40.92,-47.02"/>
</g>
<!-- 25 -->
<g id="node14" class="node">
<title>25</title>
<ellipse fill="#b9d3ee" stroke="black" cx="68.9" cy="-34" rx="16.8" ry="18"/>
<text text-anchor="middle" x="68.9" y="-30.3" font-family="Times,serif" font-size="14.00">1</text>
</g>
<!-- 10&#45;&gt;25 -->
<g id="edge12" class="edge">
<title>10&#45;&gt;25</title>
<path fill="none" stroke="black" d="M181.3,-96.75C160.36,-86.77 124.53,-69.17 94.9,-52 93.77,-51.35 92.62,-50.66 91.47,-49.96"/>
<polygon fill="black" stroke="black" points="93.08,-46.84 82.76,-44.46 89.34,-52.76 93.08,-46.84"/>
</g>
<!-- 216 -->
<g id="node25" class="node">
<title>216</title>
<ellipse fill="#b9d3ee" stroke="black" cx="120.9" cy="-34" rx="16.8" ry="18"/>
<text text-anchor="middle" x="120.9" y="-30.3" font-family="Times,serif" font-size="14.00">1</text>
</g>
<!-- 10&#45;&gt;216 -->
<g id="edge23" class="edge">
<title>10&#45;&gt;216</title>
<path fill="none" stroke="black" d="M181.2,-89.12C169.25,-78.39 153.46,-64.22 141.03,-53.07"/>
<polygon fill="black" stroke="black" points="143.21,-50.32 133.43,-46.24 138.53,-55.53 143.21,-50.32"/>
</g>
<!-- 227 -->
<g id="node36" class="node">
<title>227</title>
<ellipse fill="#b9d3ee" stroke="black" cx="172.9" cy="-34" rx="16.8" ry="18"/>
<text text-anchor="middle" x="172.9" y="-30.3" font-family="Times,serif" font-size="14.00">6</text>
</g>
<!-- 10&#45;&gt;227 -->
<g id="edge34" class="edge">
<title>10&#45;&gt;227</title>
<path fill="none" stroke="black" d="M192.47,-87.7C189.46,-79.58 185.8,-69.74 182.47,-60.76"/>
<polygon fill="black" stroke="black" points="185.66,-59.3 178.9,-51.14 179.1,-61.74 185.66,-59.3"/>
</g>
<!-- 229 -->
<g id="node38" class="node">
<title>229</title>
<ellipse fill="#b9d3ee" stroke="black" cx="224.9" cy="-34" rx="16.8" ry="18"/>
<text text-anchor="middle" x="224.9" y="-30.3" font-family="Times,serif" font-size="14.00">7</text>
</g>
<!-- 10&#45;&gt;229 -->
<g id="edge36" class="edge">
<title>10&#45;&gt;229</title>
<path fill="none" stroke="black" d="M205.33,-87.7C208.34,-79.58 212,-69.74 215.33,-60.76"/>
<polygon fill="black" stroke="black" points="218.7,-61.74 218.9,-51.14 212.14,-59.3 218.7,-61.74"/>
</g>
<!-- 238 -->
<g id="node47" class="node">
<title>238</title>
<ellipse fill="#b9d3ee" stroke="black" cx="282.9" cy="-34" rx="23" ry="18"/>
<text text-anchor="middle" x="282.9" y="-30.3" font-family="Times,serif" font-size="14.00">23</text>
</g>
<!-- 10&#45;&gt;238 -->
<g id="edge45" class="edge">
<title>10&#45;&gt;238</title>
<path fill="none" stroke="black" d="M216.71,-90.15C229.24,-79.72 246.11,-65.66 259.69,-54.34"/>
<polygon fill="black" stroke="black" points="262.2,-56.8 267.64,-47.71 257.72,-51.43 262.2,-56.8"/>
</g>
<!-- 239 -->
<g id="node48" class="node">
<title>239</title>
<ellipse fill="#b9d3ee" stroke="black" cx="345.9" cy="-34" rx="23" ry="18"/>
<text text-anchor="middle" x="345.9" y="-30.3" font-family="Times,serif" font-size="14.00">28</text>
</g>
<!-- 10&#45;&gt;239 -->
<g id="edge46" class="edge">
<title>10&#45;&gt;239</title>
<path fill="none" stroke="black" d="M216.78,-97.32C239.72,-87.34 280.66,-69.18 314.9,-52 316.24,-51.33 317.6,-50.63 318.97,-49.92"/>
<polygon fill="black" stroke="black" points="320.81,-52.91 327.98,-45.11 317.51,-46.73 320.81,-52.91"/>
</g>
<!-- 23 -->
<g id="node12" class="node">
<title>23</title>
<ellipse fill="#b9d3ee" stroke="black" cx="403.9" cy="-34" rx="16.8" ry="18"/>
<text text-anchor="middle" x="403.9" y="-30.3" font-family="Times,serif" font-size="14.00">1</text>
</g>
<!-- 11&#45;&gt;23 -->
<g id="edge10" class="edge">
<title>11&#45;&gt;23</title>
<path fill="none" stroke="black" d="M737.61,-104.44C651.76,-100.89 529.99,-88.86 429.9,-52 428.67,-51.55 427.45,-51.03 426.23,-50.46"/>
<polygon fill="black" stroke="black" points="427.74,-47.29 417.31,-45.41 424.29,-53.38 427.74,-47.29"/>
</g>
<!-- 24 -->
<g id="node13" class="node">
<title>24</title>
<ellipse fill="#b9d3ee" stroke="black" cx="455.9" cy="-34" rx="16.8" ry="18"/>
<text text-anchor="middle" x="455.9" y="-30.3" font-family="Times,serif" font-size="14.00">1</text>
</g>
<!-- 11&#45;&gt;24 -->
<g id="edge11" class="edge">
<title>11&#45;&gt;24</title>
<path fill="none" stroke="black" d="M737.72,-101.48C663.66,-96.16 564.32,-83.2 481.9,-52 480.68,-51.54 479.46,-51.01 478.24,-50.44"/>
<polygon fill="black" stroke="black" points="479.75,-47.27 469.33,-45.36 476.29,-53.35 479.75,-47.27"/>
</g>
<!-- 26 -->
<g id="node15" class="node">
<title>26</title>
<ellipse fill="#b9d3ee" stroke="black" cx="507.9" cy="-34" rx="16.8" ry="18"/>
<text text-anchor="middle" x="507.9" y="-30.3" font-family="Times,serif" font-size="14.00">1</text>
</g>
<!-- 11&#45;&gt;26 -->
<g id="edge13" class="edge">
<title>11&#45;&gt;26</title>
<path fill="none" stroke="black" d="M737.56,-97.59C676.15,-90.71 598.86,-77.47 533.9,-52 532.68,-51.52 531.47,-50.99 530.26,-50.4"/>
<polygon fill="black" stroke="black" points="531.77,-47.23 521.35,-45.29 528.29,-53.31 531.77,-47.23"/>
</g>
<!-- 27 -->
<g id="node16" class="node">
<title>27</title>
<ellipse fill="#b9d3ee" stroke="black" cx="559.9" cy="-34" rx="16.8" ry="18"/>
<text text-anchor="middle" x="559.9" y="-30.3" font-family="Times,serif" font-size="14.00">1</text>
</g>
<!-- 11&#45;&gt;27 -->
<g id="edge14" class="edge">
<title>11&#45;&gt;27</title>
<path fill="none" stroke="black" d="M737.58,-92.29C689.85,-84.33 633.83,-71.71 585.9,-52 584.69,-51.5 583.48,-50.95 582.28,-50.35"/>
<polygon fill="black" stroke="black" points="583.8,-47.19 573.39,-45.2 580.29,-53.24 583.8,-47.19"/>
</g>
<!-- 212 -->
<g id="node21" class="node">
<title>212</title>
<ellipse fill="#b9d3ee" stroke="black" cx="611.9" cy="-34" rx="16.8" ry="18"/>
<text text-anchor="middle" x="611.9" y="-30.3" font-family="Times,serif" font-size="14.00">1</text>
</g>
<!-- 11&#45;&gt;212 -->
<g id="edge19" class="edge">
<title>11&#45;&gt;212</title>
<path fill="none" stroke="black" d="M752.07,-87.99C715.54,-79.61 673.89,-67.83 637.9,-52 636.7,-51.47 635.5,-50.9 634.31,-50.28"/>
<polygon fill="black" stroke="black" points="635.84,-47.12 625.45,-45.06 632.29,-53.15 635.84,-47.12"/>
</g>
<!-- 215 -->
<g id="node24" class="node">
<title>215</title>
<ellipse fill="#b9d3ee" stroke="black" cx="663.9" cy="-34" rx="16.8" ry="18"/>
<text text-anchor="middle" x="663.9" y="-30.3" font-family="Times,serif" font-size="14.00">1</text>
</g>
<!-- 11&#45;&gt;215 -->
<g id="edge22" class="edge">
<title>11&#45;&gt;215</title>
<path fill="none" stroke="black" d="M784.1,-87.94C754.86,-78.88 719.86,-66.59 689.9,-52 688.73,-51.43 687.54,-50.81 686.36,-50.17"/>
<polygon fill="black" stroke="black" points="687.92,-47.02 677.55,-44.85 684.3,-53.01 687.92,-47.02"/>
</g>
<!-- 218 -->
<g id="node27" class="node">
<title>218</title>
<ellipse fill="#b9d3ee" stroke="black" cx="715.9" cy="-34" rx="16.8" ry="18"/>
<text text-anchor="middle" x="715.9" y="-30.3" font-family="Times,serif" font-size="14.00">2</text>
</g>
<!-- 11&#45;&gt;218 -->
<g id="edge25" class="edge">
<title>11&#45;&gt;218</title>
<path fill="none" stroke="black" d="M809.77,-87.78C789.53,-77.84 763.99,-64.8 741.9,-52 740.77,-51.35 739.62,-50.66 738.47,-49.96"/>
<polygon fill="black" stroke="black" points="740.08,-46.84 729.76,-44.46 736.34,-52.76 740.08,-46.84"/>
</g>
<!-- 223 -->
<g id="node32" class="node">
<title>223</title>
<ellipse fill="#b9d3ee" stroke="black" cx="767.9" cy="-34" rx="16.8" ry="18"/>
<text text-anchor="middle" x="767.9" y="-30.3" font-family="Times,serif" font-size="14.00">3</text>
</g>
<!-- 11&#45;&gt;223 -->
<g id="edge30" class="edge">
<title>11&#45;&gt;223</title>
<path fill="none" stroke="black" d="M826.62,-87.7C814.89,-77.17 799.93,-63.75 788.05,-53.08"/>
<polygon fill="black" stroke="black" points="790.17,-50.28 780.39,-46.21 785.49,-55.49 790.17,-50.28"/>
</g>
<!-- 224 -->
<g id="node33" class="node">
<title>224</title>
<ellipse fill="#b9d3ee" stroke="black" cx="819.9" cy="-34" rx="16.8" ry="18"/>
<text text-anchor="middle" x="819.9" y="-30.3" font-family="Times,serif" font-size="14.00">4</text>
</g>
<!-- 11&#45;&gt;224 -->
<g id="edge31" class="edge">
<title>11&#45;&gt;224</title>
<path fill="none" stroke="black" d="M839.47,-87.7C836.46,-79.58 832.8,-69.74 829.47,-60.76"/>
<polygon fill="black" stroke="black" points="832.66,-59.3 825.9,-51.14 826.1,-61.74 832.66,-59.3"/>
</g>
<!-- 226 -->
<g id="node35" class="node">
<title>226</title>
<ellipse fill="#b9d3ee" stroke="black" cx="871.9" cy="-34" rx="16.8" ry="18"/>
<text text-anchor="middle" x="871.9" y="-30.3" font-family="Times,serif" font-size="14.00">6</text>
</g>
<!-- 11&#45;&gt;226 -->
<g id="edge33" class="edge">
<title>11&#45;&gt;226</title>
<path fill="none" stroke="black" d="M852.33,-87.7C855.34,-79.58 859,-69.74 862.33,-60.76"/>
<polygon fill="black" stroke="black" points="865.7,-61.74 865.9,-51.14 859.14,-59.3 865.7,-61.74"/>
</g>
<!-- 230 -->
<g id="node39" class="node">
<title>230</title>
<ellipse fill="#b9d3ee" stroke="black" cx="923.9" cy="-34" rx="16.8" ry="18"/>
<text text-anchor="middle" x="923.9" y="-30.3" font-family="Times,serif" font-size="14.00">9</text>
</g>
<!-- 11&#45;&gt;230 -->
<g id="edge37" class="edge">
<title>11&#45;&gt;230</title>
<path fill="none" stroke="black" d="M865.18,-87.7C876.91,-77.17 891.87,-63.75 903.75,-53.08"/>
<polygon fill="black" stroke="black" points="906.3,-55.49 911.41,-46.21 901.63,-50.28 906.3,-55.49"/>
</g>
<!-- 231 -->
<g id="node40" class="node">
<title>231</title>
<ellipse fill="#b9d3ee" stroke="black" cx="975.9" cy="-34" rx="16.8" ry="18"/>
<text text-anchor="middle" x="975.9" y="-30.3" font-family="Times,serif" font-size="14.00">9</text>
</g>
<!-- 11&#45;&gt;231 -->
<g id="edge38" class="edge">
<title>11&#45;&gt;231</title>
<path fill="none" stroke="black" d="M882.03,-87.78C902.27,-77.84 927.81,-64.8 949.9,-52 951.03,-51.35 952.17,-50.66 953.33,-49.96"/>
<polygon fill="black" stroke="black" points="955.46,-52.76 962.04,-44.46 951.72,-46.84 955.46,-52.76"/>
</g>
<!-- 233 -->
<g id="node42" class="node">
<title>233</title>
<ellipse fill="#b9d3ee" stroke="black" cx="1033.9" cy="-34" rx="23" ry="18"/>
<text text-anchor="middle" x="1033.9" y="-30.3" font-family="Times,serif" font-size="14.00">13</text>
</g>
<!-- 11&#45;&gt;233 -->
<g id="edge40" class="edge">
<title>11&#45;&gt;233</title>
<path fill="none" stroke="black" d="M903.42,-87.9C933.24,-78.43 970,-65.79 1001.9,-52 1003.49,-51.31 1005.1,-50.58 1006.72,-49.81"/>
<polygon fill="black" stroke="black" points="1008.5,-52.84 1015.87,-45.23 1005.36,-46.58 1008.5,-52.84"/>
</g>
<!-- 240 -->
<g id="node49" class="node">
<title>240</title>
<ellipse fill="#b9d3ee" stroke="black" cx="1096.9" cy="-34" rx="23" ry="18"/>
<text text-anchor="middle" x="1096.9" y="-30.3" font-family="Times,serif" font-size="14.00">36</text>
</g>
<!-- 11&#45;&gt;240 -->
<g id="edge47" class="edge">
<title>11&#45;&gt;240</title>
<path fill="none" stroke="black" d="M940.43,-87.98C979.94,-79.4 1025.87,-67.48 1065.9,-52 1067.29,-51.46 1068.7,-50.87 1070.12,-50.24"/>
<polygon fill="black" stroke="black" points="1071.84,-53.29 1079.25,-45.72 1068.74,-47.02 1071.84,-53.29"/>
</g>
<!-- 242 -->
<g id="node51" class="node">
<title>242</title>
<ellipse fill="#b9d3ee" stroke="black" cx="1165.9" cy="-34" rx="28.7" ry="18"/>
<text text-anchor="middle" x="1165.9" y="-30.3" font-family="Times,serif" font-size="14.00">124</text>
</g>
<!-- 11&#45;&gt;242 -->
<g id="edge49" class="edge">
<title>11&#45;&gt;242</title>
<path fill="none" stroke="black" d="M953.93,-91.15C1007.35,-82.69 1072.33,-69.99 1128.9,-52 1130.82,-51.39 1132.77,-50.7 1134.72,-49.97"/>
<polygon fill="black" stroke="black" points="1136.44,-53.04 1144.34,-45.98 1133.76,-46.58 1136.44,-53.04"/>
</g>
<!-- 243 -->
<g id="node52" class="node">
<title>243</title>
<ellipse fill="#b9d3ee" stroke="black" cx="1240.9" cy="-34" rx="28.7" ry="18"/>
<text text-anchor="middle" x="1240.9" y="-30.3" font-family="Times,serif" font-size="14.00">200</text>
</g>
<!-- 11&#45;&gt;243 -->
<g id="edge50" class="edge">
<title>11&#45;&gt;243</title>
<path fill="none" stroke="black" d="M954.15,-97.02C1026.07,-89.78 1121.99,-76.34 1203.9,-52 1205.83,-51.43 1207.79,-50.77 1209.75,-50.06"/>
<polygon fill="black" stroke="black" points="1211.45,-53.14 1219.38,-46.13 1208.8,-46.66 1211.45,-53.14"/>
</g>
<!-- 247 -->
<g id="node56" class="node">
<title>247</title>
<ellipse fill="#b9d3ee" stroke="black" cx="1323.9" cy="-34" rx="36" ry="18"/>
<text text-anchor="middle" x="1323.9" y="-30.3" font-family="Times,serif" font-size="14.00">358</text>
</g>
<!-- 11&#45;&gt;247 -->
<g id="edge54" class="edge">
<title>11&#45;&gt;247</title>
<path fill="none" stroke="black" d="M953.96,-98.97C1042.35,-92.33 1170.06,-78.81 1278.9,-52 1281.71,-51.31 1284.59,-50.49 1287.46,-49.59"/>
<polygon fill="black" stroke="black" points="1288.76,-52.85 1297.1,-46.32 1286.51,-46.22 1288.76,-52.85"/>
</g>
<!-- 22 -->
<g id="node11" class="node">
<title>22</title>
<ellipse fill="#b9d3ee" stroke="black" cx="1394.9" cy="-34" rx="16.8" ry="18"/>
<text text-anchor="middle" x="1394.9" y="-30.3" font-family="Times,serif" font-size="14.00">1</text>
</g>
<!-- 12&#45;&gt;22 -->
<g id="edge9" class="edge">
<title>12&#45;&gt;22</title>
<path fill="none" stroke="black" d="M1514.75,-92.39C1488.19,-82.63 1451.55,-68.08 1420.9,-52 1419.74,-51.39 1418.57,-50.75 1417.4,-50.08"/>
<polygon fill="black" stroke="black" points="1418.98,-46.95 1408.63,-44.68 1415.31,-52.91 1418.98,-46.95"/>
</g>
<!-- 210 -->
<g id="node19" class="node">
<title>210</title>
<ellipse fill="#b9d3ee" stroke="black" cx="1446.9" cy="-34" rx="16.8" ry="18"/>
<text text-anchor="middle" x="1446.9" y="-30.3" font-family="Times,serif" font-size="14.00">1</text>
</g>
<!-- 12&#45;&gt;210 -->
<g id="edge17" class="edge">
<title>12&#45;&gt;210</title>
<path fill="none" stroke="black" d="M1525.46,-87.88C1508.31,-76.33 1485.89,-61.24 1469.39,-50.14"/>
<polygon fill="black" stroke="black" points="1471.16,-47.11 1460.91,-44.43 1467.25,-52.92 1471.16,-47.11"/>
</g>
<!-- 211 -->
<g id="node20" class="node">
<title>211</title>
<ellipse fill="#b9d3ee" stroke="black" cx="1498.9" cy="-34" rx="16.8" ry="18"/>
<text text-anchor="middle" x="1498.9" y="-30.3" font-family="Times,serif" font-size="14.00">1</text>
</g>
<!-- 12&#45;&gt;211 -->
<g id="edge18" class="edge">
<title>12&#45;&gt;211</title>
<path fill="none" stroke="black" d="M1538.04,-87.7C1531.16,-78.43 1522.6,-66.91 1515.25,-57.01"/>
<polygon fill="black" stroke="black" points="1517.94,-54.76 1509.17,-48.82 1512.32,-58.94 1517.94,-54.76"/>
</g>
<!-- 217 -->
<g id="node26" class="node">
<title>217</title>
<ellipse fill="#b9d3ee" stroke="black" cx="1550.9" cy="-34" rx="16.8" ry="18"/>
<text text-anchor="middle" x="1550.9" y="-30.3" font-family="Times,serif" font-size="14.00">2</text>
</g>
<!-- 12&#45;&gt;217 -->
<g id="edge24" class="edge">
<title>12&#45;&gt;217</title>
<path fill="none" stroke="black" d="M1550.9,-87.7C1550.9,-79.98 1550.9,-70.71 1550.9,-62.11"/>
<polygon fill="black" stroke="black" points="1554.4,-62.1 1550.9,-52.1 1547.4,-62.1 1554.4,-62.1"/>
</g>
<!-- 234 -->
<g id="node43" class="node">
<title>234</title>
<ellipse fill="#b9d3ee" stroke="black" cx="1608.9" cy="-34" rx="23" ry="18"/>
<text text-anchor="middle" x="1608.9" y="-30.3" font-family="Times,serif" font-size="14.00">14</text>
</g>
<!-- 12&#45;&gt;234 -->
<g id="edge41" class="edge">
<title>12&#45;&gt;234</title>
<path fill="none" stroke="black" d="M1565.24,-87.7C1572.78,-78.59 1582.13,-67.31 1590.24,-57.52"/>
<polygon fill="black" stroke="black" points="1593,-59.67 1596.69,-49.74 1587.61,-55.21 1593,-59.67"/>
</g>
<!-- 235 -->
<g id="node44" class="node">
<title>235</title>
<ellipse fill="#b9d3ee" stroke="black" cx="1671.9" cy="-34" rx="23" ry="18"/>
<text text-anchor="middle" x="1671.9" y="-30.3" font-family="Times,serif" font-size="14.00">15</text>
</g>
<!-- 12&#45;&gt;235 -->
<g id="edge42" class="edge">
<title>12&#45;&gt;235</title>
<path fill="none" stroke="black" d="M1580.5,-87.88C1600.22,-76.47 1625.93,-61.59 1645.06,-50.53"/>
<polygon fill="black" stroke="black" points="1646.96,-53.47 1653.86,-45.43 1643.45,-47.41 1646.96,-53.47"/>
</g>
<!-- 245 -->
<g id="node54" class="node">
<title>245</title>
<ellipse fill="#b9d3ee" stroke="black" cx="1748.9" cy="-34" rx="36" ry="18"/>
<text text-anchor="middle" x="1748.9" y="-30.3" font-family="Times,serif" font-size="14.00">324</text>
</g>
<!-- 12&#45;&gt;245 -->
<g id="edge52" class="edge">
<title>12&#45;&gt;245</title>
<path fill="none" stroke="black" d="M1587.17,-92.75C1618.23,-82.19 1664.12,-66.4 1703.9,-52 1706.3,-51.13 1708.78,-50.22 1711.27,-49.3"/>
<polygon fill="black" stroke="black" points="1712.71,-52.5 1720.86,-45.73 1710.26,-45.94 1712.71,-52.5"/>
</g>
<!-- 213 -->
<g id="node22" class="node">
<title>213</title>
<ellipse fill="#b9d3ee" stroke="black" cx="1819.9" cy="-34" rx="16.8" ry="18"/>
<text text-anchor="middle" x="1819.9" y="-30.3" font-family="Times,serif" font-size="14.00">1</text>
</g>
<!-- 13&#45;&gt;213 -->
<g id="edge20" class="edge">
<title>13&#45;&gt;213</title>
<path fill="none" stroke="black" d="M1902.59,-87.93C1886.13,-77.59 1864.76,-64.12 1845.9,-52 1844.8,-51.3 1843.68,-50.57 1842.55,-49.84"/>
<polygon fill="black" stroke="black" points="1844.2,-46.74 1833.9,-44.22 1840.38,-52.6 1844.2,-46.74"/>
</g>
<!-- 221 -->
<g id="node30" class="node">
<title>221</title>
<ellipse fill="#b9d3ee" stroke="black" cx="1871.9" cy="-34" rx="16.8" ry="18"/>
<text text-anchor="middle" x="1871.9" y="-30.3" font-family="Times,serif" font-size="14.00">2</text>
</g>
<!-- 13&#45;&gt;221 -->
<g id="edge28" class="edge">
<title>13&#45;&gt;221</title>
<path fill="none" stroke="black" d="M1915.56,-87.7C1907.59,-78.08 1897.62,-66.05 1889.22,-55.91"/>
<polygon fill="black" stroke="black" points="1891.69,-53.4 1882.61,-47.93 1886.3,-57.86 1891.69,-53.4"/>
</g>
<!-- 232 -->
<g id="node41" class="node">
<title>232</title>
<ellipse fill="#b9d3ee" stroke="black" cx="1929.9" cy="-34" rx="23" ry="18"/>
<text text-anchor="middle" x="1929.9" y="-30.3" font-family="Times,serif" font-size="14.00">11</text>
</g>
<!-- 13&#45;&gt;232 -->
<g id="edge39" class="edge">
<title>13&#45;&gt;232</title>
<path fill="none" stroke="black" d="M1929.9,-87.7C1929.9,-79.98 1929.9,-70.71 1929.9,-62.11"/>
<polygon fill="black" stroke="black" points="1933.4,-62.1 1929.9,-52.1 1926.4,-62.1 1933.4,-62.1"/>
</g>
<!-- 236 -->
<g id="node45" class="node">
<title>236</title>
<ellipse fill="#b9d3ee" stroke="black" cx="1992.9" cy="-34" rx="23" ry="18"/>
<text text-anchor="middle" x="1992.9" y="-30.3" font-family="Times,serif" font-size="14.00">15</text>
</g>
<!-- 13&#45;&gt;236 -->
<g id="edge43" class="edge">
<title>13&#45;&gt;236</title>
<path fill="none" stroke="black" d="M1945.47,-87.7C1953.87,-78.37 1964.31,-66.76 1973.26,-56.82"/>
<polygon fill="black" stroke="black" points="1975.96,-59.05 1980.05,-49.28 1970.76,-54.37 1975.96,-59.05"/>
</g>
<!-- 237 -->
<g id="node46" class="node">
<title>237</title>
<ellipse fill="#b9d3ee" stroke="black" cx="2055.9" cy="-34" rx="23" ry="18"/>
<text text-anchor="middle" x="2055.9" y="-30.3" font-family="Times,serif" font-size="14.00">21</text>
</g>
<!-- 13&#45;&gt;237 -->
<g id="edge44" class="edge">
<title>13&#45;&gt;237</title>
<path fill="none" stroke="black" d="M1960.72,-87.88C1981.6,-76.28 2008.93,-61.09 2028.94,-49.97"/>
<polygon fill="black" stroke="black" points="2030.81,-52.94 2037.85,-45.03 2027.41,-46.83 2030.81,-52.94"/>
</g>
<!-- 246 -->
<g id="node55" class="node">
<title>246</title>
<ellipse fill="#b9d3ee" stroke="black" cx="2132.9" cy="-34" rx="36" ry="18"/>
<text text-anchor="middle" x="2132.9" y="-30.3" font-family="Times,serif" font-size="14.00">349</text>
</g>
<!-- 13&#45;&gt;246 -->
<g id="edge53" class="edge">
<title>13&#45;&gt;246</title>
<path fill="none" stroke="black" d="M1966.11,-93.28C1998.22,-82.79 2046.34,-66.82 2087.9,-52 2090.46,-51.09 2093.11,-50.13 2095.77,-49.15"/>
<polygon fill="black" stroke="black" points="2097.2,-52.36 2105.35,-45.59 2094.76,-45.79 2097.2,-52.36"/>
</g>
<!-- 21 -->
<g id="node10" class="node">
<title>21</title>
<ellipse fill="#b9d3ee" stroke="black" cx="2203.9" cy="-34" rx="16.8" ry="18"/>
<text text-anchor="middle" x="2203.9" y="-30.3" font-family="Times,serif" font-size="14.00">1</text>
</g>
<!-- 14&#45;&gt;21 -->
<g id="edge8" class="edge">
<title>14&#45;&gt;21</title>
<path fill="none" stroke="black" d="M2401.76,-99.52C2359.3,-92.24 2287.38,-77.28 2229.9,-52 2228.7,-51.47 2227.5,-50.9 2226.31,-50.28"/>
<polygon fill="black" stroke="black" points="2227.84,-47.12 2217.45,-45.06 2224.29,-53.15 2227.84,-47.12"/>
</g>
<!-- 28 -->
<g id="node17" class="node">
<title>28</title>
<ellipse fill="#b9d3ee" stroke="black" cx="2255.9" cy="-34" rx="16.8" ry="18"/>
<text text-anchor="middle" x="2255.9" y="-30.3" font-family="Times,serif" font-size="14.00">1</text>
</g>
<!-- 14&#45;&gt;28 -->
<g id="edge15" class="edge">
<title>14&#45;&gt;28</title>
<path fill="none" stroke="black" d="M2401.88,-95.56C2369.59,-86.45 2321.37,-71.23 2281.9,-52 2280.73,-51.43 2279.54,-50.81 2278.36,-50.17"/>
<polygon fill="black" stroke="black" points="2279.92,-47.02 2269.55,-44.85 2276.3,-53.01 2279.92,-47.02"/>
</g>
<!-- 29 -->
<g id="node18" class="node">
<title>29</title>
<ellipse fill="#b9d3ee" stroke="black" cx="2307.9" cy="-34" rx="16.8" ry="18"/>
<text text-anchor="middle" x="2307.9" y="-30.3" font-family="Times,serif" font-size="14.00">1</text>
</g>
<!-- 14&#45;&gt;29 -->
<g id="edge16" class="edge">
<title>14&#45;&gt;29</title>
<path fill="none" stroke="black" d="M2401.77,-87.78C2381.53,-77.84 2355.99,-64.8 2333.9,-52 2332.77,-51.35 2331.62,-50.66 2330.47,-49.96"/>
<polygon fill="black" stroke="black" points="2332.08,-46.84 2321.76,-44.46 2328.34,-52.76 2332.08,-46.84"/>
</g>
<!-- 214 -->
<g id="node23" class="node">
<title>214</title>
<ellipse fill="#b9d3ee" stroke="black" cx="2359.9" cy="-34" rx="16.8" ry="18"/>
<text text-anchor="middle" x="2359.9" y="-30.3" font-family="Times,serif" font-size="14.00">1</text>
</g>
<!-- 14&#45;&gt;214 -->
<g id="edge21" class="edge">
<title>14&#45;&gt;214</title>
<path fill="none" stroke="black" d="M2418.62,-87.7C2406.89,-77.17 2391.93,-63.75 2380.05,-53.08"/>
<polygon fill="black" stroke="black" points="2382.17,-50.28 2372.39,-46.21 2377.49,-55.49 2382.17,-50.28"/>
</g>
<!-- 219 -->
<g id="node28" class="node">
<title>219</title>
<ellipse fill="#b9d3ee" stroke="black" cx="2411.9" cy="-34" rx="16.8" ry="18"/>
<text text-anchor="middle" x="2411.9" y="-30.3" font-family="Times,serif" font-size="14.00">2</text>
</g>
<!-- 14&#45;&gt;219 -->
<g id="edge26" class="edge">
<title>14&#45;&gt;219</title>
<path fill="none" stroke="black" d="M2431.47,-87.7C2428.46,-79.58 2424.8,-69.74 2421.47,-60.76"/>
<polygon fill="black" stroke="black" points="2424.66,-59.3 2417.9,-51.14 2418.1,-61.74 2424.66,-59.3"/>
</g>
<!-- 220 -->
<g id="node29" class="node">
<title>220</title>
<ellipse fill="#b9d3ee" stroke="black" cx="2463.9" cy="-34" rx="16.8" ry="18"/>
<text text-anchor="middle" x="2463.9" y="-30.3" font-family="Times,serif" font-size="14.00">2</text>
</g>
<!-- 14&#45;&gt;220 -->
<g id="edge27" class="edge">
<title>14&#45;&gt;220</title>
<path fill="none" stroke="black" d="M2444.33,-87.7C2447.34,-79.58 2451,-69.74 2454.33,-60.76"/>
<polygon fill="black" stroke="black" points="2457.7,-61.74 2457.9,-51.14 2451.14,-59.3 2457.7,-61.74"/>
</g>
<!-- 222 -->
<g id="node31" class="node">
<title>222</title>
<ellipse fill="#b9d3ee" stroke="black" cx="2515.9" cy="-34" rx="16.8" ry="18"/>
<text text-anchor="middle" x="2515.9" y="-30.3" font-family="Times,serif" font-size="14.00">3</text>
</g>
<!-- 14&#45;&gt;222 -->
<g id="edge29" class="edge">
<title>14&#45;&gt;222</title>
<path fill="none" stroke="black" d="M2457.18,-87.7C2468.91,-77.17 2483.87,-63.75 2495.75,-53.08"/>
<polygon fill="black" stroke="black" points="2498.3,-55.49 2503.41,-46.21 2493.63,-50.28 2498.3,-55.49"/>
</g>
<!-- 225 -->
<g id="node34" class="node">
<title>225</title>
<ellipse fill="#b9d3ee" stroke="black" cx="2567.9" cy="-34" rx="16.8" ry="18"/>
<text text-anchor="middle" x="2567.9" y="-30.3" font-family="Times,serif" font-size="14.00">5</text>
</g>
<!-- 14&#45;&gt;225 -->
<g id="edge32" class="edge">
<title>14&#45;&gt;225</title>
<path fill="none" stroke="black" d="M2474.03,-87.78C2494.27,-77.84 2519.81,-64.8 2541.9,-52 2543.03,-51.35 2544.17,-50.66 2545.33,-49.96"/>
<polygon fill="black" stroke="black" points="2547.46,-52.76 2554.04,-44.46 2543.72,-46.84 2547.46,-52.76"/>
</g>
<!-- 228 -->
<g id="node37" class="node">
<title>228</title>
<ellipse fill="#b9d3ee" stroke="black" cx="2619.9" cy="-34" rx="16.8" ry="18"/>
<text text-anchor="middle" x="2619.9" y="-30.3" font-family="Times,serif" font-size="14.00">6</text>
</g>
<!-- 14&#45;&gt;228 -->
<g id="edge35" class="edge">
<title>14&#45;&gt;228</title>
<path fill="none" stroke="black" d="M2473.91,-95.56C2506.2,-86.45 2554.43,-71.23 2593.9,-52 2595.07,-51.43 2596.25,-50.81 2597.44,-50.17"/>
<polygon fill="black" stroke="black" points="2599.5,-53.01 2606.25,-44.85 2595.88,-47.02 2599.5,-53.01"/>
</g>
<!-- 241 -->
<g id="node50" class="node">
<title>241</title>
<ellipse fill="#b9d3ee" stroke="black" cx="2677.9" cy="-34" rx="23" ry="18"/>
<text text-anchor="middle" x="2677.9" y="-30.3" font-family="Times,serif" font-size="14.00">94</text>
</g>
<!-- 14&#45;&gt;241 -->
<g id="edge48" class="edge">
<title>14&#45;&gt;241</title>
<path fill="none" stroke="black" d="M2474.04,-98.52C2516.18,-90.35 2587.51,-74.58 2645.9,-52 2647.51,-51.38 2649.15,-50.69 2650.78,-49.96"/>
<polygon fill="black" stroke="black" points="2652.52,-53.01 2659.98,-45.48 2649.45,-46.72 2652.52,-53.01"/>
</g>
<!-- 244 -->
<g id="node53" class="node">
<title>244</title>
<ellipse fill="#b9d3ee" stroke="black" cx="2754.9" cy="-34" rx="36" ry="18"/>
<text text-anchor="middle" x="2754.9" y="-30.3" font-family="Times,serif" font-size="14.00">290</text>
</g>
<!-- 14&#45;&gt;244 -->
<g id="edge51" class="edge">
<title>14&#45;&gt;244</title>
<path fill="none" stroke="black" d="M2474,-99.95C2526.52,-92.16 2626.83,-75.6 2709.9,-52 2712.69,-51.21 2715.54,-50.32 2718.4,-49.37"/>
<polygon fill="black" stroke="black" points="2719.74,-52.61 2728.02,-46 2717.42,-46.01 2719.74,-52.61"/>
</g>
<!-- legend_2 -->
<g id="node57" class="node">
<title>legend_2</title>
<polygon fill="#b9d3ee" stroke="black" points="3030.4,-52 2809.4,-52 2809.4,-16 3030.4,-16 3030.4,-52"/>
<text text-anchor="middle" x="2919.9" y="-30.3" font-family="Times,serif" font-size="14.00">DT=6 ST=1 Similarity=0.51</text>
</g>
<!-- legend_1&#45;&gt;legend_2 -->
<g id="edge55" class="edge">
<title>legend_1&#45;&gt;legend_2</title>
<path fill="none" stroke="black" d="M2919.9,-87.7C2919.9,-79.98 2919.9,-70.71 2919.9,-62.11"/>
<polygon fill="black" stroke="black" points="2923.4,-62.1 2919.9,-52.1 2916.4,-62.1 2923.4,-62.1"/>
</g>
</g>
</svg>
