<?xml version="1.0" encoding="UTF-8" standalone="no"?>
<!DOCTYPE svg PUBLIC "-//W3C//DTD SVG 1.1//EN"
 "http://www.w3.org/Graphics/SVG/1.1/DTD/svg11.dtd">
<!-- Generated by graphviz version 2.43.0 (0)
 -->
<!-- Title: %3 Pages: 1 -->
<svg width="2668pt" height="209pt"
 viewBox="0.00 0.00 2668.00 209.00" xmlns="http://www.w3.org/2000/svg" xmlns:xlink="http://www.w3.org/1999/xlink">
<g id="graph0" class="graph" transform="scale(1 1) rotate(0) translate(4 205)">
<title>%3</title>
<polygon fill="white" stroke="transparent" points="-4,4 -4,-205 2664,-205 2664,4 -4,4"/>
<text text-anchor="middle" x="1330" y="-185.8" font-family="Times,serif" font-size="14.00">ConsTree</text>
<text text-anchor="middle" x="1330" y="-170.8" font-family="Times,serif" font-size="14.00">Tree Quality = 0.33333333333333337</text>
<g id="clust1" class="cluster">
<title>cluster</title>
<polygon fill="none" stroke="black" points="2416,-8 2416,-155 2652,-155 2652,-8 2416,-8"/>
<text text-anchor="middle" x="2534" y="-139.8" font-family="Times,serif" font-size="14.00">Legend</text>
</g>
<!-- 00 -->
<g id="node1" class="node">
<title>00</title>
<ellipse fill="#b9d3ee" stroke="black" cx="1047" cy="-106" rx="324" ry="18"/>
<text text-anchor="middle" x="1047" y="-102.3" font-family="Times,serif" font-size="14.00">2000</text>
</g>
<!-- 10 -->
<g id="node3" class="node">
<title>10</title>
<polygon fill="darkseagreen" stroke="black" points="26,-52 0,-52 0,-16 26,-16 26,-52"/>
<text text-anchor="middle" x="13" y="-30.3" font-family="Times,serif" font-size="14.00">1</text>
</g>
<!-- 00&#45;&gt;10 -->
<g id="edge1" class="edge">
<title>00&#45;&gt;10</title>
<path fill="none" stroke="black" d="M752.38,-98.49C477.73,-90.97 100.8,-76.4 35,-52 34.9,-51.96 34.81,-51.93 34.71,-51.89"/>
<polygon fill="black" stroke="black" points="36.64,-48.96 26.19,-47.19 33.26,-55.09 36.64,-48.96"/>
</g>
<!-- 11 -->
<g id="node4" class="node">
<title>11</title>
<polygon fill="darkseagreen" stroke="black" points="70,-52 44,-52 44,-16 70,-16 70,-52"/>
<text text-anchor="middle" x="57" y="-30.3" font-family="Times,serif" font-size="14.00">1</text>
</g>
<!-- 00&#45;&gt;11 -->
<g id="edge2" class="edge">
<title>00&#45;&gt;11</title>
<path fill="none" stroke="black" d="M757.74,-97.85C495.71,-89.95 141.33,-75.2 79,-52 78.9,-51.96 78.81,-51.93 78.71,-51.89"/>
<polygon fill="black" stroke="black" points="80.64,-48.96 70.19,-47.19 77.25,-55.08 80.64,-48.96"/>
</g>
<!-- 12 -->
<g id="node5" class="node">
<title>12</title>
<polygon fill="darkseagreen" stroke="black" points="114,-52 88,-52 88,-16 114,-16 114,-52"/>
<text text-anchor="middle" x="101" y="-30.3" font-family="Times,serif" font-size="14.00">1</text>
</g>
<!-- 00&#45;&gt;12 -->
<g id="edge3" class="edge">
<title>00&#45;&gt;12</title>
<path fill="none" stroke="black" d="M764.04,-97.2C514.63,-88.94 181.94,-74.02 123,-52 122.9,-51.96 122.81,-51.93 122.71,-51.89"/>
<polygon fill="black" stroke="black" points="124.64,-48.96 114.19,-47.18 121.25,-55.08 124.64,-48.96"/>
</g>
<!-- 13 -->
<g id="node6" class="node">
<title>13</title>
<polygon fill="darkseagreen" stroke="black" points="158,-52 132,-52 132,-16 158,-16 158,-52"/>
<text text-anchor="middle" x="145" y="-30.3" font-family="Times,serif" font-size="14.00">1</text>
</g>
<!-- 00&#45;&gt;13 -->
<g id="edge4" class="edge">
<title>00&#45;&gt;13</title>
<path fill="none" stroke="black" d="M771.23,-96.53C534.42,-87.92 222.62,-72.87 167,-52 166.9,-51.96 166.81,-51.93 166.71,-51.89"/>
<polygon fill="black" stroke="black" points="168.64,-48.96 158.2,-47.17 165.25,-55.08 168.64,-48.96"/>
</g>
<!-- 14 -->
<g id="node7" class="node">
<title>14</title>
<polygon fill="darkseagreen" stroke="black" points="202,-52 176,-52 176,-16 202,-16 202,-52"/>
<text text-anchor="middle" x="189" y="-30.3" font-family="Times,serif" font-size="14.00">1</text>
</g>
<!-- 00&#45;&gt;14 -->
<g id="edge5" class="edge">
<title>00&#45;&gt;14</title>
<path fill="none" stroke="black" d="M725.09,-103.89C530.52,-99.49 302.89,-86.65 211,-52 210.9,-51.96 210.81,-51.93 210.71,-51.89"/>
<polygon fill="black" stroke="black" points="212.64,-48.96 202.2,-47.17 209.24,-55.08 212.64,-48.96"/>
</g>
<!-- 15 -->
<g id="node8" class="node">
<title>15</title>
<polygon fill="darkseagreen" stroke="black" points="246,-52 220,-52 220,-16 246,-16 246,-52"/>
<text text-anchor="middle" x="233" y="-30.3" font-family="Times,serif" font-size="14.00">1</text>
</g>
<!-- 00&#45;&gt;15 -->
<g id="edge6" class="edge">
<title>00&#45;&gt;15</title>
<path fill="none" stroke="black" d="M729.42,-102.43C547.96,-97.32 340.05,-84.24 255,-52 254.9,-51.96 254.81,-51.93 254.71,-51.89"/>
<polygon fill="black" stroke="black" points="256.64,-48.96 246.2,-47.16 253.24,-55.08 256.64,-48.96"/>
</g>
<!-- 16 -->
<g id="node9" class="node">
<title>16</title>
<polygon fill="darkseagreen" stroke="black" points="290,-52 264,-52 264,-16 290,-16 290,-52"/>
<text text-anchor="middle" x="277" y="-30.3" font-family="Times,serif" font-size="14.00">1</text>
</g>
<!-- 00&#45;&gt;16 -->
<g id="edge7" class="edge">
<title>00&#45;&gt;16</title>
<path fill="none" stroke="black" d="M735.8,-100.92C567.15,-95.17 377.54,-81.95 299,-52 298.9,-51.96 298.81,-51.93 298.71,-51.89"/>
<polygon fill="black" stroke="black" points="300.64,-48.96 290.21,-47.15 297.24,-55.07 300.64,-48.96"/>
</g>
<!-- 17 -->
<g id="node10" class="node">
<title>17</title>
<polygon fill="darkseagreen" stroke="black" points="334,-52 308,-52 308,-16 334,-16 334,-52"/>
<text text-anchor="middle" x="321" y="-30.3" font-family="Times,serif" font-size="14.00">1</text>
</g>
<!-- 00&#45;&gt;17 -->
<g id="edge8" class="edge">
<title>00&#45;&gt;17</title>
<path fill="none" stroke="black" d="M745.3,-99.4C588.81,-93.1 415.52,-79.84 343,-52 342.9,-51.96 342.81,-51.93 342.71,-51.89"/>
<polygon fill="black" stroke="black" points="344.65,-48.96 334.21,-47.14 341.23,-55.07 344.65,-48.96"/>
</g>
<!-- 18 -->
<g id="node11" class="node">
<title>18</title>
<polygon fill="darkseagreen" stroke="black" points="378,-52 352,-52 352,-16 378,-16 378,-52"/>
<text text-anchor="middle" x="365" y="-30.3" font-family="Times,serif" font-size="14.00">1</text>
</g>
<!-- 00&#45;&gt;18 -->
<g id="edge9" class="edge">
<title>00&#45;&gt;18</title>
<path fill="none" stroke="black" d="M757.61,-97.91C612.62,-91.13 453.94,-77.89 387,-52 386.9,-51.96 386.81,-51.93 386.71,-51.89"/>
<polygon fill="black" stroke="black" points="388.65,-48.96 378.21,-47.12 385.23,-55.07 388.65,-48.96"/>
</g>
<!-- 19 -->
<g id="node12" class="node">
<title>19</title>
<polygon fill="darkseagreen" stroke="black" points="422,-52 396,-52 396,-16 422,-16 422,-52"/>
<text text-anchor="middle" x="409" y="-30.3" font-family="Times,serif" font-size="14.00">1</text>
</g>
<!-- 00&#45;&gt;19 -->
<g id="edge10" class="edge">
<title>00&#45;&gt;19</title>
<path fill="none" stroke="black" d="M771.98,-96.44C637.99,-89.24 492.69,-76.06 431,-52 430.9,-51.96 430.81,-51.92 430.71,-51.89"/>
<polygon fill="black" stroke="black" points="432.65,-48.96 422.22,-47.11 429.22,-55.06 432.65,-48.96"/>
</g>
<!-- 110 -->
<g id="node13" class="node">
<title>110</title>
<polygon fill="darkseagreen" stroke="black" points="466,-52 440,-52 440,-16 466,-16 466,-52"/>
<text text-anchor="middle" x="453" y="-30.3" font-family="Times,serif" font-size="14.00">1</text>
</g>
<!-- 00&#45;&gt;110 -->
<g id="edge11" class="edge">
<title>00&#45;&gt;110</title>
<path fill="none" stroke="black" d="M789.33,-95.08C665.53,-87.51 531.9,-74.4 475,-52 474.9,-51.96 474.81,-51.92 474.71,-51.89"/>
<polygon fill="black" stroke="black" points="476.66,-48.96 466.23,-47.09 473.21,-55.06 476.66,-48.96"/>
</g>
<!-- 111 -->
<g id="node14" class="node">
<title>111</title>
<polygon fill="darkseagreen" stroke="black" points="510,-52 484,-52 484,-16 510,-16 510,-52"/>
<text text-anchor="middle" x="497" y="-30.3" font-family="Times,serif" font-size="14.00">1</text>
</g>
<!-- 00&#45;&gt;111 -->
<g id="edge12" class="edge">
<title>00&#45;&gt;111</title>
<path fill="none" stroke="black" d="M808.41,-93.8C694.33,-85.88 571.37,-72.85 519,-52 518.9,-51.96 518.81,-51.92 518.71,-51.88"/>
<polygon fill="black" stroke="black" points="520.66,-48.96 510.23,-47.07 517.21,-55.05 520.66,-48.96"/>
</g>
<!-- 112 -->
<g id="node15" class="node">
<title>112</title>
<polygon fill="darkseagreen" stroke="black" points="554,-52 528,-52 528,-16 554,-16 554,-52"/>
<text text-anchor="middle" x="541" y="-30.3" font-family="Times,serif" font-size="14.00">1</text>
</g>
<!-- 00&#45;&gt;112 -->
<g id="edge13" class="edge">
<title>00&#45;&gt;112</title>
<path fill="none" stroke="black" d="M829.22,-92.65C724.36,-84.39 611.11,-71.41 563,-52 562.9,-51.96 562.81,-51.92 562.71,-51.88"/>
<polygon fill="black" stroke="black" points="564.66,-48.97 554.24,-47.05 561.2,-55.05 564.66,-48.97"/>
</g>
<!-- 113 -->
<g id="node16" class="node">
<title>113</title>
<polygon fill="darkseagreen" stroke="black" points="598,-52 572,-52 572,-16 598,-16 598,-52"/>
<text text-anchor="middle" x="585" y="-30.3" font-family="Times,serif" font-size="14.00">1</text>
</g>
<!-- 00&#45;&gt;113 -->
<g id="edge14" class="edge">
<title>00&#45;&gt;113</title>
<path fill="none" stroke="black" d="M851.32,-91.63C755.33,-83.03 651.05,-70.05 607,-52 606.91,-51.96 606.81,-51.92 606.72,-51.88"/>
<polygon fill="black" stroke="black" points="608.67,-48.97 598.25,-47.03 605.18,-55.04 608.67,-48.97"/>
</g>
<!-- 114 -->
<g id="node17" class="node">
<title>114</title>
<polygon fill="darkseagreen" stroke="black" points="642,-52 616,-52 616,-16 642,-16 642,-52"/>
<text text-anchor="middle" x="629" y="-30.3" font-family="Times,serif" font-size="14.00">1</text>
</g>
<!-- 00&#45;&gt;114 -->
<g id="edge15" class="edge">
<title>00&#45;&gt;114</title>
<path fill="none" stroke="black" d="M874.25,-90.77C786.93,-81.81 691.13,-68.75 651,-52 650.91,-51.96 650.81,-51.92 650.72,-51.88"/>
<polygon fill="black" stroke="black" points="652.68,-48.97 642.27,-46.99 649.17,-55.03 652.68,-48.97"/>
</g>
<!-- 115 -->
<g id="node18" class="node">
<title>115</title>
<polygon fill="darkseagreen" stroke="black" points="686,-52 660,-52 660,-16 686,-16 686,-52"/>
<text text-anchor="middle" x="673" y="-30.3" font-family="Times,serif" font-size="14.00">1</text>
</g>
<!-- 00&#45;&gt;115 -->
<g id="edge16" class="edge">
<title>00&#45;&gt;115</title>
<path fill="none" stroke="black" d="M842.03,-91.98C792.53,-84.03 740.75,-71.54 695,-52 694.91,-51.96 694.81,-51.92 694.72,-51.88"/>
<polygon fill="black" stroke="black" points="696.68,-48.97 686.28,-46.95 693.15,-55.02 696.68,-48.97"/>
</g>
<!-- 116 -->
<g id="node19" class="node">
<title>116</title>
<polygon fill="darkseagreen" stroke="black" points="730,-52 704,-52 704,-16 730,-16 730,-52"/>
<text text-anchor="middle" x="717" y="-30.3" font-family="Times,serif" font-size="14.00">1</text>
</g>
<!-- 00&#45;&gt;116 -->
<g id="edge17" class="edge">
<title>00&#45;&gt;116</title>
<path fill="none" stroke="black" d="M876.03,-90.7C830.21,-82.85 781.59,-70.72 739,-52 738.91,-51.96 738.81,-51.92 738.72,-51.87"/>
<polygon fill="black" stroke="black" points="740.7,-48.98 730.31,-46.9 737.13,-55 740.7,-48.98"/>
</g>
<!-- 117 -->
<g id="node20" class="node">
<title>117</title>
<polygon fill="darkseagreen" stroke="black" points="774,-52 748,-52 748,-16 774,-16 774,-52"/>
<text text-anchor="middle" x="761" y="-30.3" font-family="Times,serif" font-size="14.00">2</text>
</g>
<!-- 00&#45;&gt;117 -->
<g id="edge18" class="edge">
<title>00&#45;&gt;117</title>
<path fill="none" stroke="black" d="M909.3,-89.66C867.47,-81.78 822.23,-69.9 783,-52 782.91,-51.96 782.81,-51.91 782.72,-51.87"/>
<polygon fill="black" stroke="black" points="784.71,-48.98 774.34,-46.83 781.11,-54.98 784.71,-48.98"/>
</g>
<!-- 118 -->
<g id="node21" class="node">
<title>118</title>
<polygon fill="darkseagreen" stroke="black" points="818,-52 792,-52 792,-16 818,-16 818,-52"/>
<text text-anchor="middle" x="805" y="-30.3" font-family="Times,serif" font-size="14.00">2</text>
</g>
<!-- 00&#45;&gt;118 -->
<g id="edge19" class="edge">
<title>00&#45;&gt;118</title>
<path fill="none" stroke="black" d="M941.22,-88.93C903.95,-80.85 862.51,-69.03 827,-52 826.91,-51.96 826.82,-51.91 826.72,-51.87"/>
<polygon fill="black" stroke="black" points="828.73,-48.99 818.38,-46.74 825.07,-54.96 828.73,-48.99"/>
</g>
<!-- 119 -->
<g id="node22" class="node">
<title>119</title>
<polygon fill="darkseagreen" stroke="black" points="862,-52 836,-52 836,-16 862,-16 862,-52"/>
<text text-anchor="middle" x="849" y="-30.3" font-family="Times,serif" font-size="14.00">2</text>
</g>
<!-- 00&#45;&gt;119 -->
<g id="edge20" class="edge">
<title>00&#45;&gt;119</title>
<path fill="none" stroke="black" d="M970.58,-88.5C938.76,-79.99 902.07,-67.99 871,-52 870.91,-51.95 870.82,-51.91 870.73,-51.86"/>
<polygon fill="black" stroke="black" points="872.77,-49.01 862.45,-46.61 869.02,-54.92 872.77,-49.01"/>
</g>
<!-- 120 -->
<g id="node23" class="node">
<title>120</title>
<polygon fill="darkseagreen" stroke="black" points="906,-52 880,-52 880,-16 906,-16 906,-52"/>
<text text-anchor="middle" x="893" y="-30.3" font-family="Times,serif" font-size="14.00">2</text>
</g>
<!-- 00&#45;&gt;120 -->
<g id="edge21" class="edge">
<title>00&#45;&gt;120</title>
<path fill="none" stroke="black" d="M995.65,-88.14C970.57,-78.97 940.4,-66.54 915,-52 914.81,-51.89 914.62,-51.78 914.43,-51.67"/>
<polygon fill="black" stroke="black" points="916.33,-48.73 906.08,-46.05 912.42,-54.54 916.33,-48.73"/>
</g>
<!-- 121 -->
<g id="node24" class="node">
<title>121</title>
<polygon fill="darkseagreen" stroke="black" points="950,-52 924,-52 924,-16 950,-16 950,-52"/>
<text text-anchor="middle" x="937" y="-30.3" font-family="Times,serif" font-size="14.00">2</text>
</g>
<!-- 00&#45;&gt;121 -->
<g id="edge22" class="edge">
<title>00&#45;&gt;121</title>
<path fill="none" stroke="black" d="M1016.72,-87.93C999.5,-77.93 977.69,-64.79 959,-52 958.82,-51.88 958.64,-51.75 958.46,-51.63"/>
<polygon fill="black" stroke="black" points="960.45,-48.75 950.31,-45.68 956.33,-54.4 960.45,-48.75"/>
</g>
<!-- 122 -->
<g id="node25" class="node">
<title>122</title>
<polygon fill="darkseagreen" stroke="black" points="994,-52 968,-52 968,-16 994,-16 994,-52"/>
<text text-anchor="middle" x="981" y="-30.3" font-family="Times,serif" font-size="14.00">3</text>
</g>
<!-- 00&#45;&gt;122 -->
<g id="edge23" class="edge">
<title>00&#45;&gt;122</title>
<path fill="none" stroke="black" d="M1030.69,-87.7C1021.68,-78.15 1010.43,-66.21 1000.91,-56.12"/>
<polygon fill="black" stroke="black" points="1003.44,-53.7 994.03,-48.82 998.35,-58.5 1003.44,-53.7"/>
</g>
<!-- 123 -->
<g id="node26" class="node">
<title>123</title>
<polygon fill="darkseagreen" stroke="black" points="1038,-52 1012,-52 1012,-16 1038,-16 1038,-52"/>
<text text-anchor="middle" x="1025" y="-30.3" font-family="Times,serif" font-size="14.00">3</text>
</g>
<!-- 00&#45;&gt;123 -->
<g id="edge24" class="edge">
<title>00&#45;&gt;123</title>
<path fill="none" stroke="black" d="M1041.56,-87.7C1039.11,-79.9 1036.16,-70.51 1033.43,-61.83"/>
<polygon fill="black" stroke="black" points="1036.71,-60.59 1030.38,-52.1 1030.04,-62.69 1036.71,-60.59"/>
</g>
<!-- 124 -->
<g id="node27" class="node">
<title>124</title>
<polygon fill="darkseagreen" stroke="black" points="1082,-52 1056,-52 1056,-16 1082,-16 1082,-52"/>
<text text-anchor="middle" x="1069" y="-30.3" font-family="Times,serif" font-size="14.00">4</text>
</g>
<!-- 00&#45;&gt;124 -->
<g id="edge25" class="edge">
<title>00&#45;&gt;124</title>
<path fill="none" stroke="black" d="M1052.44,-87.7C1054.89,-79.9 1057.84,-70.51 1060.57,-61.83"/>
<polygon fill="black" stroke="black" points="1063.96,-62.69 1063.62,-52.1 1057.29,-60.59 1063.96,-62.69"/>
</g>
<!-- 125 -->
<g id="node28" class="node">
<title>125</title>
<polygon fill="darkseagreen" stroke="black" points="1126,-52 1100,-52 1100,-16 1126,-16 1126,-52"/>
<text text-anchor="middle" x="1113" y="-30.3" font-family="Times,serif" font-size="14.00">5</text>
</g>
<!-- 00&#45;&gt;125 -->
<g id="edge26" class="edge">
<title>00&#45;&gt;125</title>
<path fill="none" stroke="black" d="M1063.31,-87.7C1072.32,-78.15 1083.57,-66.21 1093.09,-56.12"/>
<polygon fill="black" stroke="black" points="1095.65,-58.5 1099.97,-48.82 1090.56,-53.7 1095.65,-58.5"/>
</g>
<!-- 126 -->
<g id="node29" class="node">
<title>126</title>
<polygon fill="darkseagreen" stroke="black" points="1170,-52 1144,-52 1144,-16 1170,-16 1170,-52"/>
<text text-anchor="middle" x="1157" y="-30.3" font-family="Times,serif" font-size="14.00">6</text>
</g>
<!-- 00&#45;&gt;126 -->
<g id="edge27" class="edge">
<title>00&#45;&gt;126</title>
<path fill="none" stroke="black" d="M1077.28,-87.93C1094.5,-77.93 1116.31,-64.79 1135,-52 1135.18,-51.88 1135.36,-51.75 1135.54,-51.63"/>
<polygon fill="black" stroke="black" points="1137.67,-54.4 1143.69,-45.68 1133.55,-48.75 1137.67,-54.4"/>
</g>
<!-- 127 -->
<g id="node30" class="node">
<title>127</title>
<polygon fill="darkseagreen" stroke="black" points="1214,-52 1188,-52 1188,-16 1214,-16 1214,-52"/>
<text text-anchor="middle" x="1201" y="-30.3" font-family="Times,serif" font-size="14.00">6</text>
</g>
<!-- 00&#45;&gt;127 -->
<g id="edge28" class="edge">
<title>00&#45;&gt;127</title>
<path fill="none" stroke="black" d="M1098.35,-88.14C1123.43,-78.97 1153.6,-66.54 1179,-52 1179.19,-51.89 1179.38,-51.78 1179.57,-51.67"/>
<polygon fill="black" stroke="black" points="1181.58,-54.54 1187.92,-46.05 1177.67,-48.73 1181.58,-54.54"/>
</g>
<!-- 128 -->
<g id="node31" class="node">
<title>128</title>
<polygon fill="darkseagreen" stroke="black" points="1258,-52 1232,-52 1232,-16 1258,-16 1258,-52"/>
<text text-anchor="middle" x="1245" y="-30.3" font-family="Times,serif" font-size="14.00">6</text>
</g>
<!-- 00&#45;&gt;128 -->
<g id="edge29" class="edge">
<title>00&#45;&gt;128</title>
<path fill="none" stroke="black" d="M1123.42,-88.5C1155.24,-79.99 1191.93,-67.99 1223,-52 1223.09,-51.95 1223.18,-51.91 1223.27,-51.86"/>
<polygon fill="black" stroke="black" points="1224.98,-54.92 1231.55,-46.61 1221.23,-49.01 1224.98,-54.92"/>
</g>
<!-- 129 -->
<g id="node32" class="node">
<title>129</title>
<polygon fill="darkseagreen" stroke="black" points="1302,-52 1276,-52 1276,-16 1302,-16 1302,-52"/>
<text text-anchor="middle" x="1289" y="-30.3" font-family="Times,serif" font-size="14.00">7</text>
</g>
<!-- 00&#45;&gt;129 -->
<g id="edge30" class="edge">
<title>00&#45;&gt;129</title>
<path fill="none" stroke="black" d="M1152.78,-88.93C1190.05,-80.85 1231.49,-69.03 1267,-52 1267.09,-51.96 1267.18,-51.91 1267.28,-51.87"/>
<polygon fill="black" stroke="black" points="1268.93,-54.96 1275.62,-46.74 1265.27,-48.99 1268.93,-54.96"/>
</g>
<!-- 130 -->
<g id="node33" class="node">
<title>130</title>
<polygon fill="darkseagreen" stroke="black" points="1346,-52 1320,-52 1320,-16 1346,-16 1346,-52"/>
<text text-anchor="middle" x="1333" y="-30.3" font-family="Times,serif" font-size="14.00">9</text>
</g>
<!-- 00&#45;&gt;130 -->
<g id="edge31" class="edge">
<title>00&#45;&gt;130</title>
<path fill="none" stroke="black" d="M1184.7,-89.66C1226.53,-81.78 1271.77,-69.9 1311,-52 1311.09,-51.96 1311.19,-51.91 1311.28,-51.87"/>
<polygon fill="black" stroke="black" points="1312.89,-54.98 1319.66,-46.83 1309.29,-48.98 1312.89,-54.98"/>
</g>
<!-- 131 -->
<g id="node34" class="node">
<title>131</title>
<polygon fill="darkseagreen" stroke="black" points="1390,-52 1364,-52 1364,-16 1390,-16 1390,-52"/>
<text text-anchor="middle" x="1377" y="-30.3" font-family="Times,serif" font-size="14.00">9</text>
</g>
<!-- 00&#45;&gt;131 -->
<g id="edge32" class="edge">
<title>00&#45;&gt;131</title>
<path fill="none" stroke="black" d="M1217.97,-90.7C1263.79,-82.85 1312.41,-70.72 1355,-52 1355.09,-51.96 1355.19,-51.92 1355.28,-51.87"/>
<polygon fill="black" stroke="black" points="1356.87,-55 1363.69,-46.9 1353.3,-48.98 1356.87,-55"/>
</g>
<!-- 132 -->
<g id="node35" class="node">
<title>132</title>
<polygon fill="darkseagreen" stroke="black" points="1443.5,-52 1408.5,-52 1408.5,-16 1443.5,-16 1443.5,-52"/>
<text text-anchor="middle" x="1426" y="-30.3" font-family="Times,serif" font-size="14.00">11</text>
</g>
<!-- 00&#45;&gt;132 -->
<g id="edge33" class="edge">
<title>00&#45;&gt;132</title>
<path fill="none" stroke="black" d="M1234.67,-91.28C1288.86,-83.46 1347.3,-71.21 1399,-52 1399.1,-51.96 1399.19,-51.93 1399.29,-51.89"/>
<polygon fill="black" stroke="black" points="1400.73,-55.08 1408.23,-47.6 1397.7,-48.77 1400.73,-55.08"/>
</g>
<!-- 133 -->
<g id="node36" class="node">
<title>133</title>
<polygon fill="darkseagreen" stroke="black" points="1496.5,-52 1461.5,-52 1461.5,-16 1496.5,-16 1496.5,-52"/>
<text text-anchor="middle" x="1479" y="-30.3" font-family="Times,serif" font-size="14.00">13</text>
</g>
<!-- 00&#45;&gt;133 -->
<g id="edge34" class="edge">
<title>00&#45;&gt;133</title>
<path fill="none" stroke="black" d="M1271.8,-93.01C1331.6,-85.15 1395.3,-72.44 1452,-52 1452.1,-51.96 1452.2,-51.93 1452.29,-51.89"/>
<polygon fill="black" stroke="black" points="1453.71,-55.09 1461.25,-47.65 1450.72,-48.77 1453.71,-55.09"/>
</g>
<!-- 134 -->
<g id="node37" class="node">
<title>134</title>
<polygon fill="darkseagreen" stroke="black" points="1549.5,-52 1514.5,-52 1514.5,-16 1549.5,-16 1549.5,-52"/>
<text text-anchor="middle" x="1532" y="-30.3" font-family="Times,serif" font-size="14.00">14</text>
</g>
<!-- 00&#45;&gt;134 -->
<g id="edge35" class="edge">
<title>00&#45;&gt;134</title>
<path fill="none" stroke="black" d="M1237.66,-91.44C1340.61,-82.45 1456.35,-69.13 1505,-52 1505.1,-51.97 1505.2,-51.93 1505.29,-51.9"/>
<polygon fill="black" stroke="black" points="1506.69,-55.1 1514.27,-47.7 1503.73,-48.76 1506.69,-55.1"/>
</g>
<!-- 135 -->
<g id="node38" class="node">
<title>135</title>
<polygon fill="darkseagreen" stroke="black" points="1602.5,-52 1567.5,-52 1567.5,-16 1602.5,-16 1602.5,-52"/>
<text text-anchor="middle" x="1585" y="-30.3" font-family="Times,serif" font-size="14.00">15</text>
</g>
<!-- 00&#45;&gt;135 -->
<g id="edge36" class="edge">
<title>00&#45;&gt;135</title>
<path fill="none" stroke="black" d="M1261.7,-92.5C1376.05,-83.92 1503.99,-70.66 1558,-52 1558.1,-51.97 1558.2,-51.93 1558.29,-51.9"/>
<polygon fill="black" stroke="black" points="1559.68,-55.11 1567.28,-47.73 1556.73,-48.76 1559.68,-55.11"/>
</g>
<!-- 136 -->
<g id="node39" class="node">
<title>136</title>
<polygon fill="darkseagreen" stroke="black" points="1655.5,-52 1620.5,-52 1620.5,-16 1655.5,-16 1655.5,-52"/>
<text text-anchor="middle" x="1638" y="-30.3" font-family="Times,serif" font-size="14.00">15</text>
</g>
<!-- 00&#45;&gt;136 -->
<g id="edge37" class="edge">
<title>00&#45;&gt;136</title>
<path fill="none" stroke="black" d="M1284.31,-93.7C1410.41,-85.52 1551.41,-72.27 1611,-52 1611.1,-51.97 1611.2,-51.93 1611.3,-51.9"/>
<polygon fill="black" stroke="black" points="1612.67,-55.12 1620.29,-47.75 1609.74,-48.76 1612.67,-55.12"/>
</g>
<!-- 137 -->
<g id="node40" class="node">
<title>137</title>
<polygon fill="darkseagreen" stroke="black" points="1708.5,-52 1673.5,-52 1673.5,-16 1708.5,-16 1708.5,-52"/>
<text text-anchor="middle" x="1691" y="-30.3" font-family="Times,serif" font-size="14.00">21</text>
</g>
<!-- 00&#45;&gt;137 -->
<g id="edge38" class="edge">
<title>00&#45;&gt;137</title>
<path fill="none" stroke="black" d="M1304.56,-95.03C1443.01,-87.27 1598.45,-74 1664,-52 1664.1,-51.97 1664.2,-51.93 1664.3,-51.9"/>
<polygon fill="black" stroke="black" points="1665.66,-55.12 1673.3,-47.78 1662.75,-48.76 1665.66,-55.12"/>
</g>
<!-- 138 -->
<g id="node41" class="node">
<title>138</title>
<polygon fill="darkseagreen" stroke="black" points="1761.5,-52 1726.5,-52 1726.5,-16 1761.5,-16 1761.5,-52"/>
<text text-anchor="middle" x="1744" y="-30.3" font-family="Times,serif" font-size="14.00">23</text>
</g>
<!-- 00&#45;&gt;138 -->
<g id="edge39" class="edge">
<title>00&#45;&gt;138</title>
<path fill="none" stroke="black" d="M1322.27,-96.46C1473.7,-89.16 1645.09,-75.87 1717,-52 1717.1,-51.97 1717.2,-51.93 1717.3,-51.9"/>
<polygon fill="black" stroke="black" points="1718.65,-55.13 1726.3,-47.8 1715.75,-48.76 1718.65,-55.13"/>
</g>
<!-- 139 -->
<g id="node42" class="node">
<title>139</title>
<polygon fill="darkseagreen" stroke="black" points="1814.5,-52 1779.5,-52 1779.5,-16 1814.5,-16 1814.5,-52"/>
<text text-anchor="middle" x="1797" y="-30.3" font-family="Times,serif" font-size="14.00">28</text>
</g>
<!-- 00&#45;&gt;139 -->
<g id="edge40" class="edge">
<title>00&#45;&gt;139</title>
<path fill="none" stroke="black" d="M1336.96,-97.96C1502.05,-91.17 1691.24,-77.89 1770,-52 1770.1,-51.97 1770.2,-51.93 1770.3,-51.9"/>
<polygon fill="black" stroke="black" points="1771.65,-55.13 1779.31,-47.81 1768.75,-48.76 1771.65,-55.13"/>
</g>
<!-- 140 -->
<g id="node43" class="node">
<title>140</title>
<polygon fill="darkseagreen" stroke="black" points="1867.5,-52 1832.5,-52 1832.5,-16 1867.5,-16 1867.5,-52"/>
<text text-anchor="middle" x="1850" y="-30.3" font-family="Times,serif" font-size="14.00">36</text>
</g>
<!-- 00&#45;&gt;140 -->
<g id="edge41" class="edge">
<title>00&#45;&gt;140</title>
<path fill="none" stroke="black" d="M1349.13,-99.46C1528.4,-93.24 1736.98,-80.04 1823,-52 1823.1,-51.97 1823.2,-51.94 1823.3,-51.9"/>
<polygon fill="black" stroke="black" points="1824.64,-55.13 1832.31,-47.83 1821.76,-48.76 1824.64,-55.13"/>
</g>
<!-- 141 -->
<g id="node44" class="node">
<title>141</title>
<polygon fill="darkseagreen" stroke="black" points="1920.5,-52 1885.5,-52 1885.5,-16 1920.5,-16 1920.5,-52"/>
<text text-anchor="middle" x="1903" y="-30.3" font-family="Times,serif" font-size="14.00">94</text>
</g>
<!-- 00&#45;&gt;141 -->
<g id="edge42" class="edge">
<title>00&#45;&gt;141</title>
<path fill="none" stroke="black" d="M1358.26,-100.96C1552.25,-95.39 1782.22,-82.34 1876,-52 1876.1,-51.97 1876.2,-51.94 1876.3,-51.9"/>
<polygon fill="black" stroke="black" points="1877.64,-55.14 1885.32,-47.84 1874.76,-48.76 1877.64,-55.14"/>
</g>
<!-- 142 -->
<g id="node45" class="node">
<title>142</title>
<polygon fill="darkseagreen" stroke="black" points="1983,-52 1939,-52 1939,-16 1983,-16 1983,-52"/>
<text text-anchor="middle" x="1961" y="-30.3" font-family="Times,serif" font-size="14.00">124</text>
</g>
<!-- 00&#45;&gt;142 -->
<g id="edge43" class="edge">
<title>00&#45;&gt;142</title>
<path fill="none" stroke="black" d="M1354.68,-100.34C1565.16,-94.52 1824.34,-81.44 1929,-52 1929.1,-51.97 1929.2,-51.94 1929.31,-51.91"/>
<polygon fill="black" stroke="black" points="1930.66,-55.14 1938.78,-48.33 1928.19,-48.59 1930.66,-55.14"/>
</g>
<!-- 143 -->
<g id="node46" class="node">
<title>143</title>
<polygon fill="darkseagreen" stroke="black" points="2045,-52 2001,-52 2001,-16 2045,-16 2045,-52"/>
<text text-anchor="middle" x="2023" y="-30.3" font-family="Times,serif" font-size="14.00">200</text>
</g>
<!-- 00&#45;&gt;143 -->
<g id="edge44" class="edge">
<title>00&#45;&gt;143</title>
<path fill="none" stroke="black" d="M1363.69,-102.19C1585.71,-97.47 1863.36,-85.31 1991.14,-51.36"/>
<polygon fill="black" stroke="black" points="1992.12,-54.72 2000.82,-48.67 1990.24,-47.98 1992.12,-54.72"/>
</g>
<!-- 144 -->
<g id="node47" class="node">
<title>144</title>
<polygon fill="darkseagreen" stroke="black" points="2135,-52 2063,-52 2063,-16 2135,-16 2135,-52"/>
<text text-anchor="middle" x="2099" y="-30.3" font-family="Times,serif" font-size="14.00">290</text>
</g>
<!-- 00&#45;&gt;144 -->
<g id="edge45" class="edge">
<title>00&#45;&gt;144</title>
<path fill="none" stroke="black" d="M1348.21,-99.34C1589.31,-92.97 1908.78,-79.88 2052.87,-51.77"/>
<polygon fill="black" stroke="black" points="2053.84,-55.14 2062.94,-49.72 2052.44,-48.28 2053.84,-55.14"/>
</g>
<!-- 145 -->
<g id="node48" class="node">
<title>145</title>
<polygon fill="darkseagreen" stroke="black" points="2225,-52 2153,-52 2153,-16 2225,-16 2225,-52"/>
<text text-anchor="middle" x="2189" y="-30.3" font-family="Times,serif" font-size="14.00">324</text>
</g>
<!-- 00&#45;&gt;145 -->
<g id="edge46" class="edge">
<title>00&#45;&gt;145</title>
<path fill="none" stroke="black" d="M1357.29,-100.78C1622.17,-95.25 1983.46,-82.59 2142.74,-51.79"/>
<polygon fill="black" stroke="black" points="2143.83,-55.14 2152.94,-49.73 2142.45,-48.28 2143.83,-55.14"/>
</g>
<!-- 146 -->
<g id="node49" class="node">
<title>146</title>
<polygon fill="darkseagreen" stroke="black" points="2315,-52 2243,-52 2243,-16 2315,-16 2315,-52"/>
<text text-anchor="middle" x="2279" y="-30.3" font-family="Times,serif" font-size="14.00">349</text>
</g>
<!-- 00&#45;&gt;146 -->
<g id="edge47" class="edge">
<title>00&#45;&gt;146</title>
<path fill="none" stroke="black" d="M1363.4,-102.12C1652.07,-97.48 2058.19,-85.39 2233.03,-51.73"/>
<polygon fill="black" stroke="black" points="2233.83,-55.14 2242.94,-49.74 2232.45,-48.27 2233.83,-55.14"/>
</g>
<!-- 147 -->
<g id="node50" class="node">
<title>147</title>
<polygon fill="darkseagreen" stroke="black" points="2405,-52 2333,-52 2333,-16 2405,-16 2405,-52"/>
<text text-anchor="middle" x="2369" y="-30.3" font-family="Times,serif" font-size="14.00">358</text>
</g>
<!-- 00&#45;&gt;147 -->
<g id="edge48" class="edge">
<title>00&#45;&gt;147</title>
<path fill="none" stroke="black" d="M1367.69,-103.33C1679.51,-99.64 2132,-88.28 2322.95,-51.74"/>
<polygon fill="black" stroke="black" points="2323.82,-55.14 2332.95,-49.75 2322.46,-48.27 2323.82,-55.14"/>
</g>
<!-- legend_0 -->
<g id="node2" class="node">
<title>legend_0</title>
<polygon fill="#b9d3ee" stroke="black" points="2644.5,-124 2423.5,-124 2423.5,-88 2644.5,-88 2644.5,-124"/>
<text text-anchor="middle" x="2534" y="-102.3" font-family="Times,serif" font-size="14.00">DT=5 ST=5 Similarity=0.28</text>
</g>
<!-- legend_1 -->
<g id="node51" class="node">
<title>legend_1</title>
<polygon fill="darkseagreen" stroke="black" points="2644.5,-52 2423.5,-52 2423.5,-16 2644.5,-16 2644.5,-52"/>
<text text-anchor="middle" x="2534" y="-30.3" font-family="Times,serif" font-size="14.00">DT=6 ST=1 Similarity=0.51</text>
</g>
<!-- legend_0&#45;&gt;legend_1 -->
<g id="edge49" class="edge">
<title>legend_0&#45;&gt;legend_1</title>
<path fill="none" stroke="black" d="M2534,-87.7C2534,-79.98 2534,-70.71 2534,-62.11"/>
<polygon fill="black" stroke="black" points="2537.5,-62.1 2534,-52.1 2530.5,-62.1 2537.5,-62.1"/>
</g>
</g>
</svg>
