<?xml version="1.0" encoding="UTF-8" standalone="no"?>
<!DOCTYPE svg PUBLIC "-//W3C//DTD SVG 1.1//EN"
 "http://www.w3.org/Graphics/SVG/1.1/DTD/svg11.dtd">
<!-- Generated by graphviz version 2.43.0 (0)
 -->
<!-- Title: %3 Pages: 1 -->
<svg width="2539pt" height="497pt"
 viewBox="0.00 0.00 2538.90 497.00" xmlns="http://www.w3.org/2000/svg" xmlns:xlink="http://www.w3.org/1999/xlink">
<g id="graph0" class="graph" transform="scale(1 1) rotate(0) translate(4 493)">
<title>%3</title>
<polygon fill="white" stroke="transparent" points="-4,4 -4,-493 2534.9,-493 2534.9,4 -4,4"/>
<text text-anchor="middle" x="1265.45" y="-473.8" font-family="Times,serif" font-size="14.00">ConsTree</text>
<text text-anchor="middle" x="1265.45" y="-458.8" font-family="Times,serif" font-size="14.00">Tree Quality = 1</text>
<g id="clust1" class="cluster">
<title>cluster</title>
<polygon fill="none" stroke="black" points="2286.9,-8 2286.9,-443 2522.9,-443 2522.9,-8 2286.9,-8"/>
<text text-anchor="middle" x="2404.9" y="-427.8" font-family="Times,serif" font-size="14.00">Legend</text>
</g>
<!-- 00 -->
<g id="node1" class="node">
<title>00</title>
<ellipse fill="#b9d3ee" stroke="black" cx="830.9" cy="-394" rx="108" ry="18"/>
<text text-anchor="middle" x="830.9" y="-390.3" font-family="Times,serif" font-size="14.00">812</text>
</g>
<!-- 11 -->
<g id="node5" class="node">
<title>11</title>
<ellipse fill="#b9d3ee" stroke="black" cx="1197.9" cy="-322" rx="108" ry="18"/>
<text text-anchor="middle" x="1197.9" y="-318.3" font-family="Times,serif" font-size="14.00">770</text>
</g>
<!-- 00&#45;&gt;11 -->
<g id="edge2" class="edge">
<title>00&#45;&gt;11</title>
<path fill="none" stroke="black" d="M899.07,-380C961.67,-368.06 1054.39,-350.37 1119.91,-337.87"/>
<polygon fill="black" stroke="black" points="1120.62,-341.3 1129.78,-335.99 1119.3,-334.43 1120.62,-341.3"/>
</g>
<!-- 12 -->
<g id="node6" class="node">
<title>12</title>
<ellipse fill="#b9d3ee" stroke="black" cx="822.9" cy="-322" rx="108" ry="18"/>
<text text-anchor="middle" x="822.9" y="-318.3" font-family="Times,serif" font-size="14.00">794</text>
</g>
<!-- 00&#45;&gt;12 -->
<g id="edge4" class="edge">
<title>00&#45;&gt;12</title>
<path fill="none" stroke="black" d="M828.92,-375.7C828.04,-367.98 826.98,-358.71 826,-350.11"/>
<polygon fill="black" stroke="black" points="829.47,-349.64 824.85,-340.1 822.51,-350.44 829.47,-349.64"/>
</g>
<!-- 01 -->
<g id="node2" class="node">
<title>01</title>
<ellipse fill="#b9d3ee" stroke="black" cx="1197.9" cy="-394" rx="180" ry="18"/>
<text text-anchor="middle" x="1197.9" y="-390.3" font-family="Times,serif" font-size="14.00">1188</text>
</g>
<!-- 10 -->
<g id="node4" class="node">
<title>10</title>
<ellipse fill="#b9d3ee" stroke="black" cx="1528.9" cy="-322" rx="36" ry="18"/>
<text text-anchor="middle" x="1528.9" y="-318.3" font-family="Times,serif" font-size="14.00">436</text>
</g>
<!-- 01&#45;&gt;10 -->
<g id="edge1" class="edge">
<title>01&#45;&gt;10</title>
<path fill="none" stroke="black" d="M1271.36,-377.46C1337.38,-363.5 1432.06,-343.48 1486.33,-332"/>
<polygon fill="black" stroke="black" points="1487.24,-335.39 1496.3,-329.89 1485.79,-328.54 1487.24,-335.39"/>
</g>
<!-- 01&#45;&gt;11 -->
<g id="edge3" class="edge">
<title>01&#45;&gt;11</title>
<path fill="none" stroke="black" d="M1197.9,-375.7C1197.9,-367.98 1197.9,-358.71 1197.9,-350.11"/>
<polygon fill="black" stroke="black" points="1201.4,-350.1 1197.9,-340.1 1194.4,-350.1 1201.4,-350.1"/>
</g>
<!-- 01&#45;&gt;12 -->
<g id="edge5" class="edge">
<title>01&#45;&gt;12</title>
<path fill="none" stroke="black" d="M1116.99,-377.9C1053.33,-366.01 965.11,-349.55 901.94,-337.75"/>
<polygon fill="black" stroke="black" points="902.49,-334.3 892.02,-335.9 901.21,-341.18 902.49,-334.3"/>
</g>
<!-- legend_0 -->
<g id="node3" class="node">
<title>legend_0</title>
<polygon fill="#b9d3ee" stroke="black" points="2515.4,-412 2294.4,-412 2294.4,-376 2515.4,-376 2515.4,-412"/>
<text text-anchor="middle" x="2404.9" y="-390.3" font-family="Times,serif" font-size="14.00">DT=1 ST=1 Similarity=0.47</text>
</g>
<!-- legend_1 -->
<g id="node7" class="node">
<title>legend_1</title>
<polygon fill="#b9d3ee" stroke="black" points="2515.4,-340 2294.4,-340 2294.4,-304 2515.4,-304 2515.4,-340"/>
<text text-anchor="middle" x="2404.9" y="-318.3" font-family="Times,serif" font-size="14.00">DT=2 ST=1 Similarity=0.57</text>
</g>
<!-- legend_0&#45;&gt;legend_1 -->
<g id="edge6" class="edge">
<title>legend_0&#45;&gt;legend_1</title>
<path fill="none" stroke="black" d="M2404.9,-375.7C2404.9,-367.98 2404.9,-358.71 2404.9,-350.11"/>
<polygon fill="black" stroke="black" points="2408.4,-350.1 2404.9,-340.1 2401.4,-350.1 2408.4,-350.1"/>
</g>
<!-- 20 -->
<g id="node8" class="node">
<title>20</title>
<ellipse fill="#b9d3ee" stroke="black" cx="1621.9" cy="-250" rx="36" ry="18"/>
<text text-anchor="middle" x="1621.9" y="-246.3" font-family="Times,serif" font-size="14.00">397</text>
</g>
<!-- 10&#45;&gt;20 -->
<g id="edge7" class="edge">
<title>10&#45;&gt;20</title>
<path fill="none" stroke="black" d="M1548.17,-306.5C1561.51,-296.45 1579.47,-282.93 1594.33,-271.75"/>
<polygon fill="black" stroke="black" points="1596.77,-274.3 1602.65,-265.49 1592.56,-268.7 1596.77,-274.3"/>
</g>
<!-- 22 -->
<g id="node10" class="node">
<title>22</title>
<ellipse fill="#b9d3ee" stroke="black" cx="1528.9" cy="-250" rx="36" ry="18"/>
<text text-anchor="middle" x="1528.9" y="-246.3" font-family="Times,serif" font-size="14.00">410</text>
</g>
<!-- 10&#45;&gt;22 -->
<g id="edge9" class="edge">
<title>10&#45;&gt;22</title>
<path fill="none" stroke="black" d="M1528.9,-303.7C1528.9,-295.98 1528.9,-286.71 1528.9,-278.11"/>
<polygon fill="black" stroke="black" points="1532.4,-278.1 1528.9,-268.1 1525.4,-278.1 1532.4,-278.1"/>
</g>
<!-- 11&#45;&gt;22 -->
<g id="edge10" class="edge">
<title>11&#45;&gt;22</title>
<path fill="none" stroke="black" d="M1262.11,-307.42C1328.13,-293.46 1429.08,-272.11 1485.99,-260.07"/>
<polygon fill="black" stroke="black" points="1487.03,-263.43 1496.09,-257.94 1485.58,-256.58 1487.03,-263.43"/>
</g>
<!-- 23 -->
<g id="node11" class="node">
<title>23</title>
<ellipse fill="#b9d3ee" stroke="black" cx="1197.9" cy="-250" rx="36" ry="18"/>
<text text-anchor="middle" x="1197.9" y="-246.3" font-family="Times,serif" font-size="14.00">399</text>
</g>
<!-- 11&#45;&gt;23 -->
<g id="edge11" class="edge">
<title>11&#45;&gt;23</title>
<path fill="none" stroke="black" d="M1197.9,-303.7C1197.9,-295.98 1197.9,-286.71 1197.9,-278.11"/>
<polygon fill="black" stroke="black" points="1201.4,-278.1 1197.9,-268.1 1194.4,-278.1 1201.4,-278.1"/>
</g>
<!-- 21 -->
<g id="node9" class="node">
<title>21</title>
<ellipse fill="#b9d3ee" stroke="black" cx="791.9" cy="-250" rx="36" ry="18"/>
<text text-anchor="middle" x="791.9" y="-246.3" font-family="Times,serif" font-size="14.00">397</text>
</g>
<!-- 12&#45;&gt;21 -->
<g id="edge8" class="edge">
<title>12&#45;&gt;21</title>
<path fill="none" stroke="black" d="M815.24,-303.7C811.65,-295.61 807.32,-285.81 803.35,-276.87"/>
<polygon fill="black" stroke="black" points="806.51,-275.35 799.26,-267.62 800.11,-278.18 806.51,-275.35"/>
</g>
<!-- 24 -->
<g id="node12" class="node">
<title>24</title>
<ellipse fill="#b9d3ee" stroke="black" cx="686.9" cy="-250" rx="36" ry="18"/>
<text text-anchor="middle" x="686.9" y="-246.3" font-family="Times,serif" font-size="14.00">397</text>
</g>
<!-- 12&#45;&gt;24 -->
<g id="edge12" class="edge">
<title>12&#45;&gt;24</title>
<path fill="none" stroke="black" d="M791.36,-304.76C770.03,-293.79 741.91,-279.32 720.22,-268.15"/>
<polygon fill="black" stroke="black" points="721.55,-264.9 711.06,-263.43 718.35,-271.12 721.55,-264.9"/>
</g>
<!-- legend_2 -->
<g id="node13" class="node">
<title>legend_2</title>
<polygon fill="#b9d3ee" stroke="black" points="2515.4,-268 2294.4,-268 2294.4,-232 2515.4,-232 2515.4,-268"/>
<text text-anchor="middle" x="2404.9" y="-246.3" font-family="Times,serif" font-size="14.00">DT=3 ST=1 Similarity=0.71</text>
</g>
<!-- legend_1&#45;&gt;legend_2 -->
<g id="edge13" class="edge">
<title>legend_1&#45;&gt;legend_2</title>
<path fill="none" stroke="black" d="M2404.9,-303.7C2404.9,-295.98 2404.9,-286.71 2404.9,-278.11"/>
<polygon fill="black" stroke="black" points="2408.4,-278.1 2404.9,-268.1 2401.4,-278.1 2408.4,-278.1"/>
</g>
<!-- 32 -->
<g id="node16" class="node">
<title>32</title>
<polygon fill="darkseagreen" stroke="black" points="1664.9,-196 1592.9,-196 1592.9,-160 1664.9,-160 1664.9,-196"/>
<text text-anchor="middle" x="1628.9" y="-174.3" font-family="Times,serif" font-size="14.00">407</text>
</g>
<!-- 20&#45;&gt;32 -->
<g id="edge17" class="edge">
<title>20&#45;&gt;32</title>
<path fill="none" stroke="black" d="M1623.63,-231.7C1624.4,-223.98 1625.33,-214.71 1626.19,-206.11"/>
<polygon fill="black" stroke="black" points="1629.68,-206.4 1627.19,-196.1 1622.71,-205.71 1629.68,-206.4"/>
</g>
<!-- 30 -->
<g id="node14" class="node">
<title>30</title>
<polygon fill="darkseagreen" stroke="black" points="722.9,-196 650.9,-196 650.9,-160 722.9,-160 722.9,-196"/>
<text text-anchor="middle" x="686.9" y="-174.3" font-family="Times,serif" font-size="14.00">399</text>
</g>
<!-- 21&#45;&gt;30 -->
<g id="edge14" class="edge">
<title>21&#45;&gt;30</title>
<path fill="none" stroke="black" d="M771.15,-235.17C756.8,-225.6 737.38,-212.65 720.8,-201.6"/>
<polygon fill="black" stroke="black" points="722.69,-198.65 712.43,-196.02 718.81,-204.48 722.69,-198.65"/>
</g>
<!-- 22&#45;&gt;32 -->
<g id="edge18" class="edge">
<title>22&#45;&gt;32</title>
<path fill="none" stroke="black" d="M1549.13,-234.83C1562.62,-225.4 1580.64,-212.78 1596.14,-201.93"/>
<polygon fill="black" stroke="black" points="1598.27,-204.71 1604.45,-196.11 1594.25,-198.98 1598.27,-204.71"/>
</g>
<!-- 33 -->
<g id="node17" class="node">
<title>33</title>
<polygon fill="darkseagreen" stroke="black" points="1564.9,-196 1492.9,-196 1492.9,-160 1564.9,-160 1564.9,-196"/>
<text text-anchor="middle" x="1528.9" y="-174.3" font-family="Times,serif" font-size="14.00">400</text>
</g>
<!-- 22&#45;&gt;33 -->
<g id="edge19" class="edge">
<title>22&#45;&gt;33</title>
<path fill="none" stroke="black" d="M1528.9,-231.7C1528.9,-223.98 1528.9,-214.71 1528.9,-206.11"/>
<polygon fill="black" stroke="black" points="1532.4,-206.1 1528.9,-196.1 1525.4,-206.1 1532.4,-206.1"/>
</g>
<!-- 31 -->
<g id="node15" class="node">
<title>31</title>
<polygon fill="darkseagreen" stroke="black" points="1233.9,-196 1161.9,-196 1161.9,-160 1233.9,-160 1233.9,-196"/>
<text text-anchor="middle" x="1197.9" y="-174.3" font-family="Times,serif" font-size="14.00">399</text>
</g>
<!-- 23&#45;&gt;31 -->
<g id="edge16" class="edge">
<title>23&#45;&gt;31</title>
<path fill="none" stroke="black" d="M1197.9,-231.7C1197.9,-223.98 1197.9,-214.71 1197.9,-206.11"/>
<polygon fill="black" stroke="black" points="1201.4,-206.1 1197.9,-196.1 1194.4,-206.1 1201.4,-206.1"/>
</g>
<!-- 24&#45;&gt;30 -->
<g id="edge15" class="edge">
<title>24&#45;&gt;30</title>
<path fill="none" stroke="black" d="M686.9,-231.7C686.9,-223.98 686.9,-214.71 686.9,-206.11"/>
<polygon fill="black" stroke="black" points="690.4,-206.1 686.9,-196.1 683.4,-206.1 690.4,-206.1"/>
</g>
<!-- 34 -->
<g id="node18" class="node">
<title>34</title>
<polygon fill="darkseagreen" stroke="black" points="442.9,-196 370.9,-196 370.9,-160 442.9,-160 442.9,-196"/>
<text text-anchor="middle" x="406.9" y="-174.3" font-family="Times,serif" font-size="14.00">395</text>
</g>
<!-- 24&#45;&gt;34 -->
<g id="edge20" class="edge">
<title>24&#45;&gt;34</title>
<path fill="none" stroke="black" d="M655.32,-241.11C605.94,-228.76 510.19,-204.82 453.06,-190.54"/>
<polygon fill="black" stroke="black" points="453.76,-187.11 443.21,-188.08 452.06,-193.9 453.76,-187.11"/>
</g>
<!-- legend_3 -->
<g id="node19" class="node">
<title>legend_3</title>
<polygon fill="darkseagreen" stroke="black" points="2515.4,-196 2294.4,-196 2294.4,-160 2515.4,-160 2515.4,-196"/>
<text text-anchor="middle" x="2404.9" y="-174.3" font-family="Times,serif" font-size="14.00">DT=4 ST=1 Similarity=0.71</text>
</g>
<!-- legend_2&#45;&gt;legend_3 -->
<g id="edge21" class="edge">
<title>legend_2&#45;&gt;legend_3</title>
<path fill="none" stroke="black" d="M2404.9,-231.7C2404.9,-223.98 2404.9,-214.71 2404.9,-206.11"/>
<polygon fill="black" stroke="black" points="2408.4,-206.1 2404.9,-196.1 2401.4,-206.1 2408.4,-206.1"/>
</g>
<!-- 41 -->
<g id="node21" class="node">
<title>41</title>
<ellipse fill="#b9d3ee" stroke="black" cx="120.9" cy="-106" rx="16.8" ry="18"/>
<text text-anchor="middle" x="120.9" y="-102.3" font-family="Times,serif" font-size="14.00">4</text>
</g>
<!-- 30&#45;&gt;41 -->
<g id="edge23" class="edge">
<title>30&#45;&gt;41</title>
<path fill="none" stroke="black" d="M650.63,-172.51C545.14,-159.47 240.03,-121.73 147.69,-110.31"/>
<polygon fill="black" stroke="black" points="148.1,-106.84 137.75,-109.08 147.24,-113.79 148.1,-106.84"/>
</g>
<!-- 42 -->
<g id="node22" class="node">
<title>42</title>
<ellipse fill="#b9d3ee" stroke="black" cx="947.9" cy="-106" rx="16.8" ry="18"/>
<text text-anchor="middle" x="947.9" y="-102.3" font-family="Times,serif" font-size="14.00">5</text>
</g>
<!-- 30&#45;&gt;42 -->
<g id="edge25" class="edge">
<title>30&#45;&gt;42</title>
<path fill="none" stroke="black" d="M722.92,-167.34C776.22,-153.04 874.85,-126.59 921.78,-114.01"/>
<polygon fill="black" stroke="black" points="922.74,-117.37 931.5,-111.4 920.93,-110.61 922.74,-117.37"/>
</g>
<!-- 48 -->
<g id="node28" class="node">
<title>48</title>
<ellipse fill="#b9d3ee" stroke="black" cx="406.9" cy="-106" rx="36" ry="18"/>
<text text-anchor="middle" x="406.9" y="-102.3" font-family="Times,serif" font-size="14.00">394</text>
</g>
<!-- 30&#45;&gt;48 -->
<g id="edge34" class="edge">
<title>30&#45;&gt;48</title>
<path fill="none" stroke="black" d="M650.87,-167.99C598.86,-154.99 503.01,-131.03 448.21,-117.33"/>
<polygon fill="black" stroke="black" points="449.03,-113.92 438.48,-114.89 447.33,-120.72 449.03,-113.92"/>
</g>
<!-- 49 -->
<g id="node29" class="node">
<title>49</title>
<ellipse fill="#b9d3ee" stroke="black" cx="686.9" cy="-106" rx="36" ry="18"/>
<text text-anchor="middle" x="686.9" y="-102.3" font-family="Times,serif" font-size="14.00">395</text>
</g>
<!-- 30&#45;&gt;49 -->
<g id="edge37" class="edge">
<title>30&#45;&gt;49</title>
<path fill="none" stroke="black" d="M686.9,-159.7C686.9,-151.98 686.9,-142.71 686.9,-134.11"/>
<polygon fill="black" stroke="black" points="690.4,-134.1 686.9,-124.1 683.4,-134.1 690.4,-134.1"/>
</g>
<!-- 31&#45;&gt;42 -->
<g id="edge26" class="edge">
<title>31&#45;&gt;42</title>
<path fill="none" stroke="black" d="M1161.81,-166.9C1110.86,-152.63 1019.05,-126.92 974.11,-114.34"/>
<polygon fill="black" stroke="black" points="974.83,-110.91 964.25,-111.58 972.94,-117.65 974.83,-110.91"/>
</g>
<!-- 43 -->
<g id="node23" class="node">
<title>43</title>
<ellipse fill="#b9d3ee" stroke="black" cx="1424.9" cy="-106" rx="23" ry="18"/>
<text text-anchor="middle" x="1424.9" y="-102.3" font-family="Times,serif" font-size="14.00">18</text>
</g>
<!-- 31&#45;&gt;43 -->
<g id="edge27" class="edge">
<title>31&#45;&gt;43</title>
<path fill="none" stroke="black" d="M1234.12,-165.83C1278.52,-152.14 1352.98,-129.18 1394.53,-116.36"/>
<polygon fill="black" stroke="black" points="1395.58,-119.7 1404.1,-113.41 1393.51,-113.02 1395.58,-119.7"/>
</g>
<!-- 46 -->
<g id="node26" class="node">
<title>46</title>
<ellipse fill="#b9d3ee" stroke="black" cx="1197.9" cy="-106" rx="36" ry="18"/>
<text text-anchor="middle" x="1197.9" y="-102.3" font-family="Times,serif" font-size="14.00">388</text>
</g>
<!-- 31&#45;&gt;46 -->
<g id="edge31" class="edge">
<title>31&#45;&gt;46</title>
<path fill="none" stroke="black" d="M1197.9,-159.7C1197.9,-151.98 1197.9,-142.71 1197.9,-134.11"/>
<polygon fill="black" stroke="black" points="1201.4,-134.1 1197.9,-124.1 1194.4,-134.1 1201.4,-134.1"/>
</g>
<!-- 44 -->
<g id="node24" class="node">
<title>44</title>
<ellipse fill="#b9d3ee" stroke="black" cx="1971.9" cy="-106" rx="28.7" ry="18"/>
<text text-anchor="middle" x="1971.9" y="-102.3" font-family="Times,serif" font-size="14.00">177</text>
</g>
<!-- 32&#45;&gt;44 -->
<g id="edge29" class="edge">
<title>32&#45;&gt;44</title>
<path fill="none" stroke="black" d="M1664.96,-169.64C1730.59,-156.25 1868.88,-128.02 1935.08,-114.51"/>
<polygon fill="black" stroke="black" points="1935.96,-117.91 1945.06,-112.48 1934.56,-111.05 1935.96,-117.91"/>
</g>
<!-- 45 -->
<g id="node25" class="node">
<title>45</title>
<ellipse fill="#b9d3ee" stroke="black" cx="2158.9" cy="-106" rx="36" ry="18"/>
<text text-anchor="middle" x="2158.9" y="-102.3" font-family="Times,serif" font-size="14.00">227</text>
</g>
<!-- 32&#45;&gt;45 -->
<g id="edge30" class="edge">
<title>32&#45;&gt;45</title>
<path fill="none" stroke="black" d="M1664.91,-172.24C1758.95,-159.82 2011.73,-126.44 2114.52,-112.86"/>
<polygon fill="black" stroke="black" points="2115.11,-116.31 2124.57,-111.53 2114.19,-109.37 2115.11,-116.31"/>
</g>
<!-- 47 -->
<g id="node27" class="node">
<title>47</title>
<ellipse fill="#b9d3ee" stroke="black" cx="1658.9" cy="-106" rx="36" ry="18"/>
<text text-anchor="middle" x="1658.9" y="-102.3" font-family="Times,serif" font-size="14.00">391</text>
</g>
<!-- 32&#45;&gt;47 -->
<g id="edge32" class="edge">
<title>32&#45;&gt;47</title>
<path fill="none" stroke="black" d="M1636.31,-159.7C1639.69,-151.81 1643.77,-142.3 1647.52,-133.55"/>
<polygon fill="black" stroke="black" points="1650.85,-134.67 1651.57,-124.1 1644.41,-131.92 1650.85,-134.67"/>
</g>
<!-- 32&#45;&gt;48 -->
<g id="edge35" class="edge">
<title>32&#45;&gt;48</title>
<path fill="none" stroke="black" d="M1592.83,-164.39C1586.59,-162.63 1580.11,-161.06 1573.9,-160 1369.59,-125.1 848.85,-135.48 641.9,-124 576.02,-120.35 499.86,-114.55 452.53,-110.76"/>
<polygon fill="black" stroke="black" points="452.56,-107.25 442.31,-109.93 451.99,-114.23 452.56,-107.25"/>
</g>
<!-- 40 -->
<g id="node20" class="node">
<title>40</title>
<ellipse fill="#b9d3ee" stroke="black" cx="1528.9" cy="-106" rx="16.8" ry="18"/>
<text text-anchor="middle" x="1528.9" y="-102.3" font-family="Times,serif" font-size="14.00">1</text>
</g>
<!-- 33&#45;&gt;40 -->
<g id="edge22" class="edge">
<title>33&#45;&gt;40</title>
<path fill="none" stroke="black" d="M1528.9,-159.7C1528.9,-151.98 1528.9,-142.71 1528.9,-134.11"/>
<polygon fill="black" stroke="black" points="1532.4,-134.1 1528.9,-124.1 1525.4,-134.1 1532.4,-134.1"/>
</g>
<!-- 33&#45;&gt;43 -->
<g id="edge28" class="edge">
<title>33&#45;&gt;43</title>
<path fill="none" stroke="black" d="M1503.46,-159.88C1487.22,-148.95 1466.26,-134.84 1450.08,-123.95"/>
<polygon fill="black" stroke="black" points="1451.89,-120.95 1441.64,-118.27 1447.98,-126.75 1451.89,-120.95"/>
</g>
<!-- 33&#45;&gt;47 -->
<g id="edge33" class="edge">
<title>33&#45;&gt;47</title>
<path fill="none" stroke="black" d="M1560.7,-159.88C1580.56,-149.18 1606.06,-135.45 1626.11,-124.66"/>
<polygon fill="black" stroke="black" points="1628.03,-127.6 1635.17,-119.78 1624.71,-121.44 1628.03,-127.6"/>
</g>
<!-- 34&#45;&gt;41 -->
<g id="edge24" class="edge">
<title>34&#45;&gt;41</title>
<path fill="none" stroke="black" d="M370.68,-168.13C312.3,-153.85 198.77,-126.06 147.34,-113.47"/>
<polygon fill="black" stroke="black" points="147.9,-110.01 137.35,-111.03 146.24,-116.8 147.9,-110.01"/>
</g>
<!-- 34&#45;&gt;48 -->
<g id="edge36" class="edge">
<title>34&#45;&gt;48</title>
<path fill="none" stroke="black" d="M406.9,-159.7C406.9,-151.98 406.9,-142.71 406.9,-134.11"/>
<polygon fill="black" stroke="black" points="410.4,-134.1 406.9,-124.1 403.4,-134.1 410.4,-134.1"/>
</g>
<!-- legend_4 -->
<g id="node30" class="node">
<title>legend_4</title>
<polygon fill="#b9d3ee" stroke="black" points="2515.4,-124 2294.4,-124 2294.4,-88 2515.4,-88 2515.4,-124"/>
<text text-anchor="middle" x="2404.9" y="-102.3" font-family="Times,serif" font-size="14.00">DT=5 ST=1 Similarity=0.64</text>
</g>
<!-- legend_3&#45;&gt;legend_4 -->
<g id="edge38" class="edge">
<title>legend_3&#45;&gt;legend_4</title>
<path fill="none" stroke="black" d="M2404.9,-159.7C2404.9,-151.98 2404.9,-142.71 2404.9,-134.11"/>
<polygon fill="black" stroke="black" points="2408.4,-134.1 2404.9,-124.1 2401.4,-134.1 2408.4,-134.1"/>
</g>
<!-- 510 -->
<g id="node41" class="node">
<title>510</title>
<ellipse fill="#b9d3ee" stroke="black" cx="1528.9" cy="-34" rx="16.8" ry="18"/>
<text text-anchor="middle" x="1528.9" y="-30.3" font-family="Times,serif" font-size="14.00">1</text>
</g>
<!-- 40&#45;&gt;510 -->
<g id="edge49" class="edge">
<title>40&#45;&gt;510</title>
<path fill="none" stroke="black" d="M1528.9,-87.7C1528.9,-79.98 1528.9,-70.71 1528.9,-62.11"/>
<polygon fill="black" stroke="black" points="1532.4,-62.1 1528.9,-52.1 1525.4,-62.1 1532.4,-62.1"/>
</g>
<!-- 53 -->
<g id="node34" class="node">
<title>53</title>
<ellipse fill="#b9d3ee" stroke="black" cx="120.9" cy="-34" rx="16.8" ry="18"/>
<text text-anchor="middle" x="120.9" y="-30.3" font-family="Times,serif" font-size="14.00">1</text>
</g>
<!-- 41&#45;&gt;53 -->
<g id="edge42" class="edge">
<title>41&#45;&gt;53</title>
<path fill="none" stroke="black" d="M120.9,-87.7C120.9,-79.98 120.9,-70.71 120.9,-62.11"/>
<polygon fill="black" stroke="black" points="124.4,-62.1 120.9,-52.1 117.4,-62.1 124.4,-62.1"/>
</g>
<!-- 55 -->
<g id="node36" class="node">
<title>55</title>
<ellipse fill="#b9d3ee" stroke="black" cx="16.9" cy="-34" rx="16.8" ry="18"/>
<text text-anchor="middle" x="16.9" y="-30.3" font-family="Times,serif" font-size="14.00">1</text>
</g>
<!-- 41&#45;&gt;55 -->
<g id="edge44" class="edge">
<title>41&#45;&gt;55</title>
<path fill="none" stroke="black" d="M106.87,-95.56C89.58,-83.92 59.98,-63.99 39.47,-50.19"/>
<polygon fill="black" stroke="black" points="41.28,-47.19 31.03,-44.51 37.38,-53 41.28,-47.19"/>
</g>
<!-- 517 -->
<g id="node48" class="node">
<title>517</title>
<ellipse fill="#b9d3ee" stroke="black" cx="68.9" cy="-34" rx="16.8" ry="18"/>
<text text-anchor="middle" x="68.9" y="-30.3" font-family="Times,serif" font-size="14.00">2</text>
</g>
<!-- 41&#45;&gt;517 -->
<g id="edge56" class="edge">
<title>41&#45;&gt;517</title>
<path fill="none" stroke="black" d="M110.87,-91.5C103.63,-81.75 93.68,-68.37 85.29,-57.07"/>
<polygon fill="black" stroke="black" points="88.02,-54.87 79.25,-48.93 82.4,-59.05 88.02,-54.87"/>
</g>
<!-- 50 -->
<g id="node31" class="node">
<title>50</title>
<ellipse fill="#b9d3ee" stroke="black" cx="999.9" cy="-34" rx="16.8" ry="18"/>
<text text-anchor="middle" x="999.9" y="-30.3" font-family="Times,serif" font-size="14.00">1</text>
</g>
<!-- 42&#45;&gt;50 -->
<g id="edge39" class="edge">
<title>42&#45;&gt;50</title>
<path fill="none" stroke="black" d="M957.92,-91.5C965.17,-81.75 975.11,-68.37 983.5,-57.07"/>
<polygon fill="black" stroke="black" points="986.39,-59.05 989.55,-48.93 980.77,-54.87 986.39,-59.05"/>
</g>
<!-- 514 -->
<g id="node45" class="node">
<title>514</title>
<ellipse fill="#b9d3ee" stroke="black" cx="895.9" cy="-34" rx="16.8" ry="18"/>
<text text-anchor="middle" x="895.9" y="-30.3" font-family="Times,serif" font-size="14.00">2</text>
</g>
<!-- 42&#45;&gt;514 -->
<g id="edge53" class="edge">
<title>42&#45;&gt;514</title>
<path fill="none" stroke="black" d="M937.87,-91.5C930.63,-81.75 920.68,-68.37 912.29,-57.07"/>
<polygon fill="black" stroke="black" points="915.02,-54.87 906.25,-48.93 909.4,-59.05 915.02,-54.87"/>
</g>
<!-- 515 -->
<g id="node46" class="node">
<title>515</title>
<ellipse fill="#b9d3ee" stroke="black" cx="947.9" cy="-34" rx="16.8" ry="18"/>
<text text-anchor="middle" x="947.9" y="-30.3" font-family="Times,serif" font-size="14.00">2</text>
</g>
<!-- 42&#45;&gt;515 -->
<g id="edge54" class="edge">
<title>42&#45;&gt;515</title>
<path fill="none" stroke="black" d="M947.9,-87.7C947.9,-79.98 947.9,-70.71 947.9,-62.11"/>
<polygon fill="black" stroke="black" points="951.4,-62.1 947.9,-52.1 944.4,-62.1 951.4,-62.1"/>
</g>
<!-- 516 -->
<g id="node47" class="node">
<title>516</title>
<ellipse fill="#b9d3ee" stroke="black" cx="1424.9" cy="-34" rx="16.8" ry="18"/>
<text text-anchor="middle" x="1424.9" y="-30.3" font-family="Times,serif" font-size="14.00">2</text>
</g>
<!-- 43&#45;&gt;516 -->
<g id="edge55" class="edge">
<title>43&#45;&gt;516</title>
<path fill="none" stroke="black" d="M1424.9,-87.7C1424.9,-79.98 1424.9,-70.71 1424.9,-62.11"/>
<polygon fill="black" stroke="black" points="1428.4,-62.1 1424.9,-52.1 1421.4,-62.1 1428.4,-62.1"/>
</g>
<!-- 524 -->
<g id="node55" class="node">
<title>524</title>
<ellipse fill="#b9d3ee" stroke="black" cx="1476.9" cy="-34" rx="16.8" ry="18"/>
<text text-anchor="middle" x="1476.9" y="-30.3" font-family="Times,serif" font-size="14.00">8</text>
</g>
<!-- 43&#45;&gt;524 -->
<g id="edge63" class="edge">
<title>43&#45;&gt;524</title>
<path fill="none" stroke="black" d="M1435.93,-90.15C1443.08,-80.53 1452.52,-67.82 1460.54,-57.02"/>
<polygon fill="black" stroke="black" points="1463.44,-58.99 1466.59,-48.87 1457.82,-54.81 1463.44,-58.99"/>
</g>
<!-- 525 -->
<g id="node56" class="node">
<title>525</title>
<ellipse fill="#b9d3ee" stroke="black" cx="1372.9" cy="-34" rx="16.8" ry="18"/>
<text text-anchor="middle" x="1372.9" y="-30.3" font-family="Times,serif" font-size="14.00">8</text>
</g>
<!-- 43&#45;&gt;525 -->
<g id="edge64" class="edge">
<title>43&#45;&gt;525</title>
<path fill="none" stroke="black" d="M1413.87,-90.15C1406.72,-80.53 1397.28,-67.82 1389.26,-57.02"/>
<polygon fill="black" stroke="black" points="1391.98,-54.81 1383.2,-48.87 1386.36,-58.99 1391.98,-54.81"/>
</g>
<!-- 523 -->
<g id="node54" class="node">
<title>523</title>
<ellipse fill="#b9d3ee" stroke="black" cx="1942.9" cy="-34" rx="16.8" ry="18"/>
<text text-anchor="middle" x="1942.9" y="-30.3" font-family="Times,serif" font-size="14.00">8</text>
</g>
<!-- 44&#45;&gt;523 -->
<g id="edge62" class="edge">
<title>44&#45;&gt;523</title>
<path fill="none" stroke="black" d="M1965.03,-88.41C1961.55,-80.01 1957.24,-69.63 1953.36,-60.26"/>
<polygon fill="black" stroke="black" points="1956.58,-58.89 1949.52,-50.99 1950.12,-61.57 1956.58,-58.89"/>
</g>
<!-- 531 -->
<g id="node62" class="node">
<title>531</title>
<ellipse fill="#b9d3ee" stroke="black" cx="2000.9" cy="-34" rx="23" ry="18"/>
<text text-anchor="middle" x="2000.9" y="-30.3" font-family="Times,serif" font-size="14.00">69</text>
</g>
<!-- 44&#45;&gt;531 -->
<g id="edge70" class="edge">
<title>44&#45;&gt;531</title>
<path fill="none" stroke="black" d="M1978.77,-88.41C1982.17,-80.22 1986.34,-70.14 1990.15,-60.95"/>
<polygon fill="black" stroke="black" points="1993.48,-62.05 1994.08,-51.47 1987.01,-59.37 1993.48,-62.05"/>
</g>
<!-- 532 -->
<g id="node63" class="node">
<title>532</title>
<ellipse fill="#b9d3ee" stroke="black" cx="2069.9" cy="-34" rx="28.7" ry="18"/>
<text text-anchor="middle" x="2069.9" y="-30.3" font-family="Times,serif" font-size="14.00">100</text>
</g>
<!-- 44&#45;&gt;532 -->
<g id="edge71" class="edge">
<title>44&#45;&gt;532</title>
<path fill="none" stroke="black" d="M1990.33,-91.83C2005.25,-81.18 2026.47,-66.02 2043.24,-54.04"/>
<polygon fill="black" stroke="black" points="2045.45,-56.77 2051.55,-48.11 2041.38,-51.07 2045.45,-56.77"/>
</g>
<!-- 51 -->
<g id="node32" class="node">
<title>51</title>
<ellipse fill="#b9d3ee" stroke="black" cx="2132.9" cy="-34" rx="16.8" ry="18"/>
<text text-anchor="middle" x="2132.9" y="-30.3" font-family="Times,serif" font-size="14.00">1</text>
</g>
<!-- 45&#45;&gt;51 -->
<g id="edge40" class="edge">
<title>45&#45;&gt;51</title>
<path fill="none" stroke="black" d="M2152.6,-88.05C2149.56,-79.85 2145.84,-69.83 2142.45,-60.71"/>
<polygon fill="black" stroke="black" points="2145.72,-59.46 2138.96,-51.31 2139.16,-61.9 2145.72,-59.46"/>
</g>
<!-- 522 -->
<g id="node53" class="node">
<title>522</title>
<ellipse fill="#b9d3ee" stroke="black" cx="2184.9" cy="-34" rx="16.8" ry="18"/>
<text text-anchor="middle" x="2184.9" y="-30.3" font-family="Times,serif" font-size="14.00">7</text>
</g>
<!-- 45&#45;&gt;522 -->
<g id="edge61" class="edge">
<title>45&#45;&gt;522</title>
<path fill="none" stroke="black" d="M2165.19,-88.05C2168.24,-79.85 2171.96,-69.83 2175.35,-60.71"/>
<polygon fill="black" stroke="black" points="2178.64,-61.9 2178.84,-51.31 2172.08,-59.46 2178.64,-61.9"/>
</g>
<!-- 534 -->
<g id="node65" class="node">
<title>534</title>
<ellipse fill="#b9d3ee" stroke="black" cx="2247.9" cy="-34" rx="28.7" ry="18"/>
<text text-anchor="middle" x="2247.9" y="-30.3" font-family="Times,serif" font-size="14.00">219</text>
</g>
<!-- 45&#45;&gt;534 -->
<g id="edge73" class="edge">
<title>45&#45;&gt;534</title>
<path fill="none" stroke="black" d="M2177.34,-90.5C2190.45,-80.19 2208.22,-66.21 2222.64,-54.86"/>
<polygon fill="black" stroke="black" points="2224.99,-57.47 2230.69,-48.54 2220.67,-51.97 2224.99,-57.47"/>
</g>
<!-- 520 -->
<g id="node51" class="node">
<title>520</title>
<ellipse fill="#b9d3ee" stroke="black" cx="1268.9" cy="-34" rx="16.8" ry="18"/>
<text text-anchor="middle" x="1268.9" y="-30.3" font-family="Times,serif" font-size="14.00">3</text>
</g>
<!-- 46&#45;&gt;520 -->
<g id="edge59" class="edge">
<title>46&#45;&gt;520</title>
<path fill="none" stroke="black" d="M1213.66,-89.46C1224.28,-78.99 1238.36,-65.11 1249.64,-53.98"/>
<polygon fill="black" stroke="black" points="1252.27,-56.31 1256.93,-46.8 1247.36,-51.32 1252.27,-56.31"/>
</g>
<!-- 527 -->
<g id="node58" class="node">
<title>527</title>
<ellipse fill="#b9d3ee" stroke="black" cx="1320.9" cy="-34" rx="16.8" ry="18"/>
<text text-anchor="middle" x="1320.9" y="-30.3" font-family="Times,serif" font-size="14.00">9</text>
</g>
<!-- 46&#45;&gt;527 -->
<g id="edge66" class="edge">
<title>46&#45;&gt;527</title>
<path fill="none" stroke="black" d="M1222.11,-92.45C1241.92,-82.03 1270.53,-66.59 1294.9,-52 1296.02,-51.33 1297.16,-50.63 1298.3,-49.92"/>
<polygon fill="black" stroke="black" points="1300.45,-52.71 1306.99,-44.38 1296.68,-46.81 1300.45,-52.71"/>
</g>
<!-- 528 -->
<g id="node59" class="node">
<title>528</title>
<ellipse fill="#b9d3ee" stroke="black" cx="1057.9" cy="-34" rx="23" ry="18"/>
<text text-anchor="middle" x="1057.9" y="-30.3" font-family="Times,serif" font-size="14.00">15</text>
</g>
<!-- 46&#45;&gt;528 -->
<g id="edge67" class="edge">
<title>46&#45;&gt;528</title>
<path fill="none" stroke="black" d="M1172.61,-93.14C1150.41,-82.62 1117.31,-66.69 1088.9,-52 1087.73,-51.4 1086.55,-50.78 1085.35,-50.15"/>
<polygon fill="black" stroke="black" points="1086.64,-46.87 1076.18,-45.22 1083.33,-53.03 1086.64,-46.87"/>
</g>
<!-- 529 -->
<g id="node60" class="node">
<title>529</title>
<ellipse fill="#b9d3ee" stroke="black" cx="1120.9" cy="-34" rx="23" ry="18"/>
<text text-anchor="middle" x="1120.9" y="-30.3" font-family="Times,serif" font-size="14.00">19</text>
</g>
<!-- 46&#45;&gt;529 -->
<g id="edge68" class="edge">
<title>46&#45;&gt;529</title>
<path fill="none" stroke="black" d="M1181.19,-89.81C1169.94,-79.59 1154.99,-66 1142.8,-54.91"/>
<polygon fill="black" stroke="black" points="1145,-52.18 1135.24,-48.04 1140.29,-57.36 1145,-52.18"/>
</g>
<!-- 536 -->
<g id="node67" class="node">
<title>536</title>
<ellipse fill="#b9d3ee" stroke="black" cx="1197.9" cy="-34" rx="36" ry="18"/>
<text text-anchor="middle" x="1197.9" y="-30.3" font-family="Times,serif" font-size="14.00">342</text>
</g>
<!-- 46&#45;&gt;536 -->
<g id="edge75" class="edge">
<title>46&#45;&gt;536</title>
<path fill="none" stroke="black" d="M1197.9,-87.7C1197.9,-79.98 1197.9,-70.71 1197.9,-62.11"/>
<polygon fill="black" stroke="black" points="1201.4,-62.1 1197.9,-52.1 1194.4,-62.1 1201.4,-62.1"/>
</g>
<!-- 52 -->
<g id="node33" class="node">
<title>52</title>
<ellipse fill="#b9d3ee" stroke="black" cx="1580.9" cy="-34" rx="16.8" ry="18"/>
<text text-anchor="middle" x="1580.9" y="-30.3" font-family="Times,serif" font-size="14.00">1</text>
</g>
<!-- 47&#45;&gt;52 -->
<g id="edge41" class="edge">
<title>47&#45;&gt;52</title>
<path fill="none" stroke="black" d="M1641.97,-89.81C1630.07,-79.12 1614.06,-64.76 1601.42,-53.42"/>
<polygon fill="black" stroke="black" points="1603.46,-50.55 1593.68,-46.47 1598.79,-55.76 1603.46,-50.55"/>
</g>
<!-- 59 -->
<g id="node40" class="node">
<title>59</title>
<ellipse fill="#b9d3ee" stroke="black" cx="1632.9" cy="-34" rx="16.8" ry="18"/>
<text text-anchor="middle" x="1632.9" y="-30.3" font-family="Times,serif" font-size="14.00">1</text>
</g>
<!-- 47&#45;&gt;59 -->
<g id="edge48" class="edge">
<title>47&#45;&gt;59</title>
<path fill="none" stroke="black" d="M1652.6,-88.05C1649.56,-79.85 1645.84,-69.83 1642.45,-60.71"/>
<polygon fill="black" stroke="black" points="1645.72,-59.46 1638.96,-51.31 1639.16,-61.9 1645.72,-59.46"/>
</g>
<!-- 512 -->
<g id="node43" class="node">
<title>512</title>
<ellipse fill="#b9d3ee" stroke="black" cx="1684.9" cy="-34" rx="16.8" ry="18"/>
<text text-anchor="middle" x="1684.9" y="-30.3" font-family="Times,serif" font-size="14.00">2</text>
</g>
<!-- 47&#45;&gt;512 -->
<g id="edge51" class="edge">
<title>47&#45;&gt;512</title>
<path fill="none" stroke="black" d="M1665.19,-88.05C1668.24,-79.85 1671.96,-69.83 1675.35,-60.71"/>
<polygon fill="black" stroke="black" points="1678.64,-61.9 1678.84,-51.31 1672.08,-59.46 1678.64,-61.9"/>
</g>
<!-- 513 -->
<g id="node44" class="node">
<title>513</title>
<ellipse fill="#b9d3ee" stroke="black" cx="1736.9" cy="-34" rx="16.8" ry="18"/>
<text text-anchor="middle" x="1736.9" y="-30.3" font-family="Times,serif" font-size="14.00">2</text>
</g>
<!-- 47&#45;&gt;513 -->
<g id="edge52" class="edge">
<title>47&#45;&gt;513</title>
<path fill="none" stroke="black" d="M1675.82,-89.81C1687.73,-79.12 1703.73,-64.76 1716.37,-53.42"/>
<polygon fill="black" stroke="black" points="1719.01,-55.76 1724.11,-46.47 1714.33,-50.55 1719.01,-55.76"/>
</g>
<!-- 530 -->
<g id="node61" class="node">
<title>530</title>
<ellipse fill="#b9d3ee" stroke="black" cx="1794.9" cy="-34" rx="23" ry="18"/>
<text text-anchor="middle" x="1794.9" y="-30.3" font-family="Times,serif" font-size="14.00">27</text>
</g>
<!-- 47&#45;&gt;530 -->
<g id="edge69" class="edge">
<title>47&#45;&gt;530</title>
<path fill="none" stroke="black" d="M1683.33,-92.69C1704.45,-82.03 1735.75,-66.13 1762.9,-52 1764.43,-51.2 1766.01,-50.38 1767.59,-49.54"/>
<polygon fill="black" stroke="black" points="1769.44,-52.53 1776.65,-44.76 1766.17,-46.34 1769.44,-52.53"/>
</g>
<!-- 537 -->
<g id="node68" class="node">
<title>537</title>
<ellipse fill="#b9d3ee" stroke="black" cx="1871.9" cy="-34" rx="36" ry="18"/>
<text text-anchor="middle" x="1871.9" y="-30.3" font-family="Times,serif" font-size="14.00">358</text>
</g>
<!-- 47&#45;&gt;537 -->
<g id="edge76" class="edge">
<title>47&#45;&gt;537</title>
<path fill="none" stroke="black" d="M1689.11,-96.02C1722.87,-85.86 1779.07,-68.56 1826.9,-52 1829.47,-51.11 1832.12,-50.17 1834.79,-49.21"/>
<polygon fill="black" stroke="black" points="1836.21,-52.41 1844.38,-45.67 1833.79,-45.84 1836.21,-52.41"/>
</g>
<!-- 54 -->
<g id="node35" class="node">
<title>54</title>
<ellipse fill="#b9d3ee" stroke="black" cx="574.9" cy="-34" rx="16.8" ry="18"/>
<text text-anchor="middle" x="574.9" y="-30.3" font-family="Times,serif" font-size="14.00">1</text>
</g>
<!-- 48&#45;&gt;54 -->
<g id="edge43" class="edge">
<title>48&#45;&gt;54</title>
<path fill="none" stroke="black" d="M437.08,-95.89C466.4,-86.55 511.8,-70.76 548.9,-52 550.06,-51.41 551.24,-50.78 552.41,-50.13"/>
<polygon fill="black" stroke="black" points="554.49,-52.96 561.21,-44.76 550.85,-46.98 554.49,-52.96"/>
</g>
<!-- 56 -->
<g id="node37" class="node">
<title>56</title>
<ellipse fill="#b9d3ee" stroke="black" cx="172.9" cy="-34" rx="16.8" ry="18"/>
<text text-anchor="middle" x="172.9" y="-30.3" font-family="Times,serif" font-size="14.00">1</text>
</g>
<!-- 48&#45;&gt;56 -->
<g id="edge45" class="edge">
<title>48&#45;&gt;56</title>
<path fill="none" stroke="black" d="M373,-99.9C330.87,-92.77 257.4,-77.73 198.9,-52 197.7,-51.47 196.5,-50.9 195.31,-50.28"/>
<polygon fill="black" stroke="black" points="196.84,-47.12 186.45,-45.06 193.29,-53.15 196.84,-47.12"/>
</g>
<!-- 57 -->
<g id="node38" class="node">
<title>57</title>
<ellipse fill="#b9d3ee" stroke="black" cx="224.9" cy="-34" rx="16.8" ry="18"/>
<text text-anchor="middle" x="224.9" y="-30.3" font-family="Times,serif" font-size="14.00">1</text>
</g>
<!-- 48&#45;&gt;57 -->
<g id="edge46" class="edge">
<title>48&#45;&gt;57</title>
<path fill="none" stroke="black" d="M375.5,-96.85C343.33,-87.93 292.3,-72.17 250.9,-52 249.73,-51.43 248.54,-50.81 247.36,-50.17"/>
<polygon fill="black" stroke="black" points="248.92,-47.02 238.55,-44.85 245.3,-53.01 248.92,-47.02"/>
</g>
<!-- 58 -->
<g id="node39" class="node">
<title>58</title>
<ellipse fill="#b9d3ee" stroke="black" cx="276.9" cy="-34" rx="16.8" ry="18"/>
<text text-anchor="middle" x="276.9" y="-30.3" font-family="Times,serif" font-size="14.00">1</text>
</g>
<!-- 48&#45;&gt;58 -->
<g id="edge47" class="edge">
<title>48&#45;&gt;58</title>
<path fill="none" stroke="black" d="M381.7,-93.1C360.38,-82.82 329.2,-67.24 302.9,-52 301.77,-51.35 300.62,-50.66 299.47,-49.96"/>
<polygon fill="black" stroke="black" points="301.08,-46.84 290.76,-44.46 297.34,-52.76 301.08,-46.84"/>
</g>
<!-- 518 -->
<g id="node49" class="node">
<title>518</title>
<ellipse fill="#b9d3ee" stroke="black" cx="328.9" cy="-34" rx="16.8" ry="18"/>
<text text-anchor="middle" x="328.9" y="-30.3" font-family="Times,serif" font-size="14.00">2</text>
</g>
<!-- 48&#45;&gt;518 -->
<g id="edge57" class="edge">
<title>48&#45;&gt;518</title>
<path fill="none" stroke="black" d="M389.97,-89.81C378.07,-79.12 362.06,-64.76 349.42,-53.42"/>
<polygon fill="black" stroke="black" points="351.46,-50.55 341.68,-46.47 346.79,-55.76 351.46,-50.55"/>
</g>
<!-- 519 -->
<g id="node50" class="node">
<title>519</title>
<ellipse fill="#b9d3ee" stroke="black" cx="380.9" cy="-34" rx="16.8" ry="18"/>
<text text-anchor="middle" x="380.9" y="-30.3" font-family="Times,serif" font-size="14.00">2</text>
</g>
<!-- 48&#45;&gt;519 -->
<g id="edge58" class="edge">
<title>48&#45;&gt;519</title>
<path fill="none" stroke="black" d="M400.6,-88.05C397.56,-79.85 393.84,-69.83 390.45,-60.71"/>
<polygon fill="black" stroke="black" points="393.72,-59.46 386.96,-51.31 387.16,-61.9 393.72,-59.46"/>
</g>
<!-- 526 -->
<g id="node57" class="node">
<title>526</title>
<ellipse fill="#b9d3ee" stroke="black" cx="432.9" cy="-34" rx="16.8" ry="18"/>
<text text-anchor="middle" x="432.9" y="-30.3" font-family="Times,serif" font-size="14.00">9</text>
</g>
<!-- 48&#45;&gt;526 -->
<g id="edge65" class="edge">
<title>48&#45;&gt;526</title>
<path fill="none" stroke="black" d="M413.19,-88.05C416.24,-79.85 419.96,-69.83 423.35,-60.71"/>
<polygon fill="black" stroke="black" points="426.64,-61.9 426.84,-51.31 420.08,-59.46 426.64,-61.9"/>
</g>
<!-- 538 -->
<g id="node69" class="node">
<title>538</title>
<ellipse fill="#b9d3ee" stroke="black" cx="503.9" cy="-34" rx="36" ry="18"/>
<text text-anchor="middle" x="503.9" y="-30.3" font-family="Times,serif" font-size="14.00">377</text>
</g>
<!-- 48&#45;&gt;538 -->
<g id="edge77" class="edge">
<title>48&#45;&gt;538</title>
<path fill="none" stroke="black" d="M426.53,-90.83C440.73,-80.59 460.12,-66.59 475.93,-55.18"/>
<polygon fill="black" stroke="black" points="478.24,-57.83 484.3,-49.14 474.14,-52.16 478.24,-57.83"/>
</g>
<!-- 511 -->
<g id="node42" class="node">
<title>511</title>
<ellipse fill="#b9d3ee" stroke="black" cx="626.9" cy="-34" rx="16.8" ry="18"/>
<text text-anchor="middle" x="626.9" y="-30.3" font-family="Times,serif" font-size="14.00">1</text>
</g>
<!-- 49&#45;&gt;511 -->
<g id="edge50" class="edge">
<title>49&#45;&gt;511</title>
<path fill="none" stroke="black" d="M673.28,-89.12C664.8,-79.22 653.79,-66.37 644.63,-55.68"/>
<polygon fill="black" stroke="black" points="647.22,-53.32 638.05,-48.01 641.9,-57.88 647.22,-53.32"/>
</g>
<!-- 521 -->
<g id="node52" class="node">
<title>521</title>
<ellipse fill="#b9d3ee" stroke="black" cx="678.9" cy="-34" rx="16.8" ry="18"/>
<text text-anchor="middle" x="678.9" y="-30.3" font-family="Times,serif" font-size="14.00">5</text>
</g>
<!-- 49&#45;&gt;521 -->
<g id="edge60" class="edge">
<title>49&#45;&gt;521</title>
<path fill="none" stroke="black" d="M684.92,-87.7C684.04,-79.98 682.98,-70.71 682,-62.11"/>
<polygon fill="black" stroke="black" points="685.47,-61.64 680.85,-52.1 678.51,-62.44 685.47,-61.64"/>
</g>
<!-- 533 -->
<g id="node64" class="node">
<title>533</title>
<ellipse fill="#b9d3ee" stroke="black" cx="741.9" cy="-34" rx="28.7" ry="18"/>
<text text-anchor="middle" x="741.9" y="-30.3" font-family="Times,serif" font-size="14.00">104</text>
</g>
<!-- 49&#45;&gt;533 -->
<g id="edge72" class="edge">
<title>49&#45;&gt;533</title>
<path fill="none" stroke="black" d="M699.38,-89.12C706.51,-80.04 715.58,-68.49 723.52,-58.39"/>
<polygon fill="black" stroke="black" points="726.42,-60.37 729.85,-50.34 720.92,-56.04 726.42,-60.37"/>
</g>
<!-- 535 -->
<g id="node66" class="node">
<title>535</title>
<ellipse fill="#b9d3ee" stroke="black" cx="824.9" cy="-34" rx="36" ry="18"/>
<text text-anchor="middle" x="824.9" y="-30.3" font-family="Times,serif" font-size="14.00">285</text>
</g>
<!-- 49&#45;&gt;535 -->
<g id="edge74" class="edge">
<title>49&#45;&gt;535</title>
<path fill="none" stroke="black" d="M711.25,-92.65C733.48,-81.37 766.55,-64.6 791.29,-52.05"/>
<polygon fill="black" stroke="black" points="792.99,-55.11 800.32,-47.47 789.82,-48.87 792.99,-55.11"/>
</g>
<!-- legend_5 -->
<g id="node70" class="node">
<title>legend_5</title>
<polygon fill="#b9d3ee" stroke="black" points="2515.4,-52 2294.4,-52 2294.4,-16 2515.4,-16 2515.4,-52"/>
<text text-anchor="middle" x="2404.9" y="-30.3" font-family="Times,serif" font-size="14.00">DT=6 ST=1 Similarity=0.54</text>
</g>
<!-- legend_4&#45;&gt;legend_5 -->
<g id="edge78" class="edge">
<title>legend_4&#45;&gt;legend_5</title>
<path fill="none" stroke="black" d="M2404.9,-87.7C2404.9,-79.98 2404.9,-70.71 2404.9,-62.11"/>
<polygon fill="black" stroke="black" points="2408.4,-62.1 2404.9,-52.1 2401.4,-62.1 2408.4,-62.1"/>
</g>
</g>
</svg>
