<?xml version="1.0" encoding="UTF-8" standalone="no"?>
<!DOCTYPE svg PUBLIC "-//W3C//DTD SVG 1.1//EN"
 "http://www.w3.org/Graphics/SVG/1.1/DTD/svg11.dtd">
<!-- Generated by graphviz version 2.43.0 (0)
 -->
<!-- Title: %3 Pages: 1 -->
<svg width="2966pt" height="497pt"
 viewBox="0.00 0.00 2965.90 497.00" xmlns="http://www.w3.org/2000/svg" xmlns:xlink="http://www.w3.org/1999/xlink">
<g id="graph0" class="graph" transform="scale(1 1) rotate(0) translate(4 493)">
<title>%3</title>
<polygon fill="white" stroke="transparent" points="-4,4 -4,-493 2961.9,-493 2961.9,4 -4,4"/>
<text text-anchor="middle" x="1478.95" y="-473.8" font-family="Times,serif" font-size="14.00">ConsTree</text>
<text text-anchor="middle" x="1478.95" y="-458.8" font-family="Times,serif" font-size="14.00">Tree Quality = 1</text>
<g id="clust1" class="cluster">
<title>cluster</title>
<polygon fill="none" stroke="black" points="2713.9,-8 2713.9,-443 2949.9,-443 2949.9,-8 2713.9,-8"/>
<text text-anchor="middle" x="2831.9" y="-427.8" font-family="Times,serif" font-size="14.00">Legend</text>
</g>
<!-- 00 -->
<g id="node1" class="node">
<title>00</title>
<ellipse fill="#b9d3ee" stroke="black" cx="1301.9" cy="-394" rx="108" ry="18"/>
<text text-anchor="middle" x="1301.9" y="-390.3" font-family="Times,serif" font-size="14.00">817</text>
</g>
<!-- 10 -->
<g id="node4" class="node">
<title>10</title>
<ellipse fill="#b9d3ee" stroke="black" cx="1554.9" cy="-322" rx="16.8" ry="18"/>
<text text-anchor="middle" x="1554.9" y="-318.3" font-family="Times,serif" font-size="14.00">3</text>
</g>
<!-- 00&#45;&gt;10 -->
<g id="edge1" class="edge">
<title>00&#45;&gt;10</title>
<path fill="none" stroke="black" d="M1380.47,-381.64C1425.19,-373.47 1481.55,-360.25 1528.9,-340 1530.1,-339.49 1531.3,-338.92 1532.5,-338.31"/>
<polygon fill="black" stroke="black" points="1534.51,-341.19 1541.37,-333.12 1530.97,-335.15 1534.51,-341.19"/>
</g>
<!-- 11 -->
<g id="node5" class="node">
<title>11</title>
<ellipse fill="#b9d3ee" stroke="black" cx="1177.9" cy="-322" rx="108" ry="18"/>
<text text-anchor="middle" x="1177.9" y="-318.3" font-family="Times,serif" font-size="14.00">783</text>
</g>
<!-- 00&#45;&gt;11 -->
<g id="edge3" class="edge">
<title>00&#45;&gt;11</title>
<path fill="none" stroke="black" d="M1272.83,-376.59C1255.92,-367.05 1234.42,-354.91 1216.16,-344.6"/>
<polygon fill="black" stroke="black" points="1217.65,-341.42 1207.22,-339.55 1214.21,-347.52 1217.65,-341.42"/>
</g>
<!-- 13 -->
<g id="node7" class="node">
<title>13</title>
<ellipse fill="#b9d3ee" stroke="black" cx="1411.9" cy="-322" rx="108" ry="18"/>
<text text-anchor="middle" x="1411.9" y="-318.3" font-family="Times,serif" font-size="14.00">762</text>
</g>
<!-- 00&#45;&gt;13 -->
<g id="edge5" class="edge">
<title>00&#45;&gt;13</title>
<path fill="none" stroke="black" d="M1327.97,-376.41C1342.65,-367.06 1361.19,-355.27 1377.11,-345.14"/>
<polygon fill="black" stroke="black" points="1379.08,-348.03 1385.64,-339.71 1375.32,-342.13 1379.08,-348.03"/>
</g>
<!-- 01 -->
<g id="node2" class="node">
<title>01</title>
<ellipse fill="#b9d3ee" stroke="black" cx="1607.9" cy="-394" rx="180" ry="18"/>
<text text-anchor="middle" x="1607.9" y="-390.3" font-family="Times,serif" font-size="14.00">1183</text>
</g>
<!-- 01&#45;&gt;10 -->
<g id="edge2" class="edge">
<title>01&#45;&gt;10</title>
<path fill="none" stroke="black" d="M1594.8,-375.7C1587.78,-366.43 1579.06,-354.91 1571.56,-345.01"/>
<polygon fill="black" stroke="black" points="1574.19,-342.68 1565.37,-336.82 1568.61,-346.91 1574.19,-342.68"/>
</g>
<!-- 12 -->
<g id="node6" class="node">
<title>12</title>
<ellipse fill="#b9d3ee" stroke="black" cx="1661.9" cy="-322" rx="72" ry="18"/>
<text text-anchor="middle" x="1661.9" y="-318.3" font-family="Times,serif" font-size="14.00">452</text>
</g>
<!-- 01&#45;&gt;12 -->
<g id="edge4" class="edge">
<title>01&#45;&gt;12</title>
<path fill="none" stroke="black" d="M1621.25,-375.7C1627.66,-367.39 1635.46,-357.28 1642.5,-348.14"/>
<polygon fill="black" stroke="black" points="1645.37,-350.16 1648.7,-340.1 1639.82,-345.88 1645.37,-350.16"/>
</g>
<!-- 01&#45;&gt;13 -->
<g id="edge6" class="edge">
<title>01&#45;&gt;13</title>
<path fill="none" stroke="black" d="M1561.95,-376.59C1532.95,-366.23 1495.39,-352.82 1465.1,-342"/>
<polygon fill="black" stroke="black" points="1466.14,-338.66 1455.55,-338.59 1463.79,-345.25 1466.14,-338.66"/>
</g>
<!-- legend_0 -->
<g id="node3" class="node">
<title>legend_0</title>
<polygon fill="#b9d3ee" stroke="black" points="2942.4,-412 2721.4,-412 2721.4,-376 2942.4,-376 2942.4,-412"/>
<text text-anchor="middle" x="2831.9" y="-390.3" font-family="Times,serif" font-size="14.00">DT=1 ST=1 Similarity=0.51</text>
</g>
<!-- legend_1 -->
<g id="node8" class="node">
<title>legend_1</title>
<polygon fill="#b9d3ee" stroke="black" points="2942.4,-340 2721.4,-340 2721.4,-304 2942.4,-304 2942.4,-340"/>
<text text-anchor="middle" x="2831.9" y="-318.3" font-family="Times,serif" font-size="14.00">DT=2 ST=1 Similarity=0.63</text>
</g>
<!-- legend_0&#45;&gt;legend_1 -->
<g id="edge7" class="edge">
<title>legend_0&#45;&gt;legend_1</title>
<path fill="none" stroke="black" d="M2831.9,-375.7C2831.9,-367.98 2831.9,-358.71 2831.9,-350.11"/>
<polygon fill="black" stroke="black" points="2835.4,-350.1 2831.9,-340.1 2828.4,-350.1 2835.4,-350.1"/>
</g>
<!-- 20 -->
<g id="node9" class="node">
<title>20</title>
<polygon fill="darkseagreen" stroke="black" points="1571.9,-268 1355.9,-268 1355.9,-232 1571.9,-232 1571.9,-268"/>
<text text-anchor="middle" x="1463.9" y="-246.3" font-family="Times,serif" font-size="14.00">740</text>
</g>
<!-- 10&#45;&gt;20 -->
<g id="edge8" class="edge">
<title>10&#45;&gt;20</title>
<path fill="none" stroke="black" d="M1541.47,-310.67C1529.09,-301.15 1510.27,-286.67 1494.27,-274.36"/>
<polygon fill="black" stroke="black" points="1496.27,-271.48 1486.21,-268.16 1492,-277.03 1496.27,-271.48"/>
</g>
<!-- 21 -->
<g id="node10" class="node">
<title>21</title>
<polygon fill="darkseagreen" stroke="black" points="1230.9,-268 1158.9,-268 1158.9,-232 1230.9,-232 1230.9,-268"/>
<text text-anchor="middle" x="1194.9" y="-246.3" font-family="Times,serif" font-size="14.00">410</text>
</g>
<!-- 10&#45;&gt;21 -->
<g id="edge10" class="edge">
<title>10&#45;&gt;21</title>
<path fill="none" stroke="black" d="M1541.49,-310.59C1537.61,-308.05 1533.25,-305.6 1528.9,-304 1410.76,-260.44 1370.8,-295.34 1247.9,-268 1245.59,-267.49 1243.24,-266.92 1240.87,-266.3"/>
<polygon fill="black" stroke="black" points="1241.72,-262.91 1231.15,-263.59 1239.84,-269.65 1241.72,-262.91"/>
</g>
<!-- 22 -->
<g id="node11" class="node">
<title>22</title>
<polygon fill="darkseagreen" stroke="black" points="1733.9,-268 1589.9,-268 1589.9,-232 1733.9,-232 1733.9,-268"/>
<text text-anchor="middle" x="1661.9" y="-246.3" font-family="Times,serif" font-size="14.00">447</text>
</g>
<!-- 10&#45;&gt;22 -->
<g id="edge13" class="edge">
<title>10&#45;&gt;22</title>
<path fill="none" stroke="black" d="M1568.89,-311.85C1583.59,-302.23 1607.29,-286.72 1627.09,-273.77"/>
<polygon fill="black" stroke="black" points="1629.13,-276.62 1635.58,-268.22 1625.3,-270.76 1629.13,-276.62"/>
</g>
<!-- 11&#45;&gt;21 -->
<g id="edge11" class="edge">
<title>11&#45;&gt;21</title>
<path fill="none" stroke="black" d="M1182.1,-303.7C1183.99,-295.9 1186.28,-286.51 1188.38,-277.83"/>
<polygon fill="black" stroke="black" points="1191.79,-278.65 1190.74,-268.1 1184.98,-277 1191.79,-278.65"/>
</g>
<!-- 23 -->
<g id="node12" class="node">
<title>23</title>
<polygon fill="darkseagreen" stroke="black" points="1328.9,-268 1256.9,-268 1256.9,-232 1328.9,-232 1328.9,-268"/>
<text text-anchor="middle" x="1292.9" y="-246.3" font-family="Times,serif" font-size="14.00">403</text>
</g>
<!-- 11&#45;&gt;23 -->
<g id="edge15" class="edge">
<title>11&#45;&gt;23</title>
<path fill="none" stroke="black" d="M1205.15,-304.41C1220.28,-295.2 1239.32,-283.61 1255.79,-273.59"/>
<polygon fill="black" stroke="black" points="1257.92,-276.39 1264.64,-268.2 1254.28,-270.41 1257.92,-276.39"/>
</g>
<!-- 12&#45;&gt;22 -->
<g id="edge14" class="edge">
<title>12&#45;&gt;22</title>
<path fill="none" stroke="black" d="M1661.9,-303.7C1661.9,-295.98 1661.9,-286.71 1661.9,-278.11"/>
<polygon fill="black" stroke="black" points="1665.4,-278.1 1661.9,-268.1 1658.4,-278.1 1665.4,-278.1"/>
</g>
<!-- 12&#45;&gt;23 -->
<g id="edge16" class="edge">
<title>12&#45;&gt;23</title>
<path fill="none" stroke="black" d="M1609.26,-309.52C1599.83,-307.59 1590.09,-305.67 1580.9,-304 1477.37,-285.19 1449.38,-291.87 1346.9,-268 1344.25,-267.38 1341.55,-266.7 1338.83,-265.98"/>
<polygon fill="black" stroke="black" points="1339.57,-262.55 1329,-263.2 1337.67,-269.29 1339.57,-262.55"/>
</g>
<!-- 13&#45;&gt;20 -->
<g id="edge9" class="edge">
<title>13&#45;&gt;20</title>
<path fill="none" stroke="black" d="M1424.49,-304.05C1430.65,-295.75 1438.21,-285.58 1445.05,-276.38"/>
<polygon fill="black" stroke="black" points="1447.91,-278.39 1451.07,-268.28 1442.29,-274.22 1447.91,-278.39"/>
</g>
<!-- 13&#45;&gt;21 -->
<g id="edge12" class="edge">
<title>13&#45;&gt;21</title>
<path fill="none" stroke="black" d="M1364.55,-305.72C1327.84,-293.88 1277.27,-277.57 1240.91,-265.84"/>
<polygon fill="black" stroke="black" points="1241.65,-262.4 1231.06,-262.66 1239.5,-269.06 1241.65,-262.4"/>
</g>
<!-- legend_2 -->
<g id="node13" class="node">
<title>legend_2</title>
<polygon fill="darkseagreen" stroke="black" points="2942.4,-268 2721.4,-268 2721.4,-232 2942.4,-232 2942.4,-268"/>
<text text-anchor="middle" x="2831.9" y="-246.3" font-family="Times,serif" font-size="14.00">DT=3 ST=1 Similarity=0.67</text>
</g>
<!-- legend_1&#45;&gt;legend_2 -->
<g id="edge17" class="edge">
<title>legend_1&#45;&gt;legend_2</title>
<path fill="none" stroke="black" d="M2831.9,-303.7C2831.9,-295.98 2831.9,-286.71 2831.9,-278.11"/>
<polygon fill="black" stroke="black" points="2835.4,-278.1 2831.9,-268.1 2828.4,-278.1 2835.4,-278.1"/>
</g>
<!-- 30 -->
<g id="node14" class="node">
<title>30</title>
<ellipse fill="#b9d3ee" stroke="black" cx="1194.9" cy="-178" rx="23" ry="18"/>
<text text-anchor="middle" x="1194.9" y="-174.3" font-family="Times,serif" font-size="14.00">19</text>
</g>
<!-- 20&#45;&gt;30 -->
<g id="edge18" class="edge">
<title>20&#45;&gt;30</title>
<path fill="none" stroke="black" d="M1378.05,-231.96C1335.5,-222.74 1283.57,-210.3 1237.9,-196 1233.26,-194.55 1228.41,-192.83 1223.71,-191.06"/>
<polygon fill="black" stroke="black" points="1224.96,-187.79 1214.38,-187.4 1222.41,-194.31 1224.96,-187.79"/>
</g>
<!-- 33 -->
<g id="node17" class="node">
<title>33</title>
<ellipse fill="#b9d3ee" stroke="black" cx="2006.9" cy="-178" rx="36" ry="18"/>
<text text-anchor="middle" x="2006.9" y="-174.3" font-family="Times,serif" font-size="14.00">354</text>
</g>
<!-- 20&#45;&gt;33 -->
<g id="edge23" class="edge">
<title>20&#45;&gt;33</title>
<path fill="none" stroke="black" d="M1571.94,-233.22C1574.96,-232.8 1577.95,-232.4 1580.9,-232 1719.51,-213.31 1883.84,-193.54 1961.68,-184.32"/>
<polygon fill="black" stroke="black" points="1962.56,-187.74 1972.08,-183.09 1961.74,-180.79 1962.56,-187.74"/>
</g>
<!-- 34 -->
<g id="node18" class="node">
<title>34</title>
<ellipse fill="#b9d3ee" stroke="black" cx="2096.9" cy="-178" rx="36" ry="18"/>
<text text-anchor="middle" x="2096.9" y="-174.3" font-family="Times,serif" font-size="14.00">384</text>
</g>
<!-- 20&#45;&gt;34 -->
<g id="edge24" class="edge">
<title>20&#45;&gt;34</title>
<path fill="none" stroke="black" d="M1571.92,-233.03C1574.94,-232.67 1577.94,-232.33 1580.9,-232 1789.57,-208.89 1846.96,-241.56 2051.9,-196 2054.9,-195.33 2057.97,-194.51 2061.02,-193.58"/>
<polygon fill="black" stroke="black" points="2062.27,-196.85 2070.63,-190.35 2060.04,-190.22 2062.27,-196.85"/>
</g>
<!-- 21&#45;&gt;30 -->
<g id="edge19" class="edge">
<title>21&#45;&gt;30</title>
<path fill="none" stroke="black" d="M1194.9,-231.7C1194.9,-223.98 1194.9,-214.71 1194.9,-206.11"/>
<polygon fill="black" stroke="black" points="1198.4,-206.1 1194.9,-196.1 1191.4,-206.1 1198.4,-206.1"/>
</g>
<!-- 32 -->
<g id="node16" class="node">
<title>32</title>
<ellipse fill="#b9d3ee" stroke="black" cx="887.9" cy="-178" rx="36" ry="18"/>
<text text-anchor="middle" x="887.9" y="-174.3" font-family="Times,serif" font-size="14.00">400</text>
</g>
<!-- 21&#45;&gt;32 -->
<g id="edge22" class="edge">
<title>21&#45;&gt;32</title>
<path fill="none" stroke="black" d="M1158.78,-240.76C1101.69,-227.75 990.88,-202.48 930.18,-188.64"/>
<polygon fill="black" stroke="black" points="930.69,-185.17 920.16,-186.36 929.13,-191.99 930.69,-185.17"/>
</g>
<!-- 31 -->
<g id="node15" class="node">
<title>31</title>
<ellipse fill="#b9d3ee" stroke="black" cx="1548.9" cy="-178" rx="36" ry="18"/>
<text text-anchor="middle" x="1548.9" y="-174.3" font-family="Times,serif" font-size="14.00">443</text>
</g>
<!-- 22&#45;&gt;31 -->
<g id="edge20" class="edge">
<title>22&#45;&gt;31</title>
<path fill="none" stroke="black" d="M1634.26,-231.88C1617.56,-221.54 1596.28,-208.35 1579.14,-197.73"/>
<polygon fill="black" stroke="black" points="1580.94,-194.73 1570.6,-192.44 1577.26,-200.69 1580.94,-194.73"/>
</g>
<!-- 22&#45;&gt;34 -->
<g id="edge25" class="edge">
<title>22&#45;&gt;34</title>
<path fill="none" stroke="black" d="M1733.99,-244.11C1812.97,-237.62 1942.94,-223.61 2051.9,-196 2054.71,-195.29 2057.58,-194.46 2060.45,-193.55"/>
<polygon fill="black" stroke="black" points="2061.76,-196.8 2070.09,-190.26 2059.49,-190.18 2061.76,-196.8"/>
</g>
<!-- 23&#45;&gt;31 -->
<g id="edge21" class="edge">
<title>23&#45;&gt;31</title>
<path fill="none" stroke="black" d="M1329.13,-237.33C1335.06,-235.5 1341.14,-233.66 1346.9,-232 1402.14,-216.07 1466.44,-199.54 1507.39,-189.27"/>
<polygon fill="black" stroke="black" points="1508.43,-192.61 1517.28,-186.79 1506.73,-185.82 1508.43,-192.61"/>
</g>
<!-- 35 -->
<g id="node19" class="node">
<title>35</title>
<ellipse fill="#b9d3ee" stroke="black" cx="1282.9" cy="-178" rx="36" ry="18"/>
<text text-anchor="middle" x="1282.9" y="-174.3" font-family="Times,serif" font-size="14.00">400</text>
</g>
<!-- 23&#45;&gt;35 -->
<g id="edge26" class="edge">
<title>23&#45;&gt;35</title>
<path fill="none" stroke="black" d="M1290.43,-231.7C1289.32,-223.98 1288,-214.71 1286.77,-206.11"/>
<polygon fill="black" stroke="black" points="1290.22,-205.51 1285.34,-196.1 1283.29,-206.5 1290.22,-205.51"/>
</g>
<!-- legend_3 -->
<g id="node20" class="node">
<title>legend_3</title>
<polygon fill="#b9d3ee" stroke="black" points="2942.4,-196 2721.4,-196 2721.4,-160 2942.4,-160 2942.4,-196"/>
<text text-anchor="middle" x="2831.9" y="-174.3" font-family="Times,serif" font-size="14.00">DT=4 ST=1 Similarity=0.67</text>
</g>
<!-- legend_2&#45;&gt;legend_3 -->
<g id="edge27" class="edge">
<title>legend_2&#45;&gt;legend_3</title>
<path fill="none" stroke="black" d="M2831.9,-231.7C2831.9,-223.98 2831.9,-214.71 2831.9,-206.11"/>
<polygon fill="black" stroke="black" points="2835.4,-206.1 2831.9,-196.1 2828.4,-206.1 2835.4,-206.1"/>
</g>
<!-- 42 -->
<g id="node23" class="node">
<title>42</title>
<ellipse fill="#b9d3ee" stroke="black" cx="764.9" cy="-106" rx="23" ry="18"/>
<text text-anchor="middle" x="764.9" y="-102.3" font-family="Times,serif" font-size="14.00">32</text>
</g>
<!-- 30&#45;&gt;42 -->
<g id="edge32" class="edge">
<title>30&#45;&gt;42</title>
<path fill="none" stroke="black" d="M1172.69,-173.38C1101.69,-161.83 880.05,-125.75 796.87,-112.2"/>
<polygon fill="black" stroke="black" points="797.41,-108.75 786.98,-110.59 796.29,-115.66 797.41,-108.75"/>
</g>
<!-- 40 -->
<g id="node21" class="node">
<title>40</title>
<ellipse fill="#b9d3ee" stroke="black" cx="1282.9" cy="-106" rx="16.8" ry="18"/>
<text text-anchor="middle" x="1282.9" y="-102.3" font-family="Times,serif" font-size="14.00">7</text>
</g>
<!-- 31&#45;&gt;40 -->
<g id="edge28" class="edge">
<title>31&#45;&gt;40</title>
<path fill="none" stroke="black" d="M1517.86,-168.83C1465.01,-154.92 1358.45,-126.88 1309.09,-113.89"/>
<polygon fill="black" stroke="black" points="1309.75,-110.45 1299.19,-111.29 1307.97,-117.22 1309.75,-110.45"/>
</g>
<!-- 47 -->
<g id="node28" class="node">
<title>47</title>
<ellipse fill="#b9d3ee" stroke="black" cx="1901.9" cy="-106" rx="23" ry="18"/>
<text text-anchor="middle" x="1901.9" y="-102.3" font-family="Times,serif" font-size="14.00">51</text>
</g>
<!-- 31&#45;&gt;47 -->
<g id="edge40" class="edge">
<title>31&#45;&gt;47</title>
<path fill="none" stroke="black" d="M1581.79,-170.48C1649.38,-157.08 1803.12,-126.59 1869.92,-113.34"/>
<polygon fill="black" stroke="black" points="1870.74,-116.75 1879.87,-111.37 1869.38,-109.88 1870.74,-116.75"/>
</g>
<!-- 48 -->
<g id="node29" class="node">
<title>48</title>
<ellipse fill="#b9d3ee" stroke="black" cx="1548.9" cy="-106" rx="36" ry="18"/>
<text text-anchor="middle" x="1548.9" y="-102.3" font-family="Times,serif" font-size="14.00">394</text>
</g>
<!-- 31&#45;&gt;48 -->
<g id="edge42" class="edge">
<title>31&#45;&gt;48</title>
<path fill="none" stroke="black" d="M1548.9,-159.7C1548.9,-151.98 1548.9,-142.71 1548.9,-134.11"/>
<polygon fill="black" stroke="black" points="1552.4,-134.1 1548.9,-124.1 1545.4,-134.1 1552.4,-134.1"/>
</g>
<!-- 32&#45;&gt;42 -->
<g id="edge33" class="edge">
<title>32&#45;&gt;42</title>
<path fill="none" stroke="black" d="M865.05,-164C844.26,-152.17 813.56,-134.69 791.64,-122.22"/>
<polygon fill="black" stroke="black" points="793.25,-119.11 782.83,-117.21 789.79,-125.19 793.25,-119.11"/>
</g>
<!-- 43 -->
<g id="node24" class="node">
<title>43</title>
<ellipse fill="#b9d3ee" stroke="black" cx="1010.9" cy="-106" rx="36" ry="18"/>
<text text-anchor="middle" x="1010.9" y="-102.3" font-family="Times,serif" font-size="14.00">404</text>
</g>
<!-- 32&#45;&gt;43 -->
<g id="edge34" class="edge">
<title>32&#45;&gt;43</title>
<path fill="none" stroke="black" d="M910.75,-164C929.96,-153.07 957.63,-137.32 979.02,-125.14"/>
<polygon fill="black" stroke="black" points="980.8,-128.16 987.76,-120.17 977.33,-122.07 980.8,-128.16"/>
</g>
<!-- 45 -->
<g id="node26" class="node">
<title>45</title>
<ellipse fill="#b9d3ee" stroke="black" cx="291.9" cy="-106" rx="36" ry="18"/>
<text text-anchor="middle" x="291.9" y="-102.3" font-family="Times,serif" font-size="14.00">381</text>
</g>
<!-- 32&#45;&gt;45 -->
<g id="edge38" class="edge">
<title>32&#45;&gt;45</title>
<path fill="none" stroke="black" d="M853.28,-172.93C751.13,-160.94 451.01,-125.69 336.76,-112.27"/>
<polygon fill="black" stroke="black" points="336.95,-108.77 326.61,-111.08 336.14,-115.72 336.95,-108.77"/>
</g>
<!-- 41 -->
<g id="node22" class="node">
<title>41</title>
<ellipse fill="#b9d3ee" stroke="black" cx="2329.9" cy="-106" rx="23" ry="18"/>
<text text-anchor="middle" x="2329.9" y="-102.3" font-family="Times,serif" font-size="14.00">96</text>
</g>
<!-- 33&#45;&gt;41 -->
<g id="edge30" class="edge">
<title>33&#45;&gt;41</title>
<path fill="none" stroke="black" d="M2033.77,-165.98C2039.68,-163.8 2045.95,-161.68 2051.9,-160 2139.28,-135.37 2245.34,-118.68 2297.6,-111.3"/>
<polygon fill="black" stroke="black" points="2298.19,-114.76 2307.61,-109.91 2297.23,-107.82 2298.19,-114.76"/>
</g>
<!-- 44 -->
<g id="node25" class="node">
<title>44</title>
<ellipse fill="#b9d3ee" stroke="black" cx="2096.9" cy="-106" rx="36" ry="18"/>
<text text-anchor="middle" x="2096.9" y="-102.3" font-family="Times,serif" font-size="14.00">277</text>
</g>
<!-- 33&#45;&gt;44 -->
<g id="edge36" class="edge">
<title>33&#45;&gt;44</title>
<path fill="none" stroke="black" d="M2025.55,-162.5C2038.46,-152.45 2055.84,-138.93 2070.21,-127.75"/>
<polygon fill="black" stroke="black" points="2072.53,-130.39 2078.27,-121.49 2068.23,-124.86 2072.53,-130.39"/>
</g>
<!-- 34&#45;&gt;41 -->
<g id="edge31" class="edge">
<title>34&#45;&gt;41</title>
<path fill="none" stroke="black" d="M2126.88,-167.99C2171.35,-154.63 2254.35,-129.7 2299.22,-116.22"/>
<polygon fill="black" stroke="black" points="2300.41,-119.52 2308.98,-113.29 2298.39,-112.81 2300.41,-119.52"/>
</g>
<!-- 34&#45;&gt;44 -->
<g id="edge37" class="edge">
<title>34&#45;&gt;44</title>
<path fill="none" stroke="black" d="M2096.9,-159.7C2096.9,-151.98 2096.9,-142.71 2096.9,-134.11"/>
<polygon fill="black" stroke="black" points="2100.4,-134.1 2096.9,-124.1 2093.4,-134.1 2100.4,-134.1"/>
</g>
<!-- 46 -->
<g id="node27" class="node">
<title>46</title>
<ellipse fill="#b9d3ee" stroke="black" cx="2589.9" cy="-106" rx="36" ry="18"/>
<text text-anchor="middle" x="2589.9" y="-102.3" font-family="Times,serif" font-size="14.00">358</text>
</g>
<!-- 34&#45;&gt;46 -->
<g id="edge39" class="edge">
<title>34&#45;&gt;46</title>
<path fill="none" stroke="black" d="M2131.17,-172.13C2218.29,-159.76 2448.17,-127.12 2545.43,-113.31"/>
<polygon fill="black" stroke="black" points="2546.11,-116.75 2555.52,-111.88 2545.13,-109.82 2546.11,-116.75"/>
</g>
<!-- 34&#45;&gt;47 -->
<g id="edge41" class="edge">
<title>34&#45;&gt;47</title>
<path fill="none" stroke="black" d="M2068.85,-166.3C2063.24,-164.19 2057.39,-162.01 2051.9,-160 2010.41,-144.84 1962.22,-127.94 1931.89,-117.38"/>
<polygon fill="black" stroke="black" points="1932.92,-114.04 1922.33,-114.06 1930.63,-120.65 1932.92,-114.04"/>
</g>
<!-- 35&#45;&gt;40 -->
<g id="edge29" class="edge">
<title>35&#45;&gt;40</title>
<path fill="none" stroke="black" d="M1282.9,-159.7C1282.9,-151.98 1282.9,-142.71 1282.9,-134.11"/>
<polygon fill="black" stroke="black" points="1286.4,-134.1 1282.9,-124.1 1279.4,-134.1 1286.4,-134.1"/>
</g>
<!-- 35&#45;&gt;43 -->
<g id="edge35" class="edge">
<title>35&#45;&gt;43</title>
<path fill="none" stroke="black" d="M1253.34,-167.7C1244.83,-165.11 1235.52,-162.36 1226.9,-160 1166.74,-143.5 1096.49,-126.72 1052.84,-116.58"/>
<polygon fill="black" stroke="black" points="1053.41,-113.12 1042.88,-114.28 1051.83,-119.94 1053.41,-113.12"/>
</g>
<!-- legend_4 -->
<g id="node30" class="node">
<title>legend_4</title>
<polygon fill="#b9d3ee" stroke="black" points="2942.4,-124 2721.4,-124 2721.4,-88 2942.4,-88 2942.4,-124"/>
<text text-anchor="middle" x="2831.9" y="-102.3" font-family="Times,serif" font-size="14.00">DT=5 ST=1 Similarity=0.66</text>
</g>
<!-- legend_3&#45;&gt;legend_4 -->
<g id="edge43" class="edge">
<title>legend_3&#45;&gt;legend_4</title>
<path fill="none" stroke="black" d="M2831.9,-159.7C2831.9,-151.98 2831.9,-142.71 2831.9,-134.11"/>
<polygon fill="black" stroke="black" points="2835.4,-134.1 2831.9,-124.1 2828.4,-134.1 2835.4,-134.1"/>
</g>
<!-- 51 -->
<g id="node32" class="node">
<title>51</title>
<ellipse fill="#b9d3ee" stroke="black" cx="1334.9" cy="-34" rx="16.8" ry="18"/>
<text text-anchor="middle" x="1334.9" y="-30.3" font-family="Times,serif" font-size="14.00">1</text>
</g>
<!-- 40&#45;&gt;51 -->
<g id="edge45" class="edge">
<title>40&#45;&gt;51</title>
<path fill="none" stroke="black" d="M1292.92,-91.5C1300.17,-81.75 1310.11,-68.37 1318.5,-57.07"/>
<polygon fill="black" stroke="black" points="1321.39,-59.05 1324.55,-48.93 1315.77,-54.87 1321.39,-59.05"/>
</g>
<!-- 53 -->
<g id="node34" class="node">
<title>53</title>
<ellipse fill="#b9d3ee" stroke="black" cx="1178.9" cy="-34" rx="16.8" ry="18"/>
<text text-anchor="middle" x="1178.9" y="-30.3" font-family="Times,serif" font-size="14.00">1</text>
</g>
<!-- 40&#45;&gt;53 -->
<g id="edge47" class="edge">
<title>40&#45;&gt;53</title>
<path fill="none" stroke="black" d="M1268.87,-95.56C1251.58,-83.92 1221.98,-63.99 1201.47,-50.19"/>
<polygon fill="black" stroke="black" points="1203.28,-47.19 1193.03,-44.51 1199.38,-53 1203.28,-47.19"/>
</g>
<!-- 515 -->
<g id="node46" class="node">
<title>515</title>
<ellipse fill="#b9d3ee" stroke="black" cx="1230.9" cy="-34" rx="16.8" ry="18"/>
<text text-anchor="middle" x="1230.9" y="-30.3" font-family="Times,serif" font-size="14.00">2</text>
</g>
<!-- 40&#45;&gt;515 -->
<g id="edge59" class="edge">
<title>40&#45;&gt;515</title>
<path fill="none" stroke="black" d="M1272.87,-91.5C1265.63,-81.75 1255.68,-68.37 1247.29,-57.07"/>
<polygon fill="black" stroke="black" points="1250.02,-54.87 1241.25,-48.93 1244.4,-59.05 1250.02,-54.87"/>
</g>
<!-- 519 -->
<g id="node50" class="node">
<title>519</title>
<ellipse fill="#b9d3ee" stroke="black" cx="1282.9" cy="-34" rx="16.8" ry="18"/>
<text text-anchor="middle" x="1282.9" y="-30.3" font-family="Times,serif" font-size="14.00">3</text>
</g>
<!-- 40&#45;&gt;519 -->
<g id="edge63" class="edge">
<title>40&#45;&gt;519</title>
<path fill="none" stroke="black" d="M1282.9,-87.7C1282.9,-79.98 1282.9,-70.71 1282.9,-62.11"/>
<polygon fill="black" stroke="black" points="1286.4,-62.1 1282.9,-52.1 1279.4,-62.1 1286.4,-62.1"/>
</g>
<!-- 54 -->
<g id="node35" class="node">
<title>54</title>
<ellipse fill="#b9d3ee" stroke="black" cx="2479.9" cy="-34" rx="16.8" ry="18"/>
<text text-anchor="middle" x="2479.9" y="-30.3" font-family="Times,serif" font-size="14.00">1</text>
</g>
<!-- 41&#45;&gt;54 -->
<g id="edge48" class="edge">
<title>41&#45;&gt;54</title>
<path fill="none" stroke="black" d="M2350.16,-97.6C2375.13,-88.19 2418.6,-70.89 2453.9,-52 2455.05,-51.38 2456.21,-50.73 2457.38,-50.06"/>
<polygon fill="black" stroke="black" points="2459.48,-52.88 2466.14,-44.64 2455.79,-46.92 2459.48,-52.88"/>
</g>
<!-- 511 -->
<g id="node42" class="node">
<title>511</title>
<ellipse fill="#b9d3ee" stroke="black" cx="2531.9" cy="-34" rx="16.8" ry="18"/>
<text text-anchor="middle" x="2531.9" y="-30.3" font-family="Times,serif" font-size="14.00">1</text>
</g>
<!-- 41&#45;&gt;511 -->
<g id="edge55" class="edge">
<title>41&#45;&gt;511</title>
<path fill="none" stroke="black" d="M2351.76,-100.54C2385.77,-93.14 2452.96,-76.65 2505.9,-52 2507.08,-51.45 2508.27,-50.85 2509.46,-50.22"/>
<polygon fill="black" stroke="black" points="2511.5,-53.08 2518.29,-44.94 2507.91,-47.07 2511.5,-53.08"/>
</g>
<!-- 516 -->
<g id="node47" class="node">
<title>516</title>
<ellipse fill="#b9d3ee" stroke="black" cx="2248.9" cy="-34" rx="16.8" ry="18"/>
<text text-anchor="middle" x="2248.9" y="-30.3" font-family="Times,serif" font-size="14.00">2</text>
</g>
<!-- 41&#45;&gt;516 -->
<g id="edge60" class="edge">
<title>41&#45;&gt;516</title>
<path fill="none" stroke="black" d="M2315.04,-92.16C2302.29,-81.14 2283.78,-65.14 2269.58,-52.87"/>
<polygon fill="black" stroke="black" points="2271.65,-50.03 2261.79,-46.14 2267.07,-55.33 2271.65,-50.03"/>
</g>
<!-- 528 -->
<g id="node59" class="node">
<title>528</title>
<ellipse fill="#b9d3ee" stroke="black" cx="2300.9" cy="-34" rx="16.8" ry="18"/>
<text text-anchor="middle" x="2300.9" y="-30.3" font-family="Times,serif" font-size="14.00">9</text>
</g>
<!-- 41&#45;&gt;528 -->
<g id="edge72" class="edge">
<title>41&#45;&gt;528</title>
<path fill="none" stroke="black" d="M2323.17,-88.76C2319.65,-80.25 2315.25,-69.64 2311.29,-60.09"/>
<polygon fill="black" stroke="black" points="2314.45,-58.56 2307.39,-50.67 2307.98,-61.24 2314.45,-58.56"/>
</g>
<!-- 535 -->
<g id="node66" class="node">
<title>535</title>
<ellipse fill="#b9d3ee" stroke="black" cx="2358.9" cy="-34" rx="23" ry="18"/>
<text text-anchor="middle" x="2358.9" y="-30.3" font-family="Times,serif" font-size="14.00">17</text>
</g>
<!-- 41&#45;&gt;535 -->
<g id="edge79" class="edge">
<title>41&#45;&gt;535</title>
<path fill="none" stroke="black" d="M2336.62,-88.76C2340.05,-80.49 2344.3,-70.23 2348.17,-60.9"/>
<polygon fill="black" stroke="black" points="2351.41,-62.21 2352.01,-51.63 2344.95,-59.53 2351.41,-62.21"/>
</g>
<!-- 540 -->
<g id="node71" class="node">
<title>540</title>
<ellipse fill="#b9d3ee" stroke="black" cx="2421.9" cy="-34" rx="23" ry="18"/>
<text text-anchor="middle" x="2421.9" y="-30.3" font-family="Times,serif" font-size="14.00">66</text>
</g>
<!-- 41&#45;&gt;540 -->
<g id="edge84" class="edge">
<title>41&#45;&gt;540</title>
<path fill="none" stroke="black" d="M2345.92,-92.81C2360.3,-81.87 2381.6,-65.66 2398,-53.19"/>
<polygon fill="black" stroke="black" points="2400.22,-55.89 2406.06,-47.05 2395.98,-50.32 2400.22,-55.89"/>
</g>
<!-- 55 -->
<g id="node36" class="node">
<title>55</title>
<ellipse fill="#b9d3ee" stroke="black" cx="556.9" cy="-34" rx="16.8" ry="18"/>
<text text-anchor="middle" x="556.9" y="-30.3" font-family="Times,serif" font-size="14.00">1</text>
</g>
<!-- 42&#45;&gt;55 -->
<g id="edge49" class="edge">
<title>42&#45;&gt;55</title>
<path fill="none" stroke="black" d="M742.86,-100.79C707.86,-93.62 637.91,-77.31 582.9,-52 581.71,-51.45 580.52,-50.86 579.33,-50.23"/>
<polygon fill="black" stroke="black" points="580.88,-47.08 570.49,-44.97 577.29,-53.09 580.88,-47.08"/>
</g>
<!-- 57 -->
<g id="node38" class="node">
<title>57</title>
<ellipse fill="#b9d3ee" stroke="black" cx="608.9" cy="-34" rx="16.8" ry="18"/>
<text text-anchor="middle" x="608.9" y="-30.3" font-family="Times,serif" font-size="14.00">1</text>
</g>
<!-- 42&#45;&gt;57 -->
<g id="edge51" class="edge">
<title>42&#45;&gt;57</title>
<path fill="none" stroke="black" d="M744.09,-97.92C717.95,-88.7 672.02,-71.47 634.9,-52 633.74,-51.39 632.57,-50.75 631.4,-50.08"/>
<polygon fill="black" stroke="black" points="632.98,-46.95 622.63,-44.68 629.31,-52.91 632.98,-46.95"/>
</g>
<!-- 517 -->
<g id="node48" class="node">
<title>517</title>
<ellipse fill="#b9d3ee" stroke="black" cx="660.9" cy="-34" rx="16.8" ry="18"/>
<text text-anchor="middle" x="660.9" y="-30.3" font-family="Times,serif" font-size="14.00">2</text>
</g>
<!-- 42&#45;&gt;517 -->
<g id="edge61" class="edge">
<title>42&#45;&gt;517</title>
<path fill="none" stroke="black" d="M748.19,-93.75C730.56,-81.89 702.69,-63.13 683.2,-50.01"/>
<polygon fill="black" stroke="black" points="685.15,-47.1 674.9,-44.42 681.24,-52.91 685.15,-47.1"/>
</g>
<!-- 522 -->
<g id="node53" class="node">
<title>522</title>
<ellipse fill="#b9d3ee" stroke="black" cx="712.9" cy="-34" rx="16.8" ry="18"/>
<text text-anchor="middle" x="712.9" y="-30.3" font-family="Times,serif" font-size="14.00">5</text>
</g>
<!-- 42&#45;&gt;522 -->
<g id="edge66" class="edge">
<title>42&#45;&gt;522</title>
<path fill="none" stroke="black" d="M753.87,-90.15C746.72,-80.53 737.28,-67.82 729.26,-57.02"/>
<polygon fill="black" stroke="black" points="731.98,-54.81 723.2,-48.87 726.36,-58.99 731.98,-54.81"/>
</g>
<!-- 526 -->
<g id="node57" class="node">
<title>526</title>
<ellipse fill="#b9d3ee" stroke="black" cx="764.9" cy="-34" rx="16.8" ry="18"/>
<text text-anchor="middle" x="764.9" y="-30.3" font-family="Times,serif" font-size="14.00">6</text>
</g>
<!-- 42&#45;&gt;526 -->
<g id="edge70" class="edge">
<title>42&#45;&gt;526</title>
<path fill="none" stroke="black" d="M764.9,-87.7C764.9,-79.98 764.9,-70.71 764.9,-62.11"/>
<polygon fill="black" stroke="black" points="768.4,-62.1 764.9,-52.1 761.4,-62.1 768.4,-62.1"/>
</g>
<!-- 527 -->
<g id="node58" class="node">
<title>527</title>
<ellipse fill="#b9d3ee" stroke="black" cx="816.9" cy="-34" rx="16.8" ry="18"/>
<text text-anchor="middle" x="816.9" y="-30.3" font-family="Times,serif" font-size="14.00">7</text>
</g>
<!-- 42&#45;&gt;527 -->
<g id="edge71" class="edge">
<title>42&#45;&gt;527</title>
<path fill="none" stroke="black" d="M775.93,-90.15C783.08,-80.53 792.52,-67.82 800.54,-57.02"/>
<polygon fill="black" stroke="black" points="803.44,-58.99 806.59,-48.87 797.82,-54.81 803.44,-58.99"/>
</g>
<!-- 530 -->
<g id="node61" class="node">
<title>530</title>
<ellipse fill="#b9d3ee" stroke="black" cx="874.9" cy="-34" rx="23" ry="18"/>
<text text-anchor="middle" x="874.9" y="-30.3" font-family="Times,serif" font-size="14.00">10</text>
</g>
<!-- 42&#45;&gt;530 -->
<g id="edge74" class="edge">
<title>42&#45;&gt;530</title>
<path fill="none" stroke="black" d="M782.09,-94.06C799.98,-82.67 828.23,-64.7 848.87,-51.57"/>
<polygon fill="black" stroke="black" points="850.91,-54.41 857.47,-46.09 847.15,-48.51 850.91,-54.41"/>
</g>
<!-- 50 -->
<g id="node31" class="node">
<title>50</title>
<ellipse fill="#b9d3ee" stroke="black" cx="932.9" cy="-34" rx="16.8" ry="18"/>
<text text-anchor="middle" x="932.9" y="-30.3" font-family="Times,serif" font-size="14.00">1</text>
</g>
<!-- 43&#45;&gt;50 -->
<g id="edge44" class="edge">
<title>43&#45;&gt;50</title>
<path fill="none" stroke="black" d="M993.97,-89.81C982.07,-79.12 966.06,-64.76 953.42,-53.42"/>
<polygon fill="black" stroke="black" points="955.46,-50.55 945.68,-46.47 950.79,-55.76 955.46,-50.55"/>
</g>
<!-- 518 -->
<g id="node49" class="node">
<title>518</title>
<ellipse fill="#b9d3ee" stroke="black" cx="984.9" cy="-34" rx="16.8" ry="18"/>
<text text-anchor="middle" x="984.9" y="-30.3" font-family="Times,serif" font-size="14.00">2</text>
</g>
<!-- 43&#45;&gt;518 -->
<g id="edge62" class="edge">
<title>43&#45;&gt;518</title>
<path fill="none" stroke="black" d="M1004.6,-88.05C1001.56,-79.85 997.84,-69.83 994.45,-60.71"/>
<polygon fill="black" stroke="black" points="997.72,-59.46 990.96,-51.31 991.16,-61.9 997.72,-59.46"/>
</g>
<!-- 523 -->
<g id="node54" class="node">
<title>523</title>
<ellipse fill="#b9d3ee" stroke="black" cx="1036.9" cy="-34" rx="16.8" ry="18"/>
<text text-anchor="middle" x="1036.9" y="-30.3" font-family="Times,serif" font-size="14.00">6</text>
</g>
<!-- 43&#45;&gt;523 -->
<g id="edge67" class="edge">
<title>43&#45;&gt;523</title>
<path fill="none" stroke="black" d="M1017.19,-88.05C1020.24,-79.85 1023.96,-69.83 1027.35,-60.71"/>
<polygon fill="black" stroke="black" points="1030.64,-61.9 1030.84,-51.31 1024.08,-59.46 1030.64,-61.9"/>
</g>
<!-- 545 -->
<g id="node76" class="node">
<title>545</title>
<ellipse fill="#b9d3ee" stroke="black" cx="1107.9" cy="-34" rx="36" ry="18"/>
<text text-anchor="middle" x="1107.9" y="-30.3" font-family="Times,serif" font-size="14.00">395</text>
</g>
<!-- 43&#45;&gt;545 -->
<g id="edge89" class="edge">
<title>43&#45;&gt;545</title>
<path fill="none" stroke="black" d="M1030.53,-90.83C1044.73,-80.59 1064.12,-66.59 1079.93,-55.18"/>
<polygon fill="black" stroke="black" points="1082.24,-57.83 1088.3,-49.14 1078.14,-52.16 1082.24,-57.83"/>
</g>
<!-- 520 -->
<g id="node51" class="node">
<title>520</title>
<ellipse fill="#b9d3ee" stroke="black" cx="2132.9" cy="-34" rx="16.8" ry="18"/>
<text text-anchor="middle" x="2132.9" y="-30.3" font-family="Times,serif" font-size="14.00">4</text>
</g>
<!-- 44&#45;&gt;520 -->
<g id="edge64" class="edge">
<title>44&#45;&gt;520</title>
<path fill="none" stroke="black" d="M2105.43,-88.41C2109.92,-79.68 2115.51,-68.81 2120.47,-59.16"/>
<polygon fill="black" stroke="black" points="2123.7,-60.53 2125.16,-50.04 2117.48,-57.33 2123.7,-60.53"/>
</g>
<!-- 532 -->
<g id="node63" class="node">
<title>532</title>
<ellipse fill="#b9d3ee" stroke="black" cx="2190.9" cy="-34" rx="23" ry="18"/>
<text text-anchor="middle" x="2190.9" y="-30.3" font-family="Times,serif" font-size="14.00">12</text>
</g>
<!-- 44&#45;&gt;532 -->
<g id="edge76" class="edge">
<title>44&#45;&gt;532</title>
<path fill="none" stroke="black" d="M2116.38,-90.5C2130.99,-79.62 2151.07,-64.66 2166.71,-53.01"/>
<polygon fill="black" stroke="black" points="2168.95,-55.71 2174.88,-46.93 2164.77,-50.09 2168.95,-55.71"/>
</g>
<!-- 541 -->
<g id="node72" class="node">
<title>541</title>
<ellipse fill="#b9d3ee" stroke="black" cx="2061.9" cy="-34" rx="36" ry="18"/>
<text text-anchor="middle" x="2061.9" y="-30.3" font-family="Times,serif" font-size="14.00">261</text>
</g>
<!-- 44&#45;&gt;541 -->
<g id="edge85" class="edge">
<title>44&#45;&gt;541</title>
<path fill="none" stroke="black" d="M2088.6,-88.41C2084.52,-80.25 2079.51,-70.22 2074.93,-61.07"/>
<polygon fill="black" stroke="black" points="2077.98,-59.34 2070.38,-51.96 2071.72,-62.47 2077.98,-59.34"/>
</g>
<!-- 56 -->
<g id="node37" class="node">
<title>56</title>
<ellipse fill="#b9d3ee" stroke="black" cx="400.9" cy="-34" rx="16.8" ry="18"/>
<text text-anchor="middle" x="400.9" y="-30.3" font-family="Times,serif" font-size="14.00">1</text>
</g>
<!-- 45&#45;&gt;56 -->
<g id="edge50" class="edge">
<title>45&#45;&gt;56</title>
<path fill="none" stroke="black" d="M313.44,-91.34C330.21,-80.67 354.08,-65.45 374.9,-52 375.99,-51.29 377.11,-50.57 378.25,-49.83"/>
<polygon fill="black" stroke="black" points="380.42,-52.6 386.88,-44.2 376.59,-46.73 380.42,-52.6"/>
</g>
<!-- 510 -->
<g id="node41" class="node">
<title>510</title>
<ellipse fill="#b9d3ee" stroke="black" cx="452.9" cy="-34" rx="16.8" ry="18"/>
<text text-anchor="middle" x="452.9" y="-30.3" font-family="Times,serif" font-size="14.00">1</text>
</g>
<!-- 45&#45;&gt;510 -->
<g id="edge54" class="edge">
<title>45&#45;&gt;510</title>
<path fill="none" stroke="black" d="M321.36,-95.4C349.23,-85.86 391.88,-70.08 426.9,-52 428.06,-51.4 429.23,-50.76 430.4,-50.1"/>
<polygon fill="black" stroke="black" points="432.49,-52.93 439.18,-44.72 428.83,-46.96 432.49,-52.93"/>
</g>
<!-- 512 -->
<g id="node43" class="node">
<title>512</title>
<ellipse fill="#b9d3ee" stroke="black" cx="504.9" cy="-34" rx="16.8" ry="18"/>
<text text-anchor="middle" x="504.9" y="-30.3" font-family="Times,serif" font-size="14.00">1</text>
</g>
<!-- 45&#45;&gt;512 -->
<g id="edge56" class="edge">
<title>45&#45;&gt;512</title>
<path fill="none" stroke="black" d="M325.05,-98.78C363.28,-90.9 427.47,-75.44 478.9,-52 480.09,-51.46 481.28,-50.87 482.47,-50.24"/>
<polygon fill="black" stroke="black" points="484.5,-53.11 491.31,-44.99 480.93,-47.09 484.5,-53.11"/>
</g>
<!-- 521 -->
<g id="node52" class="node">
<title>521</title>
<ellipse fill="#b9d3ee" stroke="black" cx="16.9" cy="-34" rx="16.8" ry="18"/>
<text text-anchor="middle" x="16.9" y="-30.3" font-family="Times,serif" font-size="14.00">5</text>
</g>
<!-- 45&#45;&gt;521 -->
<g id="edge65" class="edge">
<title>45&#45;&gt;521</title>
<path fill="none" stroke="black" d="M256.87,-101.66C207.54,-96.04 115.53,-82.23 42.9,-52 41.69,-51.5 40.49,-50.94 39.28,-50.34"/>
<polygon fill="black" stroke="black" points="40.81,-47.18 30.4,-45.18 37.29,-53.23 40.81,-47.18"/>
</g>
<!-- 524 -->
<g id="node55" class="node">
<title>524</title>
<ellipse fill="#b9d3ee" stroke="black" cx="68.9" cy="-34" rx="16.8" ry="18"/>
<text text-anchor="middle" x="68.9" y="-30.3" font-family="Times,serif" font-size="14.00">6</text>
</g>
<!-- 45&#45;&gt;524 -->
<g id="edge68" class="edge">
<title>45&#45;&gt;524</title>
<path fill="none" stroke="black" d="M258.39,-99.34C218.29,-91.81 149.69,-76.53 94.9,-52 93.71,-51.47 92.51,-50.88 91.32,-50.26"/>
<polygon fill="black" stroke="black" points="92.86,-47.11 82.47,-45.03 89.29,-53.13 92.86,-47.11"/>
</g>
<!-- 529 -->
<g id="node60" class="node">
<title>529</title>
<ellipse fill="#b9d3ee" stroke="black" cx="126.9" cy="-34" rx="23" ry="18"/>
<text text-anchor="middle" x="126.9" y="-30.3" font-family="Times,serif" font-size="14.00">10</text>
</g>
<!-- 45&#45;&gt;529 -->
<g id="edge73" class="edge">
<title>45&#45;&gt;529</title>
<path fill="none" stroke="black" d="M263.49,-94.94C236.06,-84.95 193.56,-68.75 157.9,-52 156.54,-51.36 155.17,-50.69 153.78,-50"/>
<polygon fill="black" stroke="black" points="155.22,-46.81 144.73,-45.27 151.97,-53.01 155.22,-46.81"/>
</g>
<!-- 534 -->
<g id="node65" class="node">
<title>534</title>
<ellipse fill="#b9d3ee" stroke="black" cx="189.9" cy="-34" rx="23" ry="18"/>
<text text-anchor="middle" x="189.9" y="-30.3" font-family="Times,serif" font-size="14.00">16</text>
</g>
<!-- 45&#45;&gt;534 -->
<g id="edge78" class="edge">
<title>45&#45;&gt;534</title>
<path fill="none" stroke="black" d="M271.26,-90.83C255,-79.68 232.27,-64.08 214.96,-52.2"/>
<polygon fill="black" stroke="black" points="216.7,-49.15 206.47,-46.37 212.74,-54.92 216.7,-49.15"/>
</g>
<!-- 536 -->
<g id="node67" class="node">
<title>536</title>
<ellipse fill="#b9d3ee" stroke="black" cx="252.9" cy="-34" rx="23" ry="18"/>
<text text-anchor="middle" x="252.9" y="-30.3" font-family="Times,serif" font-size="14.00">26</text>
</g>
<!-- 45&#45;&gt;536 -->
<g id="edge80" class="edge">
<title>45&#45;&gt;536</title>
<path fill="none" stroke="black" d="M282.66,-88.41C277.93,-79.92 272.07,-69.41 266.81,-59.96"/>
<polygon fill="black" stroke="black" points="269.73,-58.02 261.81,-50.99 263.62,-61.43 269.73,-58.02"/>
</g>
<!-- 543 -->
<g id="node74" class="node">
<title>543</title>
<ellipse fill="#b9d3ee" stroke="black" cx="329.9" cy="-34" rx="36" ry="18"/>
<text text-anchor="middle" x="329.9" y="-30.3" font-family="Times,serif" font-size="14.00">315</text>
</g>
<!-- 45&#45;&gt;543 -->
<g id="edge87" class="edge">
<title>45&#45;&gt;543</title>
<path fill="none" stroke="black" d="M300.9,-88.41C305.45,-80.04 311.06,-69.71 316.13,-60.37"/>
<polygon fill="black" stroke="black" points="319.26,-61.93 320.96,-51.47 313.11,-58.59 319.26,-61.93"/>
</g>
<!-- 533 -->
<g id="node64" class="node">
<title>533</title>
<ellipse fill="#b9d3ee" stroke="black" cx="2589.9" cy="-34" rx="23" ry="18"/>
<text text-anchor="middle" x="2589.9" y="-30.3" font-family="Times,serif" font-size="14.00">16</text>
</g>
<!-- 46&#45;&gt;533 -->
<g id="edge77" class="edge">
<title>46&#45;&gt;533</title>
<path fill="none" stroke="black" d="M2589.9,-87.7C2589.9,-79.98 2589.9,-70.71 2589.9,-62.11"/>
<polygon fill="black" stroke="black" points="2593.4,-62.1 2589.9,-52.1 2586.4,-62.1 2593.4,-62.1"/>
</g>
<!-- 544 -->
<g id="node75" class="node">
<title>544</title>
<ellipse fill="#b9d3ee" stroke="black" cx="2666.9" cy="-34" rx="36" ry="18"/>
<text text-anchor="middle" x="2666.9" y="-30.3" font-family="Times,serif" font-size="14.00">342</text>
</g>
<!-- 46&#45;&gt;544 -->
<g id="edge88" class="edge">
<title>46&#45;&gt;544</title>
<path fill="none" stroke="black" d="M2606.61,-89.81C2617.1,-80.27 2630.81,-67.8 2642.51,-57.17"/>
<polygon fill="black" stroke="black" points="2645.18,-59.48 2650.22,-50.16 2640.47,-54.3 2645.18,-59.48"/>
</g>
<!-- 52 -->
<g id="node33" class="node">
<title>52</title>
<ellipse fill="#b9d3ee" stroke="black" cx="1990.9" cy="-34" rx="16.8" ry="18"/>
<text text-anchor="middle" x="1990.9" y="-30.3" font-family="Times,serif" font-size="14.00">1</text>
</g>
<!-- 47&#45;&gt;52 -->
<g id="edge46" class="edge">
<title>47&#45;&gt;52</title>
<path fill="none" stroke="black" d="M1917.4,-92.81C1931.77,-81.5 1953.29,-64.58 1969.33,-51.96"/>
<polygon fill="black" stroke="black" points="1971.91,-54.39 1977.6,-45.46 1967.58,-48.89 1971.91,-54.39"/>
</g>
<!-- 525 -->
<g id="node56" class="node">
<title>525</title>
<ellipse fill="#b9d3ee" stroke="black" cx="1811.9" cy="-34" rx="16.8" ry="18"/>
<text text-anchor="middle" x="1811.9" y="-30.3" font-family="Times,serif" font-size="14.00">6</text>
</g>
<!-- 47&#45;&gt;525 -->
<g id="edge69" class="edge">
<title>47&#45;&gt;525</title>
<path fill="none" stroke="black" d="M1886.22,-92.81C1871.55,-81.4 1849.53,-64.27 1833.26,-51.61"/>
<polygon fill="black" stroke="black" points="1835.38,-48.83 1825.34,-45.46 1831.09,-54.36 1835.38,-48.83"/>
</g>
<!-- 531 -->
<g id="node62" class="node">
<title>531</title>
<ellipse fill="#b9d3ee" stroke="black" cx="1869.9" cy="-34" rx="23" ry="18"/>
<text text-anchor="middle" x="1869.9" y="-30.3" font-family="Times,serif" font-size="14.00">11</text>
</g>
<!-- 47&#45;&gt;531 -->
<g id="edge75" class="edge">
<title>47&#45;&gt;531</title>
<path fill="none" stroke="black" d="M1894.48,-88.76C1890.64,-80.37 1885.87,-69.93 1881.55,-60.5"/>
<polygon fill="black" stroke="black" points="1884.62,-58.79 1877.28,-51.15 1878.25,-61.7 1884.62,-58.79"/>
</g>
<!-- 537 -->
<g id="node68" class="node">
<title>537</title>
<ellipse fill="#b9d3ee" stroke="black" cx="1932.9" cy="-34" rx="23" ry="18"/>
<text text-anchor="middle" x="1932.9" y="-30.3" font-family="Times,serif" font-size="14.00">33</text>
</g>
<!-- 47&#45;&gt;537 -->
<g id="edge81" class="edge">
<title>47&#45;&gt;537</title>
<path fill="none" stroke="black" d="M1909.09,-88.76C1912.81,-80.37 1917.43,-69.93 1921.61,-60.5"/>
<polygon fill="black" stroke="black" points="1924.9,-61.71 1925.75,-51.15 1918.5,-58.87 1924.9,-61.71"/>
</g>
<!-- 58 -->
<g id="node39" class="node">
<title>58</title>
<ellipse fill="#b9d3ee" stroke="black" cx="1759.9" cy="-34" rx="16.8" ry="18"/>
<text text-anchor="middle" x="1759.9" y="-30.3" font-family="Times,serif" font-size="14.00">1</text>
</g>
<!-- 48&#45;&gt;58 -->
<g id="edge52" class="edge">
<title>48&#45;&gt;58</title>
<path fill="none" stroke="black" d="M1582.03,-98.65C1619.89,-90.69 1683.16,-75.21 1733.9,-52 1735.08,-51.46 1736.28,-50.87 1737.47,-50.24"/>
<polygon fill="black" stroke="black" points="1739.5,-53.1 1746.31,-44.98 1735.93,-47.08 1739.5,-53.1"/>
</g>
<!-- 59 -->
<g id="node40" class="node">
<title>59</title>
<ellipse fill="#b9d3ee" stroke="black" cx="1386.9" cy="-34" rx="16.8" ry="18"/>
<text text-anchor="middle" x="1386.9" y="-30.3" font-family="Times,serif" font-size="14.00">1</text>
</g>
<!-- 48&#45;&gt;59 -->
<g id="edge53" class="edge">
<title>48&#45;&gt;59</title>
<path fill="none" stroke="black" d="M1519.48,-95.52C1491.41,-86.02 1448.27,-70.21 1412.9,-52 1411.74,-51.4 1410.57,-50.77 1409.39,-50.1"/>
<polygon fill="black" stroke="black" points="1410.97,-46.96 1400.61,-44.73 1407.31,-52.93 1410.97,-46.96"/>
</g>
<!-- 513 -->
<g id="node44" class="node">
<title>513</title>
<ellipse fill="#b9d3ee" stroke="black" cx="1438.9" cy="-34" rx="16.8" ry="18"/>
<text text-anchor="middle" x="1438.9" y="-30.3" font-family="Times,serif" font-size="14.00">1</text>
</g>
<!-- 48&#45;&gt;513 -->
<g id="edge57" class="edge">
<title>48&#45;&gt;513</title>
<path fill="none" stroke="black" d="M1527.08,-91.37C1510.09,-80.72 1485.94,-65.51 1464.9,-52 1463.8,-51.3 1462.68,-50.57 1461.55,-49.84"/>
<polygon fill="black" stroke="black" points="1463.2,-46.74 1452.9,-44.22 1459.38,-52.6 1463.2,-46.74"/>
</g>
<!-- 514 -->
<g id="node45" class="node">
<title>514</title>
<ellipse fill="#b9d3ee" stroke="black" cx="1490.9" cy="-34" rx="16.8" ry="18"/>
<text text-anchor="middle" x="1490.9" y="-30.3" font-family="Times,serif" font-size="14.00">1</text>
</g>
<!-- 48&#45;&gt;514 -->
<g id="edge58" class="edge">
<title>48&#45;&gt;514</title>
<path fill="none" stroke="black" d="M1535.74,-89.12C1527.61,-79.31 1517.1,-66.62 1508.3,-56"/>
<polygon fill="black" stroke="black" points="1510.75,-53.48 1501.68,-48.01 1505.36,-57.94 1510.75,-53.48"/>
</g>
<!-- 538 -->
<g id="node69" class="node">
<title>538</title>
<ellipse fill="#b9d3ee" stroke="black" cx="1548.9" cy="-34" rx="23" ry="18"/>
<text text-anchor="middle" x="1548.9" y="-30.3" font-family="Times,serif" font-size="14.00">39</text>
</g>
<!-- 48&#45;&gt;538 -->
<g id="edge82" class="edge">
<title>48&#45;&gt;538</title>
<path fill="none" stroke="black" d="M1548.9,-87.7C1548.9,-79.98 1548.9,-70.71 1548.9,-62.11"/>
<polygon fill="black" stroke="black" points="1552.4,-62.1 1548.9,-52.1 1545.4,-62.1 1552.4,-62.1"/>
</g>
<!-- 539 -->
<g id="node70" class="node">
<title>539</title>
<ellipse fill="#b9d3ee" stroke="black" cx="1611.9" cy="-34" rx="23" ry="18"/>
<text text-anchor="middle" x="1611.9" y="-30.3" font-family="Times,serif" font-size="14.00">44</text>
</g>
<!-- 48&#45;&gt;539 -->
<g id="edge83" class="edge">
<title>48&#45;&gt;539</title>
<path fill="none" stroke="black" d="M1563.19,-89.12C1571.76,-79.6 1582.77,-67.37 1592.15,-56.94"/>
<polygon fill="black" stroke="black" points="1594.86,-59.17 1598.95,-49.39 1589.65,-54.48 1594.86,-59.17"/>
</g>
<!-- 542 -->
<g id="node73" class="node">
<title>542</title>
<ellipse fill="#b9d3ee" stroke="black" cx="1688.9" cy="-34" rx="36" ry="18"/>
<text text-anchor="middle" x="1688.9" y="-30.3" font-family="Times,serif" font-size="14.00">307</text>
</g>
<!-- 48&#45;&gt;542 -->
<g id="edge86" class="edge">
<title>48&#45;&gt;542</title>
<path fill="none" stroke="black" d="M1573.61,-92.65C1596.3,-81.3 1630.12,-64.39 1655.27,-51.82"/>
<polygon fill="black" stroke="black" points="1657.06,-54.83 1664.44,-47.23 1653.93,-48.57 1657.06,-54.83"/>
</g>
<!-- legend_5 -->
<g id="node77" class="node">
<title>legend_5</title>
<polygon fill="#b9d3ee" stroke="black" points="2942.4,-52 2721.4,-52 2721.4,-16 2942.4,-16 2942.4,-52"/>
<text text-anchor="middle" x="2831.9" y="-30.3" font-family="Times,serif" font-size="14.00">DT=6 ST=1 Similarity=0.57</text>
</g>
<!-- legend_4&#45;&gt;legend_5 -->
<g id="edge90" class="edge">
<title>legend_4&#45;&gt;legend_5</title>
<path fill="none" stroke="black" d="M2831.9,-87.7C2831.9,-79.98 2831.9,-70.71 2831.9,-62.11"/>
<polygon fill="black" stroke="black" points="2835.4,-62.1 2831.9,-52.1 2828.4,-62.1 2835.4,-62.1"/>
</g>
</g>
</svg>
