<?xml version="1.0" encoding="UTF-8" standalone="no"?>
<!DOCTYPE svg PUBLIC "-//W3C//DTD SVG 1.1//EN"
 "http://www.w3.org/Graphics/SVG/1.1/DTD/svg11.dtd">
<!-- Generated by graphviz version 2.43.0 (0)
 -->
<!-- Title: %3 Pages: 1 -->
<svg width="2236pt" height="281pt"
 viewBox="0.00 0.00 2236.00 281.00" xmlns="http://www.w3.org/2000/svg" xmlns:xlink="http://www.w3.org/1999/xlink">
<g id="graph0" class="graph" transform="scale(1 1) rotate(0) translate(4 277)">
<title>%3</title>
<polygon fill="white" stroke="transparent" points="-4,4 -4,-277 2232,-277 2232,4 -4,4"/>
<text text-anchor="middle" x="1114" y="-257.8" font-family="Times,serif" font-size="14.00">ConsTree</text>
<text text-anchor="middle" x="1114" y="-242.8" font-family="Times,serif" font-size="14.00">Tree Quality = 0.5</text>
<g id="clust1" class="cluster">
<title>cluster</title>
<polygon fill="none" stroke="black" points="1984,-8 1984,-227 2220,-227 2220,-8 1984,-8"/>
<text text-anchor="middle" x="2102" y="-211.8" font-family="Times,serif" font-size="14.00">Legend</text>
</g>
<!-- 00 -->
<g id="node1" class="node">
<title>00</title>
<ellipse fill="#b9d3ee" stroke="black" cx="431" cy="-178" rx="324" ry="18"/>
<text text-anchor="middle" x="431" y="-174.3" font-family="Times,serif" font-size="14.00">2000</text>
</g>
<!-- 10 -->
<g id="node3" class="node">
<title>10</title>
<ellipse fill="#b9d3ee" stroke="black" cx="270" cy="-106" rx="16.8" ry="18"/>
<text text-anchor="middle" x="270" y="-102.3" font-family="Times,serif" font-size="14.00">1</text>
</g>
<!-- 00&#45;&gt;10 -->
<g id="edge1" class="edge">
<title>00&#45;&gt;10</title>
<path fill="none" stroke="black" d="M392.03,-160.05C361.79,-146.91 320.8,-129.09 294.87,-117.81"/>
<polygon fill="black" stroke="black" points="295.97,-114.47 285.4,-113.7 293.18,-120.89 295.97,-114.47"/>
</g>
<!-- 11 -->
<g id="node4" class="node">
<title>11</title>
<ellipse fill="#b9d3ee" stroke="black" cx="849" cy="-106" rx="288" ry="18"/>
<text text-anchor="middle" x="849" y="-102.3" font-family="Times,serif" font-size="14.00">1999</text>
</g>
<!-- 00&#45;&gt;11 -->
<g id="edge2" class="edge">
<title>00&#45;&gt;11</title>
<path fill="none" stroke="black" d="M527.69,-160.81C592.25,-150 677.16,-135.78 743.48,-124.67"/>
<polygon fill="black" stroke="black" points="744.26,-128.09 753.54,-122.99 743.1,-121.19 744.26,-128.09"/>
</g>
<!-- legend_0 -->
<g id="node2" class="node">
<title>legend_0</title>
<polygon fill="#b9d3ee" stroke="black" points="2212.5,-196 1991.5,-196 1991.5,-160 2212.5,-160 2212.5,-196"/>
<text text-anchor="middle" x="2102" y="-174.3" font-family="Times,serif" font-size="14.00">DT=4 ST=4 Similarity=0.28</text>
</g>
<!-- legend_1 -->
<g id="node5" class="node">
<title>legend_1</title>
<polygon fill="#b9d3ee" stroke="black" points="2212.5,-124 1991.5,-124 1991.5,-88 2212.5,-88 2212.5,-124"/>
<text text-anchor="middle" x="2102" y="-102.3" font-family="Times,serif" font-size="14.00">DT=5 ST=1 Similarity=0.28</text>
</g>
<!-- legend_0&#45;&gt;legend_1 -->
<g id="edge3" class="edge">
<title>legend_0&#45;&gt;legend_1</title>
<path fill="none" stroke="black" d="M2102,-159.7C2102,-151.98 2102,-142.71 2102,-134.11"/>
<polygon fill="black" stroke="black" points="2105.5,-134.1 2102,-124.1 2098.5,-134.1 2105.5,-134.1"/>
</g>
<!-- 210 -->
<g id="node16" class="node">
<title>210</title>
<polygon fill="darkseagreen" stroke="black" points="26,-52 0,-52 0,-16 26,-16 26,-52"/>
<text text-anchor="middle" x="13" y="-30.3" font-family="Times,serif" font-size="14.00">1</text>
</g>
<!-- 10&#45;&gt;210 -->
<g id="edge14" class="edge">
<title>10&#45;&gt;210</title>
<path fill="none" stroke="black" d="M252.95,-103.7C213.06,-100.11 111.25,-87.88 35,-52 34.91,-51.96 34.81,-51.91 34.72,-51.87"/>
<polygon fill="black" stroke="black" points="36.72,-48.99 26.36,-46.78 33.08,-54.97 36.72,-48.99"/>
</g>
<!-- 20 -->
<g id="node6" class="node">
<title>20</title>
<polygon fill="darkseagreen" stroke="black" points="70,-52 44,-52 44,-16 70,-16 70,-52"/>
<text text-anchor="middle" x="57" y="-30.3" font-family="Times,serif" font-size="14.00">1</text>
</g>
<!-- 11&#45;&gt;20 -->
<g id="edge4" class="edge">
<title>11&#45;&gt;20</title>
<path fill="none" stroke="black" d="M612.67,-95.65C404.86,-86.29 128,-70.63 79,-52 78.9,-51.96 78.81,-51.93 78.71,-51.89"/>
<polygon fill="black" stroke="black" points="80.64,-48.96 70.2,-47.15 77.24,-55.07 80.64,-48.96"/>
</g>
<!-- 21 -->
<g id="node7" class="node">
<title>21</title>
<polygon fill="darkseagreen" stroke="black" points="114,-52 88,-52 88,-16 114,-16 114,-52"/>
<text text-anchor="middle" x="101" y="-30.3" font-family="Times,serif" font-size="14.00">1</text>
</g>
<!-- 11&#45;&gt;21 -->
<g id="edge5" class="edge">
<title>11&#45;&gt;21</title>
<path fill="none" stroke="black" d="M571.49,-101.18C402.04,-95.67 203.04,-82.62 123,-52 122.9,-51.96 122.81,-51.93 122.71,-51.89"/>
<polygon fill="black" stroke="black" points="124.65,-48.96 114.21,-47.14 121.23,-55.07 124.65,-48.96"/>
</g>
<!-- 22 -->
<g id="node8" class="node">
<title>22</title>
<polygon fill="darkseagreen" stroke="black" points="158,-52 132,-52 132,-16 158,-16 158,-52"/>
<text text-anchor="middle" x="145" y="-30.3" font-family="Times,serif" font-size="14.00">1</text>
</g>
<!-- 11&#45;&gt;22 -->
<g id="edge6" class="edge">
<title>11&#45;&gt;22</title>
<path fill="none" stroke="black" d="M579.01,-99.71C421.9,-93.59 240.7,-80.39 167,-52 166.9,-51.96 166.81,-51.93 166.71,-51.89"/>
<polygon fill="black" stroke="black" points="168.65,-48.96 158.21,-47.13 165.23,-55.07 168.65,-48.96"/>
</g>
<!-- 23 -->
<g id="node9" class="node">
<title>23</title>
<polygon fill="darkseagreen" stroke="black" points="202,-52 176,-52 176,-16 202,-16 202,-52"/>
<text text-anchor="middle" x="189" y="-30.3" font-family="Times,serif" font-size="14.00">1</text>
</g>
<!-- 11&#45;&gt;23 -->
<g id="edge7" class="edge">
<title>11&#45;&gt;23</title>
<path fill="none" stroke="black" d="M588.92,-98.24C443.71,-91.56 278.73,-78.3 211,-52 210.9,-51.96 210.81,-51.93 210.71,-51.89"/>
<polygon fill="black" stroke="black" points="212.65,-48.96 202.22,-47.12 209.22,-55.06 212.65,-48.96"/>
</g>
<!-- 24 -->
<g id="node10" class="node">
<title>24</title>
<polygon fill="darkseagreen" stroke="black" points="246,-52 220,-52 220,-16 246,-16 246,-52"/>
<text text-anchor="middle" x="233" y="-30.3" font-family="Times,serif" font-size="14.00">1</text>
</g>
<!-- 11&#45;&gt;24 -->
<g id="edge8" class="edge">
<title>11&#45;&gt;24</title>
<path fill="none" stroke="black" d="M601.39,-96.8C467.52,-89.63 317.18,-76.36 255,-52 254.9,-51.96 254.81,-51.92 254.71,-51.89"/>
<polygon fill="black" stroke="black" points="256.65,-48.96 246.22,-47.1 253.22,-55.06 256.65,-48.96"/>
</g>
<!-- 25 -->
<g id="node11" class="node">
<title>25</title>
<polygon fill="darkseagreen" stroke="black" points="290,-52 264,-52 264,-16 290,-16 290,-52"/>
<text text-anchor="middle" x="277" y="-30.3" font-family="Times,serif" font-size="14.00">1</text>
</g>
<!-- 11&#45;&gt;25 -->
<g id="edge9" class="edge">
<title>11&#45;&gt;25</title>
<path fill="none" stroke="black" d="M616.09,-95.41C493.05,-87.8 355.97,-74.56 299,-52 298.9,-51.96 298.81,-51.92 298.71,-51.89"/>
<polygon fill="black" stroke="black" points="300.66,-48.96 290.23,-47.08 297.21,-55.06 300.66,-48.96"/>
</g>
<!-- 26 -->
<g id="node12" class="node">
<title>26</title>
<polygon fill="darkseagreen" stroke="black" points="334,-52 308,-52 308,-16 334,-16 334,-52"/>
<text text-anchor="middle" x="321" y="-30.3" font-family="Times,serif" font-size="14.00">1</text>
</g>
<!-- 11&#45;&gt;26 -->
<g id="edge10" class="edge">
<title>11&#45;&gt;26</title>
<path fill="none" stroke="black" d="M632.7,-94.08C520,-86.07 395.06,-72.86 343,-52 342.9,-51.96 342.81,-51.92 342.71,-51.88"/>
<polygon fill="black" stroke="black" points="344.66,-48.96 334.24,-47.06 341.2,-55.05 344.66,-48.96"/>
</g>
<!-- 27 -->
<g id="node13" class="node">
<title>27</title>
<polygon fill="darkseagreen" stroke="black" points="378,-52 352,-52 352,-16 378,-16 378,-52"/>
<text text-anchor="middle" x="365" y="-30.3" font-family="Times,serif" font-size="14.00">1</text>
</g>
<!-- 11&#45;&gt;27 -->
<g id="edge11" class="edge">
<title>11&#45;&gt;27</title>
<path fill="none" stroke="black" d="M651.47,-92.89C548.57,-84.5 434.49,-71.3 387,-52 386.9,-51.96 386.81,-51.92 386.72,-51.88"/>
<polygon fill="black" stroke="black" points="388.67,-48.97 378.25,-47.04 385.19,-55.04 388.67,-48.97"/>
</g>
<!-- 28 -->
<g id="node14" class="node">
<title>28</title>
<polygon fill="darkseagreen" stroke="black" points="422,-52 396,-52 396,-16 422,-16 422,-52"/>
<text text-anchor="middle" x="409" y="-30.3" font-family="Times,serif" font-size="14.00">1</text>
</g>
<!-- 11&#45;&gt;28 -->
<g id="edge12" class="edge">
<title>11&#45;&gt;28</title>
<path fill="none" stroke="black" d="M671.35,-91.81C577.95,-83.03 474.1,-69.82 431,-52 430.91,-51.96 430.81,-51.92 430.72,-51.88"/>
<polygon fill="black" stroke="black" points="432.67,-48.97 422.26,-47.01 429.18,-55.03 432.67,-48.97"/>
</g>
<!-- 29 -->
<g id="node15" class="node">
<title>29</title>
<polygon fill="darkseagreen" stroke="black" points="466,-52 440,-52 440,-16 466,-16 466,-52"/>
<text text-anchor="middle" x="453" y="-30.3" font-family="Times,serif" font-size="14.00">1</text>
</g>
<!-- 11&#45;&gt;29 -->
<g id="edge13" class="edge">
<title>11&#45;&gt;29</title>
<path fill="none" stroke="black" d="M634.69,-93.88C581.06,-85.94 524.7,-72.97 475,-52 474.91,-51.96 474.81,-51.92 474.72,-51.88"/>
<polygon fill="black" stroke="black" points="476.68,-48.97 466.28,-46.97 473.16,-55.02 476.68,-48.97"/>
</g>
<!-- 211 -->
<g id="node17" class="node">
<title>211</title>
<polygon fill="darkseagreen" stroke="black" points="510,-52 484,-52 484,-16 510,-16 510,-52"/>
<text text-anchor="middle" x="497" y="-30.3" font-family="Times,serif" font-size="14.00">1</text>
</g>
<!-- 11&#45;&gt;211 -->
<g id="edge15" class="edge">
<title>11&#45;&gt;211</title>
<path fill="none" stroke="black" d="M665.86,-92.09C616.76,-84.24 564.66,-71.77 519,-52 518.91,-51.96 518.81,-51.92 518.72,-51.88"/>
<polygon fill="black" stroke="black" points="520.69,-48.98 510.29,-46.93 517.14,-55.01 520.69,-48.98"/>
</g>
<!-- 212 -->
<g id="node18" class="node">
<title>212</title>
<polygon fill="darkseagreen" stroke="black" points="554,-52 528,-52 528,-16 554,-16 554,-52"/>
<text text-anchor="middle" x="541" y="-30.3" font-family="Times,serif" font-size="14.00">2</text>
</g>
<!-- 11&#45;&gt;212 -->
<g id="edge16" class="edge">
<title>11&#45;&gt;212</title>
<path fill="none" stroke="black" d="M697.63,-90.65C652.95,-82.82 604.83,-70.71 563,-52 562.91,-51.96 562.81,-51.92 562.72,-51.87"/>
<polygon fill="black" stroke="black" points="564.7,-48.98 554.32,-46.87 561.12,-54.99 564.7,-48.98"/>
</g>
<!-- 213 -->
<g id="node19" class="node">
<title>213</title>
<polygon fill="darkseagreen" stroke="black" points="598,-52 572,-52 572,-16 598,-16 598,-52"/>
<text text-anchor="middle" x="585" y="-30.3" font-family="Times,serif" font-size="14.00">2</text>
</g>
<!-- 11&#45;&gt;213 -->
<g id="edge17" class="edge">
<title>11&#45;&gt;213</title>
<path fill="none" stroke="black" d="M729.27,-89.61C689.16,-81.65 645,-69.74 607,-52 606.91,-51.96 606.81,-51.91 606.72,-51.87"/>
<polygon fill="black" stroke="black" points="608.72,-48.99 598.36,-46.79 605.09,-54.97 608.72,-48.99"/>
</g>
<!-- 214 -->
<g id="node20" class="node">
<title>214</title>
<polygon fill="darkseagreen" stroke="black" points="642,-52 616,-52 616,-16 642,-16 642,-52"/>
<text text-anchor="middle" x="629" y="-30.3" font-family="Times,serif" font-size="14.00">2</text>
</g>
<!-- 11&#45;&gt;214 -->
<g id="edge18" class="edge">
<title>11&#45;&gt;214</title>
<path fill="none" stroke="black" d="M759.05,-88.86C724.19,-80.59 684.64,-68.66 651,-52 650.91,-51.95 650.82,-51.91 650.72,-51.86"/>
<polygon fill="black" stroke="black" points="652.75,-49 642.41,-46.68 649.05,-54.94 652.75,-49"/>
</g>
<!-- 215 -->
<g id="node21" class="node">
<title>215</title>
<polygon fill="darkseagreen" stroke="black" points="686,-52 660,-52 660,-16 686,-16 686,-52"/>
<text text-anchor="middle" x="673" y="-30.3" font-family="Times,serif" font-size="14.00">2</text>
</g>
<!-- 11&#45;&gt;215 -->
<g id="edge19" class="edge">
<title>11&#45;&gt;215</title>
<path fill="none" stroke="black" d="M785.98,-88.41C757.31,-79.59 723.49,-67.37 695,-52 694.81,-51.9 694.62,-51.79 694.43,-51.69"/>
<polygon fill="black" stroke="black" points="696.3,-48.73 686.02,-46.17 692.46,-54.58 696.3,-48.73"/>
</g>
<!-- 216 -->
<g id="node22" class="node">
<title>216</title>
<polygon fill="darkseagreen" stroke="black" points="730,-52 704,-52 704,-16 730,-16 730,-52"/>
<text text-anchor="middle" x="717" y="-30.3" font-family="Times,serif" font-size="14.00">2</text>
</g>
<!-- 11&#45;&gt;216 -->
<g id="edge20" class="edge">
<title>11&#45;&gt;216</title>
<path fill="none" stroke="black" d="M809,-88.16C787.66,-78.58 761.27,-65.76 739,-52 738.82,-51.89 738.63,-51.77 738.44,-51.65"/>
<polygon fill="black" stroke="black" points="740.38,-48.74 730.18,-45.89 736.38,-54.48 740.38,-48.74"/>
</g>
<!-- 217 -->
<g id="node23" class="node">
<title>217</title>
<polygon fill="darkseagreen" stroke="black" points="774,-52 748,-52 748,-16 774,-16 774,-52"/>
<text text-anchor="middle" x="761" y="-30.3" font-family="Times,serif" font-size="14.00">2</text>
</g>
<!-- 11&#45;&gt;217 -->
<g id="edge21" class="edge">
<title>11&#45;&gt;217</title>
<path fill="none" stroke="black" d="M827.25,-87.7C813.42,-76.7 795.62,-62.54 781.95,-51.67"/>
<polygon fill="black" stroke="black" points="784.05,-48.87 774.05,-45.38 779.7,-54.34 784.05,-48.87"/>
</g>
<!-- 218 -->
<g id="node24" class="node">
<title>218</title>
<polygon fill="darkseagreen" stroke="black" points="818,-52 792,-52 792,-16 818,-16 818,-52"/>
<text text-anchor="middle" x="805" y="-30.3" font-family="Times,serif" font-size="14.00">2</text>
</g>
<!-- 11&#45;&gt;218 -->
<g id="edge22" class="edge">
<title>11&#45;&gt;218</title>
<path fill="none" stroke="black" d="M838.12,-87.7C833.01,-79.56 826.8,-69.69 821.16,-60.7"/>
<polygon fill="black" stroke="black" points="824.04,-58.71 815.75,-52.1 818.11,-62.43 824.04,-58.71"/>
</g>
<!-- 219 -->
<g id="node25" class="node">
<title>219</title>
<polygon fill="darkseagreen" stroke="black" points="862,-52 836,-52 836,-16 862,-16 862,-52"/>
<text text-anchor="middle" x="849" y="-30.3" font-family="Times,serif" font-size="14.00">2</text>
</g>
<!-- 11&#45;&gt;219 -->
<g id="edge23" class="edge">
<title>11&#45;&gt;219</title>
<path fill="none" stroke="black" d="M849,-87.7C849,-79.98 849,-70.71 849,-62.11"/>
<polygon fill="black" stroke="black" points="852.5,-62.1 849,-52.1 845.5,-62.1 852.5,-62.1"/>
</g>
<!-- 220 -->
<g id="node26" class="node">
<title>220</title>
<polygon fill="darkseagreen" stroke="black" points="906,-52 880,-52 880,-16 906,-16 906,-52"/>
<text text-anchor="middle" x="893" y="-30.3" font-family="Times,serif" font-size="14.00">3</text>
</g>
<!-- 11&#45;&gt;220 -->
<g id="edge24" class="edge">
<title>11&#45;&gt;220</title>
<path fill="none" stroke="black" d="M859.88,-87.7C864.99,-79.56 871.2,-69.69 876.84,-60.7"/>
<polygon fill="black" stroke="black" points="879.89,-62.43 882.25,-52.1 873.96,-58.71 879.89,-62.43"/>
</g>
<!-- 221 -->
<g id="node27" class="node">
<title>221</title>
<polygon fill="darkseagreen" stroke="black" points="950,-52 924,-52 924,-16 950,-16 950,-52"/>
<text text-anchor="middle" x="937" y="-30.3" font-family="Times,serif" font-size="14.00">5</text>
</g>
<!-- 11&#45;&gt;221 -->
<g id="edge25" class="edge">
<title>11&#45;&gt;221</title>
<path fill="none" stroke="black" d="M870.75,-87.7C884.58,-76.7 902.38,-62.54 916.05,-51.67"/>
<polygon fill="black" stroke="black" points="918.3,-54.34 923.95,-45.38 913.95,-48.87 918.3,-54.34"/>
</g>
<!-- 222 -->
<g id="node28" class="node">
<title>222</title>
<polygon fill="darkseagreen" stroke="black" points="994,-52 968,-52 968,-16 994,-16 994,-52"/>
<text text-anchor="middle" x="981" y="-30.3" font-family="Times,serif" font-size="14.00">7</text>
</g>
<!-- 11&#45;&gt;222 -->
<g id="edge26" class="edge">
<title>11&#45;&gt;222</title>
<path fill="none" stroke="black" d="M889,-88.16C910.34,-78.58 936.73,-65.76 959,-52 959.18,-51.89 959.37,-51.77 959.56,-51.65"/>
<polygon fill="black" stroke="black" points="961.62,-54.48 967.82,-45.89 957.62,-48.74 961.62,-54.48"/>
</g>
<!-- 223 -->
<g id="node29" class="node">
<title>223</title>
<polygon fill="darkseagreen" stroke="black" points="1038,-52 1012,-52 1012,-16 1038,-16 1038,-52"/>
<text text-anchor="middle" x="1025" y="-30.3" font-family="Times,serif" font-size="14.00">8</text>
</g>
<!-- 11&#45;&gt;223 -->
<g id="edge27" class="edge">
<title>11&#45;&gt;223</title>
<path fill="none" stroke="black" d="M912.02,-88.41C940.69,-79.59 974.51,-67.37 1003,-52 1003.19,-51.9 1003.38,-51.79 1003.57,-51.69"/>
<polygon fill="black" stroke="black" points="1005.54,-54.58 1011.98,-46.17 1001.7,-48.73 1005.54,-54.58"/>
</g>
<!-- 224 -->
<g id="node30" class="node">
<title>224</title>
<polygon fill="darkseagreen" stroke="black" points="1082,-52 1056,-52 1056,-16 1082,-16 1082,-52"/>
<text text-anchor="middle" x="1069" y="-30.3" font-family="Times,serif" font-size="14.00">8</text>
</g>
<!-- 11&#45;&gt;224 -->
<g id="edge28" class="edge">
<title>11&#45;&gt;224</title>
<path fill="none" stroke="black" d="M938.95,-88.86C973.81,-80.59 1013.36,-68.66 1047,-52 1047.09,-51.95 1047.18,-51.91 1047.28,-51.86"/>
<polygon fill="black" stroke="black" points="1048.95,-54.94 1055.59,-46.68 1045.25,-49 1048.95,-54.94"/>
</g>
<!-- 225 -->
<g id="node31" class="node">
<title>225</title>
<polygon fill="darkseagreen" stroke="black" points="1126,-52 1100,-52 1100,-16 1126,-16 1126,-52"/>
<text text-anchor="middle" x="1113" y="-30.3" font-family="Times,serif" font-size="14.00">8</text>
</g>
<!-- 11&#45;&gt;225 -->
<g id="edge29" class="edge">
<title>11&#45;&gt;225</title>
<path fill="none" stroke="black" d="M968.73,-89.61C1008.84,-81.65 1053,-69.74 1091,-52 1091.09,-51.96 1091.19,-51.91 1091.28,-51.87"/>
<polygon fill="black" stroke="black" points="1092.91,-54.97 1099.64,-46.79 1089.28,-48.99 1092.91,-54.97"/>
</g>
<!-- 226 -->
<g id="node32" class="node">
<title>226</title>
<polygon fill="darkseagreen" stroke="black" points="1170,-52 1144,-52 1144,-16 1170,-16 1170,-52"/>
<text text-anchor="middle" x="1157" y="-30.3" font-family="Times,serif" font-size="14.00">9</text>
</g>
<!-- 11&#45;&gt;226 -->
<g id="edge30" class="edge">
<title>11&#45;&gt;226</title>
<path fill="none" stroke="black" d="M1000.37,-90.65C1045.05,-82.82 1093.17,-70.71 1135,-52 1135.09,-51.96 1135.19,-51.92 1135.28,-51.87"/>
<polygon fill="black" stroke="black" points="1136.88,-54.99 1143.68,-46.87 1133.3,-48.98 1136.88,-54.99"/>
</g>
<!-- 227 -->
<g id="node33" class="node">
<title>227</title>
<polygon fill="darkseagreen" stroke="black" points="1214,-52 1188,-52 1188,-16 1214,-16 1214,-52"/>
<text text-anchor="middle" x="1201" y="-30.3" font-family="Times,serif" font-size="14.00">9</text>
</g>
<!-- 11&#45;&gt;227 -->
<g id="edge31" class="edge">
<title>11&#45;&gt;227</title>
<path fill="none" stroke="black" d="M1032.14,-92.09C1081.24,-84.24 1133.34,-71.77 1179,-52 1179.09,-51.96 1179.19,-51.92 1179.28,-51.88"/>
<polygon fill="black" stroke="black" points="1180.86,-55.01 1187.71,-46.93 1177.31,-48.98 1180.86,-55.01"/>
</g>
<!-- 228 -->
<g id="node34" class="node">
<title>228</title>
<polygon fill="darkseagreen" stroke="black" points="1267.5,-52 1232.5,-52 1232.5,-16 1267.5,-16 1267.5,-52"/>
<text text-anchor="middle" x="1250" y="-30.3" font-family="Times,serif" font-size="14.00">15</text>
</g>
<!-- 11&#45;&gt;228 -->
<g id="edge32" class="edge">
<title>11&#45;&gt;228</title>
<path fill="none" stroke="black" d="M1045.96,-92.8C1104.21,-85.03 1167.28,-72.43 1223,-52 1223.1,-51.96 1223.2,-51.93 1223.29,-51.89"/>
<polygon fill="black" stroke="black" points="1224.72,-55.09 1232.24,-47.62 1221.71,-48.77 1224.72,-55.09"/>
</g>
<!-- 229 -->
<g id="node35" class="node">
<title>229</title>
<polygon fill="darkseagreen" stroke="black" points="1320.5,-52 1285.5,-52 1285.5,-16 1320.5,-16 1320.5,-52"/>
<text text-anchor="middle" x="1303" y="-30.3" font-family="Times,serif" font-size="14.00">19</text>
</g>
<!-- 11&#45;&gt;229 -->
<g id="edge33" class="edge">
<title>11&#45;&gt;229</title>
<path fill="none" stroke="black" d="M1078.5,-95.12C1143.69,-87.37 1213.82,-74.18 1276,-52 1276.1,-51.97 1276.2,-51.93 1276.29,-51.89"/>
<polygon fill="black" stroke="black" points="1277.7,-55.1 1285.26,-47.67 1274.72,-48.77 1277.7,-55.1"/>
</g>
<!-- 230 -->
<g id="node36" class="node">
<title>230</title>
<polygon fill="darkseagreen" stroke="black" points="1373.5,-52 1338.5,-52 1338.5,-16 1373.5,-16 1373.5,-52"/>
<text text-anchor="middle" x="1356" y="-30.3" font-family="Times,serif" font-size="14.00">27</text>
</g>
<!-- 11&#45;&gt;230 -->
<g id="edge34" class="edge">
<title>11&#45;&gt;230</title>
<path fill="none" stroke="black" d="M1040.98,-92.58C1150.77,-83.76 1276.76,-70.24 1329,-52 1329.1,-51.97 1329.2,-51.93 1329.29,-51.9"/>
<polygon fill="black" stroke="black" points="1330.69,-55.11 1338.27,-47.71 1327.73,-48.76 1330.69,-55.11"/>
</g>
<!-- 231 -->
<g id="node37" class="node">
<title>231</title>
<polygon fill="darkseagreen" stroke="black" points="1426.5,-52 1391.5,-52 1391.5,-16 1426.5,-16 1426.5,-52"/>
<text text-anchor="middle" x="1409" y="-30.3" font-family="Times,serif" font-size="14.00">69</text>
</g>
<!-- 11&#45;&gt;231 -->
<g id="edge35" class="edge">
<title>11&#45;&gt;231</title>
<path fill="none" stroke="black" d="M1061.46,-93.81C1183.52,-85.44 1323.84,-71.96 1382,-52 1382.1,-51.97 1382.2,-51.93 1382.29,-51.9"/>
<polygon fill="black" stroke="black" points="1383.68,-55.11 1391.28,-47.74 1380.74,-48.76 1383.68,-55.11"/>
</g>
<!-- 232 -->
<g id="node38" class="node">
<title>232</title>
<polygon fill="darkseagreen" stroke="black" points="1489,-52 1445,-52 1445,-16 1489,-16 1489,-52"/>
<text text-anchor="middle" x="1467" y="-30.3" font-family="Times,serif" font-size="14.00">100</text>
</g>
<!-- 11&#45;&gt;232 -->
<g id="edge36" class="edge">
<title>11&#45;&gt;232</title>
<path fill="none" stroke="black" d="M1067.3,-94.25C1204.53,-85.76 1367.87,-71.98 1435,-52 1435.1,-51.97 1435.2,-51.94 1435.31,-51.91"/>
<polygon fill="black" stroke="black" points="1436.7,-55.12 1444.75,-48.24 1434.16,-48.6 1436.7,-55.12"/>
</g>
<!-- 233 -->
<g id="node39" class="node">
<title>233</title>
<polygon fill="darkseagreen" stroke="black" points="1551,-52 1507,-52 1507,-16 1551,-16 1551,-52"/>
<text text-anchor="middle" x="1529" y="-30.3" font-family="Times,serif" font-size="14.00">104</text>
</g>
<!-- 11&#45;&gt;233 -->
<g id="edge37" class="edge">
<title>11&#45;&gt;233</title>
<path fill="none" stroke="black" d="M1087.51,-95.91C1234.54,-88.39 1409.68,-75.45 1497.09,-51.42"/>
<polygon fill="black" stroke="black" points="1498.17,-54.75 1506.8,-48.59 1496.22,-48.03 1498.17,-54.75"/>
</g>
<!-- 234 -->
<g id="node40" class="node">
<title>234</title>
<polygon fill="darkseagreen" stroke="black" points="1613,-52 1569,-52 1569,-16 1613,-16 1613,-52"/>
<text text-anchor="middle" x="1591" y="-30.3" font-family="Times,serif" font-size="14.00">219</text>
</g>
<!-- 11&#45;&gt;234 -->
<g id="edge38" class="edge">
<title>11&#45;&gt;234</title>
<path fill="none" stroke="black" d="M1102.58,-97.41C1265.57,-90.45 1462.77,-77.57 1558.97,-51.44"/>
<polygon fill="black" stroke="black" points="1560.16,-54.74 1568.8,-48.61 1558.22,-48.01 1560.16,-54.74"/>
</g>
<!-- 235 -->
<g id="node41" class="node">
<title>235</title>
<polygon fill="darkseagreen" stroke="black" points="1703,-52 1631,-52 1631,-16 1703,-16 1703,-52"/>
<text text-anchor="middle" x="1667" y="-30.3" font-family="Times,serif" font-size="14.00">285</text>
</g>
<!-- 11&#45;&gt;235 -->
<g id="edge39" class="edge">
<title>11&#45;&gt;235</title>
<path fill="none" stroke="black" d="M1090.4,-96.14C1273,-88.04 1509.36,-74.21 1620.86,-51.79"/>
<polygon fill="black" stroke="black" points="1621.87,-55.16 1630.93,-49.67 1620.42,-48.31 1621.87,-55.16"/>
</g>
<!-- 236 -->
<g id="node42" class="node">
<title>236</title>
<polygon fill="darkseagreen" stroke="black" points="1793,-52 1721,-52 1721,-16 1793,-16 1793,-52"/>
<text text-anchor="middle" x="1757" y="-30.3" font-family="Times,serif" font-size="14.00">342</text>
</g>
<!-- 11&#45;&gt;236 -->
<g id="edge40" class="edge">
<title>11&#45;&gt;236</title>
<path fill="none" stroke="black" d="M1104.81,-97.73C1311.08,-90.35 1585.45,-76.69 1711.06,-51.74"/>
<polygon fill="black" stroke="black" points="1711.85,-55.15 1720.93,-49.69 1710.43,-48.3 1711.85,-55.15"/>
</g>
<!-- 237 -->
<g id="node43" class="node">
<title>237</title>
<polygon fill="darkseagreen" stroke="black" points="1883,-52 1811,-52 1811,-16 1883,-16 1883,-52"/>
<text text-anchor="middle" x="1847" y="-30.3" font-family="Times,serif" font-size="14.00">358</text>
</g>
<!-- 11&#45;&gt;237 -->
<g id="edge41" class="edge">
<title>11&#45;&gt;237</title>
<path fill="none" stroke="black" d="M1116.02,-99.23C1345.89,-92.64 1660.79,-79.3 1801.14,-51.72"/>
<polygon fill="black" stroke="black" points="1801.84,-55.15 1810.94,-49.71 1800.44,-48.29 1801.84,-55.15"/>
</g>
<!-- 238 -->
<g id="node44" class="node">
<title>238</title>
<polygon fill="darkseagreen" stroke="black" points="1973,-52 1901,-52 1901,-16 1973,-16 1973,-52"/>
<text text-anchor="middle" x="1937" y="-30.3" font-family="Times,serif" font-size="14.00">377</text>
</g>
<!-- 11&#45;&gt;238 -->
<g id="edge42" class="edge">
<title>11&#45;&gt;238</title>
<path fill="none" stroke="black" d="M1123.98,-100.64C1377.17,-94.91 1735.14,-82.05 1890.97,-51.75"/>
<polygon fill="black" stroke="black" points="1891.83,-55.14 1900.94,-49.72 1890.44,-48.28 1891.83,-55.14"/>
</g>
<!-- legend_2 -->
<g id="node45" class="node">
<title>legend_2</title>
<polygon fill="darkseagreen" stroke="black" points="2212.5,-52 1991.5,-52 1991.5,-16 2212.5,-16 2212.5,-52"/>
<text text-anchor="middle" x="2102" y="-30.3" font-family="Times,serif" font-size="14.00">DT=6 ST=1 Similarity=0.54</text>
</g>
<!-- legend_1&#45;&gt;legend_2 -->
<g id="edge43" class="edge">
<title>legend_1&#45;&gt;legend_2</title>
<path fill="none" stroke="black" d="M2102,-87.7C2102,-79.98 2102,-70.71 2102,-62.11"/>
<polygon fill="black" stroke="black" points="2105.5,-62.1 2102,-52.1 2098.5,-62.1 2105.5,-62.1"/>
</g>
</g>
</svg>
