<?xml version="1.0" encoding="UTF-8" standalone="no"?>
<!DOCTYPE svg PUBLIC "-//W3C//DTD SVG 1.1//EN"
 "http://www.w3.org/Graphics/SVG/1.1/DTD/svg11.dtd">
<!-- Generated by graphviz version 2.43.0 (0)
 -->
<!-- Title: %3 Pages: 1 -->
<svg width="2866pt" height="497pt"
 viewBox="0.00 0.00 2865.60 497.00" xmlns="http://www.w3.org/2000/svg" xmlns:xlink="http://www.w3.org/1999/xlink">
<g id="graph0" class="graph" transform="scale(1 1) rotate(0) translate(4 493)">
<title>%3</title>
<polygon fill="white" stroke="transparent" points="-4,4 -4,-493 2861.6,-493 2861.6,4 -4,4"/>
<text text-anchor="middle" x="1428.8" y="-473.8" font-family="Times,serif" font-size="14.00">ConsTree</text>
<text text-anchor="middle" x="1428.8" y="-458.8" font-family="Times,serif" font-size="14.00">Tree Quality = 1</text>
<g id="clust1" class="cluster">
<title>cluster</title>
<polygon fill="none" stroke="black" points="2613.6,-8 2613.6,-443 2849.6,-443 2849.6,-8 2613.6,-8"/>
<text text-anchor="middle" x="2731.6" y="-427.8" font-family="Times,serif" font-size="14.00">Legend</text>
</g>
<!-- 00 -->
<g id="node1" class="node">
<title>00</title>
<ellipse fill="#b9d3ee" stroke="black" cx="1450.6" cy="-394" rx="108" ry="18"/>
<text text-anchor="middle" x="1450.6" y="-390.3" font-family="Times,serif" font-size="14.00">756</text>
</g>
<!-- 12 -->
<g id="node6" class="node">
<title>12</title>
<ellipse fill="#b9d3ee" stroke="black" cx="1486.6" cy="-322" rx="108" ry="18"/>
<text text-anchor="middle" x="1486.6" y="-318.3" font-family="Times,serif" font-size="14.00">793</text>
</g>
<!-- 00&#45;&gt;12 -->
<g id="edge3" class="edge">
<title>00&#45;&gt;12</title>
<path fill="none" stroke="black" d="M1459.31,-376.05C1463.45,-368.01 1468.49,-358.2 1473.11,-349.23"/>
<polygon fill="black" stroke="black" points="1476.25,-350.77 1477.71,-340.28 1470.03,-347.57 1476.25,-350.77"/>
</g>
<!-- 01 -->
<g id="node2" class="node">
<title>01</title>
<ellipse fill="#b9d3ee" stroke="black" cx="1756.6" cy="-394" rx="180" ry="18"/>
<text text-anchor="middle" x="1756.6" y="-390.3" font-family="Times,serif" font-size="14.00">1244</text>
</g>
<!-- 10 -->
<g id="node4" class="node">
<title>10</title>
<ellipse fill="#b9d3ee" stroke="black" cx="1882.6" cy="-322" rx="36" ry="18"/>
<text text-anchor="middle" x="1882.6" y="-318.3" font-family="Times,serif" font-size="14.00">416</text>
</g>
<!-- 01&#45;&gt;10 -->
<g id="edge1" class="edge">
<title>01&#45;&gt;10</title>
<path fill="none" stroke="black" d="M1786.78,-376.23C1806.01,-365.55 1830.9,-351.72 1850.5,-340.83"/>
<polygon fill="black" stroke="black" points="1852.32,-343.82 1859.36,-335.91 1848.92,-337.7 1852.32,-343.82"/>
</g>
<!-- 11 -->
<g id="node5" class="node">
<title>11</title>
<ellipse fill="#b9d3ee" stroke="black" cx="1720.6" cy="-322" rx="108" ry="18"/>
<text text-anchor="middle" x="1720.6" y="-318.3" font-family="Times,serif" font-size="14.00">791</text>
</g>
<!-- 01&#45;&gt;11 -->
<g id="edge2" class="edge">
<title>01&#45;&gt;11</title>
<path fill="none" stroke="black" d="M1747.7,-375.7C1743.6,-367.73 1738.65,-358.1 1734.1,-349.26"/>
<polygon fill="black" stroke="black" points="1737.08,-347.4 1729.39,-340.1 1730.85,-350.6 1737.08,-347.4"/>
</g>
<!-- 01&#45;&gt;12 -->
<g id="edge4" class="edge">
<title>01&#45;&gt;12</title>
<path fill="none" stroke="black" d="M1694.99,-377.03C1652.4,-365.98 1595.79,-351.31 1552.33,-340.04"/>
<polygon fill="black" stroke="black" points="1552.98,-336.6 1542.43,-337.47 1551.23,-343.37 1552.98,-336.6"/>
</g>
<!-- legend_0 -->
<g id="node3" class="node">
<title>legend_0</title>
<polygon fill="#b9d3ee" stroke="black" points="2842.1,-412 2621.1,-412 2621.1,-376 2842.1,-376 2842.1,-412"/>
<text text-anchor="middle" x="2731.6" y="-390.3" font-family="Times,serif" font-size="14.00">DT=1 ST=1 Similarity=0.48</text>
</g>
<!-- legend_1 -->
<g id="node7" class="node">
<title>legend_1</title>
<polygon fill="#b9d3ee" stroke="black" points="2842.1,-340 2621.1,-340 2621.1,-304 2842.1,-304 2842.1,-340"/>
<text text-anchor="middle" x="2731.6" y="-318.3" font-family="Times,serif" font-size="14.00">DT=2 ST=1 Similarity=0.64</text>
</g>
<!-- legend_0&#45;&gt;legend_1 -->
<g id="edge5" class="edge">
<title>legend_0&#45;&gt;legend_1</title>
<path fill="none" stroke="black" d="M2731.6,-375.7C2731.6,-367.98 2731.6,-358.71 2731.6,-350.11"/>
<polygon fill="black" stroke="black" points="2735.1,-350.1 2731.6,-340.1 2728.1,-350.1 2735.1,-350.1"/>
</g>
<!-- 20 -->
<g id="node8" class="node">
<title>20</title>
<ellipse fill="#b9d3ee" stroke="black" cx="1903.6" cy="-250" rx="36" ry="18"/>
<text text-anchor="middle" x="1903.6" y="-246.3" font-family="Times,serif" font-size="14.00">406</text>
</g>
<!-- 10&#45;&gt;20 -->
<g id="edge6" class="edge">
<title>10&#45;&gt;20</title>
<path fill="none" stroke="black" d="M1887.68,-304.05C1890.02,-296.26 1892.85,-286.82 1895.47,-278.08"/>
<polygon fill="black" stroke="black" points="1898.89,-278.86 1898.41,-268.28 1892.19,-276.85 1898.89,-278.86"/>
</g>
<!-- 23 -->
<g id="node11" class="node">
<title>23</title>
<ellipse fill="#b9d3ee" stroke="black" cx="1741.6" cy="-250" rx="108" ry="18"/>
<text text-anchor="middle" x="1741.6" y="-246.3" font-family="Times,serif" font-size="14.00">796</text>
</g>
<!-- 10&#45;&gt;23 -->
<g id="edge11" class="edge">
<title>10&#45;&gt;23</title>
<path fill="none" stroke="black" d="M1858.04,-308.81C1837.47,-298.6 1807.66,-283.8 1783.35,-271.73"/>
<polygon fill="black" stroke="black" points="1784.85,-268.56 1774.33,-267.25 1781.73,-274.83 1784.85,-268.56"/>
</g>
<!-- 11&#45;&gt;20 -->
<g id="edge7" class="edge">
<title>11&#45;&gt;20</title>
<path fill="none" stroke="black" d="M1761.67,-305.29C1793.05,-293.29 1835.93,-276.88 1866.33,-265.26"/>
<polygon fill="black" stroke="black" points="1867.64,-268.5 1875.73,-261.66 1865.14,-261.96 1867.64,-268.5"/>
</g>
<!-- 21 -->
<g id="node9" class="node">
<title>21</title>
<ellipse fill="#b9d3ee" stroke="black" cx="1486.6" cy="-250" rx="36" ry="18"/>
<text text-anchor="middle" x="1486.6" y="-246.3" font-family="Times,serif" font-size="14.00">388</text>
</g>
<!-- 11&#45;&gt;21 -->
<g id="edge8" class="edge">
<title>11&#45;&gt;21</title>
<path fill="none" stroke="black" d="M1664.72,-306.49C1627.14,-296.43 1576.62,-282.31 1532.6,-268 1529.7,-267.06 1526.7,-266.04 1523.71,-265"/>
<polygon fill="black" stroke="black" points="1524.8,-261.67 1514.2,-261.61 1522.44,-268.27 1524.8,-261.67"/>
</g>
<!-- 22 -->
<g id="node10" class="node">
<title>22</title>
<ellipse fill="#b9d3ee" stroke="black" cx="1577.6" cy="-250" rx="36" ry="18"/>
<text text-anchor="middle" x="1577.6" y="-246.3" font-family="Times,serif" font-size="14.00">410</text>
</g>
<!-- 11&#45;&gt;22 -->
<g id="edge10" class="edge">
<title>11&#45;&gt;22</title>
<path fill="none" stroke="black" d="M1687.43,-304.76C1664.66,-293.62 1634.53,-278.87 1611.58,-267.64"/>
<polygon fill="black" stroke="black" points="1613.07,-264.47 1602.55,-263.21 1609.99,-270.75 1613.07,-264.47"/>
</g>
<!-- 12&#45;&gt;21 -->
<g id="edge9" class="edge">
<title>12&#45;&gt;21</title>
<path fill="none" stroke="black" d="M1486.6,-303.7C1486.6,-295.98 1486.6,-286.71 1486.6,-278.11"/>
<polygon fill="black" stroke="black" points="1490.1,-278.1 1486.6,-268.1 1483.1,-278.1 1490.1,-278.1"/>
</g>
<!-- 12&#45;&gt;23 -->
<g id="edge12" class="edge">
<title>12&#45;&gt;23</title>
<path fill="none" stroke="black" d="M1540.05,-306.33C1580.43,-295.24 1635.97,-280 1678.52,-268.32"/>
<polygon fill="black" stroke="black" points="1679.49,-271.68 1688.21,-265.65 1677.64,-264.93 1679.49,-271.68"/>
</g>
<!-- legend_2 -->
<g id="node12" class="node">
<title>legend_2</title>
<polygon fill="#b9d3ee" stroke="black" points="2842.1,-268 2621.1,-268 2621.1,-232 2842.1,-232 2842.1,-268"/>
<text text-anchor="middle" x="2731.6" y="-246.3" font-family="Times,serif" font-size="14.00">DT=3 ST=1 Similarity=0.68</text>
</g>
<!-- legend_1&#45;&gt;legend_2 -->
<g id="edge13" class="edge">
<title>legend_1&#45;&gt;legend_2</title>
<path fill="none" stroke="black" d="M2731.6,-303.7C2731.6,-295.98 2731.6,-286.71 2731.6,-278.11"/>
<polygon fill="black" stroke="black" points="2735.1,-278.1 2731.6,-268.1 2728.1,-278.1 2735.1,-278.1"/>
</g>
<!-- 34 -->
<g id="node17" class="node">
<title>34</title>
<polygon fill="darkseagreen" stroke="black" points="2079.6,-196 2007.6,-196 2007.6,-160 2079.6,-160 2079.6,-196"/>
<text text-anchor="middle" x="2043.6" y="-174.3" font-family="Times,serif" font-size="14.00">438</text>
</g>
<!-- 20&#45;&gt;34 -->
<g id="edge20" class="edge">
<title>20&#45;&gt;34</title>
<path fill="none" stroke="black" d="M1928.3,-236.65C1948.19,-226.7 1976.63,-212.48 2000.29,-200.66"/>
<polygon fill="black" stroke="black" points="2002.04,-203.69 2009.42,-196.09 1998.91,-197.43 2002.04,-203.69"/>
</g>
<!-- 30 -->
<g id="node13" class="node">
<title>30</title>
<polygon fill="darkseagreen" stroke="black" points="966.6,-196 894.6,-196 894.6,-160 966.6,-160 966.6,-196"/>
<text text-anchor="middle" x="930.6" y="-174.3" font-family="Times,serif" font-size="14.00">394</text>
</g>
<!-- 21&#45;&gt;30 -->
<g id="edge14" class="edge">
<title>21&#45;&gt;30</title>
<path fill="none" stroke="black" d="M1451.82,-244.62C1355.55,-232.5 1085.53,-198.51 976.81,-184.82"/>
<polygon fill="black" stroke="black" points="977.16,-181.33 966.8,-183.56 976.29,-188.28 977.16,-181.33"/>
</g>
<!-- 33 -->
<g id="node16" class="node">
<title>33</title>
<polygon fill="darkseagreen" stroke="black" points="1522.6,-196 1450.6,-196 1450.6,-160 1522.6,-160 1522.6,-196"/>
<text text-anchor="middle" x="1486.6" y="-174.3" font-family="Times,serif" font-size="14.00">392</text>
</g>
<!-- 21&#45;&gt;33 -->
<g id="edge18" class="edge">
<title>21&#45;&gt;33</title>
<path fill="none" stroke="black" d="M1486.6,-231.7C1486.6,-223.98 1486.6,-214.71 1486.6,-206.11"/>
<polygon fill="black" stroke="black" points="1490.1,-206.1 1486.6,-196.1 1483.1,-206.1 1490.1,-206.1"/>
</g>
<!-- 22&#45;&gt;30 -->
<g id="edge15" class="edge">
<title>22&#45;&gt;30</title>
<path fill="none" stroke="black" d="M1550.72,-237.71C1544.53,-235.49 1537.91,-233.42 1531.6,-232 1518.07,-228.96 1115.79,-194.69 977.08,-182.93"/>
<polygon fill="black" stroke="black" points="977.05,-179.42 966.79,-182.06 976.45,-186.39 977.05,-179.42"/>
</g>
<!-- 31 -->
<g id="node14" class="node">
<title>31</title>
<polygon fill="darkseagreen" stroke="black" points="1212.6,-196 1140.6,-196 1140.6,-160 1212.6,-160 1212.6,-196"/>
<text text-anchor="middle" x="1176.6" y="-174.3" font-family="Times,serif" font-size="14.00">396</text>
</g>
<!-- 22&#45;&gt;31 -->
<g id="edge16" class="edge">
<title>22&#45;&gt;31</title>
<path fill="none" stroke="black" d="M1550.65,-237.99C1544.47,-235.76 1537.87,-233.61 1531.6,-232 1422.66,-204.05 1290.87,-189.17 1222.6,-182.82"/>
<polygon fill="black" stroke="black" points="1222.88,-179.33 1212.61,-181.91 1222.25,-186.3 1222.88,-179.33"/>
</g>
<!-- 22&#45;&gt;34 -->
<g id="edge21" class="edge">
<title>22&#45;&gt;34</title>
<path fill="none" stroke="black" d="M1604.62,-238.07C1611.08,-235.78 1618.02,-233.59 1624.6,-232 1757.52,-199.97 1919.12,-186.48 1997.09,-181.52"/>
<polygon fill="black" stroke="black" points="1997.76,-184.98 2007.52,-180.87 1997.33,-178 1997.76,-184.98"/>
</g>
<!-- 32 -->
<g id="node15" class="node">
<title>32</title>
<polygon fill="darkseagreen" stroke="black" points="1777.6,-196 1705.6,-196 1705.6,-160 1777.6,-160 1777.6,-196"/>
<text text-anchor="middle" x="1741.6" y="-174.3" font-family="Times,serif" font-size="14.00">380</text>
</g>
<!-- 23&#45;&gt;32 -->
<g id="edge17" class="edge">
<title>23&#45;&gt;32</title>
<path fill="none" stroke="black" d="M1741.6,-231.7C1741.6,-223.98 1741.6,-214.71 1741.6,-206.11"/>
<polygon fill="black" stroke="black" points="1745.1,-206.1 1741.6,-196.1 1738.1,-206.1 1745.1,-206.1"/>
</g>
<!-- 23&#45;&gt;33 -->
<g id="edge19" class="edge">
<title>23&#45;&gt;33</title>
<path fill="none" stroke="black" d="M1688.14,-234.33C1642.07,-221.68 1576.27,-203.62 1532.54,-191.61"/>
<polygon fill="black" stroke="black" points="1533.31,-188.19 1522.74,-188.92 1531.46,-194.94 1533.31,-188.19"/>
</g>
<!-- 23&#45;&gt;34 -->
<g id="edge22" class="edge">
<title>23&#45;&gt;34</title>
<path fill="none" stroke="black" d="M1801.99,-235C1859.6,-221.65 1945.13,-201.82 1997.46,-189.69"/>
<polygon fill="black" stroke="black" points="1998.52,-193.04 2007.47,-187.37 1996.94,-186.22 1998.52,-193.04"/>
</g>
<!-- legend_3 -->
<g id="node18" class="node">
<title>legend_3</title>
<polygon fill="darkseagreen" stroke="black" points="2842.1,-196 2621.1,-196 2621.1,-160 2842.1,-160 2842.1,-196"/>
<text text-anchor="middle" x="2731.6" y="-174.3" font-family="Times,serif" font-size="14.00">DT=4 ST=1 Similarity=0.68</text>
</g>
<!-- legend_2&#45;&gt;legend_3 -->
<g id="edge23" class="edge">
<title>legend_2&#45;&gt;legend_3</title>
<path fill="none" stroke="black" d="M2731.6,-231.7C2731.6,-223.98 2731.6,-214.71 2731.6,-206.11"/>
<polygon fill="black" stroke="black" points="2735.1,-206.1 2731.6,-196.1 2728.1,-206.1 2735.1,-206.1"/>
</g>
<!-- 41 -->
<g id="node20" class="node">
<title>41</title>
<ellipse fill="#b9d3ee" stroke="black" cx="516.6" cy="-106" rx="16.8" ry="18"/>
<text text-anchor="middle" x="516.6" y="-102.3" font-family="Times,serif" font-size="14.00">3</text>
</g>
<!-- 30&#45;&gt;41 -->
<g id="edge25" class="edge">
<title>30&#45;&gt;41</title>
<path fill="none" stroke="black" d="M894.58,-170.91C813,-157.12 615.59,-123.74 543.52,-111.55"/>
<polygon fill="black" stroke="black" points="543.88,-108.06 533.44,-109.85 542.72,-114.97 543.88,-108.06"/>
</g>
<!-- 42 -->
<g id="node21" class="node">
<title>42</title>
<ellipse fill="#b9d3ee" stroke="black" cx="646.6" cy="-106" rx="16.8" ry="18"/>
<text text-anchor="middle" x="646.6" y="-102.3" font-family="Times,serif" font-size="14.00">3</text>
</g>
<!-- 30&#45;&gt;42 -->
<g id="edge26" class="edge">
<title>30&#45;&gt;42</title>
<path fill="none" stroke="black" d="M894.34,-168.06C836.26,-153.75 723.75,-126.02 672.8,-113.46"/>
<polygon fill="black" stroke="black" points="673.45,-110.01 662.9,-111.02 671.77,-116.81 673.45,-110.01"/>
</g>
<!-- 48 -->
<g id="node27" class="node">
<title>48</title>
<ellipse fill="#b9d3ee" stroke="black" cx="244.6" cy="-106" rx="36" ry="18"/>
<text text-anchor="middle" x="244.6" y="-102.3" font-family="Times,serif" font-size="14.00">373</text>
</g>
<!-- 30&#45;&gt;48 -->
<g id="edge32" class="edge">
<title>30&#45;&gt;48</title>
<path fill="none" stroke="black" d="M894.2,-173.29C778.21,-161.45 417.46,-124.64 289.87,-111.62"/>
<polygon fill="black" stroke="black" points="289.98,-108.11 279.67,-110.58 289.27,-115.08 289.98,-108.11"/>
</g>
<!-- 49 -->
<g id="node28" class="node">
<title>49</title>
<ellipse fill="#b9d3ee" stroke="black" cx="930.6" cy="-106" rx="36" ry="18"/>
<text text-anchor="middle" x="930.6" y="-102.3" font-family="Times,serif" font-size="14.00">401</text>
</g>
<!-- 30&#45;&gt;49 -->
<g id="edge33" class="edge">
<title>30&#45;&gt;49</title>
<path fill="none" stroke="black" d="M930.6,-159.7C930.6,-151.98 930.6,-142.71 930.6,-134.11"/>
<polygon fill="black" stroke="black" points="934.1,-134.1 930.6,-124.1 927.1,-134.1 934.1,-134.1"/>
</g>
<!-- 411 -->
<g id="node30" class="node">
<title>411</title>
<ellipse fill="#b9d3ee" stroke="black" cx="1486.6" cy="-106" rx="36" ry="18"/>
<text text-anchor="middle" x="1486.6" y="-102.3" font-family="Times,serif" font-size="14.00">396</text>
</g>
<!-- 30&#45;&gt;411 -->
<g id="edge37" class="edge">
<title>30&#45;&gt;411</title>
<path fill="none" stroke="black" d="M966.65,-172.46C1064.46,-160.15 1334.66,-126.13 1441.9,-112.63"/>
<polygon fill="black" stroke="black" points="1442.57,-116.07 1452.06,-111.35 1441.7,-109.13 1442.57,-116.07"/>
</g>
<!-- 43 -->
<g id="node22" class="node">
<title>43</title>
<ellipse fill="#b9d3ee" stroke="black" cx="1176.6" cy="-106" rx="16.8" ry="18"/>
<text text-anchor="middle" x="1176.6" y="-102.3" font-family="Times,serif" font-size="14.00">9</text>
</g>
<!-- 31&#45;&gt;43 -->
<g id="edge27" class="edge">
<title>31&#45;&gt;43</title>
<path fill="none" stroke="black" d="M1176.6,-159.7C1176.6,-151.98 1176.6,-142.71 1176.6,-134.11"/>
<polygon fill="black" stroke="black" points="1180.1,-134.1 1176.6,-124.1 1173.1,-134.1 1180.1,-134.1"/>
</g>
<!-- 31&#45;&gt;49 -->
<g id="edge34" class="edge">
<title>31&#45;&gt;49</title>
<path fill="none" stroke="black" d="M1140.56,-166.75C1095.43,-153.9 1018.32,-131.96 971.16,-118.54"/>
<polygon fill="black" stroke="black" points="971.86,-115.1 961.29,-115.73 969.95,-121.84 971.86,-115.1"/>
</g>
<!-- 40 -->
<g id="node19" class="node">
<title>40</title>
<ellipse fill="#b9d3ee" stroke="black" cx="1742.6" cy="-106" rx="16.8" ry="18"/>
<text text-anchor="middle" x="1742.6" y="-102.3" font-family="Times,serif" font-size="14.00">3</text>
</g>
<!-- 32&#45;&gt;40 -->
<g id="edge24" class="edge">
<title>32&#45;&gt;40</title>
<path fill="none" stroke="black" d="M1741.84,-159.7C1741.95,-151.98 1742.09,-142.71 1742.21,-134.11"/>
<polygon fill="black" stroke="black" points="1745.71,-134.15 1742.35,-124.1 1738.71,-134.05 1745.71,-134.15"/>
</g>
<!-- 410 -->
<g id="node29" class="node">
<title>410</title>
<ellipse fill="#b9d3ee" stroke="black" cx="1956.6" cy="-106" rx="36" ry="18"/>
<text text-anchor="middle" x="1956.6" y="-102.3" font-family="Times,serif" font-size="14.00">389</text>
</g>
<!-- 32&#45;&gt;410 -->
<g id="edge35" class="edge">
<title>32&#45;&gt;410</title>
<path fill="none" stroke="black" d="M1778.07,-165.13C1816.84,-152.5 1877.91,-132.62 1917.61,-119.69"/>
<polygon fill="black" stroke="black" points="1918.79,-122.99 1927.21,-116.57 1916.62,-116.33 1918.79,-122.99"/>
</g>
<!-- 32&#45;&gt;411 -->
<g id="edge38" class="edge">
<title>32&#45;&gt;411</title>
<path fill="none" stroke="black" d="M1705.33,-167.05C1658.25,-154.12 1576.31,-131.63 1527.2,-118.15"/>
<polygon fill="black" stroke="black" points="1528.11,-114.77 1517.54,-115.49 1526.25,-121.52 1528.11,-114.77"/>
</g>
<!-- 33&#45;&gt;411 -->
<g id="edge39" class="edge">
<title>33&#45;&gt;411</title>
<path fill="none" stroke="black" d="M1486.6,-159.7C1486.6,-151.98 1486.6,-142.71 1486.6,-134.11"/>
<polygon fill="black" stroke="black" points="1490.1,-134.1 1486.6,-124.1 1483.1,-134.1 1490.1,-134.1"/>
</g>
<!-- 44 -->
<g id="node23" class="node">
<title>44</title>
<ellipse fill="#b9d3ee" stroke="black" cx="2354.6" cy="-106" rx="16.8" ry="18"/>
<text text-anchor="middle" x="2354.6" y="-102.3" font-family="Times,serif" font-size="14.00">7</text>
</g>
<!-- 34&#45;&gt;44 -->
<g id="edge28" class="edge">
<title>34&#45;&gt;44</title>
<path fill="none" stroke="black" d="M2079.88,-168.83C2143.25,-154.57 2272.65,-125.45 2328.25,-112.93"/>
<polygon fill="black" stroke="black" points="2329.05,-116.34 2338.04,-110.73 2327.52,-109.51 2329.05,-116.34"/>
</g>
<!-- 45 -->
<g id="node24" class="node">
<title>45</title>
<ellipse fill="#b9d3ee" stroke="black" cx="2493.6" cy="-106" rx="23" ry="18"/>
<text text-anchor="middle" x="2493.6" y="-102.3" font-family="Times,serif" font-size="14.00">22</text>
</g>
<!-- 34&#45;&gt;45 -->
<g id="edge29" class="edge">
<title>34&#45;&gt;45</title>
<path fill="none" stroke="black" d="M2079.66,-171.39C2165.29,-158.07 2379.76,-124.71 2461.38,-112.01"/>
<polygon fill="black" stroke="black" points="2462.2,-115.43 2471.54,-110.43 2461.13,-108.51 2462.2,-115.43"/>
</g>
<!-- 46 -->
<g id="node25" class="node">
<title>46</title>
<ellipse fill="#b9d3ee" stroke="black" cx="2123.6" cy="-106" rx="23" ry="18"/>
<text text-anchor="middle" x="2123.6" y="-102.3" font-family="Times,serif" font-size="14.00">62</text>
</g>
<!-- 34&#45;&gt;46 -->
<g id="edge30" class="edge">
<title>34&#45;&gt;46</title>
<path fill="none" stroke="black" d="M2063.37,-159.7C2074.8,-149.7 2089.22,-137.08 2101.08,-126.7"/>
<polygon fill="black" stroke="black" points="2103.6,-129.15 2108.82,-119.93 2098.99,-123.88 2103.6,-129.15"/>
</g>
<!-- 47 -->
<g id="node26" class="node">
<title>47</title>
<ellipse fill="#b9d3ee" stroke="black" cx="2228.6" cy="-106" rx="36" ry="18"/>
<text text-anchor="middle" x="2228.6" y="-102.3" font-family="Times,serif" font-size="14.00">332</text>
</g>
<!-- 34&#45;&gt;47 -->
<g id="edge31" class="edge">
<title>34&#45;&gt;47</title>
<path fill="none" stroke="black" d="M2079.71,-163.34C2111.82,-151.19 2158.6,-133.49 2191.12,-121.18"/>
<polygon fill="black" stroke="black" points="2192.61,-124.36 2200.73,-117.55 2190.13,-117.81 2192.61,-124.36"/>
</g>
<!-- 34&#45;&gt;410 -->
<g id="edge36" class="edge">
<title>34&#45;&gt;410</title>
<path fill="none" stroke="black" d="M2022.09,-159.7C2010.2,-150.13 1995.34,-138.17 1982.78,-128.07"/>
<polygon fill="black" stroke="black" points="1984.9,-125.28 1974.92,-121.74 1980.51,-130.73 1984.9,-125.28"/>
</g>
<!-- legend_4 -->
<g id="node31" class="node">
<title>legend_4</title>
<polygon fill="#b9d3ee" stroke="black" points="2842.1,-124 2621.1,-124 2621.1,-88 2842.1,-88 2842.1,-124"/>
<text text-anchor="middle" x="2731.6" y="-102.3" font-family="Times,serif" font-size="14.00">DT=5 ST=1 Similarity=0.66</text>
</g>
<!-- legend_3&#45;&gt;legend_4 -->
<g id="edge40" class="edge">
<title>legend_3&#45;&gt;legend_4</title>
<path fill="none" stroke="black" d="M2731.6,-159.7C2731.6,-151.98 2731.6,-142.71 2731.6,-134.11"/>
<polygon fill="black" stroke="black" points="2735.1,-134.1 2731.6,-124.1 2728.1,-134.1 2735.1,-134.1"/>
</g>
<!-- 50 -->
<g id="node32" class="node">
<title>50</title>
<ellipse fill="#b9d3ee" stroke="black" cx="1694.6" cy="-34" rx="16.8" ry="18"/>
<text text-anchor="middle" x="1694.6" y="-30.3" font-family="Times,serif" font-size="14.00">1</text>
</g>
<!-- 40&#45;&gt;50 -->
<g id="edge41" class="edge">
<title>40&#45;&gt;50</title>
<path fill="none" stroke="black" d="M1732.88,-90.83C1726.31,-81.25 1717.5,-68.39 1709.98,-57.43"/>
<polygon fill="black" stroke="black" points="1712.84,-55.41 1704.3,-49.14 1707.07,-59.37 1712.84,-55.41"/>
</g>
<!-- 51 -->
<g id="node33" class="node">
<title>51</title>
<ellipse fill="#b9d3ee" stroke="black" cx="1746.6" cy="-34" rx="16.8" ry="18"/>
<text text-anchor="middle" x="1746.6" y="-30.3" font-family="Times,serif" font-size="14.00">1</text>
</g>
<!-- 40&#45;&gt;51 -->
<g id="edge42" class="edge">
<title>40&#45;&gt;51</title>
<path fill="none" stroke="black" d="M1743.59,-87.7C1744.03,-79.98 1744.56,-70.71 1745.05,-62.11"/>
<polygon fill="black" stroke="black" points="1748.54,-62.29 1745.62,-52.1 1741.56,-61.89 1748.54,-62.29"/>
</g>
<!-- 52 -->
<g id="node34" class="node">
<title>52</title>
<ellipse fill="#b9d3ee" stroke="black" cx="1798.6" cy="-34" rx="16.8" ry="18"/>
<text text-anchor="middle" x="1798.6" y="-30.3" font-family="Times,serif" font-size="14.00">1</text>
</g>
<!-- 40&#45;&gt;52 -->
<g id="edge43" class="edge">
<title>40&#45;&gt;52</title>
<path fill="none" stroke="black" d="M1753.13,-91.83C1761.09,-81.89 1772.17,-68.03 1781.4,-56.49"/>
<polygon fill="black" stroke="black" points="1784.22,-58.58 1787.73,-48.58 1778.75,-54.21 1784.22,-58.58"/>
</g>
<!-- 55 -->
<g id="node37" class="node">
<title>55</title>
<ellipse fill="#b9d3ee" stroke="black" cx="490.6" cy="-34" rx="16.8" ry="18"/>
<text text-anchor="middle" x="490.6" y="-30.3" font-family="Times,serif" font-size="14.00">1</text>
</g>
<!-- 41&#45;&gt;55 -->
<g id="edge46" class="edge">
<title>41&#45;&gt;55</title>
<path fill="none" stroke="black" d="M510.7,-89.12C507.58,-80.73 503.69,-70.24 500.15,-60.73"/>
<polygon fill="black" stroke="black" points="503.42,-59.46 496.65,-51.31 496.86,-61.9 503.42,-59.46"/>
</g>
<!-- 511 -->
<g id="node43" class="node">
<title>511</title>
<ellipse fill="#b9d3ee" stroke="black" cx="542.6" cy="-34" rx="16.8" ry="18"/>
<text text-anchor="middle" x="542.6" y="-30.3" font-family="Times,serif" font-size="14.00">1</text>
</g>
<!-- 41&#45;&gt;511 -->
<g id="edge52" class="edge">
<title>41&#45;&gt;511</title>
<path fill="none" stroke="black" d="M522.5,-89.12C525.61,-80.73 529.51,-70.24 533.04,-60.73"/>
<polygon fill="black" stroke="black" points="536.34,-61.9 536.54,-51.31 529.78,-59.46 536.34,-61.9"/>
</g>
<!-- 512 -->
<g id="node44" class="node">
<title>512</title>
<ellipse fill="#b9d3ee" stroke="black" cx="438.6" cy="-34" rx="16.8" ry="18"/>
<text text-anchor="middle" x="438.6" y="-30.3" font-family="Times,serif" font-size="14.00">1</text>
</g>
<!-- 41&#45;&gt;512 -->
<g id="edge53" class="edge">
<title>41&#45;&gt;512</title>
<path fill="none" stroke="black" d="M504.07,-93.75C491.9,-82.83 473.22,-66.07 458.93,-53.24"/>
<polygon fill="black" stroke="black" points="460.88,-50.29 451.1,-46.22 456.2,-55.5 460.88,-50.29"/>
</g>
<!-- 510 -->
<g id="node42" class="node">
<title>510</title>
<ellipse fill="#b9d3ee" stroke="black" cx="594.6" cy="-34" rx="16.8" ry="18"/>
<text text-anchor="middle" x="594.6" y="-30.3" font-family="Times,serif" font-size="14.00">1</text>
</g>
<!-- 42&#45;&gt;510 -->
<g id="edge51" class="edge">
<title>42&#45;&gt;510</title>
<path fill="none" stroke="black" d="M636.57,-91.5C629.33,-81.75 619.38,-68.37 610.99,-57.07"/>
<polygon fill="black" stroke="black" points="613.72,-54.87 604.95,-48.93 608.1,-59.05 613.72,-54.87"/>
</g>
<!-- 518 -->
<g id="node50" class="node">
<title>518</title>
<ellipse fill="#b9d3ee" stroke="black" cx="646.6" cy="-34" rx="16.8" ry="18"/>
<text text-anchor="middle" x="646.6" y="-30.3" font-family="Times,serif" font-size="14.00">2</text>
</g>
<!-- 42&#45;&gt;518 -->
<g id="edge59" class="edge">
<title>42&#45;&gt;518</title>
<path fill="none" stroke="black" d="M646.6,-87.7C646.6,-79.98 646.6,-70.71 646.6,-62.11"/>
<polygon fill="black" stroke="black" points="650.1,-62.1 646.6,-52.1 643.1,-62.1 650.1,-62.1"/>
</g>
<!-- 57 -->
<g id="node39" class="node">
<title>57</title>
<ellipse fill="#b9d3ee" stroke="black" cx="1176.6" cy="-34" rx="16.8" ry="18"/>
<text text-anchor="middle" x="1176.6" y="-30.3" font-family="Times,serif" font-size="14.00">1</text>
</g>
<!-- 43&#45;&gt;57 -->
<g id="edge48" class="edge">
<title>43&#45;&gt;57</title>
<path fill="none" stroke="black" d="M1176.6,-87.7C1176.6,-79.98 1176.6,-70.71 1176.6,-62.11"/>
<polygon fill="black" stroke="black" points="1180.1,-62.1 1176.6,-52.1 1173.1,-62.1 1180.1,-62.1"/>
</g>
<!-- 522 -->
<g id="node54" class="node">
<title>522</title>
<ellipse fill="#b9d3ee" stroke="black" cx="1228.6" cy="-34" rx="16.8" ry="18"/>
<text text-anchor="middle" x="1228.6" y="-30.3" font-family="Times,serif" font-size="14.00">4</text>
</g>
<!-- 43&#45;&gt;522 -->
<g id="edge63" class="edge">
<title>43&#45;&gt;522</title>
<path fill="none" stroke="black" d="M1186.62,-91.5C1193.87,-81.75 1203.81,-68.37 1212.2,-57.07"/>
<polygon fill="black" stroke="black" points="1215.09,-59.05 1218.25,-48.93 1209.47,-54.87 1215.09,-59.05"/>
</g>
<!-- 523 -->
<g id="node55" class="node">
<title>523</title>
<ellipse fill="#b9d3ee" stroke="black" cx="1124.6" cy="-34" rx="16.8" ry="18"/>
<text text-anchor="middle" x="1124.6" y="-30.3" font-family="Times,serif" font-size="14.00">4</text>
</g>
<!-- 43&#45;&gt;523 -->
<g id="edge64" class="edge">
<title>43&#45;&gt;523</title>
<path fill="none" stroke="black" d="M1166.57,-91.5C1159.33,-81.75 1149.38,-68.37 1140.99,-57.07"/>
<polygon fill="black" stroke="black" points="1143.72,-54.87 1134.95,-48.93 1138.1,-59.05 1143.72,-54.87"/>
</g>
<!-- 53 -->
<g id="node35" class="node">
<title>53</title>
<ellipse fill="#b9d3ee" stroke="black" cx="2354.6" cy="-34" rx="16.8" ry="18"/>
<text text-anchor="middle" x="2354.6" y="-30.3" font-family="Times,serif" font-size="14.00">1</text>
</g>
<!-- 44&#45;&gt;53 -->
<g id="edge44" class="edge">
<title>44&#45;&gt;53</title>
<path fill="none" stroke="black" d="M2354.6,-87.7C2354.6,-79.98 2354.6,-70.71 2354.6,-62.11"/>
<polygon fill="black" stroke="black" points="2358.1,-62.1 2354.6,-52.1 2351.1,-62.1 2358.1,-62.1"/>
</g>
<!-- 525 -->
<g id="node57" class="node">
<title>525</title>
<ellipse fill="#b9d3ee" stroke="black" cx="2406.6" cy="-34" rx="16.8" ry="18"/>
<text text-anchor="middle" x="2406.6" y="-30.3" font-family="Times,serif" font-size="14.00">6</text>
</g>
<!-- 44&#45;&gt;525 -->
<g id="edge66" class="edge">
<title>44&#45;&gt;525</title>
<path fill="none" stroke="black" d="M2364.62,-91.5C2371.87,-81.75 2381.81,-68.37 2390.2,-57.07"/>
<polygon fill="black" stroke="black" points="2393.09,-59.05 2396.25,-48.93 2387.47,-54.87 2393.09,-59.05"/>
</g>
<!-- 56 -->
<g id="node38" class="node">
<title>56</title>
<ellipse fill="#b9d3ee" stroke="black" cx="2522.6" cy="-34" rx="16.8" ry="18"/>
<text text-anchor="middle" x="2522.6" y="-30.3" font-family="Times,serif" font-size="14.00">1</text>
</g>
<!-- 45&#45;&gt;56 -->
<g id="edge47" class="edge">
<title>45&#45;&gt;56</title>
<path fill="none" stroke="black" d="M2500.32,-88.76C2503.85,-80.25 2508.25,-69.64 2512.2,-60.09"/>
<polygon fill="black" stroke="black" points="2515.51,-61.24 2516.11,-50.67 2509.05,-58.56 2515.51,-61.24"/>
</g>
<!-- 532 -->
<g id="node64" class="node">
<title>532</title>
<ellipse fill="#b9d3ee" stroke="black" cx="2580.6" cy="-34" rx="23" ry="18"/>
<text text-anchor="middle" x="2580.6" y="-30.3" font-family="Times,serif" font-size="14.00">10</text>
</g>
<!-- 45&#45;&gt;532 -->
<g id="edge73" class="edge">
<title>45&#45;&gt;532</title>
<path fill="none" stroke="black" d="M2509.15,-92.49C2522.51,-81.73 2541.97,-66.08 2557.21,-53.82"/>
<polygon fill="black" stroke="black" points="2559.58,-56.4 2565.18,-47.41 2555.19,-50.95 2559.58,-56.4"/>
</g>
<!-- 533 -->
<g id="node65" class="node">
<title>533</title>
<ellipse fill="#b9d3ee" stroke="black" cx="2464.6" cy="-34" rx="23" ry="18"/>
<text text-anchor="middle" x="2464.6" y="-30.3" font-family="Times,serif" font-size="14.00">11</text>
</g>
<!-- 45&#45;&gt;533 -->
<g id="edge74" class="edge">
<title>45&#45;&gt;533</title>
<path fill="none" stroke="black" d="M2486.87,-88.76C2483.44,-80.49 2479.19,-70.23 2475.33,-60.9"/>
<polygon fill="black" stroke="black" points="2478.55,-59.53 2471.49,-51.63 2472.08,-62.21 2478.55,-59.53"/>
</g>
<!-- 514 -->
<g id="node46" class="node">
<title>514</title>
<ellipse fill="#b9d3ee" stroke="black" cx="2212.6" cy="-34" rx="16.8" ry="18"/>
<text text-anchor="middle" x="2212.6" y="-30.3" font-family="Times,serif" font-size="14.00">2</text>
</g>
<!-- 46&#45;&gt;514 -->
<g id="edge55" class="edge">
<title>46&#45;&gt;514</title>
<path fill="none" stroke="black" d="M2139.1,-92.81C2153.47,-81.5 2174.99,-64.58 2191.03,-51.96"/>
<polygon fill="black" stroke="black" points="2193.61,-54.39 2199.3,-45.46 2189.28,-48.89 2193.61,-54.39"/>
</g>
<!-- 531 -->
<g id="node63" class="node">
<title>531</title>
<ellipse fill="#b9d3ee" stroke="black" cx="2096.6" cy="-34" rx="16.8" ry="18"/>
<text text-anchor="middle" x="2096.6" y="-30.3" font-family="Times,serif" font-size="14.00">9</text>
</g>
<!-- 46&#45;&gt;531 -->
<g id="edge72" class="edge">
<title>46&#45;&gt;531</title>
<path fill="none" stroke="black" d="M2117.2,-88.41C2113.99,-80.1 2110.04,-69.85 2106.45,-60.56"/>
<polygon fill="black" stroke="black" points="2109.63,-59.06 2102.76,-50.99 2103.1,-61.58 2109.63,-59.06"/>
</g>
<!-- 537 -->
<g id="node69" class="node">
<title>537</title>
<ellipse fill="#b9d3ee" stroke="black" cx="2154.6" cy="-34" rx="23" ry="18"/>
<text text-anchor="middle" x="2154.6" y="-30.3" font-family="Times,serif" font-size="14.00">51</text>
</g>
<!-- 46&#45;&gt;537 -->
<g id="edge78" class="edge">
<title>46&#45;&gt;537</title>
<path fill="none" stroke="black" d="M2130.79,-88.76C2134.5,-80.37 2139.13,-69.93 2143.31,-60.5"/>
<polygon fill="black" stroke="black" points="2146.6,-61.71 2147.45,-51.15 2140.2,-58.87 2146.6,-61.71"/>
</g>
<!-- 542 -->
<g id="node74" class="node">
<title>542</title>
<ellipse fill="#b9d3ee" stroke="black" cx="2283.6" cy="-34" rx="36" ry="18"/>
<text text-anchor="middle" x="2283.6" y="-30.3" font-family="Times,serif" font-size="14.00">332</text>
</g>
<!-- 47&#45;&gt;542 -->
<g id="edge83" class="edge">
<title>47&#45;&gt;542</title>
<path fill="none" stroke="black" d="M2241.08,-89.12C2248.01,-80.29 2256.78,-69.13 2264.55,-59.24"/>
<polygon fill="black" stroke="black" points="2267.36,-61.33 2270.78,-51.31 2261.85,-57.01 2267.36,-61.33"/>
</g>
<!-- 58 -->
<g id="node40" class="node">
<title>58</title>
<ellipse fill="#b9d3ee" stroke="black" cx="166.6" cy="-34" rx="16.8" ry="18"/>
<text text-anchor="middle" x="166.6" y="-30.3" font-family="Times,serif" font-size="14.00">1</text>
</g>
<!-- 48&#45;&gt;58 -->
<g id="edge49" class="edge">
<title>48&#45;&gt;58</title>
<path fill="none" stroke="black" d="M227.67,-89.81C215.76,-79.12 199.76,-64.76 187.12,-53.42"/>
<polygon fill="black" stroke="black" points="189.16,-50.55 179.38,-46.47 184.49,-55.76 189.16,-50.55"/>
</g>
<!-- 59 -->
<g id="node41" class="node">
<title>59</title>
<ellipse fill="#b9d3ee" stroke="black" cx="218.6" cy="-34" rx="16.8" ry="18"/>
<text text-anchor="middle" x="218.6" y="-30.3" font-family="Times,serif" font-size="14.00">1</text>
</g>
<!-- 48&#45;&gt;59 -->
<g id="edge50" class="edge">
<title>48&#45;&gt;59</title>
<path fill="none" stroke="black" d="M238.3,-88.05C235.26,-79.85 231.53,-69.83 228.15,-60.71"/>
<polygon fill="black" stroke="black" points="231.42,-59.46 224.65,-51.31 224.86,-61.9 231.42,-59.46"/>
</g>
<!-- 517 -->
<g id="node49" class="node">
<title>517</title>
<ellipse fill="#b9d3ee" stroke="black" cx="270.6" cy="-34" rx="16.8" ry="18"/>
<text text-anchor="middle" x="270.6" y="-30.3" font-family="Times,serif" font-size="14.00">2</text>
</g>
<!-- 48&#45;&gt;517 -->
<g id="edge58" class="edge">
<title>48&#45;&gt;517</title>
<path fill="none" stroke="black" d="M250.89,-88.05C253.94,-79.85 257.66,-69.83 261.05,-60.71"/>
<polygon fill="black" stroke="black" points="264.34,-61.9 264.54,-51.31 257.78,-59.46 264.34,-61.9"/>
</g>
<!-- 526 -->
<g id="node58" class="node">
<title>526</title>
<ellipse fill="#b9d3ee" stroke="black" cx="322.6" cy="-34" rx="16.8" ry="18"/>
<text text-anchor="middle" x="322.6" y="-30.3" font-family="Times,serif" font-size="14.00">6</text>
</g>
<!-- 48&#45;&gt;526 -->
<g id="edge67" class="edge">
<title>48&#45;&gt;526</title>
<path fill="none" stroke="black" d="M261.52,-89.81C273.43,-79.12 289.43,-64.76 302.07,-53.42"/>
<polygon fill="black" stroke="black" points="304.71,-55.76 309.81,-46.47 300.03,-50.55 304.71,-55.76"/>
</g>
<!-- 536 -->
<g id="node68" class="node">
<title>536</title>
<ellipse fill="#b9d3ee" stroke="black" cx="380.6" cy="-34" rx="23" ry="18"/>
<text text-anchor="middle" x="380.6" y="-30.3" font-family="Times,serif" font-size="14.00">20</text>
</g>
<!-- 48&#45;&gt;536 -->
<g id="edge77" class="edge">
<title>48&#45;&gt;536</title>
<path fill="none" stroke="black" d="M269.03,-92.69C290.15,-82.03 321.45,-66.13 348.6,-52 350.13,-51.2 351.71,-50.38 353.29,-49.54"/>
<polygon fill="black" stroke="black" points="355.14,-52.53 362.35,-44.76 351.87,-46.34 355.14,-52.53"/>
</g>
<!-- 539 -->
<g id="node71" class="node">
<title>539</title>
<ellipse fill="#b9d3ee" stroke="black" cx="28.6" cy="-34" rx="28.7" ry="18"/>
<text text-anchor="middle" x="28.6" y="-30.3" font-family="Times,serif" font-size="14.00">162</text>
</g>
<!-- 48&#45;&gt;539 -->
<g id="edge80" class="edge">
<title>48&#45;&gt;539</title>
<path fill="none" stroke="black" d="M213.11,-97.14C177,-87.79 116.27,-71.03 65.6,-52 63.76,-51.31 61.89,-50.57 60.01,-49.8"/>
<polygon fill="black" stroke="black" points="61.25,-46.52 50.68,-45.77 58.48,-52.95 61.25,-46.52"/>
</g>
<!-- 540 -->
<g id="node72" class="node">
<title>540</title>
<ellipse fill="#b9d3ee" stroke="black" cx="103.6" cy="-34" rx="28.7" ry="18"/>
<text text-anchor="middle" x="103.6" y="-30.3" font-family="Times,serif" font-size="14.00">181</text>
</g>
<!-- 48&#45;&gt;540 -->
<g id="edge81" class="edge">
<title>48&#45;&gt;540</title>
<path fill="none" stroke="black" d="M220.04,-92.81C196.39,-81.07 160.53,-63.26 134.85,-50.52"/>
<polygon fill="black" stroke="black" points="136.07,-47.22 125.56,-45.9 132.96,-53.49 136.07,-47.22"/>
</g>
<!-- 515 -->
<g id="node47" class="node">
<title>515</title>
<ellipse fill="#b9d3ee" stroke="black" cx="852.6" cy="-34" rx="16.8" ry="18"/>
<text text-anchor="middle" x="852.6" y="-30.3" font-family="Times,serif" font-size="14.00">2</text>
</g>
<!-- 49&#45;&gt;515 -->
<g id="edge56" class="edge">
<title>49&#45;&gt;515</title>
<path fill="none" stroke="black" d="M913.67,-89.81C901.76,-79.12 885.76,-64.76 873.12,-53.42"/>
<polygon fill="black" stroke="black" points="875.16,-50.55 865.38,-46.47 870.49,-55.76 875.16,-50.55"/>
</g>
<!-- 527 -->
<g id="node59" class="node">
<title>527</title>
<ellipse fill="#b9d3ee" stroke="black" cx="904.6" cy="-34" rx="16.8" ry="18"/>
<text text-anchor="middle" x="904.6" y="-30.3" font-family="Times,serif" font-size="14.00">7</text>
</g>
<!-- 49&#45;&gt;527 -->
<g id="edge68" class="edge">
<title>49&#45;&gt;527</title>
<path fill="none" stroke="black" d="M924.3,-88.05C921.26,-79.85 917.53,-69.83 914.15,-60.71"/>
<polygon fill="black" stroke="black" points="917.42,-59.46 910.65,-51.31 910.86,-61.9 917.42,-59.46"/>
</g>
<!-- 528 -->
<g id="node60" class="node">
<title>528</title>
<ellipse fill="#b9d3ee" stroke="black" cx="956.6" cy="-34" rx="16.8" ry="18"/>
<text text-anchor="middle" x="956.6" y="-30.3" font-family="Times,serif" font-size="14.00">7</text>
</g>
<!-- 49&#45;&gt;528 -->
<g id="edge69" class="edge">
<title>49&#45;&gt;528</title>
<path fill="none" stroke="black" d="M936.89,-88.05C939.94,-79.85 943.66,-69.83 947.05,-60.71"/>
<polygon fill="black" stroke="black" points="950.34,-61.9 950.54,-51.31 943.78,-59.46 950.34,-61.9"/>
</g>
<!-- 530 -->
<g id="node62" class="node">
<title>530</title>
<ellipse fill="#b9d3ee" stroke="black" cx="1008.6" cy="-34" rx="16.8" ry="18"/>
<text text-anchor="middle" x="1008.6" y="-30.3" font-family="Times,serif" font-size="14.00">8</text>
</g>
<!-- 49&#45;&gt;530 -->
<g id="edge71" class="edge">
<title>49&#45;&gt;530</title>
<path fill="none" stroke="black" d="M947.52,-89.81C959.43,-79.12 975.43,-64.76 988.07,-53.42"/>
<polygon fill="black" stroke="black" points="990.71,-55.76 995.81,-46.47 986.03,-50.55 990.71,-55.76"/>
</g>
<!-- 535 -->
<g id="node67" class="node">
<title>535</title>
<ellipse fill="#b9d3ee" stroke="black" cx="1066.6" cy="-34" rx="23" ry="18"/>
<text text-anchor="middle" x="1066.6" y="-30.3" font-family="Times,serif" font-size="14.00">19</text>
</g>
<!-- 49&#45;&gt;535 -->
<g id="edge76" class="edge">
<title>49&#45;&gt;535</title>
<path fill="none" stroke="black" d="M955.03,-92.69C976.15,-82.03 1007.45,-66.13 1034.6,-52 1036.13,-51.2 1037.71,-50.38 1039.29,-49.54"/>
<polygon fill="black" stroke="black" points="1041.14,-52.53 1048.35,-44.76 1037.87,-46.34 1041.14,-52.53"/>
</g>
<!-- 538 -->
<g id="node70" class="node">
<title>538</title>
<ellipse fill="#b9d3ee" stroke="black" cx="704.6" cy="-34" rx="23" ry="18"/>
<text text-anchor="middle" x="704.6" y="-30.3" font-family="Times,serif" font-size="14.00">62</text>
</g>
<!-- 49&#45;&gt;538 -->
<g id="edge79" class="edge">
<title>49&#45;&gt;538</title>
<path fill="none" stroke="black" d="M897.61,-98.33C858.43,-89.88 791.45,-73.75 736.6,-52 734.99,-51.36 733.36,-50.67 731.73,-49.93"/>
<polygon fill="black" stroke="black" points="733.06,-46.69 722.54,-45.43 729.98,-52.97 733.06,-46.69"/>
</g>
<!-- 541 -->
<g id="node73" class="node">
<title>541</title>
<ellipse fill="#b9d3ee" stroke="black" cx="781.6" cy="-34" rx="36" ry="18"/>
<text text-anchor="middle" x="781.6" y="-30.3" font-family="Times,serif" font-size="14.00">296</text>
</g>
<!-- 49&#45;&gt;541 -->
<g id="edge82" class="edge">
<title>49&#45;&gt;541</title>
<path fill="none" stroke="black" d="M905.32,-93.13C880.81,-81.61 843.44,-64.05 816.18,-51.25"/>
<polygon fill="black" stroke="black" points="817.54,-48.02 807,-46.93 814.56,-54.35 817.54,-48.02"/>
</g>
<!-- 521 -->
<g id="node53" class="node">
<title>521</title>
<ellipse fill="#b9d3ee" stroke="black" cx="1992.6" cy="-34" rx="16.8" ry="18"/>
<text text-anchor="middle" x="1992.6" y="-30.3" font-family="Times,serif" font-size="14.00">3</text>
</g>
<!-- 410&#45;&gt;521 -->
<g id="edge62" class="edge">
<title>410&#45;&gt;521</title>
<path fill="none" stroke="black" d="M1965.13,-88.41C1969.62,-79.68 1975.21,-68.81 1980.17,-59.16"/>
<polygon fill="black" stroke="black" points="1983.4,-60.53 1984.86,-50.04 1977.18,-57.33 1983.4,-60.53"/>
</g>
<!-- 524 -->
<g id="node56" class="node">
<title>524</title>
<ellipse fill="#b9d3ee" stroke="black" cx="2044.6" cy="-34" rx="16.8" ry="18"/>
<text text-anchor="middle" x="2044.6" y="-30.3" font-family="Times,serif" font-size="14.00">5</text>
</g>
<!-- 410&#45;&gt;524 -->
<g id="edge65" class="edge">
<title>410&#45;&gt;524</title>
<path fill="none" stroke="black" d="M1975.26,-90.15C1989.35,-78.95 2008.69,-63.56 2023.37,-51.89"/>
<polygon fill="black" stroke="black" points="2025.75,-54.47 2031.39,-45.5 2021.39,-48.99 2025.75,-54.47"/>
</g>
<!-- 529 -->
<g id="node61" class="node">
<title>529</title>
<ellipse fill="#b9d3ee" stroke="black" cx="1850.6" cy="-34" rx="16.8" ry="18"/>
<text text-anchor="middle" x="1850.6" y="-30.3" font-family="Times,serif" font-size="14.00">7</text>
</g>
<!-- 410&#45;&gt;529 -->
<g id="edge70" class="edge">
<title>410&#45;&gt;529</title>
<path fill="none" stroke="black" d="M1935.66,-91.17C1917.61,-79.25 1891.63,-62.09 1873.13,-49.88"/>
<polygon fill="black" stroke="black" points="1875,-46.92 1864.72,-44.33 1871.14,-52.76 1875,-46.92"/>
</g>
<!-- 544 -->
<g id="node76" class="node">
<title>544</title>
<ellipse fill="#b9d3ee" stroke="black" cx="1921.6" cy="-34" rx="36" ry="18"/>
<text text-anchor="middle" x="1921.6" y="-30.3" font-family="Times,serif" font-size="14.00">374</text>
</g>
<!-- 410&#45;&gt;544 -->
<g id="edge85" class="edge">
<title>410&#45;&gt;544</title>
<path fill="none" stroke="black" d="M1948.3,-88.41C1944.22,-80.25 1939.21,-70.22 1934.63,-61.07"/>
<polygon fill="black" stroke="black" points="1937.68,-59.34 1930.08,-51.96 1931.42,-62.47 1937.68,-59.34"/>
</g>
<!-- 54 -->
<g id="node36" class="node">
<title>54</title>
<ellipse fill="#b9d3ee" stroke="black" cx="1434.6" cy="-34" rx="16.8" ry="18"/>
<text text-anchor="middle" x="1434.6" y="-30.3" font-family="Times,serif" font-size="14.00">1</text>
</g>
<!-- 411&#45;&gt;54 -->
<g id="edge45" class="edge">
<title>411&#45;&gt;54</title>
<path fill="none" stroke="black" d="M1474.54,-88.76C1467.51,-79.3 1458.54,-67.23 1450.89,-56.93"/>
<polygon fill="black" stroke="black" points="1453.61,-54.73 1444.84,-48.79 1447.99,-58.9 1453.61,-54.73"/>
</g>
<!-- 513 -->
<g id="node45" class="node">
<title>513</title>
<ellipse fill="#b9d3ee" stroke="black" cx="1486.6" cy="-34" rx="16.8" ry="18"/>
<text text-anchor="middle" x="1486.6" y="-30.3" font-family="Times,serif" font-size="14.00">2</text>
</g>
<!-- 411&#45;&gt;513 -->
<g id="edge54" class="edge">
<title>411&#45;&gt;513</title>
<path fill="none" stroke="black" d="M1486.6,-87.7C1486.6,-79.98 1486.6,-70.71 1486.6,-62.11"/>
<polygon fill="black" stroke="black" points="1490.1,-62.1 1486.6,-52.1 1483.1,-62.1 1490.1,-62.1"/>
</g>
<!-- 516 -->
<g id="node48" class="node">
<title>516</title>
<ellipse fill="#b9d3ee" stroke="black" cx="1538.6" cy="-34" rx="16.8" ry="18"/>
<text text-anchor="middle" x="1538.6" y="-30.3" font-family="Times,serif" font-size="14.00">2</text>
</g>
<!-- 411&#45;&gt;516 -->
<g id="edge57" class="edge">
<title>411&#45;&gt;516</title>
<path fill="none" stroke="black" d="M1498.66,-88.76C1505.69,-79.3 1514.65,-67.23 1522.31,-56.93"/>
<polygon fill="black" stroke="black" points="1525.2,-58.9 1528.35,-48.79 1519.58,-54.73 1525.2,-58.9"/>
</g>
<!-- 519 -->
<g id="node51" class="node">
<title>519</title>
<ellipse fill="#b9d3ee" stroke="black" cx="1590.6" cy="-34" rx="16.8" ry="18"/>
<text text-anchor="middle" x="1590.6" y="-30.3" font-family="Times,serif" font-size="14.00">2</text>
</g>
<!-- 411&#45;&gt;519 -->
<g id="edge60" class="edge">
<title>411&#45;&gt;519</title>
<path fill="none" stroke="black" d="M1507.14,-91.17C1524.69,-79.36 1549.88,-62.41 1567.99,-50.22"/>
<polygon fill="black" stroke="black" points="1570.4,-52.82 1576.74,-44.33 1566.49,-47.01 1570.4,-52.82"/>
</g>
<!-- 520 -->
<g id="node52" class="node">
<title>520</title>
<ellipse fill="#b9d3ee" stroke="black" cx="1642.6" cy="-34" rx="16.8" ry="18"/>
<text text-anchor="middle" x="1642.6" y="-30.3" font-family="Times,serif" font-size="14.00">3</text>
</g>
<!-- 411&#45;&gt;520 -->
<g id="edge61" class="edge">
<title>411&#45;&gt;520</title>
<path fill="none" stroke="black" d="M1515.45,-95.05C1542.28,-85.38 1583.03,-69.61 1616.6,-52 1617.75,-51.39 1618.92,-50.75 1620.09,-50.08"/>
<polygon fill="black" stroke="black" points="1622.18,-52.91 1628.86,-44.68 1618.51,-46.95 1622.18,-52.91"/>
</g>
<!-- 534 -->
<g id="node66" class="node">
<title>534</title>
<ellipse fill="#b9d3ee" stroke="black" cx="1286.6" cy="-34" rx="23" ry="18"/>
<text text-anchor="middle" x="1286.6" y="-30.3" font-family="Times,serif" font-size="14.00">12</text>
</g>
<!-- 411&#45;&gt;534 -->
<g id="edge75" class="edge">
<title>411&#45;&gt;534</title>
<path fill="none" stroke="black" d="M1455.34,-96.98C1421.13,-87.79 1365,-71.45 1318.6,-52 1317,-51.33 1315.38,-50.61 1313.76,-49.86"/>
<polygon fill="black" stroke="black" points="1315.11,-46.62 1304.59,-45.3 1311.99,-52.89 1315.11,-46.62"/>
</g>
<!-- 543 -->
<g id="node75" class="node">
<title>543</title>
<ellipse fill="#b9d3ee" stroke="black" cx="1363.6" cy="-34" rx="36" ry="18"/>
<text text-anchor="middle" x="1363.6" y="-30.3" font-family="Times,serif" font-size="14.00">374</text>
</g>
<!-- 411&#45;&gt;543 -->
<g id="edge84" class="edge">
<title>411&#45;&gt;543</title>
<path fill="none" stroke="black" d="M1463.75,-92C1444.54,-81.07 1416.87,-65.32 1395.48,-53.14"/>
<polygon fill="black" stroke="black" points="1397.16,-50.07 1386.74,-48.17 1393.7,-56.16 1397.16,-50.07"/>
</g>
<!-- legend_5 -->
<g id="node77" class="node">
<title>legend_5</title>
<polygon fill="#b9d3ee" stroke="black" points="2842.1,-52 2621.1,-52 2621.1,-16 2842.1,-16 2842.1,-52"/>
<text text-anchor="middle" x="2731.6" y="-30.3" font-family="Times,serif" font-size="14.00">DT=6 ST=1 Similarity=0.56</text>
</g>
<!-- legend_4&#45;&gt;legend_5 -->
<g id="edge86" class="edge">
<title>legend_4&#45;&gt;legend_5</title>
<path fill="none" stroke="black" d="M2731.6,-87.7C2731.6,-79.98 2731.6,-70.71 2731.6,-62.11"/>
<polygon fill="black" stroke="black" points="2735.1,-62.1 2731.6,-52.1 2728.1,-62.1 2735.1,-62.1"/>
</g>
</g>
</svg>
