<?xml version="1.0" encoding="UTF-8" standalone="no"?>
<!DOCTYPE svg PUBLIC "-//W3C//DTD SVG 1.1//EN"
 "http://www.w3.org/Graphics/SVG/1.1/DTD/svg11.dtd">
<!-- Generated by graphviz version 2.43.0 (0)
 -->
<!-- Title: %3 Pages: 1 -->
<svg width="2827pt" height="497pt"
 viewBox="0.00 0.00 2826.90 497.00" xmlns="http://www.w3.org/2000/svg" xmlns:xlink="http://www.w3.org/1999/xlink">
<g id="graph0" class="graph" transform="scale(1 1) rotate(0) translate(4 493)">
<title>%3</title>
<polygon fill="white" stroke="transparent" points="-4,4 -4,-493 2822.9,-493 2822.9,4 -4,4"/>
<text text-anchor="middle" x="1409.45" y="-473.8" font-family="Times,serif" font-size="14.00">ConsTree</text>
<text text-anchor="middle" x="1409.45" y="-458.8" font-family="Times,serif" font-size="14.00">Tree Quality = 1</text>
<g id="clust1" class="cluster">
<title>cluster</title>
<polygon fill="none" stroke="black" points="2574.9,-8 2574.9,-443 2810.9,-443 2810.9,-8 2574.9,-8"/>
<text text-anchor="middle" x="2692.9" y="-427.8" font-family="Times,serif" font-size="14.00">Legend</text>
</g>
<!-- 00 -->
<g id="node1" class="node">
<title>00</title>
<ellipse fill="#b9d3ee" stroke="black" cx="1102.9" cy="-394" rx="180" ry="18"/>
<text text-anchor="middle" x="1102.9" y="-390.3" font-family="Times,serif" font-size="14.00">1128</text>
</g>
<!-- 10 -->
<g id="node4" class="node">
<title>10</title>
<ellipse fill="#b9d3ee" stroke="black" cx="1336.9" cy="-322" rx="36" ry="18"/>
<text text-anchor="middle" x="1336.9" y="-318.3" font-family="Times,serif" font-size="14.00">420</text>
</g>
<!-- 00&#45;&gt;10 -->
<g id="edge1" class="edge">
<title>00&#45;&gt;10</title>
<path fill="none" stroke="black" d="M1165.02,-377.05C1202.1,-367.17 1249.97,-353.77 1291.9,-340 1294.49,-339.15 1297.15,-338.24 1299.82,-337.3"/>
<polygon fill="black" stroke="black" points="1301.22,-340.51 1309.43,-333.81 1298.83,-333.93 1301.22,-340.51"/>
</g>
<!-- 12 -->
<g id="node6" class="node">
<title>12</title>
<ellipse fill="#b9d3ee" stroke="black" cx="1084.9" cy="-322" rx="108" ry="18"/>
<text text-anchor="middle" x="1084.9" y="-318.3" font-family="Times,serif" font-size="14.00">747</text>
</g>
<!-- 00&#45;&gt;12 -->
<g id="edge4" class="edge">
<title>00&#45;&gt;12</title>
<path fill="none" stroke="black" d="M1098.45,-375.7C1096.44,-367.9 1094.03,-358.51 1091.8,-349.83"/>
<polygon fill="black" stroke="black" points="1095.18,-348.92 1089.3,-340.1 1088.4,-350.66 1095.18,-348.92"/>
</g>
<!-- 13 -->
<g id="node7" class="node">
<title>13</title>
<ellipse fill="#b9d3ee" stroke="black" cx="1246.9" cy="-322" rx="36" ry="18"/>
<text text-anchor="middle" x="1246.9" y="-318.3" font-family="Times,serif" font-size="14.00">410</text>
</g>
<!-- 00&#45;&gt;13 -->
<g id="edge5" class="edge">
<title>00&#45;&gt;13</title>
<path fill="none" stroke="black" d="M1137.39,-376.23C1160.11,-365.19 1189.73,-350.79 1212.44,-339.75"/>
<polygon fill="black" stroke="black" points="1214.24,-342.77 1221.71,-335.25 1211.18,-336.47 1214.24,-342.77"/>
</g>
<!-- 01 -->
<g id="node2" class="node">
<title>01</title>
<ellipse fill="#b9d3ee" stroke="black" cx="1408.9" cy="-394" rx="108" ry="18"/>
<text text-anchor="middle" x="1408.9" y="-390.3" font-family="Times,serif" font-size="14.00">872</text>
</g>
<!-- 01&#45;&gt;10 -->
<g id="edge2" class="edge">
<title>01&#45;&gt;10</title>
<path fill="none" stroke="black" d="M1391.47,-376.05C1382.05,-366.9 1370.3,-355.47 1360.11,-345.57"/>
<polygon fill="black" stroke="black" points="1362.3,-342.82 1352.69,-338.36 1357.42,-347.84 1362.3,-342.82"/>
</g>
<!-- 11 -->
<g id="node5" class="node">
<title>11</title>
<ellipse fill="#b9d3ee" stroke="black" cx="1426.9" cy="-322" rx="36" ry="18"/>
<text text-anchor="middle" x="1426.9" y="-318.3" font-family="Times,serif" font-size="14.00">423</text>
</g>
<!-- 01&#45;&gt;11 -->
<g id="edge3" class="edge">
<title>01&#45;&gt;11</title>
<path fill="none" stroke="black" d="M1413.35,-375.7C1415.35,-367.9 1417.77,-358.51 1420,-349.83"/>
<polygon fill="black" stroke="black" points="1423.4,-350.66 1422.5,-340.1 1416.62,-348.92 1423.4,-350.66"/>
</g>
<!-- 01&#45;&gt;13 -->
<g id="edge6" class="edge">
<title>01&#45;&gt;13</title>
<path fill="none" stroke="black" d="M1371.73,-376.94C1344.94,-365.36 1309,-349.83 1282.56,-338.41"/>
<polygon fill="black" stroke="black" points="1283.85,-335.16 1273.29,-334.4 1281.08,-341.58 1283.85,-335.16"/>
</g>
<!-- legend_0 -->
<g id="node3" class="node">
<title>legend_0</title>
<polygon fill="#b9d3ee" stroke="black" points="2803.4,-412 2582.4,-412 2582.4,-376 2803.4,-376 2803.4,-412"/>
<text text-anchor="middle" x="2692.9" y="-390.3" font-family="Times,serif" font-size="14.00">DT=1 ST=1 Similarity=0.49</text>
</g>
<!-- legend_1 -->
<g id="node8" class="node">
<title>legend_1</title>
<polygon fill="#b9d3ee" stroke="black" points="2803.4,-340 2582.4,-340 2582.4,-304 2803.4,-304 2803.4,-340"/>
<text text-anchor="middle" x="2692.9" y="-318.3" font-family="Times,serif" font-size="14.00">DT=2 ST=1 Similarity=0.67</text>
</g>
<!-- legend_0&#45;&gt;legend_1 -->
<g id="edge7" class="edge">
<title>legend_0&#45;&gt;legend_1</title>
<path fill="none" stroke="black" d="M2692.9,-375.7C2692.9,-367.98 2692.9,-358.71 2692.9,-350.11"/>
<polygon fill="black" stroke="black" points="2696.4,-350.1 2692.9,-340.1 2689.4,-350.1 2696.4,-350.1"/>
</g>
<!-- 22 -->
<g id="node11" class="node">
<title>22</title>
<ellipse fill="#b9d3ee" stroke="black" cx="1381.9" cy="-250" rx="36" ry="18"/>
<text text-anchor="middle" x="1381.9" y="-246.3" font-family="Times,serif" font-size="14.00">426</text>
</g>
<!-- 10&#45;&gt;22 -->
<g id="edge11" class="edge">
<title>10&#45;&gt;22</title>
<path fill="none" stroke="black" d="M1347.34,-304.76C1352.77,-296.32 1359.53,-285.8 1365.63,-276.31"/>
<polygon fill="black" stroke="black" points="1368.74,-277.94 1371.21,-267.63 1362.85,-274.15 1368.74,-277.94"/>
</g>
<!-- 21 -->
<g id="node10" class="node">
<title>21</title>
<ellipse fill="#b9d3ee" stroke="black" cx="1639.9" cy="-250" rx="36" ry="18"/>
<text text-anchor="middle" x="1639.9" y="-246.3" font-family="Times,serif" font-size="14.00">417</text>
</g>
<!-- 11&#45;&gt;21 -->
<g id="edge10" class="edge">
<title>11&#45;&gt;21</title>
<path fill="none" stroke="black" d="M1456.07,-311.41C1493.72,-299.04 1559.37,-277.47 1601.17,-263.73"/>
<polygon fill="black" stroke="black" points="1602.33,-267.03 1610.74,-260.58 1600.15,-260.38 1602.33,-267.03"/>
</g>
<!-- 11&#45;&gt;22 -->
<g id="edge12" class="edge">
<title>11&#45;&gt;22</title>
<path fill="none" stroke="black" d="M1416.46,-304.76C1411.03,-296.32 1404.27,-285.8 1398.17,-276.31"/>
<polygon fill="black" stroke="black" points="1400.94,-274.15 1392.59,-267.63 1395.05,-277.94 1400.94,-274.15"/>
</g>
<!-- 20 -->
<g id="node9" class="node">
<title>20</title>
<ellipse fill="#b9d3ee" stroke="black" cx="1084.9" cy="-250" rx="108" ry="18"/>
<text text-anchor="middle" x="1084.9" y="-246.3" font-family="Times,serif" font-size="14.00">749</text>
</g>
<!-- 12&#45;&gt;20 -->
<g id="edge8" class="edge">
<title>12&#45;&gt;20</title>
<path fill="none" stroke="black" d="M1084.9,-303.7C1084.9,-295.98 1084.9,-286.71 1084.9,-278.11"/>
<polygon fill="black" stroke="black" points="1088.4,-278.1 1084.9,-268.1 1081.4,-278.1 1088.4,-278.1"/>
</g>
<!-- 13&#45;&gt;20 -->
<g id="edge9" class="edge">
<title>13&#45;&gt;20</title>
<path fill="none" stroke="black" d="M1220.51,-309.6C1196.42,-299.19 1160.28,-283.57 1131.36,-271.08"/>
<polygon fill="black" stroke="black" points="1132.43,-267.73 1121.86,-266.97 1129.65,-274.15 1132.43,-267.73"/>
</g>
<!-- 23 -->
<g id="node12" class="node">
<title>23</title>
<ellipse fill="#b9d3ee" stroke="black" cx="1246.9" cy="-250" rx="36" ry="18"/>
<text text-anchor="middle" x="1246.9" y="-246.3" font-family="Times,serif" font-size="14.00">408</text>
</g>
<!-- 13&#45;&gt;23 -->
<g id="edge13" class="edge">
<title>13&#45;&gt;23</title>
<path fill="none" stroke="black" d="M1246.9,-303.7C1246.9,-295.98 1246.9,-286.71 1246.9,-278.11"/>
<polygon fill="black" stroke="black" points="1250.4,-278.1 1246.9,-268.1 1243.4,-278.1 1250.4,-278.1"/>
</g>
<!-- legend_2 -->
<g id="node13" class="node">
<title>legend_2</title>
<polygon fill="#b9d3ee" stroke="black" points="2803.4,-268 2582.4,-268 2582.4,-232 2803.4,-232 2803.4,-268"/>
<text text-anchor="middle" x="2692.9" y="-246.3" font-family="Times,serif" font-size="14.00">DT=3 ST=1 Similarity=0.67</text>
</g>
<!-- legend_1&#45;&gt;legend_2 -->
<g id="edge14" class="edge">
<title>legend_1&#45;&gt;legend_2</title>
<path fill="none" stroke="black" d="M2692.9,-303.7C2692.9,-295.98 2692.9,-286.71 2692.9,-278.11"/>
<polygon fill="black" stroke="black" points="2696.4,-278.1 2692.9,-268.1 2689.4,-278.1 2696.4,-278.1"/>
</g>
<!-- 31 -->
<g id="node15" class="node">
<title>31</title>
<ellipse fill="#b9d3ee" stroke="black" cx="1069.9" cy="-178" rx="23" ry="18"/>
<text text-anchor="middle" x="1069.9" y="-174.3" font-family="Times,serif" font-size="14.00">46</text>
</g>
<!-- 20&#45;&gt;31 -->
<g id="edge17" class="edge">
<title>20&#45;&gt;31</title>
<path fill="none" stroke="black" d="M1081.19,-231.7C1079.54,-223.98 1077.55,-214.71 1075.71,-206.11"/>
<polygon fill="black" stroke="black" points="1079.08,-205.15 1073.56,-196.1 1072.24,-206.62 1079.08,-205.15"/>
</g>
<!-- 32 -->
<g id="node16" class="node">
<title>32</title>
<ellipse fill="#b9d3ee" stroke="black" cx="703.9" cy="-178" rx="36" ry="18"/>
<text text-anchor="middle" x="703.9" y="-174.3" font-family="Times,serif" font-size="14.00">365</text>
</g>
<!-- 20&#45;&gt;32 -->
<g id="edge19" class="edge">
<title>20&#45;&gt;32</title>
<path fill="none" stroke="black" d="M1015.02,-236.16C936.71,-221.77 812.22,-198.9 746.99,-186.92"/>
<polygon fill="black" stroke="black" points="747.51,-183.45 737.04,-185.09 746.25,-190.34 747.51,-183.45"/>
</g>
<!-- 33 -->
<g id="node17" class="node">
<title>33</title>
<ellipse fill="#b9d3ee" stroke="black" cx="1212.9" cy="-178" rx="36" ry="18"/>
<text text-anchor="middle" x="1212.9" y="-174.3" font-family="Times,serif" font-size="14.00">398</text>
</g>
<!-- 20&#45;&gt;33 -->
<g id="edge20" class="edge">
<title>20&#45;&gt;33</title>
<path fill="none" stroke="black" d="M1114.91,-232.59C1134.65,-221.79 1160.46,-207.68 1180.63,-196.64"/>
<polygon fill="black" stroke="black" points="1182.37,-199.68 1189.47,-191.81 1179.01,-193.54 1182.37,-199.68"/>
</g>
<!-- 30 -->
<g id="node14" class="node">
<title>30</title>
<ellipse fill="#b9d3ee" stroke="black" cx="1639.9" cy="-178" rx="36" ry="18"/>
<text text-anchor="middle" x="1639.9" y="-174.3" font-family="Times,serif" font-size="14.00">375</text>
</g>
<!-- 21&#45;&gt;30 -->
<g id="edge15" class="edge">
<title>21&#45;&gt;30</title>
<path fill="none" stroke="black" d="M1639.9,-231.7C1639.9,-223.98 1639.9,-214.71 1639.9,-206.11"/>
<polygon fill="black" stroke="black" points="1643.4,-206.1 1639.9,-196.1 1636.4,-206.1 1643.4,-206.1"/>
</g>
<!-- 34 -->
<g id="node18" class="node">
<title>34</title>
<ellipse fill="#b9d3ee" stroke="black" cx="1965.9" cy="-178" rx="36" ry="18"/>
<text text-anchor="middle" x="1965.9" y="-174.3" font-family="Times,serif" font-size="14.00">416</text>
</g>
<!-- 21&#45;&gt;34 -->
<g id="edge22" class="edge">
<title>21&#45;&gt;34</title>
<path fill="none" stroke="black" d="M1672.35,-242.03C1731.66,-229.3 1857.54,-202.27 1923.52,-188.1"/>
<polygon fill="black" stroke="black" points="1924.54,-191.46 1933.58,-185.94 1923.07,-184.62 1924.54,-191.46"/>
</g>
<!-- 22&#45;&gt;33 -->
<g id="edge21" class="edge">
<title>22&#45;&gt;33</title>
<path fill="none" stroke="black" d="M1355.12,-237.91C1326.53,-226.06 1281.04,-207.22 1249.23,-194.05"/>
<polygon fill="black" stroke="black" points="1250.41,-190.75 1239.83,-190.16 1247.73,-197.22 1250.41,-190.75"/>
</g>
<!-- 35 -->
<g id="node19" class="node">
<title>35</title>
<ellipse fill="#b9d3ee" stroke="black" cx="1396.9" cy="-178" rx="36" ry="18"/>
<text text-anchor="middle" x="1396.9" y="-174.3" font-family="Times,serif" font-size="14.00">400</text>
</g>
<!-- 22&#45;&gt;35 -->
<g id="edge23" class="edge">
<title>22&#45;&gt;35</title>
<path fill="none" stroke="black" d="M1385.53,-232.05C1387.2,-224.26 1389.22,-214.82 1391.1,-206.08"/>
<polygon fill="black" stroke="black" points="1394.52,-206.79 1393.2,-196.28 1387.68,-205.32 1394.52,-206.79"/>
</g>
<!-- 23&#45;&gt;30 -->
<g id="edge16" class="edge">
<title>23&#45;&gt;30</title>
<path fill="none" stroke="black" d="M1279.79,-242.68C1296.83,-239.43 1317.97,-235.44 1336.9,-232 1429.09,-215.23 1537.25,-196.55 1596.18,-186.46"/>
<polygon fill="black" stroke="black" points="1596.98,-189.87 1606.24,-184.73 1595.8,-182.97 1596.98,-189.87"/>
</g>
<!-- 23&#45;&gt;31 -->
<g id="edge18" class="edge">
<title>23&#45;&gt;31</title>
<path fill="none" stroke="black" d="M1219.63,-238.22C1187.11,-225.36 1132.97,-203.94 1099.47,-190.69"/>
<polygon fill="black" stroke="black" points="1100.37,-187.29 1089.78,-186.86 1097.79,-193.8 1100.37,-187.29"/>
</g>
<!-- legend_3 -->
<g id="node20" class="node">
<title>legend_3</title>
<polygon fill="#b9d3ee" stroke="black" points="2803.4,-196 2582.4,-196 2582.4,-160 2803.4,-160 2803.4,-196"/>
<text text-anchor="middle" x="2692.9" y="-174.3" font-family="Times,serif" font-size="14.00">DT=4 ST=1 Similarity=0.68</text>
</g>
<!-- legend_2&#45;&gt;legend_3 -->
<g id="edge24" class="edge">
<title>legend_2&#45;&gt;legend_3</title>
<path fill="none" stroke="black" d="M2692.9,-231.7C2692.9,-223.98 2692.9,-214.71 2692.9,-206.11"/>
<polygon fill="black" stroke="black" points="2696.4,-206.1 2692.9,-196.1 2689.4,-206.1 2696.4,-206.1"/>
</g>
<!-- 41 -->
<g id="node22" class="node">
<title>41</title>
<polygon fill="darkseagreen" stroke="black" points="2119.9,-124 2047.9,-124 2047.9,-88 2119.9,-88 2119.9,-124"/>
<text text-anchor="middle" x="2083.9" y="-102.3" font-family="Times,serif" font-size="14.00">389</text>
</g>
<!-- 30&#45;&gt;41 -->
<g id="edge27" class="edge">
<title>30&#45;&gt;41</title>
<path fill="none" stroke="black" d="M1673.64,-171.68C1752.28,-159.28 1947.89,-128.44 2037.6,-114.3"/>
<polygon fill="black" stroke="black" points="2038.42,-117.71 2047.75,-112.7 2037.33,-110.8 2038.42,-117.71"/>
</g>
<!-- 43 -->
<g id="node24" class="node">
<title>43</title>
<polygon fill="darkseagreen" stroke="black" points="289.9,-124 217.9,-124 217.9,-88 289.9,-88 289.9,-124"/>
<text text-anchor="middle" x="253.9" y="-102.3" font-family="Times,serif" font-size="14.00">366</text>
</g>
<!-- 31&#45;&gt;43 -->
<g id="edge31" class="edge">
<title>31&#45;&gt;43</title>
<path fill="none" stroke="black" d="M1047.22,-175.05C936.64,-165.57 453.04,-124.08 300.31,-110.98"/>
<polygon fill="black" stroke="black" points="300.57,-107.49 290.31,-110.12 299.97,-114.47 300.57,-107.49"/>
</g>
<!-- 44 -->
<g id="node25" class="node">
<title>44</title>
<polygon fill="darkseagreen" stroke="black" points="1058.4,-124 1023.4,-124 1023.4,-88 1058.4,-88 1058.4,-124"/>
<text text-anchor="middle" x="1040.9" y="-102.3" font-family="Times,serif" font-size="14.00">36</text>
</g>
<!-- 31&#45;&gt;44 -->
<g id="edge33" class="edge">
<title>31&#45;&gt;44</title>
<path fill="none" stroke="black" d="M1063.17,-160.76C1059.83,-152.7 1055.71,-142.74 1051.92,-133.6"/>
<polygon fill="black" stroke="black" points="1055.05,-132.02 1047.99,-124.12 1048.59,-134.7 1055.05,-132.02"/>
</g>
<!-- 32&#45;&gt;43 -->
<g id="edge32" class="edge">
<title>32&#45;&gt;43</title>
<path fill="none" stroke="black" d="M670.08,-171.74C590.37,-159.34 390.64,-128.27 299.97,-114.17"/>
<polygon fill="black" stroke="black" points="300.4,-110.69 289.98,-112.61 299.33,-117.61 300.4,-110.69"/>
</g>
<!-- 45 -->
<g id="node26" class="node">
<title>45</title>
<polygon fill="darkseagreen" stroke="black" points="739.9,-124 667.9,-124 667.9,-88 739.9,-88 739.9,-124"/>
<text text-anchor="middle" x="703.9" y="-102.3" font-family="Times,serif" font-size="14.00">403</text>
</g>
<!-- 32&#45;&gt;45 -->
<g id="edge34" class="edge">
<title>32&#45;&gt;45</title>
<path fill="none" stroke="black" d="M703.9,-159.7C703.9,-151.98 703.9,-142.71 703.9,-134.11"/>
<polygon fill="black" stroke="black" points="707.4,-134.1 703.9,-124.1 700.4,-134.1 707.4,-134.1"/>
</g>
<!-- 40 -->
<g id="node21" class="node">
<title>40</title>
<polygon fill="darkseagreen" stroke="black" points="1432.9,-124 1360.9,-124 1360.9,-88 1432.9,-88 1432.9,-124"/>
<text text-anchor="middle" x="1396.9" y="-102.3" font-family="Times,serif" font-size="14.00">403</text>
</g>
<!-- 33&#45;&gt;40 -->
<g id="edge25" class="edge">
<title>33&#45;&gt;40</title>
<path fill="none" stroke="black" d="M1240.84,-166.37C1270.16,-155.22 1316.7,-137.51 1351.33,-124.33"/>
<polygon fill="black" stroke="black" points="1352.66,-127.57 1360.76,-120.75 1350.17,-121.03 1352.66,-127.57"/>
</g>
<!-- 33&#45;&gt;45 -->
<g id="edge35" class="edge">
<title>33&#45;&gt;45</title>
<path fill="none" stroke="black" d="M1178.92,-171.62C1156.96,-168.19 1127.76,-163.7 1101.9,-160 974.7,-141.79 824.33,-122.33 750.11,-112.85"/>
<polygon fill="black" stroke="black" points="750.51,-109.38 740.15,-111.59 749.63,-116.32 750.51,-109.38"/>
</g>
<!-- 34&#45;&gt;41 -->
<g id="edge28" class="edge">
<title>34&#45;&gt;41</title>
<path fill="none" stroke="black" d="M1988.37,-163.67C2004.77,-153.94 2027.36,-140.54 2046.46,-129.21"/>
<polygon fill="black" stroke="black" points="2048.42,-132.11 2055.24,-124 2044.85,-126.09 2048.42,-132.11"/>
</g>
<!-- 42 -->
<g id="node23" class="node">
<title>42</title>
<polygon fill="darkseagreen" stroke="black" points="1819.9,-124 1747.9,-124 1747.9,-88 1819.9,-88 1819.9,-124"/>
<text text-anchor="middle" x="1783.9" y="-102.3" font-family="Times,serif" font-size="14.00">380</text>
</g>
<!-- 34&#45;&gt;42 -->
<g id="edge29" class="edge">
<title>34&#45;&gt;42</title>
<path fill="none" stroke="black" d="M1938.26,-166.37C1909.48,-155.3 1863.91,-137.77 1829.73,-124.63"/>
<polygon fill="black" stroke="black" points="1830.56,-121.2 1819.97,-120.87 1828.05,-127.73 1830.56,-121.2"/>
</g>
<!-- 46 -->
<g id="node27" class="node">
<title>46</title>
<polygon fill="darkseagreen" stroke="black" points="2426.4,-124 2391.4,-124 2391.4,-88 2426.4,-88 2426.4,-124"/>
<text text-anchor="middle" x="2408.9" y="-102.3" font-family="Times,serif" font-size="14.00">23</text>
</g>
<!-- 34&#45;&gt;46 -->
<g id="edge36" class="edge">
<title>34&#45;&gt;46</title>
<path fill="none" stroke="black" d="M1999.92,-171.62C2084.68,-158.23 2303.95,-123.58 2381.35,-111.35"/>
<polygon fill="black" stroke="black" points="2381.97,-114.8 2391.3,-109.78 2380.88,-107.88 2381.97,-114.8"/>
</g>
<!-- 35&#45;&gt;40 -->
<g id="edge26" class="edge">
<title>35&#45;&gt;40</title>
<path fill="none" stroke="black" d="M1396.9,-159.7C1396.9,-151.98 1396.9,-142.71 1396.9,-134.11"/>
<polygon fill="black" stroke="black" points="1400.4,-134.1 1396.9,-124.1 1393.4,-134.1 1400.4,-134.1"/>
</g>
<!-- 35&#45;&gt;42 -->
<g id="edge30" class="edge">
<title>35&#45;&gt;42</title>
<path fill="none" stroke="black" d="M1430.23,-170.97C1499.36,-158.47 1658.49,-129.68 1737.56,-115.38"/>
<polygon fill="black" stroke="black" points="1738.49,-118.77 1747.71,-113.55 1737.25,-111.88 1738.49,-118.77"/>
</g>
<!-- legend_4 -->
<g id="node28" class="node">
<title>legend_4</title>
<polygon fill="darkseagreen" stroke="black" points="2803.4,-124 2582.4,-124 2582.4,-88 2803.4,-88 2803.4,-124"/>
<text text-anchor="middle" x="2692.9" y="-102.3" font-family="Times,serif" font-size="14.00">DT=5 ST=1 Similarity=0.69</text>
</g>
<!-- legend_3&#45;&gt;legend_4 -->
<g id="edge37" class="edge">
<title>legend_3&#45;&gt;legend_4</title>
<path fill="none" stroke="black" d="M2692.9,-159.7C2692.9,-151.98 2692.9,-142.71 2692.9,-134.11"/>
<polygon fill="black" stroke="black" points="2696.4,-134.1 2692.9,-124.1 2689.4,-134.1 2696.4,-134.1"/>
</g>
<!-- 53 -->
<g id="node32" class="node">
<title>53</title>
<ellipse fill="#b9d3ee" stroke="black" cx="1292.9" cy="-34" rx="16.8" ry="18"/>
<text text-anchor="middle" x="1292.9" y="-30.3" font-family="Times,serif" font-size="14.00">1</text>
</g>
<!-- 40&#45;&gt;53 -->
<g id="edge41" class="edge">
<title>40&#45;&gt;53</title>
<path fill="none" stroke="black" d="M1371.46,-87.88C1354.31,-76.33 1331.89,-61.24 1315.39,-50.14"/>
<polygon fill="black" stroke="black" points="1317.16,-47.11 1306.91,-44.43 1313.25,-52.92 1317.16,-47.11"/>
</g>
<!-- 57 -->
<g id="node36" class="node">
<title>57</title>
<ellipse fill="#b9d3ee" stroke="black" cx="1344.9" cy="-34" rx="16.8" ry="18"/>
<text text-anchor="middle" x="1344.9" y="-30.3" font-family="Times,serif" font-size="14.00">1</text>
</g>
<!-- 40&#45;&gt;57 -->
<g id="edge45" class="edge">
<title>40&#45;&gt;57</title>
<path fill="none" stroke="black" d="M1384.04,-87.7C1377.16,-78.43 1368.6,-66.91 1361.25,-57.01"/>
<polygon fill="black" stroke="black" points="1363.94,-54.76 1355.17,-48.82 1358.32,-58.94 1363.94,-54.76"/>
</g>
<!-- 519 -->
<g id="node48" class="node">
<title>519</title>
<ellipse fill="#b9d3ee" stroke="black" cx="1396.9" cy="-34" rx="16.8" ry="18"/>
<text text-anchor="middle" x="1396.9" y="-30.3" font-family="Times,serif" font-size="14.00">3</text>
</g>
<!-- 40&#45;&gt;519 -->
<g id="edge57" class="edge">
<title>40&#45;&gt;519</title>
<path fill="none" stroke="black" d="M1396.9,-87.7C1396.9,-79.98 1396.9,-70.71 1396.9,-62.11"/>
<polygon fill="black" stroke="black" points="1400.4,-62.1 1396.9,-52.1 1393.4,-62.1 1400.4,-62.1"/>
</g>
<!-- 522 -->
<g id="node51" class="node">
<title>522</title>
<ellipse fill="#b9d3ee" stroke="black" cx="1448.9" cy="-34" rx="16.8" ry="18"/>
<text text-anchor="middle" x="1448.9" y="-30.3" font-family="Times,serif" font-size="14.00">4</text>
</g>
<!-- 40&#45;&gt;522 -->
<g id="edge60" class="edge">
<title>40&#45;&gt;522</title>
<path fill="none" stroke="black" d="M1409.75,-87.7C1416.64,-78.43 1425.19,-66.91 1432.55,-57.01"/>
<polygon fill="black" stroke="black" points="1435.48,-58.94 1438.63,-48.82 1429.86,-54.76 1435.48,-58.94"/>
</g>
<!-- 528 -->
<g id="node57" class="node">
<title>528</title>
<ellipse fill="#b9d3ee" stroke="black" cx="1500.9" cy="-34" rx="16.8" ry="18"/>
<text text-anchor="middle" x="1500.9" y="-30.3" font-family="Times,serif" font-size="14.00">7</text>
</g>
<!-- 40&#45;&gt;528 -->
<g id="edge66" class="edge">
<title>40&#45;&gt;528</title>
<path fill="none" stroke="black" d="M1422.34,-87.88C1439.49,-76.33 1461.91,-61.24 1478.4,-50.14"/>
<polygon fill="black" stroke="black" points="1480.55,-52.92 1486.89,-44.43 1476.64,-47.11 1480.55,-52.92"/>
</g>
<!-- 536 -->
<g id="node65" class="node">
<title>536</title>
<ellipse fill="#b9d3ee" stroke="black" cx="1558.9" cy="-34" rx="23" ry="18"/>
<text text-anchor="middle" x="1558.9" y="-30.3" font-family="Times,serif" font-size="14.00">48</text>
</g>
<!-- 40&#45;&gt;536 -->
<g id="edge74" class="edge">
<title>40&#45;&gt;536</title>
<path fill="none" stroke="black" d="M1432.91,-91.45C1459.24,-81.27 1495.66,-66.62 1526.9,-52 1528.47,-51.27 1530.06,-50.49 1531.67,-49.7"/>
<polygon fill="black" stroke="black" points="1533.48,-52.71 1540.78,-45.03 1530.29,-46.48 1533.48,-52.71"/>
</g>
<!-- 537 -->
<g id="node66" class="node">
<title>537</title>
<ellipse fill="#b9d3ee" stroke="black" cx="1621.9" cy="-34" rx="23" ry="18"/>
<text text-anchor="middle" x="1621.9" y="-30.3" font-family="Times,serif" font-size="14.00">68</text>
</g>
<!-- 40&#45;&gt;537 -->
<g id="edge75" class="edge">
<title>40&#45;&gt;537</title>
<path fill="none" stroke="black" d="M1433.13,-97.78C1472.73,-89.27 1537.65,-73.52 1590.9,-52 1592.29,-51.44 1593.69,-50.83 1595.09,-50.19"/>
<polygon fill="black" stroke="black" points="1596.84,-53.23 1604.22,-45.62 1593.71,-46.97 1596.84,-53.23"/>
</g>
<!-- 540 -->
<g id="node69" class="node">
<title>540</title>
<ellipse fill="#b9d3ee" stroke="black" cx="1221.9" cy="-34" rx="36" ry="18"/>
<text text-anchor="middle" x="1221.9" y="-30.3" font-family="Times,serif" font-size="14.00">271</text>
</g>
<!-- 40&#45;&gt;540 -->
<g id="edge78" class="edge">
<title>40&#45;&gt;540</title>
<path fill="none" stroke="black" d="M1360.64,-90.5C1330.87,-78.59 1288.87,-61.79 1258.9,-49.8"/>
<polygon fill="black" stroke="black" points="1259.82,-46.4 1249.23,-45.93 1257.22,-52.9 1259.82,-46.4"/>
</g>
<!-- 55 -->
<g id="node34" class="node">
<title>55</title>
<ellipse fill="#b9d3ee" stroke="black" cx="2119.9" cy="-34" rx="16.8" ry="18"/>
<text text-anchor="middle" x="2119.9" y="-30.3" font-family="Times,serif" font-size="14.00">1</text>
</g>
<!-- 41&#45;&gt;55 -->
<g id="edge43" class="edge">
<title>41&#45;&gt;55</title>
<path fill="none" stroke="black" d="M2092.8,-87.7C2097.23,-79.07 2102.67,-68.5 2107.5,-59.1"/>
<polygon fill="black" stroke="black" points="2110.62,-60.7 2112.08,-50.2 2104.39,-57.49 2110.62,-60.7"/>
</g>
<!-- 56 -->
<g id="node35" class="node">
<title>56</title>
<ellipse fill="#b9d3ee" stroke="black" cx="2171.9" cy="-34" rx="16.8" ry="18"/>
<text text-anchor="middle" x="2171.9" y="-30.3" font-family="Times,serif" font-size="14.00">1</text>
</g>
<!-- 41&#45;&gt;56 -->
<g id="edge44" class="edge">
<title>41&#45;&gt;56</title>
<path fill="none" stroke="black" d="M2105.65,-87.7C2119.39,-76.77 2137.06,-62.71 2150.69,-51.87"/>
<polygon fill="black" stroke="black" points="2152.94,-54.55 2158.59,-45.59 2148.59,-49.07 2152.94,-54.55"/>
</g>
<!-- 58 -->
<g id="node37" class="node">
<title>58</title>
<ellipse fill="#b9d3ee" stroke="black" cx="2223.9" cy="-34" rx="16.8" ry="18"/>
<text text-anchor="middle" x="2223.9" y="-30.3" font-family="Times,serif" font-size="14.00">1</text>
</g>
<!-- 41&#45;&gt;58 -->
<g id="edge46" class="edge">
<title>41&#45;&gt;58</title>
<path fill="none" stroke="black" d="M2119.99,-89.82C2142.74,-79.85 2172.52,-66.1 2197.9,-52 2199.04,-51.37 2200.2,-50.7 2201.36,-50.01"/>
<polygon fill="black" stroke="black" points="2203.47,-52.82 2210.09,-44.55 2199.76,-46.89 2203.47,-52.82"/>
</g>
<!-- 520 -->
<g id="node49" class="node">
<title>520</title>
<ellipse fill="#b9d3ee" stroke="black" cx="2275.9" cy="-34" rx="16.8" ry="18"/>
<text text-anchor="middle" x="2275.9" y="-30.3" font-family="Times,serif" font-size="14.00">3</text>
</g>
<!-- 41&#45;&gt;520 -->
<g id="edge58" class="edge">
<title>41&#45;&gt;520</title>
<path fill="none" stroke="black" d="M2119.93,-96.51C2154.29,-87.72 2207.01,-72.41 2249.9,-52 2251.08,-51.44 2252.26,-50.83 2253.45,-50.19"/>
<polygon fill="black" stroke="black" points="2255.5,-53.05 2262.27,-44.9 2251.9,-47.04 2255.5,-53.05"/>
</g>
<!-- 529 -->
<g id="node58" class="node">
<title>529</title>
<ellipse fill="#b9d3ee" stroke="black" cx="1977.9" cy="-34" rx="16.8" ry="18"/>
<text text-anchor="middle" x="1977.9" y="-30.3" font-family="Times,serif" font-size="14.00">9</text>
</g>
<!-- 41&#45;&gt;529 -->
<g id="edge67" class="edge">
<title>41&#45;&gt;529</title>
<path fill="none" stroke="black" d="M2057.97,-87.88C2040.39,-76.26 2017.37,-61.07 2000.53,-49.94"/>
<polygon fill="black" stroke="black" points="2002.15,-46.82 1991.88,-44.23 1998.3,-52.66 2002.15,-46.82"/>
</g>
<!-- 543 -->
<g id="node72" class="node">
<title>543</title>
<ellipse fill="#b9d3ee" stroke="black" cx="2048.9" cy="-34" rx="36" ry="18"/>
<text text-anchor="middle" x="2048.9" y="-30.3" font-family="Times,serif" font-size="14.00">374</text>
</g>
<!-- 41&#45;&gt;543 -->
<g id="edge81" class="edge">
<title>41&#45;&gt;543</title>
<path fill="none" stroke="black" d="M2075.25,-87.7C2071.16,-79.52 2066.2,-69.6 2061.69,-60.58"/>
<polygon fill="black" stroke="black" points="2064.81,-59 2057.21,-51.62 2058.55,-62.13 2064.81,-59"/>
</g>
<!-- 52 -->
<g id="node31" class="node">
<title>52</title>
<ellipse fill="#b9d3ee" stroke="black" cx="1925.9" cy="-34" rx="16.8" ry="18"/>
<text text-anchor="middle" x="1925.9" y="-30.3" font-family="Times,serif" font-size="14.00">1</text>
</g>
<!-- 42&#45;&gt;52 -->
<g id="edge40" class="edge">
<title>42&#45;&gt;52</title>
<path fill="none" stroke="black" d="M1820.12,-90.12C1843.35,-80.17 1873.92,-66.32 1899.9,-52 1901.04,-51.37 1902.2,-50.71 1903.36,-50.02"/>
<polygon fill="black" stroke="black" points="1905.47,-52.83 1912.1,-44.57 1901.77,-46.89 1905.47,-52.83"/>
</g>
<!-- 511 -->
<g id="node40" class="node">
<title>511</title>
<ellipse fill="#b9d3ee" stroke="black" cx="1679.9" cy="-34" rx="16.8" ry="18"/>
<text text-anchor="middle" x="1679.9" y="-30.3" font-family="Times,serif" font-size="14.00">1</text>
</g>
<!-- 42&#45;&gt;511 -->
<g id="edge49" class="edge">
<title>42&#45;&gt;511</title>
<path fill="none" stroke="black" d="M1758.46,-87.88C1741.31,-76.33 1718.89,-61.24 1702.39,-50.14"/>
<polygon fill="black" stroke="black" points="1704.16,-47.11 1693.91,-44.43 1700.25,-52.92 1704.16,-47.11"/>
</g>
<!-- 516 -->
<g id="node45" class="node">
<title>516</title>
<ellipse fill="#b9d3ee" stroke="black" cx="1731.9" cy="-34" rx="16.8" ry="18"/>
<text text-anchor="middle" x="1731.9" y="-30.3" font-family="Times,serif" font-size="14.00">2</text>
</g>
<!-- 42&#45;&gt;516 -->
<g id="edge54" class="edge">
<title>42&#45;&gt;516</title>
<path fill="none" stroke="black" d="M1771.04,-87.7C1764.16,-78.43 1755.6,-66.91 1748.25,-57.01"/>
<polygon fill="black" stroke="black" points="1750.94,-54.76 1742.17,-48.82 1745.32,-58.94 1750.94,-54.76"/>
</g>
<!-- 525 -->
<g id="node54" class="node">
<title>525</title>
<ellipse fill="#b9d3ee" stroke="black" cx="1783.9" cy="-34" rx="16.8" ry="18"/>
<text text-anchor="middle" x="1783.9" y="-30.3" font-family="Times,serif" font-size="14.00">4</text>
</g>
<!-- 42&#45;&gt;525 -->
<g id="edge63" class="edge">
<title>42&#45;&gt;525</title>
<path fill="none" stroke="black" d="M1783.9,-87.7C1783.9,-79.98 1783.9,-70.71 1783.9,-62.11"/>
<polygon fill="black" stroke="black" points="1787.4,-62.1 1783.9,-52.1 1780.4,-62.1 1787.4,-62.1"/>
</g>
<!-- 542 -->
<g id="node71" class="node">
<title>542</title>
<ellipse fill="#b9d3ee" stroke="black" cx="1854.9" cy="-34" rx="36" ry="18"/>
<text text-anchor="middle" x="1854.9" y="-30.3" font-family="Times,serif" font-size="14.00">372</text>
</g>
<!-- 42&#45;&gt;542 -->
<g id="edge80" class="edge">
<title>42&#45;&gt;542</title>
<path fill="none" stroke="black" d="M1801.45,-87.7C1810.61,-78.66 1821.94,-67.5 1831.8,-57.77"/>
<polygon fill="black" stroke="black" points="1834.34,-60.18 1839,-50.67 1829.43,-55.2 1834.34,-60.18"/>
</g>
<!-- 54 -->
<g id="node33" class="node">
<title>54</title>
<ellipse fill="#b9d3ee" stroke="black" cx="16.9" cy="-34" rx="16.8" ry="18"/>
<text text-anchor="middle" x="16.9" y="-30.3" font-family="Times,serif" font-size="14.00">1</text>
</g>
<!-- 43&#45;&gt;54 -->
<g id="edge42" class="edge">
<title>43&#45;&gt;54</title>
<path fill="none" stroke="black" d="M217.61,-99.67C174.6,-92.49 101.37,-77.59 42.9,-52 41.7,-51.48 40.5,-50.9 39.31,-50.29"/>
<polygon fill="black" stroke="black" points="40.84,-47.13 30.45,-45.07 37.29,-53.16 40.84,-47.13"/>
</g>
<!-- 510 -->
<g id="node39" class="node">
<title>510</title>
<ellipse fill="#b9d3ee" stroke="black" cx="68.9" cy="-34" rx="16.8" ry="18"/>
<text text-anchor="middle" x="68.9" y="-30.3" font-family="Times,serif" font-size="14.00">1</text>
</g>
<!-- 43&#45;&gt;510 -->
<g id="edge48" class="edge">
<title>43&#45;&gt;510</title>
<path fill="none" stroke="black" d="M217.82,-95.84C184.9,-86.82 135.37,-71.57 94.9,-52 93.72,-51.43 92.54,-50.82 91.36,-50.18"/>
<polygon fill="black" stroke="black" points="92.91,-47.03 82.54,-44.86 89.3,-53.02 92.91,-47.03"/>
</g>
<!-- 515 -->
<g id="node44" class="node">
<title>515</title>
<ellipse fill="#b9d3ee" stroke="black" cx="120.9" cy="-34" rx="16.8" ry="18"/>
<text text-anchor="middle" x="120.9" y="-30.3" font-family="Times,serif" font-size="14.00">2</text>
</g>
<!-- 43&#45;&gt;515 -->
<g id="edge53" class="edge">
<title>43&#45;&gt;515</title>
<path fill="none" stroke="black" d="M217.67,-88.38C196.68,-78.42 169.93,-65.17 146.9,-52 145.77,-51.35 144.62,-50.68 143.46,-49.98"/>
<polygon fill="black" stroke="black" points="145.07,-46.86 134.74,-44.49 141.34,-52.78 145.07,-46.86"/>
</g>
<!-- 517 -->
<g id="node46" class="node">
<title>517</title>
<ellipse fill="#b9d3ee" stroke="black" cx="172.9" cy="-34" rx="16.8" ry="18"/>
<text text-anchor="middle" x="172.9" y="-30.3" font-family="Times,serif" font-size="14.00">2</text>
</g>
<!-- 43&#45;&gt;517 -->
<g id="edge55" class="edge">
<title>43&#45;&gt;517</title>
<path fill="none" stroke="black" d="M233.88,-87.7C221.58,-77.07 205.86,-63.49 193.47,-52.77"/>
<polygon fill="black" stroke="black" points="195.72,-50.1 185.87,-46.21 191.15,-55.39 195.72,-50.1"/>
</g>
<!-- 518 -->
<g id="node47" class="node">
<title>518</title>
<ellipse fill="#b9d3ee" stroke="black" cx="224.9" cy="-34" rx="16.8" ry="18"/>
<text text-anchor="middle" x="224.9" y="-30.3" font-family="Times,serif" font-size="14.00">2</text>
</g>
<!-- 43&#45;&gt;518 -->
<g id="edge56" class="edge">
<title>43&#45;&gt;518</title>
<path fill="none" stroke="black" d="M246.73,-87.7C243.28,-79.37 239.08,-69.23 235.29,-60.08"/>
<polygon fill="black" stroke="black" points="238.45,-58.57 231.39,-50.67 231.98,-61.25 238.45,-58.57"/>
</g>
<!-- 531 -->
<g id="node60" class="node">
<title>531</title>
<ellipse fill="#b9d3ee" stroke="black" cx="282.9" cy="-34" rx="23" ry="18"/>
<text text-anchor="middle" x="282.9" y="-30.3" font-family="Times,serif" font-size="14.00">10</text>
</g>
<!-- 43&#45;&gt;531 -->
<g id="edge69" class="edge">
<title>43&#45;&gt;531</title>
<path fill="none" stroke="black" d="M261.07,-87.7C264.42,-79.61 268.48,-69.81 272.18,-60.87"/>
<polygon fill="black" stroke="black" points="275.42,-62.2 276.01,-51.62 268.95,-59.52 275.42,-62.2"/>
</g>
<!-- 535 -->
<g id="node64" class="node">
<title>535</title>
<ellipse fill="#b9d3ee" stroke="black" cx="345.9" cy="-34" rx="23" ry="18"/>
<text text-anchor="middle" x="345.9" y="-30.3" font-family="Times,serif" font-size="14.00">26</text>
</g>
<!-- 43&#45;&gt;535 -->
<g id="edge73" class="edge">
<title>43&#45;&gt;535</title>
<path fill="none" stroke="black" d="M276.64,-87.7C290.39,-77.24 307.9,-63.91 321.87,-53.28"/>
<polygon fill="black" stroke="black" points="324.21,-55.9 330.05,-47.06 319.97,-50.33 324.21,-55.9"/>
</g>
<!-- 541 -->
<g id="node70" class="node">
<title>541</title>
<ellipse fill="#b9d3ee" stroke="black" cx="422.9" cy="-34" rx="36" ry="18"/>
<text text-anchor="middle" x="422.9" y="-30.3" font-family="Times,serif" font-size="14.00">322</text>
</g>
<!-- 43&#45;&gt;541 -->
<g id="edge79" class="edge">
<title>43&#45;&gt;541</title>
<path fill="none" stroke="black" d="M290.15,-89.98C318.61,-78.2 358.05,-61.86 386.53,-50.06"/>
<polygon fill="black" stroke="black" points="388.21,-53.15 396.11,-46.09 385.54,-46.69 388.21,-53.15"/>
</g>
<!-- 59 -->
<g id="node38" class="node">
<title>59</title>
<ellipse fill="#b9d3ee" stroke="black" cx="1098.9" cy="-34" rx="16.8" ry="18"/>
<text text-anchor="middle" x="1098.9" y="-30.3" font-family="Times,serif" font-size="14.00">1</text>
</g>
<!-- 44&#45;&gt;59 -->
<g id="edge47" class="edge">
<title>44&#45;&gt;59</title>
<path fill="none" stroke="black" d="M1055.24,-87.7C1063.2,-78.08 1073.17,-66.05 1081.57,-55.91"/>
<polygon fill="black" stroke="black" points="1084.5,-57.86 1088.18,-47.93 1079.11,-53.4 1084.5,-57.86"/>
</g>
<!-- 513 -->
<g id="node42" class="node">
<title>513</title>
<ellipse fill="#b9d3ee" stroke="black" cx="1150.9" cy="-34" rx="16.8" ry="18"/>
<text text-anchor="middle" x="1150.9" y="-30.3" font-family="Times,serif" font-size="14.00">2</text>
</g>
<!-- 44&#45;&gt;513 -->
<g id="edge51" class="edge">
<title>44&#45;&gt;513</title>
<path fill="none" stroke="black" d="M1058.65,-93.92C1075.69,-83.25 1102.12,-66.63 1124.9,-52 1126,-51.3 1127.12,-50.57 1128.25,-49.84"/>
<polygon fill="black" stroke="black" points="1130.42,-52.6 1136.89,-44.22 1126.6,-46.74 1130.42,-52.6"/>
</g>
<!-- 514 -->
<g id="node43" class="node">
<title>514</title>
<ellipse fill="#b9d3ee" stroke="black" cx="878.9" cy="-34" rx="16.8" ry="18"/>
<text text-anchor="middle" x="878.9" y="-30.3" font-family="Times,serif" font-size="14.00">2</text>
</g>
<!-- 44&#45;&gt;514 -->
<g id="edge52" class="edge">
<title>44&#45;&gt;514</title>
<path fill="none" stroke="black" d="M1023.22,-99.42C996.78,-90.79 945.68,-72.99 904.9,-52 903.74,-51.4 902.57,-50.77 901.39,-50.1"/>
<polygon fill="black" stroke="black" points="902.97,-46.96 892.61,-44.73 899.31,-52.93 902.97,-46.96"/>
</g>
<!-- 521 -->
<g id="node50" class="node">
<title>521</title>
<ellipse fill="#b9d3ee" stroke="black" cx="930.9" cy="-34" rx="16.8" ry="18"/>
<text text-anchor="middle" x="930.9" y="-30.3" font-family="Times,serif" font-size="14.00">3</text>
</g>
<!-- 44&#45;&gt;521 -->
<g id="edge59" class="edge">
<title>44&#45;&gt;521</title>
<path fill="none" stroke="black" d="M1023.15,-93.92C1006.11,-83.25 979.68,-66.63 956.9,-52 955.8,-51.3 954.68,-50.57 953.55,-49.84"/>
<polygon fill="black" stroke="black" points="955.2,-46.74 944.9,-44.22 951.38,-52.6 955.2,-46.74"/>
</g>
<!-- 526 -->
<g id="node55" class="node">
<title>526</title>
<ellipse fill="#b9d3ee" stroke="black" cx="982.9" cy="-34" rx="16.8" ry="18"/>
<text text-anchor="middle" x="982.9" y="-30.3" font-family="Times,serif" font-size="14.00">5</text>
</g>
<!-- 44&#45;&gt;526 -->
<g id="edge64" class="edge">
<title>44&#45;&gt;526</title>
<path fill="none" stroke="black" d="M1026.56,-87.7C1018.59,-78.08 1008.62,-66.05 1000.22,-55.91"/>
<polygon fill="black" stroke="black" points="1002.69,-53.4 993.61,-47.93 997.3,-57.86 1002.69,-53.4"/>
</g>
<!-- 534 -->
<g id="node63" class="node">
<title>534</title>
<ellipse fill="#b9d3ee" stroke="black" cx="1040.9" cy="-34" rx="23" ry="18"/>
<text text-anchor="middle" x="1040.9" y="-30.3" font-family="Times,serif" font-size="14.00">23</text>
</g>
<!-- 44&#45;&gt;534 -->
<g id="edge72" class="edge">
<title>44&#45;&gt;534</title>
<path fill="none" stroke="black" d="M1040.9,-87.7C1040.9,-79.98 1040.9,-70.71 1040.9,-62.11"/>
<polygon fill="black" stroke="black" points="1044.4,-62.1 1040.9,-52.1 1037.4,-62.1 1044.4,-62.1"/>
</g>
<!-- 524 -->
<g id="node53" class="node">
<title>524</title>
<ellipse fill="#b9d3ee" stroke="black" cx="774.9" cy="-34" rx="16.8" ry="18"/>
<text text-anchor="middle" x="774.9" y="-30.3" font-family="Times,serif" font-size="14.00">4</text>
</g>
<!-- 45&#45;&gt;524 -->
<g id="edge62" class="edge">
<title>45&#45;&gt;524</title>
<path fill="none" stroke="black" d="M721.45,-87.7C731.76,-77.53 744.81,-64.67 755.43,-54.19"/>
<polygon fill="black" stroke="black" points="758,-56.57 762.67,-47.06 753.09,-51.59 758,-56.57"/>
</g>
<!-- 527 -->
<g id="node56" class="node">
<title>527</title>
<ellipse fill="#b9d3ee" stroke="black" cx="826.9" cy="-34" rx="16.8" ry="18"/>
<text text-anchor="middle" x="826.9" y="-30.3" font-family="Times,serif" font-size="14.00">5</text>
</g>
<!-- 45&#45;&gt;527 -->
<g id="edge65" class="edge">
<title>45&#45;&gt;527</title>
<path fill="none" stroke="black" d="M736.59,-87.96C755.57,-77.87 779.82,-64.62 800.9,-52 802.02,-51.33 803.16,-50.63 804.3,-49.92"/>
<polygon fill="black" stroke="black" points="806.45,-52.71 812.99,-44.38 802.68,-46.81 806.45,-52.71"/>
</g>
<!-- 530 -->
<g id="node59" class="node">
<title>530</title>
<ellipse fill="#b9d3ee" stroke="black" cx="493.9" cy="-34" rx="16.8" ry="18"/>
<text text-anchor="middle" x="493.9" y="-30.3" font-family="Times,serif" font-size="14.00">9</text>
</g>
<!-- 45&#45;&gt;530 -->
<g id="edge68" class="edge">
<title>45&#45;&gt;530</title>
<path fill="none" stroke="black" d="M667.85,-97.96C629.91,-89.8 569.01,-74.51 519.9,-52 518.71,-51.46 517.52,-50.86 516.33,-50.24"/>
<polygon fill="black" stroke="black" points="517.87,-47.08 507.49,-44.98 514.29,-53.1 517.87,-47.08"/>
</g>
<!-- 532 -->
<g id="node61" class="node">
<title>532</title>
<ellipse fill="#b9d3ee" stroke="black" cx="551.9" cy="-34" rx="23" ry="18"/>
<text text-anchor="middle" x="551.9" y="-30.3" font-family="Times,serif" font-size="14.00">13</text>
</g>
<!-- 45&#45;&gt;532 -->
<g id="edge70" class="edge">
<title>45&#45;&gt;532</title>
<path fill="none" stroke="black" d="M667.78,-90.17C643.52,-79.97 610.99,-65.82 582.9,-52 581.56,-51.34 580.19,-50.65 578.81,-49.94"/>
<polygon fill="black" stroke="black" points="580.26,-46.75 569.79,-45.16 576.98,-52.94 580.26,-46.75"/>
</g>
<!-- 538 -->
<g id="node67" class="node">
<title>538</title>
<ellipse fill="#b9d3ee" stroke="black" cx="620.9" cy="-34" rx="28.7" ry="18"/>
<text text-anchor="middle" x="620.9" y="-30.3" font-family="Times,serif" font-size="14.00">104</text>
</g>
<!-- 45&#45;&gt;538 -->
<g id="edge76" class="edge">
<title>45&#45;&gt;538</title>
<path fill="none" stroke="black" d="M683.38,-87.7C671.84,-77.96 657.35,-65.74 645.23,-55.52"/>
<polygon fill="black" stroke="black" points="647.19,-52.6 637.29,-48.82 642.68,-57.95 647.19,-52.6"/>
</g>
<!-- 539 -->
<g id="node68" class="node">
<title>539</title>
<ellipse fill="#b9d3ee" stroke="black" cx="703.9" cy="-34" rx="36" ry="18"/>
<text text-anchor="middle" x="703.9" y="-30.3" font-family="Times,serif" font-size="14.00">268</text>
</g>
<!-- 45&#45;&gt;539 -->
<g id="edge77" class="edge">
<title>45&#45;&gt;539</title>
<path fill="none" stroke="black" d="M703.9,-87.7C703.9,-79.98 703.9,-70.71 703.9,-62.11"/>
<polygon fill="black" stroke="black" points="707.4,-62.1 703.9,-52.1 700.4,-62.1 707.4,-62.1"/>
</g>
<!-- 50 -->
<g id="node29" class="node">
<title>50</title>
<ellipse fill="#b9d3ee" stroke="black" cx="2495.9" cy="-34" rx="16.8" ry="18"/>
<text text-anchor="middle" x="2495.9" y="-30.3" font-family="Times,serif" font-size="14.00">1</text>
</g>
<!-- 46&#45;&gt;50 -->
<g id="edge38" class="edge">
<title>46&#45;&gt;50</title>
<path fill="none" stroke="black" d="M2426.5,-90.83C2440.45,-79.61 2459.98,-63.9 2474.77,-52"/>
<polygon fill="black" stroke="black" points="2477.25,-54.49 2482.85,-45.5 2472.86,-49.04 2477.25,-54.49"/>
</g>
<!-- 51 -->
<g id="node30" class="node">
<title>51</title>
<ellipse fill="#b9d3ee" stroke="black" cx="2547.9" cy="-34" rx="16.8" ry="18"/>
<text text-anchor="middle" x="2547.9" y="-30.3" font-family="Times,serif" font-size="14.00">1</text>
</g>
<!-- 46&#45;&gt;51 -->
<g id="edge39" class="edge">
<title>46&#45;&gt;51</title>
<path fill="none" stroke="black" d="M2426.51,-97.66C2449.07,-88.05 2489.16,-70.26 2521.9,-52 2523.04,-51.36 2524.19,-50.7 2525.35,-50.01"/>
<polygon fill="black" stroke="black" points="2527.47,-52.82 2534.09,-44.54 2523.75,-46.88 2527.47,-52.82"/>
</g>
<!-- 512 -->
<g id="node41" class="node">
<title>512</title>
<ellipse fill="#b9d3ee" stroke="black" cx="2327.9" cy="-34" rx="16.8" ry="18"/>
<text text-anchor="middle" x="2327.9" y="-30.3" font-family="Times,serif" font-size="14.00">2</text>
</g>
<!-- 46&#45;&gt;512 -->
<g id="edge50" class="edge">
<title>46&#45;&gt;512</title>
<path fill="none" stroke="black" d="M2391.32,-89.81C2378.68,-78.89 2361.61,-64.13 2348.35,-52.68"/>
<polygon fill="black" stroke="black" points="2350.53,-49.93 2340.67,-46.04 2345.95,-55.23 2350.53,-49.93"/>
</g>
<!-- 523 -->
<g id="node52" class="node">
<title>523</title>
<ellipse fill="#b9d3ee" stroke="black" cx="2379.9" cy="-34" rx="16.8" ry="18"/>
<text text-anchor="middle" x="2379.9" y="-30.3" font-family="Times,serif" font-size="14.00">4</text>
</g>
<!-- 46&#45;&gt;523 -->
<g id="edge61" class="edge">
<title>46&#45;&gt;523</title>
<path fill="none" stroke="black" d="M2401.73,-87.7C2398.28,-79.37 2394.08,-69.23 2390.29,-60.08"/>
<polygon fill="black" stroke="black" points="2393.45,-58.57 2386.39,-50.67 2386.98,-61.25 2393.45,-58.57"/>
</g>
<!-- 533 -->
<g id="node62" class="node">
<title>533</title>
<ellipse fill="#b9d3ee" stroke="black" cx="2437.9" cy="-34" rx="23" ry="18"/>
<text text-anchor="middle" x="2437.9" y="-30.3" font-family="Times,serif" font-size="14.00">15</text>
</g>
<!-- 46&#45;&gt;533 -->
<g id="edge71" class="edge">
<title>46&#45;&gt;533</title>
<path fill="none" stroke="black" d="M2416.07,-87.7C2419.42,-79.61 2423.48,-69.81 2427.18,-60.87"/>
<polygon fill="black" stroke="black" points="2430.42,-62.2 2431.01,-51.62 2423.95,-59.52 2430.42,-62.2"/>
</g>
<!-- legend_5 -->
<g id="node73" class="node">
<title>legend_5</title>
<polygon fill="#b9d3ee" stroke="black" points="2803.4,-52 2582.4,-52 2582.4,-16 2803.4,-16 2803.4,-52"/>
<text text-anchor="middle" x="2692.9" y="-30.3" font-family="Times,serif" font-size="14.00">DT=6 ST=1 Similarity=0.55</text>
</g>
<!-- legend_4&#45;&gt;legend_5 -->
<g id="edge82" class="edge">
<title>legend_4&#45;&gt;legend_5</title>
<path fill="none" stroke="black" d="M2692.9,-87.7C2692.9,-79.98 2692.9,-70.71 2692.9,-62.11"/>
<polygon fill="black" stroke="black" points="2696.4,-62.1 2692.9,-52.1 2689.4,-62.1 2696.4,-62.1"/>
</g>
</g>
</svg>
