<?xml version="1.0" encoding="UTF-8" standalone="no"?>
<!DOCTYPE svg PUBLIC "-//W3C//DTD SVG 1.1//EN"
 "http://www.w3.org/Graphics/SVG/1.1/DTD/svg11.dtd">
<!-- Generated by graphviz version 2.43.0 (0)
 -->
<!-- Title: %3 Pages: 1 -->
<svg width="2537pt" height="497pt"
 viewBox="0.00 0.00 2536.90 497.00" xmlns="http://www.w3.org/2000/svg" xmlns:xlink="http://www.w3.org/1999/xlink">
<g id="graph0" class="graph" transform="scale(1 1) rotate(0) translate(4 493)">
<title>%3</title>
<polygon fill="white" stroke="transparent" points="-4,4 -4,-493 2532.9,-493 2532.9,4 -4,4"/>
<text text-anchor="middle" x="1264.45" y="-473.8" font-family="Times,serif" font-size="14.00">ConsTree</text>
<text text-anchor="middle" x="1264.45" y="-458.8" font-family="Times,serif" font-size="14.00">Tree Quality = 1</text>
<g id="clust1" class="cluster">
<title>cluster</title>
<polygon fill="none" stroke="black" points="2284.9,-8 2284.9,-443 2520.9,-443 2520.9,-8 2284.9,-8"/>
<text text-anchor="middle" x="2402.9" y="-427.8" font-family="Times,serif" font-size="14.00">Legend</text>
</g>
<!-- 00 -->
<g id="node1" class="node">
<title>00</title>
<ellipse fill="#b9d3ee" stroke="black" cx="845.9" cy="-394" rx="144" ry="18"/>
<text text-anchor="middle" x="845.9" y="-390.3" font-family="Times,serif" font-size="14.00">1007</text>
</g>
<!-- 10 -->
<g id="node4" class="node">
<title>10</title>
<ellipse fill="#b9d3ee" stroke="black" cx="845.9" cy="-322" rx="180" ry="18"/>
<text text-anchor="middle" x="845.9" y="-318.3" font-family="Times,serif" font-size="14.00">1216</text>
</g>
<!-- 00&#45;&gt;10 -->
<g id="edge1" class="edge">
<title>00&#45;&gt;10</title>
<path fill="none" stroke="black" d="M845.9,-375.7C845.9,-367.98 845.9,-358.71 845.9,-350.11"/>
<polygon fill="black" stroke="black" points="849.4,-350.1 845.9,-340.1 842.4,-350.1 849.4,-350.1"/>
</g>
<!-- 01 -->
<g id="node2" class="node">
<title>01</title>
<ellipse fill="#b9d3ee" stroke="black" cx="1151.9" cy="-394" rx="144" ry="18"/>
<text text-anchor="middle" x="1151.9" y="-390.3" font-family="Times,serif" font-size="14.00">993</text>
</g>
<!-- 01&#45;&gt;10 -->
<g id="edge2" class="edge">
<title>01&#45;&gt;10</title>
<path fill="none" stroke="black" d="M1085.88,-377.9C1038.44,-367.05 974.3,-352.37 924.26,-340.93"/>
<polygon fill="black" stroke="black" points="924.98,-337.5 914.45,-338.68 923.42,-344.32 924.98,-337.5"/>
</g>
<!-- 11 -->
<g id="node5" class="node">
<title>11</title>
<ellipse fill="#b9d3ee" stroke="black" cx="1151.9" cy="-322" rx="108" ry="18"/>
<text text-anchor="middle" x="1151.9" y="-318.3" font-family="Times,serif" font-size="14.00">784</text>
</g>
<!-- 01&#45;&gt;11 -->
<g id="edge3" class="edge">
<title>01&#45;&gt;11</title>
<path fill="none" stroke="black" d="M1151.9,-375.7C1151.9,-367.98 1151.9,-358.71 1151.9,-350.11"/>
<polygon fill="black" stroke="black" points="1155.4,-350.1 1151.9,-340.1 1148.4,-350.1 1155.4,-350.1"/>
</g>
<!-- legend_0 -->
<g id="node3" class="node">
<title>legend_0</title>
<polygon fill="#b9d3ee" stroke="black" points="2513.4,-412 2292.4,-412 2292.4,-376 2513.4,-376 2513.4,-412"/>
<text text-anchor="middle" x="2402.9" y="-390.3" font-family="Times,serif" font-size="14.00">DT=1 ST=1 Similarity=0.49</text>
</g>
<!-- legend_1 -->
<g id="node6" class="node">
<title>legend_1</title>
<polygon fill="#b9d3ee" stroke="black" points="2513.4,-340 2292.4,-340 2292.4,-304 2513.4,-304 2513.4,-340"/>
<text text-anchor="middle" x="2402.9" y="-318.3" font-family="Times,serif" font-size="14.00">DT=2 ST=1 Similarity=0.47</text>
</g>
<!-- legend_0&#45;&gt;legend_1 -->
<g id="edge4" class="edge">
<title>legend_0&#45;&gt;legend_1</title>
<path fill="none" stroke="black" d="M2402.9,-375.7C2402.9,-367.98 2402.9,-358.71 2402.9,-350.11"/>
<polygon fill="black" stroke="black" points="2406.4,-350.1 2402.9,-340.1 2399.4,-350.1 2406.4,-350.1"/>
</g>
<!-- 20 -->
<g id="node7" class="node">
<title>20</title>
<ellipse fill="#b9d3ee" stroke="black" cx="1061.9" cy="-250" rx="36" ry="18"/>
<text text-anchor="middle" x="1061.9" y="-246.3" font-family="Times,serif" font-size="14.00">427</text>
</g>
<!-- 10&#45;&gt;20 -->
<g id="edge5" class="edge">
<title>10&#45;&gt;20</title>
<path fill="none" stroke="black" d="M896.27,-304.68C934.9,-292.16 987.44,-275.13 1022.9,-263.64"/>
<polygon fill="black" stroke="black" points="1023.99,-266.97 1032.42,-260.55 1021.83,-260.31 1023.99,-266.97"/>
</g>
<!-- 21 -->
<g id="node8" class="node">
<title>21</title>
<ellipse fill="#b9d3ee" stroke="black" cx="845.9" cy="-250" rx="36" ry="18"/>
<text text-anchor="middle" x="845.9" y="-246.3" font-family="Times,serif" font-size="14.00">403</text>
</g>
<!-- 10&#45;&gt;21 -->
<g id="edge6" class="edge">
<title>10&#45;&gt;21</title>
<path fill="none" stroke="black" d="M845.9,-303.7C845.9,-295.98 845.9,-286.71 845.9,-278.11"/>
<polygon fill="black" stroke="black" points="849.4,-278.1 845.9,-268.1 842.4,-278.1 849.4,-278.1"/>
</g>
<!-- 22 -->
<g id="node9" class="node">
<title>22</title>
<ellipse fill="#b9d3ee" stroke="black" cx="655.9" cy="-250" rx="108" ry="18"/>
<text text-anchor="middle" x="655.9" y="-246.3" font-family="Times,serif" font-size="14.00">764</text>
</g>
<!-- 10&#45;&gt;22 -->
<g id="edge8" class="edge">
<title>10&#45;&gt;22</title>
<path fill="none" stroke="black" d="M800.87,-304.41C772.97,-294.13 737.03,-280.89 707.91,-270.16"/>
<polygon fill="black" stroke="black" points="708.92,-266.8 698.32,-266.63 706.5,-273.37 708.92,-266.8"/>
</g>
<!-- 23 -->
<g id="node10" class="node">
<title>23</title>
<ellipse fill="#b9d3ee" stroke="black" cx="1151.9" cy="-250" rx="36" ry="18"/>
<text text-anchor="middle" x="1151.9" y="-246.3" font-family="Times,serif" font-size="14.00">406</text>
</g>
<!-- 10&#45;&gt;23 -->
<g id="edge9" class="edge">
<title>10&#45;&gt;23</title>
<path fill="none" stroke="black" d="M936.15,-306.37C986.82,-297.23 1050.92,-284.14 1106.9,-268 1109.52,-267.25 1112.2,-266.41 1114.88,-265.52"/>
<polygon fill="black" stroke="black" points="1116.25,-268.75 1124.53,-262.14 1113.93,-262.14 1116.25,-268.75"/>
</g>
<!-- 11&#45;&gt;21 -->
<g id="edge7" class="edge">
<title>11&#45;&gt;21</title>
<path fill="none" stroke="black" d="M1091.08,-307.09C1030.95,-293.33 940.53,-272.65 887.94,-260.62"/>
<polygon fill="black" stroke="black" points="888.48,-257.15 877.95,-258.33 886.92,-263.97 888.48,-257.15"/>
</g>
<!-- 11&#45;&gt;23 -->
<g id="edge10" class="edge">
<title>11&#45;&gt;23</title>
<path fill="none" stroke="black" d="M1151.9,-303.7C1151.9,-295.98 1151.9,-286.71 1151.9,-278.11"/>
<polygon fill="black" stroke="black" points="1155.4,-278.1 1151.9,-268.1 1148.4,-278.1 1155.4,-278.1"/>
</g>
<!-- legend_2 -->
<g id="node11" class="node">
<title>legend_2</title>
<polygon fill="#b9d3ee" stroke="black" points="2513.4,-268 2292.4,-268 2292.4,-232 2513.4,-232 2513.4,-268"/>
<text text-anchor="middle" x="2402.9" y="-246.3" font-family="Times,serif" font-size="14.00">DT=3 ST=1 Similarity=0.63</text>
</g>
<!-- legend_1&#45;&gt;legend_2 -->
<g id="edge11" class="edge">
<title>legend_1&#45;&gt;legend_2</title>
<path fill="none" stroke="black" d="M2402.9,-303.7C2402.9,-295.98 2402.9,-286.71 2402.9,-278.11"/>
<polygon fill="black" stroke="black" points="2406.4,-278.1 2402.9,-268.1 2399.4,-278.1 2406.4,-278.1"/>
</g>
<!-- 30 -->
<g id="node12" class="node">
<title>30</title>
<ellipse fill="#b9d3ee" stroke="black" cx="1147.9" cy="-178" rx="36" ry="18"/>
<text text-anchor="middle" x="1147.9" y="-174.3" font-family="Times,serif" font-size="14.00">396</text>
</g>
<!-- 20&#45;&gt;30 -->
<g id="edge12" class="edge">
<title>20&#45;&gt;30</title>
<path fill="none" stroke="black" d="M1080.14,-234.15C1092.22,-224.32 1108.27,-211.26 1121.71,-200.32"/>
<polygon fill="black" stroke="black" points="1124.14,-202.85 1129.69,-193.82 1119.72,-197.42 1124.14,-202.85"/>
</g>
<!-- 31 -->
<g id="node13" class="node">
<title>31</title>
<ellipse fill="#b9d3ee" stroke="black" cx="1064.9" cy="-178" rx="23" ry="18"/>
<text text-anchor="middle" x="1064.9" y="-174.3" font-family="Times,serif" font-size="14.00">39</text>
</g>
<!-- 20&#45;&gt;31 -->
<g id="edge14" class="edge">
<title>20&#45;&gt;31</title>
<path fill="none" stroke="black" d="M1062.64,-231.7C1062.97,-223.98 1063.37,-214.71 1063.74,-206.11"/>
<polygon fill="black" stroke="black" points="1067.23,-206.25 1064.17,-196.1 1060.24,-205.95 1067.23,-206.25"/>
</g>
<!-- 32 -->
<g id="node14" class="node">
<title>32</title>
<ellipse fill="#b9d3ee" stroke="black" cx="600.9" cy="-178" rx="108" ry="18"/>
<text text-anchor="middle" x="600.9" y="-174.3" font-family="Times,serif" font-size="14.00">769</text>
</g>
<!-- 21&#45;&gt;32 -->
<g id="edge15" class="edge">
<title>21&#45;&gt;32</title>
<path fill="none" stroke="black" d="M815.36,-240.28C777.32,-229.41 711.39,-210.57 662.65,-196.64"/>
<polygon fill="black" stroke="black" points="663.41,-193.22 652.83,-193.84 661.49,-199.95 663.41,-193.22"/>
</g>
<!-- 34 -->
<g id="node16" class="node">
<title>34</title>
<ellipse fill="#b9d3ee" stroke="black" cx="845.9" cy="-178" rx="36" ry="18"/>
<text text-anchor="middle" x="845.9" y="-174.3" font-family="Times,serif" font-size="14.00">398</text>
</g>
<!-- 21&#45;&gt;34 -->
<g id="edge18" class="edge">
<title>21&#45;&gt;34</title>
<path fill="none" stroke="black" d="M845.9,-231.7C845.9,-223.98 845.9,-214.71 845.9,-206.11"/>
<polygon fill="black" stroke="black" points="849.4,-206.1 845.9,-196.1 842.4,-206.1 849.4,-206.1"/>
</g>
<!-- 22&#45;&gt;32 -->
<g id="edge16" class="edge">
<title>22&#45;&gt;32</title>
<path fill="none" stroke="black" d="M642.58,-232.05C636.06,-223.75 628.07,-213.58 620.84,-204.38"/>
<polygon fill="black" stroke="black" points="623.4,-201.98 614.47,-196.28 617.9,-206.3 623.4,-201.98"/>
</g>
<!-- 23&#45;&gt;30 -->
<g id="edge13" class="edge">
<title>23&#45;&gt;30</title>
<path fill="none" stroke="black" d="M1150.91,-231.7C1150.47,-223.98 1149.94,-214.71 1149.45,-206.11"/>
<polygon fill="black" stroke="black" points="1152.94,-205.89 1148.88,-196.1 1145.95,-206.29 1152.94,-205.89"/>
</g>
<!-- 33 -->
<g id="node15" class="node">
<title>33</title>
<ellipse fill="#b9d3ee" stroke="black" cx="1587.9" cy="-178" rx="36" ry="18"/>
<text text-anchor="middle" x="1587.9" y="-174.3" font-family="Times,serif" font-size="14.00">398</text>
</g>
<!-- 23&#45;&gt;33 -->
<g id="edge17" class="edge">
<title>23&#45;&gt;33</title>
<path fill="none" stroke="black" d="M1185.75,-243.57C1263.9,-231.02 1456.88,-200.03 1543.99,-186.05"/>
<polygon fill="black" stroke="black" points="1544.75,-189.47 1554.07,-184.43 1543.64,-182.56 1544.75,-189.47"/>
</g>
<!-- legend_3 -->
<g id="node17" class="node">
<title>legend_3</title>
<polygon fill="#b9d3ee" stroke="black" points="2513.4,-196 2292.4,-196 2292.4,-160 2513.4,-160 2513.4,-196"/>
<text text-anchor="middle" x="2402.9" y="-174.3" font-family="Times,serif" font-size="14.00">DT=4 ST=1 Similarity=0.63</text>
</g>
<!-- legend_2&#45;&gt;legend_3 -->
<g id="edge19" class="edge">
<title>legend_2&#45;&gt;legend_3</title>
<path fill="none" stroke="black" d="M2402.9,-231.7C2402.9,-223.98 2402.9,-214.71 2402.9,-206.11"/>
<polygon fill="black" stroke="black" points="2406.4,-206.1 2402.9,-196.1 2399.4,-206.1 2406.4,-206.1"/>
</g>
<!-- 41 -->
<g id="node19" class="node">
<title>41</title>
<polygon fill="darkseagreen" stroke="black" points="1609.9,-124 1565.9,-124 1565.9,-88 1609.9,-88 1609.9,-124"/>
<text text-anchor="middle" x="1587.9" y="-102.3" font-family="Times,serif" font-size="14.00">179</text>
</g>
<!-- 30&#45;&gt;41 -->
<g id="edge21" class="edge">
<title>30&#45;&gt;41</title>
<path fill="none" stroke="black" d="M1181.69,-171.62C1264.12,-158.51 1474.64,-125.02 1555.55,-112.15"/>
<polygon fill="black" stroke="black" points="1556.31,-115.57 1565.64,-110.54 1555.21,-108.66 1556.31,-115.57"/>
</g>
<!-- 42 -->
<g id="node20" class="node">
<title>42</title>
<polygon fill="darkseagreen" stroke="black" points="1142.9,-124 1070.9,-124 1070.9,-88 1142.9,-88 1142.9,-124"/>
<text text-anchor="middle" x="1106.9" y="-102.3" font-family="Times,serif" font-size="14.00">258</text>
</g>
<!-- 30&#45;&gt;42 -->
<g id="edge23" class="edge">
<title>30&#45;&gt;42</title>
<path fill="none" stroke="black" d="M1138.18,-160.41C1133.42,-152.28 1127.58,-142.31 1122.24,-133.18"/>
<polygon fill="black" stroke="black" points="1125.19,-131.31 1117.12,-124.45 1119.15,-134.84 1125.19,-131.31"/>
</g>
<!-- 31&#45;&gt;42 -->
<g id="edge24" class="edge">
<title>31&#45;&gt;42</title>
<path fill="none" stroke="black" d="M1074.22,-161.46C1079.2,-153.16 1085.47,-142.72 1091.18,-133.2"/>
<polygon fill="black" stroke="black" points="1094.28,-134.84 1096.42,-124.46 1088.28,-131.24 1094.28,-134.84"/>
</g>
<!-- 40 -->
<g id="node18" class="node">
<title>40</title>
<polygon fill="darkseagreen" stroke="black" points="93.9,-124 67.9,-124 67.9,-88 93.9,-88 93.9,-124"/>
<text text-anchor="middle" x="80.9" y="-102.3" font-family="Times,serif" font-size="14.00">1</text>
</g>
<!-- 32&#45;&gt;40 -->
<g id="edge20" class="edge">
<title>32&#45;&gt;40</title>
<path fill="none" stroke="black" d="M510.64,-168.03C422.47,-158.79 284.58,-143.07 165.9,-124 144.93,-120.63 121.26,-115.81 104.23,-112.16"/>
<polygon fill="black" stroke="black" points="104.61,-108.67 94.09,-109.96 103.12,-115.51 104.61,-108.67"/>
</g>
<!-- 43 -->
<g id="node21" class="node">
<title>43</title>
<polygon fill="darkseagreen" stroke="black" points="636.9,-124 564.9,-124 564.9,-88 636.9,-88 636.9,-124"/>
<text text-anchor="middle" x="600.9" y="-102.3" font-family="Times,serif" font-size="14.00">414</text>
</g>
<!-- 32&#45;&gt;43 -->
<g id="edge25" class="edge">
<title>32&#45;&gt;43</title>
<path fill="none" stroke="black" d="M600.9,-159.7C600.9,-151.98 600.9,-142.71 600.9,-134.11"/>
<polygon fill="black" stroke="black" points="604.4,-134.1 600.9,-124.1 597.4,-134.1 604.4,-134.1"/>
</g>
<!-- 44 -->
<g id="node22" class="node">
<title>44</title>
<polygon fill="darkseagreen" stroke="black" points="246.9,-124 174.9,-124 174.9,-88 246.9,-88 246.9,-124"/>
<text text-anchor="middle" x="210.9" y="-102.3" font-family="Times,serif" font-size="14.00">362</text>
</g>
<!-- 32&#45;&gt;44 -->
<g id="edge27" class="edge">
<title>32&#45;&gt;44</title>
<path fill="none" stroke="black" d="M530.27,-164.32C450.93,-150.08 324.45,-127.38 256.92,-115.26"/>
<polygon fill="black" stroke="black" points="257.47,-111.8 247,-113.48 256.23,-118.69 257.47,-111.8"/>
</g>
<!-- 33&#45;&gt;41 -->
<g id="edge22" class="edge">
<title>33&#45;&gt;41</title>
<path fill="none" stroke="black" d="M1587.9,-159.7C1587.9,-151.98 1587.9,-142.71 1587.9,-134.11"/>
<polygon fill="black" stroke="black" points="1591.4,-134.1 1587.9,-124.1 1584.4,-134.1 1591.4,-134.1"/>
</g>
<!-- 45 -->
<g id="node23" class="node">
<title>45</title>
<polygon fill="darkseagreen" stroke="black" points="2021.9,-124 1949.9,-124 1949.9,-88 2021.9,-88 2021.9,-124"/>
<text text-anchor="middle" x="1985.9" y="-102.3" font-family="Times,serif" font-size="14.00">396</text>
</g>
<!-- 33&#45;&gt;45 -->
<g id="edge28" class="edge">
<title>33&#45;&gt;45</title>
<path fill="none" stroke="black" d="M1621.49,-171.09C1692.66,-158.57 1858.73,-129.37 1939.77,-115.11"/>
<polygon fill="black" stroke="black" points="1940.44,-118.55 1949.69,-113.37 1939.23,-111.65 1940.44,-118.55"/>
</g>
<!-- 34&#45;&gt;43 -->
<g id="edge26" class="edge">
<title>34&#45;&gt;43</title>
<path fill="none" stroke="black" d="M815.36,-168.28C773,-156.17 696.06,-134.19 646.77,-120.11"/>
<polygon fill="black" stroke="black" points="647.58,-116.7 637,-117.31 645.65,-123.43 647.58,-116.7"/>
</g>
<!-- 46 -->
<g id="node24" class="node">
<title>46</title>
<polygon fill="darkseagreen" stroke="black" points="1383.9,-124 1311.9,-124 1311.9,-88 1383.9,-88 1383.9,-124"/>
<text text-anchor="middle" x="1347.9" y="-102.3" font-family="Times,serif" font-size="14.00">390</text>
</g>
<!-- 34&#45;&gt;46 -->
<g id="edge29" class="edge">
<title>34&#45;&gt;46</title>
<path fill="none" stroke="black" d="M880.01,-172.24C967.82,-160 1201.75,-127.38 1301.64,-113.45"/>
<polygon fill="black" stroke="black" points="1302.31,-116.89 1311.73,-112.04 1301.34,-109.96 1302.31,-116.89"/>
</g>
<!-- legend_4 -->
<g id="node25" class="node">
<title>legend_4</title>
<polygon fill="darkseagreen" stroke="black" points="2513.4,-124 2292.4,-124 2292.4,-88 2513.4,-88 2513.4,-124"/>
<text text-anchor="middle" x="2402.9" y="-102.3" font-family="Times,serif" font-size="14.00">DT=5 ST=1 Similarity=0.63</text>
</g>
<!-- legend_3&#45;&gt;legend_4 -->
<g id="edge30" class="edge">
<title>legend_3&#45;&gt;legend_4</title>
<path fill="none" stroke="black" d="M2402.9,-159.7C2402.9,-151.98 2402.9,-142.71 2402.9,-134.11"/>
<polygon fill="black" stroke="black" points="2406.4,-134.1 2402.9,-124.1 2399.4,-134.1 2406.4,-134.1"/>
</g>
<!-- 510 -->
<g id="node36" class="node">
<title>510</title>
<ellipse fill="#b9d3ee" stroke="black" cx="16.9" cy="-34" rx="16.8" ry="18"/>
<text text-anchor="middle" x="16.9" y="-30.3" font-family="Times,serif" font-size="14.00">1</text>
</g>
<!-- 40&#45;&gt;510 -->
<g id="edge41" class="edge">
<title>40&#45;&gt;510</title>
<path fill="none" stroke="black" d="M67.64,-90.5C58.33,-80.31 45.75,-66.56 35.45,-55.29"/>
<polygon fill="black" stroke="black" points="37.76,-52.63 28.43,-47.61 32.59,-57.35 37.76,-52.63"/>
</g>
<!-- 54 -->
<g id="node30" class="node">
<title>54</title>
<ellipse fill="#b9d3ee" stroke="black" cx="1509.9" cy="-34" rx="16.8" ry="18"/>
<text text-anchor="middle" x="1509.9" y="-30.3" font-family="Times,serif" font-size="14.00">1</text>
</g>
<!-- 41&#45;&gt;54 -->
<g id="edge35" class="edge">
<title>41&#45;&gt;54</title>
<path fill="none" stroke="black" d="M1568.62,-87.7C1556.89,-77.17 1541.93,-63.75 1530.05,-53.08"/>
<polygon fill="black" stroke="black" points="1532.17,-50.28 1522.39,-46.21 1527.49,-55.49 1532.17,-50.28"/>
</g>
<!-- 58 -->
<g id="node34" class="node">
<title>58</title>
<ellipse fill="#b9d3ee" stroke="black" cx="1561.9" cy="-34" rx="16.8" ry="18"/>
<text text-anchor="middle" x="1561.9" y="-30.3" font-family="Times,serif" font-size="14.00">1</text>
</g>
<!-- 41&#45;&gt;58 -->
<g id="edge39" class="edge">
<title>41&#45;&gt;58</title>
<path fill="none" stroke="black" d="M1581.47,-87.7C1578.46,-79.58 1574.8,-69.74 1571.47,-60.76"/>
<polygon fill="black" stroke="black" points="1574.66,-59.3 1567.9,-51.14 1568.1,-61.74 1574.66,-59.3"/>
</g>
<!-- 523 -->
<g id="node49" class="node">
<title>523</title>
<ellipse fill="#b9d3ee" stroke="black" cx="1613.9" cy="-34" rx="16.8" ry="18"/>
<text text-anchor="middle" x="1613.9" y="-30.3" font-family="Times,serif" font-size="14.00">8</text>
</g>
<!-- 41&#45;&gt;523 -->
<g id="edge54" class="edge">
<title>41&#45;&gt;523</title>
<path fill="none" stroke="black" d="M1594.33,-87.7C1597.34,-79.58 1601,-69.74 1604.33,-60.76"/>
<polygon fill="black" stroke="black" points="1607.7,-61.74 1607.9,-51.14 1601.14,-59.3 1607.7,-61.74"/>
</g>
<!-- 531 -->
<g id="node57" class="node">
<title>531</title>
<ellipse fill="#b9d3ee" stroke="black" cx="1671.9" cy="-34" rx="23" ry="18"/>
<text text-anchor="middle" x="1671.9" y="-30.3" font-family="Times,serif" font-size="14.00">69</text>
</g>
<!-- 41&#45;&gt;531 -->
<g id="edge62" class="edge">
<title>41&#45;&gt;531</title>
<path fill="none" stroke="black" d="M1608.66,-87.7C1620.86,-77.53 1636.29,-64.67 1648.86,-54.2"/>
<polygon fill="black" stroke="black" points="1651.2,-56.8 1656.65,-47.71 1646.72,-51.42 1651.2,-56.8"/>
</g>
<!-- 532 -->
<g id="node58" class="node">
<title>532</title>
<ellipse fill="#b9d3ee" stroke="black" cx="1740.9" cy="-34" rx="28.7" ry="18"/>
<text text-anchor="middle" x="1740.9" y="-30.3" font-family="Times,serif" font-size="14.00">100</text>
</g>
<!-- 41&#45;&gt;532 -->
<g id="edge63" class="edge">
<title>41&#45;&gt;532</title>
<path fill="none" stroke="black" d="M1610.14,-94.85C1633.5,-84.2 1671.29,-66.94 1703.9,-52 1705.49,-51.27 1707.12,-50.52 1708.76,-49.77"/>
<polygon fill="black" stroke="black" points="1710.58,-52.79 1718.2,-45.44 1707.66,-46.43 1710.58,-52.79"/>
</g>
<!-- 51 -->
<g id="node27" class="node">
<title>51</title>
<ellipse fill="#b9d3ee" stroke="black" cx="1137.9" cy="-34" rx="16.8" ry="18"/>
<text text-anchor="middle" x="1137.9" y="-30.3" font-family="Times,serif" font-size="14.00">1</text>
</g>
<!-- 42&#45;&gt;51 -->
<g id="edge32" class="edge">
<title>42&#45;&gt;51</title>
<path fill="none" stroke="black" d="M1114.56,-87.7C1118.25,-79.37 1122.74,-69.23 1126.79,-60.08"/>
<polygon fill="black" stroke="black" points="1130.11,-61.23 1130.96,-50.67 1123.71,-58.4 1130.11,-61.23"/>
</g>
<!-- 512 -->
<g id="node38" class="node">
<title>512</title>
<ellipse fill="#b9d3ee" stroke="black" cx="1189.9" cy="-34" rx="16.8" ry="18"/>
<text text-anchor="middle" x="1189.9" y="-30.3" font-family="Times,serif" font-size="14.00">2</text>
</g>
<!-- 42&#45;&gt;512 -->
<g id="edge43" class="edge">
<title>42&#45;&gt;512</title>
<path fill="none" stroke="black" d="M1127.42,-87.7C1140.17,-76.94 1156.52,-63.15 1169.3,-52.37"/>
<polygon fill="black" stroke="black" points="1171.72,-54.91 1177.1,-45.79 1167.2,-49.56 1171.72,-54.91"/>
</g>
<!-- 513 -->
<g id="node39" class="node">
<title>513</title>
<ellipse fill="#b9d3ee" stroke="black" cx="1241.9" cy="-34" rx="16.8" ry="18"/>
<text text-anchor="middle" x="1241.9" y="-30.3" font-family="Times,serif" font-size="14.00">2</text>
</g>
<!-- 42&#45;&gt;513 -->
<g id="edge44" class="edge">
<title>42&#45;&gt;513</title>
<path fill="none" stroke="black" d="M1143.33,-88.7C1164.79,-78.74 1192.29,-65.39 1215.9,-52 1217.03,-51.36 1218.19,-50.68 1219.34,-49.99"/>
<polygon fill="black" stroke="black" points="1221.46,-52.79 1228.07,-44.51 1217.74,-46.86 1221.46,-52.79"/>
</g>
<!-- 522 -->
<g id="node48" class="node">
<title>522</title>
<ellipse fill="#b9d3ee" stroke="black" cx="947.9" cy="-34" rx="16.8" ry="18"/>
<text text-anchor="middle" x="947.9" y="-30.3" font-family="Times,serif" font-size="14.00">7</text>
</g>
<!-- 42&#45;&gt;522 -->
<g id="edge53" class="edge">
<title>42&#45;&gt;522</title>
<path fill="none" stroke="black" d="M1070.76,-92.82C1043.51,-83.11 1005.55,-68.44 973.9,-52 972.74,-51.4 971.57,-50.76 970.4,-50.09"/>
<polygon fill="black" stroke="black" points="971.98,-46.96 961.62,-44.7 968.31,-52.92 971.98,-46.96"/>
</g>
<!-- 530 -->
<g id="node56" class="node">
<title>530</title>
<ellipse fill="#b9d3ee" stroke="black" cx="1005.9" cy="-34" rx="23" ry="18"/>
<text text-anchor="middle" x="1005.9" y="-30.3" font-family="Times,serif" font-size="14.00">27</text>
</g>
<!-- 42&#45;&gt;530 -->
<g id="edge61" class="edge">
<title>42&#45;&gt;530</title>
<path fill="none" stroke="black" d="M1082.19,-87.88C1066.67,-77.12 1046.7,-63.28 1031.08,-52.45"/>
<polygon fill="black" stroke="black" points="1032.67,-49.3 1022.46,-46.48 1028.68,-55.05 1032.67,-49.3"/>
</g>
<!-- 534 -->
<g id="node60" class="node">
<title>534</title>
<ellipse fill="#b9d3ee" stroke="black" cx="1074.9" cy="-34" rx="28.7" ry="18"/>
<text text-anchor="middle" x="1074.9" y="-30.3" font-family="Times,serif" font-size="14.00">219</text>
</g>
<!-- 42&#45;&gt;534 -->
<g id="edge65" class="edge">
<title>42&#45;&gt;534</title>
<path fill="none" stroke="black" d="M1098.99,-87.7C1095.29,-79.61 1090.81,-69.81 1086.72,-60.87"/>
<polygon fill="black" stroke="black" points="1089.84,-59.26 1082.5,-51.62 1083.47,-62.17 1089.84,-59.26"/>
</g>
<!-- 50 -->
<g id="node26" class="node">
<title>50</title>
<ellipse fill="#b9d3ee" stroke="black" cx="895.9" cy="-34" rx="16.8" ry="18"/>
<text text-anchor="middle" x="895.9" y="-30.3" font-family="Times,serif" font-size="14.00">1</text>
</g>
<!-- 43&#45;&gt;50 -->
<g id="edge31" class="edge">
<title>43&#45;&gt;50</title>
<path fill="none" stroke="black" d="M636.97,-102.31C689.8,-97.39 790.55,-84.32 869.9,-52 871.11,-51.51 872.32,-50.96 873.52,-50.36"/>
<polygon fill="black" stroke="black" points="875.51,-53.26 882.41,-45.22 872,-47.2 875.51,-53.26"/>
</g>
<!-- 514 -->
<g id="node40" class="node">
<title>514</title>
<ellipse fill="#b9d3ee" stroke="black" cx="314.9" cy="-34" rx="16.8" ry="18"/>
<text text-anchor="middle" x="314.9" y="-30.3" font-family="Times,serif" font-size="14.00">2</text>
</g>
<!-- 43&#45;&gt;514 -->
<g id="edge45" class="edge">
<title>43&#45;&gt;514</title>
<path fill="none" stroke="black" d="M564.75,-101.97C513.35,-96.7 416.95,-83.27 340.9,-52 339.69,-51.5 338.48,-50.95 337.28,-50.35"/>
<polygon fill="black" stroke="black" points="338.8,-47.19 328.39,-45.2 335.29,-53.24 338.8,-47.19"/>
</g>
<!-- 515 -->
<g id="node41" class="node">
<title>515</title>
<ellipse fill="#b9d3ee" stroke="black" cx="366.9" cy="-34" rx="16.8" ry="18"/>
<text text-anchor="middle" x="366.9" y="-30.3" font-family="Times,serif" font-size="14.00">2</text>
</g>
<!-- 43&#45;&gt;515 -->
<g id="edge46" class="edge">
<title>43&#45;&gt;515</title>
<path fill="none" stroke="black" d="M564.76,-99.52C522.3,-92.24 450.38,-77.28 392.9,-52 391.7,-51.47 390.5,-50.9 389.31,-50.28"/>
<polygon fill="black" stroke="black" points="390.84,-47.12 380.45,-45.06 387.29,-53.15 390.84,-47.12"/>
</g>
<!-- 520 -->
<g id="node46" class="node">
<title>520</title>
<ellipse fill="#b9d3ee" stroke="black" cx="418.9" cy="-34" rx="16.8" ry="18"/>
<text text-anchor="middle" x="418.9" y="-30.3" font-family="Times,serif" font-size="14.00">3</text>
</g>
<!-- 43&#45;&gt;520 -->
<g id="edge51" class="edge">
<title>43&#45;&gt;520</title>
<path fill="none" stroke="black" d="M564.88,-95.56C532.59,-86.45 484.37,-71.23 444.9,-52 443.73,-51.43 442.54,-50.81 441.36,-50.17"/>
<polygon fill="black" stroke="black" points="442.92,-47.02 432.55,-44.85 439.3,-53.01 442.92,-47.02"/>
</g>
<!-- 521 -->
<g id="node47" class="node">
<title>521</title>
<ellipse fill="#b9d3ee" stroke="black" cx="470.9" cy="-34" rx="16.8" ry="18"/>
<text text-anchor="middle" x="470.9" y="-30.3" font-family="Times,serif" font-size="14.00">5</text>
</g>
<!-- 43&#45;&gt;521 -->
<g id="edge52" class="edge">
<title>43&#45;&gt;521</title>
<path fill="none" stroke="black" d="M564.77,-87.78C544.53,-77.84 518.99,-64.8 496.9,-52 495.77,-51.35 494.62,-50.66 493.47,-49.96"/>
<polygon fill="black" stroke="black" points="495.08,-46.84 484.76,-44.46 491.34,-52.76 495.08,-46.84"/>
</g>
<!-- 524 -->
<g id="node50" class="node">
<title>524</title>
<ellipse fill="#b9d3ee" stroke="black" cx="522.9" cy="-34" rx="16.8" ry="18"/>
<text text-anchor="middle" x="522.9" y="-30.3" font-family="Times,serif" font-size="14.00">8</text>
</g>
<!-- 43&#45;&gt;524 -->
<g id="edge55" class="edge">
<title>43&#45;&gt;524</title>
<path fill="none" stroke="black" d="M581.62,-87.7C569.89,-77.17 554.93,-63.75 543.05,-53.08"/>
<polygon fill="black" stroke="black" points="545.17,-50.28 535.39,-46.21 540.49,-55.49 545.17,-50.28"/>
</g>
<!-- 525 -->
<g id="node51" class="node">
<title>525</title>
<ellipse fill="#b9d3ee" stroke="black" cx="574.9" cy="-34" rx="16.8" ry="18"/>
<text text-anchor="middle" x="574.9" y="-30.3" font-family="Times,serif" font-size="14.00">8</text>
</g>
<!-- 43&#45;&gt;525 -->
<g id="edge56" class="edge">
<title>43&#45;&gt;525</title>
<path fill="none" stroke="black" d="M594.47,-87.7C591.46,-79.58 587.8,-69.74 584.47,-60.76"/>
<polygon fill="black" stroke="black" points="587.66,-59.3 580.9,-51.14 581.1,-61.74 587.66,-59.3"/>
</g>
<!-- 527 -->
<g id="node53" class="node">
<title>527</title>
<ellipse fill="#b9d3ee" stroke="black" cx="626.9" cy="-34" rx="16.8" ry="18"/>
<text text-anchor="middle" x="626.9" y="-30.3" font-family="Times,serif" font-size="14.00">9</text>
</g>
<!-- 43&#45;&gt;527 -->
<g id="edge58" class="edge">
<title>43&#45;&gt;527</title>
<path fill="none" stroke="black" d="M607.33,-87.7C610.34,-79.58 614,-69.74 617.33,-60.76"/>
<polygon fill="black" stroke="black" points="620.7,-61.74 620.9,-51.14 614.14,-59.3 620.7,-61.74"/>
</g>
<!-- 528 -->
<g id="node54" class="node">
<title>528</title>
<ellipse fill="#b9d3ee" stroke="black" cx="684.9" cy="-34" rx="23" ry="18"/>
<text text-anchor="middle" x="684.9" y="-30.3" font-family="Times,serif" font-size="14.00">15</text>
</g>
<!-- 43&#45;&gt;528 -->
<g id="edge59" class="edge">
<title>43&#45;&gt;528</title>
<path fill="none" stroke="black" d="M621.66,-87.7C633.86,-77.53 649.29,-64.67 661.86,-54.2"/>
<polygon fill="black" stroke="black" points="664.2,-56.8 669.65,-47.71 659.72,-51.42 664.2,-56.8"/>
</g>
<!-- 529 -->
<g id="node55" class="node">
<title>529</title>
<ellipse fill="#b9d3ee" stroke="black" cx="747.9" cy="-34" rx="23" ry="18"/>
<text text-anchor="middle" x="747.9" y="-30.3" font-family="Times,serif" font-size="14.00">19</text>
</g>
<!-- 43&#45;&gt;529 -->
<g id="edge60" class="edge">
<title>43&#45;&gt;529</title>
<path fill="none" stroke="black" d="M637.01,-89.31C660.07,-79.1 690.48,-65.26 716.9,-52 718.24,-51.33 719.6,-50.63 720.97,-49.92"/>
<polygon fill="black" stroke="black" points="722.81,-52.91 729.98,-45.11 719.51,-46.73 722.81,-52.91"/>
</g>
<!-- 536 -->
<g id="node62" class="node">
<title>536</title>
<ellipse fill="#b9d3ee" stroke="black" cx="824.9" cy="-34" rx="36" ry="18"/>
<text text-anchor="middle" x="824.9" y="-30.3" font-family="Times,serif" font-size="14.00">342</text>
</g>
<!-- 43&#45;&gt;536 -->
<g id="edge67" class="edge">
<title>43&#45;&gt;536</title>
<path fill="none" stroke="black" d="M637.14,-95.11C673.47,-85 730.9,-68.48 779.9,-52 782.48,-51.13 785.14,-50.21 787.8,-49.26"/>
<polygon fill="black" stroke="black" points="789.21,-52.47 797.41,-45.75 786.81,-45.89 789.21,-52.47"/>
</g>
<!-- 52 -->
<g id="node28" class="node">
<title>52</title>
<ellipse fill="#b9d3ee" stroke="black" cx="158.9" cy="-34" rx="16.8" ry="18"/>
<text text-anchor="middle" x="158.9" y="-30.3" font-family="Times,serif" font-size="14.00">1</text>
</g>
<!-- 44&#45;&gt;52 -->
<g id="edge33" class="edge">
<title>44&#45;&gt;52</title>
<path fill="none" stroke="black" d="M198.04,-87.7C191.16,-78.43 182.6,-66.91 175.25,-57.01"/>
<polygon fill="black" stroke="black" points="177.94,-54.76 169.17,-48.82 172.32,-58.94 177.94,-54.76"/>
</g>
<!-- 59 -->
<g id="node35" class="node">
<title>59</title>
<ellipse fill="#b9d3ee" stroke="black" cx="210.9" cy="-34" rx="16.8" ry="18"/>
<text text-anchor="middle" x="210.9" y="-30.3" font-family="Times,serif" font-size="14.00">1</text>
</g>
<!-- 44&#45;&gt;59 -->
<g id="edge40" class="edge">
<title>44&#45;&gt;59</title>
<path fill="none" stroke="black" d="M210.9,-87.7C210.9,-79.98 210.9,-70.71 210.9,-62.11"/>
<polygon fill="black" stroke="black" points="214.4,-62.1 210.9,-52.1 207.4,-62.1 214.4,-62.1"/>
</g>
<!-- 516 -->
<g id="node42" class="node">
<title>516</title>
<ellipse fill="#b9d3ee" stroke="black" cx="262.9" cy="-34" rx="16.8" ry="18"/>
<text text-anchor="middle" x="262.9" y="-30.3" font-family="Times,serif" font-size="14.00">2</text>
</g>
<!-- 44&#45;&gt;516 -->
<g id="edge47" class="edge">
<title>44&#45;&gt;516</title>
<path fill="none" stroke="black" d="M223.75,-87.7C230.64,-78.43 239.19,-66.91 246.55,-57.01"/>
<polygon fill="black" stroke="black" points="249.48,-58.94 252.63,-48.82 243.86,-54.76 249.48,-58.94"/>
</g>
<!-- 537 -->
<g id="node63" class="node">
<title>537</title>
<ellipse fill="#b9d3ee" stroke="black" cx="87.9" cy="-34" rx="36" ry="18"/>
<text text-anchor="middle" x="87.9" y="-30.3" font-family="Times,serif" font-size="14.00">358</text>
</g>
<!-- 44&#45;&gt;537 -->
<g id="edge68" class="edge">
<title>44&#45;&gt;537</title>
<path fill="none" stroke="black" d="M180.81,-87.88C162.23,-77.3 138.42,-63.75 119.56,-53.02"/>
<polygon fill="black" stroke="black" points="121.16,-49.9 110.74,-48 117.7,-55.99 121.16,-49.9"/>
</g>
<!-- 53 -->
<g id="node29" class="node">
<title>53</title>
<ellipse fill="#b9d3ee" stroke="black" cx="2153.9" cy="-34" rx="16.8" ry="18"/>
<text text-anchor="middle" x="2153.9" y="-30.3" font-family="Times,serif" font-size="14.00">1</text>
</g>
<!-- 45&#45;&gt;53 -->
<g id="edge34" class="edge">
<title>45&#45;&gt;53</title>
<path fill="none" stroke="black" d="M2022.13,-93.95C2051.4,-84.44 2093.26,-69.51 2127.9,-52 2129.06,-51.41 2130.24,-50.78 2131.41,-50.13"/>
<polygon fill="black" stroke="black" points="2133.49,-52.96 2140.21,-44.76 2129.85,-46.98 2133.49,-52.96"/>
</g>
<!-- 55 -->
<g id="node31" class="node">
<title>55</title>
<ellipse fill="#b9d3ee" stroke="black" cx="2205.9" cy="-34" rx="16.8" ry="18"/>
<text text-anchor="middle" x="2205.9" y="-30.3" font-family="Times,serif" font-size="14.00">1</text>
</g>
<!-- 45&#45;&gt;55 -->
<g id="edge36" class="edge">
<title>45&#45;&gt;55</title>
<path fill="none" stroke="black" d="M2022.1,-98.63C2061.96,-90.83 2127.36,-75.64 2179.9,-52 2181.09,-51.46 2182.28,-50.88 2183.48,-50.26"/>
<polygon fill="black" stroke="black" points="2185.51,-53.12 2192.33,-45.02 2181.94,-47.1 2185.51,-53.12"/>
</g>
<!-- 56 -->
<g id="node32" class="node">
<title>56</title>
<ellipse fill="#b9d3ee" stroke="black" cx="2257.9" cy="-34" rx="16.8" ry="18"/>
<text text-anchor="middle" x="2257.9" y="-30.3" font-family="Times,serif" font-size="14.00">1</text>
</g>
<!-- 45&#45;&gt;56 -->
<g id="edge37" class="edge">
<title>45&#45;&gt;56</title>
<path fill="none" stroke="black" d="M2022.17,-101.39C2071.28,-95.57 2160.95,-81.63 2231.9,-52 2233.1,-51.5 2234.31,-50.94 2235.51,-50.34"/>
<polygon fill="black" stroke="black" points="2237.51,-53.22 2244.39,-45.17 2233.99,-47.17 2237.51,-53.22"/>
</g>
<!-- 57 -->
<g id="node33" class="node">
<title>57</title>
<ellipse fill="#b9d3ee" stroke="black" cx="1803.9" cy="-34" rx="16.8" ry="18"/>
<text text-anchor="middle" x="1803.9" y="-30.3" font-family="Times,serif" font-size="14.00">1</text>
</g>
<!-- 45&#45;&gt;57 -->
<g id="edge38" class="edge">
<title>45&#45;&gt;57</title>
<path fill="none" stroke="black" d="M1949.88,-95.56C1917.59,-86.45 1869.37,-71.23 1829.9,-52 1828.73,-51.43 1827.54,-50.81 1826.36,-50.17"/>
<polygon fill="black" stroke="black" points="1827.92,-47.02 1817.55,-44.85 1824.3,-53.01 1827.92,-47.02"/>
</g>
<!-- 517 -->
<g id="node43" class="node">
<title>517</title>
<ellipse fill="#b9d3ee" stroke="black" cx="1855.9" cy="-34" rx="16.8" ry="18"/>
<text text-anchor="middle" x="1855.9" y="-30.3" font-family="Times,serif" font-size="14.00">2</text>
</g>
<!-- 45&#45;&gt;517 -->
<g id="edge48" class="edge">
<title>45&#45;&gt;517</title>
<path fill="none" stroke="black" d="M1949.77,-87.78C1929.53,-77.84 1903.99,-64.8 1881.9,-52 1880.77,-51.35 1879.62,-50.66 1878.47,-49.96"/>
<polygon fill="black" stroke="black" points="1880.08,-46.84 1869.76,-44.46 1876.34,-52.76 1880.08,-46.84"/>
</g>
<!-- 518 -->
<g id="node44" class="node">
<title>518</title>
<ellipse fill="#b9d3ee" stroke="black" cx="1907.9" cy="-34" rx="16.8" ry="18"/>
<text text-anchor="middle" x="1907.9" y="-30.3" font-family="Times,serif" font-size="14.00">2</text>
</g>
<!-- 45&#45;&gt;518 -->
<g id="edge49" class="edge">
<title>45&#45;&gt;518</title>
<path fill="none" stroke="black" d="M1966.62,-87.7C1954.89,-77.17 1939.93,-63.75 1928.05,-53.08"/>
<polygon fill="black" stroke="black" points="1930.17,-50.28 1920.39,-46.21 1925.49,-55.49 1930.17,-50.28"/>
</g>
<!-- 519 -->
<g id="node45" class="node">
<title>519</title>
<ellipse fill="#b9d3ee" stroke="black" cx="1959.9" cy="-34" rx="16.8" ry="18"/>
<text text-anchor="middle" x="1959.9" y="-30.3" font-family="Times,serif" font-size="14.00">2</text>
</g>
<!-- 45&#45;&gt;519 -->
<g id="edge50" class="edge">
<title>45&#45;&gt;519</title>
<path fill="none" stroke="black" d="M1979.47,-87.7C1976.46,-79.58 1972.8,-69.74 1969.47,-60.76"/>
<polygon fill="black" stroke="black" points="1972.66,-59.3 1965.9,-51.14 1966.1,-61.74 1972.66,-59.3"/>
</g>
<!-- 526 -->
<g id="node52" class="node">
<title>526</title>
<ellipse fill="#b9d3ee" stroke="black" cx="2011.9" cy="-34" rx="16.8" ry="18"/>
<text text-anchor="middle" x="2011.9" y="-30.3" font-family="Times,serif" font-size="14.00">9</text>
</g>
<!-- 45&#45;&gt;526 -->
<g id="edge57" class="edge">
<title>45&#45;&gt;526</title>
<path fill="none" stroke="black" d="M1992.33,-87.7C1995.34,-79.58 1999,-69.74 2002.33,-60.76"/>
<polygon fill="black" stroke="black" points="2005.7,-61.74 2005.9,-51.14 1999.14,-59.3 2005.7,-61.74"/>
</g>
<!-- 538 -->
<g id="node64" class="node">
<title>538</title>
<ellipse fill="#b9d3ee" stroke="black" cx="2082.9" cy="-34" rx="36" ry="18"/>
<text text-anchor="middle" x="2082.9" y="-30.3" font-family="Times,serif" font-size="14.00">377</text>
</g>
<!-- 45&#45;&gt;538 -->
<g id="edge69" class="edge">
<title>45&#45;&gt;538</title>
<path fill="none" stroke="black" d="M2009.88,-87.7C2023.44,-77.91 2040.48,-65.61 2054.69,-55.36"/>
<polygon fill="black" stroke="black" points="2057.05,-57.97 2063.11,-49.28 2052.95,-52.29 2057.05,-57.97"/>
</g>
<!-- 511 -->
<g id="node37" class="node">
<title>511</title>
<ellipse fill="#b9d3ee" stroke="black" cx="1383.9" cy="-34" rx="16.8" ry="18"/>
<text text-anchor="middle" x="1383.9" y="-30.3" font-family="Times,serif" font-size="14.00">1</text>
</g>
<!-- 46&#45;&gt;511 -->
<g id="edge42" class="edge">
<title>46&#45;&gt;511</title>
<path fill="none" stroke="black" d="M1356.8,-87.7C1361.23,-79.07 1366.67,-68.5 1371.5,-59.1"/>
<polygon fill="black" stroke="black" points="1374.62,-60.7 1376.08,-50.2 1368.39,-57.49 1374.62,-60.7"/>
</g>
<!-- 533 -->
<g id="node59" class="node">
<title>533</title>
<ellipse fill="#b9d3ee" stroke="black" cx="1446.9" cy="-34" rx="28.7" ry="18"/>
<text text-anchor="middle" x="1446.9" y="-30.3" font-family="Times,serif" font-size="14.00">104</text>
</g>
<!-- 46&#45;&gt;533 -->
<g id="edge64" class="edge">
<title>46&#45;&gt;533</title>
<path fill="none" stroke="black" d="M1372.12,-87.88C1386.66,-77.59 1405.19,-64.49 1420.17,-53.9"/>
<polygon fill="black" stroke="black" points="1422.37,-56.63 1428.52,-48 1418.33,-50.91 1422.37,-56.63"/>
</g>
<!-- 535 -->
<g id="node61" class="node">
<title>535</title>
<ellipse fill="#b9d3ee" stroke="black" cx="1312.9" cy="-34" rx="36" ry="18"/>
<text text-anchor="middle" x="1312.9" y="-30.3" font-family="Times,serif" font-size="14.00">285</text>
</g>
<!-- 46&#45;&gt;535 -->
<g id="edge66" class="edge">
<title>46&#45;&gt;535</title>
<path fill="none" stroke="black" d="M1339.25,-87.7C1335.16,-79.52 1330.2,-69.6 1325.69,-60.58"/>
<polygon fill="black" stroke="black" points="1328.81,-59 1321.21,-51.62 1322.55,-62.13 1328.81,-59"/>
</g>
<!-- legend_5 -->
<g id="node65" class="node">
<title>legend_5</title>
<polygon fill="#b9d3ee" stroke="black" points="2513.4,-52 2292.4,-52 2292.4,-16 2513.4,-16 2513.4,-52"/>
<text text-anchor="middle" x="2402.9" y="-30.3" font-family="Times,serif" font-size="14.00">DT=6 ST=1 Similarity=0.54</text>
</g>
<!-- legend_4&#45;&gt;legend_5 -->
<g id="edge70" class="edge">
<title>legend_4&#45;&gt;legend_5</title>
<path fill="none" stroke="black" d="M2402.9,-87.7C2402.9,-79.98 2402.9,-70.71 2402.9,-62.11"/>
<polygon fill="black" stroke="black" points="2406.4,-62.1 2402.9,-52.1 2399.4,-62.1 2406.4,-62.1"/>
</g>
</g>
</svg>
