<?xml version="1.0" encoding="UTF-8" standalone="no"?>
<!DOCTYPE svg PUBLIC "-//W3C//DTD SVG 1.1//EN"
 "http://www.w3.org/Graphics/SVG/1.1/DTD/svg11.dtd">
<!-- Generated by graphviz version 2.43.0 (0)
 -->
<!-- Title: %3 Pages: 1 -->
<svg width="2493pt" height="209pt"
 viewBox="0.00 0.00 2493.00 209.00" xmlns="http://www.w3.org/2000/svg" xmlns:xlink="http://www.w3.org/1999/xlink">
<g id="graph0" class="graph" transform="scale(1 1) rotate(0) translate(4 205)">
<title>%3</title>
<polygon fill="white" stroke="transparent" points="-4,4 -4,-205 2489,-205 2489,4 -4,4"/>
<text text-anchor="middle" x="1242.5" y="-185.8" font-family="Times,serif" font-size="14.00">ConsTree</text>
<text text-anchor="middle" x="1242.5" y="-170.8" font-family="Times,serif" font-size="14.00">Tree Quality = 0.33333333333333337</text>
<g id="clust1" class="cluster">
<title>cluster</title>
<polygon fill="none" stroke="black" points="2241,-8 2241,-155 2477,-155 2477,-8 2241,-8"/>
<text text-anchor="middle" x="2359" y="-139.8" font-family="Times,serif" font-size="14.00">Legend</text>
</g>
<!-- 00 -->
<g id="node1" class="node">
<title>00</title>
<ellipse fill="#b9d3ee" stroke="black" cx="959" cy="-106" rx="324" ry="18"/>
<text text-anchor="middle" x="959" y="-102.3" font-family="Times,serif" font-size="14.00">2000</text>
</g>
<!-- 10 -->
<g id="node3" class="node">
<title>10</title>
<polygon fill="darkseagreen" stroke="black" points="26,-52 0,-52 0,-16 26,-16 26,-52"/>
<text text-anchor="middle" x="13" y="-30.3" font-family="Times,serif" font-size="14.00">1</text>
</g>
<!-- 00&#45;&gt;10 -->
<g id="edge1" class="edge">
<title>00&#45;&gt;10</title>
<path fill="none" stroke="black" d="M676.04,-97.2C426.63,-88.94 93.94,-74.02 35,-52 34.9,-51.96 34.81,-51.93 34.71,-51.89"/>
<polygon fill="black" stroke="black" points="36.64,-48.96 26.19,-47.18 33.25,-55.08 36.64,-48.96"/>
</g>
<!-- 11 -->
<g id="node4" class="node">
<title>11</title>
<polygon fill="darkseagreen" stroke="black" points="70,-52 44,-52 44,-16 70,-16 70,-52"/>
<text text-anchor="middle" x="57" y="-30.3" font-family="Times,serif" font-size="14.00">1</text>
</g>
<!-- 00&#45;&gt;11 -->
<g id="edge2" class="edge">
<title>00&#45;&gt;11</title>
<path fill="none" stroke="black" d="M683.23,-96.53C446.42,-87.92 134.62,-72.87 79,-52 78.9,-51.96 78.81,-51.93 78.71,-51.89"/>
<polygon fill="black" stroke="black" points="80.64,-48.96 70.2,-47.17 77.25,-55.08 80.64,-48.96"/>
</g>
<!-- 12 -->
<g id="node5" class="node">
<title>12</title>
<polygon fill="darkseagreen" stroke="black" points="114,-52 88,-52 88,-16 114,-16 114,-52"/>
<text text-anchor="middle" x="101" y="-30.3" font-family="Times,serif" font-size="14.00">1</text>
</g>
<!-- 00&#45;&gt;12 -->
<g id="edge3" class="edge">
<title>00&#45;&gt;12</title>
<path fill="none" stroke="black" d="M637.09,-103.89C442.52,-99.49 214.89,-86.65 123,-52 122.9,-51.96 122.81,-51.93 122.71,-51.89"/>
<polygon fill="black" stroke="black" points="124.64,-48.96 114.2,-47.17 121.24,-55.08 124.64,-48.96"/>
</g>
<!-- 13 -->
<g id="node6" class="node">
<title>13</title>
<polygon fill="darkseagreen" stroke="black" points="158,-52 132,-52 132,-16 158,-16 158,-52"/>
<text text-anchor="middle" x="145" y="-30.3" font-family="Times,serif" font-size="14.00">1</text>
</g>
<!-- 00&#45;&gt;13 -->
<g id="edge4" class="edge">
<title>00&#45;&gt;13</title>
<path fill="none" stroke="black" d="M641.42,-102.43C459.96,-97.32 252.05,-84.24 167,-52 166.9,-51.96 166.81,-51.93 166.71,-51.89"/>
<polygon fill="black" stroke="black" points="168.64,-48.96 158.2,-47.16 165.24,-55.08 168.64,-48.96"/>
</g>
<!-- 14 -->
<g id="node7" class="node">
<title>14</title>
<polygon fill="darkseagreen" stroke="black" points="202,-52 176,-52 176,-16 202,-16 202,-52"/>
<text text-anchor="middle" x="189" y="-30.3" font-family="Times,serif" font-size="14.00">1</text>
</g>
<!-- 00&#45;&gt;14 -->
<g id="edge5" class="edge">
<title>00&#45;&gt;14</title>
<path fill="none" stroke="black" d="M647.8,-100.92C479.15,-95.17 289.54,-81.95 211,-52 210.9,-51.96 210.81,-51.93 210.71,-51.89"/>
<polygon fill="black" stroke="black" points="212.64,-48.96 202.21,-47.15 209.24,-55.07 212.64,-48.96"/>
</g>
<!-- 15 -->
<g id="node8" class="node">
<title>15</title>
<polygon fill="darkseagreen" stroke="black" points="246,-52 220,-52 220,-16 246,-16 246,-52"/>
<text text-anchor="middle" x="233" y="-30.3" font-family="Times,serif" font-size="14.00">1</text>
</g>
<!-- 00&#45;&gt;15 -->
<g id="edge6" class="edge">
<title>00&#45;&gt;15</title>
<path fill="none" stroke="black" d="M657.3,-99.4C500.81,-93.1 327.52,-79.84 255,-52 254.9,-51.96 254.81,-51.93 254.71,-51.89"/>
<polygon fill="black" stroke="black" points="256.65,-48.96 246.21,-47.14 253.23,-55.07 256.65,-48.96"/>
</g>
<!-- 16 -->
<g id="node9" class="node">
<title>16</title>
<polygon fill="darkseagreen" stroke="black" points="290,-52 264,-52 264,-16 290,-16 290,-52"/>
<text text-anchor="middle" x="277" y="-30.3" font-family="Times,serif" font-size="14.00">1</text>
</g>
<!-- 00&#45;&gt;16 -->
<g id="edge7" class="edge">
<title>00&#45;&gt;16</title>
<path fill="none" stroke="black" d="M669.61,-97.91C524.62,-91.13 365.94,-77.89 299,-52 298.9,-51.96 298.81,-51.93 298.71,-51.89"/>
<polygon fill="black" stroke="black" points="300.65,-48.96 290.21,-47.12 297.23,-55.07 300.65,-48.96"/>
</g>
<!-- 17 -->
<g id="node10" class="node">
<title>17</title>
<polygon fill="darkseagreen" stroke="black" points="334,-52 308,-52 308,-16 334,-16 334,-52"/>
<text text-anchor="middle" x="321" y="-30.3" font-family="Times,serif" font-size="14.00">1</text>
</g>
<!-- 00&#45;&gt;17 -->
<g id="edge8" class="edge">
<title>00&#45;&gt;17</title>
<path fill="none" stroke="black" d="M683.98,-96.44C549.99,-89.24 404.69,-76.06 343,-52 342.9,-51.96 342.81,-51.92 342.71,-51.89"/>
<polygon fill="black" stroke="black" points="344.65,-48.96 334.22,-47.11 341.22,-55.06 344.65,-48.96"/>
</g>
<!-- 18 -->
<g id="node11" class="node">
<title>18</title>
<polygon fill="darkseagreen" stroke="black" points="378,-52 352,-52 352,-16 378,-16 378,-52"/>
<text text-anchor="middle" x="365" y="-30.3" font-family="Times,serif" font-size="14.00">1</text>
</g>
<!-- 00&#45;&gt;18 -->
<g id="edge9" class="edge">
<title>00&#45;&gt;18</title>
<path fill="none" stroke="black" d="M701.33,-95.08C577.53,-87.51 443.9,-74.4 387,-52 386.9,-51.96 386.81,-51.92 386.71,-51.89"/>
<polygon fill="black" stroke="black" points="388.66,-48.96 378.23,-47.09 385.21,-55.06 388.66,-48.96"/>
</g>
<!-- 19 -->
<g id="node12" class="node">
<title>19</title>
<polygon fill="darkseagreen" stroke="black" points="422,-52 396,-52 396,-16 422,-16 422,-52"/>
<text text-anchor="middle" x="409" y="-30.3" font-family="Times,serif" font-size="14.00">1</text>
</g>
<!-- 00&#45;&gt;19 -->
<g id="edge10" class="edge">
<title>00&#45;&gt;19</title>
<path fill="none" stroke="black" d="M720.41,-93.8C606.33,-85.88 483.37,-72.85 431,-52 430.9,-51.96 430.81,-51.92 430.71,-51.88"/>
<polygon fill="black" stroke="black" points="432.66,-48.96 422.23,-47.07 429.21,-55.05 432.66,-48.96"/>
</g>
<!-- 110 -->
<g id="node13" class="node">
<title>110</title>
<polygon fill="darkseagreen" stroke="black" points="466,-52 440,-52 440,-16 466,-16 466,-52"/>
<text text-anchor="middle" x="453" y="-30.3" font-family="Times,serif" font-size="14.00">1</text>
</g>
<!-- 00&#45;&gt;110 -->
<g id="edge11" class="edge">
<title>00&#45;&gt;110</title>
<path fill="none" stroke="black" d="M741.22,-92.65C636.36,-84.39 523.11,-71.41 475,-52 474.9,-51.96 474.81,-51.92 474.71,-51.88"/>
<polygon fill="black" stroke="black" points="476.66,-48.97 466.24,-47.05 473.2,-55.05 476.66,-48.97"/>
</g>
<!-- 111 -->
<g id="node14" class="node">
<title>111</title>
<polygon fill="darkseagreen" stroke="black" points="510,-52 484,-52 484,-16 510,-16 510,-52"/>
<text text-anchor="middle" x="497" y="-30.3" font-family="Times,serif" font-size="14.00">1</text>
</g>
<!-- 00&#45;&gt;111 -->
<g id="edge12" class="edge">
<title>00&#45;&gt;111</title>
<path fill="none" stroke="black" d="M763.32,-91.63C667.33,-83.03 563.05,-70.05 519,-52 518.91,-51.96 518.81,-51.92 518.72,-51.88"/>
<polygon fill="black" stroke="black" points="520.67,-48.97 510.25,-47.03 517.18,-55.04 520.67,-48.97"/>
</g>
<!-- 112 -->
<g id="node15" class="node">
<title>112</title>
<polygon fill="darkseagreen" stroke="black" points="554,-52 528,-52 528,-16 554,-16 554,-52"/>
<text text-anchor="middle" x="541" y="-30.3" font-family="Times,serif" font-size="14.00">2</text>
</g>
<!-- 00&#45;&gt;112 -->
<g id="edge13" class="edge">
<title>00&#45;&gt;112</title>
<path fill="none" stroke="black" d="M786.25,-90.77C698.93,-81.81 603.13,-68.75 563,-52 562.91,-51.96 562.81,-51.92 562.72,-51.88"/>
<polygon fill="black" stroke="black" points="564.68,-48.97 554.27,-46.99 561.17,-55.03 564.68,-48.97"/>
</g>
<!-- 113 -->
<g id="node16" class="node">
<title>113</title>
<polygon fill="darkseagreen" stroke="black" points="598,-52 572,-52 572,-16 598,-16 598,-52"/>
<text text-anchor="middle" x="585" y="-30.3" font-family="Times,serif" font-size="14.00">2</text>
</g>
<!-- 00&#45;&gt;113 -->
<g id="edge14" class="edge">
<title>00&#45;&gt;113</title>
<path fill="none" stroke="black" d="M754.03,-91.98C704.53,-84.03 652.75,-71.54 607,-52 606.91,-51.96 606.81,-51.92 606.72,-51.88"/>
<polygon fill="black" stroke="black" points="608.68,-48.97 598.28,-46.95 605.15,-55.02 608.68,-48.97"/>
</g>
<!-- 114 -->
<g id="node17" class="node">
<title>114</title>
<polygon fill="darkseagreen" stroke="black" points="642,-52 616,-52 616,-16 642,-16 642,-52"/>
<text text-anchor="middle" x="629" y="-30.3" font-family="Times,serif" font-size="14.00">2</text>
</g>
<!-- 00&#45;&gt;114 -->
<g id="edge15" class="edge">
<title>00&#45;&gt;114</title>
<path fill="none" stroke="black" d="M788.03,-90.7C742.21,-82.85 693.59,-70.72 651,-52 650.91,-51.96 650.81,-51.92 650.72,-51.87"/>
<polygon fill="black" stroke="black" points="652.7,-48.98 642.31,-46.9 649.13,-55 652.7,-48.98"/>
</g>
<!-- 115 -->
<g id="node18" class="node">
<title>115</title>
<polygon fill="darkseagreen" stroke="black" points="686,-52 660,-52 660,-16 686,-16 686,-52"/>
<text text-anchor="middle" x="673" y="-30.3" font-family="Times,serif" font-size="14.00">2</text>
</g>
<!-- 00&#45;&gt;115 -->
<g id="edge16" class="edge">
<title>00&#45;&gt;115</title>
<path fill="none" stroke="black" d="M821.3,-89.66C779.47,-81.78 734.23,-69.9 695,-52 694.91,-51.96 694.81,-51.91 694.72,-51.87"/>
<polygon fill="black" stroke="black" points="696.71,-48.98 686.34,-46.83 693.11,-54.98 696.71,-48.98"/>
</g>
<!-- 116 -->
<g id="node19" class="node">
<title>116</title>
<polygon fill="darkseagreen" stroke="black" points="730,-52 704,-52 704,-16 730,-16 730,-52"/>
<text text-anchor="middle" x="717" y="-30.3" font-family="Times,serif" font-size="14.00">2</text>
</g>
<!-- 00&#45;&gt;116 -->
<g id="edge17" class="edge">
<title>00&#45;&gt;116</title>
<path fill="none" stroke="black" d="M853.22,-88.93C815.95,-80.85 774.51,-69.03 739,-52 738.91,-51.96 738.82,-51.91 738.72,-51.87"/>
<polygon fill="black" stroke="black" points="740.73,-48.99 730.38,-46.74 737.07,-54.96 740.73,-48.99"/>
</g>
<!-- 117 -->
<g id="node20" class="node">
<title>117</title>
<polygon fill="darkseagreen" stroke="black" points="774,-52 748,-52 748,-16 774,-16 774,-52"/>
<text text-anchor="middle" x="761" y="-30.3" font-family="Times,serif" font-size="14.00">2</text>
</g>
<!-- 00&#45;&gt;117 -->
<g id="edge18" class="edge">
<title>00&#45;&gt;117</title>
<path fill="none" stroke="black" d="M882.58,-88.5C850.76,-79.99 814.07,-67.99 783,-52 782.91,-51.95 782.82,-51.91 782.73,-51.86"/>
<polygon fill="black" stroke="black" points="784.77,-49.01 774.45,-46.61 781.02,-54.92 784.77,-49.01"/>
</g>
<!-- 118 -->
<g id="node21" class="node">
<title>118</title>
<polygon fill="darkseagreen" stroke="black" points="818,-52 792,-52 792,-16 818,-16 818,-52"/>
<text text-anchor="middle" x="805" y="-30.3" font-family="Times,serif" font-size="14.00">2</text>
</g>
<!-- 00&#45;&gt;118 -->
<g id="edge19" class="edge">
<title>00&#45;&gt;118</title>
<path fill="none" stroke="black" d="M907.65,-88.14C882.57,-78.97 852.4,-66.54 827,-52 826.81,-51.89 826.62,-51.78 826.43,-51.67"/>
<polygon fill="black" stroke="black" points="828.33,-48.73 818.08,-46.05 824.42,-54.54 828.33,-48.73"/>
</g>
<!-- 119 -->
<g id="node22" class="node">
<title>119</title>
<polygon fill="darkseagreen" stroke="black" points="862,-52 836,-52 836,-16 862,-16 862,-52"/>
<text text-anchor="middle" x="849" y="-30.3" font-family="Times,serif" font-size="14.00">3</text>
</g>
<!-- 00&#45;&gt;119 -->
<g id="edge20" class="edge">
<title>00&#45;&gt;119</title>
<path fill="none" stroke="black" d="M928.72,-87.93C911.5,-77.93 889.69,-64.79 871,-52 870.82,-51.88 870.64,-51.75 870.46,-51.63"/>
<polygon fill="black" stroke="black" points="872.45,-48.75 862.31,-45.68 868.33,-54.4 872.45,-48.75"/>
</g>
<!-- 120 -->
<g id="node23" class="node">
<title>120</title>
<polygon fill="darkseagreen" stroke="black" points="906,-52 880,-52 880,-16 906,-16 906,-52"/>
<text text-anchor="middle" x="893" y="-30.3" font-family="Times,serif" font-size="14.00">3</text>
</g>
<!-- 00&#45;&gt;120 -->
<g id="edge21" class="edge">
<title>00&#45;&gt;120</title>
<path fill="none" stroke="black" d="M942.69,-87.7C933.68,-78.15 922.43,-66.21 912.91,-56.12"/>
<polygon fill="black" stroke="black" points="915.44,-53.7 906.03,-48.82 910.35,-58.5 915.44,-53.7"/>
</g>
<!-- 121 -->
<g id="node24" class="node">
<title>121</title>
<polygon fill="darkseagreen" stroke="black" points="950,-52 924,-52 924,-16 950,-16 950,-52"/>
<text text-anchor="middle" x="937" y="-30.3" font-family="Times,serif" font-size="14.00">3</text>
</g>
<!-- 00&#45;&gt;121 -->
<g id="edge22" class="edge">
<title>00&#45;&gt;121</title>
<path fill="none" stroke="black" d="M953.56,-87.7C951.11,-79.9 948.16,-70.51 945.43,-61.83"/>
<polygon fill="black" stroke="black" points="948.71,-60.59 942.38,-52.1 942.04,-62.69 948.71,-60.59"/>
</g>
<!-- 122 -->
<g id="node25" class="node">
<title>122</title>
<polygon fill="darkseagreen" stroke="black" points="994,-52 968,-52 968,-16 994,-16 994,-52"/>
<text text-anchor="middle" x="981" y="-30.3" font-family="Times,serif" font-size="14.00">4</text>
</g>
<!-- 00&#45;&gt;122 -->
<g id="edge23" class="edge">
<title>00&#45;&gt;122</title>
<path fill="none" stroke="black" d="M964.44,-87.7C966.89,-79.9 969.84,-70.51 972.57,-61.83"/>
<polygon fill="black" stroke="black" points="975.96,-62.69 975.62,-52.1 969.29,-60.59 975.96,-62.69"/>
</g>
<!-- 123 -->
<g id="node26" class="node">
<title>123</title>
<polygon fill="darkseagreen" stroke="black" points="1038,-52 1012,-52 1012,-16 1038,-16 1038,-52"/>
<text text-anchor="middle" x="1025" y="-30.3" font-family="Times,serif" font-size="14.00">4</text>
</g>
<!-- 00&#45;&gt;123 -->
<g id="edge24" class="edge">
<title>00&#45;&gt;123</title>
<path fill="none" stroke="black" d="M975.31,-87.7C984.32,-78.15 995.57,-66.21 1005.09,-56.12"/>
<polygon fill="black" stroke="black" points="1007.65,-58.5 1011.97,-48.82 1002.56,-53.7 1007.65,-58.5"/>
</g>
<!-- 124 -->
<g id="node27" class="node">
<title>124</title>
<polygon fill="darkseagreen" stroke="black" points="1082,-52 1056,-52 1056,-16 1082,-16 1082,-52"/>
<text text-anchor="middle" x="1069" y="-30.3" font-family="Times,serif" font-size="14.00">4</text>
</g>
<!-- 00&#45;&gt;124 -->
<g id="edge25" class="edge">
<title>00&#45;&gt;124</title>
<path fill="none" stroke="black" d="M989.28,-87.93C1006.5,-77.93 1028.31,-64.79 1047,-52 1047.18,-51.88 1047.36,-51.75 1047.54,-51.63"/>
<polygon fill="black" stroke="black" points="1049.67,-54.4 1055.69,-45.68 1045.55,-48.75 1049.67,-54.4"/>
</g>
<!-- 125 -->
<g id="node28" class="node">
<title>125</title>
<polygon fill="darkseagreen" stroke="black" points="1126,-52 1100,-52 1100,-16 1126,-16 1126,-52"/>
<text text-anchor="middle" x="1113" y="-30.3" font-family="Times,serif" font-size="14.00">4</text>
</g>
<!-- 00&#45;&gt;125 -->
<g id="edge26" class="edge">
<title>00&#45;&gt;125</title>
<path fill="none" stroke="black" d="M1010.35,-88.14C1035.43,-78.97 1065.6,-66.54 1091,-52 1091.19,-51.89 1091.38,-51.78 1091.57,-51.67"/>
<polygon fill="black" stroke="black" points="1093.58,-54.54 1099.92,-46.05 1089.67,-48.73 1093.58,-54.54"/>
</g>
<!-- 126 -->
<g id="node29" class="node">
<title>126</title>
<polygon fill="darkseagreen" stroke="black" points="1170,-52 1144,-52 1144,-16 1170,-16 1170,-52"/>
<text text-anchor="middle" x="1157" y="-30.3" font-family="Times,serif" font-size="14.00">5</text>
</g>
<!-- 00&#45;&gt;126 -->
<g id="edge27" class="edge">
<title>00&#45;&gt;126</title>
<path fill="none" stroke="black" d="M1035.42,-88.5C1067.24,-79.99 1103.93,-67.99 1135,-52 1135.09,-51.95 1135.18,-51.91 1135.27,-51.86"/>
<polygon fill="black" stroke="black" points="1136.98,-54.92 1143.55,-46.61 1133.23,-49.01 1136.98,-54.92"/>
</g>
<!-- 127 -->
<g id="node30" class="node">
<title>127</title>
<polygon fill="darkseagreen" stroke="black" points="1214,-52 1188,-52 1188,-16 1214,-16 1214,-52"/>
<text text-anchor="middle" x="1201" y="-30.3" font-family="Times,serif" font-size="14.00">5</text>
</g>
<!-- 00&#45;&gt;127 -->
<g id="edge28" class="edge">
<title>00&#45;&gt;127</title>
<path fill="none" stroke="black" d="M1064.78,-88.93C1102.05,-80.85 1143.49,-69.03 1179,-52 1179.09,-51.96 1179.18,-51.91 1179.28,-51.87"/>
<polygon fill="black" stroke="black" points="1180.93,-54.96 1187.62,-46.74 1177.27,-48.99 1180.93,-54.96"/>
</g>
<!-- 128 -->
<g id="node31" class="node">
<title>128</title>
<polygon fill="darkseagreen" stroke="black" points="1258,-52 1232,-52 1232,-16 1258,-16 1258,-52"/>
<text text-anchor="middle" x="1245" y="-30.3" font-family="Times,serif" font-size="14.00">7</text>
</g>
<!-- 00&#45;&gt;128 -->
<g id="edge29" class="edge">
<title>00&#45;&gt;128</title>
<path fill="none" stroke="black" d="M1096.7,-89.66C1138.53,-81.78 1183.77,-69.9 1223,-52 1223.09,-51.96 1223.19,-51.91 1223.28,-51.87"/>
<polygon fill="black" stroke="black" points="1224.89,-54.98 1231.66,-46.83 1221.29,-48.98 1224.89,-54.98"/>
</g>
<!-- 129 -->
<g id="node32" class="node">
<title>129</title>
<polygon fill="darkseagreen" stroke="black" points="1302,-52 1276,-52 1276,-16 1302,-16 1302,-52"/>
<text text-anchor="middle" x="1289" y="-30.3" font-family="Times,serif" font-size="14.00">9</text>
</g>
<!-- 00&#45;&gt;129 -->
<g id="edge30" class="edge">
<title>00&#45;&gt;129</title>
<path fill="none" stroke="black" d="M1129.97,-90.7C1175.79,-82.85 1224.41,-70.72 1267,-52 1267.09,-51.96 1267.19,-51.92 1267.28,-51.87"/>
<polygon fill="black" stroke="black" points="1268.87,-55 1275.69,-46.9 1265.3,-48.98 1268.87,-55"/>
</g>
<!-- 130 -->
<g id="node33" class="node">
<title>130</title>
<polygon fill="darkseagreen" stroke="black" points="1346,-52 1320,-52 1320,-16 1346,-16 1346,-52"/>
<text text-anchor="middle" x="1333" y="-30.3" font-family="Times,serif" font-size="14.00">9</text>
</g>
<!-- 00&#45;&gt;130 -->
<g id="edge31" class="edge">
<title>00&#45;&gt;130</title>
<path fill="none" stroke="black" d="M1163.97,-91.98C1213.47,-84.03 1265.25,-71.54 1311,-52 1311.09,-51.96 1311.19,-51.92 1311.28,-51.88"/>
<polygon fill="black" stroke="black" points="1312.85,-55.02 1319.72,-46.95 1309.32,-48.97 1312.85,-55.02"/>
</g>
<!-- 131 -->
<g id="node34" class="node">
<title>131</title>
<polygon fill="darkseagreen" stroke="black" points="1399.5,-52 1364.5,-52 1364.5,-16 1399.5,-16 1399.5,-52"/>
<text text-anchor="middle" x="1382" y="-30.3" font-family="Times,serif" font-size="14.00">10</text>
</g>
<!-- 00&#45;&gt;131 -->
<g id="edge32" class="edge">
<title>00&#45;&gt;131</title>
<path fill="none" stroke="black" d="M1177.53,-92.7C1236.37,-84.85 1299.16,-72.23 1355,-52 1355.1,-51.96 1355.2,-51.93 1355.29,-51.89"/>
<polygon fill="black" stroke="black" points="1356.71,-55.09 1364.25,-47.65 1353.71,-48.77 1356.71,-55.09"/>
</g>
<!-- 132 -->
<g id="node35" class="node">
<title>132</title>
<polygon fill="darkseagreen" stroke="black" points="1452.5,-52 1417.5,-52 1417.5,-16 1452.5,-16 1452.5,-52"/>
<text text-anchor="middle" x="1435" y="-30.3" font-family="Times,serif" font-size="14.00">13</text>
</g>
<!-- 00&#45;&gt;132 -->
<g id="edge33" class="edge">
<title>00&#45;&gt;132</title>
<path fill="none" stroke="black" d="M1145.63,-91.27C1246.63,-82.2 1360.27,-68.87 1408,-52 1408.1,-51.97 1408.2,-51.93 1408.29,-51.89"/>
<polygon fill="black" stroke="black" points="1409.7,-55.1 1417.26,-47.69 1406.72,-48.77 1409.7,-55.1"/>
</g>
<!-- 133 -->
<g id="node36" class="node">
<title>133</title>
<polygon fill="darkseagreen" stroke="black" points="1505.5,-52 1470.5,-52 1470.5,-16 1505.5,-16 1505.5,-52"/>
<text text-anchor="middle" x="1488" y="-30.3" font-family="Times,serif" font-size="14.00">15</text>
</g>
<!-- 00&#45;&gt;133 -->
<g id="edge34" class="edge">
<title>00&#45;&gt;133</title>
<path fill="none" stroke="black" d="M1169.92,-92.3C1282.26,-83.64 1407.95,-70.38 1461,-52 1461.1,-51.97 1461.2,-51.93 1461.29,-51.9"/>
<polygon fill="black" stroke="black" points="1462.68,-55.11 1470.28,-47.72 1459.73,-48.76 1462.68,-55.11"/>
</g>
<!-- 134 -->
<g id="node37" class="node">
<title>134</title>
<polygon fill="darkseagreen" stroke="black" points="1558.5,-52 1523.5,-52 1523.5,-16 1558.5,-16 1558.5,-52"/>
<text text-anchor="middle" x="1541" y="-30.3" font-family="Times,serif" font-size="14.00">23</text>
</g>
<!-- 00&#45;&gt;134 -->
<g id="edge35" class="edge">
<title>00&#45;&gt;134</title>
<path fill="none" stroke="black" d="M1192.52,-93.49C1316.62,-85.24 1455.37,-71.99 1514,-52 1514.1,-51.97 1514.2,-51.93 1514.29,-51.9"/>
<polygon fill="black" stroke="black" points="1515.67,-55.12 1523.29,-47.75 1512.74,-48.76 1515.67,-55.12"/>
</g>
<!-- 135 -->
<g id="node38" class="node">
<title>135</title>
<polygon fill="darkseagreen" stroke="black" points="1611.5,-52 1576.5,-52 1576.5,-16 1611.5,-16 1611.5,-52"/>
<text text-anchor="middle" x="1594" y="-30.3" font-family="Times,serif" font-size="14.00">26</text>
</g>
<!-- 00&#45;&gt;135 -->
<g id="edge36" class="edge">
<title>00&#45;&gt;135</title>
<path fill="none" stroke="black" d="M1213.2,-94.8C1349.54,-86.97 1502.47,-73.7 1567,-52 1567.1,-51.97 1567.2,-51.93 1567.3,-51.9"/>
<polygon fill="black" stroke="black" points="1568.66,-55.12 1576.29,-47.77 1565.75,-48.76 1568.66,-55.12"/>
</g>
<!-- 136 -->
<g id="node39" class="node">
<title>136</title>
<polygon fill="darkseagreen" stroke="black" points="1664.5,-52 1629.5,-52 1629.5,-16 1664.5,-16 1664.5,-52"/>
<text text-anchor="middle" x="1647" y="-30.3" font-family="Times,serif" font-size="14.00">48</text>
</g>
<!-- 00&#45;&gt;136 -->
<g id="edge37" class="edge">
<title>00&#45;&gt;136</title>
<path fill="none" stroke="black" d="M1231.44,-96.21C1380.62,-88.83 1549.19,-75.54 1620,-52 1620.1,-51.97 1620.2,-51.93 1620.3,-51.9"/>
<polygon fill="black" stroke="black" points="1621.66,-55.13 1629.3,-47.79 1618.75,-48.76 1621.66,-55.13"/>
</g>
<!-- 137 -->
<g id="node40" class="node">
<title>137</title>
<polygon fill="darkseagreen" stroke="black" points="1717.5,-52 1682.5,-52 1682.5,-16 1717.5,-16 1717.5,-52"/>
<text text-anchor="middle" x="1700" y="-30.3" font-family="Times,serif" font-size="14.00">68</text>
</g>
<!-- 00&#45;&gt;137 -->
<g id="edge38" class="edge">
<title>00&#45;&gt;137</title>
<path fill="none" stroke="black" d="M1246.74,-97.7C1409.45,-90.81 1595.44,-77.53 1673,-52 1673.1,-51.97 1673.2,-51.93 1673.3,-51.9"/>
<polygon fill="black" stroke="black" points="1674.65,-55.13 1682.31,-47.81 1671.75,-48.76 1674.65,-55.13"/>
</g>
<!-- 138 -->
<g id="node41" class="node">
<title>138</title>
<polygon fill="darkseagreen" stroke="black" points="1780,-52 1736,-52 1736,-16 1780,-16 1780,-52"/>
<text text-anchor="middle" x="1758" y="-30.3" font-family="Times,serif" font-size="14.00">104</text>
</g>
<!-- 00&#45;&gt;138 -->
<g id="edge39" class="edge">
<title>00&#45;&gt;138</title>
<path fill="none" stroke="black" d="M1245.63,-97.57C1425,-90.54 1638.18,-77.13 1726,-52 1726.1,-51.97 1726.2,-51.94 1726.31,-51.91"/>
<polygon fill="black" stroke="black" points="1727.67,-55.14 1735.77,-48.3 1725.18,-48.59 1727.67,-55.14"/>
</g>
<!-- 139 -->
<g id="node42" class="node">
<title>139</title>
<polygon fill="darkseagreen" stroke="black" points="1870,-52 1798,-52 1798,-16 1870,-16 1870,-52"/>
<text text-anchor="middle" x="1834" y="-30.3" font-family="Times,serif" font-size="14.00">268</text>
</g>
<!-- 00&#45;&gt;139 -->
<g id="edge40" class="edge">
<title>00&#45;&gt;139</title>
<path fill="none" stroke="black" d="M1232.03,-96.28C1426.57,-88.47 1671.97,-74.95 1788.11,-51.74"/>
<polygon fill="black" stroke="black" points="1788.86,-55.15 1797.93,-49.68 1787.43,-48.3 1788.86,-55.15"/>
</g>
<!-- 140 -->
<g id="node43" class="node">
<title>140</title>
<polygon fill="darkseagreen" stroke="black" points="1960,-52 1888,-52 1888,-16 1960,-16 1960,-52"/>
<text text-anchor="middle" x="1924" y="-30.3" font-family="Times,serif" font-size="14.00">271</text>
</g>
<!-- 00&#45;&gt;140 -->
<g id="edge41" class="edge">
<title>00&#45;&gt;140</title>
<path fill="none" stroke="black" d="M1248.25,-97.86C1466.4,-90.74 1748.13,-77.38 1878.09,-51.73"/>
<polygon fill="black" stroke="black" points="1878.85,-55.15 1887.94,-49.7 1877.43,-48.29 1878.85,-55.15"/>
</g>
<!-- 141 -->
<g id="node44" class="node">
<title>141</title>
<polygon fill="darkseagreen" stroke="black" points="2050,-52 1978,-52 1978,-16 2050,-16 2050,-52"/>
<text text-anchor="middle" x="2014" y="-30.3" font-family="Times,serif" font-size="14.00">322</text>
</g>
<!-- 00&#45;&gt;141 -->
<g id="edge42" class="edge">
<title>00&#45;&gt;141</title>
<path fill="none" stroke="black" d="M1260.5,-99.39C1502.38,-93.05 1823.22,-79.98 1967.83,-51.78"/>
<polygon fill="black" stroke="black" points="1968.84,-55.14 1977.94,-49.72 1967.44,-48.28 1968.84,-55.14"/>
</g>
<!-- 142 -->
<g id="node45" class="node">
<title>142</title>
<polygon fill="darkseagreen" stroke="black" points="2140,-52 2068,-52 2068,-16 2140,-16 2140,-52"/>
<text text-anchor="middle" x="2104" y="-30.3" font-family="Times,serif" font-size="14.00">372</text>
</g>
<!-- 00&#45;&gt;142 -->
<g id="edge43" class="edge">
<title>00&#45;&gt;142</title>
<path fill="none" stroke="black" d="M1269.48,-100.83C1535.14,-95.32 1897.88,-82.69 2057.71,-51.79"/>
<polygon fill="black" stroke="black" points="2058.83,-55.14 2067.94,-49.73 2057.45,-48.28 2058.83,-55.14"/>
</g>
<!-- 143 -->
<g id="node46" class="node">
<title>143</title>
<polygon fill="darkseagreen" stroke="black" points="2230,-52 2158,-52 2158,-16 2230,-16 2230,-52"/>
<text text-anchor="middle" x="2194" y="-30.3" font-family="Times,serif" font-size="14.00">374</text>
</g>
<!-- 00&#45;&gt;143 -->
<g id="edge44" class="edge">
<title>00&#45;&gt;143</title>
<path fill="none" stroke="black" d="M1275.85,-102.16C1565.26,-97.55 1972.67,-85.48 2148,-51.73"/>
<polygon fill="black" stroke="black" points="2148.82,-55.14 2157.94,-49.74 2147.45,-48.27 2148.82,-55.14"/>
</g>
<!-- legend_0 -->
<g id="node2" class="node">
<title>legend_0</title>
<polygon fill="#b9d3ee" stroke="black" points="2469.5,-124 2248.5,-124 2248.5,-88 2469.5,-88 2469.5,-124"/>
<text text-anchor="middle" x="2359" y="-102.3" font-family="Times,serif" font-size="14.00">DT=5 ST=5 Similarity=0.28</text>
</g>
<!-- legend_1 -->
<g id="node47" class="node">
<title>legend_1</title>
<polygon fill="darkseagreen" stroke="black" points="2469.5,-52 2248.5,-52 2248.5,-16 2469.5,-16 2469.5,-52"/>
<text text-anchor="middle" x="2359" y="-30.3" font-family="Times,serif" font-size="14.00">DT=6 ST=1 Similarity=0.55</text>
</g>
<!-- legend_0&#45;&gt;legend_1 -->
<g id="edge45" class="edge">
<title>legend_0&#45;&gt;legend_1</title>
<path fill="none" stroke="black" d="M2359,-87.7C2359,-79.98 2359,-70.71 2359,-62.11"/>
<polygon fill="black" stroke="black" points="2362.5,-62.1 2359,-52.1 2355.5,-62.1 2362.5,-62.1"/>
</g>
</g>
</svg>
