<?xml version="1.0" encoding="UTF-8" standalone="no"?>
<!DOCTYPE svg PUBLIC "-//W3C//DTD SVG 1.1//EN"
 "http://www.w3.org/Graphics/SVG/1.1/DTD/svg11.dtd">
<!-- Generated by graphviz version 2.43.0 (0)
 -->
<!-- Title: %3 Pages: 1 -->
<svg width="3052pt" height="497pt"
 viewBox="0.00 0.00 3051.90 497.00" xmlns="http://www.w3.org/2000/svg" xmlns:xlink="http://www.w3.org/1999/xlink">
<g id="graph0" class="graph" transform="scale(1 1) rotate(0) translate(4 493)">
<title>%3</title>
<polygon fill="white" stroke="transparent" points="-4,4 -4,-493 3047.9,-493 3047.9,4 -4,4"/>
<text text-anchor="middle" x="1521.95" y="-473.8" font-family="Times,serif" font-size="14.00">ConsTree</text>
<text text-anchor="middle" x="1521.95" y="-458.8" font-family="Times,serif" font-size="14.00">Tree Quality = 1</text>
<g id="clust1" class="cluster">
<title>cluster</title>
<polygon fill="none" stroke="black" points="2799.9,-8 2799.9,-443 3035.9,-443 3035.9,-8 2799.9,-8"/>
<text text-anchor="middle" x="2917.9" y="-427.8" font-family="Times,serif" font-size="14.00">Legend</text>
</g>
<!-- 00 -->
<g id="node1" class="node">
<title>00</title>
<ellipse fill="#b9d3ee" stroke="black" cx="1542.9" cy="-394" rx="144" ry="18"/>
<text text-anchor="middle" x="1542.9" y="-390.3" font-family="Times,serif" font-size="14.00">988</text>
</g>
<!-- 10 -->
<g id="node4" class="node">
<title>10</title>
<ellipse fill="#b9d3ee" stroke="black" cx="1713.9" cy="-322" rx="72" ry="18"/>
<text text-anchor="middle" x="1713.9" y="-318.3" font-family="Times,serif" font-size="14.00">478</text>
</g>
<!-- 00&#45;&gt;10 -->
<g id="edge1" class="edge">
<title>00&#45;&gt;10</title>
<path fill="none" stroke="black" d="M1582.99,-376.59C1608.66,-366.08 1642.03,-352.42 1668.65,-341.52"/>
<polygon fill="black" stroke="black" points="1670.2,-344.67 1678.13,-337.64 1667.55,-338.19 1670.2,-344.67"/>
</g>
<!-- 11 -->
<g id="node5" class="node">
<title>11</title>
<ellipse fill="#b9d3ee" stroke="black" cx="1587.9" cy="-322" rx="36" ry="18"/>
<text text-anchor="middle" x="1587.9" y="-318.3" font-family="Times,serif" font-size="14.00">421</text>
</g>
<!-- 00&#45;&gt;11 -->
<g id="edge3" class="edge">
<title>00&#45;&gt;11</title>
<path fill="none" stroke="black" d="M1554.02,-375.7C1559.33,-367.44 1565.79,-357.39 1571.63,-348.3"/>
<polygon fill="black" stroke="black" points="1574.75,-349.93 1577.21,-339.62 1568.86,-346.14 1574.75,-349.93"/>
</g>
<!-- 13 -->
<g id="node7" class="node">
<title>13</title>
<ellipse fill="#b9d3ee" stroke="black" cx="1497.9" cy="-322" rx="36" ry="18"/>
<text text-anchor="middle" x="1497.9" y="-318.3" font-family="Times,serif" font-size="14.00">389</text>
</g>
<!-- 00&#45;&gt;13 -->
<g id="edge6" class="edge">
<title>00&#45;&gt;13</title>
<path fill="none" stroke="black" d="M1531.77,-375.7C1526.47,-367.44 1520.01,-357.39 1514.16,-348.3"/>
<polygon fill="black" stroke="black" points="1516.94,-346.14 1508.58,-339.62 1511.05,-349.93 1516.94,-346.14"/>
</g>
<!-- 01 -->
<g id="node2" class="node">
<title>01</title>
<ellipse fill="#b9d3ee" stroke="black" cx="1848.9" cy="-394" rx="144" ry="18"/>
<text text-anchor="middle" x="1848.9" y="-390.3" font-family="Times,serif" font-size="14.00">1012</text>
</g>
<!-- 01&#45;&gt;10 -->
<g id="edge2" class="edge">
<title>01&#45;&gt;10</title>
<path fill="none" stroke="black" d="M1816.91,-376.41C1797.7,-366.45 1773.14,-353.72 1752.82,-343.18"/>
<polygon fill="black" stroke="black" points="1754.3,-340.01 1743.81,-338.51 1751.08,-346.22 1754.3,-340.01"/>
</g>
<!-- 01&#45;&gt;11 -->
<g id="edge4" class="edge">
<title>01&#45;&gt;11</title>
<path fill="none" stroke="black" d="M1779.25,-378.15C1736.64,-368.52 1681.21,-354.99 1632.9,-340 1630.3,-339.19 1627.63,-338.31 1624.95,-337.4"/>
<polygon fill="black" stroke="black" points="1625.92,-334.03 1615.32,-333.96 1623.56,-340.62 1625.92,-334.03"/>
</g>
<!-- 12 -->
<g id="node6" class="node">
<title>12</title>
<ellipse fill="#b9d3ee" stroke="black" cx="1911.9" cy="-322" rx="108" ry="18"/>
<text text-anchor="middle" x="1911.9" y="-318.3" font-family="Times,serif" font-size="14.00">712</text>
</g>
<!-- 01&#45;&gt;12 -->
<g id="edge5" class="edge">
<title>01&#45;&gt;12</title>
<path fill="none" stroke="black" d="M1864.15,-376.05C1871.77,-367.58 1881.15,-357.17 1889.56,-347.82"/>
<polygon fill="black" stroke="black" points="1892.26,-350.05 1896.35,-340.28 1887.06,-345.37 1892.26,-350.05"/>
</g>
<!-- legend_0 -->
<g id="node3" class="node">
<title>legend_0</title>
<polygon fill="#b9d3ee" stroke="black" points="3028.4,-412 2807.4,-412 2807.4,-376 3028.4,-376 3028.4,-412"/>
<text text-anchor="middle" x="2917.9" y="-390.3" font-family="Times,serif" font-size="14.00">DT=1 ST=1 Similarity=0.47</text>
</g>
<!-- legend_1 -->
<g id="node8" class="node">
<title>legend_1</title>
<polygon fill="#b9d3ee" stroke="black" points="3028.4,-340 2807.4,-340 2807.4,-304 3028.4,-304 3028.4,-340"/>
<text text-anchor="middle" x="2917.9" y="-318.3" font-family="Times,serif" font-size="14.00">DT=2 ST=1 Similarity=0.64</text>
</g>
<!-- legend_0&#45;&gt;legend_1 -->
<g id="edge7" class="edge">
<title>legend_0&#45;&gt;legend_1</title>
<path fill="none" stroke="black" d="M2917.9,-375.7C2917.9,-367.98 2917.9,-358.71 2917.9,-350.11"/>
<polygon fill="black" stroke="black" points="2921.4,-350.1 2917.9,-340.1 2914.4,-350.1 2921.4,-350.1"/>
</g>
<!-- 20 -->
<g id="node9" class="node">
<title>20</title>
<ellipse fill="#b9d3ee" stroke="black" cx="1587.9" cy="-250" rx="36" ry="18"/>
<text text-anchor="middle" x="1587.9" y="-246.3" font-family="Times,serif" font-size="14.00">414</text>
</g>
<!-- 10&#45;&gt;20 -->
<g id="edge8" class="edge">
<title>10&#45;&gt;20</title>
<path fill="none" stroke="black" d="M1685.62,-305.29C1666.12,-294.45 1640.15,-280.03 1619.89,-268.77"/>
<polygon fill="black" stroke="black" points="1621.47,-265.65 1611.03,-263.85 1618.07,-271.76 1621.47,-265.65"/>
</g>
<!-- 22 -->
<g id="node11" class="node">
<title>22</title>
<ellipse fill="#b9d3ee" stroke="black" cx="1902.9" cy="-250" rx="108" ry="18"/>
<text text-anchor="middle" x="1902.9" y="-246.3" font-family="Times,serif" font-size="14.00">769</text>
</g>
<!-- 10&#45;&gt;22 -->
<g id="edge12" class="edge">
<title>10&#45;&gt;22</title>
<path fill="none" stroke="black" d="M1752.6,-306.67C1781.08,-296.12 1820.1,-281.67 1851.24,-270.13"/>
<polygon fill="black" stroke="black" points="1852.47,-273.41 1860.63,-266.65 1850.04,-266.85 1852.47,-273.41"/>
</g>
<!-- 23 -->
<g id="node12" class="node">
<title>23</title>
<ellipse fill="#b9d3ee" stroke="black" cx="1722.9" cy="-250" rx="36" ry="18"/>
<text text-anchor="middle" x="1722.9" y="-246.3" font-family="Times,serif" font-size="14.00">413</text>
</g>
<!-- 10&#45;&gt;23 -->
<g id="edge14" class="edge">
<title>10&#45;&gt;23</title>
<path fill="none" stroke="black" d="M1716.12,-303.7C1717.12,-295.98 1718.31,-286.71 1719.41,-278.11"/>
<polygon fill="black" stroke="black" points="1722.9,-278.47 1720.7,-268.1 1715.95,-277.58 1722.9,-278.47"/>
</g>
<!-- 11&#45;&gt;20 -->
<g id="edge9" class="edge">
<title>11&#45;&gt;20</title>
<path fill="none" stroke="black" d="M1587.9,-303.7C1587.9,-295.98 1587.9,-286.71 1587.9,-278.11"/>
<polygon fill="black" stroke="black" points="1591.4,-278.1 1587.9,-268.1 1584.4,-278.1 1591.4,-278.1"/>
</g>
<!-- 21 -->
<g id="node10" class="node">
<title>21</title>
<ellipse fill="#b9d3ee" stroke="black" cx="1497.9" cy="-250" rx="36" ry="18"/>
<text text-anchor="middle" x="1497.9" y="-246.3" font-family="Times,serif" font-size="14.00">404</text>
</g>
<!-- 11&#45;&gt;21 -->
<g id="edge11" class="edge">
<title>11&#45;&gt;21</title>
<path fill="none" stroke="black" d="M1569.25,-306.5C1556.34,-296.45 1538.96,-282.93 1524.58,-271.75"/>
<polygon fill="black" stroke="black" points="1526.57,-268.86 1516.52,-265.49 1522.27,-274.39 1526.57,-268.86"/>
</g>
<!-- 12&#45;&gt;22 -->
<g id="edge13" class="edge">
<title>12&#45;&gt;22</title>
<path fill="none" stroke="black" d="M1909.67,-303.7C1908.68,-295.98 1907.49,-286.71 1906.38,-278.11"/>
<polygon fill="black" stroke="black" points="1909.84,-277.58 1905.1,-268.1 1902.9,-278.47 1909.84,-277.58"/>
</g>
<!-- 13&#45;&gt;20 -->
<g id="edge10" class="edge">
<title>13&#45;&gt;20</title>
<path fill="none" stroke="black" d="M1516.55,-306.5C1529.46,-296.45 1546.84,-282.93 1561.21,-271.75"/>
<polygon fill="black" stroke="black" points="1563.53,-274.39 1569.27,-265.49 1559.23,-268.86 1563.53,-274.39"/>
</g>
<!-- legend_2 -->
<g id="node13" class="node">
<title>legend_2</title>
<polygon fill="#b9d3ee" stroke="black" points="3028.4,-268 2807.4,-268 2807.4,-232 3028.4,-232 3028.4,-268"/>
<text text-anchor="middle" x="2917.9" y="-246.3" font-family="Times,serif" font-size="14.00">DT=3 ST=1 Similarity=0.66</text>
</g>
<!-- legend_1&#45;&gt;legend_2 -->
<g id="edge15" class="edge">
<title>legend_1&#45;&gt;legend_2</title>
<path fill="none" stroke="black" d="M2917.9,-303.7C2917.9,-295.98 2917.9,-286.71 2917.9,-278.11"/>
<polygon fill="black" stroke="black" points="2921.4,-278.1 2917.9,-268.1 2914.4,-278.1 2921.4,-278.1"/>
</g>
<!-- 30 -->
<g id="node14" class="node">
<title>30</title>
<polygon fill="darkseagreen" stroke="black" points="1480.9,-196 1408.9,-196 1408.9,-160 1480.9,-160 1480.9,-196"/>
<text text-anchor="middle" x="1444.9" y="-174.3" font-family="Times,serif" font-size="14.00">402</text>
</g>
<!-- 20&#45;&gt;30 -->
<g id="edge16" class="edge">
<title>20&#45;&gt;30</title>
<path fill="none" stroke="black" d="M1562.99,-236.81C1542.55,-226.8 1513.13,-212.4 1488.76,-200.47"/>
<polygon fill="black" stroke="black" points="1490.22,-197.29 1479.7,-196.03 1487.14,-203.57 1490.22,-197.29"/>
</g>
<!-- 32 -->
<g id="node16" class="node">
<title>32</title>
<polygon fill="darkseagreen" stroke="black" points="1758.9,-196 1686.9,-196 1686.9,-160 1758.9,-160 1758.9,-196"/>
<text text-anchor="middle" x="1722.9" y="-174.3" font-family="Times,serif" font-size="14.00">400</text>
</g>
<!-- 20&#45;&gt;32 -->
<g id="edge19" class="edge">
<title>20&#45;&gt;32</title>
<path fill="none" stroke="black" d="M1612.03,-236.49C1631.16,-226.57 1658.35,-212.47 1681.02,-200.72"/>
<polygon fill="black" stroke="black" points="1682.83,-203.72 1690.1,-196.01 1679.61,-197.5 1682.83,-203.72"/>
</g>
<!-- 34 -->
<g id="node18" class="node">
<title>34</title>
<polygon fill="darkseagreen" stroke="black" points="1300.9,-196 1228.9,-196 1228.9,-160 1300.9,-160 1300.9,-196"/>
<text text-anchor="middle" x="1264.9" y="-174.3" font-family="Times,serif" font-size="14.00">403</text>
</g>
<!-- 20&#45;&gt;34 -->
<g id="edge23" class="edge">
<title>20&#45;&gt;34</title>
<path fill="none" stroke="black" d="M1561.02,-237.98C1555.12,-235.8 1548.85,-233.68 1542.9,-232 1462.71,-209.39 1366.78,-193.48 1311.14,-185.31"/>
<polygon fill="black" stroke="black" points="1311.3,-181.8 1300.9,-183.83 1310.3,-188.73 1311.3,-181.8"/>
</g>
<!-- 31 -->
<g id="node15" class="node">
<title>31</title>
<polygon fill="darkseagreen" stroke="black" points="1570.9,-196 1498.9,-196 1498.9,-160 1570.9,-160 1570.9,-196"/>
<text text-anchor="middle" x="1534.9" y="-174.3" font-family="Times,serif" font-size="14.00">401</text>
</g>
<!-- 21&#45;&gt;31 -->
<g id="edge17" class="edge">
<title>21&#45;&gt;31</title>
<path fill="none" stroke="black" d="M1506.67,-232.41C1510.92,-224.37 1516.13,-214.51 1520.91,-205.47"/>
<polygon fill="black" stroke="black" points="1524.1,-206.92 1525.68,-196.45 1517.91,-203.65 1524.1,-206.92"/>
</g>
<!-- 21&#45;&gt;34 -->
<g id="edge24" class="edge">
<title>21&#45;&gt;34</title>
<path fill="none" stroke="black" d="M1467.91,-239.99C1428.18,-228.05 1357.69,-206.88 1311.12,-192.89"/>
<polygon fill="black" stroke="black" points="1311.86,-189.45 1301.27,-189.93 1309.84,-196.16 1311.86,-189.45"/>
</g>
<!-- 22&#45;&gt;31 -->
<g id="edge18" class="edge">
<title>22&#45;&gt;31</title>
<path fill="none" stroke="black" d="M1834.54,-236C1760.71,-221.95 1645.09,-199.96 1581.21,-187.81"/>
<polygon fill="black" stroke="black" points="1581.51,-184.3 1571.04,-185.87 1580.21,-191.18 1581.51,-184.3"/>
</g>
<!-- 33 -->
<g id="node17" class="node">
<title>33</title>
<polygon fill="darkseagreen" stroke="black" points="2080.9,-196 2008.9,-196 2008.9,-160 2080.9,-160 2080.9,-196"/>
<text text-anchor="middle" x="2044.9" y="-174.3" font-family="Times,serif" font-size="14.00">394</text>
</g>
<!-- 22&#45;&gt;33 -->
<g id="edge21" class="edge">
<title>22&#45;&gt;33</title>
<path fill="none" stroke="black" d="M1935.83,-232.76C1955.25,-223.2 1980.05,-210.97 2001.09,-200.59"/>
<polygon fill="black" stroke="black" points="2002.74,-203.68 2010.16,-196.12 1999.64,-197.41 2002.74,-203.68"/>
</g>
<!-- 23&#45;&gt;32 -->
<g id="edge20" class="edge">
<title>23&#45;&gt;32</title>
<path fill="none" stroke="black" d="M1722.9,-231.7C1722.9,-223.98 1722.9,-214.71 1722.9,-206.11"/>
<polygon fill="black" stroke="black" points="1726.4,-206.1 1722.9,-196.1 1719.4,-206.1 1726.4,-206.1"/>
</g>
<!-- 23&#45;&gt;33 -->
<g id="edge22" class="edge">
<title>23&#45;&gt;33</title>
<path fill="none" stroke="black" d="M1753.56,-240.32C1763.81,-237.53 1775.32,-234.51 1785.9,-232 1860.01,-214.44 1946.86,-197.37 1998.8,-187.54"/>
<polygon fill="black" stroke="black" points="1999.53,-190.97 2008.71,-185.67 1998.24,-184.09 1999.53,-190.97"/>
</g>
<!-- legend_3 -->
<g id="node19" class="node">
<title>legend_3</title>
<polygon fill="darkseagreen" stroke="black" points="3028.4,-196 2807.4,-196 2807.4,-160 3028.4,-160 3028.4,-196"/>
<text text-anchor="middle" x="2917.9" y="-174.3" font-family="Times,serif" font-size="14.00">DT=4 ST=1 Similarity=0.69</text>
</g>
<!-- legend_2&#45;&gt;legend_3 -->
<g id="edge25" class="edge">
<title>legend_2&#45;&gt;legend_3</title>
<path fill="none" stroke="black" d="M2917.9,-231.7C2917.9,-223.98 2917.9,-214.71 2917.9,-206.11"/>
<polygon fill="black" stroke="black" points="2921.4,-206.1 2917.9,-196.1 2914.4,-206.1 2921.4,-206.1"/>
</g>
<!-- 40 -->
<g id="node20" class="node">
<title>40</title>
<ellipse fill="#b9d3ee" stroke="black" cx="1722.9" cy="-106" rx="16.8" ry="18"/>
<text text-anchor="middle" x="1722.9" y="-102.3" font-family="Times,serif" font-size="14.00">3</text>
</g>
<!-- 30&#45;&gt;40 -->
<g id="edge26" class="edge">
<title>30&#45;&gt;40</title>
<path fill="none" stroke="black" d="M1481.1,-162.83C1484.06,-161.83 1487.02,-160.87 1489.9,-160 1563.5,-137.84 1652.63,-119.99 1696.24,-111.82"/>
<polygon fill="black" stroke="black" points="1697.12,-115.22 1706.31,-109.96 1695.84,-108.34 1697.12,-115.22"/>
</g>
<!-- 43 -->
<g id="node23" class="node">
<title>43</title>
<ellipse fill="#b9d3ee" stroke="black" cx="928.9" cy="-106" rx="36" ry="18"/>
<text text-anchor="middle" x="928.9" y="-102.3" font-family="Times,serif" font-size="14.00">403</text>
</g>
<!-- 30&#45;&gt;43 -->
<g id="edge30" class="edge">
<title>30&#45;&gt;43</title>
<path fill="none" stroke="black" d="M1408.61,-172.08C1316.45,-159.57 1073.52,-126.62 973.21,-113.01"/>
<polygon fill="black" stroke="black" points="973.48,-109.52 963.1,-111.64 972.54,-116.45 973.48,-109.52"/>
</g>
<!-- 41 -->
<g id="node21" class="node">
<title>41</title>
<ellipse fill="#b9d3ee" stroke="black" cx="1573.9" cy="-106" rx="16.8" ry="18"/>
<text text-anchor="middle" x="1573.9" y="-102.3" font-family="Times,serif" font-size="14.00">3</text>
</g>
<!-- 31&#45;&gt;41 -->
<g id="edge28" class="edge">
<title>31&#45;&gt;41</title>
<path fill="none" stroke="black" d="M1544.54,-159.7C1549.41,-150.95 1555.4,-140.21 1560.69,-130.7"/>
<polygon fill="black" stroke="black" points="1563.88,-132.18 1565.69,-121.74 1557.76,-128.77 1563.88,-132.18"/>
</g>
<!-- 45 -->
<g id="node25" class="node">
<title>45</title>
<ellipse fill="#b9d3ee" stroke="black" cx="1264.9" cy="-106" rx="36" ry="18"/>
<text text-anchor="middle" x="1264.9" y="-102.3" font-family="Times,serif" font-size="14.00">369</text>
</g>
<!-- 31&#45;&gt;45 -->
<g id="edge33" class="edge">
<title>31&#45;&gt;45</title>
<path fill="none" stroke="black" d="M1498.69,-162.86C1495.73,-161.84 1492.77,-160.88 1489.9,-160 1427.45,-140.94 1353.5,-124.7 1307.89,-115.39"/>
<polygon fill="black" stroke="black" points="1308.54,-111.95 1298.05,-113.4 1307.15,-118.81 1308.54,-111.95"/>
</g>
<!-- 47 -->
<g id="node27" class="node">
<title>47</title>
<ellipse fill="#b9d3ee" stroke="black" cx="1457.9" cy="-106" rx="23" ry="18"/>
<text text-anchor="middle" x="1457.9" y="-102.3" font-family="Times,serif" font-size="14.00">30</text>
</g>
<!-- 31&#45;&gt;47 -->
<g id="edge37" class="edge">
<title>31&#45;&gt;47</title>
<path fill="none" stroke="black" d="M1515.86,-159.7C1505.01,-149.83 1491.35,-137.41 1480.02,-127.11"/>
<polygon fill="black" stroke="black" points="1482.36,-124.51 1472.61,-120.38 1477.66,-129.69 1482.36,-124.51"/>
</g>
<!-- 32&#45;&gt;40 -->
<g id="edge27" class="edge">
<title>32&#45;&gt;40</title>
<path fill="none" stroke="black" d="M1722.9,-159.7C1722.9,-151.98 1722.9,-142.71 1722.9,-134.11"/>
<polygon fill="black" stroke="black" points="1726.4,-134.1 1722.9,-124.1 1719.4,-134.1 1726.4,-134.1"/>
</g>
<!-- 46 -->
<g id="node26" class="node">
<title>46</title>
<ellipse fill="#b9d3ee" stroke="black" cx="2044.9" cy="-106" rx="36" ry="18"/>
<text text-anchor="middle" x="2044.9" y="-102.3" font-family="Times,serif" font-size="14.00">407</text>
</g>
<!-- 32&#45;&gt;46 -->
<g id="edge35" class="edge">
<title>32&#45;&gt;46</title>
<path fill="none" stroke="black" d="M1758.9,-169.17C1818.75,-156.16 1938.44,-130.14 2002.36,-116.25"/>
<polygon fill="black" stroke="black" points="2003.47,-119.59 2012.5,-114.04 2001.98,-112.75 2003.47,-119.59"/>
</g>
<!-- 42 -->
<g id="node22" class="node">
<title>42</title>
<ellipse fill="#b9d3ee" stroke="black" cx="2434.9" cy="-106" rx="36" ry="18"/>
<text text-anchor="middle" x="2434.9" y="-102.3" font-family="Times,serif" font-size="14.00">327</text>
</g>
<!-- 33&#45;&gt;42 -->
<g id="edge29" class="edge">
<title>33&#45;&gt;42</title>
<path fill="none" stroke="black" d="M2081.24,-170.48C2153.36,-157.53 2314.26,-128.65 2391.67,-114.76"/>
<polygon fill="black" stroke="black" points="2392.35,-118.19 2401.57,-112.98 2391.11,-111.3 2392.35,-118.19"/>
</g>
<!-- 33&#45;&gt;46 -->
<g id="edge36" class="edge">
<title>33&#45;&gt;46</title>
<path fill="none" stroke="black" d="M2044.9,-159.7C2044.9,-151.98 2044.9,-142.71 2044.9,-134.11"/>
<polygon fill="black" stroke="black" points="2048.4,-134.1 2044.9,-124.1 2041.4,-134.1 2048.4,-134.1"/>
</g>
<!-- 48 -->
<g id="node28" class="node">
<title>48</title>
<ellipse fill="#b9d3ee" stroke="black" cx="2651.9" cy="-106" rx="23" ry="18"/>
<text text-anchor="middle" x="2651.9" y="-102.3" font-family="Times,serif" font-size="14.00">59</text>
</g>
<!-- 33&#45;&gt;48 -->
<g id="edge38" class="edge">
<title>33&#45;&gt;48</title>
<path fill="none" stroke="black" d="M2081.05,-172.83C2190.13,-160.25 2514.85,-122.8 2619.21,-110.77"/>
<polygon fill="black" stroke="black" points="2619.91,-114.21 2629.44,-109.59 2619.11,-107.26 2619.91,-114.21"/>
</g>
<!-- 34&#45;&gt;43 -->
<g id="edge31" class="edge">
<title>34&#45;&gt;43</title>
<path fill="none" stroke="black" d="M1228.62,-169.44C1166.12,-156.42 1038.45,-129.82 971.71,-115.92"/>
<polygon fill="black" stroke="black" points="972.04,-112.41 961.54,-113.8 970.61,-119.27 972.04,-112.41"/>
</g>
<!-- 44 -->
<g id="node24" class="node">
<title>44</title>
<ellipse fill="#b9d3ee" stroke="black" cx="365.9" cy="-106" rx="36" ry="18"/>
<text text-anchor="middle" x="365.9" y="-102.3" font-family="Times,serif" font-size="14.00">399</text>
</g>
<!-- 34&#45;&gt;44 -->
<g id="edge32" class="edge">
<title>34&#45;&gt;44</title>
<path fill="none" stroke="black" d="M1228.82,-174.19C1087.15,-163.16 568.93,-122.81 411.54,-110.55"/>
<polygon fill="black" stroke="black" points="411.51,-107.04 401.27,-109.75 410.97,-114.02 411.51,-107.04"/>
</g>
<!-- 34&#45;&gt;45 -->
<g id="edge34" class="edge">
<title>34&#45;&gt;45</title>
<path fill="none" stroke="black" d="M1264.9,-159.7C1264.9,-151.98 1264.9,-142.71 1264.9,-134.11"/>
<polygon fill="black" stroke="black" points="1268.4,-134.1 1264.9,-124.1 1261.4,-134.1 1268.4,-134.1"/>
</g>
<!-- legend_4 -->
<g id="node29" class="node">
<title>legend_4</title>
<polygon fill="#b9d3ee" stroke="black" points="3028.4,-124 2807.4,-124 2807.4,-88 3028.4,-88 3028.4,-124"/>
<text text-anchor="middle" x="2917.9" y="-102.3" font-family="Times,serif" font-size="14.00">DT=5 ST=1 Similarity=0.66</text>
</g>
<!-- legend_3&#45;&gt;legend_4 -->
<g id="edge39" class="edge">
<title>legend_3&#45;&gt;legend_4</title>
<path fill="none" stroke="black" d="M2917.9,-159.7C2917.9,-151.98 2917.9,-142.71 2917.9,-134.11"/>
<polygon fill="black" stroke="black" points="2921.4,-134.1 2917.9,-124.1 2914.4,-134.1 2921.4,-134.1"/>
</g>
<!-- 51 -->
<g id="node31" class="node">
<title>51</title>
<ellipse fill="#b9d3ee" stroke="black" cx="1807.9" cy="-34" rx="16.8" ry="18"/>
<text text-anchor="middle" x="1807.9" y="-30.3" font-family="Times,serif" font-size="14.00">1</text>
</g>
<!-- 40&#45;&gt;51 -->
<g id="edge41" class="edge">
<title>40&#45;&gt;51</title>
<path fill="none" stroke="black" d="M1735.81,-94.37C1749.41,-83.16 1771.05,-65.35 1787.07,-52.15"/>
<polygon fill="black" stroke="black" points="1789.37,-54.79 1794.87,-45.73 1784.92,-49.39 1789.37,-54.79"/>
</g>
<!-- 58 -->
<g id="node38" class="node">
<title>58</title>
<ellipse fill="#b9d3ee" stroke="black" cx="1703.9" cy="-34" rx="16.8" ry="18"/>
<text text-anchor="middle" x="1703.9" y="-30.3" font-family="Times,serif" font-size="14.00">1</text>
</g>
<!-- 40&#45;&gt;58 -->
<g id="edge48" class="edge">
<title>40&#45;&gt;58</title>
<path fill="none" stroke="black" d="M1718.4,-88.41C1716.2,-80.3 1713.49,-70.35 1711.02,-61.25"/>
<polygon fill="black" stroke="black" points="1714.37,-60.2 1708.37,-51.47 1707.61,-62.04 1714.37,-60.2"/>
</g>
<!-- 59 -->
<g id="node39" class="node">
<title>59</title>
<ellipse fill="#b9d3ee" stroke="black" cx="1755.9" cy="-34" rx="16.8" ry="18"/>
<text text-anchor="middle" x="1755.9" y="-30.3" font-family="Times,serif" font-size="14.00">1</text>
</g>
<!-- 40&#45;&gt;59 -->
<g id="edge49" class="edge">
<title>40&#45;&gt;59</title>
<path fill="none" stroke="black" d="M1730.22,-89.46C1734.32,-80.76 1739.53,-69.71 1744.19,-59.84"/>
<polygon fill="black" stroke="black" points="1747.5,-61.03 1748.6,-50.49 1741.17,-58.04 1747.5,-61.03"/>
</g>
<!-- 511 -->
<g id="node41" class="node">
<title>511</title>
<ellipse fill="#b9d3ee" stroke="black" cx="1547.9" cy="-34" rx="16.8" ry="18"/>
<text text-anchor="middle" x="1547.9" y="-30.3" font-family="Times,serif" font-size="14.00">1</text>
</g>
<!-- 41&#45;&gt;511 -->
<g id="edge51" class="edge">
<title>41&#45;&gt;511</title>
<path fill="none" stroke="black" d="M1568,-89.12C1564.89,-80.73 1560.99,-70.24 1557.46,-60.73"/>
<polygon fill="black" stroke="black" points="1560.72,-59.46 1553.96,-51.31 1554.16,-61.9 1560.72,-59.46"/>
</g>
<!-- 512 -->
<g id="node42" class="node">
<title>512</title>
<ellipse fill="#b9d3ee" stroke="black" cx="1599.9" cy="-34" rx="16.8" ry="18"/>
<text text-anchor="middle" x="1599.9" y="-30.3" font-family="Times,serif" font-size="14.00">1</text>
</g>
<!-- 41&#45;&gt;512 -->
<g id="edge52" class="edge">
<title>41&#45;&gt;512</title>
<path fill="none" stroke="black" d="M1579.8,-89.12C1582.91,-80.73 1586.81,-70.24 1590.34,-60.73"/>
<polygon fill="black" stroke="black" points="1593.64,-61.9 1593.84,-51.31 1587.08,-59.46 1593.64,-61.9"/>
</g>
<!-- 515 -->
<g id="node45" class="node">
<title>515</title>
<ellipse fill="#b9d3ee" stroke="black" cx="1651.9" cy="-34" rx="16.8" ry="18"/>
<text text-anchor="middle" x="1651.9" y="-30.3" font-family="Times,serif" font-size="14.00">1</text>
</g>
<!-- 41&#45;&gt;515 -->
<g id="edge55" class="edge">
<title>41&#45;&gt;515</title>
<path fill="none" stroke="black" d="M1586.43,-93.75C1598.6,-82.83 1617.27,-66.07 1631.57,-53.24"/>
<polygon fill="black" stroke="black" points="1634.29,-55.5 1639.4,-46.22 1629.62,-50.29 1634.29,-55.5"/>
</g>
<!-- 510 -->
<g id="node40" class="node">
<title>510</title>
<ellipse fill="#b9d3ee" stroke="black" cx="2541.9" cy="-34" rx="16.8" ry="18"/>
<text text-anchor="middle" x="2541.9" y="-30.3" font-family="Times,serif" font-size="14.00">1</text>
</g>
<!-- 42&#45;&gt;510 -->
<g id="edge50" class="edge">
<title>42&#45;&gt;510</title>
<path fill="none" stroke="black" d="M2455.78,-91.34C2474.08,-79.37 2500.6,-62.02 2519.36,-49.74"/>
<polygon fill="black" stroke="black" points="2521.43,-52.57 2527.88,-44.17 2517.6,-46.71 2521.43,-52.57"/>
</g>
<!-- 517 -->
<g id="node47" class="node">
<title>517</title>
<ellipse fill="#b9d3ee" stroke="black" cx="2399.9" cy="-34" rx="16.8" ry="18"/>
<text text-anchor="middle" x="2399.9" y="-30.3" font-family="Times,serif" font-size="14.00">2</text>
</g>
<!-- 42&#45;&gt;517 -->
<g id="edge57" class="edge">
<title>42&#45;&gt;517</title>
<path fill="none" stroke="black" d="M2426.6,-88.41C2422.3,-79.8 2416.95,-69.11 2412.18,-59.56"/>
<polygon fill="black" stroke="black" points="2415.26,-57.89 2407.65,-50.51 2409,-61.02 2415.26,-57.89"/>
</g>
<!-- 545 -->
<g id="node75" class="node">
<title>545</title>
<ellipse fill="#b9d3ee" stroke="black" cx="2470.9" cy="-34" rx="36" ry="18"/>
<text text-anchor="middle" x="2470.9" y="-30.3" font-family="Times,serif" font-size="14.00">324</text>
</g>
<!-- 42&#45;&gt;545 -->
<g id="edge85" class="edge">
<title>42&#45;&gt;545</title>
<path fill="none" stroke="black" d="M2443.43,-88.41C2447.63,-80.25 2452.79,-70.22 2457.49,-61.07"/>
<polygon fill="black" stroke="black" points="2460.72,-62.45 2462.18,-51.96 2454.49,-59.25 2460.72,-62.45"/>
</g>
<!-- 514 -->
<g id="node44" class="node">
<title>514</title>
<ellipse fill="#b9d3ee" stroke="black" cx="746.9" cy="-34" rx="16.8" ry="18"/>
<text text-anchor="middle" x="746.9" y="-30.3" font-family="Times,serif" font-size="14.00">1</text>
</g>
<!-- 43&#45;&gt;514 -->
<g id="edge54" class="edge">
<title>43&#45;&gt;514</title>
<path fill="none" stroke="black" d="M897.5,-96.85C865.33,-87.93 814.3,-72.17 772.9,-52 771.73,-51.43 770.54,-50.81 769.36,-50.17"/>
<polygon fill="black" stroke="black" points="770.92,-47.02 760.55,-44.85 767.3,-53.01 770.92,-47.02"/>
</g>
<!-- 519 -->
<g id="node49" class="node">
<title>519</title>
<ellipse fill="#b9d3ee" stroke="black" cx="798.9" cy="-34" rx="16.8" ry="18"/>
<text text-anchor="middle" x="798.9" y="-30.3" font-family="Times,serif" font-size="14.00">2</text>
</g>
<!-- 43&#45;&gt;519 -->
<g id="edge59" class="edge">
<title>43&#45;&gt;519</title>
<path fill="none" stroke="black" d="M903.7,-93.1C882.38,-82.82 851.2,-67.24 824.9,-52 823.77,-51.35 822.62,-50.66 821.47,-49.96"/>
<polygon fill="black" stroke="black" points="823.08,-46.84 812.76,-44.46 819.34,-52.76 823.08,-46.84"/>
</g>
<!-- 520 -->
<g id="node50" class="node">
<title>520</title>
<ellipse fill="#b9d3ee" stroke="black" cx="850.9" cy="-34" rx="16.8" ry="18"/>
<text text-anchor="middle" x="850.9" y="-30.3" font-family="Times,serif" font-size="14.00">2</text>
</g>
<!-- 43&#45;&gt;520 -->
<g id="edge60" class="edge">
<title>43&#45;&gt;520</title>
<path fill="none" stroke="black" d="M911.97,-89.81C900.07,-79.12 884.06,-64.76 871.42,-53.42"/>
<polygon fill="black" stroke="black" points="873.46,-50.55 863.68,-46.47 868.79,-55.76 873.46,-50.55"/>
</g>
<!-- 522 -->
<g id="node52" class="node">
<title>522</title>
<ellipse fill="#b9d3ee" stroke="black" cx="902.9" cy="-34" rx="16.8" ry="18"/>
<text text-anchor="middle" x="902.9" y="-30.3" font-family="Times,serif" font-size="14.00">3</text>
</g>
<!-- 43&#45;&gt;522 -->
<g id="edge62" class="edge">
<title>43&#45;&gt;522</title>
<path fill="none" stroke="black" d="M922.6,-88.05C919.56,-79.85 915.84,-69.83 912.45,-60.71"/>
<polygon fill="black" stroke="black" points="915.72,-59.46 908.96,-51.31 909.16,-61.9 915.72,-59.46"/>
</g>
<!-- 525 -->
<g id="node55" class="node">
<title>525</title>
<ellipse fill="#b9d3ee" stroke="black" cx="954.9" cy="-34" rx="16.8" ry="18"/>
<text text-anchor="middle" x="954.9" y="-30.3" font-family="Times,serif" font-size="14.00">5</text>
</g>
<!-- 43&#45;&gt;525 -->
<g id="edge65" class="edge">
<title>43&#45;&gt;525</title>
<path fill="none" stroke="black" d="M935.19,-88.05C938.24,-79.85 941.96,-69.83 945.35,-60.71"/>
<polygon fill="black" stroke="black" points="948.64,-61.9 948.84,-51.31 942.08,-59.46 948.64,-61.9"/>
</g>
<!-- 528 -->
<g id="node58" class="node">
<title>528</title>
<ellipse fill="#b9d3ee" stroke="black" cx="1006.9" cy="-34" rx="16.8" ry="18"/>
<text text-anchor="middle" x="1006.9" y="-30.3" font-family="Times,serif" font-size="14.00">6</text>
</g>
<!-- 43&#45;&gt;528 -->
<g id="edge68" class="edge">
<title>43&#45;&gt;528</title>
<path fill="none" stroke="black" d="M945.82,-89.81C957.73,-79.12 973.73,-64.76 986.37,-53.42"/>
<polygon fill="black" stroke="black" points="989.01,-55.76 994.11,-46.47 984.33,-50.55 989.01,-55.76"/>
</g>
<!-- 541 -->
<g id="node71" class="node">
<title>541</title>
<ellipse fill="#b9d3ee" stroke="black" cx="1064.9" cy="-34" rx="23" ry="18"/>
<text text-anchor="middle" x="1064.9" y="-30.3" font-family="Times,serif" font-size="14.00">94</text>
</g>
<!-- 43&#45;&gt;541 -->
<g id="edge81" class="edge">
<title>43&#45;&gt;541</title>
<path fill="none" stroke="black" d="M953.33,-92.69C974.45,-82.03 1005.75,-66.13 1032.9,-52 1034.43,-51.2 1036.01,-50.38 1037.59,-49.54"/>
<polygon fill="black" stroke="black" points="1039.44,-52.53 1046.65,-44.76 1036.17,-46.34 1039.44,-52.53"/>
</g>
<!-- 544 -->
<g id="node74" class="node">
<title>544</title>
<ellipse fill="#b9d3ee" stroke="black" cx="675.9" cy="-34" rx="36" ry="18"/>
<text text-anchor="middle" x="675.9" y="-30.3" font-family="Times,serif" font-size="14.00">290</text>
</g>
<!-- 43&#45;&gt;544 -->
<g id="edge84" class="edge">
<title>43&#45;&gt;544</title>
<path fill="none" stroke="black" d="M896.52,-97.93C855.33,-88.67 782.21,-71.32 720.9,-52 718.3,-51.18 715.63,-50.29 712.96,-49.37"/>
<polygon fill="black" stroke="black" points="713.93,-46 703.33,-45.92 711.57,-52.59 713.93,-46"/>
</g>
<!-- 56 -->
<g id="node36" class="node">
<title>56</title>
<ellipse fill="#b9d3ee" stroke="black" cx="396.9" cy="-34" rx="16.8" ry="18"/>
<text text-anchor="middle" x="396.9" y="-30.3" font-family="Times,serif" font-size="14.00">1</text>
</g>
<!-- 44&#45;&gt;56 -->
<g id="edge46" class="edge">
<title>44&#45;&gt;56</title>
<path fill="none" stroke="black" d="M373.4,-88.05C377.13,-79.65 381.7,-69.32 385.82,-60.02"/>
<polygon fill="black" stroke="black" points="389.04,-61.39 389.89,-50.83 382.64,-58.56 389.04,-61.39"/>
</g>
<!-- 57 -->
<g id="node37" class="node">
<title>57</title>
<ellipse fill="#b9d3ee" stroke="black" cx="448.9" cy="-34" rx="16.8" ry="18"/>
<text text-anchor="middle" x="448.9" y="-30.3" font-family="Times,serif" font-size="14.00">1</text>
</g>
<!-- 44&#45;&gt;57 -->
<g id="edge47" class="edge">
<title>44&#45;&gt;57</title>
<path fill="none" stroke="black" d="M383.5,-90.15C396.5,-79.19 414.26,-64.21 427.99,-52.64"/>
<polygon fill="black" stroke="black" points="430.55,-55.06 435.94,-45.93 426.03,-49.7 430.55,-55.06"/>
</g>
<!-- 518 -->
<g id="node48" class="node">
<title>518</title>
<ellipse fill="#b9d3ee" stroke="black" cx="500.9" cy="-34" rx="16.8" ry="18"/>
<text text-anchor="middle" x="500.9" y="-30.3" font-family="Times,serif" font-size="14.00">2</text>
</g>
<!-- 44&#45;&gt;518 -->
<g id="edge58" class="edge">
<title>44&#45;&gt;518</title>
<path fill="none" stroke="black" d="M391.92,-93.48C414.3,-83.3 447.26,-67.67 474.9,-52 476.03,-51.36 477.19,-50.68 478.34,-49.99"/>
<polygon fill="black" stroke="black" points="480.46,-52.79 487.07,-44.51 476.74,-46.86 480.46,-52.79"/>
</g>
<!-- 523 -->
<g id="node53" class="node">
<title>523</title>
<ellipse fill="#b9d3ee" stroke="black" cx="552.9" cy="-34" rx="16.8" ry="18"/>
<text text-anchor="middle" x="552.9" y="-30.3" font-family="Times,serif" font-size="14.00">3</text>
</g>
<!-- 44&#45;&gt;523 -->
<g id="edge63" class="edge">
<title>44&#45;&gt;523</title>
<path fill="none" stroke="black" d="M397.4,-97.25C430.55,-88.5 483.81,-72.74 526.9,-52 528.07,-51.43 529.26,-50.82 530.44,-50.18"/>
<polygon fill="black" stroke="black" points="532.5,-53.03 539.26,-44.87 528.89,-47.03 532.5,-53.03"/>
</g>
<!-- 524 -->
<g id="node54" class="node">
<title>524</title>
<ellipse fill="#b9d3ee" stroke="black" cx="604.9" cy="-34" rx="16.8" ry="18"/>
<text text-anchor="middle" x="604.9" y="-30.3" font-family="Times,serif" font-size="14.00">4</text>
</g>
<!-- 44&#45;&gt;524 -->
<g id="edge64" class="edge">
<title>44&#45;&gt;524</title>
<path fill="none" stroke="black" d="M400.24,-100.09C443.32,-93.13 518.83,-78.21 578.9,-52 580.09,-51.48 581.3,-50.9 582.49,-50.29"/>
<polygon fill="black" stroke="black" points="584.51,-53.17 591.35,-45.08 580.96,-47.13 584.51,-53.17"/>
</g>
<!-- 526 -->
<g id="node56" class="node">
<title>526</title>
<ellipse fill="#b9d3ee" stroke="black" cx="16.9" cy="-34" rx="16.8" ry="18"/>
<text text-anchor="middle" x="16.9" y="-30.3" font-family="Times,serif" font-size="14.00">6</text>
</g>
<!-- 44&#45;&gt;526 -->
<g id="edge66" class="edge">
<title>44&#45;&gt;526</title>
<path fill="none" stroke="black" d="M329.74,-103.92C268.64,-101.04 141.94,-90.51 42.9,-52 41.68,-51.53 40.46,-50.99 39.26,-50.41"/>
<polygon fill="black" stroke="black" points="40.77,-47.24 30.35,-45.31 37.29,-53.32 40.77,-47.24"/>
</g>
<!-- 531 -->
<g id="node61" class="node">
<title>531</title>
<ellipse fill="#b9d3ee" stroke="black" cx="68.9" cy="-34" rx="16.8" ry="18"/>
<text text-anchor="middle" x="68.9" y="-30.3" font-family="Times,serif" font-size="14.00">9</text>
</g>
<!-- 44&#45;&gt;531 -->
<g id="edge71" class="edge">
<title>44&#45;&gt;531</title>
<path fill="none" stroke="black" d="M330.45,-102.43C277.47,-97.64 175.28,-84.68 94.9,-52 93.69,-51.51 92.48,-50.96 91.27,-50.37"/>
<polygon fill="black" stroke="black" points="92.79,-47.2 82.38,-45.22 89.29,-53.26 92.79,-47.2"/>
</g>
<!-- 533 -->
<g id="node63" class="node">
<title>533</title>
<ellipse fill="#b9d3ee" stroke="black" cx="126.9" cy="-34" rx="23" ry="18"/>
<text text-anchor="middle" x="126.9" y="-30.3" font-family="Times,serif" font-size="14.00">13</text>
</g>
<!-- 44&#45;&gt;533 -->
<g id="edge73" class="edge">
<title>44&#45;&gt;533</title>
<path fill="none" stroke="black" d="M332.31,-99.15C290.5,-91.26 217.35,-75.44 157.9,-52 156.51,-51.45 155.1,-50.85 153.69,-50.22"/>
<polygon fill="black" stroke="black" points="155.07,-47 144.56,-45.68 151.96,-53.27 155.07,-47"/>
</g>
<!-- 540 -->
<g id="node70" class="node">
<title>540</title>
<ellipse fill="#b9d3ee" stroke="black" cx="189.9" cy="-34" rx="23" ry="18"/>
<text text-anchor="middle" x="189.9" y="-30.3" font-family="Times,serif" font-size="14.00">36</text>
</g>
<!-- 44&#45;&gt;540 -->
<g id="edge80" class="edge">
<title>44&#45;&gt;540</title>
<path fill="none" stroke="black" d="M336.22,-95.62C306.53,-85.89 259.83,-69.67 220.9,-52 219.54,-51.38 218.15,-50.73 216.76,-50.05"/>
<polygon fill="black" stroke="black" points="218.19,-46.84 207.7,-45.36 214.97,-53.06 218.19,-46.84"/>
</g>
<!-- 542 -->
<g id="node72" class="node">
<title>542</title>
<ellipse fill="#b9d3ee" stroke="black" cx="258.9" cy="-34" rx="28.7" ry="18"/>
<text text-anchor="middle" x="258.9" y="-30.3" font-family="Times,serif" font-size="14.00">124</text>
</g>
<!-- 44&#45;&gt;542 -->
<g id="edge82" class="edge">
<title>44&#45;&gt;542</title>
<path fill="none" stroke="black" d="M345.01,-91.34C328.29,-80.4 304.69,-64.96 286.42,-53.01"/>
<polygon fill="black" stroke="black" points="288.22,-50 277.94,-47.45 284.39,-55.86 288.22,-50"/>
</g>
<!-- 543 -->
<g id="node73" class="node">
<title>543</title>
<ellipse fill="#b9d3ee" stroke="black" cx="333.9" cy="-34" rx="28.7" ry="18"/>
<text text-anchor="middle" x="333.9" y="-30.3" font-family="Times,serif" font-size="14.00">200</text>
</g>
<!-- 44&#45;&gt;543 -->
<g id="edge83" class="edge">
<title>44&#45;&gt;543</title>
<path fill="none" stroke="black" d="M358.15,-88.05C354.46,-79.97 349.95,-70.12 345.84,-61.11"/>
<polygon fill="black" stroke="black" points="348.91,-59.43 341.57,-51.79 342.55,-62.34 348.91,-59.43"/>
</g>
<!-- 53 -->
<g id="node33" class="node">
<title>53</title>
<ellipse fill="#b9d3ee" stroke="black" cx="1212.9" cy="-34" rx="16.8" ry="18"/>
<text text-anchor="middle" x="1212.9" y="-30.3" font-family="Times,serif" font-size="14.00">1</text>
</g>
<!-- 45&#45;&gt;53 -->
<g id="edge43" class="edge">
<title>45&#45;&gt;53</title>
<path fill="none" stroke="black" d="M1252.84,-88.76C1245.81,-79.3 1236.84,-67.23 1229.19,-56.93"/>
<polygon fill="black" stroke="black" points="1231.91,-54.73 1223.14,-48.79 1226.29,-58.9 1231.91,-54.73"/>
</g>
<!-- 54 -->
<g id="node34" class="node">
<title>54</title>
<ellipse fill="#b9d3ee" stroke="black" cx="1264.9" cy="-34" rx="16.8" ry="18"/>
<text text-anchor="middle" x="1264.9" y="-30.3" font-family="Times,serif" font-size="14.00">1</text>
</g>
<!-- 45&#45;&gt;54 -->
<g id="edge44" class="edge">
<title>45&#45;&gt;54</title>
<path fill="none" stroke="black" d="M1264.9,-87.7C1264.9,-79.98 1264.9,-70.71 1264.9,-62.11"/>
<polygon fill="black" stroke="black" points="1268.4,-62.1 1264.9,-52.1 1261.4,-62.1 1268.4,-62.1"/>
</g>
<!-- 530 -->
<g id="node60" class="node">
<title>530</title>
<ellipse fill="#b9d3ee" stroke="black" cx="1316.9" cy="-34" rx="16.8" ry="18"/>
<text text-anchor="middle" x="1316.9" y="-30.3" font-family="Times,serif" font-size="14.00">9</text>
</g>
<!-- 45&#45;&gt;530 -->
<g id="edge70" class="edge">
<title>45&#45;&gt;530</title>
<path fill="none" stroke="black" d="M1276.96,-88.76C1283.99,-79.3 1292.95,-67.23 1300.61,-56.93"/>
<polygon fill="black" stroke="black" points="1303.5,-58.9 1306.66,-48.79 1297.88,-54.73 1303.5,-58.9"/>
</g>
<!-- 547 -->
<g id="node77" class="node">
<title>547</title>
<ellipse fill="#b9d3ee" stroke="black" cx="1141.9" cy="-34" rx="36" ry="18"/>
<text text-anchor="middle" x="1141.9" y="-30.3" font-family="Times,serif" font-size="14.00">358</text>
</g>
<!-- 45&#45;&gt;547 -->
<g id="edge87" class="edge">
<title>45&#45;&gt;547</title>
<path fill="none" stroke="black" d="M1242.05,-92C1222.84,-81.07 1195.17,-65.32 1173.78,-53.14"/>
<polygon fill="black" stroke="black" points="1175.46,-50.07 1165.04,-48.17 1172,-56.16 1175.46,-50.07"/>
</g>
<!-- 50 -->
<g id="node30" class="node">
<title>50</title>
<ellipse fill="#b9d3ee" stroke="black" cx="2347.9" cy="-34" rx="16.8" ry="18"/>
<text text-anchor="middle" x="2347.9" y="-30.3" font-family="Times,serif" font-size="14.00">1</text>
</g>
<!-- 46&#45;&gt;50 -->
<g id="edge40" class="edge">
<title>46&#45;&gt;50</title>
<path fill="none" stroke="black" d="M2080.69,-102.61C2134.71,-98.02 2239.51,-85.3 2321.9,-52 2323.11,-51.51 2324.32,-50.96 2325.53,-50.37"/>
<polygon fill="black" stroke="black" points="2327.51,-53.27 2334.42,-45.23 2324.01,-47.21 2327.51,-53.27"/>
</g>
<!-- 55 -->
<g id="node35" class="node">
<title>55</title>
<ellipse fill="#b9d3ee" stroke="black" cx="1859.9" cy="-34" rx="16.8" ry="18"/>
<text text-anchor="middle" x="1859.9" y="-30.3" font-family="Times,serif" font-size="14.00">1</text>
</g>
<!-- 46&#45;&gt;55 -->
<g id="edge45" class="edge">
<title>46&#45;&gt;55</title>
<path fill="none" stroke="black" d="M2013.49,-97.11C1980.73,-88.29 1928.34,-72.52 1885.9,-52 1884.72,-51.43 1883.54,-50.82 1882.36,-50.18"/>
<polygon fill="black" stroke="black" points="1883.91,-47.03 1873.54,-44.86 1880.3,-53.02 1883.91,-47.03"/>
</g>
<!-- 513 -->
<g id="node43" class="node">
<title>513</title>
<ellipse fill="#b9d3ee" stroke="black" cx="1911.9" cy="-34" rx="16.8" ry="18"/>
<text text-anchor="middle" x="1911.9" y="-30.3" font-family="Times,serif" font-size="14.00">1</text>
</g>
<!-- 46&#45;&gt;513 -->
<g id="edge53" class="edge">
<title>46&#45;&gt;513</title>
<path fill="none" stroke="black" d="M2018.94,-93.2C1996.99,-82.98 1964.89,-67.44 1937.9,-52 1936.77,-51.35 1935.62,-50.68 1934.46,-49.98"/>
<polygon fill="black" stroke="black" points="1936.07,-46.86 1925.74,-44.49 1932.34,-52.78 1936.07,-46.86"/>
</g>
<!-- 521 -->
<g id="node51" class="node">
<title>521</title>
<ellipse fill="#b9d3ee" stroke="black" cx="1963.9" cy="-34" rx="16.8" ry="18"/>
<text text-anchor="middle" x="1963.9" y="-30.3" font-family="Times,serif" font-size="14.00">2</text>
</g>
<!-- 46&#45;&gt;521 -->
<g id="edge61" class="edge">
<title>46&#45;&gt;521</title>
<path fill="none" stroke="black" d="M2027.72,-90.15C2015.11,-79.25 1997.91,-64.4 1984.55,-52.85"/>
<polygon fill="black" stroke="black" points="1986.66,-50.04 1976.8,-46.15 1982.08,-55.34 1986.66,-50.04"/>
</g>
<!-- 527 -->
<g id="node57" class="node">
<title>527</title>
<ellipse fill="#b9d3ee" stroke="black" cx="2015.9" cy="-34" rx="16.8" ry="18"/>
<text text-anchor="middle" x="2015.9" y="-30.3" font-family="Times,serif" font-size="14.00">6</text>
</g>
<!-- 46&#45;&gt;527 -->
<g id="edge67" class="edge">
<title>46&#45;&gt;527</title>
<path fill="none" stroke="black" d="M2037.88,-88.05C2034.43,-79.73 2030.21,-69.54 2026.39,-60.32"/>
<polygon fill="black" stroke="black" points="2029.52,-58.73 2022.46,-50.83 2023.05,-61.41 2029.52,-58.73"/>
</g>
<!-- 532 -->
<g id="node62" class="node">
<title>532</title>
<ellipse fill="#b9d3ee" stroke="black" cx="2073.9" cy="-34" rx="23" ry="18"/>
<text text-anchor="middle" x="2073.9" y="-30.3" font-family="Times,serif" font-size="14.00">11</text>
</g>
<!-- 46&#45;&gt;532 -->
<g id="edge72" class="edge">
<title>46&#45;&gt;532</title>
<path fill="none" stroke="black" d="M2051.92,-88.05C2055.32,-79.85 2059.47,-69.83 2063.25,-60.71"/>
<polygon fill="black" stroke="black" points="2066.55,-61.89 2067.14,-51.31 2060.08,-59.21 2066.55,-61.89"/>
</g>
<!-- 536 -->
<g id="node66" class="node">
<title>536</title>
<ellipse fill="#b9d3ee" stroke="black" cx="2136.9" cy="-34" rx="23" ry="18"/>
<text text-anchor="middle" x="2136.9" y="-30.3" font-family="Times,serif" font-size="14.00">15</text>
</g>
<!-- 46&#45;&gt;536 -->
<g id="edge76" class="edge">
<title>46&#45;&gt;536</title>
<path fill="none" stroke="black" d="M2063.96,-90.5C2078.17,-79.68 2097.68,-64.84 2112.94,-53.23"/>
<polygon fill="black" stroke="black" points="2115.09,-55.99 2120.93,-47.15 2110.85,-50.42 2115.09,-55.99"/>
</g>
<!-- 537 -->
<g id="node67" class="node">
<title>537</title>
<ellipse fill="#b9d3ee" stroke="black" cx="2199.9" cy="-34" rx="23" ry="18"/>
<text text-anchor="middle" x="2199.9" y="-30.3" font-family="Times,serif" font-size="14.00">21</text>
</g>
<!-- 46&#45;&gt;537 -->
<g id="edge77" class="edge">
<title>46&#45;&gt;537</title>
<path fill="none" stroke="black" d="M2072.33,-94.17C2097.69,-83.96 2136.27,-67.87 2168.9,-52 2170.24,-51.35 2171.61,-50.66 2172.99,-49.96"/>
<polygon fill="black" stroke="black" points="2174.82,-52.96 2182.02,-45.19 2171.55,-46.77 2174.82,-52.96"/>
</g>
<!-- 546 -->
<g id="node76" class="node">
<title>546</title>
<ellipse fill="#b9d3ee" stroke="black" cx="2276.9" cy="-34" rx="36" ry="18"/>
<text text-anchor="middle" x="2276.9" y="-30.3" font-family="Times,serif" font-size="14.00">349</text>
</g>
<!-- 46&#45;&gt;546 -->
<g id="edge86" class="edge">
<title>46&#45;&gt;546</title>
<path fill="none" stroke="black" d="M2076.25,-96.99C2113.59,-87.24 2177.74,-69.87 2231.9,-52 2234.49,-51.15 2237.14,-50.23 2239.81,-49.29"/>
<polygon fill="black" stroke="black" points="2241.22,-52.51 2249.42,-45.8 2238.83,-45.93 2241.22,-52.51"/>
</g>
<!-- 52 -->
<g id="node32" class="node">
<title>52</title>
<ellipse fill="#b9d3ee" stroke="black" cx="1368.9" cy="-34" rx="16.8" ry="18"/>
<text text-anchor="middle" x="1368.9" y="-30.3" font-family="Times,serif" font-size="14.00">1</text>
</g>
<!-- 47&#45;&gt;52 -->
<g id="edge42" class="edge">
<title>47&#45;&gt;52</title>
<path fill="none" stroke="black" d="M1442.4,-92.81C1428.02,-81.5 1406.51,-64.58 1390.46,-51.96"/>
<polygon fill="black" stroke="black" points="1392.22,-48.89 1382.19,-45.46 1387.89,-54.39 1392.22,-48.89"/>
</g>
<!-- 534 -->
<g id="node64" class="node">
<title>534</title>
<ellipse fill="#b9d3ee" stroke="black" cx="1426.9" cy="-34" rx="23" ry="18"/>
<text text-anchor="middle" x="1426.9" y="-30.3" font-family="Times,serif" font-size="14.00">14</text>
</g>
<!-- 47&#45;&gt;534 -->
<g id="edge74" class="edge">
<title>47&#45;&gt;534</title>
<path fill="none" stroke="black" d="M1450.71,-88.76C1446.99,-80.37 1442.37,-69.93 1438.19,-60.5"/>
<polygon fill="black" stroke="black" points="1441.3,-58.87 1434.05,-51.15 1434.9,-61.71 1441.3,-58.87"/>
</g>
<!-- 535 -->
<g id="node65" class="node">
<title>535</title>
<ellipse fill="#b9d3ee" stroke="black" cx="1489.9" cy="-34" rx="23" ry="18"/>
<text text-anchor="middle" x="1489.9" y="-30.3" font-family="Times,serif" font-size="14.00">15</text>
</g>
<!-- 47&#45;&gt;535 -->
<g id="edge75" class="edge">
<title>47&#45;&gt;535</title>
<path fill="none" stroke="black" d="M1465.32,-88.76C1469.16,-80.37 1473.93,-69.93 1478.24,-60.5"/>
<polygon fill="black" stroke="black" points="1481.54,-61.7 1482.52,-51.15 1475.18,-58.79 1481.54,-61.7"/>
</g>
<!-- 516 -->
<g id="node46" class="node">
<title>516</title>
<ellipse fill="#b9d3ee" stroke="black" cx="2772.9" cy="-34" rx="16.8" ry="18"/>
<text text-anchor="middle" x="2772.9" y="-30.3" font-family="Times,serif" font-size="14.00">1</text>
</g>
<!-- 48&#45;&gt;516 -->
<g id="edge56" class="edge">
<title>48&#45;&gt;516</title>
<path fill="none" stroke="black" d="M2670.33,-95.22C2689.63,-84.85 2720.72,-67.83 2746.9,-52 2748.01,-51.32 2749.15,-50.63 2750.3,-49.91"/>
<polygon fill="black" stroke="black" points="2752.44,-52.7 2758.98,-44.36 2748.67,-46.8 2752.44,-52.7"/>
</g>
<!-- 529 -->
<g id="node59" class="node">
<title>529</title>
<ellipse fill="#b9d3ee" stroke="black" cx="2593.9" cy="-34" rx="16.8" ry="18"/>
<text text-anchor="middle" x="2593.9" y="-30.3" font-family="Times,serif" font-size="14.00">7</text>
</g>
<!-- 48&#45;&gt;529 -->
<g id="edge69" class="edge">
<title>48&#45;&gt;529</title>
<path fill="none" stroke="black" d="M2639.88,-90.5C2631.63,-80.54 2620.55,-67.17 2611.33,-56.04"/>
<polygon fill="black" stroke="black" points="2613.8,-53.54 2604.73,-48.07 2608.41,-58 2613.8,-53.54"/>
</g>
<!-- 538 -->
<g id="node68" class="node">
<title>538</title>
<ellipse fill="#b9d3ee" stroke="black" cx="2651.9" cy="-34" rx="23" ry="18"/>
<text text-anchor="middle" x="2651.9" y="-30.3" font-family="Times,serif" font-size="14.00">23</text>
</g>
<!-- 48&#45;&gt;538 -->
<g id="edge78" class="edge">
<title>48&#45;&gt;538</title>
<path fill="none" stroke="black" d="M2651.9,-87.7C2651.9,-79.98 2651.9,-70.71 2651.9,-62.11"/>
<polygon fill="black" stroke="black" points="2655.4,-62.1 2651.9,-52.1 2648.4,-62.1 2655.4,-62.1"/>
</g>
<!-- 539 -->
<g id="node69" class="node">
<title>539</title>
<ellipse fill="#b9d3ee" stroke="black" cx="2714.9" cy="-34" rx="23" ry="18"/>
<text text-anchor="middle" x="2714.9" y="-30.3" font-family="Times,serif" font-size="14.00">28</text>
</g>
<!-- 48&#45;&gt;539 -->
<g id="edge79" class="edge">
<title>48&#45;&gt;539</title>
<path fill="none" stroke="black" d="M2664.65,-90.83C2673.44,-81.06 2685.3,-67.88 2695.3,-56.78"/>
<polygon fill="black" stroke="black" points="2698.08,-58.92 2702.17,-49.14 2692.88,-54.24 2698.08,-58.92"/>
</g>
<!-- legend_5 -->
<g id="node78" class="node">
<title>legend_5</title>
<polygon fill="#b9d3ee" stroke="black" points="3028.4,-52 2807.4,-52 2807.4,-16 3028.4,-16 3028.4,-52"/>
<text text-anchor="middle" x="2917.9" y="-30.3" font-family="Times,serif" font-size="14.00">DT=6 ST=1 Similarity=0.51</text>
</g>
<!-- legend_4&#45;&gt;legend_5 -->
<g id="edge88" class="edge">
<title>legend_4&#45;&gt;legend_5</title>
<path fill="none" stroke="black" d="M2917.9,-87.7C2917.9,-79.98 2917.9,-70.71 2917.9,-62.11"/>
<polygon fill="black" stroke="black" points="2921.4,-62.1 2917.9,-52.1 2914.4,-62.1 2921.4,-62.1"/>
</g>
</g>
</svg>
