<?xml version="1.0" encoding="UTF-8" standalone="no"?>
<!DOCTYPE svg PUBLIC "-//W3C//DTD SVG 1.1//EN"
 "http://www.w3.org/Graphics/SVG/1.1/DTD/svg11.dtd">
<!-- Generated by graphviz version 2.43.0 (0)
 -->
<!-- Title: %3 Pages: 1 -->
<svg width="2545pt" height="497pt"
 viewBox="0.00 0.00 2544.90 497.00" xmlns="http://www.w3.org/2000/svg" xmlns:xlink="http://www.w3.org/1999/xlink">
<g id="graph0" class="graph" transform="scale(1 1) rotate(0) translate(4 493)">
<title>%3</title>
<polygon fill="white" stroke="transparent" points="-4,4 -4,-493 2540.9,-493 2540.9,4 -4,4"/>
<text text-anchor="middle" x="1268.45" y="-473.8" font-family="Times,serif" font-size="14.00">ConsTree</text>
<text text-anchor="middle" x="1268.45" y="-458.8" font-family="Times,serif" font-size="14.00">Tree Quality = 1</text>
<g id="clust1" class="cluster">
<title>cluster</title>
<polygon fill="none" stroke="black" points="2292.9,-8 2292.9,-443 2528.9,-443 2528.9,-8 2292.9,-8"/>
<text text-anchor="middle" x="2410.9" y="-427.8" font-family="Times,serif" font-size="14.00">Legend</text>
</g>
<!-- 00 -->
<g id="node1" class="node">
<title>00</title>
<ellipse fill="#b9d3ee" stroke="black" cx="1113.9" cy="-394" rx="144" ry="18"/>
<text text-anchor="middle" x="1113.9" y="-390.3" font-family="Times,serif" font-size="14.00">906</text>
</g>
<!-- 11 -->
<g id="node5" class="node">
<title>11</title>
<ellipse fill="#b9d3ee" stroke="black" cx="1068.9" cy="-322" rx="108" ry="18"/>
<text text-anchor="middle" x="1068.9" y="-318.3" font-family="Times,serif" font-size="14.00">779</text>
</g>
<!-- 00&#45;&gt;11 -->
<g id="edge2" class="edge">
<title>00&#45;&gt;11</title>
<path fill="none" stroke="black" d="M1102.77,-375.7C1097.54,-367.56 1091.2,-357.69 1085.42,-348.7"/>
<polygon fill="black" stroke="black" points="1088.25,-346.62 1079.89,-340.1 1082.36,-350.41 1088.25,-346.62"/>
</g>
<!-- 12 -->
<g id="node6" class="node">
<title>12</title>
<ellipse fill="#b9d3ee" stroke="black" cx="1302.9" cy="-322" rx="108" ry="18"/>
<text text-anchor="middle" x="1302.9" y="-318.3" font-family="Times,serif" font-size="14.00">844</text>
</g>
<!-- 00&#45;&gt;12 -->
<g id="edge3" class="edge">
<title>00&#45;&gt;12</title>
<path fill="none" stroke="black" d="M1157.73,-376.76C1185.56,-366.46 1221.7,-353.07 1250.96,-342.24"/>
<polygon fill="black" stroke="black" points="1252.44,-345.42 1260.6,-338.67 1250.01,-338.86 1252.44,-345.42"/>
</g>
<!-- 01 -->
<g id="node2" class="node">
<title>01</title>
<ellipse fill="#b9d3ee" stroke="black" cx="1441.9" cy="-394" rx="144" ry="18"/>
<text text-anchor="middle" x="1441.9" y="-390.3" font-family="Times,serif" font-size="14.00">1094</text>
</g>
<!-- 10 -->
<g id="node4" class="node">
<title>10</title>
<ellipse fill="#b9d3ee" stroke="black" cx="1464.9" cy="-322" rx="36" ry="18"/>
<text text-anchor="middle" x="1464.9" y="-318.3" font-family="Times,serif" font-size="14.00">377</text>
</g>
<!-- 01&#45;&gt;10 -->
<g id="edge1" class="edge">
<title>01&#45;&gt;10</title>
<path fill="none" stroke="black" d="M1447.58,-375.7C1450.15,-367.9 1453.23,-358.51 1456.08,-349.83"/>
<polygon fill="black" stroke="black" points="1459.48,-350.7 1459.28,-340.1 1452.83,-348.51 1459.48,-350.7"/>
</g>
<!-- 01&#45;&gt;12 -->
<g id="edge4" class="edge">
<title>01&#45;&gt;12</title>
<path fill="none" stroke="black" d="M1408.96,-376.41C1389.6,-366.66 1364.96,-354.25 1344.3,-343.85"/>
<polygon fill="black" stroke="black" points="1345.63,-340.6 1335.12,-339.23 1342.48,-346.85 1345.63,-340.6"/>
</g>
<!-- legend_0 -->
<g id="node3" class="node">
<title>legend_0</title>
<polygon fill="#b9d3ee" stroke="black" points="2521.4,-412 2300.4,-412 2300.4,-376 2521.4,-376 2521.4,-412"/>
<text text-anchor="middle" x="2410.9" y="-390.3" font-family="Times,serif" font-size="14.00">DT=1 ST=1 Similarity=0.49</text>
</g>
<!-- legend_1 -->
<g id="node7" class="node">
<title>legend_1</title>
<polygon fill="#b9d3ee" stroke="black" points="2521.4,-340 2300.4,-340 2300.4,-304 2521.4,-304 2521.4,-340"/>
<text text-anchor="middle" x="2410.9" y="-318.3" font-family="Times,serif" font-size="14.00">DT=2 ST=1 Similarity=0.51</text>
</g>
<!-- legend_0&#45;&gt;legend_1 -->
<g id="edge5" class="edge">
<title>legend_0&#45;&gt;legend_1</title>
<path fill="none" stroke="black" d="M2410.9,-375.7C2410.9,-367.98 2410.9,-358.71 2410.9,-350.11"/>
<polygon fill="black" stroke="black" points="2414.4,-350.1 2410.9,-340.1 2407.4,-350.1 2414.4,-350.1"/>
</g>
<!-- 21 -->
<g id="node9" class="node">
<title>21</title>
<ellipse fill="#b9d3ee" stroke="black" cx="1158.9" cy="-250" rx="36" ry="18"/>
<text text-anchor="middle" x="1158.9" y="-246.3" font-family="Times,serif" font-size="14.00">395</text>
</g>
<!-- 10&#45;&gt;21 -->
<g id="edge7" class="edge">
<title>10&#45;&gt;21</title>
<path fill="none" stroke="black" d="M1437.53,-309.86C1431.76,-307.74 1425.68,-305.67 1419.9,-304 1344.93,-282.38 1255.39,-266.23 1203.06,-257.74"/>
<polygon fill="black" stroke="black" points="1203.53,-254.27 1193.11,-256.14 1202.43,-261.18 1203.53,-254.27"/>
</g>
<!-- 24 -->
<g id="node12" class="node">
<title>24</title>
<ellipse fill="#b9d3ee" stroke="black" cx="1464.9" cy="-250" rx="36" ry="18"/>
<text text-anchor="middle" x="1464.9" y="-246.3" font-family="Times,serif" font-size="14.00">407</text>
</g>
<!-- 10&#45;&gt;24 -->
<g id="edge12" class="edge">
<title>10&#45;&gt;24</title>
<path fill="none" stroke="black" d="M1464.9,-303.7C1464.9,-295.98 1464.9,-286.71 1464.9,-278.11"/>
<polygon fill="black" stroke="black" points="1468.4,-278.1 1464.9,-268.1 1461.4,-278.1 1468.4,-278.1"/>
</g>
<!-- 11&#45;&gt;21 -->
<g id="edge8" class="edge">
<title>11&#45;&gt;21</title>
<path fill="none" stroke="black" d="M1090.68,-304.05C1103.06,-294.43 1118.66,-282.29 1131.82,-272.06"/>
<polygon fill="black" stroke="black" points="1134.31,-274.56 1140.06,-265.66 1130.01,-269.03 1134.31,-274.56"/>
</g>
<!-- 22 -->
<g id="node10" class="node">
<title>22</title>
<ellipse fill="#b9d3ee" stroke="black" cx="978.9" cy="-250" rx="36" ry="18"/>
<text text-anchor="middle" x="978.9" y="-246.3" font-family="Times,serif" font-size="14.00">399</text>
</g>
<!-- 11&#45;&gt;22 -->
<g id="edge9" class="edge">
<title>11&#45;&gt;22</title>
<path fill="none" stroke="black" d="M1047.11,-304.05C1034.74,-294.43 1019.13,-282.29 1005.98,-272.06"/>
<polygon fill="black" stroke="black" points="1007.78,-269.03 997.74,-265.66 1003.49,-274.56 1007.78,-269.03"/>
</g>
<!-- 23 -->
<g id="node11" class="node">
<title>23</title>
<ellipse fill="#b9d3ee" stroke="black" cx="1068.9" cy="-250" rx="36" ry="18"/>
<text text-anchor="middle" x="1068.9" y="-246.3" font-family="Times,serif" font-size="14.00">406</text>
</g>
<!-- 11&#45;&gt;23 -->
<g id="edge11" class="edge">
<title>11&#45;&gt;23</title>
<path fill="none" stroke="black" d="M1068.9,-303.7C1068.9,-295.98 1068.9,-286.71 1068.9,-278.11"/>
<polygon fill="black" stroke="black" points="1072.4,-278.1 1068.9,-268.1 1065.4,-278.1 1072.4,-278.1"/>
</g>
<!-- 20 -->
<g id="node8" class="node">
<title>20</title>
<ellipse fill="#b9d3ee" stroke="black" cx="1338.9" cy="-250" rx="36" ry="18"/>
<text text-anchor="middle" x="1338.9" y="-246.3" font-family="Times,serif" font-size="14.00">393</text>
</g>
<!-- 12&#45;&gt;20 -->
<g id="edge6" class="edge">
<title>12&#45;&gt;20</title>
<path fill="none" stroke="black" d="M1311.61,-304.05C1315.81,-295.89 1320.94,-285.91 1325.62,-276.82"/>
<polygon fill="black" stroke="black" points="1328.8,-278.28 1330.26,-267.79 1322.58,-275.08 1328.8,-278.28"/>
</g>
<!-- 12&#45;&gt;22 -->
<g id="edge10" class="edge">
<title>12&#45;&gt;22</title>
<path fill="none" stroke="black" d="M1223.58,-309.69C1167.28,-300.75 1090.22,-286.67 1023.9,-268 1021.11,-267.21 1018.25,-266.33 1015.39,-265.39"/>
<polygon fill="black" stroke="black" points="1016.37,-262.02 1005.77,-262.02 1014.05,-268.63 1016.37,-262.02"/>
</g>
<!-- 12&#45;&gt;24 -->
<g id="edge13" class="edge">
<title>12&#45;&gt;24</title>
<path fill="none" stroke="black" d="M1340.06,-304.94C1366.85,-293.36 1402.8,-277.83 1429.24,-266.41"/>
<polygon fill="black" stroke="black" points="1430.72,-269.58 1438.51,-262.4 1427.94,-263.16 1430.72,-269.58"/>
</g>
<!-- legend_2 -->
<g id="node13" class="node">
<title>legend_2</title>
<polygon fill="#b9d3ee" stroke="black" points="2521.4,-268 2300.4,-268 2300.4,-232 2521.4,-232 2521.4,-268"/>
<text text-anchor="middle" x="2410.9" y="-246.3" font-family="Times,serif" font-size="14.00">DT=3 ST=1 Similarity=0.68</text>
</g>
<!-- legend_1&#45;&gt;legend_2 -->
<g id="edge14" class="edge">
<title>legend_1&#45;&gt;legend_2</title>
<path fill="none" stroke="black" d="M2410.9,-303.7C2410.9,-295.98 2410.9,-286.71 2410.9,-278.11"/>
<polygon fill="black" stroke="black" points="2414.4,-278.1 2410.9,-268.1 2407.4,-278.1 2414.4,-278.1"/>
</g>
<!-- 32 -->
<g id="node16" class="node">
<title>32</title>
<polygon fill="darkseagreen" stroke="black" points="1669.9,-196 1597.9,-196 1597.9,-160 1669.9,-160 1669.9,-196"/>
<text text-anchor="middle" x="1633.9" y="-174.3" font-family="Times,serif" font-size="14.00">393</text>
</g>
<!-- 20&#45;&gt;32 -->
<g id="edge19" class="edge">
<title>20&#45;&gt;32</title>
<path fill="none" stroke="black" d="M1370.75,-241.44C1423,-229.04 1527.14,-204.33 1587.56,-189.99"/>
<polygon fill="black" stroke="black" points="1588.67,-193.33 1597.59,-187.61 1587.06,-186.52 1588.67,-193.33"/>
</g>
<!-- 31 -->
<g id="node15" class="node">
<title>31</title>
<polygon fill="darkseagreen" stroke="black" points="1149.9,-196 1077.9,-196 1077.9,-160 1149.9,-160 1149.9,-196"/>
<text text-anchor="middle" x="1113.9" y="-174.3" font-family="Times,serif" font-size="14.00">396</text>
</g>
<!-- 21&#45;&gt;31 -->
<g id="edge17" class="edge">
<title>21&#45;&gt;31</title>
<path fill="none" stroke="black" d="M1148.46,-232.76C1143.11,-224.44 1136.47,-214.1 1130.44,-204.73"/>
<polygon fill="black" stroke="black" points="1133.26,-202.64 1124.91,-196.12 1127.37,-206.43 1133.26,-202.64"/>
</g>
<!-- 30 -->
<g id="node14" class="node">
<title>30</title>
<polygon fill="darkseagreen" stroke="black" points="1014.9,-196 942.9,-196 942.9,-160 1014.9,-160 1014.9,-196"/>
<text text-anchor="middle" x="978.9" y="-174.3" font-family="Times,serif" font-size="14.00">407</text>
</g>
<!-- 22&#45;&gt;30 -->
<g id="edge15" class="edge">
<title>22&#45;&gt;30</title>
<path fill="none" stroke="black" d="M978.9,-231.7C978.9,-223.98 978.9,-214.71 978.9,-206.11"/>
<polygon fill="black" stroke="black" points="982.4,-206.1 978.9,-196.1 975.4,-206.1 982.4,-206.1"/>
</g>
<!-- 33 -->
<g id="node17" class="node">
<title>33</title>
<polygon fill="darkseagreen" stroke="black" points="740.9,-196 668.9,-196 668.9,-160 740.9,-160 740.9,-196"/>
<text text-anchor="middle" x="704.9" y="-174.3" font-family="Times,serif" font-size="14.00">397</text>
</g>
<!-- 22&#45;&gt;33 -->
<g id="edge20" class="edge">
<title>22&#45;&gt;33</title>
<path fill="none" stroke="black" d="M947.47,-240.97C899.3,-228.66 806.95,-205.07 751.14,-190.81"/>
<polygon fill="black" stroke="black" points="751.72,-187.35 741.16,-188.26 749.98,-194.13 751.72,-187.35"/>
</g>
<!-- 23&#45;&gt;30 -->
<g id="edge16" class="edge">
<title>23&#45;&gt;30</title>
<path fill="none" stroke="black" d="M1050.25,-234.5C1038.4,-225.28 1022.78,-213.13 1009.17,-202.55"/>
<polygon fill="black" stroke="black" points="1011.06,-199.58 1001.02,-196.2 1006.76,-205.11 1011.06,-199.58"/>
</g>
<!-- 23&#45;&gt;31 -->
<g id="edge18" class="edge">
<title>23&#45;&gt;31</title>
<path fill="none" stroke="black" d="M1079.34,-232.76C1084.69,-224.44 1091.33,-214.1 1097.36,-204.73"/>
<polygon fill="black" stroke="black" points="1100.43,-206.43 1102.89,-196.12 1094.54,-202.64 1100.43,-206.43"/>
</g>
<!-- 34 -->
<g id="node18" class="node">
<title>34</title>
<polygon fill="darkseagreen" stroke="black" points="1981.9,-196 1909.9,-196 1909.9,-160 1981.9,-160 1981.9,-196"/>
<text text-anchor="middle" x="1945.9" y="-174.3" font-family="Times,serif" font-size="14.00">407</text>
</g>
<!-- 24&#45;&gt;34 -->
<g id="edge21" class="edge">
<title>24&#45;&gt;34</title>
<path fill="none" stroke="black" d="M1499.11,-244.02C1583.8,-231.7 1803.36,-199.74 1899.57,-185.74"/>
<polygon fill="black" stroke="black" points="1900.19,-189.19 1909.59,-184.28 1899.19,-182.26 1900.19,-189.19"/>
</g>
<!-- legend_3 -->
<g id="node19" class="node">
<title>legend_3</title>
<polygon fill="darkseagreen" stroke="black" points="2521.4,-196 2300.4,-196 2300.4,-160 2521.4,-160 2521.4,-196"/>
<text text-anchor="middle" x="2410.9" y="-174.3" font-family="Times,serif" font-size="14.00">DT=4 ST=1 Similarity=0.68</text>
</g>
<!-- legend_2&#45;&gt;legend_3 -->
<g id="edge22" class="edge">
<title>legend_2&#45;&gt;legend_3</title>
<path fill="none" stroke="black" d="M2410.9,-231.7C2410.9,-223.98 2410.9,-214.71 2410.9,-206.11"/>
<polygon fill="black" stroke="black" points="2414.4,-206.1 2410.9,-196.1 2407.4,-206.1 2414.4,-206.1"/>
</g>
<!-- 45 -->
<g id="node25" class="node">
<title>45</title>
<ellipse fill="#b9d3ee" stroke="black" cx="841.9" cy="-106" rx="36" ry="18"/>
<text text-anchor="middle" x="841.9" y="-102.3" font-family="Times,serif" font-size="14.00">410</text>
</g>
<!-- 30&#45;&gt;45 -->
<g id="edge28" class="edge">
<title>30&#45;&gt;45</title>
<path fill="none" stroke="black" d="M945.38,-159.88C924.13,-149.02 896.74,-135.02 875.47,-124.15"/>
<polygon fill="black" stroke="black" points="876.97,-120.99 866.47,-119.56 873.79,-127.22 876.97,-120.99"/>
</g>
<!-- 42 -->
<g id="node22" class="node">
<title>42</title>
<ellipse fill="#b9d3ee" stroke="black" cx="1258.9" cy="-106" rx="36" ry="18"/>
<text text-anchor="middle" x="1258.9" y="-102.3" font-family="Times,serif" font-size="14.00">395</text>
</g>
<!-- 31&#45;&gt;42 -->
<g id="edge25" class="edge">
<title>31&#45;&gt;42</title>
<path fill="none" stroke="black" d="M1149.37,-159.88C1172.26,-148.83 1201.88,-134.53 1224.54,-123.59"/>
<polygon fill="black" stroke="black" points="1226.31,-126.62 1233.79,-119.12 1223.26,-120.32 1226.31,-126.62"/>
</g>
<!-- 31&#45;&gt;45 -->
<g id="edge29" class="edge">
<title>31&#45;&gt;45</title>
<path fill="none" stroke="black" d="M1077.78,-167.7C1027.28,-154.71 935.82,-131.17 882.85,-117.54"/>
<polygon fill="black" stroke="black" points="883.66,-114.13 873.1,-115.03 881.92,-120.91 883.66,-114.13"/>
</g>
<!-- 41 -->
<g id="node21" class="node">
<title>41</title>
<ellipse fill="#b9d3ee" stroke="black" cx="1633.9" cy="-106" rx="23" ry="18"/>
<text text-anchor="middle" x="1633.9" y="-102.3" font-family="Times,serif" font-size="14.00">75</text>
</g>
<!-- 32&#45;&gt;41 -->
<g id="edge24" class="edge">
<title>32&#45;&gt;41</title>
<path fill="none" stroke="black" d="M1633.9,-159.7C1633.9,-151.98 1633.9,-142.71 1633.9,-134.11"/>
<polygon fill="black" stroke="black" points="1637.4,-134.1 1633.9,-124.1 1630.4,-134.1 1637.4,-134.1"/>
</g>
<!-- 43 -->
<g id="node23" class="node">
<title>43</title>
<ellipse fill="#b9d3ee" stroke="black" cx="1943.9" cy="-106" rx="36" ry="18"/>
<text text-anchor="middle" x="1943.9" y="-102.3" font-family="Times,serif" font-size="14.00">318</text>
</g>
<!-- 32&#45;&gt;43 -->
<g id="edge26" class="edge">
<title>32&#45;&gt;43</title>
<path fill="none" stroke="black" d="M1670.07,-168.83C1727.74,-155.81 1840.27,-130.4 1901.59,-116.55"/>
<polygon fill="black" stroke="black" points="1902.72,-119.89 1911.7,-114.27 1901.18,-113.06 1902.72,-119.89"/>
</g>
<!-- 40 -->
<g id="node20" class="node">
<title>40</title>
<ellipse fill="#b9d3ee" stroke="black" cx="158.9" cy="-106" rx="23" ry="18"/>
<text text-anchor="middle" x="158.9" y="-102.3" font-family="Times,serif" font-size="14.00">55</text>
</g>
<!-- 33&#45;&gt;40 -->
<g id="edge23" class="edge">
<title>33&#45;&gt;40</title>
<path fill="none" stroke="black" d="M668.65,-172.35C568.1,-159.46 286.79,-123.4 191.18,-111.14"/>
<polygon fill="black" stroke="black" points="191.59,-107.66 181.23,-109.86 190.7,-114.61 191.59,-107.66"/>
</g>
<!-- 44 -->
<g id="node24" class="node">
<title>44</title>
<ellipse fill="#b9d3ee" stroke="black" cx="447.9" cy="-106" rx="36" ry="18"/>
<text text-anchor="middle" x="447.9" y="-102.3" font-family="Times,serif" font-size="14.00">340</text>
</g>
<!-- 33&#45;&gt;44 -->
<g id="edge27" class="edge">
<title>33&#45;&gt;44</title>
<path fill="none" stroke="black" d="M668.89,-167.19C621.46,-154.27 538.26,-131.61 488.6,-118.09"/>
<polygon fill="black" stroke="black" points="489.4,-114.68 478.83,-115.43 487.56,-121.43 489.4,-114.68"/>
</g>
<!-- 33&#45;&gt;45 -->
<g id="edge30" class="edge">
<title>33&#45;&gt;45</title>
<path fill="none" stroke="black" d="M738.41,-159.88C759.67,-149.02 787.06,-135.02 808.33,-124.15"/>
<polygon fill="black" stroke="black" points="810.01,-127.22 817.32,-119.56 806.83,-120.99 810.01,-127.22"/>
</g>
<!-- 46 -->
<g id="node26" class="node">
<title>46</title>
<ellipse fill="#b9d3ee" stroke="black" cx="2168.9" cy="-106" rx="36" ry="18"/>
<text text-anchor="middle" x="2168.9" y="-102.3" font-family="Times,serif" font-size="14.00">407</text>
</g>
<!-- 34&#45;&gt;46 -->
<g id="edge31" class="edge">
<title>34&#45;&gt;46</title>
<path fill="none" stroke="black" d="M1982.22,-165.6C2022.67,-152.9 2087.82,-132.45 2129.48,-119.37"/>
<polygon fill="black" stroke="black" points="2130.53,-122.71 2139.02,-116.38 2128.43,-116.03 2130.53,-122.71"/>
</g>
<!-- legend_4 -->
<g id="node27" class="node">
<title>legend_4</title>
<polygon fill="#b9d3ee" stroke="black" points="2521.4,-124 2300.4,-124 2300.4,-88 2521.4,-88 2521.4,-124"/>
<text text-anchor="middle" x="2410.9" y="-102.3" font-family="Times,serif" font-size="14.00">DT=5 ST=1 Similarity=0.63</text>
</g>
<!-- legend_3&#45;&gt;legend_4 -->
<g id="edge32" class="edge">
<title>legend_3&#45;&gt;legend_4</title>
<path fill="none" stroke="black" d="M2410.9,-159.7C2410.9,-151.98 2410.9,-142.71 2410.9,-134.11"/>
<polygon fill="black" stroke="black" points="2414.4,-134.1 2410.9,-124.1 2407.4,-134.1 2414.4,-134.1"/>
</g>
<!-- 58 -->
<g id="node36" class="node">
<title>58</title>
<ellipse fill="#b9d3ee" stroke="black" cx="247.9" cy="-34" rx="16.8" ry="18"/>
<text text-anchor="middle" x="247.9" y="-30.3" font-family="Times,serif" font-size="14.00">2</text>
</g>
<!-- 40&#45;&gt;58 -->
<g id="edge41" class="edge">
<title>40&#45;&gt;58</title>
<path fill="none" stroke="black" d="M174.4,-92.81C188.77,-81.5 210.29,-64.58 226.33,-51.96"/>
<polygon fill="black" stroke="black" points="228.91,-54.39 234.6,-45.46 224.58,-48.89 228.91,-54.39"/>
</g>
<!-- 517 -->
<g id="node45" class="node">
<title>517</title>
<ellipse fill="#b9d3ee" stroke="black" cx="16.9" cy="-34" rx="16.8" ry="18"/>
<text text-anchor="middle" x="16.9" y="-30.3" font-family="Times,serif" font-size="14.00">4</text>
</g>
<!-- 40&#45;&gt;517 -->
<g id="edge50" class="edge">
<title>40&#45;&gt;517</title>
<path fill="none" stroke="black" d="M138.75,-96.88C115.25,-87.17 75.47,-69.96 42.9,-52 41.76,-51.37 40.6,-50.71 39.44,-50.02"/>
<polygon fill="black" stroke="black" points="41.03,-46.89 30.69,-44.57 37.33,-52.83 41.03,-46.89"/>
</g>
<!-- 518 -->
<g id="node46" class="node">
<title>518</title>
<ellipse fill="#b9d3ee" stroke="black" cx="68.9" cy="-34" rx="16.8" ry="18"/>
<text text-anchor="middle" x="68.9" y="-30.3" font-family="Times,serif" font-size="14.00">4</text>
</g>
<!-- 40&#45;&gt;518 -->
<g id="edge51" class="edge">
<title>40&#45;&gt;518</title>
<path fill="none" stroke="black" d="M143.22,-92.81C128.55,-81.4 106.53,-64.27 90.26,-51.61"/>
<polygon fill="black" stroke="black" points="92.38,-48.83 82.34,-45.46 88.09,-54.36 92.38,-48.83"/>
</g>
<!-- 523 -->
<g id="node51" class="node">
<title>523</title>
<ellipse fill="#b9d3ee" stroke="black" cx="126.9" cy="-34" rx="23" ry="18"/>
<text text-anchor="middle" x="126.9" y="-30.3" font-family="Times,serif" font-size="14.00">18</text>
</g>
<!-- 40&#45;&gt;523 -->
<g id="edge56" class="edge">
<title>40&#45;&gt;523</title>
<path fill="none" stroke="black" d="M151.48,-88.76C147.64,-80.37 142.87,-69.93 138.55,-60.5"/>
<polygon fill="black" stroke="black" points="141.62,-58.79 134.28,-51.15 135.25,-61.7 141.62,-58.79"/>
</g>
<!-- 524 -->
<g id="node52" class="node">
<title>524</title>
<ellipse fill="#b9d3ee" stroke="black" cx="189.9" cy="-34" rx="23" ry="18"/>
<text text-anchor="middle" x="189.9" y="-30.3" font-family="Times,serif" font-size="14.00">27</text>
</g>
<!-- 40&#45;&gt;524 -->
<g id="edge57" class="edge">
<title>40&#45;&gt;524</title>
<path fill="none" stroke="black" d="M166.09,-88.76C169.81,-80.37 174.43,-69.93 178.61,-60.5"/>
<polygon fill="black" stroke="black" points="181.9,-61.71 182.75,-51.15 175.5,-58.87 181.9,-61.71"/>
</g>
<!-- 51 -->
<g id="node29" class="node">
<title>51</title>
<ellipse fill="#b9d3ee" stroke="black" cx="1529.9" cy="-34" rx="16.8" ry="18"/>
<text text-anchor="middle" x="1529.9" y="-30.3" font-family="Times,serif" font-size="14.00">1</text>
</g>
<!-- 41&#45;&gt;51 -->
<g id="edge34" class="edge">
<title>41&#45;&gt;51</title>
<path fill="none" stroke="black" d="M1617.19,-93.75C1599.56,-81.89 1571.69,-63.13 1552.2,-50.01"/>
<polygon fill="black" stroke="black" points="1554.15,-47.1 1543.9,-44.42 1550.24,-52.91 1554.15,-47.1"/>
</g>
<!-- 52 -->
<g id="node30" class="node">
<title>52</title>
<ellipse fill="#b9d3ee" stroke="black" cx="1581.9" cy="-34" rx="16.8" ry="18"/>
<text text-anchor="middle" x="1581.9" y="-30.3" font-family="Times,serif" font-size="14.00">1</text>
</g>
<!-- 41&#45;&gt;52 -->
<g id="edge35" class="edge">
<title>41&#45;&gt;52</title>
<path fill="none" stroke="black" d="M1622.87,-90.15C1615.72,-80.53 1606.28,-67.82 1598.26,-57.02"/>
<polygon fill="black" stroke="black" points="1600.98,-54.81 1592.2,-48.87 1595.36,-58.99 1600.98,-54.81"/>
</g>
<!-- 55 -->
<g id="node33" class="node">
<title>55</title>
<ellipse fill="#b9d3ee" stroke="black" cx="1633.9" cy="-34" rx="16.8" ry="18"/>
<text text-anchor="middle" x="1633.9" y="-30.3" font-family="Times,serif" font-size="14.00">1</text>
</g>
<!-- 41&#45;&gt;55 -->
<g id="edge38" class="edge">
<title>41&#45;&gt;55</title>
<path fill="none" stroke="black" d="M1633.9,-87.7C1633.9,-79.98 1633.9,-70.71 1633.9,-62.11"/>
<polygon fill="black" stroke="black" points="1637.4,-62.1 1633.9,-52.1 1630.4,-62.1 1637.4,-62.1"/>
</g>
<!-- 513 -->
<g id="node41" class="node">
<title>513</title>
<ellipse fill="#b9d3ee" stroke="black" cx="1685.9" cy="-34" rx="16.8" ry="18"/>
<text text-anchor="middle" x="1685.9" y="-30.3" font-family="Times,serif" font-size="14.00">2</text>
</g>
<!-- 41&#45;&gt;513 -->
<g id="edge46" class="edge">
<title>41&#45;&gt;513</title>
<path fill="none" stroke="black" d="M1644.93,-90.15C1652.08,-80.53 1661.52,-67.82 1669.54,-57.02"/>
<polygon fill="black" stroke="black" points="1672.44,-58.99 1675.59,-48.87 1666.82,-54.81 1672.44,-58.99"/>
</g>
<!-- 531 -->
<g id="node59" class="node">
<title>531</title>
<ellipse fill="#b9d3ee" stroke="black" cx="1743.9" cy="-34" rx="23" ry="18"/>
<text text-anchor="middle" x="1743.9" y="-30.3" font-family="Times,serif" font-size="14.00">70</text>
</g>
<!-- 41&#45;&gt;531 -->
<g id="edge64" class="edge">
<title>41&#45;&gt;531</title>
<path fill="none" stroke="black" d="M1651.09,-94.06C1668.98,-82.67 1697.23,-64.7 1717.87,-51.57"/>
<polygon fill="black" stroke="black" points="1719.91,-54.41 1726.47,-46.09 1716.15,-48.51 1719.91,-54.41"/>
</g>
<!-- 510 -->
<g id="node38" class="node">
<title>510</title>
<ellipse fill="#b9d3ee" stroke="black" cx="1321.9" cy="-34" rx="16.8" ry="18"/>
<text text-anchor="middle" x="1321.9" y="-30.3" font-family="Times,serif" font-size="14.00">2</text>
</g>
<!-- 42&#45;&gt;510 -->
<g id="edge43" class="edge">
<title>42&#45;&gt;510</title>
<path fill="none" stroke="black" d="M1273.19,-89.12C1282.22,-79.09 1293.96,-66.04 1303.66,-55.27"/>
<polygon fill="black" stroke="black" points="1306.51,-57.33 1310.59,-47.56 1301.3,-52.65 1306.51,-57.33"/>
</g>
<!-- 511 -->
<g id="node39" class="node">
<title>511</title>
<ellipse fill="#b9d3ee" stroke="black" cx="1373.9" cy="-34" rx="16.8" ry="18"/>
<text text-anchor="middle" x="1373.9" y="-30.3" font-family="Times,serif" font-size="14.00">2</text>
</g>
<!-- 42&#45;&gt;511 -->
<g id="edge44" class="edge">
<title>42&#45;&gt;511</title>
<path fill="none" stroke="black" d="M1281.74,-91.75C1299.81,-81.19 1325.63,-65.9 1347.9,-52 1349.01,-51.31 1350.13,-50.6 1351.27,-49.87"/>
<polygon fill="black" stroke="black" points="1353.43,-52.65 1359.93,-44.28 1349.63,-46.77 1353.43,-52.65"/>
</g>
<!-- 512 -->
<g id="node40" class="node">
<title>512</title>
<ellipse fill="#b9d3ee" stroke="black" cx="1425.9" cy="-34" rx="16.8" ry="18"/>
<text text-anchor="middle" x="1425.9" y="-30.3" font-family="Times,serif" font-size="14.00">2</text>
</g>
<!-- 42&#45;&gt;512 -->
<g id="edge45" class="edge">
<title>42&#45;&gt;512</title>
<path fill="none" stroke="black" d="M1288.87,-95.86C1317.97,-86.5 1363.05,-70.69 1399.9,-52 1401.06,-51.41 1402.24,-50.78 1403.41,-50.12"/>
<polygon fill="black" stroke="black" points="1405.49,-52.96 1412.2,-44.76 1401.84,-46.98 1405.49,-52.96"/>
</g>
<!-- 520 -->
<g id="node48" class="node">
<title>520</title>
<ellipse fill="#b9d3ee" stroke="black" cx="1477.9" cy="-34" rx="16.8" ry="18"/>
<text text-anchor="middle" x="1477.9" y="-30.3" font-family="Times,serif" font-size="14.00">9</text>
</g>
<!-- 42&#45;&gt;520 -->
<g id="edge53" class="edge">
<title>42&#45;&gt;520</title>
<path fill="none" stroke="black" d="M1292.42,-99.09C1331.8,-91.41 1398.52,-76.06 1451.9,-52 1453.09,-51.46 1454.28,-50.88 1455.48,-50.25"/>
<polygon fill="black" stroke="black" points="1457.5,-53.12 1464.32,-45.01 1453.94,-47.1 1457.5,-53.12"/>
</g>
<!-- 527 -->
<g id="node55" class="node">
<title>527</title>
<ellipse fill="#b9d3ee" stroke="black" cx="1051.9" cy="-34" rx="23" ry="18"/>
<text text-anchor="middle" x="1051.9" y="-30.3" font-family="Times,serif" font-size="14.00">29</text>
</g>
<!-- 42&#45;&gt;527 -->
<g id="edge60" class="edge">
<title>42&#45;&gt;527</title>
<path fill="none" stroke="black" d="M1227.05,-97.55C1191.25,-88.69 1131.75,-72.48 1082.9,-52 1081.52,-51.42 1080.12,-50.8 1078.72,-50.15"/>
<polygon fill="black" stroke="black" points="1080.12,-46.93 1069.61,-45.54 1076.96,-53.18 1080.12,-46.93"/>
</g>
<!-- 530 -->
<g id="node58" class="node">
<title>530</title>
<ellipse fill="#b9d3ee" stroke="black" cx="1114.9" cy="-34" rx="23" ry="18"/>
<text text-anchor="middle" x="1114.9" y="-30.3" font-family="Times,serif" font-size="14.00">56</text>
</g>
<!-- 42&#45;&gt;530 -->
<g id="edge63" class="edge">
<title>42&#45;&gt;530</title>
<path fill="none" stroke="black" d="M1232.64,-93.25C1209.59,-82.81 1175.26,-66.92 1145.9,-52 1144.56,-51.32 1143.2,-50.62 1141.83,-49.9"/>
<polygon fill="black" stroke="black" points="1143.3,-46.72 1132.83,-45.08 1139.99,-52.89 1143.3,-46.72"/>
</g>
<!-- 532 -->
<g id="node60" class="node">
<title>532</title>
<ellipse fill="#b9d3ee" stroke="black" cx="1183.9" cy="-34" rx="28.7" ry="18"/>
<text text-anchor="middle" x="1183.9" y="-30.3" font-family="Times,serif" font-size="14.00">140</text>
</g>
<!-- 42&#45;&gt;532 -->
<g id="edge65" class="edge">
<title>42&#45;&gt;532</title>
<path fill="none" stroke="black" d="M1242.62,-89.81C1232.19,-80.08 1218.49,-67.29 1206.95,-56.52"/>
<polygon fill="black" stroke="black" points="1209.07,-53.71 1199.37,-49.44 1204.29,-58.82 1209.07,-53.71"/>
</g>
<!-- 533 -->
<g id="node61" class="node">
<title>533</title>
<ellipse fill="#b9d3ee" stroke="black" cx="1258.9" cy="-34" rx="28.7" ry="18"/>
<text text-anchor="middle" x="1258.9" y="-30.3" font-family="Times,serif" font-size="14.00">155</text>
</g>
<!-- 42&#45;&gt;533 -->
<g id="edge66" class="edge">
<title>42&#45;&gt;533</title>
<path fill="none" stroke="black" d="M1258.9,-87.7C1258.9,-79.98 1258.9,-70.71 1258.9,-62.11"/>
<polygon fill="black" stroke="black" points="1262.4,-62.1 1258.9,-52.1 1255.4,-62.1 1262.4,-62.1"/>
</g>
<!-- 50 -->
<g id="node28" class="node">
<title>50</title>
<ellipse fill="#b9d3ee" stroke="black" cx="1891.9" cy="-34" rx="16.8" ry="18"/>
<text text-anchor="middle" x="1891.9" y="-30.3" font-family="Times,serif" font-size="14.00">1</text>
</g>
<!-- 43&#45;&gt;50 -->
<g id="edge33" class="edge">
<title>43&#45;&gt;50</title>
<path fill="none" stroke="black" d="M1931.84,-88.76C1924.81,-79.3 1915.84,-67.23 1908.19,-56.93"/>
<polygon fill="black" stroke="black" points="1910.91,-54.73 1902.14,-48.79 1905.29,-58.9 1910.91,-54.73"/>
</g>
<!-- 57 -->
<g id="node35" class="node">
<title>57</title>
<ellipse fill="#b9d3ee" stroke="black" cx="1943.9" cy="-34" rx="16.8" ry="18"/>
<text text-anchor="middle" x="1943.9" y="-30.3" font-family="Times,serif" font-size="14.00">2</text>
</g>
<!-- 43&#45;&gt;57 -->
<g id="edge40" class="edge">
<title>43&#45;&gt;57</title>
<path fill="none" stroke="black" d="M1943.9,-87.7C1943.9,-79.98 1943.9,-70.71 1943.9,-62.11"/>
<polygon fill="black" stroke="black" points="1947.4,-62.1 1943.9,-52.1 1940.4,-62.1 1947.4,-62.1"/>
</g>
<!-- 515 -->
<g id="node43" class="node">
<title>515</title>
<ellipse fill="#b9d3ee" stroke="black" cx="1995.9" cy="-34" rx="16.8" ry="18"/>
<text text-anchor="middle" x="1995.9" y="-30.3" font-family="Times,serif" font-size="14.00">3</text>
</g>
<!-- 43&#45;&gt;515 -->
<g id="edge48" class="edge">
<title>43&#45;&gt;515</title>
<path fill="none" stroke="black" d="M1955.96,-88.76C1962.99,-79.3 1971.95,-67.23 1979.61,-56.93"/>
<polygon fill="black" stroke="black" points="1982.5,-58.9 1985.66,-48.79 1976.88,-54.73 1982.5,-58.9"/>
</g>
<!-- 516 -->
<g id="node44" class="node">
<title>516</title>
<ellipse fill="#b9d3ee" stroke="black" cx="2047.9" cy="-34" rx="16.8" ry="18"/>
<text text-anchor="middle" x="2047.9" y="-30.3" font-family="Times,serif" font-size="14.00">3</text>
</g>
<!-- 43&#45;&gt;516 -->
<g id="edge49" class="edge">
<title>43&#45;&gt;516</title>
<path fill="none" stroke="black" d="M1964.45,-91.17C1981.99,-79.36 2007.18,-62.41 2025.29,-50.22"/>
<polygon fill="black" stroke="black" points="2027.7,-52.82 2034.04,-44.33 2023.79,-47.01 2027.7,-52.82"/>
</g>
<!-- 528 -->
<g id="node56" class="node">
<title>528</title>
<ellipse fill="#b9d3ee" stroke="black" cx="2105.9" cy="-34" rx="23" ry="18"/>
<text text-anchor="middle" x="2105.9" y="-30.3" font-family="Times,serif" font-size="14.00">35</text>
</g>
<!-- 43&#45;&gt;528 -->
<g id="edge61" class="edge">
<title>43&#45;&gt;528</title>
<path fill="none" stroke="black" d="M1971.89,-94.53C1998.46,-84.38 2039.35,-68.17 2073.9,-52 2075.47,-51.27 2077.06,-50.49 2078.67,-49.7"/>
<polygon fill="black" stroke="black" points="2080.48,-52.71 2087.78,-45.03 2077.29,-46.48 2080.48,-52.71"/>
</g>
<!-- 534 -->
<g id="node62" class="node">
<title>534</title>
<ellipse fill="#b9d3ee" stroke="black" cx="1820.9" cy="-34" rx="36" ry="18"/>
<text text-anchor="middle" x="1820.9" y="-30.3" font-family="Times,serif" font-size="14.00">274</text>
</g>
<!-- 43&#45;&gt;534 -->
<g id="edge67" class="edge">
<title>43&#45;&gt;534</title>
<path fill="none" stroke="black" d="M1921.05,-92C1901.84,-81.07 1874.17,-65.32 1852.78,-53.14"/>
<polygon fill="black" stroke="black" points="1854.46,-50.07 1844.04,-48.17 1851,-56.16 1854.46,-50.07"/>
</g>
<!-- 53 -->
<g id="node31" class="node">
<title>53</title>
<ellipse fill="#b9d3ee" stroke="black" cx="557.9" cy="-34" rx="16.8" ry="18"/>
<text text-anchor="middle" x="557.9" y="-30.3" font-family="Times,serif" font-size="14.00">1</text>
</g>
<!-- 44&#45;&gt;53 -->
<g id="edge36" class="edge">
<title>44&#45;&gt;53</title>
<path fill="none" stroke="black" d="M469.72,-91.37C486.71,-80.72 510.86,-65.51 531.9,-52 533,-51.3 534.12,-50.57 535.25,-49.84"/>
<polygon fill="black" stroke="black" points="537.42,-52.6 543.89,-44.22 533.6,-46.74 537.42,-52.6"/>
</g>
<!-- 56 -->
<g id="node34" class="node">
<title>56</title>
<ellipse fill="#b9d3ee" stroke="black" cx="299.9" cy="-34" rx="16.8" ry="18"/>
<text text-anchor="middle" x="299.9" y="-30.3" font-family="Times,serif" font-size="14.00">1</text>
</g>
<!-- 44&#45;&gt;56 -->
<g id="edge39" class="edge">
<title>44&#45;&gt;56</title>
<path fill="none" stroke="black" d="M420.14,-94.5C394.99,-84.63 357.2,-68.88 325.9,-52 324.75,-51.38 323.59,-50.73 322.42,-50.05"/>
<polygon fill="black" stroke="black" points="324.01,-46.92 313.67,-44.62 320.32,-52.87 324.01,-46.92"/>
</g>
<!-- 519 -->
<g id="node47" class="node">
<title>519</title>
<ellipse fill="#b9d3ee" stroke="black" cx="351.9" cy="-34" rx="16.8" ry="18"/>
<text text-anchor="middle" x="351.9" y="-30.3" font-family="Times,serif" font-size="14.00">7</text>
</g>
<!-- 44&#45;&gt;519 -->
<g id="edge52" class="edge">
<title>44&#45;&gt;519</title>
<path fill="none" stroke="black" d="M428.47,-90.83C412.66,-79.31 390.35,-63.04 373.89,-51.03"/>
<polygon fill="black" stroke="black" points="375.56,-47.92 365.42,-44.86 371.44,-53.58 375.56,-47.92"/>
</g>
<!-- 521 -->
<g id="node49" class="node">
<title>521</title>
<ellipse fill="#b9d3ee" stroke="black" cx="409.9" cy="-34" rx="23" ry="18"/>
<text text-anchor="middle" x="409.9" y="-30.3" font-family="Times,serif" font-size="14.00">10</text>
</g>
<!-- 44&#45;&gt;521 -->
<g id="edge54" class="edge">
<title>44&#45;&gt;521</title>
<path fill="none" stroke="black" d="M438.89,-88.41C434.28,-79.92 428.58,-69.41 423.45,-59.96"/>
<polygon fill="black" stroke="black" points="426.42,-58.11 418.58,-50.99 420.27,-61.45 426.42,-58.11"/>
</g>
<!-- 536 -->
<g id="node64" class="node">
<title>536</title>
<ellipse fill="#b9d3ee" stroke="black" cx="486.9" cy="-34" rx="36" ry="18"/>
<text text-anchor="middle" x="486.9" y="-30.3" font-family="Times,serif" font-size="14.00">321</text>
</g>
<!-- 44&#45;&gt;536 -->
<g id="edge69" class="edge">
<title>44&#45;&gt;536</title>
<path fill="none" stroke="black" d="M457.14,-88.41C461.8,-80.04 467.56,-69.71 472.76,-60.37"/>
<polygon fill="black" stroke="black" points="475.91,-61.91 477.72,-51.47 469.8,-58.5 475.91,-61.91"/>
</g>
<!-- 54 -->
<g id="node32" class="node">
<title>54</title>
<ellipse fill="#b9d3ee" stroke="black" cx="763.9" cy="-34" rx="16.8" ry="18"/>
<text text-anchor="middle" x="763.9" y="-30.3" font-family="Times,serif" font-size="14.00">1</text>
</g>
<!-- 45&#45;&gt;54 -->
<g id="edge37" class="edge">
<title>45&#45;&gt;54</title>
<path fill="none" stroke="black" d="M824.97,-89.81C813.07,-79.12 797.06,-64.76 784.42,-53.42"/>
<polygon fill="black" stroke="black" points="786.46,-50.55 776.68,-46.47 781.79,-55.76 786.46,-50.55"/>
</g>
<!-- 59 -->
<g id="node37" class="node">
<title>59</title>
<ellipse fill="#b9d3ee" stroke="black" cx="815.9" cy="-34" rx="16.8" ry="18"/>
<text text-anchor="middle" x="815.9" y="-30.3" font-family="Times,serif" font-size="14.00">2</text>
</g>
<!-- 45&#45;&gt;59 -->
<g id="edge42" class="edge">
<title>45&#45;&gt;59</title>
<path fill="none" stroke="black" d="M835.6,-88.05C832.56,-79.85 828.84,-69.83 825.45,-60.71"/>
<polygon fill="black" stroke="black" points="828.72,-59.46 821.96,-51.31 822.16,-61.9 828.72,-59.46"/>
</g>
<!-- 514 -->
<g id="node42" class="node">
<title>514</title>
<ellipse fill="#b9d3ee" stroke="black" cx="867.9" cy="-34" rx="16.8" ry="18"/>
<text text-anchor="middle" x="867.9" y="-30.3" font-family="Times,serif" font-size="14.00">2</text>
</g>
<!-- 45&#45;&gt;514 -->
<g id="edge47" class="edge">
<title>45&#45;&gt;514</title>
<path fill="none" stroke="black" d="M848.19,-88.05C851.24,-79.85 854.96,-69.83 858.35,-60.71"/>
<polygon fill="black" stroke="black" points="861.64,-61.9 861.84,-51.31 855.08,-59.46 861.64,-61.9"/>
</g>
<!-- 525 -->
<g id="node53" class="node">
<title>525</title>
<ellipse fill="#b9d3ee" stroke="black" cx="925.9" cy="-34" rx="23" ry="18"/>
<text text-anchor="middle" x="925.9" y="-30.3" font-family="Times,serif" font-size="14.00">27</text>
</g>
<!-- 45&#45;&gt;525 -->
<g id="edge58" class="edge">
<title>45&#45;&gt;525</title>
<path fill="none" stroke="black" d="M859.71,-90.15C872.24,-79.72 889.11,-65.66 902.69,-54.34"/>
<polygon fill="black" stroke="black" points="905.2,-56.8 910.64,-47.71 900.72,-51.43 905.2,-56.8"/>
</g>
<!-- 526 -->
<g id="node54" class="node">
<title>526</title>
<ellipse fill="#b9d3ee" stroke="black" cx="988.9" cy="-34" rx="23" ry="18"/>
<text text-anchor="middle" x="988.9" y="-30.3" font-family="Times,serif" font-size="14.00">29</text>
</g>
<!-- 45&#45;&gt;526 -->
<g id="edge59" class="edge">
<title>45&#45;&gt;526</title>
<path fill="none" stroke="black" d="M868.42,-93.54C892.1,-83.16 927.62,-67.19 957.9,-52 959.24,-51.33 960.6,-50.63 961.97,-49.92"/>
<polygon fill="black" stroke="black" points="963.81,-52.91 970.98,-45.11 960.51,-46.73 963.81,-52.91"/>
</g>
<!-- 529 -->
<g id="node57" class="node">
<title>529</title>
<ellipse fill="#b9d3ee" stroke="black" cx="615.9" cy="-34" rx="23" ry="18"/>
<text text-anchor="middle" x="615.9" y="-30.3" font-family="Times,serif" font-size="14.00">56</text>
</g>
<!-- 45&#45;&gt;529 -->
<g id="edge62" class="edge">
<title>45&#45;&gt;529</title>
<path fill="none" stroke="black" d="M808.91,-98.33C769.73,-89.88 702.75,-73.75 647.9,-52 646.29,-51.36 644.66,-50.67 643.03,-49.93"/>
<polygon fill="black" stroke="black" points="644.36,-46.69 633.84,-45.43 641.28,-52.97 644.36,-46.69"/>
</g>
<!-- 535 -->
<g id="node63" class="node">
<title>535</title>
<ellipse fill="#b9d3ee" stroke="black" cx="692.9" cy="-34" rx="36" ry="18"/>
<text text-anchor="middle" x="692.9" y="-30.3" font-family="Times,serif" font-size="14.00">293</text>
</g>
<!-- 45&#45;&gt;535 -->
<g id="edge68" class="edge">
<title>45&#45;&gt;535</title>
<path fill="none" stroke="black" d="M816.62,-93.13C792.11,-81.61 754.74,-64.05 727.48,-51.25"/>
<polygon fill="black" stroke="black" points="728.84,-48.02 718.3,-46.93 725.86,-54.35 728.84,-48.02"/>
</g>
<!-- 522 -->
<g id="node50" class="node">
<title>522</title>
<ellipse fill="#b9d3ee" stroke="black" cx="2168.9" cy="-34" rx="23" ry="18"/>
<text text-anchor="middle" x="2168.9" y="-30.3" font-family="Times,serif" font-size="14.00">11</text>
</g>
<!-- 46&#45;&gt;522 -->
<g id="edge55" class="edge">
<title>46&#45;&gt;522</title>
<path fill="none" stroke="black" d="M2168.9,-87.7C2168.9,-79.98 2168.9,-70.71 2168.9,-62.11"/>
<polygon fill="black" stroke="black" points="2172.4,-62.1 2168.9,-52.1 2165.4,-62.1 2172.4,-62.1"/>
</g>
<!-- 537 -->
<g id="node65" class="node">
<title>537</title>
<ellipse fill="#b9d3ee" stroke="black" cx="2245.9" cy="-34" rx="36" ry="18"/>
<text text-anchor="middle" x="2245.9" y="-30.3" font-family="Times,serif" font-size="14.00">396</text>
</g>
<!-- 46&#45;&gt;537 -->
<g id="edge70" class="edge">
<title>46&#45;&gt;537</title>
<path fill="none" stroke="black" d="M2185.61,-89.81C2196.1,-80.27 2209.81,-67.8 2221.51,-57.17"/>
<polygon fill="black" stroke="black" points="2224.18,-59.48 2229.22,-50.16 2219.47,-54.3 2224.18,-59.48"/>
</g>
<!-- legend_5 -->
<g id="node66" class="node">
<title>legend_5</title>
<polygon fill="#b9d3ee" stroke="black" points="2521.4,-52 2300.4,-52 2300.4,-16 2521.4,-16 2521.4,-52"/>
<text text-anchor="middle" x="2410.9" y="-30.3" font-family="Times,serif" font-size="14.00">DT=6 ST=1 Similarity=0.49</text>
</g>
<!-- legend_4&#45;&gt;legend_5 -->
<g id="edge71" class="edge">
<title>legend_4&#45;&gt;legend_5</title>
<path fill="none" stroke="black" d="M2410.9,-87.7C2410.9,-79.98 2410.9,-70.71 2410.9,-62.11"/>
<polygon fill="black" stroke="black" points="2414.4,-62.1 2410.9,-52.1 2407.4,-62.1 2414.4,-62.1"/>
</g>
</g>
</svg>
