<?xml version="1.0" encoding="UTF-8" standalone="no"?>
<!DOCTYPE svg PUBLIC "-//W3C//DTD SVG 1.1//EN"
 "http://www.w3.org/Graphics/SVG/1.1/DTD/svg11.dtd">
<!-- Generated by graphviz version 2.43.0 (0)
 -->
<!-- Title: %3 Pages: 1 -->
<svg width="2697pt" height="353pt"
 viewBox="0.00 0.00 2697.00 353.00" xmlns="http://www.w3.org/2000/svg" xmlns:xlink="http://www.w3.org/1999/xlink">
<g id="graph0" class="graph" transform="scale(1 1) rotate(0) translate(4 349)">
<title>%3</title>
<polygon fill="white" stroke="transparent" points="-4,4 -4,-349 2693,-349 2693,4 -4,4"/>
<text text-anchor="middle" x="1344.5" y="-329.8" font-family="Times,serif" font-size="14.00">ConsTree</text>
<text text-anchor="middle" x="1344.5" y="-314.8" font-family="Times,serif" font-size="14.00">Tree Quality = 0.6666666666666667</text>
<g id="clust1" class="cluster">
<title>cluster</title>
<polygon fill="none" stroke="black" points="2445,-8 2445,-299 2681,-299 2681,-8 2445,-8"/>
<text text-anchor="middle" x="2563" y="-283.8" font-family="Times,serif" font-size="14.00">Legend</text>
</g>
<!-- 00 -->
<g id="node1" class="node">
<title>00</title>
<ellipse fill="#b9d3ee" stroke="black" cx="324" cy="-250" rx="324" ry="18"/>
<text text-anchor="middle" x="324" y="-246.3" font-family="Times,serif" font-size="14.00">2000</text>
</g>
<!-- 10 -->
<g id="node3" class="node">
<title>10</title>
<ellipse fill="#b9d3ee" stroke="black" cx="163" cy="-178" rx="16.8" ry="18"/>
<text text-anchor="middle" x="163" y="-174.3" font-family="Times,serif" font-size="14.00">1</text>
</g>
<!-- 00&#45;&gt;10 -->
<g id="edge1" class="edge">
<title>00&#45;&gt;10</title>
<path fill="none" stroke="black" d="M273.87,-232.11C247.97,-222.69 216.18,-210.03 189,-196 187.84,-195.4 186.67,-194.76 185.5,-194.1"/>
<polygon fill="black" stroke="black" points="187.07,-190.96 176.72,-188.72 183.41,-196.93 187.07,-190.96"/>
</g>
<!-- 11 -->
<g id="node4" class="node">
<title>11</title>
<ellipse fill="#b9d3ee" stroke="black" cx="486" cy="-178" rx="288" ry="18"/>
<text text-anchor="middle" x="486" y="-174.3" font-family="Times,serif" font-size="14.00">1999</text>
</g>
<!-- 00&#45;&gt;11 -->
<g id="edge2" class="edge">
<title>00&#45;&gt;11</title>
<path fill="none" stroke="black" d="M363.22,-232.05C385.62,-222.37 413.89,-210.16 437.66,-199.89"/>
<polygon fill="black" stroke="black" points="439.07,-203.09 446.87,-195.91 436.3,-196.66 439.07,-203.09"/>
</g>
<!-- legend_0 -->
<g id="node2" class="node">
<title>legend_0</title>
<polygon fill="#b9d3ee" stroke="black" points="2673.5,-268 2452.5,-268 2452.5,-232 2673.5,-232 2673.5,-268"/>
<text text-anchor="middle" x="2563" y="-246.3" font-family="Times,serif" font-size="14.00">DT=3 ST=3 Similarity=0.28</text>
</g>
<!-- legend_1 -->
<g id="node5" class="node">
<title>legend_1</title>
<polygon fill="#b9d3ee" stroke="black" points="2673.5,-196 2452.5,-196 2452.5,-160 2673.5,-160 2673.5,-196"/>
<text text-anchor="middle" x="2563" y="-174.3" font-family="Times,serif" font-size="14.00">DT=4 ST=1 Similarity=0.28</text>
</g>
<!-- legend_0&#45;&gt;legend_1 -->
<g id="edge3" class="edge">
<title>legend_0&#45;&gt;legend_1</title>
<path fill="none" stroke="black" d="M2563,-231.7C2563,-223.98 2563,-214.71 2563,-206.11"/>
<polygon fill="black" stroke="black" points="2566.5,-206.1 2563,-196.1 2559.5,-206.1 2566.5,-206.1"/>
</g>
<!-- 20 -->
<g id="node6" class="node">
<title>20</title>
<ellipse fill="#b9d3ee" stroke="black" cx="163" cy="-106" rx="16.8" ry="18"/>
<text text-anchor="middle" x="163" y="-102.3" font-family="Times,serif" font-size="14.00">1</text>
</g>
<!-- 10&#45;&gt;20 -->
<g id="edge4" class="edge">
<title>10&#45;&gt;20</title>
<path fill="none" stroke="black" d="M163,-159.7C163,-151.98 163,-142.71 163,-134.11"/>
<polygon fill="black" stroke="black" points="166.5,-134.1 163,-124.1 159.5,-134.1 166.5,-134.1"/>
</g>
<!-- 21 -->
<g id="node7" class="node">
<title>21</title>
<ellipse fill="#b9d3ee" stroke="black" cx="368" cy="-106" rx="16.8" ry="18"/>
<text text-anchor="middle" x="368" y="-102.3" font-family="Times,serif" font-size="14.00">2</text>
</g>
<!-- 11&#45;&gt;21 -->
<g id="edge5" class="edge">
<title>11&#45;&gt;21</title>
<path fill="none" stroke="black" d="M457.44,-160.05C437.15,-148.02 410.27,-132.07 391.28,-120.81"/>
<polygon fill="black" stroke="black" points="393.05,-117.79 382.67,-115.7 389.48,-123.81 393.05,-117.79"/>
</g>
<!-- 22 -->
<g id="node8" class="node">
<title>22</title>
<ellipse fill="#b9d3ee" stroke="black" cx="1248" cy="-106" rx="288" ry="18"/>
<text text-anchor="middle" x="1248" y="-102.3" font-family="Times,serif" font-size="14.00">1997</text>
</g>
<!-- 11&#45;&gt;22 -->
<g id="edge6" class="edge">
<title>11&#45;&gt;22</title>
<path fill="none" stroke="black" d="M640.66,-162.79C769.23,-150.98 951.74,-134.22 1083.08,-122.15"/>
<polygon fill="black" stroke="black" points="1083.6,-125.62 1093.24,-121.22 1082.96,-118.65 1083.6,-125.62"/>
</g>
<!-- legend_2 -->
<g id="node9" class="node">
<title>legend_2</title>
<polygon fill="#b9d3ee" stroke="black" points="2673.5,-124 2452.5,-124 2452.5,-88 2673.5,-88 2673.5,-124"/>
<text text-anchor="middle" x="2563" y="-102.3" font-family="Times,serif" font-size="14.00">DT=5 ST=1 Similarity=0.28</text>
</g>
<!-- legend_1&#45;&gt;legend_2 -->
<g id="edge7" class="edge">
<title>legend_1&#45;&gt;legend_2</title>
<path fill="none" stroke="black" d="M2563,-159.7C2563,-151.98 2563,-142.71 2563,-134.11"/>
<polygon fill="black" stroke="black" points="2566.5,-134.1 2563,-124.1 2559.5,-134.1 2566.5,-134.1"/>
</g>
<!-- 313 -->
<g id="node23" class="node">
<title>313</title>
<polygon fill="darkseagreen" stroke="black" points="176,-52 150,-52 150,-16 176,-16 176,-52"/>
<text text-anchor="middle" x="163" y="-30.3" font-family="Times,serif" font-size="14.00">1</text>
</g>
<!-- 20&#45;&gt;313 -->
<g id="edge21" class="edge">
<title>20&#45;&gt;313</title>
<path fill="none" stroke="black" d="M163,-87.7C163,-79.98 163,-70.71 163,-62.11"/>
<polygon fill="black" stroke="black" points="166.5,-62.1 163,-52.1 159.5,-62.1 166.5,-62.1"/>
</g>
<!-- 39 -->
<g id="node19" class="node">
<title>39</title>
<polygon fill="darkseagreen" stroke="black" points="337,-52 311,-52 311,-16 337,-16 337,-52"/>
<text text-anchor="middle" x="324" y="-30.3" font-family="Times,serif" font-size="14.00">1</text>
</g>
<!-- 21&#45;&gt;39 -->
<g id="edge17" class="edge">
<title>21&#45;&gt;39</title>
<path fill="none" stroke="black" d="M358.88,-90.5C353.53,-81.97 346.59,-70.95 340.32,-60.97"/>
<polygon fill="black" stroke="black" points="343.1,-58.81 334.81,-52.2 337.17,-62.53 343.1,-58.81"/>
</g>
<!-- 310 -->
<g id="node20" class="node">
<title>310</title>
<polygon fill="darkseagreen" stroke="black" points="381,-52 355,-52 355,-16 381,-16 381,-52"/>
<text text-anchor="middle" x="368" y="-30.3" font-family="Times,serif" font-size="14.00">1</text>
</g>
<!-- 21&#45;&gt;310 -->
<g id="edge18" class="edge">
<title>21&#45;&gt;310</title>
<path fill="none" stroke="black" d="M368,-87.7C368,-79.98 368,-70.71 368,-62.11"/>
<polygon fill="black" stroke="black" points="371.5,-62.1 368,-52.1 364.5,-62.1 371.5,-62.1"/>
</g>
<!-- 30 -->
<g id="node10" class="node">
<title>30</title>
<polygon fill="darkseagreen" stroke="black" points="425,-52 399,-52 399,-16 425,-16 425,-52"/>
<text text-anchor="middle" x="412" y="-30.3" font-family="Times,serif" font-size="14.00">1</text>
</g>
<!-- 22&#45;&gt;30 -->
<g id="edge8" class="edge">
<title>22&#45;&gt;30</title>
<path fill="none" stroke="black" d="M961.65,-103.95C766.74,-99.9 527.76,-87.45 434,-52 433.9,-51.96 433.81,-51.93 433.71,-51.89"/>
<polygon fill="black" stroke="black" points="435.64,-48.96 425.2,-47.16 432.24,-55.08 435.64,-48.96"/>
</g>
<!-- 31 -->
<g id="node11" class="node">
<title>31</title>
<polygon fill="darkseagreen" stroke="black" points="469,-52 443,-52 443,-16 469,-16 469,-52"/>
<text text-anchor="middle" x="456" y="-30.3" font-family="Times,serif" font-size="14.00">1</text>
</g>
<!-- 22&#45;&gt;31 -->
<g id="edge9" class="edge">
<title>22&#45;&gt;31</title>
<path fill="none" stroke="black" d="M965.08,-102.59C783,-97.78 564.74,-84.98 478,-52 477.9,-51.96 477.81,-51.93 477.71,-51.89"/>
<polygon fill="black" stroke="black" points="479.64,-48.96 469.2,-47.15 476.24,-55.07 479.64,-48.96"/>
</g>
<!-- 32 -->
<g id="node12" class="node">
<title>32</title>
<polygon fill="darkseagreen" stroke="black" points="513,-52 487,-52 487,-16 513,-16 513,-52"/>
<text text-anchor="middle" x="500" y="-30.3" font-family="Times,serif" font-size="14.00">1</text>
</g>
<!-- 22&#45;&gt;32 -->
<g id="edge10" class="edge">
<title>22&#45;&gt;32</title>
<path fill="none" stroke="black" d="M970.49,-101.18C801.04,-95.67 602.04,-82.62 522,-52 521.9,-51.96 521.81,-51.93 521.71,-51.89"/>
<polygon fill="black" stroke="black" points="523.65,-48.96 513.21,-47.14 520.23,-55.07 523.65,-48.96"/>
</g>
<!-- 33 -->
<g id="node13" class="node">
<title>33</title>
<polygon fill="darkseagreen" stroke="black" points="557,-52 531,-52 531,-16 557,-16 557,-52"/>
<text text-anchor="middle" x="544" y="-30.3" font-family="Times,serif" font-size="14.00">1</text>
</g>
<!-- 22&#45;&gt;33 -->
<g id="edge11" class="edge">
<title>22&#45;&gt;33</title>
<path fill="none" stroke="black" d="M978.01,-99.71C820.9,-93.59 639.7,-80.39 566,-52 565.9,-51.96 565.81,-51.93 565.71,-51.89"/>
<polygon fill="black" stroke="black" points="567.65,-48.96 557.21,-47.13 564.23,-55.07 567.65,-48.96"/>
</g>
<!-- 34 -->
<g id="node14" class="node">
<title>34</title>
<polygon fill="darkseagreen" stroke="black" points="601,-52 575,-52 575,-16 601,-16 601,-52"/>
<text text-anchor="middle" x="588" y="-30.3" font-family="Times,serif" font-size="14.00">1</text>
</g>
<!-- 22&#45;&gt;34 -->
<g id="edge12" class="edge">
<title>22&#45;&gt;34</title>
<path fill="none" stroke="black" d="M987.92,-98.24C842.71,-91.56 677.73,-78.3 610,-52 609.9,-51.96 609.81,-51.93 609.71,-51.89"/>
<polygon fill="black" stroke="black" points="611.65,-48.96 601.22,-47.12 608.22,-55.06 611.65,-48.96"/>
</g>
<!-- 35 -->
<g id="node15" class="node">
<title>35</title>
<polygon fill="darkseagreen" stroke="black" points="645,-52 619,-52 619,-16 645,-16 645,-52"/>
<text text-anchor="middle" x="632" y="-30.3" font-family="Times,serif" font-size="14.00">1</text>
</g>
<!-- 22&#45;&gt;35 -->
<g id="edge13" class="edge">
<title>22&#45;&gt;35</title>
<path fill="none" stroke="black" d="M1000.39,-96.8C866.52,-89.63 716.18,-76.36 654,-52 653.9,-51.96 653.81,-51.92 653.71,-51.89"/>
<polygon fill="black" stroke="black" points="655.65,-48.96 645.22,-47.1 652.22,-55.06 655.65,-48.96"/>
</g>
<!-- 36 -->
<g id="node16" class="node">
<title>36</title>
<polygon fill="darkseagreen" stroke="black" points="689,-52 663,-52 663,-16 689,-16 689,-52"/>
<text text-anchor="middle" x="676" y="-30.3" font-family="Times,serif" font-size="14.00">1</text>
</g>
<!-- 22&#45;&gt;36 -->
<g id="edge14" class="edge">
<title>22&#45;&gt;36</title>
<path fill="none" stroke="black" d="M1015.09,-95.41C892.05,-87.8 754.97,-74.56 698,-52 697.9,-51.96 697.81,-51.92 697.71,-51.89"/>
<polygon fill="black" stroke="black" points="699.66,-48.96 689.23,-47.08 696.21,-55.06 699.66,-48.96"/>
</g>
<!-- 37 -->
<g id="node17" class="node">
<title>37</title>
<polygon fill="darkseagreen" stroke="black" points="733,-52 707,-52 707,-16 733,-16 733,-52"/>
<text text-anchor="middle" x="720" y="-30.3" font-family="Times,serif" font-size="14.00">1</text>
</g>
<!-- 22&#45;&gt;37 -->
<g id="edge15" class="edge">
<title>22&#45;&gt;37</title>
<path fill="none" stroke="black" d="M1031.7,-94.08C919,-86.07 794.06,-72.86 742,-52 741.9,-51.96 741.81,-51.92 741.71,-51.88"/>
<polygon fill="black" stroke="black" points="743.66,-48.96 733.24,-47.06 740.2,-55.05 743.66,-48.96"/>
</g>
<!-- 38 -->
<g id="node18" class="node">
<title>38</title>
<polygon fill="darkseagreen" stroke="black" points="777,-52 751,-52 751,-16 777,-16 777,-52"/>
<text text-anchor="middle" x="764" y="-30.3" font-family="Times,serif" font-size="14.00">1</text>
</g>
<!-- 22&#45;&gt;38 -->
<g id="edge16" class="edge">
<title>22&#45;&gt;38</title>
<path fill="none" stroke="black" d="M1050.47,-92.89C947.57,-84.5 833.49,-71.3 786,-52 785.9,-51.96 785.81,-51.92 785.72,-51.88"/>
<polygon fill="black" stroke="black" points="787.67,-48.97 777.25,-47.04 784.19,-55.04 787.67,-48.97"/>
</g>
<!-- 311 -->
<g id="node21" class="node">
<title>311</title>
<polygon fill="darkseagreen" stroke="black" points="821,-52 795,-52 795,-16 821,-16 821,-52"/>
<text text-anchor="middle" x="808" y="-30.3" font-family="Times,serif" font-size="14.00">1</text>
</g>
<!-- 22&#45;&gt;311 -->
<g id="edge19" class="edge">
<title>22&#45;&gt;311</title>
<path fill="none" stroke="black" d="M1070.35,-91.81C976.95,-83.03 873.1,-69.82 830,-52 829.91,-51.96 829.81,-51.92 829.72,-51.88"/>
<polygon fill="black" stroke="black" points="831.67,-48.97 821.26,-47.01 828.18,-55.03 831.67,-48.97"/>
</g>
<!-- 312 -->
<g id="node22" class="node">
<title>312</title>
<polygon fill="darkseagreen" stroke="black" points="865,-52 839,-52 839,-16 865,-16 865,-52"/>
<text text-anchor="middle" x="852" y="-30.3" font-family="Times,serif" font-size="14.00">1</text>
</g>
<!-- 22&#45;&gt;312 -->
<g id="edge20" class="edge">
<title>22&#45;&gt;312</title>
<path fill="none" stroke="black" d="M1033.69,-93.88C980.06,-85.94 923.7,-72.97 874,-52 873.91,-51.96 873.81,-51.92 873.72,-51.88"/>
<polygon fill="black" stroke="black" points="875.68,-48.97 865.28,-46.97 872.16,-55.02 875.68,-48.97"/>
</g>
<!-- 314 -->
<g id="node24" class="node">
<title>314</title>
<polygon fill="darkseagreen" stroke="black" points="909,-52 883,-52 883,-16 909,-16 909,-52"/>
<text text-anchor="middle" x="896" y="-30.3" font-family="Times,serif" font-size="14.00">2</text>
</g>
<!-- 22&#45;&gt;314 -->
<g id="edge22" class="edge">
<title>22&#45;&gt;314</title>
<path fill="none" stroke="black" d="M1064.86,-92.09C1015.76,-84.24 963.66,-71.77 918,-52 917.91,-51.96 917.81,-51.92 917.72,-51.88"/>
<polygon fill="black" stroke="black" points="919.69,-48.98 909.29,-46.93 916.14,-55.01 919.69,-48.98"/>
</g>
<!-- 315 -->
<g id="node25" class="node">
<title>315</title>
<polygon fill="darkseagreen" stroke="black" points="953,-52 927,-52 927,-16 953,-16 953,-52"/>
<text text-anchor="middle" x="940" y="-30.3" font-family="Times,serif" font-size="14.00">3</text>
</g>
<!-- 22&#45;&gt;315 -->
<g id="edge23" class="edge">
<title>22&#45;&gt;315</title>
<path fill="none" stroke="black" d="M1096.63,-90.65C1051.95,-82.82 1003.83,-70.71 962,-52 961.91,-51.96 961.81,-51.92 961.72,-51.87"/>
<polygon fill="black" stroke="black" points="963.7,-48.98 953.32,-46.87 960.12,-54.99 963.7,-48.98"/>
</g>
<!-- 316 -->
<g id="node26" class="node">
<title>316</title>
<polygon fill="darkseagreen" stroke="black" points="997,-52 971,-52 971,-16 997,-16 997,-52"/>
<text text-anchor="middle" x="984" y="-30.3" font-family="Times,serif" font-size="14.00">3</text>
</g>
<!-- 22&#45;&gt;316 -->
<g id="edge24" class="edge">
<title>22&#45;&gt;316</title>
<path fill="none" stroke="black" d="M1128.27,-89.61C1088.16,-81.65 1044,-69.74 1006,-52 1005.91,-51.96 1005.81,-51.91 1005.72,-51.87"/>
<polygon fill="black" stroke="black" points="1007.72,-48.99 997.36,-46.79 1004.09,-54.97 1007.72,-48.99"/>
</g>
<!-- 317 -->
<g id="node27" class="node">
<title>317</title>
<polygon fill="darkseagreen" stroke="black" points="1041,-52 1015,-52 1015,-16 1041,-16 1041,-52"/>
<text text-anchor="middle" x="1028" y="-30.3" font-family="Times,serif" font-size="14.00">3</text>
</g>
<!-- 22&#45;&gt;317 -->
<g id="edge25" class="edge">
<title>22&#45;&gt;317</title>
<path fill="none" stroke="black" d="M1158.05,-88.86C1123.19,-80.59 1083.64,-68.66 1050,-52 1049.91,-51.95 1049.82,-51.91 1049.72,-51.86"/>
<polygon fill="black" stroke="black" points="1051.75,-49 1041.41,-46.68 1048.05,-54.94 1051.75,-49"/>
</g>
<!-- 318 -->
<g id="node28" class="node">
<title>318</title>
<polygon fill="darkseagreen" stroke="black" points="1085,-52 1059,-52 1059,-16 1085,-16 1085,-52"/>
<text text-anchor="middle" x="1072" y="-30.3" font-family="Times,serif" font-size="14.00">3</text>
</g>
<!-- 22&#45;&gt;318 -->
<g id="edge26" class="edge">
<title>22&#45;&gt;318</title>
<path fill="none" stroke="black" d="M1184.98,-88.41C1156.31,-79.59 1122.49,-67.37 1094,-52 1093.81,-51.9 1093.62,-51.79 1093.43,-51.69"/>
<polygon fill="black" stroke="black" points="1095.3,-48.73 1085.02,-46.17 1091.46,-54.58 1095.3,-48.73"/>
</g>
<!-- 319 -->
<g id="node29" class="node">
<title>319</title>
<polygon fill="darkseagreen" stroke="black" points="1129,-52 1103,-52 1103,-16 1129,-16 1129,-52"/>
<text text-anchor="middle" x="1116" y="-30.3" font-family="Times,serif" font-size="14.00">4</text>
</g>
<!-- 22&#45;&gt;319 -->
<g id="edge27" class="edge">
<title>22&#45;&gt;319</title>
<path fill="none" stroke="black" d="M1208,-88.16C1186.66,-78.58 1160.27,-65.76 1138,-52 1137.82,-51.89 1137.63,-51.77 1137.44,-51.65"/>
<polygon fill="black" stroke="black" points="1139.38,-48.74 1129.18,-45.89 1135.38,-54.48 1139.38,-48.74"/>
</g>
<!-- 320 -->
<g id="node30" class="node">
<title>320</title>
<polygon fill="darkseagreen" stroke="black" points="1173,-52 1147,-52 1147,-16 1173,-16 1173,-52"/>
<text text-anchor="middle" x="1160" y="-30.3" font-family="Times,serif" font-size="14.00">4</text>
</g>
<!-- 22&#45;&gt;320 -->
<g id="edge28" class="edge">
<title>22&#45;&gt;320</title>
<path fill="none" stroke="black" d="M1226.25,-87.7C1212.42,-76.7 1194.62,-62.54 1180.95,-51.67"/>
<polygon fill="black" stroke="black" points="1183.05,-48.87 1173.05,-45.38 1178.7,-54.34 1183.05,-48.87"/>
</g>
<!-- 321 -->
<g id="node31" class="node">
<title>321</title>
<polygon fill="darkseagreen" stroke="black" points="1217,-52 1191,-52 1191,-16 1217,-16 1217,-52"/>
<text text-anchor="middle" x="1204" y="-30.3" font-family="Times,serif" font-size="14.00">4</text>
</g>
<!-- 22&#45;&gt;321 -->
<g id="edge29" class="edge">
<title>22&#45;&gt;321</title>
<path fill="none" stroke="black" d="M1237.12,-87.7C1232.01,-79.56 1225.8,-69.69 1220.16,-60.7"/>
<polygon fill="black" stroke="black" points="1223.04,-58.71 1214.75,-52.1 1217.11,-62.43 1223.04,-58.71"/>
</g>
<!-- 322 -->
<g id="node32" class="node">
<title>322</title>
<polygon fill="darkseagreen" stroke="black" points="1261,-52 1235,-52 1235,-16 1261,-16 1261,-52"/>
<text text-anchor="middle" x="1248" y="-30.3" font-family="Times,serif" font-size="14.00">5</text>
</g>
<!-- 22&#45;&gt;322 -->
<g id="edge30" class="edge">
<title>22&#45;&gt;322</title>
<path fill="none" stroke="black" d="M1248,-87.7C1248,-79.98 1248,-70.71 1248,-62.11"/>
<polygon fill="black" stroke="black" points="1251.5,-62.1 1248,-52.1 1244.5,-62.1 1251.5,-62.1"/>
</g>
<!-- 323 -->
<g id="node33" class="node">
<title>323</title>
<polygon fill="darkseagreen" stroke="black" points="1305,-52 1279,-52 1279,-16 1305,-16 1305,-52"/>
<text text-anchor="middle" x="1292" y="-30.3" font-family="Times,serif" font-size="14.00">5</text>
</g>
<!-- 22&#45;&gt;323 -->
<g id="edge31" class="edge">
<title>22&#45;&gt;323</title>
<path fill="none" stroke="black" d="M1258.88,-87.7C1263.99,-79.56 1270.2,-69.69 1275.84,-60.7"/>
<polygon fill="black" stroke="black" points="1278.89,-62.43 1281.25,-52.1 1272.96,-58.71 1278.89,-62.43"/>
</g>
<!-- 324 -->
<g id="node34" class="node">
<title>324</title>
<polygon fill="darkseagreen" stroke="black" points="1349,-52 1323,-52 1323,-16 1349,-16 1349,-52"/>
<text text-anchor="middle" x="1336" y="-30.3" font-family="Times,serif" font-size="14.00">6</text>
</g>
<!-- 22&#45;&gt;324 -->
<g id="edge32" class="edge">
<title>22&#45;&gt;324</title>
<path fill="none" stroke="black" d="M1269.75,-87.7C1283.58,-76.7 1301.38,-62.54 1315.05,-51.67"/>
<polygon fill="black" stroke="black" points="1317.3,-54.34 1322.95,-45.38 1312.95,-48.87 1317.3,-54.34"/>
</g>
<!-- 325 -->
<g id="node35" class="node">
<title>325</title>
<polygon fill="darkseagreen" stroke="black" points="1393,-52 1367,-52 1367,-16 1393,-16 1393,-52"/>
<text text-anchor="middle" x="1380" y="-30.3" font-family="Times,serif" font-size="14.00">7</text>
</g>
<!-- 22&#45;&gt;325 -->
<g id="edge33" class="edge">
<title>22&#45;&gt;325</title>
<path fill="none" stroke="black" d="M1288,-88.16C1309.34,-78.58 1335.73,-65.76 1358,-52 1358.18,-51.89 1358.37,-51.77 1358.56,-51.65"/>
<polygon fill="black" stroke="black" points="1360.62,-54.48 1366.82,-45.89 1356.62,-48.74 1360.62,-54.48"/>
</g>
<!-- 326 -->
<g id="node36" class="node">
<title>326</title>
<polygon fill="darkseagreen" stroke="black" points="1437,-52 1411,-52 1411,-16 1437,-16 1437,-52"/>
<text text-anchor="middle" x="1424" y="-30.3" font-family="Times,serif" font-size="14.00">8</text>
</g>
<!-- 22&#45;&gt;326 -->
<g id="edge34" class="edge">
<title>22&#45;&gt;326</title>
<path fill="none" stroke="black" d="M1311.02,-88.41C1339.69,-79.59 1373.51,-67.37 1402,-52 1402.19,-51.9 1402.38,-51.79 1402.57,-51.69"/>
<polygon fill="black" stroke="black" points="1404.54,-54.58 1410.98,-46.17 1400.7,-48.73 1404.54,-54.58"/>
</g>
<!-- 327 -->
<g id="node37" class="node">
<title>327</title>
<polygon fill="darkseagreen" stroke="black" points="1481,-52 1455,-52 1455,-16 1481,-16 1481,-52"/>
<text text-anchor="middle" x="1468" y="-30.3" font-family="Times,serif" font-size="14.00">8</text>
</g>
<!-- 22&#45;&gt;327 -->
<g id="edge35" class="edge">
<title>22&#45;&gt;327</title>
<path fill="none" stroke="black" d="M1337.95,-88.86C1372.81,-80.59 1412.36,-68.66 1446,-52 1446.09,-51.95 1446.18,-51.91 1446.28,-51.86"/>
<polygon fill="black" stroke="black" points="1447.95,-54.94 1454.59,-46.68 1444.25,-49 1447.95,-54.94"/>
</g>
<!-- 328 -->
<g id="node38" class="node">
<title>328</title>
<polygon fill="darkseagreen" stroke="black" points="1525,-52 1499,-52 1499,-16 1525,-16 1525,-52"/>
<text text-anchor="middle" x="1512" y="-30.3" font-family="Times,serif" font-size="14.00">9</text>
</g>
<!-- 22&#45;&gt;328 -->
<g id="edge36" class="edge">
<title>22&#45;&gt;328</title>
<path fill="none" stroke="black" d="M1367.73,-89.61C1407.84,-81.65 1452,-69.74 1490,-52 1490.09,-51.96 1490.19,-51.91 1490.28,-51.87"/>
<polygon fill="black" stroke="black" points="1491.91,-54.97 1498.64,-46.79 1488.28,-48.99 1491.91,-54.97"/>
</g>
<!-- 329 -->
<g id="node39" class="node">
<title>329</title>
<polygon fill="darkseagreen" stroke="black" points="1578.5,-52 1543.5,-52 1543.5,-16 1578.5,-16 1578.5,-52"/>
<text text-anchor="middle" x="1561" y="-30.3" font-family="Times,serif" font-size="14.00">10</text>
</g>
<!-- 22&#45;&gt;329 -->
<g id="edge37" class="edge">
<title>22&#45;&gt;329</title>
<path fill="none" stroke="black" d="M1386.23,-90.18C1434.12,-82.25 1487.44,-70.2 1534,-52 1534.1,-51.96 1534.2,-51.92 1534.3,-51.88"/>
<polygon fill="black" stroke="black" points="1536.08,-54.91 1543.49,-47.34 1532.98,-48.63 1536.08,-54.91"/>
</g>
<!-- 330 -->
<g id="node40" class="node">
<title>330</title>
<polygon fill="darkseagreen" stroke="black" points="1631.5,-52 1596.5,-52 1596.5,-16 1631.5,-16 1631.5,-52"/>
<text text-anchor="middle" x="1614" y="-30.3" font-family="Times,serif" font-size="14.00">19</text>
</g>
<!-- 22&#45;&gt;330 -->
<g id="edge38" class="edge">
<title>22&#45;&gt;330</title>
<path fill="none" stroke="black" d="M1421.76,-91.61C1475.88,-83.81 1534.98,-71.49 1587,-52 1587.1,-51.96 1587.19,-51.93 1587.29,-51.89"/>
<polygon fill="black" stroke="black" points="1588.74,-55.08 1596.23,-47.59 1585.7,-48.77 1588.74,-55.08"/>
</g>
<!-- 331 -->
<g id="node41" class="node">
<title>331</title>
<polygon fill="darkseagreen" stroke="black" points="1684.5,-52 1649.5,-52 1649.5,-16 1684.5,-16 1684.5,-52"/>
<text text-anchor="middle" x="1667" y="-30.3" font-family="Times,serif" font-size="14.00">21</text>
</g>
<!-- 22&#45;&gt;331 -->
<g id="edge39" class="edge">
<title>22&#45;&gt;331</title>
<path fill="none" stroke="black" d="M1456.19,-93.55C1516.75,-85.79 1582.14,-73 1640,-52 1640.1,-51.96 1640.2,-51.93 1640.29,-51.89"/>
<polygon fill="black" stroke="black" points="1641.71,-55.09 1649.25,-47.64 1638.71,-48.77 1641.71,-55.09"/>
</g>
<!-- 332 -->
<g id="node42" class="node">
<title>332</title>
<polygon fill="darkseagreen" stroke="black" points="1737.5,-52 1702.5,-52 1702.5,-16 1737.5,-16 1737.5,-52"/>
<text text-anchor="middle" x="1720" y="-30.3" font-family="Times,serif" font-size="14.00">23</text>
</g>
<!-- 22&#45;&gt;332 -->
<g id="edge40" class="edge">
<title>22&#45;&gt;332</title>
<path fill="none" stroke="black" d="M1425.71,-91.83C1527.57,-82.72 1644.55,-69.15 1693,-52 1693.1,-51.97 1693.2,-51.93 1693.29,-51.89"/>
<polygon fill="black" stroke="black" points="1694.7,-55.1 1702.26,-47.69 1691.72,-48.77 1694.7,-55.1"/>
</g>
<!-- 333 -->
<g id="node43" class="node">
<title>333</title>
<polygon fill="darkseagreen" stroke="black" points="1790.5,-52 1755.5,-52 1755.5,-16 1790.5,-16 1790.5,-52"/>
<text text-anchor="middle" x="1773" y="-30.3" font-family="Times,serif" font-size="14.00">23</text>
</g>
<!-- 22&#45;&gt;333 -->
<g id="edge41" class="edge">
<title>22&#45;&gt;333</title>
<path fill="none" stroke="black" d="M1447.17,-92.98C1561.08,-84.31 1691.79,-70.81 1746,-52 1746.1,-51.97 1746.2,-51.93 1746.29,-51.9"/>
<polygon fill="black" stroke="black" points="1747.68,-55.11 1755.28,-47.72 1744.73,-48.76 1747.68,-55.11"/>
</g>
<!-- 334 -->
<g id="node44" class="node">
<title>334</title>
<polygon fill="darkseagreen" stroke="black" points="1843.5,-52 1808.5,-52 1808.5,-16 1843.5,-16 1843.5,-52"/>
<text text-anchor="middle" x="1826" y="-30.3" font-family="Times,serif" font-size="14.00">66</text>
</g>
<!-- 22&#45;&gt;334 -->
<g id="edge42" class="edge">
<title>22&#45;&gt;334</title>
<path fill="none" stroke="black" d="M1466.91,-94.26C1593.26,-86.04 1738.75,-72.57 1799,-52 1799.1,-51.97 1799.2,-51.93 1799.29,-51.9"/>
<polygon fill="black" stroke="black" points="1800.67,-55.12 1808.29,-47.75 1797.74,-48.76 1800.67,-55.12"/>
</g>
<!-- 335 -->
<g id="node45" class="node">
<title>335</title>
<polygon fill="darkseagreen" stroke="black" points="1896.5,-52 1861.5,-52 1861.5,-16 1896.5,-16 1896.5,-52"/>
<text text-anchor="middle" x="1879" y="-30.3" font-family="Times,serif" font-size="14.00">68</text>
</g>
<!-- 22&#45;&gt;335 -->
<g id="edge43" class="edge">
<title>22&#45;&gt;335</title>
<path fill="none" stroke="black" d="M1484.02,-95.65C1623.41,-87.92 1785.28,-74.46 1852,-52 1852.1,-51.97 1852.2,-51.93 1852.3,-51.9"/>
<polygon fill="black" stroke="black" points="1853.66,-55.12 1861.29,-47.77 1850.74,-48.76 1853.66,-55.12"/>
</g>
<!-- 336 -->
<g id="node46" class="node">
<title>336</title>
<polygon fill="darkseagreen" stroke="black" points="1949.5,-52 1914.5,-52 1914.5,-16 1949.5,-16 1949.5,-52"/>
<text text-anchor="middle" x="1932" y="-30.3" font-family="Times,serif" font-size="14.00">81</text>
</g>
<!-- 22&#45;&gt;336 -->
<g id="edge44" class="edge">
<title>22&#45;&gt;336</title>
<path fill="none" stroke="black" d="M1498.76,-97.1C1651.69,-89.89 1831.44,-76.48 1905,-52 1905.1,-51.97 1905.2,-51.93 1905.3,-51.9"/>
<polygon fill="black" stroke="black" points="1906.66,-55.13 1914.3,-47.79 1903.75,-48.76 1906.66,-55.13"/>
</g>
<!-- 337 -->
<g id="node47" class="node">
<title>337</title>
<polygon fill="darkseagreen" stroke="black" points="2012,-52 1968,-52 1968,-16 2012,-16 2012,-52"/>
<text text-anchor="middle" x="1990" y="-30.3" font-family="Times,serif" font-size="14.00">112</text>
</g>
<!-- 22&#45;&gt;337 -->
<g id="edge45" class="edge">
<title>22&#45;&gt;337</title>
<path fill="none" stroke="black" d="M1498.87,-97.16C1667.77,-89.8 1874.36,-76.18 1958,-52 1958.1,-51.97 1958.2,-51.94 1958.31,-51.91"/>
<polygon fill="black" stroke="black" points="1959.68,-55.13 1967.77,-48.29 1957.18,-48.6 1959.68,-55.13"/>
</g>
<!-- 338 -->
<g id="node48" class="node">
<title>338</title>
<polygon fill="darkseagreen" stroke="black" points="2074,-52 2030,-52 2030,-16 2074,-16 2074,-52"/>
<text text-anchor="middle" x="2052" y="-30.3" font-family="Times,serif" font-size="14.00">176</text>
</g>
<!-- 22&#45;&gt;338 -->
<g id="edge46" class="edge">
<title>22&#45;&gt;338</title>
<path fill="none" stroke="black" d="M1513.41,-98.93C1692.93,-92.59 1914.45,-79.85 2019.96,-51.43"/>
<polygon fill="black" stroke="black" points="2021.15,-54.73 2029.81,-48.63 2019.23,-48 2021.15,-54.73"/>
</g>
<!-- 339 -->
<g id="node49" class="node">
<title>339</title>
<polygon fill="darkseagreen" stroke="black" points="2164,-52 2092,-52 2092,-16 2164,-16 2164,-52"/>
<text text-anchor="middle" x="2128" y="-30.3" font-family="Times,serif" font-size="14.00">266</text>
</g>
<!-- 22&#45;&gt;339 -->
<g id="edge47" class="edge">
<title>22&#45;&gt;339</title>
<path fill="none" stroke="black" d="M1499.82,-97.24C1698.73,-89.62 1960.96,-75.89 2082.06,-51.74"/>
<polygon fill="black" stroke="black" points="2082.86,-55.15 2091.93,-49.68 2081.43,-48.3 2082.86,-55.15"/>
</g>
<!-- 340 -->
<g id="node50" class="node">
<title>340</title>
<polygon fill="darkseagreen" stroke="black" points="2254,-52 2182,-52 2182,-16 2254,-16 2254,-52"/>
<text text-anchor="middle" x="2218" y="-30.3" font-family="Times,serif" font-size="14.00">294</text>
</g>
<!-- 22&#45;&gt;340 -->
<g id="edge48" class="edge">
<title>22&#45;&gt;340</title>
<path fill="none" stroke="black" d="M1511.88,-98.77C1734.39,-91.93 2036.34,-78.48 2172.06,-51.74"/>
<polygon fill="black" stroke="black" points="2172.85,-55.15 2181.94,-49.7 2171.43,-48.29 2172.85,-55.15"/>
</g>
<!-- 341 -->
<g id="node51" class="node">
<title>341</title>
<polygon fill="darkseagreen" stroke="black" points="2344,-52 2272,-52 2272,-16 2344,-16 2344,-52"/>
<text text-anchor="middle" x="2308" y="-30.3" font-family="Times,serif" font-size="14.00">371</text>
</g>
<!-- 22&#45;&gt;341 -->
<g id="edge49" class="edge">
<title>22&#45;&gt;341</title>
<path fill="none" stroke="black" d="M1520.97,-100.21C1766.82,-94.21 2110.82,-81.19 2261.84,-51.77"/>
<polygon fill="black" stroke="black" points="2262.84,-55.14 2271.94,-49.72 2261.44,-48.28 2262.84,-55.14"/>
</g>
<!-- 342 -->
<g id="node52" class="node">
<title>342</title>
<polygon fill="darkseagreen" stroke="black" points="2434,-52 2362,-52 2362,-16 2434,-16 2434,-52"/>
<text text-anchor="middle" x="2398" y="-30.3" font-family="Times,serif" font-size="14.00">382</text>
</g>
<!-- 22&#45;&gt;342 -->
<g id="edge50" class="edge">
<title>22&#45;&gt;342</title>
<path fill="none" stroke="black" d="M1527.11,-101.53C1796.1,-96.44 2184.93,-84 2351.76,-51.78"/>
<polygon fill="black" stroke="black" points="2352.83,-55.14 2361.94,-49.73 2351.45,-48.28 2352.83,-55.14"/>
</g>
<!-- legend_3 -->
<g id="node53" class="node">
<title>legend_3</title>
<polygon fill="darkseagreen" stroke="black" points="2673.5,-52 2452.5,-52 2452.5,-16 2673.5,-16 2673.5,-52"/>
<text text-anchor="middle" x="2563" y="-30.3" font-family="Times,serif" font-size="14.00">DT=6 ST=1 Similarity=0.52</text>
</g>
<!-- legend_2&#45;&gt;legend_3 -->
<g id="edge51" class="edge">
<title>legend_2&#45;&gt;legend_3</title>
<path fill="none" stroke="black" d="M2563,-87.7C2563,-79.98 2563,-70.71 2563,-62.11"/>
<polygon fill="black" stroke="black" points="2566.5,-62.1 2563,-52.1 2559.5,-62.1 2566.5,-62.1"/>
</g>
</g>
</svg>
