<?xml version="1.0" encoding="UTF-8" standalone="no"?>
<!DOCTYPE svg PUBLIC "-//W3C//DTD SVG 1.1//EN"
 "http://www.w3.org/Graphics/SVG/1.1/DTD/svg11.dtd">
<!-- Generated by graphviz version 2.43.0 (0)
 -->
<!-- Title: %3 Pages: 1 -->
<svg width="2545pt" height="497pt"
 viewBox="0.00 0.00 2544.90 497.00" xmlns="http://www.w3.org/2000/svg" xmlns:xlink="http://www.w3.org/1999/xlink">
<g id="graph0" class="graph" transform="scale(1 1) rotate(0) translate(4 493)">
<title>%3</title>
<polygon fill="white" stroke="transparent" points="-4,4 -4,-493 2540.9,-493 2540.9,4 -4,4"/>
<text text-anchor="middle" x="1268.45" y="-473.8" font-family="Times,serif" font-size="14.00">ConsTree</text>
<text text-anchor="middle" x="1268.45" y="-458.8" font-family="Times,serif" font-size="14.00">Tree Quality = 1</text>
<g id="clust1" class="cluster">
<title>cluster</title>
<polygon fill="none" stroke="black" points="2292.9,-8 2292.9,-443 2528.9,-443 2528.9,-8 2292.9,-8"/>
<text text-anchor="middle" x="2410.9" y="-427.8" font-family="Times,serif" font-size="14.00">Legend</text>
</g>
<!-- 00 -->
<g id="node1" class="node">
<title>00</title>
<ellipse fill="#b9d3ee" stroke="black" cx="1125.9" cy="-394" rx="108" ry="18"/>
<text text-anchor="middle" x="1125.9" y="-390.3" font-family="Times,serif" font-size="14.00">849</text>
</g>
<!-- 11 -->
<g id="node5" class="node">
<title>11</title>
<ellipse fill="#b9d3ee" stroke="black" cx="1125.9" cy="-322" rx="108" ry="18"/>
<text text-anchor="middle" x="1125.9" y="-318.3" font-family="Times,serif" font-size="14.00">813</text>
</g>
<!-- 00&#45;&gt;11 -->
<g id="edge2" class="edge">
<title>00&#45;&gt;11</title>
<path fill="none" stroke="black" d="M1125.9,-375.7C1125.9,-367.98 1125.9,-358.71 1125.9,-350.11"/>
<polygon fill="black" stroke="black" points="1129.4,-350.1 1125.9,-340.1 1122.4,-350.1 1129.4,-350.1"/>
</g>
<!-- 12 -->
<g id="node6" class="node">
<title>12</title>
<ellipse fill="#b9d3ee" stroke="black" cx="1359.9" cy="-322" rx="108" ry="18"/>
<text text-anchor="middle" x="1359.9" y="-318.3" font-family="Times,serif" font-size="14.00">810</text>
</g>
<!-- 00&#45;&gt;12 -->
<g id="edge4" class="edge">
<title>00&#45;&gt;12</title>
<path fill="none" stroke="black" d="M1176.1,-377.98C1212.34,-367.14 1261.44,-352.45 1299.78,-340.98"/>
<polygon fill="black" stroke="black" points="1301.21,-344.21 1309.78,-337.99 1299.2,-337.5 1301.21,-344.21"/>
</g>
<!-- 01 -->
<g id="node2" class="node">
<title>01</title>
<ellipse fill="#b9d3ee" stroke="black" cx="1431.9" cy="-394" rx="180" ry="18"/>
<text text-anchor="middle" x="1431.9" y="-390.3" font-family="Times,serif" font-size="14.00">1151</text>
</g>
<!-- 10 -->
<g id="node4" class="node">
<title>10</title>
<ellipse fill="#b9d3ee" stroke="black" cx="1521.9" cy="-322" rx="36" ry="18"/>
<text text-anchor="middle" x="1521.9" y="-318.3" font-family="Times,serif" font-size="14.00">377</text>
</g>
<!-- 01&#45;&gt;10 -->
<g id="edge1" class="edge">
<title>01&#45;&gt;10</title>
<path fill="none" stroke="black" d="M1453.68,-376.05C1466.06,-366.43 1481.66,-354.29 1494.82,-344.06"/>
<polygon fill="black" stroke="black" points="1497.31,-346.56 1503.06,-337.66 1493.01,-341.03 1497.31,-346.56"/>
</g>
<!-- 01&#45;&gt;11 -->
<g id="edge3" class="edge">
<title>01&#45;&gt;11</title>
<path fill="none" stroke="black" d="M1363.23,-377.29C1313.58,-365.93 1246.72,-350.64 1196.61,-339.18"/>
<polygon fill="black" stroke="black" points="1197.36,-335.76 1186.83,-336.94 1195.79,-342.58 1197.36,-335.76"/>
</g>
<!-- 01&#45;&gt;12 -->
<g id="edge5" class="edge">
<title>01&#45;&gt;12</title>
<path fill="none" stroke="black" d="M1414.47,-376.05C1405.45,-367.28 1394.29,-356.43 1384.41,-346.83"/>
<polygon fill="black" stroke="black" points="1386.78,-344.25 1377.17,-339.79 1381.9,-349.27 1386.78,-344.25"/>
</g>
<!-- legend_0 -->
<g id="node3" class="node">
<title>legend_0</title>
<polygon fill="#b9d3ee" stroke="black" points="2521.4,-412 2300.4,-412 2300.4,-376 2521.4,-376 2521.4,-412"/>
<text text-anchor="middle" x="2410.9" y="-390.3" font-family="Times,serif" font-size="14.00">DT=1 ST=1 Similarity=0.47</text>
</g>
<!-- legend_1 -->
<g id="node7" class="node">
<title>legend_1</title>
<polygon fill="#b9d3ee" stroke="black" points="2521.4,-340 2300.4,-340 2300.4,-304 2521.4,-304 2521.4,-340"/>
<text text-anchor="middle" x="2410.9" y="-318.3" font-family="Times,serif" font-size="14.00">DT=2 ST=1 Similarity=0.53</text>
</g>
<!-- legend_0&#45;&gt;legend_1 -->
<g id="edge6" class="edge">
<title>legend_0&#45;&gt;legend_1</title>
<path fill="none" stroke="black" d="M2410.9,-375.7C2410.9,-367.98 2410.9,-358.71 2410.9,-350.11"/>
<polygon fill="black" stroke="black" points="2414.4,-350.1 2410.9,-340.1 2407.4,-350.1 2414.4,-350.1"/>
</g>
<!-- 20 -->
<g id="node8" class="node">
<title>20</title>
<ellipse fill="#b9d3ee" stroke="black" cx="1506.9" cy="-250" rx="36" ry="18"/>
<text text-anchor="middle" x="1506.9" y="-246.3" font-family="Times,serif" font-size="14.00">434</text>
</g>
<!-- 10&#45;&gt;20 -->
<g id="edge7" class="edge">
<title>10&#45;&gt;20</title>
<path fill="none" stroke="black" d="M1518.27,-304.05C1516.6,-296.26 1514.57,-286.82 1512.7,-278.08"/>
<polygon fill="black" stroke="black" points="1516.12,-277.32 1510.6,-268.28 1509.27,-278.79 1516.12,-277.32"/>
</g>
<!-- 22 -->
<g id="node10" class="node">
<title>22</title>
<ellipse fill="#b9d3ee" stroke="black" cx="1048.9" cy="-250" rx="36" ry="18"/>
<text text-anchor="middle" x="1048.9" y="-246.3" font-family="Times,serif" font-size="14.00">393</text>
</g>
<!-- 11&#45;&gt;22 -->
<g id="edge10" class="edge">
<title>11&#45;&gt;22</title>
<path fill="none" stroke="black" d="M1107.26,-304.05C1097.02,-294.74 1084.19,-283.08 1073.17,-273.07"/>
<polygon fill="black" stroke="black" points="1075.29,-270.26 1065.53,-266.12 1070.58,-275.44 1075.29,-270.26"/>
</g>
<!-- 23 -->
<g id="node11" class="node">
<title>23</title>
<ellipse fill="#b9d3ee" stroke="black" cx="1242.9" cy="-250" rx="36" ry="18"/>
<text text-anchor="middle" x="1242.9" y="-246.3" font-family="Times,serif" font-size="14.00">387</text>
</g>
<!-- 11&#45;&gt;23 -->
<g id="edge11" class="edge">
<title>11&#45;&gt;23</title>
<path fill="none" stroke="black" d="M1153.33,-304.59C1170.81,-294.13 1193.52,-280.54 1211.69,-269.67"/>
<polygon fill="black" stroke="black" points="1213.94,-272.4 1220.73,-264.26 1210.35,-266.39 1213.94,-272.4"/>
</g>
<!-- 24 -->
<g id="node12" class="node">
<title>24</title>
<ellipse fill="#b9d3ee" stroke="black" cx="1138.9" cy="-250" rx="36" ry="18"/>
<text text-anchor="middle" x="1138.9" y="-246.3" font-family="Times,serif" font-size="14.00">396</text>
</g>
<!-- 11&#45;&gt;24 -->
<g id="edge13" class="edge">
<title>11&#45;&gt;24</title>
<path fill="none" stroke="black" d="M1129.11,-303.7C1130.54,-295.98 1132.27,-286.71 1133.86,-278.11"/>
<polygon fill="black" stroke="black" points="1137.34,-278.58 1135.72,-268.1 1130.45,-277.3 1137.34,-278.58"/>
</g>
<!-- 12&#45;&gt;20 -->
<g id="edge8" class="edge">
<title>12&#45;&gt;20</title>
<path fill="none" stroke="black" d="M1393.99,-304.76C1417.55,-293.55 1448.77,-278.68 1472.41,-267.42"/>
<polygon fill="black" stroke="black" points="1474.19,-270.45 1481.71,-262.99 1471.18,-264.13 1474.19,-270.45"/>
</g>
<!-- 21 -->
<g id="node9" class="node">
<title>21</title>
<ellipse fill="#b9d3ee" stroke="black" cx="1359.9" cy="-250" rx="36" ry="18"/>
<text text-anchor="middle" x="1359.9" y="-246.3" font-family="Times,serif" font-size="14.00">390</text>
</g>
<!-- 12&#45;&gt;21 -->
<g id="edge9" class="edge">
<title>12&#45;&gt;21</title>
<path fill="none" stroke="black" d="M1359.9,-303.7C1359.9,-295.98 1359.9,-286.71 1359.9,-278.11"/>
<polygon fill="black" stroke="black" points="1363.4,-278.1 1359.9,-268.1 1356.4,-278.1 1363.4,-278.1"/>
</g>
<!-- 12&#45;&gt;23 -->
<g id="edge12" class="edge">
<title>12&#45;&gt;23</title>
<path fill="none" stroke="black" d="M1332.47,-304.59C1314.98,-294.13 1292.28,-280.54 1274.11,-269.67"/>
<polygon fill="black" stroke="black" points="1275.45,-266.39 1265.07,-264.26 1271.85,-272.4 1275.45,-266.39"/>
</g>
<!-- legend_2 -->
<g id="node13" class="node">
<title>legend_2</title>
<polygon fill="#b9d3ee" stroke="black" points="2521.4,-268 2300.4,-268 2300.4,-232 2521.4,-232 2521.4,-268"/>
<text text-anchor="middle" x="2410.9" y="-246.3" font-family="Times,serif" font-size="14.00">DT=3 ST=1 Similarity=0.65</text>
</g>
<!-- legend_1&#45;&gt;legend_2 -->
<g id="edge14" class="edge">
<title>legend_1&#45;&gt;legend_2</title>
<path fill="none" stroke="black" d="M2410.9,-303.7C2410.9,-295.98 2410.9,-286.71 2410.9,-278.11"/>
<polygon fill="black" stroke="black" points="2414.4,-278.1 2410.9,-268.1 2407.4,-278.1 2414.4,-278.1"/>
</g>
<!-- 31 -->
<g id="node15" class="node">
<title>31</title>
<polygon fill="darkseagreen" stroke="black" points="1542.9,-196 1470.9,-196 1470.9,-160 1542.9,-160 1542.9,-196"/>
<text text-anchor="middle" x="1506.9" y="-174.3" font-family="Times,serif" font-size="14.00">408</text>
</g>
<!-- 20&#45;&gt;31 -->
<g id="edge17" class="edge">
<title>20&#45;&gt;31</title>
<path fill="none" stroke="black" d="M1506.9,-231.7C1506.9,-223.98 1506.9,-214.71 1506.9,-206.11"/>
<polygon fill="black" stroke="black" points="1510.4,-206.1 1506.9,-196.1 1503.4,-206.1 1510.4,-206.1"/>
</g>
<!-- 32 -->
<g id="node16" class="node">
<title>32</title>
<polygon fill="darkseagreen" stroke="black" points="1174.9,-196 1102.9,-196 1102.9,-160 1174.9,-160 1174.9,-196"/>
<text text-anchor="middle" x="1138.9" y="-174.3" font-family="Times,serif" font-size="14.00">412</text>
</g>
<!-- 20&#45;&gt;32 -->
<g id="edge19" class="edge">
<title>20&#45;&gt;32</title>
<path fill="none" stroke="black" d="M1473.92,-242.73C1408.12,-230.21 1260.41,-202.11 1185.04,-187.78"/>
<polygon fill="black" stroke="black" points="1185.38,-184.28 1174.9,-185.85 1184.07,-191.16 1185.38,-184.28"/>
</g>
<!-- 34 -->
<g id="node18" class="node">
<title>34</title>
<polygon fill="darkseagreen" stroke="black" points="1830.9,-196 1758.9,-196 1758.9,-160 1830.9,-160 1830.9,-196"/>
<text text-anchor="middle" x="1794.9" y="-174.3" font-family="Times,serif" font-size="14.00">395</text>
</g>
<!-- 20&#45;&gt;34 -->
<g id="edge24" class="edge">
<title>20&#45;&gt;34</title>
<path fill="none" stroke="black" d="M1538.54,-241.31C1589.51,-228.92 1690.02,-204.49 1748.91,-190.18"/>
<polygon fill="black" stroke="black" points="1749.8,-193.56 1758.69,-187.8 1748.15,-186.76 1749.8,-193.56"/>
</g>
<!-- 21&#45;&gt;31 -->
<g id="edge18" class="edge">
<title>21&#45;&gt;31</title>
<path fill="none" stroke="black" d="M1385.17,-236.97C1406.13,-226.98 1436.47,-212.54 1461.61,-200.57"/>
<polygon fill="black" stroke="black" points="1463.44,-203.57 1470.96,-196.11 1460.43,-197.25 1463.44,-203.57"/>
</g>
<!-- 33 -->
<g id="node17" class="node">
<title>33</title>
<polygon fill="darkseagreen" stroke="black" points="1323.9,-196 1251.9,-196 1251.9,-160 1323.9,-160 1323.9,-196"/>
<text text-anchor="middle" x="1287.9" y="-174.3" font-family="Times,serif" font-size="14.00">373</text>
</g>
<!-- 21&#45;&gt;33 -->
<g id="edge22" class="edge">
<title>21&#45;&gt;33</title>
<path fill="none" stroke="black" d="M1343.92,-233.46C1334.78,-224.58 1323.13,-213.25 1312.82,-203.23"/>
<polygon fill="black" stroke="black" points="1315.21,-200.67 1305.6,-196.21 1310.33,-205.69 1315.21,-200.67"/>
</g>
<!-- 30 -->
<g id="node14" class="node">
<title>30</title>
<polygon fill="darkseagreen" stroke="black" points="1055.9,-196 983.9,-196 983.9,-160 1055.9,-160 1055.9,-196"/>
<text text-anchor="middle" x="1019.9" y="-174.3" font-family="Times,serif" font-size="14.00">412</text>
</g>
<!-- 22&#45;&gt;30 -->
<g id="edge15" class="edge">
<title>22&#45;&gt;30</title>
<path fill="none" stroke="black" d="M1041.88,-232.05C1038.61,-224.18 1034.65,-214.62 1031,-205.79"/>
<polygon fill="black" stroke="black" points="1034.12,-204.17 1027.06,-196.28 1027.65,-206.85 1034.12,-204.17"/>
</g>
<!-- 22&#45;&gt;32 -->
<g id="edge20" class="edge">
<title>22&#45;&gt;32</title>
<path fill="none" stroke="black" d="M1067.55,-234.5C1079.4,-225.28 1095.02,-213.13 1108.62,-202.55"/>
<polygon fill="black" stroke="black" points="1111.03,-205.11 1116.78,-196.2 1106.74,-199.58 1111.03,-205.11"/>
</g>
<!-- 23&#45;&gt;30 -->
<g id="edge16" class="edge">
<title>23&#45;&gt;30</title>
<path fill="none" stroke="black" d="M1213.29,-239.7C1175.51,-227.85 1109.77,-207.21 1065.56,-193.33"/>
<polygon fill="black" stroke="black" points="1066.51,-189.96 1055.92,-190.31 1064.41,-196.64 1066.51,-189.96"/>
</g>
<!-- 23&#45;&gt;33 -->
<g id="edge23" class="edge">
<title>23&#45;&gt;33</title>
<path fill="none" stroke="black" d="M1253.34,-232.76C1258.69,-224.44 1265.33,-214.1 1271.36,-204.73"/>
<polygon fill="black" stroke="black" points="1274.43,-206.43 1276.89,-196.12 1268.54,-202.64 1274.43,-206.43"/>
</g>
<!-- 24&#45;&gt;32 -->
<g id="edge21" class="edge">
<title>24&#45;&gt;32</title>
<path fill="none" stroke="black" d="M1138.9,-231.7C1138.9,-223.98 1138.9,-214.71 1138.9,-206.11"/>
<polygon fill="black" stroke="black" points="1142.4,-206.1 1138.9,-196.1 1135.4,-206.1 1142.4,-206.1"/>
</g>
<!-- legend_3 -->
<g id="node19" class="node">
<title>legend_3</title>
<polygon fill="darkseagreen" stroke="black" points="2521.4,-196 2300.4,-196 2300.4,-160 2521.4,-160 2521.4,-196"/>
<text text-anchor="middle" x="2410.9" y="-174.3" font-family="Times,serif" font-size="14.00">DT=4 ST=1 Similarity=0.67</text>
</g>
<!-- legend_2&#45;&gt;legend_3 -->
<g id="edge25" class="edge">
<title>legend_2&#45;&gt;legend_3</title>
<path fill="none" stroke="black" d="M2410.9,-231.7C2410.9,-223.98 2410.9,-214.71 2410.9,-206.11"/>
<polygon fill="black" stroke="black" points="2414.4,-206.1 2410.9,-196.1 2407.4,-206.1 2414.4,-206.1"/>
</g>
<!-- 40 -->
<g id="node20" class="node">
<title>40</title>
<ellipse fill="#b9d3ee" stroke="black" cx="172.9" cy="-106" rx="23" ry="18"/>
<text text-anchor="middle" x="172.9" y="-102.3" font-family="Times,serif" font-size="14.00">79</text>
</g>
<!-- 30&#45;&gt;40 -->
<g id="edge26" class="edge">
<title>30&#45;&gt;40</title>
<path fill="none" stroke="black" d="M983.77,-174.01C843.89,-162.45 339.02,-120.73 205.49,-109.69"/>
<polygon fill="black" stroke="black" points="205.72,-106.2 195.47,-108.87 205.15,-113.18 205.72,-106.2"/>
</g>
<!-- 41 -->
<g id="node21" class="node">
<title>41</title>
<ellipse fill="#b9d3ee" stroke="black" cx="525.9" cy="-106" rx="36" ry="18"/>
<text text-anchor="middle" x="525.9" y="-102.3" font-family="Times,serif" font-size="14.00">318</text>
</g>
<!-- 30&#45;&gt;41 -->
<g id="edge27" class="edge">
<title>30&#45;&gt;41</title>
<path fill="none" stroke="black" d="M983.57,-171.85C894.68,-159.26 666.43,-126.91 569.97,-113.25"/>
<polygon fill="black" stroke="black" points="570.36,-109.77 559.97,-111.83 569.38,-116.7 570.36,-109.77"/>
</g>
<!-- 42 -->
<g id="node22" class="node">
<title>42</title>
<ellipse fill="#b9d3ee" stroke="black" cx="1019.9" cy="-106" rx="36" ry="18"/>
<text text-anchor="middle" x="1019.9" y="-102.3" font-family="Times,serif" font-size="14.00">391</text>
</g>
<!-- 30&#45;&gt;42 -->
<g id="edge29" class="edge">
<title>30&#45;&gt;42</title>
<path fill="none" stroke="black" d="M1019.9,-159.7C1019.9,-151.98 1019.9,-142.71 1019.9,-134.11"/>
<polygon fill="black" stroke="black" points="1023.4,-134.1 1019.9,-124.1 1016.4,-134.1 1023.4,-134.1"/>
</g>
<!-- 43 -->
<g id="node23" class="node">
<title>43</title>
<ellipse fill="#b9d3ee" stroke="black" cx="1506.9" cy="-106" rx="36" ry="18"/>
<text text-anchor="middle" x="1506.9" y="-102.3" font-family="Times,serif" font-size="14.00">409</text>
</g>
<!-- 31&#45;&gt;43 -->
<g id="edge31" class="edge">
<title>31&#45;&gt;43</title>
<path fill="none" stroke="black" d="M1506.9,-159.7C1506.9,-151.98 1506.9,-142.71 1506.9,-134.11"/>
<polygon fill="black" stroke="black" points="1510.4,-134.1 1506.9,-124.1 1503.4,-134.1 1510.4,-134.1"/>
</g>
<!-- 44 -->
<g id="node24" class="node">
<title>44</title>
<ellipse fill="#b9d3ee" stroke="black" cx="1993.9" cy="-106" rx="36" ry="18"/>
<text text-anchor="middle" x="1993.9" y="-102.3" font-family="Times,serif" font-size="14.00">396</text>
</g>
<!-- 31&#45;&gt;44 -->
<g id="edge33" class="edge">
<title>31&#45;&gt;44</title>
<path fill="none" stroke="black" d="M1543.1,-171.8C1630.75,-159.2 1854.12,-127.09 1949.56,-113.37"/>
<polygon fill="black" stroke="black" points="1950.34,-116.8 1959.74,-111.91 1949.35,-109.87 1950.34,-116.8"/>
</g>
<!-- 32&#45;&gt;41 -->
<g id="edge28" class="edge">
<title>32&#45;&gt;41</title>
<path fill="none" stroke="black" d="M1102.57,-167.68C1090.63,-164.88 1077.26,-162.02 1064.9,-160 883.73,-130.41 665.42,-115.13 571.98,-109.54"/>
<polygon fill="black" stroke="black" points="571.93,-106.03 561.74,-108.94 571.51,-113.02 571.93,-106.03"/>
</g>
<!-- 45 -->
<g id="node25" class="node">
<title>45</title>
<ellipse fill="#b9d3ee" stroke="black" cx="1261.9" cy="-106" rx="36" ry="18"/>
<text text-anchor="middle" x="1261.9" y="-102.3" font-family="Times,serif" font-size="14.00">407</text>
</g>
<!-- 32&#45;&gt;45 -->
<g id="edge35" class="edge">
<title>32&#45;&gt;45</title>
<path fill="none" stroke="black" d="M1168.99,-159.88C1187.57,-149.3 1211.38,-135.75 1230.24,-125.02"/>
<polygon fill="black" stroke="black" points="1232.1,-127.99 1239.06,-120 1228.64,-121.9 1232.1,-127.99"/>
</g>
<!-- 33&#45;&gt;42 -->
<g id="edge30" class="edge">
<title>33&#45;&gt;42</title>
<path fill="none" stroke="black" d="M1251.75,-167.56C1202.19,-154.61 1113.37,-131.41 1061.23,-117.79"/>
<polygon fill="black" stroke="black" points="1061.87,-114.35 1051.31,-115.2 1060.1,-121.12 1061.87,-114.35"/>
</g>
<!-- 33&#45;&gt;43 -->
<g id="edge32" class="edge">
<title>33&#45;&gt;43</title>
<path fill="none" stroke="black" d="M1324.06,-165.44C1363.68,-152.78 1427,-132.54 1467.76,-119.51"/>
<polygon fill="black" stroke="black" points="1468.9,-122.82 1477.36,-116.44 1466.77,-116.15 1468.9,-122.82"/>
</g>
<!-- 34&#45;&gt;44 -->
<g id="edge34" class="edge">
<title>34&#45;&gt;44</title>
<path fill="none" stroke="black" d="M1830.94,-164.32C1866.15,-151.94 1919.58,-133.14 1955.56,-120.48"/>
<polygon fill="black" stroke="black" points="1956.95,-123.71 1965.22,-117.09 1954.63,-117.1 1956.95,-123.71"/>
</g>
<!-- legend_4 -->
<g id="node26" class="node">
<title>legend_4</title>
<polygon fill="#b9d3ee" stroke="black" points="2521.4,-124 2300.4,-124 2300.4,-88 2521.4,-88 2521.4,-124"/>
<text text-anchor="middle" x="2410.9" y="-102.3" font-family="Times,serif" font-size="14.00">DT=5 ST=1 Similarity=0.65</text>
</g>
<!-- legend_3&#45;&gt;legend_4 -->
<g id="edge36" class="edge">
<title>legend_3&#45;&gt;legend_4</title>
<path fill="none" stroke="black" d="M2410.9,-159.7C2410.9,-151.98 2410.9,-142.71 2410.9,-134.11"/>
<polygon fill="black" stroke="black" points="2414.4,-134.1 2410.9,-124.1 2407.4,-134.1 2414.4,-134.1"/>
</g>
<!-- 51 -->
<g id="node28" class="node">
<title>51</title>
<ellipse fill="#b9d3ee" stroke="black" cx="16.9" cy="-34" rx="16.8" ry="18"/>
<text text-anchor="middle" x="16.9" y="-30.3" font-family="Times,serif" font-size="14.00">1</text>
</g>
<!-- 40&#45;&gt;51 -->
<g id="edge38" class="edge">
<title>40&#45;&gt;51</title>
<path fill="none" stroke="black" d="M152.09,-97.92C125.95,-88.7 80.02,-71.47 42.9,-52 41.74,-51.39 40.57,-50.75 39.4,-50.08"/>
<polygon fill="black" stroke="black" points="40.98,-46.95 30.63,-44.68 37.31,-52.91 40.98,-46.95"/>
</g>
<!-- 52 -->
<g id="node29" class="node">
<title>52</title>
<ellipse fill="#b9d3ee" stroke="black" cx="68.9" cy="-34" rx="16.8" ry="18"/>
<text text-anchor="middle" x="68.9" y="-30.3" font-family="Times,serif" font-size="14.00">1</text>
</g>
<!-- 40&#45;&gt;52 -->
<g id="edge39" class="edge">
<title>40&#45;&gt;52</title>
<path fill="none" stroke="black" d="M156.19,-93.75C138.56,-81.89 110.69,-63.13 91.2,-50.01"/>
<polygon fill="black" stroke="black" points="93.15,-47.1 82.9,-44.42 89.24,-52.91 93.15,-47.1"/>
</g>
<!-- 55 -->
<g id="node32" class="node">
<title>55</title>
<ellipse fill="#b9d3ee" stroke="black" cx="120.9" cy="-34" rx="16.8" ry="18"/>
<text text-anchor="middle" x="120.9" y="-30.3" font-family="Times,serif" font-size="14.00">1</text>
</g>
<!-- 40&#45;&gt;55 -->
<g id="edge42" class="edge">
<title>40&#45;&gt;55</title>
<path fill="none" stroke="black" d="M161.87,-90.15C154.72,-80.53 145.28,-67.82 137.26,-57.02"/>
<polygon fill="black" stroke="black" points="139.98,-54.81 131.2,-48.87 134.36,-58.99 139.98,-54.81"/>
</g>
<!-- 513 -->
<g id="node40" class="node">
<title>513</title>
<ellipse fill="#b9d3ee" stroke="black" cx="172.9" cy="-34" rx="16.8" ry="18"/>
<text text-anchor="middle" x="172.9" y="-30.3" font-family="Times,serif" font-size="14.00">2</text>
</g>
<!-- 40&#45;&gt;513 -->
<g id="edge50" class="edge">
<title>40&#45;&gt;513</title>
<path fill="none" stroke="black" d="M172.9,-87.7C172.9,-79.98 172.9,-70.71 172.9,-62.11"/>
<polygon fill="black" stroke="black" points="176.4,-62.1 172.9,-52.1 169.4,-62.1 176.4,-62.1"/>
</g>
<!-- 517 -->
<g id="node44" class="node">
<title>517</title>
<ellipse fill="#b9d3ee" stroke="black" cx="224.9" cy="-34" rx="16.8" ry="18"/>
<text text-anchor="middle" x="224.9" y="-30.3" font-family="Times,serif" font-size="14.00">4</text>
</g>
<!-- 40&#45;&gt;517 -->
<g id="edge54" class="edge">
<title>40&#45;&gt;517</title>
<path fill="none" stroke="black" d="M183.93,-90.15C191.08,-80.53 200.52,-67.82 208.54,-57.02"/>
<polygon fill="black" stroke="black" points="211.44,-58.99 214.59,-48.87 205.82,-54.81 211.44,-58.99"/>
</g>
<!-- 531 -->
<g id="node58" class="node">
<title>531</title>
<ellipse fill="#b9d3ee" stroke="black" cx="282.9" cy="-34" rx="23" ry="18"/>
<text text-anchor="middle" x="282.9" y="-30.3" font-family="Times,serif" font-size="14.00">70</text>
</g>
<!-- 40&#45;&gt;531 -->
<g id="edge68" class="edge">
<title>40&#45;&gt;531</title>
<path fill="none" stroke="black" d="M190.09,-94.06C207.98,-82.67 236.23,-64.7 256.87,-51.57"/>
<polygon fill="black" stroke="black" points="258.91,-54.41 265.47,-46.09 255.15,-48.51 258.91,-54.41"/>
</g>
<!-- 50 -->
<g id="node27" class="node">
<title>50</title>
<ellipse fill="#b9d3ee" stroke="black" cx="340.9" cy="-34" rx="16.8" ry="18"/>
<text text-anchor="middle" x="340.9" y="-30.3" font-family="Times,serif" font-size="14.00">1</text>
</g>
<!-- 41&#45;&gt;50 -->
<g id="edge37" class="edge">
<title>41&#45;&gt;50</title>
<path fill="none" stroke="black" d="M494.49,-97.11C461.73,-88.29 409.34,-72.52 366.9,-52 365.72,-51.43 364.54,-50.82 363.36,-50.18"/>
<polygon fill="black" stroke="black" points="364.91,-47.03 354.54,-44.86 361.3,-53.02 364.91,-47.03"/>
</g>
<!-- 57 -->
<g id="node34" class="node">
<title>57</title>
<ellipse fill="#b9d3ee" stroke="black" cx="392.9" cy="-34" rx="16.8" ry="18"/>
<text text-anchor="middle" x="392.9" y="-30.3" font-family="Times,serif" font-size="14.00">2</text>
</g>
<!-- 41&#45;&gt;57 -->
<g id="edge44" class="edge">
<title>41&#45;&gt;57</title>
<path fill="none" stroke="black" d="M499.94,-93.2C477.99,-82.98 445.89,-67.44 418.9,-52 417.77,-51.35 416.62,-50.68 415.46,-49.98"/>
<polygon fill="black" stroke="black" points="417.07,-46.86 406.74,-44.49 413.34,-52.78 417.07,-46.86"/>
</g>
<!-- 515 -->
<g id="node42" class="node">
<title>515</title>
<ellipse fill="#b9d3ee" stroke="black" cx="444.9" cy="-34" rx="16.8" ry="18"/>
<text text-anchor="middle" x="444.9" y="-30.3" font-family="Times,serif" font-size="14.00">3</text>
</g>
<!-- 41&#45;&gt;515 -->
<g id="edge52" class="edge">
<title>41&#45;&gt;515</title>
<path fill="none" stroke="black" d="M508.72,-90.15C496.11,-79.25 478.91,-64.4 465.55,-52.85"/>
<polygon fill="black" stroke="black" points="467.66,-50.04 457.8,-46.15 463.08,-55.34 467.66,-50.04"/>
</g>
<!-- 516 -->
<g id="node43" class="node">
<title>516</title>
<ellipse fill="#b9d3ee" stroke="black" cx="496.9" cy="-34" rx="16.8" ry="18"/>
<text text-anchor="middle" x="496.9" y="-30.3" font-family="Times,serif" font-size="14.00">3</text>
</g>
<!-- 41&#45;&gt;516 -->
<g id="edge53" class="edge">
<title>41&#45;&gt;516</title>
<path fill="none" stroke="black" d="M518.88,-88.05C515.43,-79.73 511.21,-69.54 507.39,-60.32"/>
<polygon fill="black" stroke="black" points="510.52,-58.73 503.46,-50.83 504.05,-61.41 510.52,-58.73"/>
</g>
<!-- 528 -->
<g id="node55" class="node">
<title>528</title>
<ellipse fill="#b9d3ee" stroke="black" cx="554.9" cy="-34" rx="23" ry="18"/>
<text text-anchor="middle" x="554.9" y="-30.3" font-family="Times,serif" font-size="14.00">35</text>
</g>
<!-- 41&#45;&gt;528 -->
<g id="edge65" class="edge">
<title>41&#45;&gt;528</title>
<path fill="none" stroke="black" d="M532.92,-88.05C536.32,-79.85 540.47,-69.83 544.25,-60.71"/>
<polygon fill="black" stroke="black" points="547.55,-61.89 548.14,-51.31 541.08,-59.21 547.55,-61.89"/>
</g>
<!-- 534 -->
<g id="node61" class="node">
<title>534</title>
<ellipse fill="#b9d3ee" stroke="black" cx="631.9" cy="-34" rx="36" ry="18"/>
<text text-anchor="middle" x="631.9" y="-30.3" font-family="Times,serif" font-size="14.00">274</text>
</g>
<!-- 41&#45;&gt;534 -->
<g id="edge71" class="edge">
<title>41&#45;&gt;534</title>
<path fill="none" stroke="black" d="M546.84,-91.17C562.67,-80.72 584.6,-66.24 602.23,-54.59"/>
<polygon fill="black" stroke="black" points="604.58,-57.23 611,-48.8 600.73,-51.39 604.58,-57.23"/>
</g>
<!-- 53 -->
<g id="node30" class="node">
<title>53</title>
<ellipse fill="#b9d3ee" stroke="black" cx="1034.9" cy="-34" rx="16.8" ry="18"/>
<text text-anchor="middle" x="1034.9" y="-30.3" font-family="Times,serif" font-size="14.00">1</text>
</g>
<!-- 42&#45;&gt;53 -->
<g id="edge40" class="edge">
<title>42&#45;&gt;53</title>
<path fill="none" stroke="black" d="M1023.53,-88.05C1025.22,-80.14 1027.28,-70.54 1029.18,-61.69"/>
<polygon fill="black" stroke="black" points="1032.63,-62.3 1031.3,-51.79 1025.78,-60.83 1032.63,-62.3"/>
</g>
<!-- 56 -->
<g id="node33" class="node">
<title>56</title>
<ellipse fill="#b9d3ee" stroke="black" cx="1086.9" cy="-34" rx="16.8" ry="18"/>
<text text-anchor="middle" x="1086.9" y="-30.3" font-family="Times,serif" font-size="14.00">1</text>
</g>
<!-- 42&#45;&gt;56 -->
<g id="edge43" class="edge">
<title>42&#45;&gt;56</title>
<path fill="none" stroke="black" d="M1034.77,-89.46C1044.57,-79.22 1057.5,-65.72 1068.02,-54.72"/>
<polygon fill="black" stroke="black" points="1070.8,-56.88 1075.18,-47.24 1065.74,-52.04 1070.8,-56.88"/>
</g>
<!-- 58 -->
<g id="node35" class="node">
<title>58</title>
<ellipse fill="#b9d3ee" stroke="black" cx="1138.9" cy="-34" rx="16.8" ry="18"/>
<text text-anchor="middle" x="1138.9" y="-30.3" font-family="Times,serif" font-size="14.00">2</text>
</g>
<!-- 42&#45;&gt;58 -->
<g id="edge45" class="edge">
<title>42&#45;&gt;58</title>
<path fill="none" stroke="black" d="M1043.44,-92.1C1062.38,-81.61 1089.59,-66.24 1112.9,-52 1114.01,-51.32 1115.15,-50.62 1116.29,-49.9"/>
<polygon fill="black" stroke="black" points="1118.44,-52.68 1124.97,-44.33 1114.66,-46.79 1118.44,-52.68"/>
</g>
<!-- 518 -->
<g id="node45" class="node">
<title>518</title>
<ellipse fill="#b9d3ee" stroke="black" cx="1190.9" cy="-34" rx="16.8" ry="18"/>
<text text-anchor="middle" x="1190.9" y="-30.3" font-family="Times,serif" font-size="14.00">4</text>
</g>
<!-- 42&#45;&gt;518 -->
<g id="edge55" class="edge">
<title>42&#45;&gt;518</title>
<path fill="none" stroke="black" d="M1050.17,-96.17C1080.09,-86.92 1126.8,-71.1 1164.9,-52 1166.06,-51.42 1167.24,-50.79 1168.42,-50.14"/>
<polygon fill="black" stroke="black" points="1170.49,-52.97 1177.21,-44.78 1166.85,-46.99 1170.49,-52.97"/>
</g>
<!-- 519 -->
<g id="node46" class="node">
<title>519</title>
<ellipse fill="#b9d3ee" stroke="black" cx="702.9" cy="-34" rx="16.8" ry="18"/>
<text text-anchor="middle" x="702.9" y="-30.3" font-family="Times,serif" font-size="14.00">7</text>
</g>
<!-- 42&#45;&gt;519 -->
<g id="edge56" class="edge">
<title>42&#45;&gt;519</title>
<path fill="none" stroke="black" d="M984.16,-103.06C927.99,-99.01 816.42,-86.92 728.9,-52 727.69,-51.52 726.47,-50.97 725.27,-50.38"/>
<polygon fill="black" stroke="black" points="726.78,-47.22 716.37,-45.26 723.29,-53.28 726.78,-47.22"/>
</g>
<!-- 521 -->
<g id="node48" class="node">
<title>521</title>
<ellipse fill="#b9d3ee" stroke="black" cx="760.9" cy="-34" rx="23" ry="18"/>
<text text-anchor="middle" x="760.9" y="-30.3" font-family="Times,serif" font-size="14.00">10</text>
</g>
<!-- 42&#45;&gt;521 -->
<g id="edge58" class="edge">
<title>42&#45;&gt;521</title>
<path fill="none" stroke="black" d="M985.82,-100.06C940.48,-92.83 858.33,-77.39 791.9,-52 790.5,-51.47 789.09,-50.88 787.68,-50.26"/>
<polygon fill="black" stroke="black" points="789.05,-47.03 778.53,-45.75 785.95,-53.31 789.05,-47.03"/>
</g>
<!-- 523 -->
<g id="node50" class="node">
<title>523</title>
<ellipse fill="#b9d3ee" stroke="black" cx="823.9" cy="-34" rx="23" ry="18"/>
<text text-anchor="middle" x="823.9" y="-30.3" font-family="Times,serif" font-size="14.00">18</text>
</g>
<!-- 42&#45;&gt;523 -->
<g id="edge60" class="edge">
<title>42&#45;&gt;523</title>
<path fill="none" stroke="black" d="M988.54,-96.85C954.86,-87.67 900.09,-71.44 854.9,-52 853.52,-51.41 852.13,-50.78 850.73,-50.12"/>
<polygon fill="black" stroke="black" points="852.14,-46.9 841.64,-45.48 848.96,-53.14 852.14,-46.9"/>
</g>
<!-- 524 -->
<g id="node51" class="node">
<title>524</title>
<ellipse fill="#b9d3ee" stroke="black" cx="886.9" cy="-34" rx="23" ry="18"/>
<text text-anchor="middle" x="886.9" y="-30.3" font-family="Times,serif" font-size="14.00">27</text>
</g>
<!-- 42&#45;&gt;524 -->
<g id="edge61" class="edge">
<title>42&#45;&gt;524</title>
<path fill="none" stroke="black" d="M995.8,-92.4C975.33,-81.68 945.17,-65.87 918.9,-52 917.54,-51.28 916.15,-50.55 914.75,-49.81"/>
<polygon fill="black" stroke="black" points="915.98,-46.5 905.5,-44.9 912.7,-52.68 915.98,-46.5"/>
</g>
<!-- 536 -->
<g id="node63" class="node">
<title>536</title>
<ellipse fill="#b9d3ee" stroke="black" cx="963.9" cy="-34" rx="36" ry="18"/>
<text text-anchor="middle" x="963.9" y="-30.3" font-family="Times,serif" font-size="14.00">321</text>
</g>
<!-- 42&#45;&gt;536 -->
<g id="edge73" class="edge">
<title>42&#45;&gt;536</title>
<path fill="none" stroke="black" d="M1007.19,-89.12C1000.13,-80.29 991.2,-69.13 983.29,-59.24"/>
<polygon fill="black" stroke="black" points="985.92,-56.93 976.94,-51.31 980.46,-61.3 985.92,-56.93"/>
</g>
<!-- 59 -->
<g id="node36" class="node">
<title>59</title>
<ellipse fill="#b9d3ee" stroke="black" cx="1396.9" cy="-34" rx="16.8" ry="18"/>
<text text-anchor="middle" x="1396.9" y="-30.3" font-family="Times,serif" font-size="14.00">2</text>
</g>
<!-- 43&#45;&gt;59 -->
<g id="edge46" class="edge">
<title>43&#45;&gt;59</title>
<path fill="none" stroke="black" d="M1485.08,-91.37C1468.09,-80.72 1443.94,-65.51 1422.9,-52 1421.8,-51.3 1420.68,-50.57 1419.55,-49.84"/>
<polygon fill="black" stroke="black" points="1421.2,-46.74 1410.9,-44.22 1417.38,-52.6 1421.2,-46.74"/>
</g>
<!-- 514 -->
<g id="node41" class="node">
<title>514</title>
<ellipse fill="#b9d3ee" stroke="black" cx="1448.9" cy="-34" rx="16.8" ry="18"/>
<text text-anchor="middle" x="1448.9" y="-30.3" font-family="Times,serif" font-size="14.00">2</text>
</g>
<!-- 43&#45;&gt;514 -->
<g id="edge51" class="edge">
<title>43&#45;&gt;514</title>
<path fill="none" stroke="black" d="M1493.74,-89.12C1485.61,-79.31 1475.1,-66.62 1466.3,-56"/>
<polygon fill="black" stroke="black" points="1468.75,-53.48 1459.68,-48.01 1463.36,-57.94 1468.75,-53.48"/>
</g>
<!-- 525 -->
<g id="node52" class="node">
<title>525</title>
<ellipse fill="#b9d3ee" stroke="black" cx="1506.9" cy="-34" rx="23" ry="18"/>
<text text-anchor="middle" x="1506.9" y="-30.3" font-family="Times,serif" font-size="14.00">27</text>
</g>
<!-- 43&#45;&gt;525 -->
<g id="edge62" class="edge">
<title>43&#45;&gt;525</title>
<path fill="none" stroke="black" d="M1506.9,-87.7C1506.9,-79.98 1506.9,-70.71 1506.9,-62.11"/>
<polygon fill="black" stroke="black" points="1510.4,-62.1 1506.9,-52.1 1503.4,-62.1 1510.4,-62.1"/>
</g>
<!-- 526 -->
<g id="node53" class="node">
<title>526</title>
<ellipse fill="#b9d3ee" stroke="black" cx="1569.9" cy="-34" rx="23" ry="18"/>
<text text-anchor="middle" x="1569.9" y="-30.3" font-family="Times,serif" font-size="14.00">29</text>
</g>
<!-- 43&#45;&gt;526 -->
<g id="edge63" class="edge">
<title>43&#45;&gt;526</title>
<path fill="none" stroke="black" d="M1521.19,-89.12C1529.76,-79.6 1540.77,-67.37 1550.15,-56.94"/>
<polygon fill="black" stroke="black" points="1552.86,-59.17 1556.95,-49.39 1547.65,-54.48 1552.86,-59.17"/>
</g>
<!-- 529 -->
<g id="node56" class="node">
<title>529</title>
<ellipse fill="#b9d3ee" stroke="black" cx="1632.9" cy="-34" rx="23" ry="18"/>
<text text-anchor="middle" x="1632.9" y="-30.3" font-family="Times,serif" font-size="14.00">56</text>
</g>
<!-- 43&#45;&gt;529 -->
<g id="edge66" class="edge">
<title>43&#45;&gt;529</title>
<path fill="none" stroke="black" d="M1530.01,-92.16C1551.49,-80.23 1583.48,-62.46 1606.08,-49.9"/>
<polygon fill="black" stroke="black" points="1607.79,-52.95 1614.83,-45.04 1604.39,-46.84 1607.79,-52.95"/>
</g>
<!-- 535 -->
<g id="node62" class="node">
<title>535</title>
<ellipse fill="#b9d3ee" stroke="black" cx="1709.9" cy="-34" rx="36" ry="18"/>
<text text-anchor="middle" x="1709.9" y="-30.3" font-family="Times,serif" font-size="14.00">293</text>
</g>
<!-- 43&#45;&gt;535 -->
<g id="edge72" class="edge">
<title>43&#45;&gt;535</title>
<path fill="none" stroke="black" d="M1536.42,-95.46C1568.25,-85.1 1620.34,-67.88 1664.9,-52 1667.46,-51.09 1670.11,-50.13 1672.77,-49.15"/>
<polygon fill="black" stroke="black" points="1674.2,-52.36 1682.35,-45.59 1671.76,-45.79 1674.2,-52.36"/>
</g>
<!-- 54 -->
<g id="node31" class="node">
<title>54</title>
<ellipse fill="#b9d3ee" stroke="black" cx="1993.9" cy="-34" rx="16.8" ry="18"/>
<text text-anchor="middle" x="1993.9" y="-30.3" font-family="Times,serif" font-size="14.00">1</text>
</g>
<!-- 44&#45;&gt;54 -->
<g id="edge41" class="edge">
<title>44&#45;&gt;54</title>
<path fill="none" stroke="black" d="M1993.9,-87.7C1993.9,-79.98 1993.9,-70.71 1993.9,-62.11"/>
<polygon fill="black" stroke="black" points="1997.4,-62.1 1993.9,-52.1 1990.4,-62.1 1997.4,-62.1"/>
</g>
<!-- 510 -->
<g id="node37" class="node">
<title>510</title>
<ellipse fill="#b9d3ee" stroke="black" cx="2045.9" cy="-34" rx="16.8" ry="18"/>
<text text-anchor="middle" x="2045.9" y="-30.3" font-family="Times,serif" font-size="14.00">2</text>
</g>
<!-- 44&#45;&gt;510 -->
<g id="edge47" class="edge">
<title>44&#45;&gt;510</title>
<path fill="none" stroke="black" d="M2005.96,-88.76C2012.99,-79.3 2021.95,-67.23 2029.61,-56.93"/>
<polygon fill="black" stroke="black" points="2032.5,-58.9 2035.66,-48.79 2026.88,-54.73 2032.5,-58.9"/>
</g>
<!-- 511 -->
<g id="node38" class="node">
<title>511</title>
<ellipse fill="#b9d3ee" stroke="black" cx="2097.9" cy="-34" rx="16.8" ry="18"/>
<text text-anchor="middle" x="2097.9" y="-30.3" font-family="Times,serif" font-size="14.00">2</text>
</g>
<!-- 44&#45;&gt;511 -->
<g id="edge48" class="edge">
<title>44&#45;&gt;511</title>
<path fill="none" stroke="black" d="M2014.45,-91.17C2031.99,-79.36 2057.18,-62.41 2075.29,-50.22"/>
<polygon fill="black" stroke="black" points="2077.7,-52.82 2084.04,-44.33 2073.79,-47.01 2077.7,-52.82"/>
</g>
<!-- 512 -->
<g id="node39" class="node">
<title>512</title>
<ellipse fill="#b9d3ee" stroke="black" cx="2149.9" cy="-34" rx="16.8" ry="18"/>
<text text-anchor="middle" x="2149.9" y="-30.3" font-family="Times,serif" font-size="14.00">2</text>
</g>
<!-- 44&#45;&gt;512 -->
<g id="edge49" class="edge">
<title>44&#45;&gt;512</title>
<path fill="none" stroke="black" d="M2022.76,-95.05C2049.58,-85.38 2090.34,-69.61 2123.9,-52 2125.05,-51.39 2126.22,-50.75 2127.39,-50.08"/>
<polygon fill="black" stroke="black" points="2129.48,-52.91 2136.16,-44.68 2125.81,-46.95 2129.48,-52.91"/>
</g>
<!-- 520 -->
<g id="node47" class="node">
<title>520</title>
<ellipse fill="#b9d3ee" stroke="black" cx="2201.9" cy="-34" rx="16.8" ry="18"/>
<text text-anchor="middle" x="2201.9" y="-30.3" font-family="Times,serif" font-size="14.00">9</text>
</g>
<!-- 44&#45;&gt;520 -->
<g id="edge57" class="edge">
<title>44&#45;&gt;520</title>
<path fill="none" stroke="black" d="M2026.83,-98.49C2064.1,-90.43 2126.12,-74.9 2175.9,-52 2177.08,-51.45 2178.28,-50.86 2179.47,-50.23"/>
<polygon fill="black" stroke="black" points="2181.5,-53.09 2188.3,-44.97 2177.92,-47.08 2181.5,-53.09"/>
</g>
<!-- 527 -->
<g id="node54" class="node">
<title>527</title>
<ellipse fill="#b9d3ee" stroke="black" cx="2259.9" cy="-34" rx="23" ry="18"/>
<text text-anchor="middle" x="2259.9" y="-30.3" font-family="Times,serif" font-size="14.00">29</text>
</g>
<!-- 44&#45;&gt;527 -->
<g id="edge64" class="edge">
<title>44&#45;&gt;527</title>
<path fill="none" stroke="black" d="M2028.04,-100.18C2074.34,-93 2159.17,-77.52 2227.9,-52 2229.52,-51.4 2231.16,-50.73 2232.8,-50.01"/>
<polygon fill="black" stroke="black" points="2234.52,-53.07 2242.01,-45.57 2231.48,-46.77 2234.52,-53.07"/>
</g>
<!-- 530 -->
<g id="node57" class="node">
<title>530</title>
<ellipse fill="#b9d3ee" stroke="black" cx="1786.9" cy="-34" rx="23" ry="18"/>
<text text-anchor="middle" x="1786.9" y="-30.3" font-family="Times,serif" font-size="14.00">56</text>
</g>
<!-- 44&#45;&gt;530 -->
<g id="edge67" class="edge">
<title>44&#45;&gt;530</title>
<path fill="none" stroke="black" d="M1962.05,-97.55C1926.25,-88.69 1866.75,-72.48 1817.9,-52 1816.52,-51.42 1815.12,-50.8 1813.72,-50.15"/>
<polygon fill="black" stroke="black" points="1815.12,-46.93 1804.61,-45.54 1811.96,-53.18 1815.12,-46.93"/>
</g>
<!-- 532 -->
<g id="node59" class="node">
<title>532</title>
<ellipse fill="#b9d3ee" stroke="black" cx="1855.9" cy="-34" rx="28.7" ry="18"/>
<text text-anchor="middle" x="1855.9" y="-30.3" font-family="Times,serif" font-size="14.00">140</text>
</g>
<!-- 44&#45;&gt;532 -->
<g id="edge69" class="edge">
<title>44&#45;&gt;532</title>
<path fill="none" stroke="black" d="M1969.54,-92.65C1946.49,-80.95 1911.78,-63.35 1886.79,-50.67"/>
<polygon fill="black" stroke="black" points="1888.24,-47.48 1877.74,-46.08 1885.07,-53.72 1888.24,-47.48"/>
</g>
<!-- 533 -->
<g id="node60" class="node">
<title>533</title>
<ellipse fill="#b9d3ee" stroke="black" cx="1930.9" cy="-34" rx="28.7" ry="18"/>
<text text-anchor="middle" x="1930.9" y="-30.3" font-family="Times,serif" font-size="14.00">155</text>
</g>
<!-- 44&#45;&gt;533 -->
<g id="edge70" class="edge">
<title>44&#45;&gt;533</title>
<path fill="none" stroke="black" d="M1979.6,-89.12C1971.27,-79.86 1960.62,-68.03 1951.41,-57.79"/>
<polygon fill="black" stroke="black" points="1954,-55.43 1944.7,-50.34 1948.79,-60.11 1954,-55.43"/>
</g>
<!-- 522 -->
<g id="node49" class="node">
<title>522</title>
<ellipse fill="#b9d3ee" stroke="black" cx="1338.9" cy="-34" rx="23" ry="18"/>
<text text-anchor="middle" x="1338.9" y="-30.3" font-family="Times,serif" font-size="14.00">11</text>
</g>
<!-- 45&#45;&gt;522 -->
<g id="edge59" class="edge">
<title>45&#45;&gt;522</title>
<path fill="none" stroke="black" d="M1278.61,-89.81C1289.85,-79.59 1304.8,-66 1317,-54.91"/>
<polygon fill="black" stroke="black" points="1319.51,-57.36 1324.55,-48.04 1314.8,-52.18 1319.51,-57.36"/>
</g>
<!-- 537 -->
<g id="node64" class="node">
<title>537</title>
<ellipse fill="#b9d3ee" stroke="black" cx="1261.9" cy="-34" rx="36" ry="18"/>
<text text-anchor="middle" x="1261.9" y="-30.3" font-family="Times,serif" font-size="14.00">396</text>
</g>
<!-- 45&#45;&gt;537 -->
<g id="edge74" class="edge">
<title>45&#45;&gt;537</title>
<path fill="none" stroke="black" d="M1261.9,-87.7C1261.9,-79.98 1261.9,-70.71 1261.9,-62.11"/>
<polygon fill="black" stroke="black" points="1265.4,-62.1 1261.9,-52.1 1258.4,-62.1 1265.4,-62.1"/>
</g>
<!-- legend_5 -->
<g id="node65" class="node">
<title>legend_5</title>
<polygon fill="#b9d3ee" stroke="black" points="2521.4,-52 2300.4,-52 2300.4,-16 2521.4,-16 2521.4,-52"/>
<text text-anchor="middle" x="2410.9" y="-30.3" font-family="Times,serif" font-size="14.00">DT=6 ST=1 Similarity=0.49</text>
</g>
<!-- legend_4&#45;&gt;legend_5 -->
<g id="edge75" class="edge">
<title>legend_4&#45;&gt;legend_5</title>
<path fill="none" stroke="black" d="M2410.9,-87.7C2410.9,-79.98 2410.9,-70.71 2410.9,-62.11"/>
<polygon fill="black" stroke="black" points="2414.4,-62.1 2410.9,-52.1 2407.4,-62.1 2414.4,-62.1"/>
</g>
</g>
</svg>
